<?xml version="1.0" encoding="UTF-8" standalone="no"?>
<!DOCTYPE svg PUBLIC "-//W3C//DTD SVG 1.1//EN"
 "http://www.w3.org/Graphics/SVG/1.1/DTD/svg11.dtd">
<!-- Generated by graphviz version 2.43.0 (0)
 -->
<!-- Title: pycanha::gmm::GeometryModel Pages: 1 -->
<svg width="470pt" height="113pt"
 viewBox="0.00 0.00 470.00 113.00" xmlns="http://www.w3.org/2000/svg" xmlns:xlink="http://www.w3.org/1999/xlink">
<g id="graph0" class="graph" transform="scale(1 1) rotate(0) translate(4 109)">
<title>pycanha::gmm::GeometryModel</title>
<!-- Node1 -->
<g id="Node000001" class="node">
<title>Node1</title>
<g id="a_Node000001"><a xlink:title="Class representing a geometrical mathematical model.">
<polygon fill="#999999" stroke="#666666" points="462,-62 288,-62 288,-43 462,-43 462,-62"/>
<text text-anchor="middle" x="375" y="-50" font-family="Helvetica,sans-Serif" font-size="10.00">pycanha::gmm::GeometryModel</text>
</a>
</g>
</g>
<!-- Node2 -->
<g id="Node000002" class="node">
<title>Node2</title>
<g id="a_Node000002"><a xlink:href="classpycanha_1_1gmm_1_1UniqueID.html" target="_top" xlink:title="Provides a unique integer id.">
<polygon fill="white" stroke="#666666" points="155,-105 15,-105 15,-86 155,-86 155,-105"/>
<text text-anchor="middle" x="85" y="-93" font-family="Helvetica,sans-Serif" font-size="10.00">pycanha::gmm::UniqueID</text>
</a>
</g>
</g>
<!-- Node2&#45;&gt;Node1 -->
<g id="edge1_Node000001_Node000002" class="edge">
<title>Node2&#45;&gt;Node1</title>
<g id="a_edge1_Node000001_Node000002"><a xlink:title=" ">
<path fill="none" stroke="#63b8ff" d="M159.93,-84.46C206.44,-77.52 265.84,-68.65 310.26,-62.02"/>
<polygon fill="#63b8ff" stroke="#63b8ff" points="159.29,-81.02 149.92,-85.96 160.32,-87.94 159.29,-81.02"/>
</a>
</g>
</g>
<!-- Node3 -->
<g id="Node000003" class="node">
<title>Node3</title>
<g id="a_Node000003"><a xlink:title=" ">
<polygon fill="white" stroke="#bfbfbf" points="170,-67.5 0,-67.5 0,-37.5 170,-37.5 170,-67.5"/>
<text text-anchor="start" x="8" y="-55.5" font-family="Helvetica,sans-Serif" font-size="10.00">std::enable_shared</text>
<text text-anchor="middle" x="85" y="-44.5" font-family="Helvetica,sans-Serif" font-size="10.00">_from_this&lt; GeometryModel &gt;</text>
</a>
</g>
</g>
<!-- Node3&#45;&gt;Node1 -->
<g id="edge2_Node000001_Node000003" class="edge">
<title>Node3&#45;&gt;Node1</title>
<g id="a_edge2_Node000001_Node000003"><a xlink:title=" ">
<path fill="none" stroke="#63b8ff" d="M180.2,-52.5C214.86,-52.5 253.91,-52.5 287.82,-52.5"/>
<polygon fill="#63b8ff" stroke="#63b8ff" points="180.08,-49 170.08,-52.5 180.08,-56 180.08,-49"/>
</a>
</g>
</g>
<!-- Node4 -->
<g id="Node000004" class="node">
<title>Node4</title>
<g id="a_Node000004"><a xlink:href="classpycanha_1_1gmm_1_1TriMeshModel.html" target="_top" xlink:title="A collection of TriMeshes in a compacted cache&#45;friendly format.">
<polygon fill="white" stroke="#666666" points="166.5,-19 3.5,-19 3.5,0 166.5,0 166.5,-19"/>
<text text-anchor="middle" x="85" y="-7" font-family="Helvetica,sans-Serif" font-size="10.00">pycanha::gmm::TriMeshModel</text>
</a>
</g>
</g>
<!-- Node4&#45;&gt;Node1 -->
<g id="edge3_Node000001_Node000004" class="edge">
<title>Node4&#45;&gt;Node1</title>
<g id="a_edge3_Node000001_Node000004"><a xlink:title=" ">
<path fill="none" stroke="#9a32cd" stroke-dasharray="5,2" d="M159.93,-20.54C206.44,-27.48 265.84,-36.35 310.26,-42.98"/>
<polygon fill="#9a32cd" stroke="#9a32cd" points="160.32,-17.06 149.92,-19.04 159.29,-23.98 160.32,-17.06"/>
</a>
</g>
<text text-anchor="middle" x="229" y="-38.5" font-family="Helvetica,sans-Serif" font-size="10.00" fill="grey"> _trimesh_model</text>
</g>
</g>
</svg>
