<?xml version="1.0" encoding="UTF-8" standalone="no"?>
<!DOCTYPE svg PUBLIC "-//W3C//DTD SVG 1.1//EN"
 "http://www.w3.org/Graphics/SVG/1.1/DTD/svg11.dtd">
<!-- Generated by graphviz version 2.43.0 (0)
 -->
<!-- Title: pycanha::gmm::Triangle::create_mesh Pages: 1 -->
<svg width="688pt" height="611pt"
 viewBox="0.00 0.00 688.00 611.00" xmlns="http://www.w3.org/2000/svg" xmlns:xlink="http://www.w3.org/1999/xlink">
<g id="graph0" class="graph" transform="scale(1 1) rotate(0) translate(4 607)">
<title>pycanha::gmm::Triangle::create_mesh</title>
<!-- Node1 -->
<g id="node1" class="node">
<title>Node1</title>
<g id="a_node1"><a xlink:title="Creates the triangular mesh from the primitive.">
<polygon fill="#bfbfbf" stroke="black" points="0,-294.5 0,-324.5 134,-324.5 134,-294.5 0,-294.5"/>
<text text-anchor="start" x="8" y="-312.5" font-family="Helvetica,sans-Serif" font-size="10.00">pycanha::gmm::Triangle</text>
<text text-anchor="middle" x="67" y="-301.5" font-family="Helvetica,sans-Serif" font-size="10.00">::create_mesh</text>
</a>
</g>
</g>
<!-- Node2 -->
<g id="node2" class="node">
<title>Node2</title>
<g id="a_node2"><a xlink:href="classpycanha_1_1gmm_1_1Triangle.html#ad8405cc3fb6b587860fd4df1813ae6c1" target="_top" xlink:title="3D coordinates of a point ON the primitive surface from 2D coordinates. Note: The method is not valid...">
<polygon fill="none" stroke="black" points="349,-572.5 349,-602.5 483,-602.5 483,-572.5 349,-572.5"/>
<text text-anchor="start" x="357" y="-590.5" font-family="Helvetica,sans-Serif" font-size="10.00">pycanha::gmm::Triangle</text>
<text text-anchor="middle" x="416" y="-579.5" font-family="Helvetica,sans-Serif" font-size="10.00">::from_2d_to_3d</text>
</a>
</g>
</g>
<!-- Node1&#45;&gt;Node2 -->
<g id="edge1" class="edge">
<title>Node1&#45;&gt;Node2</title>
<path fill="none" stroke="midnightblue" d="M69.1,-324.66C73.21,-368.99 91.71,-498.99 170,-558.5 217.55,-594.64 286,-600.02 338.47,-597.41"/>
<polygon fill="midnightblue" stroke="midnightblue" points="338.96,-600.89 348.73,-596.8 338.54,-593.9 338.96,-600.89"/>
</g>
<!-- Node4 -->
<g id="node4" class="node">
<title>Node4</title>
<g id="a_node4"><a xlink:href="classpycanha_1_1gmm_1_1Triangle.html#a63ee40470d93361a8c4462b4fdde2127" target="_top" xlink:title="2D coordinates of a point ON the primitive surface from 3D coordinates. Note: It is assumed that the ...">
<polygon fill="none" stroke="black" points="349,-523.5 349,-553.5 483,-553.5 483,-523.5 349,-523.5"/>
<text text-anchor="start" x="357" y="-541.5" font-family="Helvetica,sans-Serif" font-size="10.00">pycanha::gmm::Triangle</text>
<text text-anchor="middle" x="416" y="-530.5" font-family="Helvetica,sans-Serif" font-size="10.00">::from_3d_to_2d</text>
</a>
</g>
</g>
<!-- Node1&#45;&gt;Node4 -->
<g id="edge3" class="edge">
<title>Node1&#45;&gt;Node4</title>
<path fill="none" stroke="midnightblue" d="M69.69,-324.77C75.19,-366.39 96.75,-481.93 170,-530.5 220.13,-563.74 289.58,-562.72 341.74,-555.13"/>
<polygon fill="midnightblue" stroke="midnightblue" points="342.59,-558.54 351.93,-553.53 341.51,-551.62 342.59,-558.54"/>
</g>
<!-- Node5 -->
<g id="node5" class="node">
<title>Node5</title>
<g id="a_node5"><a xlink:href="classpycanha_1_1gmm_1_1TriMesh.html#a81f6628b978aaeac9d36fafc63e0eead" target="_top" xlink:title="Get face ids vector.">
<polygon fill="none" stroke="black" points="170.5,-490.5 170.5,-520.5 303.5,-520.5 303.5,-490.5 170.5,-490.5"/>
<text text-anchor="start" x="178.5" y="-508.5" font-family="Helvetica,sans-Serif" font-size="10.00">pycanha::gmm::TriMesh</text>
<text text-anchor="middle" x="237" y="-497.5" font-family="Helvetica,sans-Serif" font-size="10.00">::get_face_ids</text>
</a>
</g>
</g>
<!-- Node1&#45;&gt;Node5 -->
<g id="edge5" class="edge">
<title>Node1&#45;&gt;Node5</title>
<path fill="none" stroke="midnightblue" d="M73.01,-324.73C84.68,-357.93 116.81,-437.41 170,-481.5 171.55,-482.78 173.17,-484 174.85,-485.16"/>
<polygon fill="midnightblue" stroke="midnightblue" points="173.3,-488.3 183.68,-490.43 176.89,-482.29 173.3,-488.3"/>
</g>
<!-- Node6 -->
<g id="node6" class="node">
<title>Node6</title>
<g id="a_node6"><a xlink:href="classpycanha_1_1gmm_1_1Triangle.html#a691cd31a1c3f5de250e32ed063eb5496" target="_top" xlink:title="Returns the ID of the face in the thermal mesh that contains the given UV coordinates....">
<polygon fill="none" stroke="black" points="170,-441.5 170,-471.5 304,-471.5 304,-441.5 170,-441.5"/>
<text text-anchor="start" x="178" y="-459.5" font-family="Helvetica,sans-Serif" font-size="10.00">pycanha::gmm::Triangle</text>
<text text-anchor="middle" x="237" y="-448.5" font-family="Helvetica,sans-Serif" font-size="10.00">::get_faceid_from_uv</text>
</a>
</g>
</g>
<!-- Node1&#45;&gt;Node6 -->
<g id="edge6" class="edge">
<title>Node1&#45;&gt;Node6</title>
<path fill="none" stroke="midnightblue" d="M77.07,-324.79C92.9,-350.27 127.93,-401.58 170,-431.5 172.65,-433.38 175.45,-435.14 178.35,-436.79"/>
<polygon fill="midnightblue" stroke="midnightblue" points="176.8,-439.92 187.3,-441.37 180,-433.69 176.8,-439.92"/>
</g>
<!-- Node8 -->
<g id="node8" class="node">
<title>Node8</title>
<g id="a_node8"><a xlink:href="classpycanha_1_1gmm_1_1Triangle.html#a9ceec935ef361eb7735ee96da585fe46" target="_top" xlink:title="Returns the first vertex of the triangle.">
<polygon fill="none" stroke="black" points="170,-392.5 170,-422.5 304,-422.5 304,-392.5 170,-392.5"/>
<text text-anchor="start" x="178" y="-410.5" font-family="Helvetica,sans-Serif" font-size="10.00">pycanha::gmm::Triangle</text>
<text text-anchor="middle" x="237" y="-399.5" font-family="Helvetica,sans-Serif" font-size="10.00">::get_p1</text>
</a>
</g>
</g>
<!-- Node1&#45;&gt;Node8 -->
<g id="edge10" class="edge">
<title>Node1&#45;&gt;Node8</title>
<path fill="none" stroke="midnightblue" d="M86.21,-324.77C105.91,-340.73 138.71,-365.74 170,-382.5 173.77,-384.52 177.73,-386.45 181.77,-388.28"/>
<polygon fill="midnightblue" stroke="midnightblue" points="180.71,-391.63 191.28,-392.37 183.47,-385.2 180.71,-391.63"/>
</g>
<!-- Node9 -->
<g id="node9" class="node">
<title>Node9</title>
<g id="a_node9"><a xlink:href="classpycanha_1_1gmm_1_1Triangle.html#aac62eb826a36358ad9811172d0825979" target="_top" xlink:title="Returns the second vertex of the triangle.">
<polygon fill="none" stroke="black" points="170,-343.5 170,-373.5 304,-373.5 304,-343.5 170,-343.5"/>
<text text-anchor="start" x="178" y="-361.5" font-family="Helvetica,sans-Serif" font-size="10.00">pycanha::gmm::Triangle</text>
<text text-anchor="middle" x="237" y="-350.5" font-family="Helvetica,sans-Serif" font-size="10.00">::get_p2</text>
</a>
</g>
</g>
<!-- Node1&#45;&gt;Node9 -->
<g id="edge11" class="edge">
<title>Node1&#45;&gt;Node9</title>
<path fill="none" stroke="midnightblue" d="M119.78,-324.6C137.1,-329.66 156.59,-335.34 174.58,-340.58"/>
<polygon fill="midnightblue" stroke="midnightblue" points="173.81,-344.01 184.39,-343.45 175.77,-337.29 173.81,-344.01"/>
</g>
<!-- Node10 -->
<g id="node10" class="node">
<title>Node10</title>
<g id="a_node10"><a xlink:href="classpycanha_1_1gmm_1_1Triangle.html#a99ffbb35ea0374cc0fcbd44b62b05bf3" target="_top" xlink:title="Returns the third vertex of the triangle.">
<polygon fill="none" stroke="black" points="170,-294.5 170,-324.5 304,-324.5 304,-294.5 170,-294.5"/>
<text text-anchor="start" x="178" y="-312.5" font-family="Helvetica,sans-Serif" font-size="10.00">pycanha::gmm::Triangle</text>
<text text-anchor="middle" x="237" y="-301.5" font-family="Helvetica,sans-Serif" font-size="10.00">::get_p3</text>
</a>
</g>
</g>
<!-- Node1&#45;&gt;Node10 -->
<g id="edge12" class="edge">
<title>Node1&#45;&gt;Node10</title>
<path fill="none" stroke="midnightblue" d="M134.4,-309.5C142.68,-309.5 151.2,-309.5 159.62,-309.5"/>
<polygon fill="midnightblue" stroke="midnightblue" points="159.81,-313 169.81,-309.5 159.81,-306 159.81,-313"/>
</g>
<!-- Node11 -->
<g id="node11" class="node">
<title>Node11</title>
<g id="a_node11"><a xlink:href="classpycanha_1_1gmm_1_1Color.html#a6b0ff80336dd7c71b042dd65fb5534da" target="_top" xlink:title="Get the RGB values.">
<polygon fill="none" stroke="black" points="176.5,-245.5 176.5,-275.5 297.5,-275.5 297.5,-245.5 176.5,-245.5"/>
<text text-anchor="start" x="184.5" y="-263.5" font-family="Helvetica,sans-Serif" font-size="10.00">pycanha::gmm::Color</text>
<text text-anchor="middle" x="237" y="-252.5" font-family="Helvetica,sans-Serif" font-size="10.00">::get_rgb</text>
</a>
</g>
</g>
<!-- Node1&#45;&gt;Node11 -->
<g id="edge13" class="edge">
<title>Node1&#45;&gt;Node11</title>
<path fill="none" stroke="midnightblue" d="M119.78,-294.4C137.1,-289.34 156.59,-283.66 174.58,-278.42"/>
<polygon fill="midnightblue" stroke="midnightblue" points="175.77,-281.71 184.39,-275.55 173.81,-274.99 175.77,-281.71"/>
</g>
<!-- Node12 -->
<g id="node12" class="node">
<title>Node12</title>
<g id="a_node12"><a xlink:href="classpycanha_1_1gmm_1_1TriMesh.html#a113cdc2728d6b47e8841ef9732ebd9b2" target="_top" xlink:title="Get triangles matrix.">
<polygon fill="none" stroke="black" points="170.5,-196.5 170.5,-226.5 303.5,-226.5 303.5,-196.5 170.5,-196.5"/>
<text text-anchor="start" x="178.5" y="-214.5" font-family="Helvetica,sans-Serif" font-size="10.00">pycanha::gmm::TriMesh</text>
<text text-anchor="middle" x="237" y="-203.5" font-family="Helvetica,sans-Serif" font-size="10.00">::get_triangles</text>
</a>
</g>
</g>
<!-- Node1&#45;&gt;Node12 -->
<g id="edge14" class="edge">
<title>Node1&#45;&gt;Node12</title>
<path fill="none" stroke="midnightblue" d="M85.77,-294.22C105.36,-277.97 138.31,-252.33 170,-235.5 173.26,-233.77 176.67,-232.11 180.16,-230.53"/>
<polygon fill="midnightblue" stroke="midnightblue" points="181.66,-233.7 189.49,-226.55 178.91,-227.26 181.66,-233.7"/>
</g>
<!-- Node13 -->
<g id="node13" class="node">
<title>Node13</title>
<g id="a_node13"><a xlink:href="classpycanha_1_1gmm_1_1TriMesh.html#a5e7a2cc9ec97ba48a13277d2c391e928" target="_top" xlink:title="Get vertices matrix.">
<polygon fill="none" stroke="black" points="170.5,-147.5 170.5,-177.5 303.5,-177.5 303.5,-147.5 170.5,-147.5"/>
<text text-anchor="start" x="178.5" y="-165.5" font-family="Helvetica,sans-Serif" font-size="10.00">pycanha::gmm::TriMesh</text>
<text text-anchor="middle" x="237" y="-154.5" font-family="Helvetica,sans-Serif" font-size="10.00">::get_vertices</text>
</a>
</g>
</g>
<!-- Node1&#45;&gt;Node13 -->
<g id="edge15" class="edge">
<title>Node1&#45;&gt;Node13</title>
<path fill="none" stroke="midnightblue" d="M76.74,-294.43C92.34,-268.79 127.36,-216.53 170,-186.5 172.09,-185.03 174.29,-183.63 176.55,-182.31"/>
<polygon fill="midnightblue" stroke="midnightblue" points="178.32,-185.34 185.57,-177.61 175.08,-179.13 178.32,-185.34"/>
</g>
<!-- Node14 -->
<g id="node14" class="node">
<title>Node14</title>
<g id="a_node14"><a xlink:href="classpycanha_1_1gmm_1_1TriMesh.html#a27e1232524b78c47b58b8d4d45d8172d" target="_top" xlink:title="Set the surface 1 color.">
<polygon fill="none" stroke="black" points="170.5,-98.5 170.5,-128.5 303.5,-128.5 303.5,-98.5 170.5,-98.5"/>
<text text-anchor="start" x="178.5" y="-116.5" font-family="Helvetica,sans-Serif" font-size="10.00">pycanha::gmm::TriMesh</text>
<text text-anchor="middle" x="237" y="-105.5" font-family="Helvetica,sans-Serif" font-size="10.00">::set_surface1_color</text>
</a>
</g>
</g>
<!-- Node1&#45;&gt;Node14 -->
<g id="edge16" class="edge">
<title>Node1&#45;&gt;Node14</title>
<path fill="none" stroke="midnightblue" d="M73.01,-294.27C84.68,-261.07 116.81,-181.59 170,-137.5 171.55,-136.22 173.17,-135 174.85,-133.84"/>
<polygon fill="midnightblue" stroke="midnightblue" points="176.89,-136.71 183.68,-128.57 173.3,-130.7 176.89,-136.71"/>
</g>
<!-- Node15 -->
<g id="node15" class="node">
<title>Node15</title>
<g id="a_node15"><a xlink:href="classpycanha_1_1gmm_1_1TriMesh.html#a331d5c97a882188d4454694b4a2a4af9" target="_top" xlink:title="Set the surface 2 color.">
<polygon fill="none" stroke="black" points="170.5,-49.5 170.5,-79.5 303.5,-79.5 303.5,-49.5 170.5,-49.5"/>
<text text-anchor="start" x="178.5" y="-67.5" font-family="Helvetica,sans-Serif" font-size="10.00">pycanha::gmm::TriMesh</text>
<text text-anchor="middle" x="237" y="-56.5" font-family="Helvetica,sans-Serif" font-size="10.00">::set_surface2_color</text>
</a>
</g>
</g>
<!-- Node1&#45;&gt;Node15 -->
<g id="edge17" class="edge">
<title>Node1&#45;&gt;Node15</title>
<path fill="none" stroke="midnightblue" d="M70.82,-294.25C78.92,-254.62 105.93,-147.43 170,-88.5 171.3,-87.31 172.66,-86.17 174.07,-85.1"/>
<polygon fill="midnightblue" stroke="midnightblue" points="176.18,-87.9 182.65,-79.51 172.36,-82.03 176.18,-87.9"/>
</g>
<!-- Node16 -->
<g id="node16" class="node">
<title>Node16</title>
<g id="a_node16"><a xlink:href="classpycanha_1_1gmm_1_1TriMesh.html#a7f0a8a501de5c2d065f71e164b956b39" target="_top" xlink:title="Sort the triangles according to the face ids.">
<polygon fill="none" stroke="black" points="170.5,-0.5 170.5,-30.5 303.5,-30.5 303.5,-0.5 170.5,-0.5"/>
<text text-anchor="start" x="178.5" y="-18.5" font-family="Helvetica,sans-Serif" font-size="10.00">pycanha::gmm::TriMesh</text>
<text text-anchor="middle" x="237" y="-7.5" font-family="Helvetica,sans-Serif" font-size="10.00">::sort_triangles</text>
</a>
</g>
</g>
<!-- Node1&#45;&gt;Node16 -->
<g id="edge18" class="edge">
<title>Node1&#45;&gt;Node16</title>
<path fill="none" stroke="midnightblue" d="M69.37,-294.29C74.26,-249.04 94.78,-113.8 170,-39.5 171.08,-38.43 172.22,-37.41 173.4,-36.43"/>
<polygon fill="midnightblue" stroke="midnightblue" points="175.54,-39.2 181.74,-30.61 171.54,-33.46 175.54,-39.2"/>
</g>
<!-- Node3 -->
<g id="node3" class="node">
<title>Node3</title>
<g id="a_node3"><a xlink:href="classpycanha_1_1gmm_1_1Triangle.html#af4f67a2841391839a57889d67443ef0c" target="_top" xlink:title="Returns the first direction v1 = p2 &#45; p1.">
<polygon fill="none" stroke="black" points="528,-529 528,-548 680,-548 680,-529 528,-529"/>
<text text-anchor="middle" x="604" y="-536" font-family="Helvetica,sans-Serif" font-size="10.00">pycanha::gmm::Triangle::v1</text>
</a>
</g>
</g>
<!-- Node2&#45;&gt;Node3 -->
<g id="edge2" class="edge">
<title>Node2&#45;&gt;Node3</title>
<path fill="none" stroke="midnightblue" d="M474.07,-572.47C500.63,-565.47 531.81,-557.25 556.86,-550.66"/>
<polygon fill="midnightblue" stroke="midnightblue" points="558.05,-553.96 566.83,-548.03 556.27,-547.19 558.05,-553.96"/>
</g>
<!-- Node4&#45;&gt;Node3 -->
<g id="edge4" class="edge">
<title>Node4&#45;&gt;Node3</title>
<path fill="none" stroke="midnightblue" d="M483.1,-538.5C494.33,-538.5 506.12,-538.5 517.76,-538.5"/>
<polygon fill="midnightblue" stroke="midnightblue" points="517.92,-542 527.92,-538.5 517.92,-535 517.92,-542"/>
</g>
<!-- Node6&#45;&gt;Node3 -->
<g id="edge8" class="edge">
<title>Node6&#45;&gt;Node3</title>
<path fill="none" stroke="midnightblue" d="M304.1,-471.35C374.79,-487.23 485.46,-512.09 550.45,-526.69"/>
<polygon fill="midnightblue" stroke="midnightblue" points="549.95,-530.17 560.48,-528.95 551.49,-523.34 549.95,-530.17"/>
</g>
<!-- Node6&#45;&gt;Node4 -->
<g id="edge7" class="edge">
<title>Node6&#45;&gt;Node4</title>
<path fill="none" stroke="midnightblue" d="M282.79,-471.5C290.04,-474.49 297.34,-477.84 304,-481.5 321.52,-491.14 322.56,-498.7 340,-508.5 347.04,-512.46 354.71,-516.15 362.37,-519.5"/>
<polygon fill="midnightblue" stroke="midnightblue" points="361.08,-522.76 371.66,-523.41 363.8,-516.31 361.08,-522.76"/>
</g>
<!-- Node7 -->
<g id="node7" class="node">
<title>Node7</title>
<g id="a_node7"><a xlink:href="classpycanha_1_1gmm_1_1Triangle.html#a113cd18f27bd12d15681af628524300c" target="_top" xlink:title="Returns the second direction v2 = p3 &#45; p2.">
<polygon fill="none" stroke="black" points="340,-447 340,-466 492,-466 492,-447 340,-447"/>
<text text-anchor="middle" x="416" y="-454" font-family="Helvetica,sans-Serif" font-size="10.00">pycanha::gmm::Triangle::v2</text>
</a>
</g>
</g>
<!-- Node6&#45;&gt;Node7 -->
<g id="edge9" class="edge">
<title>Node6&#45;&gt;Node7</title>
<path fill="none" stroke="midnightblue" d="M304.16,-456.5C312.56,-456.5 321.24,-456.5 329.89,-456.5"/>
<polygon fill="midnightblue" stroke="midnightblue" points="329.99,-460 339.99,-456.5 329.99,-453 329.99,-460"/>
</g>
</g>
</svg>
