<?xml version="1.0" encoding="UTF-8" standalone="no"?>
<!DOCTYPE svg PUBLIC "-//W3C//DTD SVG 1.1//EN"
 "http://www.w3.org/Graphics/SVG/1.1/DTD/svg11.dtd">
<!-- Generated by graphviz version 2.43.0 (0)
 -->
<!-- Title: pycanha::gmm::Triangle::create_mesh Pages: 1 -->
<svg width="688pt" height="599pt"
 viewBox="0.00 0.00 688.00 599.00" xmlns="http://www.w3.org/2000/svg" xmlns:xlink="http://www.w3.org/1999/xlink">
<g id="graph0" class="graph" transform="scale(1 1) rotate(0) translate(4 595)">
<title>pycanha::gmm::Triangle::create_mesh</title>
<!-- Node1 -->
<g id="Node000001" class="node">
<title>Node1</title>
<g id="a_Node000001"><a xlink:title="Creates the triangular mesh from the primitive.">
<polygon fill="#999999" stroke="#666666" points="134,-318 0,-318 0,-288 134,-288 134,-318"/>
<text text-anchor="start" x="8" y="-306" font-family="Helvetica,sans-Serif" font-size="10.00">pycanha::gmm::Triangle</text>
<text text-anchor="middle" x="67" y="-295" font-family="Helvetica,sans-Serif" font-size="10.00">::create_mesh</text>
</a>
</g>
</g>
<!-- Node2 -->
<g id="Node000002" class="node">
<title>Node2</title>
<g id="a_Node000002"><a xlink:href="classpycanha_1_1gmm_1_1Triangle.html#ad8405cc3fb6b587860fd4df1813ae6c1" target="_top" xlink:title="3D coordinates of a point ON the primitive surface from 2D coordinates. Note: The method is not valid...">
<polygon fill="white" stroke="#666666" points="483,-591 349,-591 349,-561 483,-561 483,-591"/>
<text text-anchor="start" x="357" y="-579" font-family="Helvetica,sans-Serif" font-size="10.00">pycanha::gmm::Triangle</text>
<text text-anchor="middle" x="416" y="-568" font-family="Helvetica,sans-Serif" font-size="10.00">::from_2d_to_3d</text>
</a>
</g>
</g>
<!-- Node1&#45;&gt;Node2 -->
<g id="edge1_Node000001_Node000002" class="edge">
<title>Node1&#45;&gt;Node2</title>
<g id="a_edge1_Node000001_Node000002"><a xlink:title=" ">
<path fill="none" stroke="#63b8ff" d="M69.24,-318.18C73.7,-361.94 93.03,-488.93 170,-547 217.68,-582.97 286.12,-588.36 338.55,-585.81"/>
<polygon fill="#63b8ff" stroke="#63b8ff" points="339.03,-589.29 348.81,-585.2 338.62,-582.3 339.03,-589.29"/>
</a>
</g>
</g>
<!-- Node4 -->
<g id="Node000004" class="node">
<title>Node4</title>
<g id="a_Node000004"><a xlink:href="classpycanha_1_1gmm_1_1Triangle.html#a63ee40470d93361a8c4462b4fdde2127" target="_top" xlink:title="2D coordinates of a point ON the primitive surface from 3D coordinates. Note: It is assumed that the ...">
<polygon fill="white" stroke="#666666" points="483,-543 349,-543 349,-513 483,-513 483,-543"/>
<text text-anchor="start" x="357" y="-531" font-family="Helvetica,sans-Serif" font-size="10.00">pycanha::gmm::Triangle</text>
<text text-anchor="middle" x="416" y="-520" font-family="Helvetica,sans-Serif" font-size="10.00">::from_3d_to_2d</text>
</a>
</g>
</g>
<!-- Node1&#45;&gt;Node4 -->
<g id="edge3_Node000001_Node000004" class="edge">
<title>Node1&#45;&gt;Node4</title>
<g id="a_edge3_Node000001_Node000004"><a xlink:title=" ">
<path fill="none" stroke="#63b8ff" d="M69.86,-318.22C75.77,-359.14 98.17,-471.61 170,-519 219.38,-551.58 287.36,-551.43 339.18,-544.5"/>
<polygon fill="#63b8ff" stroke="#63b8ff" points="339.93,-547.92 349.32,-543.03 338.92,-541 339.93,-547.92"/>
</a>
</g>
</g>
<!-- Node5 -->
<g id="Node000005" class="node">
<title>Node5</title>
<g id="a_Node000005"><a xlink:href="classpycanha_1_1gmm_1_1TriMesh.html#a719e49a87330de4cc80fe24f8d871d77" target="_top" xlink:title="Get face ids vector.">
<polygon fill="white" stroke="#666666" points="303.5,-510 170.5,-510 170.5,-480 303.5,-480 303.5,-510"/>
<text text-anchor="start" x="178.5" y="-498" font-family="Helvetica,sans-Serif" font-size="10.00">pycanha::gmm::TriMesh</text>
<text text-anchor="middle" x="237" y="-487" font-family="Helvetica,sans-Serif" font-size="10.00">::get_face_ids</text>
</a>
</g>
</g>
<!-- Node1&#45;&gt;Node5 -->
<g id="edge5_Node000001_Node000005" class="edge">
<title>Node1&#45;&gt;Node5</title>
<g id="a_edge5_Node000001_Node000005"><a xlink:title=" ">
<path fill="none" stroke="#63b8ff" d="M73.29,-318.37C85.31,-351.09 117.76,-428.15 170,-471 171.56,-472.28 173.18,-473.49 174.87,-474.64"/>
<polygon fill="#63b8ff" stroke="#63b8ff" points="173.33,-477.79 183.71,-479.88 176.9,-471.77 173.33,-477.79"/>
</a>
</g>
</g>
<!-- Node6 -->
<g id="Node000006" class="node">
<title>Node6</title>
<g id="a_Node000006"><a xlink:href="classpycanha_1_1gmm_1_1Triangle.html#a691cd31a1c3f5de250e32ed063eb5496" target="_top" xlink:title="Returns the ID of the face in the thermal mesh that contains the given UV coordinates....">
<polygon fill="white" stroke="#666666" points="304,-462 170,-462 170,-432 304,-432 304,-462"/>
<text text-anchor="start" x="178" y="-450" font-family="Helvetica,sans-Serif" font-size="10.00">pycanha::gmm::Triangle</text>
<text text-anchor="middle" x="237" y="-439" font-family="Helvetica,sans-Serif" font-size="10.00">::get_faceid_from_uv</text>
</a>
</g>
</g>
<!-- Node1&#45;&gt;Node6 -->
<g id="edge6_Node000001_Node000006" class="edge">
<title>Node1&#45;&gt;Node6</title>
<g id="a_edge6_Node000001_Node000006"><a xlink:title=" ">
<path fill="none" stroke="#63b8ff" d="M77.09,-318.09C92.94,-343.24 128.02,-393.81 170,-423 172.15,-424.49 174.4,-425.9 176.72,-427.23"/>
<polygon fill="#63b8ff" stroke="#63b8ff" points="175.46,-430.52 185.95,-431.99 178.66,-424.3 175.46,-430.52"/>
</a>
</g>
</g>
<!-- Node8 -->
<g id="Node000008" class="node">
<title>Node8</title>
<g id="a_Node000008"><a xlink:href="classpycanha_1_1gmm_1_1Triangle.html#a6136942eab367dc7ead06260c2c86ac5" target="_top" xlink:title="Returns the first vertex of the triangle.">
<polygon fill="white" stroke="#666666" points="304,-414 170,-414 170,-384 304,-384 304,-414"/>
<text text-anchor="start" x="178" y="-402" font-family="Helvetica,sans-Serif" font-size="10.00">pycanha::gmm::Triangle</text>
<text text-anchor="middle" x="237" y="-391" font-family="Helvetica,sans-Serif" font-size="10.00">::get_p1</text>
</a>
</g>
</g>
<!-- Node1&#45;&gt;Node8 -->
<g id="edge10_Node000001_Node000008" class="edge">
<title>Node1&#45;&gt;Node8</title>
<g id="a_edge10_Node000001_Node000008"><a xlink:title=" ">
<path fill="none" stroke="#63b8ff" d="M86.21,-318.12C105.9,-333.92 138.69,-358.63 170,-375 173.27,-376.71 176.69,-378.35 180.18,-379.92"/>
<polygon fill="#63b8ff" stroke="#63b8ff" points="178.95,-383.2 189.52,-383.88 181.68,-376.75 178.95,-383.2"/>
</a>
</g>
</g>
<!-- Node9 -->
<g id="Node000009" class="node">
<title>Node9</title>
<g id="a_Node000009"><a xlink:href="classpycanha_1_1gmm_1_1Triangle.html#af09d689922fc27642700a10678702737" target="_top" xlink:title="Returns the second vertex of the triangle.">
<polygon fill="white" stroke="#666666" points="304,-366 170,-366 170,-336 304,-336 304,-366"/>
<text text-anchor="start" x="178" y="-354" font-family="Helvetica,sans-Serif" font-size="10.00">pycanha::gmm::Triangle</text>
<text text-anchor="middle" x="237" y="-343" font-family="Helvetica,sans-Serif" font-size="10.00">::get_p2</text>
</a>
</g>
</g>
<!-- Node1&#45;&gt;Node9 -->
<g id="edge11_Node000001_Node000009" class="edge">
<title>Node1&#45;&gt;Node9</title>
<g id="a_edge11_Node000001_Node000009"><a xlink:title=" ">
<path fill="none" stroke="#63b8ff" d="M120.7,-318.06C137.43,-322.84 156.09,-328.17 173.45,-333.13"/>
<polygon fill="#63b8ff" stroke="#63b8ff" points="172.91,-336.62 183.49,-336 174.84,-329.89 172.91,-336.62"/>
</a>
</g>
</g>
<!-- Node10 -->
<g id="Node000010" class="node">
<title>Node10</title>
<g id="a_Node000010"><a xlink:href="classpycanha_1_1gmm_1_1Triangle.html#ae0d26d6ae6b3ccf188a3e0ccb4d6debf" target="_top" xlink:title="Returns the third vertex of the triangle.">
<polygon fill="white" stroke="#666666" points="304,-318 170,-318 170,-288 304,-288 304,-318"/>
<text text-anchor="start" x="178" y="-306" font-family="Helvetica,sans-Serif" font-size="10.00">pycanha::gmm::Triangle</text>
<text text-anchor="middle" x="237" y="-295" font-family="Helvetica,sans-Serif" font-size="10.00">::get_p3</text>
</a>
</g>
</g>
<!-- Node1&#45;&gt;Node10 -->
<g id="edge12_Node000001_Node000010" class="edge">
<title>Node1&#45;&gt;Node10</title>
<g id="a_edge12_Node000001_Node000010"><a xlink:title=" ">
<path fill="none" stroke="#63b8ff" d="M134.4,-303C142.68,-303 151.2,-303 159.62,-303"/>
<polygon fill="#63b8ff" stroke="#63b8ff" points="159.81,-306.5 169.81,-303 159.81,-299.5 159.81,-306.5"/>
</a>
</g>
</g>
<!-- Node11 -->
<g id="Node000011" class="node">
<title>Node11</title>
<g id="a_Node000011"><a xlink:href="classpycanha_1_1gmm_1_1Color.html#a6b0ff80336dd7c71b042dd65fb5534da" target="_top" xlink:title="Get the RGB values.">
<polygon fill="white" stroke="#666666" points="297.5,-270 176.5,-270 176.5,-240 297.5,-240 297.5,-270"/>
<text text-anchor="start" x="184.5" y="-258" font-family="Helvetica,sans-Serif" font-size="10.00">pycanha::gmm::Color</text>
<text text-anchor="middle" x="237" y="-247" font-family="Helvetica,sans-Serif" font-size="10.00">::get_rgb</text>
</a>
</g>
</g>
<!-- Node1&#45;&gt;Node11 -->
<g id="edge13_Node000001_Node000011" class="edge">
<title>Node1&#45;&gt;Node11</title>
<g id="a_edge13_Node000001_Node000011"><a xlink:title=" ">
<path fill="none" stroke="#63b8ff" d="M120.7,-287.94C137.43,-283.16 156.09,-277.83 173.45,-272.87"/>
<polygon fill="#63b8ff" stroke="#63b8ff" points="174.84,-276.11 183.49,-270 172.91,-269.38 174.84,-276.11"/>
</a>
</g>
</g>
<!-- Node12 -->
<g id="Node000012" class="node">
<title>Node12</title>
<g id="a_Node000012"><a xlink:href="classpycanha_1_1gmm_1_1TriMesh.html#aa20d192b636f4453f79d6fd4a3aafcd4" target="_top" xlink:title="Get triangles matrix.">
<polygon fill="white" stroke="#666666" points="303.5,-222 170.5,-222 170.5,-192 303.5,-192 303.5,-222"/>
<text text-anchor="start" x="178.5" y="-210" font-family="Helvetica,sans-Serif" font-size="10.00">pycanha::gmm::TriMesh</text>
<text text-anchor="middle" x="237" y="-199" font-family="Helvetica,sans-Serif" font-size="10.00">::get_triangles</text>
</a>
</g>
</g>
<!-- Node1&#45;&gt;Node12 -->
<g id="edge14_Node000001_Node000012" class="edge">
<title>Node1&#45;&gt;Node12</title>
<g id="a_edge14_Node000001_Node000012"><a xlink:title=" ">
<path fill="none" stroke="#63b8ff" d="M86.21,-287.88C105.9,-272.08 138.69,-247.37 170,-231 173.27,-229.29 176.69,-227.65 180.18,-226.08"/>
<polygon fill="#63b8ff" stroke="#63b8ff" points="181.68,-229.25 189.52,-222.12 178.95,-222.8 181.68,-229.25"/>
</a>
</g>
</g>
<!-- Node13 -->
<g id="Node000013" class="node">
<title>Node13</title>
<g id="a_Node000013"><a xlink:href="classpycanha_1_1gmm_1_1TriMesh.html#a4ed00ebc28ddc7ef836cabed7f9b1881" target="_top" xlink:title="Get vertices matrix.">
<polygon fill="white" stroke="#666666" points="303.5,-174 170.5,-174 170.5,-144 303.5,-144 303.5,-174"/>
<text text-anchor="start" x="178.5" y="-162" font-family="Helvetica,sans-Serif" font-size="10.00">pycanha::gmm::TriMesh</text>
<text text-anchor="middle" x="237" y="-151" font-family="Helvetica,sans-Serif" font-size="10.00">::get_vertices</text>
</a>
</g>
</g>
<!-- Node1&#45;&gt;Node13 -->
<g id="edge15_Node000001_Node000013" class="edge">
<title>Node1&#45;&gt;Node13</title>
<g id="a_edge15_Node000001_Node000013"><a xlink:title=" ">
<path fill="none" stroke="#63b8ff" d="M77.09,-287.91C92.94,-262.76 128.02,-212.19 170,-183 172.15,-181.51 174.4,-180.1 176.72,-178.77"/>
<polygon fill="#63b8ff" stroke="#63b8ff" points="178.66,-181.7 185.95,-174.01 175.46,-175.48 178.66,-181.7"/>
</a>
</g>
</g>
<!-- Node14 -->
<g id="Node000014" class="node">
<title>Node14</title>
<g id="a_Node000014"><a xlink:href="classpycanha_1_1gmm_1_1TriMesh.html#a27e1232524b78c47b58b8d4d45d8172d" target="_top" xlink:title="Set the surface 1 color.">
<polygon fill="white" stroke="#666666" points="303.5,-126 170.5,-126 170.5,-96 303.5,-96 303.5,-126"/>
<text text-anchor="start" x="178.5" y="-114" font-family="Helvetica,sans-Serif" font-size="10.00">pycanha::gmm::TriMesh</text>
<text text-anchor="middle" x="237" y="-103" font-family="Helvetica,sans-Serif" font-size="10.00">::set_surface1_color</text>
</a>
</g>
</g>
<!-- Node1&#45;&gt;Node14 -->
<g id="edge16_Node000001_Node000014" class="edge">
<title>Node1&#45;&gt;Node14</title>
<g id="a_edge16_Node000001_Node000014"><a xlink:title=" ">
<path fill="none" stroke="#63b8ff" d="M73.29,-287.63C85.31,-254.91 117.76,-177.85 170,-135 171.56,-133.72 173.18,-132.51 174.87,-131.36"/>
<polygon fill="#63b8ff" stroke="#63b8ff" points="176.9,-134.23 183.71,-126.12 173.33,-128.21 176.9,-134.23"/>
</a>
</g>
</g>
<!-- Node15 -->
<g id="Node000015" class="node">
<title>Node15</title>
<g id="a_Node000015"><a xlink:href="classpycanha_1_1gmm_1_1TriMesh.html#a331d5c97a882188d4454694b4a2a4af9" target="_top" xlink:title="Set the surface 2 color.">
<polygon fill="white" stroke="#666666" points="303.5,-78 170.5,-78 170.5,-48 303.5,-48 303.5,-78"/>
<text text-anchor="start" x="178.5" y="-66" font-family="Helvetica,sans-Serif" font-size="10.00">pycanha::gmm::TriMesh</text>
<text text-anchor="middle" x="237" y="-55" font-family="Helvetica,sans-Serif" font-size="10.00">::set_surface2_color</text>
</a>
</g>
</g>
<!-- Node1&#45;&gt;Node15 -->
<g id="edge17_Node000001_Node000015" class="edge">
<title>Node1&#45;&gt;Node15</title>
<g id="a_edge17_Node000001_Node000015"><a xlink:title=" ">
<path fill="none" stroke="#63b8ff" d="M70.99,-287.8C79.43,-248.84 107.02,-144.41 170,-87 171.3,-85.81 172.66,-84.69 174.08,-83.61"/>
<polygon fill="#63b8ff" stroke="#63b8ff" points="176.19,-86.42 182.68,-78.04 172.38,-80.54 176.19,-86.42"/>
</a>
</g>
</g>
<!-- Node16 -->
<g id="Node000016" class="node">
<title>Node16</title>
<g id="a_Node000016"><a xlink:href="classpycanha_1_1gmm_1_1TriMesh.html#a7f0a8a501de5c2d065f71e164b956b39" target="_top" xlink:title="Sort the triangles according to the face ids.">
<polygon fill="white" stroke="#666666" points="303.5,-30 170.5,-30 170.5,0 303.5,0 303.5,-30"/>
<text text-anchor="start" x="178.5" y="-18" font-family="Helvetica,sans-Serif" font-size="10.00">pycanha::gmm::TriMesh</text>
<text text-anchor="middle" x="237" y="-7" font-family="Helvetica,sans-Serif" font-size="10.00">::sort_triangles</text>
</a>
</g>
</g>
<!-- Node1&#45;&gt;Node16 -->
<g id="edge18_Node000001_Node000016" class="edge">
<title>Node1&#45;&gt;Node16</title>
<g id="a_edge18_Node000001_Node000016"><a xlink:title=" ">
<path fill="none" stroke="#63b8ff" d="M69.52,-287.81C74.78,-243.23 96.14,-111.4 170,-39 171.09,-37.93 172.23,-36.91 173.41,-35.94"/>
<polygon fill="#63b8ff" stroke="#63b8ff" points="175.55,-38.71 181.77,-30.13 171.56,-32.96 175.55,-38.71"/>
</a>
</g>
</g>
<!-- Node3 -->
<g id="Node000003" class="node">
<title>Node3</title>
<g id="a_Node000003"><a xlink:href="classpycanha_1_1gmm_1_1Triangle.html#af4f67a2841391839a57889d67443ef0c" target="_top" xlink:title="Returns the first direction v1 = p2 &#45; p1.">
<polygon fill="white" stroke="#666666" points="680,-537.5 528,-537.5 528,-518.5 680,-518.5 680,-537.5"/>
<text text-anchor="middle" x="604" y="-525.5" font-family="Helvetica,sans-Serif" font-size="10.00">pycanha::gmm::Triangle::v1</text>
</a>
</g>
</g>
<!-- Node2&#45;&gt;Node3 -->
<g id="edge2_Node000002_Node000003" class="edge">
<title>Node2&#45;&gt;Node3</title>
<g id="a_edge2_Node000002_Node000003"><a xlink:title=" ">
<path fill="none" stroke="#63b8ff" d="M475.34,-560.94C501.37,-554.23 531.63,-546.42 556.15,-540.09"/>
<polygon fill="#63b8ff" stroke="#63b8ff" points="557.13,-543.45 565.94,-537.56 555.38,-536.67 557.13,-543.45"/>
</a>
</g>
</g>
<!-- Node4&#45;&gt;Node3 -->
<g id="edge4_Node000004_Node000003" class="edge">
<title>Node4&#45;&gt;Node3</title>
<g id="a_edge4_Node000004_Node000003"><a xlink:title=" ">
<path fill="none" stroke="#63b8ff" d="M483.1,-528C494.33,-528 506.12,-528 517.76,-528"/>
<polygon fill="#63b8ff" stroke="#63b8ff" points="517.92,-531.5 527.92,-528 517.92,-524.5 517.92,-531.5"/>
</a>
</g>
</g>
<!-- Node6&#45;&gt;Node3 -->
<g id="edge8_Node000006_Node000003" class="edge">
<title>Node6&#45;&gt;Node3</title>
<g id="a_edge8_Node000006_Node000003"><a xlink:title=" ">
<path fill="none" stroke="#63b8ff" d="M304.1,-461.67C374.59,-477.31 484.85,-501.78 549.91,-516.22"/>
<polygon fill="#63b8ff" stroke="#63b8ff" points="549.43,-519.7 559.95,-518.45 550.95,-512.86 549.43,-519.7"/>
</a>
</g>
</g>
<!-- Node6&#45;&gt;Node4 -->
<g id="edge7_Node000006_Node000004" class="edge">
<title>Node6&#45;&gt;Node4</title>
<g id="a_edge7_Node000006_Node000004"><a xlink:title=" ">
<path fill="none" stroke="#63b8ff" d="M284.97,-462.01C291.5,-464.69 298.02,-467.7 304,-471 321.74,-480.81 322.36,-489.02 340,-499 346.35,-502.59 353.23,-505.93 360.16,-508.96"/>
<polygon fill="#63b8ff" stroke="#63b8ff" points="359.02,-512.28 369.6,-512.9 361.72,-505.82 359.02,-512.28"/>
</a>
</g>
</g>
<!-- Node7 -->
<g id="Node000007" class="node">
<title>Node7</title>
<g id="a_Node000007"><a xlink:href="classpycanha_1_1gmm_1_1Triangle.html#a113cd18f27bd12d15681af628524300c" target="_top" xlink:title="Returns the second direction v2 = p3 &#45; p2.">
<polygon fill="white" stroke="#666666" points="492,-456.5 340,-456.5 340,-437.5 492,-437.5 492,-456.5"/>
<text text-anchor="middle" x="416" y="-444.5" font-family="Helvetica,sans-Serif" font-size="10.00">pycanha::gmm::Triangle::v2</text>
</a>
</g>
</g>
<!-- Node6&#45;&gt;Node7 -->
<g id="edge9_Node000006_Node000007" class="edge">
<title>Node6&#45;&gt;Node7</title>
<g id="a_edge9_Node000006_Node000007"><a xlink:title=" ">
<path fill="none" stroke="#63b8ff" d="M304.16,-447C312.56,-447 321.24,-447 329.89,-447"/>
<polygon fill="#63b8ff" stroke="#63b8ff" points="329.99,-450.5 339.99,-447 329.99,-443.5 329.99,-450.5"/>
</a>
</g>
</g>
</g>
</svg>
