<?xml version="1.0" encoding="UTF-8" standalone="no"?>
<!DOCTYPE svg PUBLIC "-//W3C//DTD SVG 1.1//EN"
 "http://www.w3.org/Graphics/SVG/1.1/DTD/svg11.dtd">
<!-- Generated by graphviz version 2.43.0 (0)
 -->
<!-- Title: pycanha::ThermalEntity Pages: 1 -->
<svg width="392pt" height="148pt"
 viewBox="0.00 0.00 392.00 148.00" xmlns="http://www.w3.org/2000/svg" xmlns:xlink="http://www.w3.org/1999/xlink">
<g id="graph0" class="graph" transform="scale(1 1) rotate(0) translate(4 144)">
<title>pycanha::ThermalEntity</title>
<!-- Node1 -->
<g id="Node000001" class="node">
<title>Node1</title>
<g id="a_Node000001"><a xlink:title=" ">
<polygon fill="#999999" stroke="#666666" points="210,-140 77,-140 77,-121 210,-121 210,-140"/>
<text text-anchor="middle" x="143.5" y="-128" font-family="Helvetica,sans-Serif" font-size="10.00">pycanha::ThermalEntity</text>
</a>
</g>
</g>
<!-- Node2 -->
<g id="Node000002" class="node">
<title>Node2</title>
<g id="a_Node000002"><a xlink:href="classpycanha_1_1AttributeEntity.html" target="_top" xlink:title=" ">
<polygon fill="white" stroke="#bfbfbf" points="135,-85 0,-85 0,-66 135,-66 135,-85"/>
<text text-anchor="middle" x="67.5" y="-73" font-family="Helvetica,sans-Serif" font-size="10.00">pycanha::AttributeEntity</text>
</a>
</g>
</g>
<!-- Node1&#45;&gt;Node2 -->
<g id="edge1_Node000001_Node000002" class="edge">
<title>Node1&#45;&gt;Node2</title>
<g id="a_edge1_Node000001_Node000002"><a xlink:title=" ">
<path fill="none" stroke="#63b8ff" d="M122.92,-115.15C109.19,-105.57 91.57,-93.29 79.93,-85.17"/>
<polygon fill="#63b8ff" stroke="#63b8ff" points="121.08,-118.14 131.29,-120.98 125.09,-112.39 121.08,-118.14"/>
</a>
</g>
</g>
<!-- Node3 -->
<g id="Node000003" class="node">
<title>Node3</title>
<g id="a_Node000003"><a xlink:href="classpycanha_1_1CouplingEntity.html" target="_top" xlink:title=" ">
<polygon fill="white" stroke="#bfbfbf" points="288,-85 153,-85 153,-66 288,-66 288,-85"/>
<text text-anchor="middle" x="220.5" y="-73" font-family="Helvetica,sans-Serif" font-size="10.00">pycanha::CouplingEntity</text>
</a>
</g>
</g>
<!-- Node1&#45;&gt;Node3 -->
<g id="edge2_Node000001_Node000003" class="edge">
<title>Node1&#45;&gt;Node3</title>
<g id="a_edge2_Node000001_Node000003"><a xlink:title=" ">
<path fill="none" stroke="#63b8ff" d="M164.35,-115.15C178.26,-105.57 196.11,-93.29 207.9,-85.17"/>
<polygon fill="#63b8ff" stroke="#63b8ff" points="162.12,-112.43 155.87,-120.98 166.09,-118.2 162.12,-112.43"/>
</a>
</g>
</g>
<!-- Node4 -->
<g id="Node000004" class="node">
<title>Node4</title>
<g id="a_Node000004"><a xlink:href="classpycanha_1_1ConductiveCouplingEntity.html" target="_top" xlink:title=" ">
<polygon fill="white" stroke="#bfbfbf" points="213,-30 52,-30 52,0 213,0 213,-30"/>
<text text-anchor="start" x="60" y="-18" font-family="Helvetica,sans-Serif" font-size="10.00">pycanha::ConductiveCoupling</text>
<text text-anchor="middle" x="132.5" y="-7" font-family="Helvetica,sans-Serif" font-size="10.00">Entity</text>
</a>
</g>
</g>
<!-- Node3&#45;&gt;Node4 -->
<g id="edge3_Node000003_Node000004" class="edge">
<title>Node3&#45;&gt;Node4</title>
<g id="a_edge3_Node000003_Node000004"><a xlink:title=" ">
<path fill="none" stroke="#63b8ff" d="M199.13,-60.29C185.34,-51.13 167.49,-39.26 153.73,-30.11"/>
<polygon fill="#63b8ff" stroke="#63b8ff" points="197.25,-63.25 207.52,-65.87 201.13,-57.42 197.25,-63.25"/>
</a>
</g>
</g>
<!-- Node5 -->
<g id="Node000005" class="node">
<title>Node5</title>
<g id="a_Node000005"><a xlink:href="classpycanha_1_1RadiativeCouplingEntity.html" target="_top" xlink:title=" ">
<polygon fill="white" stroke="#bfbfbf" points="384,-30 231,-30 231,0 384,0 384,-30"/>
<text text-anchor="start" x="239" y="-18" font-family="Helvetica,sans-Serif" font-size="10.00">pycanha::RadiativeCoupling</text>
<text text-anchor="middle" x="307.5" y="-7" font-family="Helvetica,sans-Serif" font-size="10.00">Entity</text>
</a>
</g>
</g>
<!-- Node3&#45;&gt;Node5 -->
<g id="edge4_Node000003_Node000005" class="edge">
<title>Node3&#45;&gt;Node5</title>
<g id="a_edge4_Node000003_Node000005"><a xlink:title=" ">
<path fill="none" stroke="#63b8ff" d="M242.02,-60.03C255.59,-50.9 273.04,-39.17 286.51,-30.11"/>
<polygon fill="#63b8ff" stroke="#63b8ff" points="239.68,-57.38 233.34,-65.87 243.59,-63.19 239.68,-57.38"/>
</a>
</g>
</g>
</g>
</svg>
