<?xml version="1.0" encoding="UTF-8" standalone="no"?>
<!DOCTYPE svg PUBLIC "-//W3C//DTD SVG 1.1//EN"
 "http://www.w3.org/Graphics/SVG/1.1/DTD/svg11.dtd">
<!-- Generated by graphviz version 2.43.0 (0)
 -->
<!-- Title: pycanha::TimeVariable Pages: 1 -->
<svg width="429pt" height="93pt"
 viewBox="0.00 0.00 429.00 93.00" xmlns="http://www.w3.org/2000/svg" xmlns:xlink="http://www.w3.org/1999/xlink">
<g id="graph0" class="graph" transform="scale(1 1) rotate(0) translate(4 89)">
<title>pycanha::TimeVariable</title>
<!-- Node1 -->
<g id="Node000001" class="node">
<title>Node1</title>
<g id="a_Node000001"><a xlink:title=" ">
<polygon fill="#999999" stroke="#666666" points="265.5,-19 137.5,-19 137.5,0 265.5,0 265.5,-19"/>
<text text-anchor="middle" x="201.5" y="-7" font-family="Helvetica,sans-Serif" font-size="10.00">pycanha::TimeVariable</text>
</a>
</g>
</g>
<!-- Node2 -->
<g id="Node000002" class="node">
<title>Node2</title>
<g id="a_Node000002"><a xlink:href="classpycanha_1_1Parameters.html" target="_top" xlink:title=" ">
<polygon fill="white" stroke="#bfbfbf" points="119,-85 0,-85 0,-66 119,-66 119,-85"/>
<text text-anchor="middle" x="59.5" y="-73" font-family="Helvetica,sans-Serif" font-size="10.00">pycanha::Parameters</text>
</a>
</g>
</g>
<!-- Node2&#45;&gt;Node1 -->
<g id="edge1_Node000001_Node000002" class="edge">
<title>Node2&#45;&gt;Node1</title>
<g id="a_edge1_Node000001_Node000002"><a xlink:title=" ">
<path fill="none" stroke="#9a32cd" stroke-dasharray="5,2" d="M83.93,-61.11C97.96,-53.64 116.01,-44.37 132.5,-37 147.14,-30.45 163.94,-23.98 177.29,-19.07"/>
<polygon fill="#9a32cd" stroke="#9a32cd" points="82.07,-58.14 74.93,-65.96 85.39,-64.3 82.07,-58.14"/>
</a>
</g>
<text text-anchor="middle" x="165" y="-40" font-family="Helvetica,sans-Serif" font-size="10.00" fill="grey"> _parameters</text>
</g>
<!-- Node3 -->
<g id="Node000003" class="node">
<title>Node3</title>
<g id="a_Node000003"><a xlink:href="classpycanha_1_1ThermalData.html" target="_top" xlink:title=" ">
<polygon fill="white" stroke="#bfbfbf" points="265.5,-85 137.5,-85 137.5,-66 265.5,-66 265.5,-85"/>
<text text-anchor="middle" x="201.5" y="-73" font-family="Helvetica,sans-Serif" font-size="10.00">pycanha::ThermalData</text>
</a>
</g>
</g>
<!-- Node3&#45;&gt;Node1 -->
<g id="edge2_Node000001_Node000003" class="edge">
<title>Node3&#45;&gt;Node1</title>
<g id="a_edge2_Node000001_Node000003"><a xlink:title=" ">
<path fill="none" stroke="#9a32cd" stroke-dasharray="5,2" d="M201.5,-55.58C201.5,-43.63 201.5,-28.72 201.5,-19.41"/>
<polygon fill="#9a32cd" stroke="#9a32cd" points="198,-55.87 201.5,-65.87 205,-55.87 198,-55.87"/>
</a>
</g>
<text text-anchor="middle" x="238.5" y="-40" font-family="Helvetica,sans-Serif" font-size="10.00" fill="grey"> _thermal_data</text>
</g>
<!-- Node4 -->
<g id="Node000004" class="node">
<title>Node4</title>
<g id="a_Node000004"><a xlink:href="classpycanha_1_1LookupTable1D.html" target="_top" xlink:title=" ">
<polygon fill="white" stroke="#bfbfbf" points="421,-85 284,-85 284,-66 421,-66 421,-85"/>
<text text-anchor="middle" x="352.5" y="-73" font-family="Helvetica,sans-Serif" font-size="10.00">pycanha::LookupTable1D</text>
</a>
</g>
</g>
<!-- Node4&#45;&gt;Node1 -->
<g id="edge3_Node000001_Node000004" class="edge">
<title>Node4&#45;&gt;Node1</title>
<g id="a_edge3_Node000001_Node000004"><a xlink:title=" ">
<path fill="none" stroke="#9a32cd" stroke-dasharray="5,2" d="M328.45,-61.01C314.42,-53.43 296.23,-44.09 279.5,-37 263.44,-30.19 244.97,-23.85 230.04,-19.08"/>
<polygon fill="#9a32cd" stroke="#9a32cd" points="326.98,-64.2 337.43,-65.93 330.34,-58.06 326.98,-64.2"/>
</a>
</g>
<text text-anchor="middle" x="346.5" y="-40" font-family="Helvetica,sans-Serif" font-size="10.00" fill="grey"> _lookup_table_ptr</text>
</g>
</g>
</svg>
