<?xml version="1.0" encoding="UTF-8" standalone="no"?>
<!DOCTYPE svg PUBLIC "-//W3C//DTD SVG 1.1//EN"
 "http://www.w3.org/Graphics/SVG/1.1/DTD/svg11.dtd">
<!-- Generated by graphviz version 2.43.0 (0)
 -->
<!-- Title: pycanha::Nodes::add_node_insert_idx Pages: 1 -->
<svg width="477pt" height="654pt"
 viewBox="0.00 0.00 477.00 653.50" xmlns="http://www.w3.org/2000/svg" xmlns:xlink="http://www.w3.org/1999/xlink">
<g id="graph0" class="graph" transform="scale(1 1) rotate(0) translate(4 649.5)">
<title>pycanha::Nodes::add_node_insert_idx</title>
<!-- Node1 -->
<g id="Node000001" class="node">
<title>Node1</title>
<g id="a_Node000001"><a xlink:title=" ">
<polygon fill="#999999" stroke="#666666" points="119,-343 0,-343 0,-313 119,-313 119,-343"/>
<text text-anchor="start" x="8" y="-331" font-family="Helvetica,sans-Serif" font-size="10.00">pycanha::Nodes::add</text>
<text text-anchor="middle" x="59.5" y="-320" font-family="Helvetica,sans-Serif" font-size="10.00">_node_insert_idx</text>
</a>
</g>
</g>
<!-- Node2 -->
<g id="Node000002" class="node">
<title>Node2</title>
<g id="a_Node000002"><a xlink:href="classpycanha_1_1Node.html#a876558b19fd24813e3ad240d7bcc6b47" target="_top" xlink:title="Area [m^2] getter.">
<polygon fill="white" stroke="#666666" points="285,-645.5 163,-645.5 163,-626.5 285,-626.5 285,-645.5"/>
<text text-anchor="middle" x="224" y="-633.5" font-family="Helvetica,sans-Serif" font-size="10.00">pycanha::Node::get_a</text>
</a>
</g>
</g>
<!-- Node1&#45;&gt;Node2 -->
<g id="edge1_Node000001_Node000002" class="edge">
<title>Node1&#45;&gt;Node2</title>
<g id="a_edge1_Node000001_Node000002"><a xlink:title=" ">
<path fill="none" stroke="#63b8ff" d="M60.67,-343.24C62.04,-391.21 73.03,-540.52 155,-618 156.11,-619.05 157.27,-620.04 158.48,-620.97"/>
<polygon fill="#63b8ff" stroke="#63b8ff" points="156.71,-623.99 167.04,-626.35 160.44,-618.07 156.71,-623.99"/>
</a>
</g>
</g>
<!-- Node4 -->
<g id="Node000004" class="node">
<title>Node4</title>
<g id="a_Node000004"><a xlink:href="classpycanha_1_1Node.html#ad4784620cf111949d455951f408a8ff1" target="_top" xlink:title="Solar absortivity getter.">
<polygon fill="white" stroke="#666666" points="291,-608.5 157,-608.5 157,-589.5 291,-589.5 291,-608.5"/>
<text text-anchor="middle" x="224" y="-596.5" font-family="Helvetica,sans-Serif" font-size="10.00">pycanha::Node::get_aph</text>
</a>
</g>
</g>
<!-- Node1&#45;&gt;Node4 -->
<g id="edge3_Node000001_Node000004" class="edge">
<title>Node1&#45;&gt;Node4</title>
<g id="a_edge3_Node000001_Node000004"><a xlink:title=" ">
<path fill="none" stroke="#63b8ff" d="M61.49,-343.17C65.18,-387 82.03,-514.89 155,-581 156.16,-582.05 157.37,-583.04 158.63,-583.97"/>
<polygon fill="#63b8ff" stroke="#63b8ff" points="157.16,-587.17 167.53,-589.35 160.78,-581.18 157.16,-587.17"/>
</a>
</g>
</g>
<!-- Node6 -->
<g id="Node000006" class="node">
<title>Node6</title>
<g id="a_Node000006"><a xlink:href="classpycanha_1_1Node.html#aa0530593dd3c33b50051fd5630583a9a" target="_top" xlink:title="Thermal capacity [J/K] getter.">
<polygon fill="white" stroke="#666666" points="285.5,-571.5 162.5,-571.5 162.5,-552.5 285.5,-552.5 285.5,-571.5"/>
<text text-anchor="middle" x="224" y="-559.5" font-family="Helvetica,sans-Serif" font-size="10.00">pycanha::Node::get_C</text>
</a>
</g>
</g>
<!-- Node1&#45;&gt;Node6 -->
<g id="edge5_Node000001_Node000006" class="edge">
<title>Node1&#45;&gt;Node6</title>
<g id="a_edge5_Node000001_Node000006"><a xlink:title=" ">
<path fill="none" stroke="#63b8ff" d="M62.58,-343.22C68.8,-382.7 90.98,-489.13 155,-544 156.37,-545.17 157.81,-546.27 159.3,-547.3"/>
<polygon fill="#63b8ff" stroke="#63b8ff" points="157.97,-550.57 168.39,-552.45 161.42,-544.48 157.97,-550.57"/>
</a>
</g>
</g>
<!-- Node8 -->
<g id="Node000008" class="node">
<title>Node8</title>
<g id="a_Node000008"><a xlink:href="classpycanha_1_1Node.html#a82b33ac89fa4e60186dd49bbccff62a5" target="_top" xlink:title="IR emissivity getter.">
<polygon fill="white" stroke="#666666" points="291,-534.5 157,-534.5 157,-515.5 291,-515.5 291,-534.5"/>
<text text-anchor="middle" x="224" y="-522.5" font-family="Helvetica,sans-Serif" font-size="10.00">pycanha::Node::get_eps</text>
</a>
</g>
</g>
<!-- Node1&#45;&gt;Node8 -->
<g id="edge7_Node000001_Node000008" class="edge">
<title>Node1&#45;&gt;Node8</title>
<g id="a_edge7_Node000001_Node000008"><a xlink:title=" ">
<path fill="none" stroke="#63b8ff" d="M64.06,-343.15C72.99,-377.76 99.72,-463.03 155,-507 156.61,-508.28 158.31,-509.47 160.07,-510.58"/>
<polygon fill="#63b8ff" stroke="#63b8ff" points="158.85,-513.89 169.33,-515.44 162.1,-507.7 158.85,-513.89"/>
</a>
</g>
</g>
<!-- Node10 -->
<g id="Node000010" class="node">
<title>Node10</title>
<g id="a_Node000010"><a xlink:href="classpycanha_1_1Node.html#af99429c4bbd433a67325730ed5517252" target="_top" xlink:title="X coordinate [m] getter.">
<polygon fill="white" stroke="#666666" points="287,-497.5 161,-497.5 161,-478.5 287,-478.5 287,-497.5"/>
<text text-anchor="middle" x="224" y="-485.5" font-family="Helvetica,sans-Serif" font-size="10.00">pycanha::Node::get_fx</text>
</a>
</g>
</g>
<!-- Node1&#45;&gt;Node10 -->
<g id="edge9_Node000001_Node000010" class="edge">
<title>Node1&#45;&gt;Node10</title>
<g id="a_edge9_Node000001_Node000010"><a xlink:title=" ">
<path fill="none" stroke="#63b8ff" d="M66.22,-343.07C78.1,-372.26 108.28,-436.56 155,-470 157.09,-471.49 159.29,-472.86 161.57,-474.12"/>
<polygon fill="#63b8ff" stroke="#63b8ff" points="160.18,-477.33 170.72,-478.42 163.16,-470.99 160.18,-477.33"/>
</a>
</g>
</g>
<!-- Node12 -->
<g id="Node000012" class="node">
<title>Node12</title>
<g id="a_Node000012"><a xlink:href="classpycanha_1_1Node.html#a75a1e382bb8d0fab4ffc116191f099f5" target="_top" xlink:title="Y coordinate [m] getter.">
<polygon fill="white" stroke="#666666" points="286.5,-460.5 161.5,-460.5 161.5,-441.5 286.5,-441.5 286.5,-460.5"/>
<text text-anchor="middle" x="224" y="-448.5" font-family="Helvetica,sans-Serif" font-size="10.00">pycanha::Node::get_fy</text>
</a>
</g>
</g>
<!-- Node1&#45;&gt;Node12 -->
<g id="edge11_Node000001_Node000012" class="edge">
<title>Node1&#45;&gt;Node12</title>
<g id="a_edge11_Node000001_Node000012"><a xlink:title=" ">
<path fill="none" stroke="#63b8ff" d="M69.83,-343.04C84.87,-366 116.7,-409.6 155,-433 157.81,-434.72 160.79,-436.28 163.86,-437.68"/>
<polygon fill="#63b8ff" stroke="#63b8ff" points="162.73,-441 173.31,-441.49 165.34,-434.51 162.73,-441"/>
</a>
</g>
</g>
<!-- Node14 -->
<g id="Node000014" class="node">
<title>Node14</title>
<g id="a_Node000014"><a xlink:href="classpycanha_1_1Node.html#a1c12438baa7975c31b59b4b8d8cbfee9" target="_top" xlink:title="Z coordinate [m] getter.">
<polygon fill="white" stroke="#666666" points="286.5,-423.5 161.5,-423.5 161.5,-404.5 286.5,-404.5 286.5,-423.5"/>
<text text-anchor="middle" x="224" y="-411.5" font-family="Helvetica,sans-Serif" font-size="10.00">pycanha::Node::get_fz</text>
</a>
</g>
</g>
<!-- Node1&#45;&gt;Node14 -->
<g id="edge13_Node000001_Node000014" class="edge">
<title>Node1&#45;&gt;Node14</title>
<g id="a_edge13_Node000001_Node000014"><a xlink:title=" ">
<path fill="none" stroke="#63b8ff" d="M77.81,-343.08C95.93,-358.16 125.77,-381.07 155,-395 159.91,-397.34 165.16,-399.44 170.49,-401.31"/>
<polygon fill="#63b8ff" stroke="#63b8ff" points="169.51,-404.67 180.1,-404.44 171.67,-398.02 169.51,-404.67"/>
</a>
</g>
</g>
<!-- Node16 -->
<g id="Node000016" class="node">
<title>Node16</title>
<g id="a_Node000016"><a xlink:href="classpycanha_1_1Node.html#a31d790ab1c03fb481434cebdef5e6017" target="_top" xlink:title="User node number getter.">
<polygon fill="white" stroke="#666666" points="279.5,-386 168.5,-386 168.5,-356 279.5,-356 279.5,-386"/>
<text text-anchor="start" x="176.5" y="-374" font-family="Helvetica,sans-Serif" font-size="10.00">pycanha::Node::get</text>
<text text-anchor="middle" x="224" y="-363" font-family="Helvetica,sans-Serif" font-size="10.00">_node_num</text>
</a>
</g>
</g>
<!-- Node1&#45;&gt;Node16 -->
<g id="edge15_Node000001_Node000016" class="edge">
<title>Node1&#45;&gt;Node16</title>
<g id="a_edge15_Node000001_Node000016"><a xlink:title=" ">
<path fill="none" stroke="#63b8ff" d="M117.33,-343.04C130.66,-346.57 144.96,-350.35 158.6,-353.96"/>
<polygon fill="#63b8ff" stroke="#63b8ff" points="157.82,-357.37 168.38,-356.55 159.61,-350.61 157.82,-357.37"/>
</a>
</g>
</g>
<!-- Node17 -->
<g id="Node000017" class="node">
<title>Node17</title>
<g id="a_Node000017"><a xlink:href="classpycanha_1_1Node.html#a716082814c425fc97d24196193216ab7" target="_top" xlink:title="Albedo load [W] getter.">
<polygon fill="white" stroke="#666666" points="288,-337.5 160,-337.5 160,-318.5 288,-318.5 288,-337.5"/>
<text text-anchor="middle" x="224" y="-325.5" font-family="Helvetica,sans-Serif" font-size="10.00">pycanha::Node::get_qa</text>
</a>
</g>
</g>
<!-- Node1&#45;&gt;Node17 -->
<g id="edge16_Node000001_Node000017" class="edge">
<title>Node1&#45;&gt;Node17</title>
<g id="a_edge16_Node000001_Node000017"><a xlink:title=" ">
<path fill="none" stroke="#63b8ff" d="M119.17,-328C129.05,-328 139.42,-328 149.63,-328"/>
<polygon fill="#63b8ff" stroke="#63b8ff" points="149.75,-331.5 159.75,-328 149.75,-324.5 149.75,-331.5"/>
</a>
</g>
</g>
<!-- Node19 -->
<g id="Node000019" class="node">
<title>Node19</title>
<g id="a_Node000019"><a xlink:href="classpycanha_1_1Node.html#a3f8d98cc232bfb86459eeb1e15803a29" target="_top" xlink:title="Earth IR load [W] getter.">
<polygon fill="white" stroke="#666666" points="288,-300.5 160,-300.5 160,-281.5 288,-281.5 288,-300.5"/>
<text text-anchor="middle" x="224" y="-288.5" font-family="Helvetica,sans-Serif" font-size="10.00">pycanha::Node::get_qe</text>
</a>
</g>
</g>
<!-- Node1&#45;&gt;Node19 -->
<g id="edge18_Node000001_Node000019" class="edge">
<title>Node1&#45;&gt;Node19</title>
<g id="a_edge18_Node000001_Node000019"><a xlink:title=" ">
<path fill="none" stroke="#63b8ff" d="M119.17,-314.64C136.18,-310.77 154.63,-306.57 171.19,-302.8"/>
<polygon fill="#63b8ff" stroke="#63b8ff" points="172.26,-306.14 181.23,-300.51 170.7,-299.32 172.26,-306.14"/>
</a>
</g>
</g>
<!-- Node21 -->
<g id="Node000021" class="node">
<title>Node21</title>
<g id="a_Node000021"><a xlink:href="classpycanha_1_1Node.html#a8eaf6624e94095586b79ce8208e21fd0" target="_top" xlink:title="Internal load [W] getter.">
<polygon fill="white" stroke="#666666" points="286.5,-263.5 161.5,-263.5 161.5,-244.5 286.5,-244.5 286.5,-263.5"/>
<text text-anchor="middle" x="224" y="-251.5" font-family="Helvetica,sans-Serif" font-size="10.00">pycanha::Node::get_qi</text>
</a>
</g>
</g>
<!-- Node1&#45;&gt;Node21 -->
<g id="edge20_Node000001_Node000021" class="edge">
<title>Node1&#45;&gt;Node21</title>
<g id="a_edge20_Node000001_Node000021"><a xlink:title=" ">
<path fill="none" stroke="#63b8ff" d="M82.57,-312.98C101.21,-300.83 128.95,-284.01 155,-273 160.5,-270.68 166.36,-268.55 172.26,-266.63"/>
<polygon fill="#63b8ff" stroke="#63b8ff" points="173.62,-269.87 182.15,-263.59 171.56,-263.18 173.62,-269.87"/>
</a>
</g>
</g>
<!-- Node23 -->
<g id="Node000023" class="node">
<title>Node23</title>
<g id="a_Node000023"><a xlink:href="classpycanha_1_1Node.html#afd9b106f3cc7b293cb9ab474d801823c" target="_top" xlink:title="Other load [W] getter.">
<polygon fill="white" stroke="#666666" points="287,-226.5 161,-226.5 161,-207.5 287,-207.5 287,-226.5"/>
<text text-anchor="middle" x="224" y="-214.5" font-family="Helvetica,sans-Serif" font-size="10.00">pycanha::Node::get_qr</text>
</a>
</g>
</g>
<!-- Node1&#45;&gt;Node23 -->
<g id="edge22_Node000001_Node000023" class="edge">
<title>Node1&#45;&gt;Node23</title>
<g id="a_edge22_Node000001_Node000023"><a xlink:title=" ">
<path fill="none" stroke="#63b8ff" d="M71.91,-312.9C88.15,-292.46 119.87,-256.22 155,-236 158.87,-233.77 163.01,-231.8 167.28,-230.04"/>
<polygon fill="#63b8ff" stroke="#63b8ff" points="168.57,-233.29 176.74,-226.55 166.15,-226.73 168.57,-233.29"/>
</a>
</g>
</g>
<!-- Node25 -->
<g id="Node000025" class="node">
<title>Node25</title>
<g id="a_Node000025"><a xlink:href="classpycanha_1_1Node.html#aab3d773b93036e4a219a72ca6b029a50" target="_top" xlink:title="Solar load [W] getter.">
<polygon fill="white" stroke="#666666" points="288,-189.5 160,-189.5 160,-170.5 288,-170.5 288,-189.5"/>
<text text-anchor="middle" x="224" y="-177.5" font-family="Helvetica,sans-Serif" font-size="10.00">pycanha::Node::get_qs</text>
</a>
</g>
</g>
<!-- Node1&#45;&gt;Node25 -->
<g id="edge24_Node000001_Node000025" class="edge">
<title>Node1&#45;&gt;Node25</title>
<g id="a_edge24_Node000001_Node000025"><a xlink:title=" ">
<path fill="none" stroke="#63b8ff" d="M67.46,-312.68C80.58,-285.54 111.63,-229.02 155,-199 157.91,-196.99 161.03,-195.18 164.27,-193.57"/>
<polygon fill="#63b8ff" stroke="#63b8ff" points="165.88,-196.69 173.67,-189.52 163.1,-190.26 165.88,-196.69"/>
</a>
</g>
</g>
<!-- Node27 -->
<g id="Node000027" class="node">
<title>Node27</title>
<g id="a_Node000027"><a xlink:href="classpycanha_1_1Node.html#a341fecda21eb1508e112ecd8c693385f" target="_top" xlink:title="Temperature [K] getter.">
<polygon fill="white" stroke="#666666" points="285,-152.5 163,-152.5 163,-133.5 285,-133.5 285,-152.5"/>
<text text-anchor="middle" x="224" y="-140.5" font-family="Helvetica,sans-Serif" font-size="10.00">pycanha::Node::get_T</text>
</a>
</g>
</g>
<!-- Node1&#45;&gt;Node27 -->
<g id="edge26_Node000001_Node000027" class="edge">
<title>Node1&#45;&gt;Node27</title>
<g id="a_edge26_Node000001_Node000027"><a xlink:title=" ">
<path fill="none" stroke="#63b8ff" d="M64.88,-312.52C75.02,-279.61 103.24,-202.41 155,-162 157.31,-160.2 159.78,-158.56 162.36,-157.09"/>
<polygon fill="#63b8ff" stroke="#63b8ff" points="164.04,-160.16 171.5,-152.64 160.98,-153.87 164.04,-160.16"/>
</a>
</g>
</g>
<!-- Node29 -->
<g id="Node000029" class="node">
<title>Node29</title>
<g id="a_Node000029"><a xlink:href="classpycanha_1_1Node.html#a55a4679e85533618ff220014344cc15b" target="_top" xlink:title="Type getter.">
<polygon fill="white" stroke="#666666" points="293,-115.5 155,-115.5 155,-96.5 293,-96.5 293,-115.5"/>
<text text-anchor="middle" x="224" y="-103.5" font-family="Helvetica,sans-Serif" font-size="10.00">pycanha::Node::get_type</text>
</a>
</g>
</g>
<!-- Node1&#45;&gt;Node29 -->
<g id="edge28_Node000001_Node000029" class="edge">
<title>Node1&#45;&gt;Node29</title>
<g id="a_edge28_Node000001_Node000029"><a xlink:title=" ">
<path fill="none" stroke="#63b8ff" d="M63.08,-312.91C70.31,-275.24 94.39,-176.44 155,-125 157,-123.3 159.15,-121.75 161.4,-120.34"/>
<polygon fill="#63b8ff" stroke="#63b8ff" points="163.28,-123.3 170.5,-115.55 160.02,-117.11 163.28,-123.3"/>
</a>
</g>
</g>
<!-- Node30 -->
<g id="Node000030" class="node">
<title>Node30</title>
<g id="a_Node000030"><a xlink:href="classpycanha_1_1Nodes.html#a2ef3ee52b5de782b318b9860a7becff3" target="_top" xlink:title=" ">
<polygon fill="white" stroke="#666666" points="288,-78 160,-78 160,-48 288,-48 288,-78"/>
<text text-anchor="start" x="168" y="-66" font-family="Helvetica,sans-Serif" font-size="10.00">pycanha::Nodes::insert</text>
<text text-anchor="middle" x="224" y="-55" font-family="Helvetica,sans-Serif" font-size="10.00">_displace</text>
</a>
</g>
</g>
<!-- Node1&#45;&gt;Node30 -->
<g id="edge29_Node000001_Node000030" class="edge">
<title>Node1&#45;&gt;Node30</title>
<g id="a_edge29_Node000001_Node000030"><a xlink:title=" ">
<path fill="none" stroke="#63b8ff" d="M62.2,-312.72C67.64,-270.85 88.39,-153.11 155,-88 156.61,-86.43 158.32,-84.95 160.12,-83.57"/>
<polygon fill="#63b8ff" stroke="#63b8ff" points="162.04,-86.5 168.48,-78.08 158.2,-80.65 162.04,-86.5"/>
</a>
</g>
</g>
<!-- Node31 -->
<g id="Node000031" class="node">
<title>Node31</title>
<g id="a_Node000031"><a xlink:href="classpycanha_1_1Node.html#aa6ed2994d3acaf711d8f0c12145a7983" target="_top" xlink:title="Set the parent instance.">
<polygon fill="white" stroke="#666666" points="289.5,-30 158.5,-30 158.5,0 289.5,0 289.5,-30"/>
<text text-anchor="start" x="166.5" y="-18" font-family="Helvetica,sans-Serif" font-size="10.00">pycanha::Node::set</text>
<text text-anchor="middle" x="224" y="-7" font-family="Helvetica,sans-Serif" font-size="10.00">_thermal_nodes_parent</text>
</a>
</g>
</g>
<!-- Node1&#45;&gt;Node31 -->
<g id="edge30_Node000001_Node000031" class="edge">
<title>Node1&#45;&gt;Node31</title>
<g id="a_edge30_Node000001_Node000031"><a xlink:title=" ">
<path fill="none" stroke="#63b8ff" d="M60.97,-312.75C63.25,-265.4 76.61,-119.24 155,-39 155.94,-38.04 156.91,-37.12 157.92,-36.24"/>
<polygon fill="#63b8ff" stroke="#63b8ff" points="160.25,-38.88 166.28,-30.17 156.13,-33.21 160.25,-38.88"/>
</a>
</g>
</g>
<!-- Node3 -->
<g id="Node000003" class="node">
<title>Node3</title>
<g id="a_Node000003"><a xlink:href="classpycanha_1_1Nodes.html#a77196970cfb979acc7b67f8b99c9f634" target="_top" xlink:title="Area [m^2] getter.">
<polygon fill="white" stroke="#666666" points="463,-645.5 335,-645.5 335,-626.5 463,-626.5 463,-645.5"/>
<text text-anchor="middle" x="399" y="-633.5" font-family="Helvetica,sans-Serif" font-size="10.00">pycanha::Nodes::get_a</text>
</a>
</g>
</g>
<!-- Node2&#45;&gt;Node3 -->
<g id="edge2_Node000002_Node000003" class="edge">
<title>Node2&#45;&gt;Node3</title>
<g id="a_edge2_Node000002_Node000003"><a xlink:title=" ">
<path fill="none" stroke="#63b8ff" d="M285.02,-636C297.85,-636 311.55,-636 324.81,-636"/>
<polygon fill="#63b8ff" stroke="#63b8ff" points="324.85,-639.5 334.85,-636 324.85,-632.5 324.85,-639.5"/>
</a>
</g>
</g>
<!-- Node5 -->
<g id="Node000005" class="node">
<title>Node5</title>
<g id="a_Node000005"><a xlink:href="classpycanha_1_1Nodes.html#ad61fdb5f6c5d4a13dd351715818f930a" target="_top" xlink:title="Solar absortivity getter.">
<polygon fill="white" stroke="#666666" points="469,-608.5 329,-608.5 329,-589.5 469,-589.5 469,-608.5"/>
<text text-anchor="middle" x="399" y="-596.5" font-family="Helvetica,sans-Serif" font-size="10.00">pycanha::Nodes::get_aph</text>
</a>
</g>
</g>
<!-- Node4&#45;&gt;Node5 -->
<g id="edge4_Node000004_Node000005" class="edge">
<title>Node4&#45;&gt;Node5</title>
<g id="a_edge4_Node000004_Node000005"><a xlink:title=" ">
<path fill="none" stroke="#63b8ff" d="M291.39,-599C300.32,-599 309.56,-599 318.68,-599"/>
<polygon fill="#63b8ff" stroke="#63b8ff" points="318.92,-602.5 328.92,-599 318.92,-595.5 318.92,-602.5"/>
</a>
</g>
</g>
<!-- Node7 -->
<g id="Node000007" class="node">
<title>Node7</title>
<g id="a_Node000007"><a xlink:href="classpycanha_1_1Nodes.html#ab1c554b7523ca26126896ac0df536594" target="_top" xlink:title="Thermal capacity [J/K] getter.">
<polygon fill="white" stroke="#666666" points="463,-571.5 335,-571.5 335,-552.5 463,-552.5 463,-571.5"/>
<text text-anchor="middle" x="399" y="-559.5" font-family="Helvetica,sans-Serif" font-size="10.00">pycanha::Nodes::get_C</text>
</a>
</g>
</g>
<!-- Node6&#45;&gt;Node7 -->
<g id="edge6_Node000006_Node000007" class="edge">
<title>Node6&#45;&gt;Node7</title>
<g id="a_edge6_Node000006_Node000007"><a xlink:title=" ">
<path fill="none" stroke="#63b8ff" d="M285.51,-562C298.12,-562 311.54,-562 324.56,-562"/>
<polygon fill="#63b8ff" stroke="#63b8ff" points="324.89,-565.5 334.89,-562 324.89,-558.5 324.89,-565.5"/>
</a>
</g>
</g>
<!-- Node9 -->
<g id="Node000009" class="node">
<title>Node9</title>
<g id="a_Node000009"><a xlink:href="classpycanha_1_1Nodes.html#a8802742ebd0f9ccdd0182b600fe7eff1" target="_top" xlink:title="IR emissivity getter.">
<polygon fill="white" stroke="#666666" points="468.5,-534.5 329.5,-534.5 329.5,-515.5 468.5,-515.5 468.5,-534.5"/>
<text text-anchor="middle" x="399" y="-522.5" font-family="Helvetica,sans-Serif" font-size="10.00">pycanha::Nodes::get_eps</text>
</a>
</g>
</g>
<!-- Node8&#45;&gt;Node9 -->
<g id="edge8_Node000008_Node000009" class="edge">
<title>Node8&#45;&gt;Node9</title>
<g id="a_edge8_Node000008_Node000009"><a xlink:title=" ">
<path fill="none" stroke="#63b8ff" d="M291.39,-525C300.56,-525 310.04,-525 319.41,-525"/>
<polygon fill="#63b8ff" stroke="#63b8ff" points="319.49,-528.5 329.49,-525 319.49,-521.5 319.49,-528.5"/>
</a>
</g>
</g>
<!-- Node11 -->
<g id="Node000011" class="node">
<title>Node11</title>
<g id="a_Node000011"><a xlink:href="classpycanha_1_1Nodes.html#a4cf1319c964a09c43c8b7d727c08e4ec" target="_top" xlink:title="X coordinate [m] getter.">
<polygon fill="white" stroke="#666666" points="464.5,-497.5 333.5,-497.5 333.5,-478.5 464.5,-478.5 464.5,-497.5"/>
<text text-anchor="middle" x="399" y="-485.5" font-family="Helvetica,sans-Serif" font-size="10.00">pycanha::Nodes::get_fx</text>
</a>
</g>
</g>
<!-- Node10&#45;&gt;Node11 -->
<g id="edge10_Node000010_Node000011" class="edge">
<title>Node10&#45;&gt;Node11</title>
<g id="a_edge10_Node000010_Node000011"><a xlink:title=" ">
<path fill="none" stroke="#63b8ff" d="M287.46,-488C298.98,-488 311.13,-488 322.99,-488"/>
<polygon fill="#63b8ff" stroke="#63b8ff" points="323.3,-491.5 333.3,-488 323.3,-484.5 323.3,-491.5"/>
</a>
</g>
</g>
<!-- Node13 -->
<g id="Node000013" class="node">
<title>Node13</title>
<g id="a_Node000013"><a xlink:href="classpycanha_1_1Nodes.html#a64c3c26707b3116db6928646261954b2" target="_top" xlink:title="Y coordinate [m] getter.">
<polygon fill="white" stroke="#666666" points="464.5,-460.5 333.5,-460.5 333.5,-441.5 464.5,-441.5 464.5,-460.5"/>
<text text-anchor="middle" x="399" y="-448.5" font-family="Helvetica,sans-Serif" font-size="10.00">pycanha::Nodes::get_fy</text>
</a>
</g>
</g>
<!-- Node12&#45;&gt;Node13 -->
<g id="edge12_Node000012_Node000013" class="edge">
<title>Node12&#45;&gt;Node13</title>
<g id="a_edge12_Node000012_Node000013"><a xlink:title=" ">
<path fill="none" stroke="#63b8ff" d="M286.97,-451C298.71,-451 311.11,-451 323.19,-451"/>
<polygon fill="#63b8ff" stroke="#63b8ff" points="323.25,-454.5 333.25,-451 323.25,-447.5 323.25,-454.5"/>
</a>
</g>
</g>
<!-- Node15 -->
<g id="Node000015" class="node">
<title>Node15</title>
<g id="a_Node000015"><a xlink:href="classpycanha_1_1Nodes.html#a698ac07f5879b7ec5b81fd0a90f525ce" target="_top" xlink:title="Z coordinate [m] getter.">
<polygon fill="white" stroke="#666666" points="464.5,-423.5 333.5,-423.5 333.5,-404.5 464.5,-404.5 464.5,-423.5"/>
<text text-anchor="middle" x="399" y="-411.5" font-family="Helvetica,sans-Serif" font-size="10.00">pycanha::Nodes::get_fz</text>
</a>
</g>
</g>
<!-- Node14&#45;&gt;Node15 -->
<g id="edge14_Node000014_Node000015" class="edge">
<title>Node14&#45;&gt;Node15</title>
<g id="a_edge14_Node000014_Node000015"><a xlink:title=" ">
<path fill="none" stroke="#63b8ff" d="M286.97,-414C298.71,-414 311.11,-414 323.19,-414"/>
<polygon fill="#63b8ff" stroke="#63b8ff" points="323.25,-417.5 333.25,-414 323.25,-410.5 323.25,-417.5"/>
</a>
</g>
</g>
<!-- Node18 -->
<g id="Node000018" class="node">
<title>Node18</title>
<g id="a_Node000018"><a xlink:href="classpycanha_1_1Nodes.html#a521272051bce035b77e810f8f2e16b7b" target="_top" xlink:title="Albedo load [W] getter.">
<polygon fill="white" stroke="#666666" points="466,-337.5 332,-337.5 332,-318.5 466,-318.5 466,-337.5"/>
<text text-anchor="middle" x="399" y="-325.5" font-family="Helvetica,sans-Serif" font-size="10.00">pycanha::Nodes::get_qa</text>
</a>
</g>
</g>
<!-- Node17&#45;&gt;Node18 -->
<g id="edge17_Node000017_Node000018" class="edge">
<title>Node17&#45;&gt;Node18</title>
<g id="a_edge17_Node000017_Node000018"><a xlink:title=" ">
<path fill="none" stroke="#63b8ff" d="M288.44,-328C299.29,-328 310.67,-328 321.81,-328"/>
<polygon fill="#63b8ff" stroke="#63b8ff" points="321.96,-331.5 331.96,-328 321.96,-324.5 321.96,-331.5"/>
</a>
</g>
</g>
<!-- Node20 -->
<g id="Node000020" class="node">
<title>Node20</title>
<g id="a_Node000020"><a xlink:href="classpycanha_1_1Nodes.html#a3004cfb5c89e1c32f565eca56433e836" target="_top" xlink:title="Earth IR load [W] getter.">
<polygon fill="white" stroke="#666666" points="466,-300.5 332,-300.5 332,-281.5 466,-281.5 466,-300.5"/>
<text text-anchor="middle" x="399" y="-288.5" font-family="Helvetica,sans-Serif" font-size="10.00">pycanha::Nodes::get_qe</text>
</a>
</g>
</g>
<!-- Node19&#45;&gt;Node20 -->
<g id="edge19_Node000019_Node000020" class="edge">
<title>Node19&#45;&gt;Node20</title>
<g id="a_edge19_Node000019_Node000020"><a xlink:title=" ">
<path fill="none" stroke="#63b8ff" d="M288.44,-291C299.29,-291 310.67,-291 321.81,-291"/>
<polygon fill="#63b8ff" stroke="#63b8ff" points="321.96,-294.5 331.96,-291 321.96,-287.5 321.96,-294.5"/>
</a>
</g>
</g>
<!-- Node22 -->
<g id="Node000022" class="node">
<title>Node22</title>
<g id="a_Node000022"><a xlink:href="classpycanha_1_1Nodes.html#a7281e1dc78824a8a1c151c4bb5f0ac9c" target="_top" xlink:title="Internal load [W] getter.">
<polygon fill="white" stroke="#666666" points="464.5,-263.5 333.5,-263.5 333.5,-244.5 464.5,-244.5 464.5,-263.5"/>
<text text-anchor="middle" x="399" y="-251.5" font-family="Helvetica,sans-Serif" font-size="10.00">pycanha::Nodes::get_qi</text>
</a>
</g>
</g>
<!-- Node21&#45;&gt;Node22 -->
<g id="edge21_Node000021_Node000022" class="edge">
<title>Node21&#45;&gt;Node22</title>
<g id="a_edge21_Node000021_Node000022"><a xlink:title=" ">
<path fill="none" stroke="#63b8ff" d="M286.97,-254C298.71,-254 311.11,-254 323.19,-254"/>
<polygon fill="#63b8ff" stroke="#63b8ff" points="323.25,-257.5 333.25,-254 323.25,-250.5 323.25,-257.5"/>
</a>
</g>
</g>
<!-- Node24 -->
<g id="Node000024" class="node">
<title>Node24</title>
<g id="a_Node000024"><a xlink:href="classpycanha_1_1Nodes.html#a044abae6432fcf073ec1bbd2e2faba98" target="_top" xlink:title="Other load [W] getter.">
<polygon fill="white" stroke="#666666" points="464.5,-226.5 333.5,-226.5 333.5,-207.5 464.5,-207.5 464.5,-226.5"/>
<text text-anchor="middle" x="399" y="-214.5" font-family="Helvetica,sans-Serif" font-size="10.00">pycanha::Nodes::get_qr</text>
</a>
</g>
</g>
<!-- Node23&#45;&gt;Node24 -->
<g id="edge23_Node000023_Node000024" class="edge">
<title>Node23&#45;&gt;Node24</title>
<g id="a_edge23_Node000023_Node000024"><a xlink:title=" ">
<path fill="none" stroke="#63b8ff" d="M287.46,-217C298.98,-217 311.13,-217 322.99,-217"/>
<polygon fill="#63b8ff" stroke="#63b8ff" points="323.3,-220.5 333.3,-217 323.3,-213.5 323.3,-220.5"/>
</a>
</g>
</g>
<!-- Node26 -->
<g id="Node000026" class="node">
<title>Node26</title>
<g id="a_Node000026"><a xlink:href="classpycanha_1_1Nodes.html#a69b8286c1d8f94103a25d32f1ed155b5" target="_top" xlink:title="Solar load [W] getter.">
<polygon fill="white" stroke="#666666" points="465.5,-189.5 332.5,-189.5 332.5,-170.5 465.5,-170.5 465.5,-189.5"/>
<text text-anchor="middle" x="399" y="-177.5" font-family="Helvetica,sans-Serif" font-size="10.00">pycanha::Nodes::get_qs</text>
</a>
</g>
</g>
<!-- Node25&#45;&gt;Node26 -->
<g id="edge25_Node000025_Node000026" class="edge">
<title>Node25&#45;&gt;Node26</title>
<g id="a_edge25_Node000025_Node000026"><a xlink:title=" ">
<path fill="none" stroke="#63b8ff" d="M288.44,-180C299.36,-180 310.82,-180 322.04,-180"/>
<polygon fill="#63b8ff" stroke="#63b8ff" points="322.25,-183.5 332.25,-180 322.25,-176.5 322.25,-183.5"/>
</a>
</g>
</g>
<!-- Node28 -->
<g id="Node000028" class="node">
<title>Node28</title>
<g id="a_Node000028"><a xlink:href="classpycanha_1_1Nodes.html#a2241f25d67aaa234fe0f73b1245560d6" target="_top" xlink:title="Temperature [K] getter.">
<polygon fill="white" stroke="#666666" points="463,-152.5 335,-152.5 335,-133.5 463,-133.5 463,-152.5"/>
<text text-anchor="middle" x="399" y="-140.5" font-family="Helvetica,sans-Serif" font-size="10.00">pycanha::Nodes::get_T</text>
</a>
</g>
</g>
<!-- Node27&#45;&gt;Node28 -->
<g id="edge27_Node000027_Node000028" class="edge">
<title>Node27&#45;&gt;Node28</title>
<g id="a_edge27_Node000027_Node000028"><a xlink:title=" ">
<path fill="none" stroke="#63b8ff" d="M285.02,-143C297.85,-143 311.55,-143 324.81,-143"/>
<polygon fill="#63b8ff" stroke="#63b8ff" points="324.85,-146.5 334.85,-143 324.85,-139.5 324.85,-146.5"/>
</a>
</g>
</g>
<!-- Node32 -->
<g id="Node000032" class="node">
<title>Node32</title>
<g id="a_Node000032"><a xlink:href="classpycanha_1_1Node.html#a6b3e48a500d2f713fc7ee37e26693749" target="_top" xlink:title=" ">
<polygon fill="white" stroke="#666666" points="458.5,-30 339.5,-30 339.5,0 458.5,0 458.5,-30"/>
<text text-anchor="start" x="347.5" y="-18" font-family="Helvetica,sans-Serif" font-size="10.00">pycanha::Node::local</text>
<text text-anchor="middle" x="399" y="-7" font-family="Helvetica,sans-Serif" font-size="10.00">_storage_destructor</text>
</a>
</g>
</g>
<!-- Node31&#45;&gt;Node32 -->
<g id="edge31_Node000031_Node000032" class="edge">
<title>Node31&#45;&gt;Node32</title>
<g id="a_edge31_Node000031_Node000032"><a xlink:title=" ">
<path fill="none" stroke="#63b8ff" d="M289.91,-15C302.7,-15 316.15,-15 329.07,-15"/>
<polygon fill="#63b8ff" stroke="#63b8ff" points="329.28,-18.5 339.28,-15 329.28,-11.5 329.28,-18.5"/>
</a>
</g>
</g>
</g>
</svg>
