<?xml version="1.0" encoding="UTF-8" standalone="no"?>
<!DOCTYPE svg PUBLIC "-//W3C//DTD SVG 1.1//EN"
 "http://www.w3.org/Graphics/SVG/1.1/DTD/svg11.dtd">
<!-- Generated by graphviz version 2.43.0 (0)
 -->
<!-- Title: pycanha::Nodes::add_node Pages: 1 -->
<svg width="661pt" height="710pt"
 viewBox="0.00 0.00 661.00 709.53" xmlns="http://www.w3.org/2000/svg" xmlns:xlink="http://www.w3.org/1999/xlink">
<g id="graph0" class="graph" transform="scale(1 1) rotate(0) translate(4 705.53)">
<title>pycanha::Nodes::add_node</title>
<!-- Node1 -->
<g id="Node000001" class="node">
<title>Node1</title>
<g id="a_Node000001"><a xlink:title="Method to add a new node.">
<polygon fill="#999999" stroke="#666666" points="148,-260.03 0,-260.03 0,-241.03 148,-241.03 148,-260.03"/>
<text text-anchor="middle" x="74" y="-248.03" font-family="Helvetica,sans-Serif" font-size="10.00">pycanha::Nodes::add_node</text>
</a>
</g>
</g>
<!-- Node2 -->
<g id="Node000002" class="node">
<title>Node2</title>
<g id="a_Node000002"><a xlink:href="classpycanha_1_1Nodes.html#a9e9b067ca2c37eb1df8cb9d17595c181" target="_top" xlink:title=" ">
<polygon fill="white" stroke="#666666" points="303,-340.53 184,-340.53 184,-310.53 303,-310.53 303,-340.53"/>
<text text-anchor="start" x="192" y="-328.53" font-family="Helvetica,sans-Serif" font-size="10.00">pycanha::Nodes::add</text>
<text text-anchor="middle" x="243.5" y="-317.53" font-family="Helvetica,sans-Serif" font-size="10.00">_node_insert_idx</text>
</a>
</g>
</g>
<!-- Node1&#45;&gt;Node2 -->
<g id="edge1_Node000001_Node000002" class="edge">
<title>Node1&#45;&gt;Node2</title>
<g id="a_edge1_Node000001_Node000002"><a xlink:title=" ">
<path fill="none" stroke="#63b8ff" d="M96.55,-260.18C122.45,-271.78 166.52,-291.51 199.47,-306.26"/>
<polygon fill="#63b8ff" stroke="#63b8ff" points="198.32,-309.58 208.88,-310.47 201.18,-303.19 198.32,-309.58"/>
</a>
</g>
</g>
<!-- Node17 -->
<g id="Node000017" class="node">
<title>Node17</title>
<g id="a_Node000017"><a xlink:href="namespacepycanha.html#af116674b7649af0e33b3d7e78ecb1b1b" target="_top" xlink:title=" ">
<polygon fill="white" stroke="#666666" points="641,-37.03 525,-37.03 525,-18.03 641,-18.03 641,-37.03"/>
<text text-anchor="middle" x="583" y="-25.03" font-family="Helvetica,sans-Serif" font-size="10.00">pycanha::get_logger</text>
</a>
</g>
</g>
<!-- Node1&#45;&gt;Node17 -->
<g id="edge35_Node000001_Node000017" class="edge">
<title>Node1&#45;&gt;Node17</title>
<g id="a_edge35_Node000001_Node000017"><a xlink:title=" ">
<path fill="none" stroke="#63b8ff" d="M78.32,-240.85C88.94,-211.19 124.93,-120.63 184,-70.53 285.51,15.57 344.43,3.37 477,-8.53 494.11,-10.07 512.61,-12.98 529.24,-16.08"/>
<polygon fill="#63b8ff" stroke="#63b8ff" points="528.84,-19.57 539.32,-18.02 530.16,-12.69 528.84,-19.57"/>
</a>
</g>
</g>
<!-- Node18 -->
<g id="Node000018" class="node">
<title>Node18</title>
<g id="a_Node000018"><a xlink:href="classpycanha_1_1Node.html#a31d790ab1c03fb481434cebdef5e6017" target="_top" xlink:title="User node number getter.">
<polygon fill="white" stroke="#666666" points="463.5,-701.53 352.5,-701.53 352.5,-671.53 463.5,-671.53 463.5,-701.53"/>
<text text-anchor="start" x="360.5" y="-689.53" font-family="Helvetica,sans-Serif" font-size="10.00">pycanha::Node::get</text>
<text text-anchor="middle" x="408" y="-678.53" font-family="Helvetica,sans-Serif" font-size="10.00">_node_num</text>
</a>
</g>
</g>
<!-- Node1&#45;&gt;Node18 -->
<g id="edge36_Node000001_Node000018" class="edge">
<title>Node1&#45;&gt;Node18</title>
<g id="a_edge36_Node000001_Node000018"><a xlink:title=" ">
<path fill="none" stroke="#63b8ff" d="M78.46,-260.25C96.78,-310.43 187.53,-542.5 339,-662.53 340.75,-663.92 342.59,-665.23 344.5,-666.47"/>
<polygon fill="#63b8ff" stroke="#63b8ff" points="342.8,-669.53 353.22,-671.45 346.27,-663.45 342.8,-669.53"/>
</a>
</g>
</g>
<!-- Node31 -->
<g id="Node000031" class="node">
<title>Node31</title>
<g id="a_Node000031"><a xlink:href="classpycanha_1_1Node.html#a55a4679e85533618ff220014344cc15b" target="_top" xlink:title="Type getter.">
<polygon fill="white" stroke="#666666" points="477,-37.03 339,-37.03 339,-18.03 477,-18.03 477,-37.03"/>
<text text-anchor="middle" x="408" y="-25.03" font-family="Helvetica,sans-Serif" font-size="10.00">pycanha::Node::get_type</text>
</a>
</g>
</g>
<!-- Node1&#45;&gt;Node31 -->
<g id="edge37_Node000001_Node000031" class="edge">
<title>Node1&#45;&gt;Node31</title>
<g id="a_edge37_Node000001_Node000031"><a xlink:title=" ">
<path fill="none" stroke="#63b8ff" d="M85.25,-240.91C119.01,-209.65 230.78,-109.62 339,-51.53 346.85,-47.31 355.6,-43.59 364.13,-40.4"/>
<polygon fill="#63b8ff" stroke="#63b8ff" points="365.36,-43.68 373.62,-37.04 363.02,-37.08 365.36,-43.68"/>
</a>
</g>
</g>
<!-- Node3 -->
<g id="Node000003" class="node">
<title>Node3</title>
<g id="a_Node000003"><a xlink:href="classpycanha_1_1Node.html#a876558b19fd24813e3ad240d7bcc6b47" target="_top" xlink:title="Area [m^2] getter.">
<polygon fill="white" stroke="#666666" points="469,-557.03 347,-557.03 347,-538.03 469,-538.03 469,-557.03"/>
<text text-anchor="middle" x="408" y="-545.03" font-family="Helvetica,sans-Serif" font-size="10.00">pycanha::Node::get_a</text>
</a>
</g>
</g>
<!-- Node2&#45;&gt;Node3 -->
<g id="edge2_Node000002_Node000003" class="edge">
<title>Node2&#45;&gt;Node3</title>
<g id="a_edge2_Node000002_Node000003"><a xlink:title=" ">
<path fill="none" stroke="#63b8ff" d="M247.01,-340.75C254.09,-378.72 277.84,-478.24 339,-529.53 340.38,-530.69 341.83,-531.78 343.34,-532.79"/>
<polygon fill="#63b8ff" stroke="#63b8ff" points="342.03,-536.07 352.47,-537.89 345.44,-529.96 342.03,-536.07"/>
</a>
</g>
</g>
<!-- Node5 -->
<g id="Node000005" class="node">
<title>Node5</title>
<g id="a_Node000005"><a xlink:href="classpycanha_1_1Node.html#ad4784620cf111949d455951f408a8ff1" target="_top" xlink:title="Solar absortivity getter.">
<polygon fill="white" stroke="#666666" points="475,-520.03 341,-520.03 341,-501.03 475,-501.03 475,-520.03"/>
<text text-anchor="middle" x="408" y="-508.03" font-family="Helvetica,sans-Serif" font-size="10.00">pycanha::Node::get_aph</text>
</a>
</g>
</g>
<!-- Node2&#45;&gt;Node5 -->
<g id="edge4_Node000002_Node000005" class="edge">
<title>Node2&#45;&gt;Node5</title>
<g id="a_edge4_Node000002_Node000005"><a xlink:title=" ">
<path fill="none" stroke="#63b8ff" d="M248.66,-340.66C258.53,-373.58 286.52,-452.03 339,-492.53 340.81,-493.92 342.71,-495.21 344.69,-496.4"/>
<polygon fill="#63b8ff" stroke="#63b8ff" points="343.27,-499.6 353.78,-500.99 346.43,-493.36 343.27,-499.6"/>
</a>
</g>
</g>
<!-- Node7 -->
<g id="Node000007" class="node">
<title>Node7</title>
<g id="a_Node000007"><a xlink:href="classpycanha_1_1Node.html#aa0530593dd3c33b50051fd5630583a9a" target="_top" xlink:title="Thermal capacity [J/K] getter.">
<polygon fill="white" stroke="#666666" points="469.5,-483.03 346.5,-483.03 346.5,-464.03 469.5,-464.03 469.5,-483.03"/>
<text text-anchor="middle" x="408" y="-471.03" font-family="Helvetica,sans-Serif" font-size="10.00">pycanha::Node::get_C</text>
</a>
</g>
</g>
<!-- Node2&#45;&gt;Node7 -->
<g id="edge6_Node000002_Node000007" class="edge">
<title>Node2&#45;&gt;Node7</title>
<g id="a_edge6_Node000002_Node000007"><a xlink:title=" ">
<path fill="none" stroke="#63b8ff" d="M251.18,-340.59C264.07,-367.87 295.03,-425.42 339,-455.53 341.28,-457.09 343.69,-458.52 346.19,-459.82"/>
<polygon fill="#63b8ff" stroke="#63b8ff" points="345,-463.12 355.56,-464.02 347.86,-456.74 345,-463.12"/>
</a>
</g>
</g>
<!-- Node9 -->
<g id="Node000009" class="node">
<title>Node9</title>
<g id="a_Node000009"><a xlink:href="classpycanha_1_1Node.html#a82b33ac89fa4e60186dd49bbccff62a5" target="_top" xlink:title="IR emissivity getter.">
<polygon fill="white" stroke="#666666" points="475,-446.03 341,-446.03 341,-427.03 475,-427.03 475,-446.03"/>
<text text-anchor="middle" x="408" y="-434.03" font-family="Helvetica,sans-Serif" font-size="10.00">pycanha::Node::get_eps</text>
</a>
</g>
</g>
<!-- Node2&#45;&gt;Node9 -->
<g id="edge8_Node000002_Node000009" class="edge">
<title>Node2&#45;&gt;Node9</title>
<g id="a_edge8_Node000002_Node000009"><a xlink:title=" ">
<path fill="none" stroke="#63b8ff" d="M255.83,-340.87C271.98,-361.62 303.6,-398.35 339,-418.53 342.06,-420.28 345.3,-421.86 348.63,-423.29"/>
<polygon fill="#63b8ff" stroke="#63b8ff" points="347.63,-426.65 358.22,-426.94 350.12,-420.11 347.63,-426.65"/>
</a>
</g>
</g>
<!-- Node11 -->
<g id="Node000011" class="node">
<title>Node11</title>
<g id="a_Node000011"><a xlink:href="classpycanha_1_1Node.html#af99429c4bbd433a67325730ed5517252" target="_top" xlink:title="X coordinate [m] getter.">
<polygon fill="white" stroke="#666666" points="471,-409.03 345,-409.03 345,-390.03 471,-390.03 471,-409.03"/>
<text text-anchor="middle" x="408" y="-397.03" font-family="Helvetica,sans-Serif" font-size="10.00">pycanha::Node::get_fx</text>
</a>
</g>
</g>
<!-- Node2&#45;&gt;Node11 -->
<g id="edge10_Node000002_Node000011" class="edge">
<title>Node2&#45;&gt;Node11</title>
<g id="a_edge10_Node000002_Node000011"><a xlink:title=" ">
<path fill="none" stroke="#63b8ff" d="M266.12,-340.7C284.71,-353.15 312.62,-370.47 339,-381.53 343.74,-383.51 348.75,-385.33 353.82,-386.99"/>
<polygon fill="#63b8ff" stroke="#63b8ff" points="353.01,-390.4 363.6,-389.96 355.05,-383.7 353.01,-390.4"/>
</a>
</g>
</g>
<!-- Node13 -->
<g id="Node000013" class="node">
<title>Node13</title>
<g id="a_Node000013"><a xlink:href="classpycanha_1_1Node.html#a75a1e382bb8d0fab4ffc116191f099f5" target="_top" xlink:title="Y coordinate [m] getter.">
<polygon fill="white" stroke="#666666" points="470.5,-372.03 345.5,-372.03 345.5,-353.03 470.5,-353.03 470.5,-372.03"/>
<text text-anchor="middle" x="408" y="-360.03" font-family="Helvetica,sans-Serif" font-size="10.00">pycanha::Node::get_fy</text>
</a>
</g>
</g>
<!-- Node2&#45;&gt;Node13 -->
<g id="edge12_Node000002_Node000013" class="edge">
<title>Node2&#45;&gt;Node13</title>
<g id="a_edge12_Node000002_Node000013"><a xlink:title=" ">
<path fill="none" stroke="#63b8ff" d="M303.17,-338.89C320.18,-342.76 338.63,-346.96 355.19,-350.73"/>
<polygon fill="#63b8ff" stroke="#63b8ff" points="354.7,-354.21 365.23,-353.02 356.26,-347.39 354.7,-354.21"/>
</a>
</g>
</g>
<!-- Node15 -->
<g id="Node000015" class="node">
<title>Node15</title>
<g id="a_Node000015"><a xlink:href="classpycanha_1_1Node.html#a1c12438baa7975c31b59b4b8d8cbfee9" target="_top" xlink:title="Z coordinate [m] getter.">
<polygon fill="white" stroke="#666666" points="470.5,-335.03 345.5,-335.03 345.5,-316.03 470.5,-316.03 470.5,-335.03"/>
<text text-anchor="middle" x="408" y="-323.03" font-family="Helvetica,sans-Serif" font-size="10.00">pycanha::Node::get_fz</text>
</a>
</g>
</g>
<!-- Node2&#45;&gt;Node15 -->
<g id="edge14_Node000002_Node000015" class="edge">
<title>Node2&#45;&gt;Node15</title>
<g id="a_edge14_Node000002_Node000015"><a xlink:title=" ">
<path fill="none" stroke="#63b8ff" d="M303.17,-325.53C313.57,-325.53 324.51,-325.53 335.22,-325.53"/>
<polygon fill="#63b8ff" stroke="#63b8ff" points="335.41,-329.03 345.41,-325.53 335.41,-322.03 335.41,-329.03"/>
</a>
</g>
</g>
<!-- Node2&#45;&gt;Node17 -->
<g id="edge16_Node000002_Node000017" class="edge">
<title>Node2&#45;&gt;Node17</title>
<g id="a_edge16_Node000002_Node000017"><a xlink:title=" ">
<path fill="none" stroke="#63b8ff" d="M248.45,-310.41C261.23,-262.58 302.73,-115.94 339,-84.53 352.73,-72.64 452.68,-51.88 520.05,-38.96"/>
<polygon fill="#63b8ff" stroke="#63b8ff" points="520.98,-42.35 530.15,-37.04 519.67,-35.47 520.98,-42.35"/>
</a>
</g>
</g>
<!-- Node2&#45;&gt;Node18 -->
<g id="edge17_Node000002_Node000018" class="edge">
<title>Node2&#45;&gt;Node18</title>
<g id="a_edge17_Node000002_Node000018"><a xlink:title=" ">
<path fill="none" stroke="#63b8ff" d="M249.53,-340.54C260.1,-372.28 285.08,-448.62 303,-513.53 321.13,-579.2 293.35,-611.96 339,-662.53 340.53,-664.23 342.19,-665.81 343.96,-667.27"/>
<polygon fill="#63b8ff" stroke="#63b8ff" points="342.04,-670.21 352.26,-673.02 346.03,-664.45 342.04,-670.21"/>
</a>
</g>
</g>
<!-- Node19 -->
<g id="Node000019" class="node">
<title>Node19</title>
<g id="a_Node000019"><a xlink:href="classpycanha_1_1Node.html#a716082814c425fc97d24196193216ab7" target="_top" xlink:title="Albedo load [W] getter.">
<polygon fill="white" stroke="#666666" points="472,-298.03 344,-298.03 344,-279.03 472,-279.03 472,-298.03"/>
<text text-anchor="middle" x="408" y="-286.03" font-family="Helvetica,sans-Serif" font-size="10.00">pycanha::Node::get_qa</text>
</a>
</g>
</g>
<!-- Node2&#45;&gt;Node19 -->
<g id="edge18_Node000002_Node000019" class="edge">
<title>Node2&#45;&gt;Node19</title>
<g id="a_edge18_Node000002_Node000019"><a xlink:title=" ">
<path fill="none" stroke="#63b8ff" d="M303.17,-312.17C320.18,-308.3 338.63,-304.1 355.19,-300.33"/>
<polygon fill="#63b8ff" stroke="#63b8ff" points="356.26,-303.67 365.23,-298.04 354.7,-296.85 356.26,-303.67"/>
</a>
</g>
</g>
<!-- Node21 -->
<g id="Node000021" class="node">
<title>Node21</title>
<g id="a_Node000021"><a xlink:href="classpycanha_1_1Node.html#a3f8d98cc232bfb86459eeb1e15803a29" target="_top" xlink:title="Earth IR load [W] getter.">
<polygon fill="white" stroke="#666666" points="472,-261.03 344,-261.03 344,-242.03 472,-242.03 472,-261.03"/>
<text text-anchor="middle" x="408" y="-249.03" font-family="Helvetica,sans-Serif" font-size="10.00">pycanha::Node::get_qe</text>
</a>
</g>
</g>
<!-- Node2&#45;&gt;Node21 -->
<g id="edge20_Node000002_Node000021" class="edge">
<title>Node2&#45;&gt;Node21</title>
<g id="a_edge20_Node000002_Node000021"><a xlink:title=" ">
<path fill="none" stroke="#63b8ff" d="M266.57,-310.51C285.21,-298.36 312.95,-281.54 339,-270.53 344.5,-268.21 350.36,-266.08 356.26,-264.16"/>
<polygon fill="#63b8ff" stroke="#63b8ff" points="357.62,-267.4 366.15,-261.12 355.56,-260.71 357.62,-267.4"/>
</a>
</g>
</g>
<!-- Node23 -->
<g id="Node000023" class="node">
<title>Node23</title>
<g id="a_Node000023"><a xlink:href="classpycanha_1_1Node.html#a8eaf6624e94095586b79ce8208e21fd0" target="_top" xlink:title="Internal load [W] getter.">
<polygon fill="white" stroke="#666666" points="470.5,-224.03 345.5,-224.03 345.5,-205.03 470.5,-205.03 470.5,-224.03"/>
<text text-anchor="middle" x="408" y="-212.03" font-family="Helvetica,sans-Serif" font-size="10.00">pycanha::Node::get_qi</text>
</a>
</g>
</g>
<!-- Node2&#45;&gt;Node23 -->
<g id="edge22_Node000002_Node000023" class="edge">
<title>Node2&#45;&gt;Node23</title>
<g id="a_edge22_Node000002_Node000023"><a xlink:title=" ">
<path fill="none" stroke="#63b8ff" d="M255.91,-310.43C272.15,-289.99 303.87,-253.75 339,-233.53 342.87,-231.3 347.01,-229.33 351.28,-227.57"/>
<polygon fill="#63b8ff" stroke="#63b8ff" points="352.57,-230.82 360.74,-224.08 350.15,-224.26 352.57,-230.82"/>
</a>
</g>
</g>
<!-- Node25 -->
<g id="Node000025" class="node">
<title>Node25</title>
<g id="a_Node000025"><a xlink:href="classpycanha_1_1Node.html#afd9b106f3cc7b293cb9ab474d801823c" target="_top" xlink:title="Other load [W] getter.">
<polygon fill="white" stroke="#666666" points="471,-187.03 345,-187.03 345,-168.03 471,-168.03 471,-187.03"/>
<text text-anchor="middle" x="408" y="-175.03" font-family="Helvetica,sans-Serif" font-size="10.00">pycanha::Node::get_qr</text>
</a>
</g>
</g>
<!-- Node2&#45;&gt;Node25 -->
<g id="edge24_Node000002_Node000025" class="edge">
<title>Node2&#45;&gt;Node25</title>
<g id="a_edge24_Node000002_Node000025"><a xlink:title=" ">
<path fill="none" stroke="#63b8ff" d="M251.46,-310.22C264.58,-283.07 295.63,-226.55 339,-196.53 341.91,-194.52 345.03,-192.71 348.27,-191.1"/>
<polygon fill="#63b8ff" stroke="#63b8ff" points="349.88,-194.22 357.67,-187.05 347.1,-187.79 349.88,-194.22"/>
</a>
</g>
</g>
<!-- Node27 -->
<g id="Node000027" class="node">
<title>Node27</title>
<g id="a_Node000027"><a xlink:href="classpycanha_1_1Node.html#aab3d773b93036e4a219a72ca6b029a50" target="_top" xlink:title="Solar load [W] getter.">
<polygon fill="white" stroke="#666666" points="472,-150.03 344,-150.03 344,-131.03 472,-131.03 472,-150.03"/>
<text text-anchor="middle" x="408" y="-138.03" font-family="Helvetica,sans-Serif" font-size="10.00">pycanha::Node::get_qs</text>
</a>
</g>
</g>
<!-- Node2&#45;&gt;Node27 -->
<g id="edge26_Node000002_Node000027" class="edge">
<title>Node2&#45;&gt;Node27</title>
<g id="a_edge26_Node000002_Node000027"><a xlink:title=" ">
<path fill="none" stroke="#63b8ff" d="M248.88,-310.05C259.02,-277.14 287.24,-199.94 339,-159.53 341.31,-157.73 343.78,-156.09 346.36,-154.62"/>
<polygon fill="#63b8ff" stroke="#63b8ff" points="348.04,-157.69 355.5,-150.17 344.98,-151.4 348.04,-157.69"/>
</a>
</g>
</g>
<!-- Node29 -->
<g id="Node000029" class="node">
<title>Node29</title>
<g id="a_Node000029"><a xlink:href="classpycanha_1_1Node.html#a341fecda21eb1508e112ecd8c693385f" target="_top" xlink:title="Temperature [K] getter.">
<polygon fill="white" stroke="#666666" points="469,-113.03 347,-113.03 347,-94.03 469,-94.03 469,-113.03"/>
<text text-anchor="middle" x="408" y="-101.03" font-family="Helvetica,sans-Serif" font-size="10.00">pycanha::Node::get_T</text>
</a>
</g>
</g>
<!-- Node2&#45;&gt;Node29 -->
<g id="edge28_Node000002_Node000029" class="edge">
<title>Node2&#45;&gt;Node29</title>
<g id="a_edge28_Node000002_Node000029"><a xlink:title=" ">
<path fill="none" stroke="#63b8ff" d="M247.01,-310.31C254.09,-272.35 277.84,-172.82 339,-121.53 340.38,-120.37 341.83,-119.28 343.34,-118.27"/>
<polygon fill="#63b8ff" stroke="#63b8ff" points="345.44,-121.1 352.47,-113.17 342.03,-114.99 345.44,-121.1"/>
</a>
</g>
</g>
<!-- Node2&#45;&gt;Node31 -->
<g id="edge30_Node000002_Node000031" class="edge">
<title>Node2&#45;&gt;Node31</title>
<g id="a_edge30_Node000002_Node000031"><a xlink:title=" ">
<path fill="none" stroke="#63b8ff" d="M247.9,-310.38C259.76,-258.65 300.71,-90.1 339,-51.53 342.91,-47.59 347.51,-44.29 352.45,-41.53"/>
<polygon fill="#63b8ff" stroke="#63b8ff" points="354.11,-44.62 361.6,-37.13 351.07,-38.31 354.11,-44.62"/>
</a>
</g>
</g>
<!-- Node32 -->
<g id="Node000032" class="node">
<title>Node32</title>
<g id="a_Node000032"><a xlink:href="classpycanha_1_1Nodes.html#a2ef3ee52b5de782b318b9860a7becff3" target="_top" xlink:title=" ">
<polygon fill="white" stroke="#666666" points="472,-605.53 344,-605.53 344,-575.53 472,-575.53 472,-605.53"/>
<text text-anchor="start" x="352" y="-593.53" font-family="Helvetica,sans-Serif" font-size="10.00">pycanha::Nodes::insert</text>
<text text-anchor="middle" x="408" y="-582.53" font-family="Helvetica,sans-Serif" font-size="10.00">_displace</text>
</a>
</g>
</g>
<!-- Node2&#45;&gt;Node32 -->
<g id="edge32_Node000002_Node000032" class="edge">
<title>Node2&#45;&gt;Node32</title>
<g id="a_edge32_Node000002_Node000032"><a xlink:title=" ">
<path fill="none" stroke="#63b8ff" d="M248.69,-340.83C262.02,-388.52 304.58,-533.27 339,-566.53 340.1,-567.59 341.24,-568.6 342.43,-569.57"/>
<polygon fill="#63b8ff" stroke="#63b8ff" points="340.6,-572.56 350.82,-575.34 344.57,-566.79 340.6,-572.56"/>
</a>
</g>
</g>
<!-- Node33 -->
<g id="Node000033" class="node">
<title>Node33</title>
<g id="a_Node000033"><a xlink:href="classpycanha_1_1Node.html#aa6ed2994d3acaf711d8f0c12145a7983" target="_top" xlink:title="Set the parent instance.">
<polygon fill="white" stroke="#666666" points="473.5,-653.53 342.5,-653.53 342.5,-623.53 473.5,-623.53 473.5,-653.53"/>
<text text-anchor="start" x="350.5" y="-641.53" font-family="Helvetica,sans-Serif" font-size="10.00">pycanha::Node::set</text>
<text text-anchor="middle" x="408" y="-630.53" font-family="Helvetica,sans-Serif" font-size="10.00">_thermal_nodes_parent</text>
</a>
</g>
</g>
<!-- Node2&#45;&gt;Node33 -->
<g id="edge33_Node000002_Node000033" class="edge">
<title>Node2&#45;&gt;Node33</title>
<g id="a_edge33_Node000002_Node000033"><a xlink:title=" ">
<path fill="none" stroke="#63b8ff" d="M249.28,-340.76C267.78,-399.64 333.93,-609.34 339,-614.53 339.94,-615.49 340.91,-616.41 341.92,-617.29"/>
<polygon fill="#63b8ff" stroke="#63b8ff" points="340.13,-620.32 350.28,-623.36 344.25,-614.65 340.13,-620.32"/>
</a>
</g>
</g>
<!-- Node4 -->
<g id="Node000004" class="node">
<title>Node4</title>
<g id="a_Node000004"><a xlink:href="classpycanha_1_1Nodes.html#a77196970cfb979acc7b67f8b99c9f634" target="_top" xlink:title="Area [m^2] getter.">
<polygon fill="white" stroke="#666666" points="647,-557.03 519,-557.03 519,-538.03 647,-538.03 647,-557.03"/>
<text text-anchor="middle" x="583" y="-545.03" font-family="Helvetica,sans-Serif" font-size="10.00">pycanha::Nodes::get_a</text>
</a>
</g>
</g>
<!-- Node3&#45;&gt;Node4 -->
<g id="edge3_Node000003_Node000004" class="edge">
<title>Node3&#45;&gt;Node4</title>
<g id="a_edge3_Node000003_Node000004"><a xlink:title=" ">
<path fill="none" stroke="#63b8ff" d="M469.02,-547.53C481.85,-547.53 495.55,-547.53 508.81,-547.53"/>
<polygon fill="#63b8ff" stroke="#63b8ff" points="508.85,-551.03 518.85,-547.53 508.85,-544.03 508.85,-551.03"/>
</a>
</g>
</g>
<!-- Node6 -->
<g id="Node000006" class="node">
<title>Node6</title>
<g id="a_Node000006"><a xlink:href="classpycanha_1_1Nodes.html#ad61fdb5f6c5d4a13dd351715818f930a" target="_top" xlink:title="Solar absortivity getter.">
<polygon fill="white" stroke="#666666" points="653,-520.03 513,-520.03 513,-501.03 653,-501.03 653,-520.03"/>
<text text-anchor="middle" x="583" y="-508.03" font-family="Helvetica,sans-Serif" font-size="10.00">pycanha::Nodes::get_aph</text>
</a>
</g>
</g>
<!-- Node5&#45;&gt;Node6 -->
<g id="edge5_Node000005_Node000006" class="edge">
<title>Node5&#45;&gt;Node6</title>
<g id="a_edge5_Node000005_Node000006"><a xlink:title=" ">
<path fill="none" stroke="#63b8ff" d="M475.39,-510.53C484.32,-510.53 493.56,-510.53 502.68,-510.53"/>
<polygon fill="#63b8ff" stroke="#63b8ff" points="502.92,-514.03 512.92,-510.53 502.92,-507.03 502.92,-514.03"/>
</a>
</g>
</g>
<!-- Node8 -->
<g id="Node000008" class="node">
<title>Node8</title>
<g id="a_Node000008"><a xlink:href="classpycanha_1_1Nodes.html#ab1c554b7523ca26126896ac0df536594" target="_top" xlink:title="Thermal capacity [J/K] getter.">
<polygon fill="white" stroke="#666666" points="647,-483.03 519,-483.03 519,-464.03 647,-464.03 647,-483.03"/>
<text text-anchor="middle" x="583" y="-471.03" font-family="Helvetica,sans-Serif" font-size="10.00">pycanha::Nodes::get_C</text>
</a>
</g>
</g>
<!-- Node7&#45;&gt;Node8 -->
<g id="edge7_Node000007_Node000008" class="edge">
<title>Node7&#45;&gt;Node8</title>
<g id="a_edge7_Node000007_Node000008"><a xlink:title=" ">
<path fill="none" stroke="#63b8ff" d="M469.51,-473.53C482.12,-473.53 495.54,-473.53 508.56,-473.53"/>
<polygon fill="#63b8ff" stroke="#63b8ff" points="508.89,-477.03 518.89,-473.53 508.89,-470.03 508.89,-477.03"/>
</a>
</g>
</g>
<!-- Node10 -->
<g id="Node000010" class="node">
<title>Node10</title>
<g id="a_Node000010"><a xlink:href="classpycanha_1_1Nodes.html#a8802742ebd0f9ccdd0182b600fe7eff1" target="_top" xlink:title="IR emissivity getter.">
<polygon fill="white" stroke="#666666" points="652.5,-446.03 513.5,-446.03 513.5,-427.03 652.5,-427.03 652.5,-446.03"/>
<text text-anchor="middle" x="583" y="-434.03" font-family="Helvetica,sans-Serif" font-size="10.00">pycanha::Nodes::get_eps</text>
</a>
</g>
</g>
<!-- Node9&#45;&gt;Node10 -->
<g id="edge9_Node000009_Node000010" class="edge">
<title>Node9&#45;&gt;Node10</title>
<g id="a_edge9_Node000009_Node000010"><a xlink:title=" ">
<path fill="none" stroke="#63b8ff" d="M475.39,-436.53C484.56,-436.53 494.04,-436.53 503.41,-436.53"/>
<polygon fill="#63b8ff" stroke="#63b8ff" points="503.49,-440.03 513.49,-436.53 503.49,-433.03 503.49,-440.03"/>
</a>
</g>
</g>
<!-- Node12 -->
<g id="Node000012" class="node">
<title>Node12</title>
<g id="a_Node000012"><a xlink:href="classpycanha_1_1Nodes.html#a4cf1319c964a09c43c8b7d727c08e4ec" target="_top" xlink:title="X coordinate [m] getter.">
<polygon fill="white" stroke="#666666" points="648.5,-409.03 517.5,-409.03 517.5,-390.03 648.5,-390.03 648.5,-409.03"/>
<text text-anchor="middle" x="583" y="-397.03" font-family="Helvetica,sans-Serif" font-size="10.00">pycanha::Nodes::get_fx</text>
</a>
</g>
</g>
<!-- Node11&#45;&gt;Node12 -->
<g id="edge11_Node000011_Node000012" class="edge">
<title>Node11&#45;&gt;Node12</title>
<g id="a_edge11_Node000011_Node000012"><a xlink:title=" ">
<path fill="none" stroke="#63b8ff" d="M471.46,-399.53C482.98,-399.53 495.13,-399.53 506.99,-399.53"/>
<polygon fill="#63b8ff" stroke="#63b8ff" points="507.3,-403.03 517.3,-399.53 507.3,-396.03 507.3,-403.03"/>
</a>
</g>
</g>
<!-- Node14 -->
<g id="Node000014" class="node">
<title>Node14</title>
<g id="a_Node000014"><a xlink:href="classpycanha_1_1Nodes.html#a64c3c26707b3116db6928646261954b2" target="_top" xlink:title="Y coordinate [m] getter.">
<polygon fill="white" stroke="#666666" points="648.5,-372.03 517.5,-372.03 517.5,-353.03 648.5,-353.03 648.5,-372.03"/>
<text text-anchor="middle" x="583" y="-360.03" font-family="Helvetica,sans-Serif" font-size="10.00">pycanha::Nodes::get_fy</text>
</a>
</g>
</g>
<!-- Node13&#45;&gt;Node14 -->
<g id="edge13_Node000013_Node000014" class="edge">
<title>Node13&#45;&gt;Node14</title>
<g id="a_edge13_Node000013_Node000014"><a xlink:title=" ">
<path fill="none" stroke="#63b8ff" d="M470.97,-362.53C482.71,-362.53 495.11,-362.53 507.19,-362.53"/>
<polygon fill="#63b8ff" stroke="#63b8ff" points="507.25,-366.03 517.25,-362.53 507.25,-359.03 507.25,-366.03"/>
</a>
</g>
</g>
<!-- Node16 -->
<g id="Node000016" class="node">
<title>Node16</title>
<g id="a_Node000016"><a xlink:href="classpycanha_1_1Nodes.html#a698ac07f5879b7ec5b81fd0a90f525ce" target="_top" xlink:title="Z coordinate [m] getter.">
<polygon fill="white" stroke="#666666" points="648.5,-335.03 517.5,-335.03 517.5,-316.03 648.5,-316.03 648.5,-335.03"/>
<text text-anchor="middle" x="583" y="-323.03" font-family="Helvetica,sans-Serif" font-size="10.00">pycanha::Nodes::get_fz</text>
</a>
</g>
</g>
<!-- Node15&#45;&gt;Node16 -->
<g id="edge15_Node000015_Node000016" class="edge">
<title>Node15&#45;&gt;Node16</title>
<g id="a_edge15_Node000015_Node000016"><a xlink:title=" ">
<path fill="none" stroke="#63b8ff" d="M470.97,-325.53C482.71,-325.53 495.11,-325.53 507.19,-325.53"/>
<polygon fill="#63b8ff" stroke="#63b8ff" points="507.25,-329.03 517.25,-325.53 507.25,-322.03 507.25,-329.03"/>
</a>
</g>
</g>
<!-- Node20 -->
<g id="Node000020" class="node">
<title>Node20</title>
<g id="a_Node000020"><a xlink:href="classpycanha_1_1Nodes.html#a521272051bce035b77e810f8f2e16b7b" target="_top" xlink:title="Albedo load [W] getter.">
<polygon fill="white" stroke="#666666" points="650,-298.03 516,-298.03 516,-279.03 650,-279.03 650,-298.03"/>
<text text-anchor="middle" x="583" y="-286.03" font-family="Helvetica,sans-Serif" font-size="10.00">pycanha::Nodes::get_qa</text>
</a>
</g>
</g>
<!-- Node19&#45;&gt;Node20 -->
<g id="edge19_Node000019_Node000020" class="edge">
<title>Node19&#45;&gt;Node20</title>
<g id="a_edge19_Node000019_Node000020"><a xlink:title=" ">
<path fill="none" stroke="#63b8ff" d="M472.44,-288.53C483.29,-288.53 494.67,-288.53 505.81,-288.53"/>
<polygon fill="#63b8ff" stroke="#63b8ff" points="505.96,-292.03 515.96,-288.53 505.96,-285.03 505.96,-292.03"/>
</a>
</g>
</g>
<!-- Node22 -->
<g id="Node000022" class="node">
<title>Node22</title>
<g id="a_Node000022"><a xlink:href="classpycanha_1_1Nodes.html#a3004cfb5c89e1c32f565eca56433e836" target="_top" xlink:title="Earth IR load [W] getter.">
<polygon fill="white" stroke="#666666" points="650,-261.03 516,-261.03 516,-242.03 650,-242.03 650,-261.03"/>
<text text-anchor="middle" x="583" y="-249.03" font-family="Helvetica,sans-Serif" font-size="10.00">pycanha::Nodes::get_qe</text>
</a>
</g>
</g>
<!-- Node21&#45;&gt;Node22 -->
<g id="edge21_Node000021_Node000022" class="edge">
<title>Node21&#45;&gt;Node22</title>
<g id="a_edge21_Node000021_Node000022"><a xlink:title=" ">
<path fill="none" stroke="#63b8ff" d="M472.44,-251.53C483.29,-251.53 494.67,-251.53 505.81,-251.53"/>
<polygon fill="#63b8ff" stroke="#63b8ff" points="505.96,-255.03 515.96,-251.53 505.96,-248.03 505.96,-255.03"/>
</a>
</g>
</g>
<!-- Node24 -->
<g id="Node000024" class="node">
<title>Node24</title>
<g id="a_Node000024"><a xlink:href="classpycanha_1_1Nodes.html#a7281e1dc78824a8a1c151c4bb5f0ac9c" target="_top" xlink:title="Internal load [W] getter.">
<polygon fill="white" stroke="#666666" points="648.5,-224.03 517.5,-224.03 517.5,-205.03 648.5,-205.03 648.5,-224.03"/>
<text text-anchor="middle" x="583" y="-212.03" font-family="Helvetica,sans-Serif" font-size="10.00">pycanha::Nodes::get_qi</text>
</a>
</g>
</g>
<!-- Node23&#45;&gt;Node24 -->
<g id="edge23_Node000023_Node000024" class="edge">
<title>Node23&#45;&gt;Node24</title>
<g id="a_edge23_Node000023_Node000024"><a xlink:title=" ">
<path fill="none" stroke="#63b8ff" d="M470.97,-214.53C482.71,-214.53 495.11,-214.53 507.19,-214.53"/>
<polygon fill="#63b8ff" stroke="#63b8ff" points="507.25,-218.03 517.25,-214.53 507.25,-211.03 507.25,-218.03"/>
</a>
</g>
</g>
<!-- Node26 -->
<g id="Node000026" class="node">
<title>Node26</title>
<g id="a_Node000026"><a xlink:href="classpycanha_1_1Nodes.html#a044abae6432fcf073ec1bbd2e2faba98" target="_top" xlink:title="Other load [W] getter.">
<polygon fill="white" stroke="#666666" points="648.5,-187.03 517.5,-187.03 517.5,-168.03 648.5,-168.03 648.5,-187.03"/>
<text text-anchor="middle" x="583" y="-175.03" font-family="Helvetica,sans-Serif" font-size="10.00">pycanha::Nodes::get_qr</text>
</a>
</g>
</g>
<!-- Node25&#45;&gt;Node26 -->
<g id="edge25_Node000025_Node000026" class="edge">
<title>Node25&#45;&gt;Node26</title>
<g id="a_edge25_Node000025_Node000026"><a xlink:title=" ">
<path fill="none" stroke="#63b8ff" d="M471.46,-177.53C482.98,-177.53 495.13,-177.53 506.99,-177.53"/>
<polygon fill="#63b8ff" stroke="#63b8ff" points="507.3,-181.03 517.3,-177.53 507.3,-174.03 507.3,-181.03"/>
</a>
</g>
</g>
<!-- Node28 -->
<g id="Node000028" class="node">
<title>Node28</title>
<g id="a_Node000028"><a xlink:href="classpycanha_1_1Nodes.html#a69b8286c1d8f94103a25d32f1ed155b5" target="_top" xlink:title="Solar load [W] getter.">
<polygon fill="white" stroke="#666666" points="649.5,-150.03 516.5,-150.03 516.5,-131.03 649.5,-131.03 649.5,-150.03"/>
<text text-anchor="middle" x="583" y="-138.03" font-family="Helvetica,sans-Serif" font-size="10.00">pycanha::Nodes::get_qs</text>
</a>
</g>
</g>
<!-- Node27&#45;&gt;Node28 -->
<g id="edge27_Node000027_Node000028" class="edge">
<title>Node27&#45;&gt;Node28</title>
<g id="a_edge27_Node000027_Node000028"><a xlink:title=" ">
<path fill="none" stroke="#63b8ff" d="M472.44,-140.53C483.36,-140.53 494.82,-140.53 506.04,-140.53"/>
<polygon fill="#63b8ff" stroke="#63b8ff" points="506.25,-144.03 516.25,-140.53 506.25,-137.03 506.25,-144.03"/>
</a>
</g>
</g>
<!-- Node30 -->
<g id="Node000030" class="node">
<title>Node30</title>
<g id="a_Node000030"><a xlink:href="classpycanha_1_1Nodes.html#a2241f25d67aaa234fe0f73b1245560d6" target="_top" xlink:title="Temperature [K] getter.">
<polygon fill="white" stroke="#666666" points="647,-113.03 519,-113.03 519,-94.03 647,-94.03 647,-113.03"/>
<text text-anchor="middle" x="583" y="-101.03" font-family="Helvetica,sans-Serif" font-size="10.00">pycanha::Nodes::get_T</text>
</a>
</g>
</g>
<!-- Node29&#45;&gt;Node30 -->
<g id="edge29_Node000029_Node000030" class="edge">
<title>Node29&#45;&gt;Node30</title>
<g id="a_edge29_Node000029_Node000030"><a xlink:title=" ">
<path fill="none" stroke="#63b8ff" d="M469.02,-103.53C481.85,-103.53 495.55,-103.53 508.81,-103.53"/>
<polygon fill="#63b8ff" stroke="#63b8ff" points="508.85,-107.03 518.85,-103.53 508.85,-100.03 508.85,-107.03"/>
</a>
</g>
</g>
<!-- Node31&#45;&gt;Node17 -->
<g id="edge31_Node000031_Node000017" class="edge">
<title>Node31&#45;&gt;Node17</title>
<g id="a_edge31_Node000031_Node000017"><a xlink:title=" ">
<path fill="none" stroke="#63b8ff" d="M477.37,-27.53C489.7,-27.53 502.53,-27.53 514.82,-27.53"/>
<polygon fill="#63b8ff" stroke="#63b8ff" points="514.99,-31.03 524.99,-27.53 514.99,-24.03 514.99,-31.03"/>
</a>
</g>
</g>
<!-- Node34 -->
<g id="Node000034" class="node">
<title>Node34</title>
<g id="a_Node000034"><a xlink:href="classpycanha_1_1Node.html#a6b3e48a500d2f713fc7ee37e26693749" target="_top" xlink:title=" ">
<polygon fill="white" stroke="#666666" points="642.5,-653.53 523.5,-653.53 523.5,-623.53 642.5,-623.53 642.5,-653.53"/>
<text text-anchor="start" x="531.5" y="-641.53" font-family="Helvetica,sans-Serif" font-size="10.00">pycanha::Node::local</text>
<text text-anchor="middle" x="583" y="-630.53" font-family="Helvetica,sans-Serif" font-size="10.00">_storage_destructor</text>
</a>
</g>
</g>
<!-- Node33&#45;&gt;Node34 -->
<g id="edge34_Node000033_Node000034" class="edge">
<title>Node33&#45;&gt;Node34</title>
<g id="a_edge34_Node000033_Node000034"><a xlink:title=" ">
<path fill="none" stroke="#63b8ff" d="M473.91,-638.53C486.7,-638.53 500.15,-638.53 513.07,-638.53"/>
<polygon fill="#63b8ff" stroke="#63b8ff" points="513.28,-642.03 523.28,-638.53 513.28,-635.03 513.28,-642.03"/>
</a>
</g>
</g>
</g>
</svg>
