<?xml version="1.0" encoding="UTF-8" standalone="no"?>
<!DOCTYPE svg PUBLIC "-//W3C//DTD SVG 1.1//EN"
 "http://www.w3.org/Graphics/SVG/1.1/DTD/svg11.dtd">
<!-- Generated by graphviz version 2.43.0 (0)
 -->
<!-- Title: pycanha::ThermalMathematicalModel Pages: 1 -->
<svg width="582pt" height="181pt"
 viewBox="0.00 0.00 581.50 181.00" xmlns="http://www.w3.org/2000/svg" xmlns:xlink="http://www.w3.org/1999/xlink">
<g id="graph0" class="graph" transform="scale(1 1) rotate(0) translate(4 177)">
<title>pycanha::ThermalMathematicalModel</title>
<!-- Node1 -->
<g id="Node000001" class="node">
<title>Node1</title>
<g id="a_Node000001"><a xlink:title=" ">
<polygon fill="#999999" stroke="#666666" points="535,-107 363,-107 363,-77 535,-77 535,-107"/>
<text text-anchor="start" x="371" y="-95" font-family="Helvetica,sans-Serif" font-size="10.00">pycanha::ThermalMathematical</text>
<text text-anchor="middle" x="449" y="-84" font-family="Helvetica,sans-Serif" font-size="10.00">Model</text>
</a>
</g>
</g>
<!-- Node3 -->
<g id="Node000003" class="node">
<title>Node3</title>
<g id="a_Node000003"><a xlink:href="classpycanha_1_1Solver.html" target="_top" xlink:title=" ">
<polygon fill="white" stroke="#bfbfbf" points="308.5,-19 213.5,-19 213.5,0 308.5,0 308.5,-19"/>
<text text-anchor="middle" x="261" y="-7" font-family="Helvetica,sans-Serif" font-size="10.00">pycanha::Solver</text>
</a>
</g>
</g>
<!-- Node1&#45;&gt;Node3 -->
<g id="edge3_Node000003_Node000001" class="edge">
<title>Node1&#45;&gt;Node3</title>
<g id="a_edge3_Node000003_Node000001"><a xlink:title=" ">
<path fill="none" stroke="#9a32cd" stroke-dasharray="5,2" d="M352.62,-80.87C321.43,-75.9 291.82,-68.8 280,-59 267.89,-48.96 263.46,-30.16 261.87,-19.15"/>
<polygon fill="#9a32cd" stroke="#9a32cd" points="352.37,-84.37 362.79,-82.41 353.42,-77.45 352.37,-84.37"/>
</a>
</g>
<text text-anchor="middle" x="293.5" y="-45.5" font-family="Helvetica,sans-Serif" font-size="10.00" fill="grey"> tmm</text>
</g>
<!-- Node6 -->
<g id="Node000006" class="node">
<title>Node6</title>
<g id="a_Node000006"><a xlink:href="classpycanha_1_1EntitiesHelper.html" target="_top" xlink:title=" ">
<polygon fill="white" stroke="#bfbfbf" points="573.5,-19 440.5,-19 440.5,0 573.5,0 573.5,-19"/>
<text text-anchor="middle" x="507" y="-7" font-family="Helvetica,sans-Serif" font-size="10.00">pycanha::EntitiesHelper</text>
</a>
</g>
</g>
<!-- Node1&#45;&gt;Node6 -->
<g id="edge7_Node000006_Node000001" class="edge">
<title>Node1&#45;&gt;Node6</title>
<g id="a_edge7_Node000006_Node000001"><a xlink:title=" ">
<path fill="none" stroke="#9a32cd" stroke-dasharray="5,2" d="M458.83,-67.55C463.56,-57.62 469.79,-46.24 477,-37 482.22,-30.32 489.27,-23.99 495.23,-19.19"/>
<polygon fill="#9a32cd" stroke="#9a32cd" points="455.55,-66.3 454.61,-76.85 461.93,-69.19 455.55,-66.3"/>
</a>
</g>
<text text-anchor="middle" x="493" y="-45.5" font-family="Helvetica,sans-Serif" font-size="10.00" fill="grey"> _tmm</text>
</g>
<!-- Node2 -->
<g id="Node000002" class="node">
<title>Node2</title>
<g id="a_Node000002"><a xlink:href="classpycanha_1_1SolverRegistry.html" target="_top" xlink:title=" ">
<polygon fill="white" stroke="#bfbfbf" points="516.5,-173 381.5,-173 381.5,-154 516.5,-154 516.5,-173"/>
<text text-anchor="middle" x="449" y="-161" font-family="Helvetica,sans-Serif" font-size="10.00">pycanha::SolverRegistry</text>
</a>
</g>
</g>
<!-- Node2&#45;&gt;Node1 -->
<g id="edge1_Node000001_Node000002" class="edge">
<title>Node2&#45;&gt;Node1</title>
<g id="a_edge1_Node000001_Node000002"><a xlink:title=" ">
<path fill="none" stroke="#9a32cd" stroke-dasharray="5,2" d="M449,-143.71C449,-132.19 449,-117.68 449,-107.14"/>
<polygon fill="#9a32cd" stroke="#9a32cd" points="445.5,-143.98 449,-153.98 452.5,-143.98 445.5,-143.98"/>
</a>
</g>
<text text-anchor="middle" x="471" y="-128" font-family="Helvetica,sans-Serif" font-size="10.00" fill="grey"> _solvers</text>
</g>
<!-- Node3&#45;&gt;Node1 -->
<g id="edge2_Node000001_Node000003" class="edge">
<title>Node3&#45;&gt;Node1</title>
<g id="a_edge2_Node000001_Node000003"><a xlink:title=" ">
<path fill="none" stroke="#9a32cd" stroke-dasharray="5,2" d="M289.15,-23.82C296.49,-27.71 304.23,-32.22 311,-37 322.82,-45.34 322.36,-51.96 335,-59 348.56,-66.55 364.04,-72.43 379.12,-76.96"/>
<polygon fill="#9a32cd" stroke="#9a32cd" points="290.68,-20.67 280.19,-19.23 287.5,-26.9 290.68,-20.67"/>
</a>
</g>
<text text-anchor="middle" x="397" y="-45.5" font-family="Helvetica,sans-Serif" font-size="10.00" fill="grey"> _current_callback_solver</text>
</g>
<!-- Node4 -->
<g id="Node000004" class="node">
<title>Node4</title>
<g id="a_Node000004"><a xlink:href="classpycanha_1_1ThermalNetwork.html" target="_top" xlink:title=" ">
<polygon fill="white" stroke="#bfbfbf" points="146,-101.5 0,-101.5 0,-82.5 146,-82.5 146,-101.5"/>
<text text-anchor="middle" x="73" y="-89.5" font-family="Helvetica,sans-Serif" font-size="10.00">pycanha::ThermalNetwork</text>
</a>
</g>
</g>
<!-- Node4&#45;&gt;Node3 -->
<g id="edge4_Node000003_Node000004" class="edge">
<title>Node4&#45;&gt;Node3</title>
<g id="a_edge4_Node000003_Node000004"><a xlink:title=" ">
<path fill="none" stroke="#9a32cd" stroke-dasharray="5,2" d="M102.78,-78.25C141.45,-61.69 207.91,-33.23 241.03,-19.05"/>
<polygon fill="#9a32cd" stroke="#9a32cd" points="100.93,-75.23 93.12,-82.39 103.69,-81.67 100.93,-75.23"/>
</a>
</g>
<text text-anchor="middle" x="206" y="-45.5" font-family="Helvetica,sans-Serif" font-size="10.00" fill="grey"> tnw</text>
</g>
<!-- Node5 -->
<g id="Node000005" class="node">
<title>Node5</title>
<g id="a_Node000005"><a xlink:href="classpycanha_1_1CouplingMatrices.html" target="_top" xlink:title=" ">
<polygon fill="white" stroke="#bfbfbf" points="313.5,-101.5 164.5,-101.5 164.5,-82.5 313.5,-82.5 313.5,-101.5"/>
<text text-anchor="middle" x="239" y="-89.5" font-family="Helvetica,sans-Serif" font-size="10.00">pycanha::CouplingMatrices</text>
</a>
</g>
</g>
<!-- Node5&#45;&gt;Node3 -->
<g id="edge5_Node000003_Node000005" class="edge">
<title>Node5&#45;&gt;Node3</title>
<g id="a_edge5_Node000003_Node000005"><a xlink:title=" ">
<path fill="none" stroke="#9a32cd" stroke-dasharray="5,2" d="M236.43,-72.05C235.71,-61.44 236,-48.15 240,-37 242.38,-30.37 247.14,-24.13 251.53,-19.38"/>
<polygon fill="#9a32cd" stroke="#9a32cd" points="232.98,-72.69 237.49,-82.28 239.94,-71.97 232.98,-72.69"/>
</a>
</g>
<text text-anchor="middle" x="250.5" y="-51" font-family="Helvetica,sans-Serif" font-size="10.00" fill="grey"> ltcs</text>
<text text-anchor="middle" x="250.5" y="-40" font-family="Helvetica,sans-Serif" font-size="10.00" fill="grey">rtcs</text>
</g>
<!-- Node6&#45;&gt;Node1 -->
<g id="edge6_Node000001_Node000006" class="edge">
<title>Node6&#45;&gt;Node1</title>
<g id="a_edge6_Node000001_Node000006"><a xlink:title=" ">
<path fill="none" stroke="#9a32cd" stroke-dasharray="5,2" d="M514.5,-28.55C517.28,-38.23 518.57,-49.99 513,-59 508.3,-66.61 501.18,-72.47 493.37,-76.96"/>
<polygon fill="#9a32cd" stroke="#9a32cd" points="517.78,-27.35 511.14,-19.09 511.18,-29.68 517.78,-27.35"/>
</a>
</g>
<text text-anchor="middle" x="539" y="-45.5" font-family="Helvetica,sans-Serif" font-size="10.00" fill="grey"> _entities</text>
</g>
</g>
</svg>
