<?xml version="1.0" encoding="UTF-8" standalone="no"?>
<!DOCTYPE svg PUBLIC "-//W3C//DTD SVG 1.1//EN"
 "http://www.w3.org/Graphics/SVG/1.1/DTD/svg11.dtd">
<!-- Generated by graphviz version 2.43.0 (0)
 -->
<!-- Title: pycanha::SteadyStateSolver Pages: 1 -->
<svg width="897pt" height="128pt"
 viewBox="0.00 0.00 897.00 128.00" xmlns="http://www.w3.org/2000/svg" xmlns:xlink="http://www.w3.org/1999/xlink">
<g id="graph0" class="graph" transform="scale(1 1) rotate(0) translate(4 124)">
<title>pycanha::SteadyStateSolver</title>
<!-- Node1 -->
<g id="Node000001" class="node">
<title>Node1</title>
<g id="a_Node000001"><a xlink:title=" ">
<polygon fill="#999999" stroke="#666666" points="665,-19 511,-19 511,0 665,0 665,-19"/>
<text text-anchor="middle" x="588" y="-7" font-family="Helvetica,sans-Serif" font-size="10.00">pycanha::SteadyStateSolver</text>
</a>
</g>
</g>
<!-- Node2 -->
<g id="Node000002" class="node">
<title>Node2</title>
<g id="a_Node000002"><a xlink:href="classpycanha_1_1Solver.html" target="_top" xlink:title=" ">
<polygon fill="white" stroke="#bfbfbf" points="322,-52 227,-52 227,-33 322,-33 322,-52"/>
<text text-anchor="middle" x="274.5" y="-40" font-family="Helvetica,sans-Serif" font-size="10.00">pycanha::Solver</text>
</a>
</g>
</g>
<!-- Node2&#45;&gt;Node1 -->
<g id="edge1_Node000001_Node000002" class="edge">
<title>Node2&#45;&gt;Node1</title>
<g id="a_edge1_Node000001_Node000002"><a xlink:title=" ">
<path fill="none" stroke="#63b8ff" d="M321.92,-30.66C334.23,-27.91 347.56,-25.27 360,-23.5 409.94,-16.39 466.56,-12.89 510.77,-11.17"/>
<polygon fill="#63b8ff" stroke="#63b8ff" points="320.82,-27.33 311.87,-32.99 322.4,-34.15 320.82,-27.33"/>
</a>
</g>
</g>
<!-- Node3 -->
<g id="Node000003" class="node">
<title>Node3</title>
<g id="a_Node000003"><a xlink:href="classpycanha_1_1ThermalMathematicalModel.html" target="_top" xlink:title=" ">
<polygon fill="white" stroke="#bfbfbf" points="674,-91.5 502,-91.5 502,-61.5 674,-61.5 674,-91.5"/>
<text text-anchor="start" x="510" y="-79.5" font-family="Helvetica,sans-Serif" font-size="10.00">pycanha::ThermalMathematical</text>
<text text-anchor="middle" x="588" y="-68.5" font-family="Helvetica,sans-Serif" font-size="10.00">Model</text>
</a>
</g>
</g>
<!-- Node2&#45;&gt;Node3 -->
<g id="edge4_Node000003_Node000002" class="edge">
<title>Node2&#45;&gt;Node3</title>
<g id="a_edge4_Node000003_Node000002"><a xlink:title=" ">
<path fill="none" stroke="#9a32cd" stroke-dasharray="5,2" d="M332.29,-50.92C341.54,-52.19 351.03,-53.43 360,-54.5 406.78,-60.09 459.12,-65.23 501.75,-69.14"/>
<polygon fill="#9a32cd" stroke="#9a32cd" points="332.77,-47.45 322.38,-49.54 331.8,-54.38 332.77,-47.45"/>
</a>
</g>
<text text-anchor="middle" x="422" y="-69.5" font-family="Helvetica,sans-Serif" font-size="10.00" fill="grey"> _current_callback_solver</text>
</g>
<!-- Node3&#45;&gt;Node2 -->
<g id="edge2_Node000002_Node000003" class="edge">
<title>Node3&#45;&gt;Node2</title>
<g id="a_edge2_Node000002_Node000003"><a xlink:title=" ">
<path fill="none" stroke="#9a32cd" stroke-dasharray="5,2" d="M539.69,-58.01C522.44,-52.16 502.6,-46.45 484,-43.5 428.94,-34.76 364.68,-36.17 322.2,-38.69"/>
<polygon fill="#9a32cd" stroke="#9a32cd" points="538.93,-61.45 549.52,-61.45 541.24,-54.84 538.93,-61.45"/>
</a>
</g>
<text text-anchor="middle" x="422" y="-46.5" font-family="Helvetica,sans-Serif" font-size="10.00" fill="grey"> tmm</text>
</g>
<!-- Node5 -->
<g id="Node000005" class="node">
<title>Node5</title>
<g id="a_Node000005"><a xlink:href="classpycanha_1_1EntitiesHelper.html" target="_top" xlink:title=" ">
<polygon fill="white" stroke="#bfbfbf" points="889,-86 756,-86 756,-67 889,-67 889,-86"/>
<text text-anchor="middle" x="822.5" y="-74" font-family="Helvetica,sans-Serif" font-size="10.00">pycanha::EntitiesHelper</text>
</a>
</g>
</g>
<!-- Node3&#45;&gt;Node5 -->
<g id="edge6_Node000005_Node000003" class="edge">
<title>Node3&#45;&gt;Node5</title>
<g id="a_edge6_Node000005_Node000003"><a xlink:title=" ">
<path fill="none" stroke="#9a32cd" stroke-dasharray="5,2" d="M684.46,-76.5C708.49,-76.5 733.74,-76.5 755.92,-76.5"/>
<polygon fill="#9a32cd" stroke="#9a32cd" points="684.25,-73 674.25,-76.5 684.25,-80 684.25,-73"/>
</a>
</g>
<text text-anchor="middle" x="715" y="-79.5" font-family="Helvetica,sans-Serif" font-size="10.00" fill="grey"> _tmm</text>
</g>
<!-- Node4 -->
<g id="Node000004" class="node">
<title>Node4</title>
<g id="a_Node000004"><a xlink:href="classpycanha_1_1SolverRegistry.html" target="_top" xlink:title=" ">
<polygon fill="white" stroke="#bfbfbf" points="342,-120 207,-120 207,-101 342,-101 342,-120"/>
<text text-anchor="middle" x="274.5" y="-108" font-family="Helvetica,sans-Serif" font-size="10.00">pycanha::SolverRegistry</text>
</a>
</g>
</g>
<!-- Node4&#45;&gt;Node3 -->
<g id="edge3_Node000003_Node000004" class="edge">
<title>Node4&#45;&gt;Node3</title>
<g id="a_edge3_Node000003_Node000004"><a xlink:title=" ">
<path fill="none" stroke="#9a32cd" stroke-dasharray="5,2" d="M352.25,-102.6C391.65,-98.5 440.4,-93.34 484,-88.5 489.82,-87.85 495.81,-87.18 501.86,-86.49"/>
<polygon fill="#9a32cd" stroke="#9a32cd" points="351.77,-99.13 342.19,-103.65 352.5,-106.1 351.77,-99.13"/>
</a>
</g>
<text text-anchor="middle" x="422" y="-104.5" font-family="Helvetica,sans-Serif" font-size="10.00" fill="grey"> _solvers</text>
</g>
<!-- Node5&#45;&gt;Node3 -->
<g id="edge5_Node000003_Node000005" class="edge">
<title>Node5&#45;&gt;Node3</title>
<g id="a_edge5_Node000003_Node000005"><a xlink:title=" ">
<path fill="none" stroke="#9a32cd" stroke-dasharray="5,2" d="M770.16,-65.08C759.57,-63.17 748.47,-61.49 738,-60.5 717.02,-58.51 694.4,-59.38 673.28,-61.5"/>
<polygon fill="#9a32cd" stroke="#9a32cd" points="769.62,-68.54 780.1,-66.96 770.93,-61.66 769.62,-68.54"/>
</a>
</g>
<text text-anchor="middle" x="715" y="-63.5" font-family="Helvetica,sans-Serif" font-size="10.00" fill="grey"> _entities</text>
</g>
<!-- Node6 -->
<g id="Node000006" class="node">
<title>Node6</title>
<g id="a_Node000006"><a xlink:href="classpycanha_1_1ThermalNetwork.html" target="_top" xlink:title=" ">
<polygon fill="white" stroke="#bfbfbf" points="147.5,-75 1.5,-75 1.5,-56 147.5,-56 147.5,-75"/>
<text text-anchor="middle" x="74.5" y="-63" font-family="Helvetica,sans-Serif" font-size="10.00">pycanha::ThermalNetwork</text>
</a>
</g>
</g>
<!-- Node6&#45;&gt;Node2 -->
<g id="edge7_Node000002_Node000006" class="edge">
<title>Node6&#45;&gt;Node2</title>
<g id="a_edge7_Node000002_Node000006"><a xlink:title=" ">
<path fill="none" stroke="#9a32cd" stroke-dasharray="5,2" d="M157.57,-55.97C181.18,-53.22 206.12,-50.33 226.8,-47.93"/>
<polygon fill="#9a32cd" stroke="#9a32cd" points="157.07,-52.5 147.54,-57.13 157.88,-59.45 157.07,-52.5"/>
</a>
</g>
<text text-anchor="middle" x="178" y="-58.5" font-family="Helvetica,sans-Serif" font-size="10.00" fill="grey"> tnw</text>
</g>
<!-- Node7 -->
<g id="Node000007" class="node">
<title>Node7</title>
<g id="a_Node000007"><a xlink:href="classpycanha_1_1CouplingMatrices.html" target="_top" xlink:title=" ">
<polygon fill="white" stroke="#bfbfbf" points="149,-30 0,-30 0,-11 149,-11 149,-30"/>
<text text-anchor="middle" x="74.5" y="-18" font-family="Helvetica,sans-Serif" font-size="10.00">pycanha::CouplingMatrices</text>
</a>
</g>
</g>
<!-- Node7&#45;&gt;Node2 -->
<g id="edge8_Node000002_Node000007" class="edge">
<title>Node7&#45;&gt;Node2</title>
<g id="a_edge8_Node000002_Node000007"><a xlink:title=" ">
<path fill="none" stroke="#9a32cd" stroke-dasharray="5,2" d="M159.25,-19.02C169.3,-19.49 179.4,-20.28 189,-21.5 207,-23.78 226.69,-28.54 242.53,-32.95"/>
<polygon fill="#9a32cd" stroke="#9a32cd" points="159.37,-15.52 149.24,-18.64 159.1,-22.51 159.37,-15.52"/>
</a>
</g>
<text text-anchor="middle" x="178" y="-35.5" font-family="Helvetica,sans-Serif" font-size="10.00" fill="grey"> ltcs</text>
<text text-anchor="middle" x="178" y="-24.5" font-family="Helvetica,sans-Serif" font-size="10.00" fill="grey">rtcs</text>
</g>
</g>
</svg>
