<?xml version="1.0" encoding="UTF-8" standalone="no"?>
<!DOCTYPE svg PUBLIC "-//W3C//DTD SVG 1.1//EN"
 "http://www.w3.org/Graphics/SVG/1.1/DTD/svg11.dtd">
<!-- Generated by graphviz version 2.43.0 (0)
 -->
<!-- Title: pycanha::CallbackContext Pages: 1 -->
<svg width="897pt" height="163pt"
 viewBox="0.00 0.00 897.00 163.00" xmlns="http://www.w3.org/2000/svg" xmlns:xlink="http://www.w3.org/1999/xlink">
<g id="graph0" class="graph" transform="scale(1 1) rotate(0) translate(4 159)">
<title>pycanha::CallbackContext</title>
<!-- Node1 -->
<g id="Node000001" class="node">
<title>Node1</title>
<g id="a_Node000001"><a xlink:title=" ">
<polygon fill="#999999" stroke="#666666" points="660,-138 516,-138 516,-119 660,-119 660,-138"/>
<text text-anchor="middle" x="588" y="-126" font-family="Helvetica,sans-Serif" font-size="10.00">pycanha::CallbackContext</text>
</a>
</g>
</g>
<!-- Node2 -->
<g id="Node000002" class="node">
<title>Node2</title>
<g id="a_Node000002"><a xlink:href="classpycanha_1_1ThermalModel.html" target="_top" xlink:title=" ">
<polygon fill="white" stroke="#bfbfbf" points="341.5,-155 207.5,-155 207.5,-136 341.5,-136 341.5,-155"/>
<text text-anchor="middle" x="274.5" y="-143" font-family="Helvetica,sans-Serif" font-size="10.00">pycanha::ThermalModel</text>
</a>
</g>
</g>
<!-- Node2&#45;&gt;Node1 -->
<g id="edge1_Node000001_Node000002" class="edge">
<title>Node2&#45;&gt;Node1</title>
<g id="a_edge1_Node000001_Node000002"><a xlink:title=" ">
<path fill="none" stroke="#9a32cd" stroke-dasharray="5,2" d="M351.69,-141.34C401.77,-138.61 466.86,-135.06 515.88,-132.38"/>
<polygon fill="#9a32cd" stroke="#9a32cd" points="351.36,-137.85 341.56,-141.89 351.74,-144.84 351.36,-137.85"/>
</a>
</g>
<text text-anchor="middle" x="422" y="-142.5" font-family="Helvetica,sans-Serif" font-size="10.00" fill="grey"> _tm</text>
</g>
<!-- Node3 -->
<g id="Node000003" class="node">
<title>Node3</title>
<g id="a_Node000003"><a xlink:href="classpycanha_1_1Solver.html" target="_top" xlink:title=" ">
<polygon fill="white" stroke="#bfbfbf" points="322,-87 227,-87 227,-68 322,-68 322,-87"/>
<text text-anchor="middle" x="274.5" y="-75" font-family="Helvetica,sans-Serif" font-size="10.00">pycanha::Solver</text>
</a>
</g>
</g>
<!-- Node3&#45;&gt;Node1 -->
<g id="edge2_Node000001_Node000003" class="edge">
<title>Node3&#45;&gt;Node1</title>
<g id="a_edge2_Node000001_Node000003"><a xlink:title=" ">
<path fill="none" stroke="#9a32cd" stroke-dasharray="5,2" d="M332.19,-86.78C387.95,-95.91 472.65,-109.78 528.89,-118.99"/>
<polygon fill="#9a32cd" stroke="#9a32cd" points="332.57,-83.3 322.13,-85.14 331.44,-90.21 332.57,-83.3"/>
</a>
</g>
<text text-anchor="middle" x="422" y="-113.5" font-family="Helvetica,sans-Serif" font-size="10.00" fill="grey"> _solver</text>
</g>
<!-- Node4 -->
<g id="Node000004" class="node">
<title>Node4</title>
<g id="a_Node000004"><a xlink:href="classpycanha_1_1ThermalMathematicalModel.html" target="_top" xlink:title=" ">
<polygon fill="white" stroke="#bfbfbf" points="674,-58.5 502,-58.5 502,-28.5 674,-28.5 674,-58.5"/>
<text text-anchor="start" x="510" y="-46.5" font-family="Helvetica,sans-Serif" font-size="10.00">pycanha::ThermalMathematical</text>
<text text-anchor="middle" x="588" y="-35.5" font-family="Helvetica,sans-Serif" font-size="10.00">Model</text>
</a>
</g>
</g>
<!-- Node3&#45;&gt;Node4 -->
<g id="edge5_Node000004_Node000003" class="edge">
<title>Node3&#45;&gt;Node4</title>
<g id="a_edge5_Node000004_Node000003"><a xlink:title=" ">
<path fill="none" stroke="#9a32cd" stroke-dasharray="5,2" d="M332.32,-71.67C374.26,-67.33 432.7,-61.19 484,-55.5 489.82,-54.85 495.81,-54.18 501.86,-53.49"/>
<polygon fill="#9a32cd" stroke="#9a32cd" points="331.89,-68.2 322.3,-72.71 332.61,-75.16 331.89,-68.2"/>
</a>
</g>
<text text-anchor="middle" x="422" y="-72.5" font-family="Helvetica,sans-Serif" font-size="10.00" fill="grey"> _current_callback_solver</text>
</g>
<!-- Node4&#45;&gt;Node3 -->
<g id="edge3_Node000003_Node000004" class="edge">
<title>Node4&#45;&gt;Node3</title>
<g id="a_edge3_Node000003_Node000004"><a xlink:title=" ">
<path fill="none" stroke="#9a32cd" stroke-dasharray="5,2" d="M491.71,-36.2C450.83,-35.05 402.74,-36.35 360,-44.5 336.33,-49.01 310.77,-59.92 294.03,-67.96"/>
<polygon fill="#9a32cd" stroke="#9a32cd" points="491.83,-39.7 501.94,-36.54 492.06,-32.71 491.83,-39.7"/>
</a>
</g>
<text text-anchor="middle" x="422" y="-47.5" font-family="Helvetica,sans-Serif" font-size="10.00" fill="grey"> tmm</text>
</g>
<!-- Node6 -->
<g id="Node000006" class="node">
<title>Node6</title>
<g id="a_Node000006"><a xlink:href="classpycanha_1_1EntitiesHelper.html" target="_top" xlink:title=" ">
<polygon fill="white" stroke="#bfbfbf" points="889,-53 756,-53 756,-34 889,-34 889,-53"/>
<text text-anchor="middle" x="822.5" y="-41" font-family="Helvetica,sans-Serif" font-size="10.00">pycanha::EntitiesHelper</text>
</a>
</g>
</g>
<!-- Node4&#45;&gt;Node6 -->
<g id="edge7_Node000006_Node000004" class="edge">
<title>Node4&#45;&gt;Node6</title>
<g id="a_edge7_Node000006_Node000004"><a xlink:title=" ">
<path fill="none" stroke="#9a32cd" stroke-dasharray="5,2" d="M684.46,-43.5C708.49,-43.5 733.74,-43.5 755.92,-43.5"/>
<polygon fill="#9a32cd" stroke="#9a32cd" points="684.25,-40 674.25,-43.5 684.25,-47 684.25,-40"/>
</a>
</g>
<text text-anchor="middle" x="715" y="-46.5" font-family="Helvetica,sans-Serif" font-size="10.00" fill="grey"> _tmm</text>
</g>
<!-- Node5 -->
<g id="Node000005" class="node">
<title>Node5</title>
<g id="a_Node000005"><a xlink:href="classpycanha_1_1SolverRegistry.html" target="_top" xlink:title=" ">
<polygon fill="white" stroke="#bfbfbf" points="342,-19 207,-19 207,0 342,0 342,-19"/>
<text text-anchor="middle" x="274.5" y="-7" font-family="Helvetica,sans-Serif" font-size="10.00">pycanha::SolverRegistry</text>
</a>
</g>
</g>
<!-- Node5&#45;&gt;Node4 -->
<g id="edge4_Node000004_Node000005" class="edge">
<title>Node5&#45;&gt;Node4</title>
<g id="a_edge4_Node000004_Node000005"><a xlink:title=" ">
<path fill="none" stroke="#9a32cd" stroke-dasharray="5,2" d="M352.5,-11.12C391.96,-12.66 440.7,-15.66 484,-21.5 497.05,-23.26 510.9,-25.77 524.08,-28.47"/>
<polygon fill="#9a32cd" stroke="#9a32cd" points="352.54,-7.62 342.42,-10.75 352.28,-14.62 352.54,-7.62"/>
</a>
</g>
<text text-anchor="middle" x="422" y="-24.5" font-family="Helvetica,sans-Serif" font-size="10.00" fill="grey"> _solvers</text>
</g>
<!-- Node6&#45;&gt;Node4 -->
<g id="edge6_Node000004_Node000006" class="edge">
<title>Node6&#45;&gt;Node4</title>
<g id="a_edge6_Node000004_Node000006"><a xlink:title=" ">
<path fill="none" stroke="#9a32cd" stroke-dasharray="5,2" d="M770.16,-32.08C759.57,-30.17 748.47,-28.49 738,-27.5 717.02,-25.51 694.4,-26.38 673.28,-28.5"/>
<polygon fill="#9a32cd" stroke="#9a32cd" points="769.62,-35.54 780.1,-33.96 770.93,-28.66 769.62,-35.54"/>
</a>
</g>
<text text-anchor="middle" x="715" y="-30.5" font-family="Helvetica,sans-Serif" font-size="10.00" fill="grey"> _entities</text>
</g>
<!-- Node7 -->
<g id="Node000007" class="node">
<title>Node7</title>
<g id="a_Node000007"><a xlink:href="classpycanha_1_1ThermalNetwork.html" target="_top" xlink:title=" ">
<polygon fill="white" stroke="#bfbfbf" points="147.5,-109 1.5,-109 1.5,-90 147.5,-90 147.5,-109"/>
<text text-anchor="middle" x="74.5" y="-97" font-family="Helvetica,sans-Serif" font-size="10.00">pycanha::ThermalNetwork</text>
</a>
</g>
</g>
<!-- Node7&#45;&gt;Node3 -->
<g id="edge8_Node000003_Node000007" class="edge">
<title>Node7&#45;&gt;Node3</title>
<g id="a_edge8_Node000003_Node000007"><a xlink:title=" ">
<path fill="none" stroke="#9a32cd" stroke-dasharray="5,2" d="M157.57,-90.38C181.18,-87.76 206.12,-84.99 226.8,-82.69"/>
<polygon fill="#9a32cd" stroke="#9a32cd" points="157.09,-86.91 147.54,-91.5 157.87,-93.87 157.09,-86.91"/>
</a>
</g>
<text text-anchor="middle" x="178" y="-92.5" font-family="Helvetica,sans-Serif" font-size="10.00" fill="grey"> tnw</text>
</g>
<!-- Node8 -->
<g id="Node000008" class="node">
<title>Node8</title>
<g id="a_Node000008"><a xlink:href="classpycanha_1_1CouplingMatrices.html" target="_top" xlink:title=" ">
<polygon fill="white" stroke="#bfbfbf" points="149,-64 0,-64 0,-45 149,-45 149,-64"/>
<text text-anchor="middle" x="74.5" y="-52" font-family="Helvetica,sans-Serif" font-size="10.00">pycanha::CouplingMatrices</text>
</a>
</g>
</g>
<!-- Node8&#45;&gt;Node3 -->
<g id="edge9_Node000003_Node000008" class="edge">
<title>Node8&#45;&gt;Node3</title>
<g id="a_edge9_Node000003_Node000008"><a xlink:title=" ">
<path fill="none" stroke="#9a32cd" stroke-dasharray="5,2" d="M159.21,-58.47C169.27,-59.3 179.38,-60.3 189,-61.5 202.04,-63.13 216.1,-65.53 228.93,-67.98"/>
<polygon fill="#9a32cd" stroke="#9a32cd" points="159.44,-54.98 149.2,-57.7 158.9,-61.95 159.44,-54.98"/>
</a>
</g>
<text text-anchor="middle" x="178" y="-75.5" font-family="Helvetica,sans-Serif" font-size="10.00" fill="grey"> ltcs</text>
<text text-anchor="middle" x="178" y="-64.5" font-family="Helvetica,sans-Serif" font-size="10.00" fill="grey">rtcs</text>
</g>
</g>
</svg>
