<?xml version="1.0" encoding="UTF-8" standalone="no"?>
<!DOCTYPE svg PUBLIC "-//W3C//DTD SVG 1.1//EN"
 "http://www.w3.org/Graphics/SVG/1.1/DTD/svg11.dtd">
<!-- Generated by graphviz version 2.43.0 (0)
 -->
<!-- Title: pycanha::gmm::GeometryGroup::iterate_geometry_meshed_items Pages: 1 -->
<svg width="637pt" height="38pt"
 viewBox="0.00 0.00 637.00 38.00" xmlns="http://www.w3.org/2000/svg" xmlns:xlink="http://www.w3.org/1999/xlink">
<g id="graph0" class="graph" transform="scale(1 1) rotate(0) translate(4 34)">
<title>pycanha::gmm::GeometryGroup::iterate_geometry_meshed_items</title>
<!-- Node1 -->
<g id="Node000001" class="node">
<title>Node1</title>
<g id="a_Node000001"><a xlink:title="Recursively iterates over all GeometryMeshedItem in the GeometryGroup. Skips recursive GeometryGroupC...">
<polygon fill="#999999" stroke="#666666" points="185,-30 0,-30 0,0 185,0 185,-30"/>
<text text-anchor="start" x="8" y="-18" font-family="Helvetica,sans-Serif" font-size="10.00">pycanha::gmm::GeometryGroup</text>
<text text-anchor="middle" x="92.5" y="-7" font-family="Helvetica,sans-Serif" font-size="10.00">::iterate_geometry_meshed_items</text>
</a>
</g>
</g>
<!-- Node2 -->
<g id="Node000002" class="node">
<title>Node2</title>
<g id="a_Node000002"><a xlink:href="classpycanha_1_1gmm_1_1CoordinateTransformation.html#a2223d8c13985136ad110d1cb4126f9d9" target="_top" xlink:title="Creates a new transformation equivalent to applying other and then this.">
<polygon fill="white" stroke="#666666" points="370,-30 221,-30 221,0 370,0 370,-30"/>
<text text-anchor="start" x="229" y="-18" font-family="Helvetica,sans-Serif" font-size="10.00">pycanha::gmm::Coordinate</text>
<text text-anchor="middle" x="295.5" y="-7" font-family="Helvetica,sans-Serif" font-size="10.00">Transformation::chain</text>
</a>
</g>
</g>
<!-- Node1&#45;&gt;Node2 -->
<g id="edge1_Node000001_Node000002" class="edge">
<title>Node1&#45;&gt;Node2</title>
<g id="a_edge1_Node000001_Node000002"><a xlink:title=" ">
<path fill="none" stroke="#63b8ff" d="M185.18,-15C193.64,-15 202.19,-15 210.58,-15"/>
<polygon fill="#63b8ff" stroke="#63b8ff" points="210.72,-18.5 220.72,-15 210.72,-11.5 210.72,-18.5"/>
</a>
</g>
</g>
<!-- Node3 -->
<g id="Node000003" class="node">
<title>Node3</title>
<g id="a_Node000003"><a xlink:href="classpycanha_1_1gmm_1_1CoordinateTransformation.html#adb564610750eb3d80d29e8a4de0d7aae" target="_top" xlink:title="Default constructor for CoordinateTransformation class.">
<polygon fill="white" stroke="#666666" points="629,-30 406,-30 406,0 629,0 629,-30"/>
<text text-anchor="start" x="414" y="-18" font-family="Helvetica,sans-Serif" font-size="10.00">pycanha::gmm::Coordinate</text>
<text text-anchor="middle" x="517.5" y="-7" font-family="Helvetica,sans-Serif" font-size="10.00">Transformation::CoordinateTransformation</text>
</a>
</g>
</g>
<!-- Node2&#45;&gt;Node3 -->
<g id="edge2_Node000002_Node000003" class="edge">
<title>Node2&#45;&gt;Node3</title>
<g id="a_edge2_Node000002_Node000003"><a xlink:title=" ">
<path fill="none" stroke="#63b8ff" d="M370.06,-15C378.32,-15 386.89,-15 395.55,-15"/>
<polygon fill="#63b8ff" stroke="#63b8ff" points="395.75,-18.5 405.75,-15 395.75,-11.5 395.75,-18.5"/>
</a>
</g>
</g>
</g>
</svg>
