<?xml version="1.0" encoding="UTF-8" standalone="no"?>
<!DOCTYPE svg PUBLIC "-//W3C//DTD SVG 1.1//EN"
 "http://www.w3.org/Graphics/SVG/1.1/DTD/svg11.dtd">
<!-- Generated by graphviz version 2.43.0 (0)
 -->
<!-- Title: pycanha::gmm::Rectangle::create_mesh Pages: 1 -->
<svg width="530pt" height="501pt"
 viewBox="0.00 0.00 530.00 501.43" xmlns="http://www.w3.org/2000/svg" xmlns:xlink="http://www.w3.org/1999/xlink">
<g id="graph0" class="graph" transform="scale(1 1) rotate(0) translate(4 497.43)">
<title>pycanha::gmm::Rectangle::create_mesh</title>
<!-- Node1 -->
<g id="node1" class="node">
<title>Node1</title>
<g id="a_node1"><a xlink:title="Creates the triangular mesh from the primitive.">
<polygon fill="#bfbfbf" stroke="black" points="0,-245.5 0,-275.5 144,-275.5 144,-245.5 0,-245.5"/>
<text text-anchor="start" x="8" y="-263.5" font-family="Helvetica,sans-Serif" font-size="10.00">pycanha::gmm::Rectangle</text>
<text text-anchor="middle" x="72" y="-252.5" font-family="Helvetica,sans-Serif" font-size="10.00">::create_mesh</text>
</a>
</g>
</g>
<!-- Node2 -->
<g id="node2" class="node">
<title>Node2</title>
<g id="a_node2"><a xlink:href="classpycanha_1_1gmm_1_1Rectangle.html#aecc55306d3bbe8195520eef33990cdc5" target="_top" xlink:title="3D coordinates of a point ON the primitive surface from 2D coordinates. Note: The method is not valid...">
<polygon fill="none" stroke="black" points="180,-382.5 180,-412.5 324,-412.5 324,-382.5 180,-382.5"/>
<text text-anchor="start" x="188" y="-400.5" font-family="Helvetica,sans-Serif" font-size="10.00">pycanha::gmm::Rectangle</text>
<text text-anchor="middle" x="252" y="-389.5" font-family="Helvetica,sans-Serif" font-size="10.00">::from_2d_to_3d</text>
</a>
</g>
</g>
<!-- Node1&#45;&gt;Node2 -->
<g id="edge1" class="edge">
<title>Node1&#45;&gt;Node2</title>
<path fill="none" stroke="midnightblue" d="M85.01,-275.83C103.4,-298.45 140.56,-340.94 180,-367.5 185.74,-371.37 192.06,-374.9 198.49,-378.07"/>
<polygon fill="midnightblue" stroke="midnightblue" points="197.4,-381.41 207.94,-382.45 200.35,-375.07 197.4,-381.41"/>
</g>
<!-- Node3 -->
<g id="node3" class="node">
<title>Node3</title>
<g id="a_node3"><a xlink:href="classpycanha_1_1gmm_1_1Rectangle.html#a7f0930c0081f540f3b7efd6543e151a0" target="_top" xlink:title="Returns the first direction v1 = p2 &#45; p1.">
<polygon fill="none" stroke="black" points="360,-437 360,-456 522,-456 522,-437 360,-437"/>
<text text-anchor="middle" x="441" y="-444" font-family="Helvetica,sans-Serif" font-size="10.00">pycanha::gmm::Rectangle::v1</text>
</a>
</g>
</g>
<!-- Node1&#45;&gt;Node3 -->
<g id="edge14" class="edge">
<title>Node1&#45;&gt;Node3</title>
<path fill="none" stroke="midnightblue" d="M75.25,-275.55C82.18,-315.98 107.38,-426.9 180,-471.5 252.82,-516.22 359.31,-481.56 410.45,-460.15"/>
<polygon fill="midnightblue" stroke="midnightblue" points="412.11,-463.24 419.91,-456.07 409.34,-456.81 412.11,-463.24"/>
</g>
<!-- Node4 -->
<g id="node4" class="node">
<title>Node4</title>
<g id="a_node4"><a xlink:href="classpycanha_1_1gmm_1_1Rectangle.html#af00e73251e4ccf0cec5e645aee3f22e1" target="_top" xlink:title="Returns the second direction v2 = p3 &#45; p1.">
<polygon fill="none" stroke="black" points="360,-388 360,-407 522,-407 522,-388 360,-388"/>
<text text-anchor="middle" x="441" y="-395" font-family="Helvetica,sans-Serif" font-size="10.00">pycanha::gmm::Rectangle::v2</text>
</a>
</g>
</g>
<!-- Node1&#45;&gt;Node4 -->
<g id="edge15" class="edge">
<title>Node1&#45;&gt;Node4</title>
<path fill="none" stroke="midnightblue" d="M90.74,-275.58C111.04,-292.1 145.92,-318.28 180,-333.5 198.91,-341.95 317.52,-369.65 387.84,-385.71"/>
<polygon fill="midnightblue" stroke="midnightblue" points="387.31,-389.18 397.84,-387.99 388.87,-382.35 387.31,-389.18"/>
</g>
<!-- Node5 -->
<g id="node5" class="node">
<title>Node5</title>
<g id="a_node5"><a xlink:href="classpycanha_1_1gmm_1_1TriMesh.html#a81f6628b978aaeac9d36fafc63e0eead" target="_top" xlink:title="Get face ids vector.">
<polygon fill="none" stroke="black" points="185.5,-294.5 185.5,-324.5 318.5,-324.5 318.5,-294.5 185.5,-294.5"/>
<text text-anchor="start" x="193.5" y="-312.5" font-family="Helvetica,sans-Serif" font-size="10.00">pycanha::gmm::TriMesh</text>
<text text-anchor="middle" x="252" y="-301.5" font-family="Helvetica,sans-Serif" font-size="10.00">::get_face_ids</text>
</a>
</g>
</g>
<!-- Node1&#45;&gt;Node5 -->
<g id="edge4" class="edge">
<title>Node1&#45;&gt;Node5</title>
<path fill="none" stroke="midnightblue" d="M127.86,-275.6C146.39,-280.7 167.24,-286.44 186.45,-291.73"/>
<polygon fill="midnightblue" stroke="midnightblue" points="185.75,-295.17 196.32,-294.45 187.61,-288.42 185.75,-295.17"/>
</g>
<!-- Node6 -->
<g id="node6" class="node">
<title>Node6</title>
<g id="a_node6"><a xlink:href="classpycanha_1_1gmm_1_1Rectangle.html#a1581e1d4cedcbe733e2e9d6ff9ca01e4" target="_top" xlink:title="Returns the ID of the face in the thermal mesh that contains the given UV coordinates....">
<polygon fill="none" stroke="black" points="180,-431.5 180,-461.5 324,-461.5 324,-431.5 180,-431.5"/>
<text text-anchor="start" x="188" y="-449.5" font-family="Helvetica,sans-Serif" font-size="10.00">pycanha::gmm::Rectangle</text>
<text text-anchor="middle" x="252" y="-438.5" font-family="Helvetica,sans-Serif" font-size="10.00">::get_faceid_from_uv</text>
</a>
</g>
</g>
<!-- Node1&#45;&gt;Node6 -->
<g id="edge5" class="edge">
<title>Node1&#45;&gt;Node6</title>
<path fill="none" stroke="midnightblue" d="M79.05,-275.89C92.39,-307.89 127.4,-381.97 180,-422.5 181.8,-423.89 183.69,-425.2 185.64,-426.43"/>
<polygon fill="midnightblue" stroke="midnightblue" points="184.1,-429.59 194.54,-431.4 187.51,-423.47 184.1,-429.59"/>
</g>
<!-- Node7 -->
<g id="node7" class="node">
<title>Node7</title>
<g id="a_node7"><a xlink:href="classpycanha_1_1gmm_1_1Color.html#a6b0ff80336dd7c71b042dd65fb5534da" target="_top" xlink:title="Get the RGB values.">
<polygon fill="none" stroke="black" points="191.5,-245.5 191.5,-275.5 312.5,-275.5 312.5,-245.5 191.5,-245.5"/>
<text text-anchor="start" x="199.5" y="-263.5" font-family="Helvetica,sans-Serif" font-size="10.00">pycanha::gmm::Color</text>
<text text-anchor="middle" x="252" y="-252.5" font-family="Helvetica,sans-Serif" font-size="10.00">::get_rgb</text>
</a>
</g>
</g>
<!-- Node1&#45;&gt;Node7 -->
<g id="edge8" class="edge">
<title>Node1&#45;&gt;Node7</title>
<path fill="none" stroke="midnightblue" d="M144.12,-260.5C156.37,-260.5 169.1,-260.5 181.32,-260.5"/>
<polygon fill="midnightblue" stroke="midnightblue" points="181.44,-264 191.44,-260.5 181.44,-257 181.44,-264"/>
</g>
<!-- Node8 -->
<g id="node8" class="node">
<title>Node8</title>
<g id="a_node8"><a xlink:href="classpycanha_1_1gmm_1_1TriMesh.html#a113cdc2728d6b47e8841ef9732ebd9b2" target="_top" xlink:title="Get triangles matrix.">
<polygon fill="none" stroke="black" points="185.5,-196.5 185.5,-226.5 318.5,-226.5 318.5,-196.5 185.5,-196.5"/>
<text text-anchor="start" x="193.5" y="-214.5" font-family="Helvetica,sans-Serif" font-size="10.00">pycanha::gmm::TriMesh</text>
<text text-anchor="middle" x="252" y="-203.5" font-family="Helvetica,sans-Serif" font-size="10.00">::get_triangles</text>
</a>
</g>
</g>
<!-- Node1&#45;&gt;Node8 -->
<g id="edge9" class="edge">
<title>Node1&#45;&gt;Node8</title>
<path fill="none" stroke="midnightblue" d="M127.86,-245.4C146.39,-240.3 167.24,-234.56 186.45,-229.27"/>
<polygon fill="midnightblue" stroke="midnightblue" points="187.61,-232.58 196.32,-226.55 185.75,-225.83 187.61,-232.58"/>
</g>
<!-- Node9 -->
<g id="node9" class="node">
<title>Node9</title>
<g id="a_node9"><a xlink:href="classpycanha_1_1gmm_1_1TriMesh.html#a5e7a2cc9ec97ba48a13277d2c391e928" target="_top" xlink:title="Get vertices matrix.">
<polygon fill="none" stroke="black" points="185.5,-147.5 185.5,-177.5 318.5,-177.5 318.5,-147.5 185.5,-147.5"/>
<text text-anchor="start" x="193.5" y="-165.5" font-family="Helvetica,sans-Serif" font-size="10.00">pycanha::gmm::TriMesh</text>
<text text-anchor="middle" x="252" y="-154.5" font-family="Helvetica,sans-Serif" font-size="10.00">::get_vertices</text>
</a>
</g>
</g>
<!-- Node1&#45;&gt;Node9 -->
<g id="edge10" class="edge">
<title>Node1&#45;&gt;Node9</title>
<path fill="none" stroke="midnightblue" d="M91.33,-245.44C111.87,-229.13 146.7,-203.23 180,-186.5 183.56,-184.71 187.29,-183.01 191.08,-181.39"/>
<polygon fill="midnightblue" stroke="midnightblue" points="192.65,-184.54 200.63,-177.57 190.04,-178.04 192.65,-184.54"/>
</g>
<!-- Node10 -->
<g id="node10" class="node">
<title>Node10</title>
<g id="a_node10"><a xlink:href="classpycanha_1_1gmm_1_1TriMesh.html#a27e1232524b78c47b58b8d4d45d8172d" target="_top" xlink:title="Set the surface 1 color.">
<polygon fill="none" stroke="black" points="185.5,-98.5 185.5,-128.5 318.5,-128.5 318.5,-98.5 185.5,-98.5"/>
<text text-anchor="start" x="193.5" y="-116.5" font-family="Helvetica,sans-Serif" font-size="10.00">pycanha::gmm::TriMesh</text>
<text text-anchor="middle" x="252" y="-105.5" font-family="Helvetica,sans-Serif" font-size="10.00">::set_surface1_color</text>
</a>
</g>
</g>
<!-- Node1&#45;&gt;Node10 -->
<g id="edge11" class="edge">
<title>Node1&#45;&gt;Node10</title>
<path fill="none" stroke="midnightblue" d="M82.28,-245.35C98.81,-219.57 135.8,-167.12 180,-137.5 182.38,-135.9 184.88,-134.41 187.45,-133"/>
<polygon fill="midnightblue" stroke="midnightblue" points="189.03,-136.12 196.46,-128.56 185.94,-129.84 189.03,-136.12"/>
</g>
<!-- Node11 -->
<g id="node11" class="node">
<title>Node11</title>
<g id="a_node11"><a xlink:href="classpycanha_1_1gmm_1_1TriMesh.html#a331d5c97a882188d4454694b4a2a4af9" target="_top" xlink:title="Set the surface 2 color.">
<polygon fill="none" stroke="black" points="185.5,-49.5 185.5,-79.5 318.5,-79.5 318.5,-49.5 185.5,-49.5"/>
<text text-anchor="start" x="193.5" y="-67.5" font-family="Helvetica,sans-Serif" font-size="10.00">pycanha::gmm::TriMesh</text>
<text text-anchor="middle" x="252" y="-56.5" font-family="Helvetica,sans-Serif" font-size="10.00">::set_surface2_color</text>
</a>
</g>
</g>
<!-- Node1&#45;&gt;Node11 -->
<g id="edge12" class="edge">
<title>Node1&#45;&gt;Node11</title>
<path fill="none" stroke="midnightblue" d="M78.3,-245.43C90.75,-212.19 125.01,-132.08 180,-88.5 181.61,-87.23 183.28,-86.02 185.02,-84.88"/>
<polygon fill="midnightblue" stroke="midnightblue" points="187.16,-87.68 194.08,-79.66 183.67,-81.61 187.16,-87.68"/>
</g>
<!-- Node12 -->
<g id="node12" class="node">
<title>Node12</title>
<g id="a_node12"><a xlink:href="classpycanha_1_1gmm_1_1TriMesh.html#a7f0a8a501de5c2d065f71e164b956b39" target="_top" xlink:title="Sort the triangles according to the face ids.">
<polygon fill="none" stroke="black" points="185.5,-0.5 185.5,-30.5 318.5,-30.5 318.5,-0.5 185.5,-0.5"/>
<text text-anchor="start" x="193.5" y="-18.5" font-family="Helvetica,sans-Serif" font-size="10.00">pycanha::gmm::TriMesh</text>
<text text-anchor="middle" x="252" y="-7.5" font-family="Helvetica,sans-Serif" font-size="10.00">::sort_triangles</text>
</a>
</g>
</g>
<!-- Node1&#45;&gt;Node12 -->
<g id="edge13" class="edge">
<title>Node1&#45;&gt;Node12</title>
<path fill="none" stroke="midnightblue" d="M76.05,-245.44C84.85,-205.82 113.99,-97.74 180,-39.5 181.34,-38.32 182.74,-37.19 184.2,-36.12"/>
<polygon fill="midnightblue" stroke="midnightblue" points="186.4,-38.87 192.99,-30.57 182.67,-32.95 186.4,-38.87"/>
</g>
<!-- Node2&#45;&gt;Node3 -->
<g id="edge2" class="edge">
<title>Node2&#45;&gt;Node3</title>
<path fill="none" stroke="midnightblue" d="M310.38,-412.53C337.2,-419.56 368.71,-427.82 393.95,-434.43"/>
<polygon fill="midnightblue" stroke="midnightblue" points="393.08,-437.82 403.64,-436.97 394.85,-431.05 393.08,-437.82"/>
</g>
<!-- Node2&#45;&gt;Node4 -->
<g id="edge3" class="edge">
<title>Node2&#45;&gt;Node4</title>
<path fill="none" stroke="midnightblue" d="M324.23,-397.5C332.61,-397.5 341.25,-397.5 349.85,-397.5"/>
<polygon fill="midnightblue" stroke="midnightblue" points="349.91,-401 359.91,-397.5 349.91,-394 349.91,-401"/>
</g>
<!-- Node6&#45;&gt;Node3 -->
<g id="edge6" class="edge">
<title>Node6&#45;&gt;Node3</title>
<path fill="none" stroke="midnightblue" d="M324.23,-446.5C332.61,-446.5 341.25,-446.5 349.85,-446.5"/>
<polygon fill="midnightblue" stroke="midnightblue" points="349.91,-450 359.91,-446.5 349.91,-443 349.91,-450"/>
</g>
<!-- Node6&#45;&gt;Node4 -->
<g id="edge7" class="edge">
<title>Node6&#45;&gt;Node4</title>
<path fill="none" stroke="midnightblue" d="M310.38,-431.47C337.2,-424.44 368.71,-416.18 393.95,-409.57"/>
<polygon fill="midnightblue" stroke="midnightblue" points="394.85,-412.95 403.64,-407.03 393.08,-406.18 394.85,-412.95"/>
</g>
</g>
</svg>
