<?xml version="1.0" encoding="UTF-8" standalone="no"?>
<!DOCTYPE svg PUBLIC "-//W3C//DTD SVG 1.1//EN"
 "http://www.w3.org/Graphics/SVG/1.1/DTD/svg11.dtd">
<!-- Generated by graphviz version 2.43.0 (0)
 -->
<!-- Title: pycanha::TimeVariable Pages: 1 -->
<svg width="282pt" height="93pt"
 viewBox="0.00 0.00 282.00 93.00" xmlns="http://www.w3.org/2000/svg" xmlns:xlink="http://www.w3.org/1999/xlink">
<g id="graph0" class="graph" transform="scale(1 1) rotate(0) translate(4 89)">
<title>pycanha::TimeVariable</title>
<!-- Node1 -->
<g id="Node000001" class="node">
<title>Node1</title>
<g id="a_Node000001"><a xlink:title=" ">
<polygon fill="#999999" stroke="#666666" points="196.5,-19 68.5,-19 68.5,0 196.5,0 196.5,-19"/>
<text text-anchor="middle" x="132.5" y="-7" font-family="Helvetica,sans-Serif" font-size="10.00">pycanha::TimeVariable</text>
</a>
</g>
</g>
<!-- Node2 -->
<g id="Node000002" class="node">
<title>Node2</title>
<g id="a_Node000002"><a xlink:href="classpycanha_1_1Parameters.html" target="_top" xlink:title=" ">
<polygon fill="white" stroke="#bfbfbf" points="119,-85 0,-85 0,-66 119,-66 119,-85"/>
<text text-anchor="middle" x="59.5" y="-73" font-family="Helvetica,sans-Serif" font-size="10.00">pycanha::Parameters</text>
</a>
</g>
</g>
<!-- Node2&#45;&gt;Node1 -->
<g id="edge1_Node000001_Node000002" class="edge">
<title>Node2&#45;&gt;Node1</title>
<g id="a_edge1_Node000001_Node000002"><a xlink:title=" ">
<path fill="none" stroke="#9a32cd" stroke-dasharray="5,2" d="M76.98,-59.18C91.14,-46.76 110.62,-29.68 122.34,-19.41"/>
<polygon fill="#9a32cd" stroke="#9a32cd" points="74.56,-56.64 69.35,-65.87 79.17,-61.91 74.56,-56.64"/>
</a>
</g>
<text text-anchor="middle" x="133" y="-40" font-family="Helvetica,sans-Serif" font-size="10.00" fill="grey"> _parameters</text>
</g>
<!-- Node3 -->
<g id="Node000003" class="node">
<title>Node3</title>
<g id="a_Node000003"><a xlink:href="classpycanha_1_1LookupTable1D.html" target="_top" xlink:title=" ">
<polygon fill="white" stroke="#bfbfbf" points="274,-85 137,-85 137,-66 274,-66 274,-85"/>
<text text-anchor="middle" x="205.5" y="-73" font-family="Helvetica,sans-Serif" font-size="10.00">pycanha::LookupTable1D</text>
</a>
</g>
</g>
<!-- Node3&#45;&gt;Node1 -->
<g id="edge2_Node000001_Node000003" class="edge">
<title>Node3&#45;&gt;Node1</title>
<g id="a_edge2_Node000001_Node000003"><a xlink:title=" ">
<path fill="none" stroke="#9a32cd" stroke-dasharray="5,2" d="M191.17,-58.29C184.8,-51.43 177.05,-43.54 169.5,-37 161.97,-30.48 152.89,-23.96 145.61,-19.02"/>
<polygon fill="#9a32cd" stroke="#9a32cd" points="188.6,-60.67 197.91,-65.72 193.78,-55.96 188.6,-60.67"/>
</a>
</g>
<text text-anchor="middle" x="216" y="-40" font-family="Helvetica,sans-Serif" font-size="10.00" fill="grey"> _lookup_table</text>
</g>
</g>
</svg>
