<?xml version="1.0" encoding="UTF-8" standalone="no"?>
<!DOCTYPE svg PUBLIC "-//W3C//DTD SVG 1.1//EN"
 "http://www.w3.org/Graphics/SVG/1.1/DTD/svg11.dtd">
<!-- Generated by graphviz version 2.43.0 (0)
 -->
<!-- Title: pycanha::gmm::Rectangle::create_mesh Pages: 1 -->
<svg width="530pt" height="491pt"
 viewBox="0.00 0.00 530.00 490.86" xmlns="http://www.w3.org/2000/svg" xmlns:xlink="http://www.w3.org/1999/xlink">
<g id="graph0" class="graph" transform="scale(1 1) rotate(0) translate(4 486.86)">
<title>pycanha::gmm::Rectangle::create_mesh</title>
<!-- Node1 -->
<g id="Node000001" class="node">
<title>Node1</title>
<g id="a_Node000001"><a xlink:title="Creates the triangular mesh from the primitive.">
<polygon fill="#999999" stroke="#666666" points="144,-270 0,-270 0,-240 144,-240 144,-270"/>
<text text-anchor="start" x="8" y="-258" font-family="Helvetica,sans-Serif" font-size="10.00">pycanha::gmm::Rectangle</text>
<text text-anchor="middle" x="72" y="-247" font-family="Helvetica,sans-Serif" font-size="10.00">::create_mesh</text>
</a>
</g>
</g>
<!-- Node2 -->
<g id="Node000002" class="node">
<title>Node2</title>
<g id="a_Node000002"><a xlink:href="classpycanha_1_1gmm_1_1Rectangle.html#aecc55306d3bbe8195520eef33990cdc5" target="_top" xlink:title="3D coordinates of a point ON the primitive surface from 2D coordinates. Note: The method is not valid...">
<polygon fill="white" stroke="#666666" points="324,-404 180,-404 180,-374 324,-374 324,-404"/>
<text text-anchor="start" x="188" y="-392" font-family="Helvetica,sans-Serif" font-size="10.00">pycanha::gmm::Rectangle</text>
<text text-anchor="middle" x="252" y="-381" font-family="Helvetica,sans-Serif" font-size="10.00">::from_2d_to_3d</text>
</a>
</g>
</g>
<!-- Node1&#45;&gt;Node2 -->
<g id="edge1_Node000001_Node000002" class="edge">
<title>Node1&#45;&gt;Node2</title>
<g id="a_edge1_Node000001_Node000002"><a xlink:title=" ">
<path fill="none" stroke="#63b8ff" d="M85.04,-270.09C103.45,-292.34 140.64,-334.11 180,-360 185.33,-363.51 191.15,-366.71 197.09,-369.62"/>
<polygon fill="#63b8ff" stroke="#63b8ff" points="195.93,-372.93 206.48,-373.92 198.84,-366.57 195.93,-372.93"/>
</a>
</g>
</g>
<!-- Node3 -->
<g id="Node000003" class="node">
<title>Node3</title>
<g id="a_Node000003"><a xlink:href="classpycanha_1_1gmm_1_1Rectangle.html#a7f0930c0081f540f3b7efd6543e151a0" target="_top" xlink:title="Returns the first direction v1 = p2 &#45; p1.">
<polygon fill="white" stroke="#666666" points="522,-446.5 360,-446.5 360,-427.5 522,-427.5 522,-446.5"/>
<text text-anchor="middle" x="441" y="-434.5" font-family="Helvetica,sans-Serif" font-size="10.00">pycanha::gmm::Rectangle::v1</text>
</a>
</g>
</g>
<!-- Node1&#45;&gt;Node3 -->
<g id="edge14_Node000001_Node000003" class="edge">
<title>Node1&#45;&gt;Node3</title>
<g id="a_edge14_Node000001_Node000003"><a xlink:title=" ">
<path fill="none" stroke="#63b8ff" d="M75.48,-270.28C82.87,-310.25 108.87,-417.8 180,-461 252.83,-505.24 358.88,-471.57 410.1,-450.56"/>
<polygon fill="#63b8ff" stroke="#63b8ff" points="411.74,-453.66 419.59,-446.55 409.02,-447.22 411.74,-453.66"/>
</a>
</g>
</g>
<!-- Node4 -->
<g id="Node000004" class="node">
<title>Node4</title>
<g id="a_Node000004"><a xlink:href="classpycanha_1_1gmm_1_1Rectangle.html#af00e73251e4ccf0cec5e645aee3f22e1" target="_top" xlink:title="Returns the second direction v2 = p3 &#45; p1.">
<polygon fill="white" stroke="#666666" points="522,-398.5 360,-398.5 360,-379.5 522,-379.5 522,-398.5"/>
<text text-anchor="middle" x="441" y="-386.5" font-family="Helvetica,sans-Serif" font-size="10.00">pycanha::gmm::Rectangle::v2</text>
</a>
</g>
</g>
<!-- Node1&#45;&gt;Node4 -->
<g id="edge15_Node000001_Node000004" class="edge">
<title>Node1&#45;&gt;Node4</title>
<g id="a_edge15_Node000001_Node000004"><a xlink:title=" ">
<path fill="none" stroke="#63b8ff" d="M91.12,-270.2C111.5,-286.54 146.16,-312.17 180,-327 198.79,-335.24 315.64,-361.67 386.14,-377.24"/>
<polygon fill="#63b8ff" stroke="#63b8ff" points="385.67,-380.72 396.19,-379.45 387.18,-373.88 385.67,-380.72"/>
</a>
</g>
</g>
<!-- Node5 -->
<g id="Node000005" class="node">
<title>Node5</title>
<g id="a_Node000005"><a xlink:href="classpycanha_1_1gmm_1_1TriMesh.html#a719e49a87330de4cc80fe24f8d871d77" target="_top" xlink:title="Get face ids vector.">
<polygon fill="white" stroke="#666666" points="318.5,-318 185.5,-318 185.5,-288 318.5,-288 318.5,-318"/>
<text text-anchor="start" x="193.5" y="-306" font-family="Helvetica,sans-Serif" font-size="10.00">pycanha::gmm::TriMesh</text>
<text text-anchor="middle" x="252" y="-295" font-family="Helvetica,sans-Serif" font-size="10.00">::get_face_ids</text>
</a>
</g>
</g>
<!-- Node1&#45;&gt;Node5 -->
<g id="edge4_Node000001_Node000005" class="edge">
<title>Node1&#45;&gt;Node5</title>
<g id="a_edge4_Node000001_Node000005"><a xlink:title=" ">
<path fill="none" stroke="#63b8ff" d="M128.83,-270.06C146.81,-274.9 166.89,-280.32 185.5,-285.34"/>
<polygon fill="#63b8ff" stroke="#63b8ff" points="184.8,-288.77 195.37,-288 186.62,-282.01 184.8,-288.77"/>
</a>
</g>
</g>
<!-- Node6 -->
<g id="Node000006" class="node">
<title>Node6</title>
<g id="a_Node000006"><a xlink:href="classpycanha_1_1gmm_1_1Rectangle.html#a1581e1d4cedcbe733e2e9d6ff9ca01e4" target="_top" xlink:title="Returns the ID of the face in the thermal mesh that contains the given UV coordinates....">
<polygon fill="white" stroke="#666666" points="324,-452 180,-452 180,-422 324,-422 324,-452"/>
<text text-anchor="start" x="188" y="-440" font-family="Helvetica,sans-Serif" font-size="10.00">pycanha::gmm::Rectangle</text>
<text text-anchor="middle" x="252" y="-429" font-family="Helvetica,sans-Serif" font-size="10.00">::get_faceid_from_uv</text>
</a>
</g>
</g>
<!-- Node1&#45;&gt;Node6 -->
<g id="edge5_Node000001_Node000006" class="edge">
<title>Node1&#45;&gt;Node6</title>
<g id="a_edge5_Node000001_Node000006"><a xlink:title=" ">
<path fill="none" stroke="#63b8ff" d="M79.16,-270.01C92.7,-301.21 128.07,-373.46 180,-413 181.81,-414.38 183.7,-415.68 185.66,-416.91"/>
<polygon fill="#63b8ff" stroke="#63b8ff" points="184.14,-420.07 194.58,-421.84 187.53,-413.94 184.14,-420.07"/>
</a>
</g>
</g>
<!-- Node7 -->
<g id="Node000007" class="node">
<title>Node7</title>
<g id="a_Node000007"><a xlink:href="classpycanha_1_1gmm_1_1Color.html#a6b0ff80336dd7c71b042dd65fb5534da" target="_top" xlink:title="Get the RGB values.">
<polygon fill="white" stroke="#666666" points="312.5,-270 191.5,-270 191.5,-240 312.5,-240 312.5,-270"/>
<text text-anchor="start" x="199.5" y="-258" font-family="Helvetica,sans-Serif" font-size="10.00">pycanha::gmm::Color</text>
<text text-anchor="middle" x="252" y="-247" font-family="Helvetica,sans-Serif" font-size="10.00">::get_rgb</text>
</a>
</g>
</g>
<!-- Node1&#45;&gt;Node7 -->
<g id="edge8_Node000001_Node000007" class="edge">
<title>Node1&#45;&gt;Node7</title>
<g id="a_edge8_Node000001_Node000007"><a xlink:title=" ">
<path fill="none" stroke="#63b8ff" d="M144.12,-255C156.37,-255 169.1,-255 181.32,-255"/>
<polygon fill="#63b8ff" stroke="#63b8ff" points="181.44,-258.5 191.44,-255 181.44,-251.5 181.44,-258.5"/>
</a>
</g>
</g>
<!-- Node8 -->
<g id="Node000008" class="node">
<title>Node8</title>
<g id="a_Node000008"><a xlink:href="classpycanha_1_1gmm_1_1TriMesh.html#aa20d192b636f4453f79d6fd4a3aafcd4" target="_top" xlink:title="Get triangles matrix.">
<polygon fill="white" stroke="#666666" points="318.5,-222 185.5,-222 185.5,-192 318.5,-192 318.5,-222"/>
<text text-anchor="start" x="193.5" y="-210" font-family="Helvetica,sans-Serif" font-size="10.00">pycanha::gmm::TriMesh</text>
<text text-anchor="middle" x="252" y="-199" font-family="Helvetica,sans-Serif" font-size="10.00">::get_triangles</text>
</a>
</g>
</g>
<!-- Node1&#45;&gt;Node8 -->
<g id="edge9_Node000001_Node000008" class="edge">
<title>Node1&#45;&gt;Node8</title>
<g id="a_edge9_Node000001_Node000008"><a xlink:title=" ">
<path fill="none" stroke="#63b8ff" d="M128.83,-239.94C146.81,-235.1 166.89,-229.68 185.5,-224.66"/>
<polygon fill="#63b8ff" stroke="#63b8ff" points="186.62,-227.99 195.37,-222 184.8,-221.23 186.62,-227.99"/>
</a>
</g>
</g>
<!-- Node9 -->
<g id="Node000009" class="node">
<title>Node9</title>
<g id="a_Node000009"><a xlink:href="classpycanha_1_1gmm_1_1TriMesh.html#a4ed00ebc28ddc7ef836cabed7f9b1881" target="_top" xlink:title="Get vertices matrix.">
<polygon fill="white" stroke="#666666" points="318.5,-174 185.5,-174 185.5,-144 318.5,-144 318.5,-174"/>
<text text-anchor="start" x="193.5" y="-162" font-family="Helvetica,sans-Serif" font-size="10.00">pycanha::gmm::TriMesh</text>
<text text-anchor="middle" x="252" y="-151" font-family="Helvetica,sans-Serif" font-size="10.00">::get_vertices</text>
</a>
</g>
</g>
<!-- Node1&#45;&gt;Node9 -->
<g id="edge10_Node000001_Node000009" class="edge">
<title>Node1&#45;&gt;Node9</title>
<g id="a_edge10_Node000001_Node000009"><a xlink:title=" ">
<path fill="none" stroke="#63b8ff" d="M92.15,-239.8C112.85,-223.94 147.28,-199.17 180,-183 183.74,-181.15 187.66,-179.39 191.65,-177.72"/>
<polygon fill="#63b8ff" stroke="#63b8ff" points="193.03,-180.94 201.04,-174 190.46,-174.43 193.03,-180.94"/>
</a>
</g>
</g>
<!-- Node10 -->
<g id="Node000010" class="node">
<title>Node10</title>
<g id="a_Node000010"><a xlink:href="classpycanha_1_1gmm_1_1TriMesh.html#a27e1232524b78c47b58b8d4d45d8172d" target="_top" xlink:title="Set the surface 1 color.">
<polygon fill="white" stroke="#666666" points="318.5,-126 185.5,-126 185.5,-96 318.5,-96 318.5,-126"/>
<text text-anchor="start" x="193.5" y="-114" font-family="Helvetica,sans-Serif" font-size="10.00">pycanha::gmm::TriMesh</text>
<text text-anchor="middle" x="252" y="-103" font-family="Helvetica,sans-Serif" font-size="10.00">::set_surface1_color</text>
</a>
</g>
</g>
<!-- Node1&#45;&gt;Node10 -->
<g id="edge11_Node000001_Node000010" class="edge">
<title>Node1&#45;&gt;Node10</title>
<g id="a_edge11_Node000001_Node000010"><a xlink:title=" ">
<path fill="none" stroke="#63b8ff" d="M82.64,-239.82C99.44,-214.55 136.46,-163.79 180,-135 182.39,-133.42 184.9,-131.93 187.48,-130.53"/>
<polygon fill="#63b8ff" stroke="#63b8ff" points="189.05,-133.66 196.5,-126.13 185.98,-127.37 189.05,-133.66"/>
</a>
</g>
</g>
<!-- Node11 -->
<g id="Node000011" class="node">
<title>Node11</title>
<g id="a_Node000011"><a xlink:href="classpycanha_1_1gmm_1_1TriMesh.html#a331d5c97a882188d4454694b4a2a4af9" target="_top" xlink:title="Set the surface 2 color.">
<polygon fill="white" stroke="#666666" points="318.5,-78 185.5,-78 185.5,-48 318.5,-48 318.5,-78"/>
<text text-anchor="start" x="193.5" y="-66" font-family="Helvetica,sans-Serif" font-size="10.00">pycanha::gmm::TriMesh</text>
<text text-anchor="middle" x="252" y="-55" font-family="Helvetica,sans-Serif" font-size="10.00">::set_surface2_color</text>
</a>
</g>
</g>
<!-- Node1&#45;&gt;Node11 -->
<g id="edge12_Node000001_Node000011" class="edge">
<title>Node1&#45;&gt;Node11</title>
<g id="a_edge12_Node000001_Node000011"><a xlink:title=" ">
<path fill="none" stroke="#63b8ff" d="M78.69,-239.54C91.57,-206.64 126.11,-129.24 180,-87 181.79,-85.6 183.66,-84.28 185.61,-83.03"/>
<polygon fill="#63b8ff" stroke="#63b8ff" points="187.49,-85.99 194.48,-78.03 184.05,-79.89 187.49,-85.99"/>
</a>
</g>
</g>
<!-- Node12 -->
<g id="Node000012" class="node">
<title>Node12</title>
<g id="a_Node000012"><a xlink:href="classpycanha_1_1gmm_1_1TriMesh.html#a7f0a8a501de5c2d065f71e164b956b39" target="_top" xlink:title="Sort the triangles according to the face ids.">
<polygon fill="white" stroke="#666666" points="318.5,-30 185.5,-30 185.5,0 318.5,0 318.5,-30"/>
<text text-anchor="start" x="193.5" y="-18" font-family="Helvetica,sans-Serif" font-size="10.00">pycanha::gmm::TriMesh</text>
<text text-anchor="middle" x="252" y="-7" font-family="Helvetica,sans-Serif" font-size="10.00">::sort_triangles</text>
</a>
</g>
</g>
<!-- Node1&#45;&gt;Node12 -->
<g id="edge13_Node000001_Node000012" class="edge">
<title>Node1&#45;&gt;Node12</title>
<g id="a_edge13_Node000001_Node000012"><a xlink:title=" ">
<path fill="none" stroke="#63b8ff" d="M76.22,-239.99C85.36,-201.03 115.1,-95.74 180,-39 181.35,-37.82 182.75,-36.7 184.21,-35.64"/>
<polygon fill="#63b8ff" stroke="#63b8ff" points="186.41,-38.39 193.03,-30.11 182.7,-32.46 186.41,-38.39"/>
</a>
</g>
</g>
<!-- Node2&#45;&gt;Node3 -->
<g id="edge2_Node000002_Node000003" class="edge">
<title>Node2&#45;&gt;Node3</title>
<g id="a_edge2_Node000002_Node000003"><a xlink:title=" ">
<path fill="none" stroke="#63b8ff" d="M311.65,-404.06C337.83,-410.77 368.25,-418.58 392.9,-424.91"/>
<polygon fill="#63b8ff" stroke="#63b8ff" points="392.18,-428.34 402.74,-427.44 393.92,-421.56 392.18,-428.34"/>
</a>
</g>
</g>
<!-- Node2&#45;&gt;Node4 -->
<g id="edge3_Node000002_Node000004" class="edge">
<title>Node2&#45;&gt;Node4</title>
<g id="a_edge3_Node000002_Node000004"><a xlink:title=" ">
<path fill="none" stroke="#63b8ff" d="M324.23,-389C332.61,-389 341.25,-389 349.85,-389"/>
<polygon fill="#63b8ff" stroke="#63b8ff" points="349.91,-392.5 359.91,-389 349.91,-385.5 349.91,-392.5"/>
</a>
</g>
</g>
<!-- Node6&#45;&gt;Node3 -->
<g id="edge6_Node000006_Node000003" class="edge">
<title>Node6&#45;&gt;Node3</title>
<g id="a_edge6_Node000006_Node000003"><a xlink:title=" ">
<path fill="none" stroke="#63b8ff" d="M324.23,-437C332.61,-437 341.25,-437 349.85,-437"/>
<polygon fill="#63b8ff" stroke="#63b8ff" points="349.91,-440.5 359.91,-437 349.91,-433.5 349.91,-440.5"/>
</a>
</g>
</g>
<!-- Node6&#45;&gt;Node4 -->
<g id="edge7_Node000006_Node000004" class="edge">
<title>Node6&#45;&gt;Node4</title>
<g id="a_edge7_Node000006_Node000004"><a xlink:title=" ">
<path fill="none" stroke="#63b8ff" d="M311.65,-421.94C337.83,-415.23 368.25,-407.42 392.9,-401.09"/>
<polygon fill="#63b8ff" stroke="#63b8ff" points="393.92,-404.44 402.74,-398.56 392.18,-397.66 393.92,-404.44"/>
</a>
</g>
</g>
</g>
</svg>
