<?xml version="1.0" encoding="UTF-8" standalone="no"?>
<!DOCTYPE svg PUBLIC "-//W3C//DTD SVG 1.1//EN"
 "http://www.w3.org/Graphics/SVG/1.1/DTD/svg11.dtd">
<!-- Generated by graphviz version 2.43.0 (0)
 -->
<!-- Title: pycanha::gmm::UniqueID Pages: 1 -->
<svg width="808pt" height="420pt"
 viewBox="0.00 0.00 808.00 419.50" xmlns="http://www.w3.org/2000/svg" xmlns:xlink="http://www.w3.org/1999/xlink">
<g id="graph0" class="graph" transform="scale(1 1) rotate(0) translate(4 415.5)">
<title>pycanha::gmm::UniqueID</title>
<!-- Node1 -->
<g id="node1" class="node">
<title>Node1</title>
<g id="a_node1"><a xlink:title="Provides a unique integer id.">
<polygon fill="#bfbfbf" stroke="black" points="0,-285.5 0,-304.5 140,-304.5 140,-285.5 0,-285.5"/>
<text text-anchor="middle" x="70" y="-292.5" font-family="Helvetica,sans-Serif" font-size="10.00">pycanha::gmm::UniqueID</text>
</a>
</g>
</g>
<!-- Node2 -->
<g id="node2" class="node">
<title>Node2</title>
<g id="a_node2"><a xlink:href="classpycanha_1_1gmm_1_1CoordinateTransformation.html" target="_top" xlink:title="A class that represents a coordinate transformation.">
<polygon fill="none" stroke="black" points="188.5,-381 188.5,-411 337.5,-411 337.5,-381 188.5,-381"/>
<text text-anchor="start" x="196.5" y="-399" font-family="Helvetica,sans-Serif" font-size="10.00">pycanha::gmm::Coordinate</text>
<text text-anchor="middle" x="263" y="-388" font-family="Helvetica,sans-Serif" font-size="10.00">Transformation</text>
</a>
</g>
</g>
<!-- Node1&#45;&gt;Node2 -->
<g id="edge1" class="edge">
<title>Node1&#45;&gt;Node2</title>
<path fill="none" stroke="midnightblue" d="M89.23,-311.23C109.23,-328.28 142.92,-354.83 176,-371 183.68,-374.76 192.03,-378.05 200.41,-380.91"/>
<polygon fill="midnightblue" stroke="midnightblue" points="91.38,-308.46 81.53,-304.56 86.8,-313.75 91.38,-308.46"/>
</g>
<!-- Node3 -->
<g id="node3" class="node">
<title>Node3</title>
<g id="a_node3"><a xlink:href="classpycanha_1_1gmm_1_1Geometry.html" target="_top" xlink:title="Base class for geometric items.">
<polygon fill="none" stroke="black" points="191,-342.5 191,-361.5 335,-361.5 335,-342.5 191,-342.5"/>
<text text-anchor="middle" x="263" y="-349.5" font-family="Helvetica,sans-Serif" font-size="10.00">pycanha::gmm::Geometry</text>
</a>
</g>
</g>
<!-- Node1&#45;&gt;Node3 -->
<g id="edge2" class="edge">
<title>Node1&#45;&gt;Node3</title>
<path fill="none" stroke="midnightblue" d="M104.39,-308.34C124.84,-316.2 151.68,-325.94 176,-333 188.04,-336.49 201.19,-339.7 213.51,-342.44"/>
<polygon fill="midnightblue" stroke="midnightblue" points="105.48,-305.01 94.9,-304.65 102.95,-311.54 105.48,-305.01"/>
</g>
<!-- Node8 -->
<g id="node8" class="node">
<title>Node8</title>
<g id="a_node8"><a xlink:href="classpycanha_1_1gmm_1_1GeometryModel.html" target="_top" xlink:title="Class representing a geometrical mathematical model.">
<polygon fill="none" stroke="black" points="176,-304.5 176,-323.5 350,-323.5 350,-304.5 176,-304.5"/>
<text text-anchor="middle" x="263" y="-311.5" font-family="Helvetica,sans-Serif" font-size="10.00">pycanha::gmm::GeometryModel</text>
</a>
</g>
</g>
<!-- Node1&#45;&gt;Node8 -->
<g id="edge7" class="edge">
<title>Node1&#45;&gt;Node8</title>
<path fill="none" stroke="midnightblue" d="M150.34,-302.89C158.73,-303.73 167.28,-304.58 175.73,-305.42"/>
<polygon fill="midnightblue" stroke="midnightblue" points="150.52,-299.39 140.23,-301.89 149.83,-306.36 150.52,-299.39"/>
</g>
<!-- Node9 -->
<g id="node9" class="node">
<title>Node9</title>
<g id="a_node9"><a xlink:href="classpycanha_1_1gmm_1_1NamedMaterial.html" target="_top" xlink:title=" ">
<polygon fill="none" stroke="black" points="177.5,-266.5 177.5,-285.5 348.5,-285.5 348.5,-266.5 177.5,-266.5"/>
<text text-anchor="middle" x="263" y="-273.5" font-family="Helvetica,sans-Serif" font-size="10.00">pycanha::gmm::NamedMaterial</text>
</a>
</g>
</g>
<!-- Node1&#45;&gt;Node9 -->
<g id="edge8" class="edge">
<title>Node1&#45;&gt;Node9</title>
<path fill="none" stroke="midnightblue" d="M150.24,-287.12C159.2,-286.23 168.36,-285.32 177.38,-284.42"/>
<polygon fill="midnightblue" stroke="midnightblue" points="149.83,-283.64 140.23,-288.11 150.52,-290.61 149.83,-283.64"/>
</g>
<!-- Node12 -->
<g id="node12" class="node">
<title>Node12</title>
<g id="a_node12"><a xlink:href="classpycanha_1_1gmm_1_1Primitive.html" target="_top" xlink:title="A geometry primitive.">
<polygon fill="none" stroke="black" points="193,-152.5 193,-171.5 333,-171.5 333,-152.5 193,-152.5"/>
<text text-anchor="middle" x="263" y="-159.5" font-family="Helvetica,sans-Serif" font-size="10.00">pycanha::gmm::Primitive</text>
</a>
</g>
</g>
<!-- Node1&#45;&gt;Node12 -->
<g id="edge11" class="edge">
<title>Node1&#45;&gt;Node12</title>
<path fill="none" stroke="midnightblue" d="M92.97,-279.7C132.68,-252.05 215.31,-194.51 248.13,-171.66"/>
<polygon fill="midnightblue" stroke="midnightblue" points="90.94,-276.85 84.74,-285.43 94.94,-282.59 90.94,-276.85"/>
</g>
<!-- Node20 -->
<g id="node20" class="node">
<title>Node20</title>
<g id="a_node20"><a xlink:href="classpycanha_1_1gmm_1_1ThermalMesh.html" target="_top" xlink:title=" ">
<polygon fill="none" stroke="black" points="182,-114.5 182,-133.5 344,-133.5 344,-114.5 182,-114.5"/>
<text text-anchor="middle" x="263" y="-121.5" font-family="Helvetica,sans-Serif" font-size="10.00">pycanha::gmm::ThermalMesh</text>
</a>
</g>
</g>
<!-- Node1&#45;&gt;Node20 -->
<g id="edge19" class="edge">
<title>Node1&#45;&gt;Node20</title>
<path fill="none" stroke="midnightblue" d="M78.57,-275.95C92.58,-243.26 125.8,-176.75 176,-143 181.71,-139.16 188.07,-136.08 194.68,-133.62"/>
<polygon fill="midnightblue" stroke="midnightblue" points="75.29,-274.71 74.69,-285.29 81.76,-277.4 75.29,-274.71"/>
</g>
<!-- Node4 -->
<g id="node4" class="node">
<title>Node4</title>
<g id="a_node4"><a xlink:href="classpycanha_1_1gmm_1_1GeometryGroup.html" target="_top" xlink:title="Class representing a group of geometric items. Inherits from Geometry.">
<polygon fill="none" stroke="black" points="386,-383.5 386,-402.5 559,-402.5 559,-383.5 386,-383.5"/>
<text text-anchor="middle" x="472.5" y="-390.5" font-family="Helvetica,sans-Serif" font-size="10.00">pycanha::gmm::GeometryGroup</text>
</a>
</g>
</g>
<!-- Node3&#45;&gt;Node4 -->
<g id="edge3" class="edge">
<title>Node3&#45;&gt;Node4</title>
<path fill="none" stroke="midnightblue" d="M322.2,-363.5C354.08,-369.8 393.12,-377.51 423.28,-383.47"/>
<polygon fill="midnightblue" stroke="midnightblue" points="322.62,-360.01 312.13,-361.51 321.26,-366.88 322.62,-360.01"/>
</g>
<!-- Node6 -->
<g id="node6" class="node">
<title>Node6</title>
<g id="a_node6"><a xlink:href="classpycanha_1_1gmm_1_1GeometryItem.html" target="_top" xlink:title="The base class for all geometry items.">
<polygon fill="none" stroke="black" points="389,-342.5 389,-361.5 556,-361.5 556,-342.5 389,-342.5"/>
<text text-anchor="middle" x="472.5" y="-349.5" font-family="Helvetica,sans-Serif" font-size="10.00">pycanha::gmm::GeometryItem</text>
</a>
</g>
</g>
<!-- Node3&#45;&gt;Node6 -->
<g id="edge5" class="edge">
<title>Node3&#45;&gt;Node6</title>
<path fill="none" stroke="midnightblue" d="M345.36,-352C359.59,-352 374.41,-352 388.68,-352"/>
<polygon fill="midnightblue" stroke="midnightblue" points="345.12,-348.5 335.12,-352 345.12,-355.5 345.12,-348.5"/>
</g>
<!-- Node5 -->
<g id="node5" class="node">
<title>Node5</title>
<g id="a_node5"><a xlink:href="classpycanha_1_1gmm_1_1GeometryGroupCutted.html" target="_top" xlink:title="Class representing a cutted geometry.">
<polygon fill="none" stroke="black" points="611,-379 611,-409 784,-409 784,-379 611,-379"/>
<text text-anchor="start" x="619" y="-397" font-family="Helvetica,sans-Serif" font-size="10.00">pycanha::gmm::GeometryGroup</text>
<text text-anchor="middle" x="697.5" y="-386" font-family="Helvetica,sans-Serif" font-size="10.00">Cutted</text>
</a>
</g>
</g>
<!-- Node4&#45;&gt;Node5 -->
<g id="edge4" class="edge">
<title>Node4&#45;&gt;Node5</title>
<path fill="none" stroke="midnightblue" d="M569.1,-393.43C582.95,-393.49 597.14,-393.55 610.78,-393.62"/>
<polygon fill="midnightblue" stroke="midnightblue" points="569.1,-389.93 559.08,-393.38 569.06,-396.93 569.1,-389.93"/>
</g>
<!-- Node7 -->
<g id="node7" class="node">
<title>Node7</title>
<g id="a_node7"><a xlink:href="classpycanha_1_1gmm_1_1GeometryMeshedItem.html" target="_top" xlink:title="A geometry item that contains mesh data.">
<polygon fill="none" stroke="black" points="595,-340.5 595,-359.5 800,-359.5 800,-340.5 595,-340.5"/>
<text text-anchor="middle" x="697.5" y="-347.5" font-family="Helvetica,sans-Serif" font-size="10.00">pycanha::gmm::GeometryMeshedItem</text>
</a>
</g>
</g>
<!-- Node6&#45;&gt;Node7 -->
<g id="edge6" class="edge">
<title>Node6&#45;&gt;Node7</title>
<path fill="none" stroke="midnightblue" d="M566.29,-351.17C575.65,-351.08 585.2,-351 594.64,-350.91"/>
<polygon fill="midnightblue" stroke="midnightblue" points="566.19,-347.67 556.22,-351.26 566.25,-354.67 566.19,-347.67"/>
</g>
<!-- Node10 -->
<g id="node10" class="node">
<title>Node10</title>
<g id="a_node10"><a xlink:href="classpycanha_1_1gmm_1_1BulkMaterial.html" target="_top" xlink:title=" ">
<polygon fill="none" stroke="black" points="393.5,-304.5 393.5,-323.5 551.5,-323.5 551.5,-304.5 393.5,-304.5"/>
<text text-anchor="middle" x="472.5" y="-311.5" font-family="Helvetica,sans-Serif" font-size="10.00">pycanha::gmm::BulkMaterial</text>
</a>
</g>
</g>
<!-- Node9&#45;&gt;Node10 -->
<g id="edge9" class="edge">
<title>Node9&#45;&gt;Node10</title>
<path fill="none" stroke="midnightblue" d="M325.96,-287.35C355.73,-292.8 391.02,-299.26 419.39,-304.46"/>
<polygon fill="midnightblue" stroke="midnightblue" points="326.56,-283.9 316.09,-285.54 325.3,-290.78 326.56,-283.9"/>
</g>
<!-- Node11 -->
<g id="node11" class="node">
<title>Node11</title>
<g id="a_node11"><a xlink:href="classpycanha_1_1gmm_1_1OpticalMaterial.html" target="_top" xlink:title=" ">
<polygon fill="none" stroke="black" points="387.5,-266.5 387.5,-285.5 557.5,-285.5 557.5,-266.5 387.5,-266.5"/>
<text text-anchor="middle" x="472.5" y="-273.5" font-family="Helvetica,sans-Serif" font-size="10.00">pycanha::gmm::OpticalMaterial</text>
</a>
</g>
</g>
<!-- Node9&#45;&gt;Node11 -->
<g id="edge10" class="edge">
<title>Node9&#45;&gt;Node11</title>
<path fill="none" stroke="midnightblue" d="M358.95,-276C368.44,-276 378.04,-276 387.41,-276"/>
<polygon fill="midnightblue" stroke="midnightblue" points="358.7,-272.5 348.7,-276 358.7,-279.5 358.7,-272.5"/>
</g>
<!-- Node13 -->
<g id="node13" class="node">
<title>Node13</title>
<g id="a_node13"><a xlink:href="classpycanha_1_1gmm_1_1Cone.html" target="_top" xlink:title="A class representing a cone in 3D space.">
<polygon fill="none" stroke="black" points="412.5,-228.5 412.5,-247.5 532.5,-247.5 532.5,-228.5 412.5,-228.5"/>
<text text-anchor="middle" x="472.5" y="-235.5" font-family="Helvetica,sans-Serif" font-size="10.00">pycanha::gmm::Cone</text>
</a>
</g>
</g>
<!-- Node12&#45;&gt;Node13 -->
<g id="edge12" class="edge">
<title>Node12&#45;&gt;Node13</title>
<path fill="none" stroke="midnightblue" d="M290.2,-176.29C314.45,-189.02 351.81,-207.37 386,-219 396.8,-222.67 408.61,-225.82 419.91,-228.44"/>
<polygon fill="midnightblue" stroke="midnightblue" points="291.75,-173.15 281.28,-171.55 288.47,-179.33 291.75,-173.15"/>
</g>
<!-- Node14 -->
<g id="node14" class="node">
<title>Node14</title>
<g id="a_node14"><a xlink:href="classpycanha_1_1gmm_1_1Cylinder.html" target="_top" xlink:title="A class representing a cylinder in 3D space.">
<polygon fill="none" stroke="black" points="404.5,-190.5 404.5,-209.5 540.5,-209.5 540.5,-190.5 404.5,-190.5"/>
<text text-anchor="middle" x="472.5" y="-197.5" font-family="Helvetica,sans-Serif" font-size="10.00">pycanha::gmm::Cylinder</text>
</a>
</g>
</g>
<!-- Node12&#45;&gt;Node14 -->
<g id="edge13" class="edge">
<title>Node12&#45;&gt;Node14</title>
<path fill="none" stroke="midnightblue" d="M325.96,-173.35C355.73,-178.8 391.02,-185.26 419.39,-190.46"/>
<polygon fill="midnightblue" stroke="midnightblue" points="326.56,-169.9 316.09,-171.54 325.3,-176.78 326.56,-169.9"/>
</g>
<!-- Node15 -->
<g id="node15" class="node">
<title>Node15</title>
<g id="a_node15"><a xlink:href="classpycanha_1_1gmm_1_1Disc.html" target="_top" xlink:title="A class representing a disc in 3D space.">
<polygon fill="none" stroke="black" points="414.5,-152.5 414.5,-171.5 530.5,-171.5 530.5,-152.5 414.5,-152.5"/>
<text text-anchor="middle" x="472.5" y="-159.5" font-family="Helvetica,sans-Serif" font-size="10.00">pycanha::gmm::Disc</text>
</a>
</g>
</g>
<!-- Node12&#45;&gt;Node15 -->
<g id="edge14" class="edge">
<title>Node12&#45;&gt;Node15</title>
<path fill="none" stroke="midnightblue" d="M343.14,-162C366.88,-162 392.44,-162 414.46,-162"/>
<polygon fill="midnightblue" stroke="midnightblue" points="343.09,-158.5 333.09,-162 343.09,-165.5 343.09,-158.5"/>
</g>
<!-- Node16 -->
<g id="node16" class="node">
<title>Node16</title>
<g id="a_node16"><a xlink:href="classpycanha_1_1gmm_1_1Quadrilateral.html" target="_top" xlink:title="A class representing a quadrilateral in 3D space.">
<polygon fill="none" stroke="black" points="393,-114.5 393,-133.5 552,-133.5 552,-114.5 393,-114.5"/>
<text text-anchor="middle" x="472.5" y="-121.5" font-family="Helvetica,sans-Serif" font-size="10.00">pycanha::gmm::Quadrilateral</text>
</a>
</g>
</g>
<!-- Node12&#45;&gt;Node16 -->
<g id="edge15" class="edge">
<title>Node12&#45;&gt;Node16</title>
<path fill="none" stroke="midnightblue" d="M325.96,-150.65C355.73,-145.2 391.02,-138.74 419.39,-133.54"/>
<polygon fill="midnightblue" stroke="midnightblue" points="325.3,-147.22 316.09,-152.46 326.56,-154.1 325.3,-147.22"/>
</g>
<!-- Node17 -->
<g id="node17" class="node">
<title>Node17</title>
<g id="a_node17"><a xlink:href="classpycanha_1_1gmm_1_1Rectangle.html" target="_top" xlink:title="A class representing a rectangle in 3D space.">
<polygon fill="none" stroke="black" points="400.5,-76.5 400.5,-95.5 544.5,-95.5 544.5,-76.5 400.5,-76.5"/>
<text text-anchor="middle" x="472.5" y="-83.5" font-family="Helvetica,sans-Serif" font-size="10.00">pycanha::gmm::Rectangle</text>
</a>
</g>
</g>
<!-- Node12&#45;&gt;Node17 -->
<g id="edge16" class="edge">
<title>Node12&#45;&gt;Node17</title>
<path fill="none" stroke="midnightblue" d="M337.37,-149.01C341.75,-147.26 346,-145.26 350,-143 370.25,-131.54 365.76,-116.47 386,-105 392.88,-101.1 400.49,-98 408.26,-95.54"/>
<polygon fill="midnightblue" stroke="midnightblue" points="335.86,-145.84 327.61,-152.49 338.21,-152.43 335.86,-145.84"/>
</g>
<!-- Node18 -->
<g id="node18" class="node">
<title>Node18</title>
<g id="a_node18"><a xlink:href="classpycanha_1_1gmm_1_1Sphere.html" target="_top" xlink:title="A class representing a sphere in 3D space.">
<polygon fill="none" stroke="black" points="408,-38.5 408,-57.5 537,-57.5 537,-38.5 408,-38.5"/>
<text text-anchor="middle" x="472.5" y="-45.5" font-family="Helvetica,sans-Serif" font-size="10.00">pycanha::gmm::Sphere</text>
</a>
</g>
</g>
<!-- Node12&#45;&gt;Node18 -->
<g id="edge17" class="edge">
<title>Node12&#45;&gt;Node18</title>
<path fill="none" stroke="midnightblue" d="M342.27,-148.27C344.98,-146.69 347.57,-144.94 350,-143 379.23,-119.7 356.79,-90.31 386,-67 392.42,-61.88 399.93,-58.07 407.8,-55.25"/>
<polygon fill="midnightblue" stroke="midnightblue" points="340.67,-145.16 333.29,-152.76 343.8,-151.42 340.67,-145.16"/>
</g>
<!-- Node19 -->
<g id="node19" class="node">
<title>Node19</title>
<g id="a_node19"><a xlink:href="classpycanha_1_1gmm_1_1Triangle.html" target="_top" xlink:title="A class representing a triangle in 3D space.">
<polygon fill="none" stroke="black" points="405.5,-0.5 405.5,-19.5 539.5,-19.5 539.5,-0.5 405.5,-0.5"/>
<text text-anchor="middle" x="472.5" y="-7.5" font-family="Helvetica,sans-Serif" font-size="10.00">pycanha::gmm::Triangle</text>
</a>
</g>
</g>
<!-- Node12&#45;&gt;Node19 -->
<g id="edge18" class="edge">
<title>Node12&#45;&gt;Node19</title>
<path fill="none" stroke="midnightblue" d="M341.98,-149.09C344.83,-147.29 347.52,-145.27 350,-143 389.19,-107.13 346.83,-64.9 386,-29 391.61,-23.86 398.28,-20.01 405.4,-17.13"/>
<polygon fill="midnightblue" stroke="midnightblue" points="340.23,-146.06 333.04,-153.84 343.51,-152.24 340.23,-146.06"/>
</g>
</g>
</svg>
