<?xml version="1.0" encoding="UTF-8" standalone="no"?>
<!DOCTYPE svg PUBLIC "-//W3C//DTD SVG 1.1//EN"
 "http://www.w3.org/Graphics/SVG/1.1/DTD/svg11.dtd">
<!-- Generated by graphviz version 2.43.0 (0)
 -->
<!-- Title: pycanha::gmm::GeometryGroup::iterate_create_cut_groups Pages: 1 -->
<svg width="625pt" height="38pt"
 viewBox="0.00 0.00 625.00 38.00" xmlns="http://www.w3.org/2000/svg" xmlns:xlink="http://www.w3.org/1999/xlink">
<g id="graph0" class="graph" transform="scale(1 1) rotate(0) translate(4 34)">
<title>pycanha::gmm::GeometryGroup::iterate_create_cut_groups</title>
<!-- Node1 -->
<g id="Node000001" class="node">
<title>Node1</title>
<g id="a_Node000001"><a xlink:title="Recursively iterates over all geometry below a GeometryGroupCutted. Call this function only from top ...">
<polygon fill="#999999" stroke="#666666" points="173,-30 0,-30 0,0 173,0 173,-30"/>
<text text-anchor="start" x="8" y="-18" font-family="Helvetica,sans-Serif" font-size="10.00">pycanha::gmm::GeometryGroup</text>
<text text-anchor="middle" x="86.5" y="-7" font-family="Helvetica,sans-Serif" font-size="10.00">::iterate_create_cut_groups</text>
</a>
</g>
</g>
<!-- Node2 -->
<g id="Node000002" class="node">
<title>Node2</title>
<g id="a_Node000002"><a xlink:href="classpycanha_1_1gmm_1_1CoordinateTransformation.html#a2223d8c13985136ad110d1cb4126f9d9" target="_top" xlink:title="Creates a new transformation equivalent to applying other and then this.">
<polygon fill="white" stroke="#666666" points="358,-30 209,-30 209,0 358,0 358,-30"/>
<text text-anchor="start" x="217" y="-18" font-family="Helvetica,sans-Serif" font-size="10.00">pycanha::gmm::Coordinate</text>
<text text-anchor="middle" x="283.5" y="-7" font-family="Helvetica,sans-Serif" font-size="10.00">Transformation::chain</text>
</a>
</g>
</g>
<!-- Node1&#45;&gt;Node2 -->
<g id="edge1_Node000001_Node000002" class="edge">
<title>Node1&#45;&gt;Node2</title>
<g id="a_edge1_Node000001_Node000002"><a xlink:title=" ">
<path fill="none" stroke="#63b8ff" d="M173.03,-15C181.54,-15 190.18,-15 198.67,-15"/>
<polygon fill="#63b8ff" stroke="#63b8ff" points="198.94,-18.5 208.94,-15 198.94,-11.5 198.94,-18.5"/>
</a>
</g>
</g>
<!-- Node3 -->
<g id="Node000003" class="node">
<title>Node3</title>
<g id="a_Node000003"><a xlink:href="classpycanha_1_1gmm_1_1CoordinateTransformation.html#adb564610750eb3d80d29e8a4de0d7aae" target="_top" xlink:title="Default constructor for CoordinateTransformation class.">
<polygon fill="white" stroke="#666666" points="617,-30 394,-30 394,0 617,0 617,-30"/>
<text text-anchor="start" x="402" y="-18" font-family="Helvetica,sans-Serif" font-size="10.00">pycanha::gmm::Coordinate</text>
<text text-anchor="middle" x="505.5" y="-7" font-family="Helvetica,sans-Serif" font-size="10.00">Transformation::CoordinateTransformation</text>
</a>
</g>
</g>
<!-- Node2&#45;&gt;Node3 -->
<g id="edge2_Node000002_Node000003" class="edge">
<title>Node2&#45;&gt;Node3</title>
<g id="a_edge2_Node000002_Node000003"><a xlink:title=" ">
<path fill="none" stroke="#63b8ff" d="M358.06,-15C366.32,-15 374.89,-15 383.55,-15"/>
<polygon fill="#63b8ff" stroke="#63b8ff" points="383.75,-18.5 393.75,-15 383.75,-11.5 383.75,-18.5"/>
</a>
</g>
</g>
</g>
</svg>
