<?xml version="1.0" encoding="UTF-8" standalone="no"?>
<!DOCTYPE svg PUBLIC "-//W3C//DTD SVG 1.1//EN"
 "http://www.w3.org/Graphics/SVG/1.1/DTD/svg11.dtd">
<!-- Generated by graphviz version 2.43.0 (0)
 -->
<!-- Title: pycanha::ExpressionFormula Pages: 1 -->
<svg width="321pt" height="324pt"
 viewBox="0.00 0.00 320.50 324.00" xmlns="http://www.w3.org/2000/svg" xmlns:xlink="http://www.w3.org/1999/xlink">
<g id="graph0" class="graph" transform="scale(1 1) rotate(0) translate(4 320)">
<title>pycanha::ExpressionFormula</title>
<!-- Node1 -->
<g id="Node000001" class="node">
<title>Node1</title>
<g id="a_Node000001"><a xlink:title=" ">
<polygon fill="#999999" stroke="#666666" points="201.5,-19 44.5,-19 44.5,0 201.5,0 201.5,-19"/>
<text text-anchor="middle" x="123" y="-7" font-family="Helvetica,sans-Serif" font-size="10.00">pycanha::ExpressionFormula</text>
</a>
</g>
</g>
<!-- Node2 -->
<g id="Node000002" class="node">
<title>Node2</title>
<g id="a_Node000002"><a xlink:href="classpycanha_1_1Formula.html" target="_top" xlink:title=" ">
<polygon fill="white" stroke="#bfbfbf" points="175,-85 71,-85 71,-66 175,-66 175,-85"/>
<text text-anchor="middle" x="123" y="-73" font-family="Helvetica,sans-Serif" font-size="10.00">pycanha::Formula</text>
</a>
</g>
</g>
<!-- Node2&#45;&gt;Node1 -->
<g id="edge1_Node000001_Node000002" class="edge">
<title>Node2&#45;&gt;Node1</title>
<g id="a_edge1_Node000001_Node000002"><a xlink:title=" ">
<path fill="none" stroke="#63b8ff" d="M123,-55.58C123,-43.63 123,-28.72 123,-19.41"/>
<polygon fill="#63b8ff" stroke="#63b8ff" points="119.5,-55.87 123,-65.87 126.5,-55.87 119.5,-55.87"/>
</a>
</g>
</g>
<!-- Node3 -->
<g id="Node000003" class="node">
<title>Node3</title>
<g id="a_Node000003"><a xlink:href="classpycanha_1_1Entity.html" target="_top" xlink:title=" ">
<polygon fill="white" stroke="#bfbfbf" points="186,-151 94,-151 94,-132 186,-132 186,-151"/>
<text text-anchor="middle" x="140" y="-139" font-family="Helvetica,sans-Serif" font-size="10.00">pycanha::Entity</text>
</a>
</g>
</g>
<!-- Node3&#45;&gt;Node2 -->
<g id="edge2_Node000002_Node000003" class="edge">
<title>Node3&#45;&gt;Node2</title>
<g id="a_edge2_Node000002_Node000003"><a xlink:title=" ">
<path fill="none" stroke="#9a32cd" stroke-dasharray="5,2" d="M135.07,-121.95C131.88,-109.93 127.87,-94.82 125.37,-85.41"/>
<polygon fill="#9a32cd" stroke="#9a32cd" points="131.76,-123.1 137.71,-131.87 138.52,-121.31 131.76,-123.1"/>
</a>
</g>
<text text-anchor="middle" x="151.5" y="-106" font-family="Helvetica,sans-Serif" font-size="10.00" fill="grey"> _entity</text>
</g>
<!-- Node4 -->
<g id="Node000004" class="node">
<title>Node4</title>
<g id="a_Node000004"><a xlink:href="classpycanha_1_1ThermalNetwork.html" target="_top" xlink:title=" ">
<polygon fill="white" stroke="#bfbfbf" points="146,-316 0,-316 0,-297 146,-297 146,-316"/>
<text text-anchor="middle" x="73" y="-304" font-family="Helvetica,sans-Serif" font-size="10.00">pycanha::ThermalNetwork</text>
</a>
</g>
</g>
<!-- Node4&#45;&gt;Node1 -->
<g id="edge7_Node000001_Node000004" class="edge">
<title>Node4&#45;&gt;Node1</title>
<g id="a_edge7_Node000001_Node000004"><a xlink:title=" ">
<path fill="none" stroke="#9a32cd" stroke-dasharray="5,2" d="M59.48,-288.81C45.91,-270.33 27,-239.09 27,-208.5 27,-208.5 27,-208.5 27,-74.5 27,-44.65 59.52,-27.87 86.71,-19.05"/>
<polygon fill="#9a32cd" stroke="#9a32cd" points="56.75,-291 65.61,-296.8 62.3,-286.74 56.75,-291"/>
</a>
</g>
<text text-anchor="middle" x="51.5" y="-139" font-family="Helvetica,sans-Serif" font-size="10.00" fill="grey"> _network</text>
</g>
<!-- Node4&#45;&gt;Node3 -->
<g id="edge3_Node000003_Node000004" class="edge">
<title>Node4&#45;&gt;Node3</title>
<g id="a_edge3_Node000003_Node000004"><a xlink:title=" ">
<path fill="none" stroke="#9a32cd" stroke-dasharray="5,2" d="M70.7,-286.77C68.81,-264.47 68.32,-226.64 82,-198 91.79,-177.5 112.63,-160.61 126.47,-151.04"/>
<polygon fill="#9a32cd" stroke="#9a32cd" points="67.24,-287.3 71.75,-296.89 74.2,-286.58 67.24,-287.3"/>
</a>
</g>
<text text-anchor="middle" x="106.5" y="-205" font-family="Helvetica,sans-Serif" font-size="10.00" fill="grey"> _network</text>
</g>
<!-- Node5 -->
<g id="Node000005" class="node">
<title>Node5</title>
<g id="a_Node000005"><a xlink:href="structpycanha_1_1detail_1_1EntityOps.html" target="_top" xlink:title=" ">
<polygon fill="white" stroke="#bfbfbf" points="285.5,-217 140.5,-217 140.5,-198 285.5,-198 285.5,-217"/>
<text text-anchor="middle" x="213" y="-205" font-family="Helvetica,sans-Serif" font-size="10.00">pycanha::detail::EntityOps</text>
</a>
</g>
</g>
<!-- Node4&#45;&gt;Node5 -->
<g id="edge5_Node000005_Node000004" class="edge">
<title>Node4&#45;&gt;Node5</title>
<g id="a_edge5_Node000005_Node000004"><a xlink:title=" ">
<path fill="none" stroke="#9a32cd" stroke-dasharray="5,2" d="M93.75,-291.12C123.21,-270.71 176.25,-233.96 200.4,-217.23"/>
<polygon fill="#9a32cd" stroke="#9a32cd" points="91.65,-288.32 85.42,-296.89 95.64,-294.07 91.65,-288.32"/>
</a>
</g>
<text text-anchor="middle" x="205.5" y="-271" font-family="Helvetica,sans-Serif" font-size="10.00" fill="grey"> exists</text>
<text text-anchor="middle" x="205.5" y="-260" font-family="Helvetica,sans-Serif" font-size="10.00" fill="grey">get_value</text>
<text text-anchor="middle" x="205.5" y="-249" font-family="Helvetica,sans-Serif" font-size="10.00" fill="grey">get_value_ref</text>
<text text-anchor="middle" x="205.5" y="-238" font-family="Helvetica,sans-Serif" font-size="10.00" fill="grey">set_value</text>
</g>
<!-- Node5&#45;&gt;Node3 -->
<g id="edge4_Node000003_Node000005" class="edge">
<title>Node5&#45;&gt;Node3</title>
<g id="a_edge4_Node000003_Node000005"><a xlink:title=" ">
<path fill="none" stroke="#9a32cd" stroke-dasharray="5,2" d="M195.52,-191.18C181.36,-178.76 161.88,-161.68 150.16,-151.41"/>
<polygon fill="#9a32cd" stroke="#9a32cd" points="193.33,-193.91 203.15,-197.87 197.94,-188.64 193.33,-193.91"/>
</a>
</g>
<text text-anchor="middle" x="194" y="-172" font-family="Helvetica,sans-Serif" font-size="10.00" fill="grey"> _ops</text>
</g>
<!-- Node6 -->
<g id="Node000006" class="node">
<title>Node6</title>
<g id="a_Node000006"><a xlink:href="classpycanha_1_1Parameters.html" target="_top" xlink:title=" ">
<polygon fill="white" stroke="#bfbfbf" points="312.5,-85 193.5,-85 193.5,-66 312.5,-66 312.5,-85"/>
<text text-anchor="middle" x="253" y="-73" font-family="Helvetica,sans-Serif" font-size="10.00">pycanha::Parameters</text>
</a>
</g>
</g>
<!-- Node6&#45;&gt;Node1 -->
<g id="edge6_Node000001_Node000006" class="edge">
<title>Node6&#45;&gt;Node1</title>
<g id="a_edge6_Node000001_Node000006"><a xlink:title=" ">
<path fill="none" stroke="#9a32cd" stroke-dasharray="5,2" d="M226.31,-61.36C200.7,-48.75 162.74,-30.06 140.67,-19.2"/>
<polygon fill="#9a32cd" stroke="#9a32cd" points="224.95,-64.59 235.47,-65.87 228.04,-58.31 224.95,-64.59"/>
</a>
</g>
<text text-anchor="middle" x="227.5" y="-40" font-family="Helvetica,sans-Serif" font-size="10.00" fill="grey"> _parameters</text>
</g>
</g>
</svg>
