<?xml version="1.0" encoding="UTF-8" standalone="no"?>
<!DOCTYPE svg PUBLIC "-//W3C//DTD SVG 1.1//EN"
 "http://www.w3.org/Graphics/SVG/1.1/DTD/svg11.dtd">
<!-- Generated by graphviz version 14.1.2 (0)
 -->
<!-- Title: pycanha::TSCN Pages: 1 -->
<svg width="924pt" height="181pt"
 viewBox="0.00 0.00 924.00 181.00" xmlns="http://www.w3.org/2000/svg" xmlns:xlink="http://www.w3.org/1999/xlink">
<g id="graph0" class="graph" transform="scale(1 1) rotate(0) translate(4 176.62)">
<title>pycanha::TSCN</title>
<!-- Node1 -->
<g id="Node000001" class="node">
<title>Node1</title>
<g id="a_Node000001"><a xlink:title=" ">
<polygon fill="#999999" stroke="#666666" points="894.62,-48.75 805.12,-48.75 805.12,-28 894.62,-28 894.62,-48.75"/>
<text xml:space="preserve" text-anchor="middle" x="849.88" y="-35.25" font-family="Helvetica,sans-Serif" font-size="10.00">pycanha::TSCN</text>
</a>
</g>
</g>
<!-- Node2 -->
<g id="Node000002" class="node">
<title>Node2</title>
<g id="a_Node000002"><a xlink:href="classpycanha_1_1TransientSolver.html" target="_top" xlink:title=" ">
<polygon fill="white" stroke="#bfbfbf" points="683.25,-48.75 545,-48.75 545,-28 683.25,-28 683.25,-48.75"/>
<text xml:space="preserve" text-anchor="middle" x="614.12" y="-35.25" font-family="Helvetica,sans-Serif" font-size="10.00">pycanha::TransientSolver</text>
</a>
</g>
</g>
<!-- Node2&#45;&gt;Node1 -->
<g id="edge1_Node000001_Node000002" class="edge">
<title>Node2&#45;&gt;Node1</title>
<g id="a_edge1_Node000001_Node000002"><a xlink:title=" ">
<path fill="none" stroke="#63b8ff" d="M694.88,-38.38C731.59,-38.38 773.75,-38.38 804.67,-38.38"/>
<polygon fill="#63b8ff" stroke="#63b8ff" points="695.19,-34.88 685.19,-38.38 695.19,-41.88 695.19,-34.88"/>
</a>
</g>
</g>
<!-- Node3 -->
<g id="Node000003" class="node">
<title>Node3</title>
<g id="a_Node000003"><a xlink:href="classpycanha_1_1Solver.html" target="_top" xlink:title=" ">
<polygon fill="white" stroke="#bfbfbf" points="333.88,-87.75 239.88,-87.75 239.88,-67 333.88,-67 333.88,-87.75"/>
<text xml:space="preserve" text-anchor="middle" x="286.88" y="-74.25" font-family="Helvetica,sans-Serif" font-size="10.00">pycanha::Solver</text>
</a>
</g>
</g>
<!-- Node3&#45;&gt;Node2 -->
<g id="edge2_Node000002_Node000003" class="edge">
<title>Node3&#45;&gt;Node2</title>
<g id="a_edge2_Node000002_Node000003"><a xlink:title=" ">
<path fill="none" stroke="#63b8ff" d="M344.98,-65C357.7,-62.54 371.15,-60.17 383.75,-58.38 437.57,-50.72 498.94,-45.55 544.65,-42.39"/>
<polygon fill="#63b8ff" stroke="#63b8ff" points="344.64,-61.5 335.51,-66.88 346,-68.37 344.64,-61.5"/>
</a>
</g>
</g>
<!-- Node4 -->
<g id="Node000004" class="node">
<title>Node4</title>
<g id="a_Node000004"><a xlink:href="classpycanha_1_1ThermalMathematicalModel.html" target="_top" xlink:title=" ">
<polygon fill="white" stroke="#bfbfbf" points="699.75,-136.12 528.5,-136.12 528.5,-102.62 699.75,-102.62 699.75,-136.12"/>
<text xml:space="preserve" text-anchor="start" x="536.5" y="-122.62" font-family="Helvetica,sans-Serif" font-size="10.00">pycanha::ThermalMathematical</text>
<text xml:space="preserve" text-anchor="middle" x="614.12" y="-109.88" font-family="Helvetica,sans-Serif" font-size="10.00">Model</text>
</a>
</g>
</g>
<!-- Node3&#45;&gt;Node4 -->
<g id="edge5_Node000004_Node000003" class="edge">
<title>Node3&#45;&gt;Node4</title>
<g id="a_edge5_Node000004_Node000003"><a xlink:title=" ">
<path fill="none" stroke="#9a32cd" stroke-dasharray="5,2" d="M344.96,-90.36C357.68,-92.95 371.14,-95.46 383.75,-97.38 431.31,-104.59 484.8,-109.89 528.16,-113.47"/>
<polygon fill="#9a32cd" stroke="#9a32cd" points="346,-87 335.5,-88.38 344.57,-93.85 346,-87"/>
</a>
</g>
<text xml:space="preserve" text-anchor="start" x="386.75" y="-118.01" font-family="Helvetica,sans-Serif" font-size="10.00" fill="grey">_current_callback_solver</text>
</g>
<!-- Node4&#45;&gt;Node3 -->
<g id="edge3_Node000003_Node000004" class="edge">
<title>Node4&#45;&gt;Node3</title>
<g id="a_edge3_Node000003_Node000004"><a xlink:title=" ">
<path fill="none" stroke="#9a32cd" stroke-dasharray="5,2" d="M569.09,-97.72C551.34,-90.1 530.39,-82.49 510.5,-78.62 450.36,-66.95 379.35,-69.25 333.99,-72.7"/>
<polygon fill="#9a32cd" stroke="#9a32cd" points="567.47,-100.83 578.03,-101.68 570.31,-94.43 567.47,-100.83"/>
</a>
</g>
<text xml:space="preserve" text-anchor="start" x="435.5" y="-84.88" font-family="Helvetica,sans-Serif" font-size="10.00" fill="grey">tmm</text>
</g>
<!-- Node6 -->
<g id="Node000006" class="node">
<title>Node6</title>
<g id="a_Node000006"><a xlink:href="classpycanha_1_1EntitiesHelper.html" target="_top" xlink:title=" ">
<polygon fill="white" stroke="#bfbfbf" points="916,-105.75 783.75,-105.75 783.75,-85 916,-85 916,-105.75"/>
<text xml:space="preserve" text-anchor="middle" x="849.88" y="-92.25" font-family="Helvetica,sans-Serif" font-size="10.00">pycanha::EntitiesHelper</text>
</a>
</g>
</g>
<!-- Node4&#45;&gt;Node6 -->
<g id="edge7_Node000006_Node000004" class="edge">
<title>Node4&#45;&gt;Node6</title>
<g id="a_edge7_Node000006_Node000004"><a xlink:title=" ">
<path fill="none" stroke="#9a32cd" stroke-dasharray="5,2" d="M711.54,-114.42C729.58,-113.08 748.26,-111.42 765.75,-109.38 773.31,-108.49 781.23,-107.39 789.04,-106.19"/>
<polygon fill="#9a32cd" stroke="#9a32cd" points="711.34,-110.93 701.61,-115.13 711.83,-117.91 711.34,-110.93"/>
</a>
</g>
<text xml:space="preserve" text-anchor="start" x="727.5" y="-120" font-family="Helvetica,sans-Serif" font-size="10.00" fill="grey">_tmm</text>
</g>
<!-- Node5 -->
<g id="Node000005" class="node">
<title>Node5</title>
<g id="a_Node000005"><a xlink:href="classpycanha_1_1SolverRegistry.html" target="_top" xlink:title=" ">
<polygon fill="white" stroke="#bfbfbf" points="354.12,-171.75 219.62,-171.75 219.62,-151 354.12,-151 354.12,-171.75"/>
<text xml:space="preserve" text-anchor="middle" x="286.88" y="-158.25" font-family="Helvetica,sans-Serif" font-size="10.00">pycanha::SolverRegistry</text>
</a>
</g>
</g>
<!-- Node5&#45;&gt;Node4 -->
<g id="edge4_Node000004_Node000005" class="edge">
<title>Node5&#45;&gt;Node4</title>
<g id="a_edge4_Node000004_Node000005"><a xlink:title=" ">
<path fill="none" stroke="#9a32cd" stroke-dasharray="5,2" d="M365.53,-155.5C408.4,-151.81 462.52,-146.4 510.5,-139.38 516.25,-138.53 522.16,-137.59 528.11,-136.58"/>
<polygon fill="#9a32cd" stroke="#9a32cd" points="365.49,-151.99 355.82,-156.32 366.08,-158.97 365.49,-151.99"/>
</a>
</g>
<text xml:space="preserve" text-anchor="start" x="426.88" y="-160.12" font-family="Helvetica,sans-Serif" font-size="10.00" fill="grey">_solvers</text>
</g>
<!-- Node6&#45;&gt;Node4 -->
<g id="edge6_Node000004_Node000006" class="edge">
<title>Node6&#45;&gt;Node4</title>
<g id="a_edge6_Node000004_Node000006"><a xlink:title=" ">
<path fill="none" stroke="#9a32cd" stroke-dasharray="5,2" d="M772.06,-90.83C769.93,-90.75 767.83,-90.68 765.75,-90.62 744.43,-90.02 738.88,-87.72 717.75,-90.62 700.61,-92.98 682.3,-97.45 665.96,-102.18"/>
<polygon fill="#9a32cd" stroke="#9a32cd" points="771.9,-94.32 782.04,-91.23 772.18,-87.33 771.9,-94.32"/>
</a>
</g>
<text xml:space="preserve" text-anchor="start" x="720.75" y="-96.88" font-family="Helvetica,sans-Serif" font-size="10.00" fill="grey">_entities</text>
</g>
<!-- Node7 -->
<g id="Node000007" class="node">
<title>Node7</title>
<g id="a_Node000007"><a xlink:href="classpycanha_1_1ThermalNetwork.html" target="_top" xlink:title=" ">
<polygon fill="white" stroke="#bfbfbf" points="146.5,-116.75 1.5,-116.75 1.5,-96 146.5,-96 146.5,-116.75"/>
<text xml:space="preserve" text-anchor="middle" x="74" y="-103.25" font-family="Helvetica,sans-Serif" font-size="10.00">pycanha::ThermalNetwork</text>
</a>
</g>
</g>
<!-- Node7&#45;&gt;Node3 -->
<g id="edge8_Node000003_Node000007" class="edge">
<title>Node7&#45;&gt;Node3</title>
<g id="a_edge8_Node000003_Node000007"><a xlink:title=" ">
<path fill="none" stroke="#9a32cd" stroke-dasharray="5,2" d="M158.29,-94.92C185.98,-91.11 215.81,-87.01 239.65,-83.73"/>
<polygon fill="#9a32cd" stroke="#9a32cd" points="157.91,-91.44 148.48,-96.27 158.86,-98.37 157.91,-91.44"/>
</a>
</g>
<text xml:space="preserve" text-anchor="start" x="169" y="-99.86" font-family="Helvetica,sans-Serif" font-size="10.00" fill="grey">tnw</text>
</g>
<!-- Node8 -->
<g id="Node000008" class="node">
<title>Node8</title>
<g id="a_Node000008"><a xlink:href="classpycanha_1_1CouplingMatrices.html" target="_top" xlink:title=" ">
<polygon fill="white" stroke="#bfbfbf" points="148,-57.75 0,-57.75 0,-37 148,-37 148,-57.75"/>
<text xml:space="preserve" text-anchor="middle" x="74" y="-44.25" font-family="Helvetica,sans-Serif" font-size="10.00">pycanha::CouplingMatrices</text>
</a>
</g>
</g>
<!-- Node8&#45;&gt;Node3 -->
<g id="edge9_Node000003_Node000008" class="edge">
<title>Node8&#45;&gt;Node3</title>
<g id="a_edge9_Node000003_Node000008"><a xlink:title=" ">
<path fill="none" stroke="#9a32cd" stroke-dasharray="5,2" d="M159.4,-48.54C169.74,-49.31 180.13,-50.39 190,-51.88 211.12,-55.06 234.27,-61.14 252.54,-66.57"/>
<polygon fill="#9a32cd" stroke="#9a32cd" points="159.95,-45.07 149.74,-47.91 159.5,-52.05 159.95,-45.07"/>
</a>
</g>
<text xml:space="preserve" text-anchor="start" x="169" y="-74.88" font-family="Helvetica,sans-Serif" font-size="10.00" fill="grey">ltcs</text>
<text xml:space="preserve" text-anchor="start" x="169" y="-58.12" font-family="Helvetica,sans-Serif" font-size="10.00" fill="grey">rtcs</text>
</g>
<!-- Node9 -->
<g id="Node000009" class="node">
<title>Node9</title>
<g id="a_Node000009"><a xlink:href="structpycanha_1_1SolverOutputConfig.html" target="_top" xlink:title=" ">
<polygon fill="white" stroke="#bfbfbf" points="365.75,-20.75 208,-20.75 208,0 365.75,0 365.75,-20.75"/>
<text xml:space="preserve" text-anchor="middle" x="286.88" y="-7.25" font-family="Helvetica,sans-Serif" font-size="10.00">pycanha::SolverOutputConfig</text>
</a>
</g>
</g>
<!-- Node9&#45;&gt;Node2 -->
<g id="edge10_Node000002_Node000009" class="edge">
<title>Node9&#45;&gt;Node2</title>
<g id="a_edge10_Node000002_Node000009"><a xlink:title=" ">
<path fill="none" stroke="#9a32cd" stroke-dasharray="5,2" d="M377.51,-5.81C418.25,-5.03 466.98,-5.92 510.5,-11.62 534.23,-14.74 560.33,-21.58 580.26,-27.57"/>
<polygon fill="#9a32cd" stroke="#9a32cd" points="377.67,-2.3 367.76,-6.03 377.83,-9.3 377.67,-2.3"/>
</a>
</g>
<text xml:space="preserve" text-anchor="start" x="414.12" y="-17.88" font-family="Helvetica,sans-Serif" font-size="10.00" fill="grey">output_config</text>
</g>
</g>
</svg>
