<?xml version="1.0" encoding="UTF-8" standalone="no"?>
<!DOCTYPE svg PUBLIC "-//W3C//DTD SVG 1.1//EN"
 "http://www.w3.org/Graphics/SVG/1.1/DTD/svg11.dtd">
<!-- Generated by graphviz version 2.43.0 (0)
 -->
<!-- Title: pycanha::ThermalData Pages: 1 -->
<svg width="308pt" height="93pt"
 viewBox="0.00 0.00 307.50 93.00" xmlns="http://www.w3.org/2000/svg" xmlns:xlink="http://www.w3.org/1999/xlink">
<g id="graph0" class="graph" transform="scale(1 1) rotate(0) translate(4 89)">
<title>pycanha::ThermalData</title>
<!-- Node1 -->
<g id="Node000001" class="node">
<title>Node1</title>
<g id="a_Node000001"><a xlink:title=" ">
<polygon fill="#999999" stroke="#666666" points="212,-19 84,-19 84,0 212,0 212,-19"/>
<text text-anchor="middle" x="148" y="-7" font-family="Helvetica,sans-Serif" font-size="10.00">pycanha::ThermalData</text>
</a>
</g>
</g>
<!-- Node2 -->
<g id="Node000002" class="node">
<title>Node2</title>
<g id="a_Node000002"><a xlink:href="classpycanha_1_1DataTableStore.html" target="_top" xlink:title=" ">
<polygon fill="white" stroke="#bfbfbf" points="138,-85 0,-85 0,-66 138,-66 138,-85"/>
<text text-anchor="middle" x="69" y="-73" font-family="Helvetica,sans-Serif" font-size="10.00">pycanha::DataTableStore</text>
</a>
</g>
</g>
<!-- Node2&#45;&gt;Node1 -->
<g id="edge1_Node000001_Node000002" class="edge">
<title>Node2&#45;&gt;Node1</title>
<g id="a_edge1_Node000001_Node000002"><a xlink:title=" ">
<path fill="none" stroke="#9a32cd" stroke-dasharray="5,2" d="M87.53,-59.49C103,-46.96 124.5,-29.54 137.26,-19.2"/>
<polygon fill="#9a32cd" stroke="#9a32cd" points="85.22,-56.85 79.65,-65.87 89.63,-62.29 85.22,-56.85"/>
</a>
</g>
<text text-anchor="middle" x="133.5" y="-40" font-family="Helvetica,sans-Serif" font-size="10.00" fill="grey"> _tables</text>
</g>
<!-- Node3 -->
<g id="Node000003" class="node">
<title>Node3</title>
<g id="a_Node000003"><a xlink:href="classpycanha_1_1DataModelStore.html" target="_top" xlink:title=" ">
<polygon fill="white" stroke="#bfbfbf" points="299.5,-85 156.5,-85 156.5,-66 299.5,-66 299.5,-85"/>
<text text-anchor="middle" x="228" y="-73" font-family="Helvetica,sans-Serif" font-size="10.00">pycanha::DataModelStore</text>
</a>
</g>
</g>
<!-- Node3&#45;&gt;Node1 -->
<g id="edge2_Node000001_Node000003" class="edge">
<title>Node3&#45;&gt;Node1</title>
<g id="a_edge2_Node000001_Node000003"><a xlink:title=" ">
<path fill="none" stroke="#9a32cd" stroke-dasharray="5,2" d="M209.23,-59.49C193.57,-46.96 171.8,-29.54 158.87,-19.2"/>
<polygon fill="#9a32cd" stroke="#9a32cd" points="207.22,-62.35 217.21,-65.87 211.59,-56.89 207.22,-62.35"/>
</a>
</g>
<text text-anchor="middle" x="214.5" y="-40" font-family="Helvetica,sans-Serif" font-size="10.00" fill="grey"> _models</text>
</g>
</g>
</svg>
