<?xml version="1.0" encoding="UTF-8" standalone="no"?>
<!DOCTYPE svg PUBLIC "-//W3C//DTD SVG 1.1//EN"
 "http://www.w3.org/Graphics/SVG/1.1/DTD/svg11.dtd">
<!-- Generated by graphviz version 2.43.0 (0)
 -->
<!-- Title: pycanha::gmm::UniqueID Pages: 1 -->
<svg width="808pt" height="409pt"
 viewBox="0.00 0.00 808.00 408.50" xmlns="http://www.w3.org/2000/svg" xmlns:xlink="http://www.w3.org/1999/xlink">
<g id="graph0" class="graph" transform="scale(1 1) rotate(0) translate(4 404.5)">
<title>pycanha::gmm::UniqueID</title>
<!-- Node1 -->
<g id="Node000001" class="node">
<title>Node1</title>
<g id="a_Node000001"><a xlink:title="Provides a unique integer id.">
<polygon fill="#999999" stroke="#666666" points="140,-296 0,-296 0,-277 140,-277 140,-296"/>
<text text-anchor="middle" x="70" y="-284" font-family="Helvetica,sans-Serif" font-size="10.00">pycanha::gmm::UniqueID</text>
</a>
</g>
</g>
<!-- Node2 -->
<g id="Node000002" class="node">
<title>Node2</title>
<g id="a_Node000002"><a xlink:href="classpycanha_1_1gmm_1_1CoordinateTransformation.html" target="_top" xlink:title="A class that represents a coordinate transformation.">
<polygon fill="white" stroke="#666666" points="337.5,-400.5 188.5,-400.5 188.5,-370.5 337.5,-370.5 337.5,-400.5"/>
<text text-anchor="start" x="196.5" y="-388.5" font-family="Helvetica,sans-Serif" font-size="10.00">pycanha::gmm::Coordinate</text>
<text text-anchor="middle" x="263" y="-377.5" font-family="Helvetica,sans-Serif" font-size="10.00">Transformation</text>
</a>
</g>
</g>
<!-- Node1&#45;&gt;Node2 -->
<g id="edge1_Node000001_Node000002" class="edge">
<title>Node1&#45;&gt;Node2</title>
<g id="a_edge1_Node000001_Node000002"><a xlink:title=" ">
<path fill="none" stroke="#63b8ff" d="M89.55,-302.84C109.6,-319.73 143.11,-345.77 176,-361.5 182.99,-364.84 190.53,-367.8 198.14,-370.39"/>
<polygon fill="#63b8ff" stroke="#63b8ff" points="91.7,-300.07 81.83,-296.22 87.15,-305.39 91.7,-300.07"/>
</a>
</g>
</g>
<!-- Node3 -->
<g id="Node000003" class="node">
<title>Node3</title>
<g id="a_Node000003"><a xlink:href="classpycanha_1_1gmm_1_1Geometry.html" target="_top" xlink:title="Base class for geometric items.">
<polygon fill="white" stroke="#666666" points="335,-352 191,-352 191,-333 335,-333 335,-352"/>
<text text-anchor="middle" x="263" y="-340" font-family="Helvetica,sans-Serif" font-size="10.00">pycanha::gmm::Geometry</text>
</a>
</g>
</g>
<!-- Node1&#45;&gt;Node3 -->
<g id="edge2_Node000001_Node000003" class="edge">
<title>Node1&#45;&gt;Node3</title>
<g id="a_edge2_Node000001_Node000003"><a xlink:title=" ">
<path fill="none" stroke="#63b8ff" d="M103.95,-299.78C124.45,-307.7 151.48,-317.53 176,-324.5 187.01,-327.63 198.94,-330.47 210.32,-332.92"/>
<polygon fill="#63b8ff" stroke="#63b8ff" points="105.05,-296.45 94.46,-296.07 102.5,-302.97 105.05,-296.45"/>
</a>
</g>
</g>
<!-- Node8 -->
<g id="Node000008" class="node">
<title>Node8</title>
<g id="a_Node000008"><a xlink:href="classpycanha_1_1gmm_1_1GeometryModel.html" target="_top" xlink:title="Class representing a geometrical mathematical model.">
<polygon fill="white" stroke="#666666" points="350,-315 176,-315 176,-296 350,-296 350,-315"/>
<text text-anchor="middle" x="263" y="-303" font-family="Helvetica,sans-Serif" font-size="10.00">pycanha::gmm::GeometryModel</text>
</a>
</g>
</g>
<!-- Node1&#45;&gt;Node8 -->
<g id="edge7_Node000001_Node000008" class="edge">
<title>Node1&#45;&gt;Node8</title>
<g id="a_edge7_Node000001_Node000008"><a xlink:title=" ">
<path fill="none" stroke="#63b8ff" d="M150.34,-294.39C158.73,-295.23 167.28,-296.08 175.73,-296.92"/>
<polygon fill="#63b8ff" stroke="#63b8ff" points="150.52,-290.89 140.23,-293.39 149.83,-297.86 150.52,-290.89"/>
</a>
</g>
</g>
<!-- Node9 -->
<g id="Node000009" class="node">
<title>Node9</title>
<g id="a_Node000009"><a xlink:href="classpycanha_1_1gmm_1_1NamedMaterial.html" target="_top" xlink:title=" ">
<polygon fill="white" stroke="#bfbfbf" points="348.5,-278 177.5,-278 177.5,-259 348.5,-259 348.5,-278"/>
<text text-anchor="middle" x="263" y="-266" font-family="Helvetica,sans-Serif" font-size="10.00">pycanha::gmm::NamedMaterial</text>
</a>
</g>
</g>
<!-- Node1&#45;&gt;Node9 -->
<g id="edge8_Node000001_Node000009" class="edge">
<title>Node1&#45;&gt;Node9</title>
<g id="a_edge8_Node000001_Node000009"><a xlink:title=" ">
<path fill="none" stroke="#63b8ff" d="M150.24,-279.03C159.2,-278.19 168.36,-277.33 177.38,-276.47"/>
<polygon fill="#63b8ff" stroke="#63b8ff" points="149.85,-275.55 140.23,-279.98 150.51,-282.52 149.85,-275.55"/>
</a>
</g>
</g>
<!-- Node12 -->
<g id="Node000012" class="node">
<title>Node12</title>
<g id="a_Node000012"><a xlink:href="classpycanha_1_1gmm_1_1Primitive.html" target="_top" xlink:title="A geometry primitive.">
<polygon fill="white" stroke="#666666" points="333,-167 193,-167 193,-148 333,-148 333,-167"/>
<text text-anchor="middle" x="263" y="-155" font-family="Helvetica,sans-Serif" font-size="10.00">pycanha::gmm::Primitive</text>
</a>
</g>
</g>
<!-- Node1&#45;&gt;Node12 -->
<g id="edge11_Node000001_Node000012" class="edge">
<title>Node1&#45;&gt;Node12</title>
<g id="a_edge11_Node000001_Node000012"><a xlink:title=" ">
<path fill="none" stroke="#63b8ff" d="M93.88,-271.04C133.77,-244.1 214.91,-189.3 247.74,-167.13"/>
<polygon fill="#63b8ff" stroke="#63b8ff" points="91.68,-268.31 85.36,-276.8 95.6,-274.11 91.68,-268.31"/>
</a>
</g>
</g>
<!-- Node20 -->
<g id="Node000020" class="node">
<title>Node20</title>
<g id="a_Node000020"><a xlink:href="classpycanha_1_1gmm_1_1ThermalMesh.html" target="_top" xlink:title=" ">
<polygon fill="white" stroke="#bfbfbf" points="344,-130 182,-130 182,-111 344,-111 344,-130"/>
<text text-anchor="middle" x="263" y="-118" font-family="Helvetica,sans-Serif" font-size="10.00">pycanha::gmm::ThermalMesh</text>
</a>
</g>
</g>
<!-- Node1&#45;&gt;Node20 -->
<g id="edge19_Node000001_Node000020" class="edge">
<title>Node1&#45;&gt;Node20</title>
<g id="a_edge19_Node000001_Node000020"><a xlink:title=" ">
<path fill="none" stroke="#63b8ff" d="M79.14,-267.2C93.64,-235.28 127.1,-171.81 176,-139.5 181.87,-135.62 188.4,-132.52 195.18,-130.05"/>
<polygon fill="#63b8ff" stroke="#63b8ff" points="75.77,-266.16 74.95,-276.73 82.18,-268.98 75.77,-266.16"/>
</a>
</g>
</g>
<!-- Node4 -->
<g id="Node000004" class="node">
<title>Node4</title>
<g id="a_Node000004"><a xlink:href="classpycanha_1_1gmm_1_1GeometryGroup.html" target="_top" xlink:title="Class representing a group of geometric items. Inherits from Geometry.">
<polygon fill="white" stroke="#666666" points="559,-392 386,-392 386,-373 559,-373 559,-392"/>
<text text-anchor="middle" x="472.5" y="-380" font-family="Helvetica,sans-Serif" font-size="10.00">pycanha::gmm::GeometryGroup</text>
</a>
</g>
</g>
<!-- Node3&#45;&gt;Node4 -->
<g id="edge3_Node000003_Node000004" class="edge">
<title>Node3&#45;&gt;Node4</title>
<g id="a_edge3_Node000003_Node000004"><a xlink:title=" ">
<path fill="none" stroke="#63b8ff" d="M323.33,-353.94C354.58,-359.96 392.45,-367.26 422.08,-372.97"/>
<polygon fill="#63b8ff" stroke="#63b8ff" points="323.92,-350.49 313.44,-352.03 322.59,-357.36 323.92,-350.49"/>
</a>
</g>
</g>
<!-- Node6 -->
<g id="Node000006" class="node">
<title>Node6</title>
<g id="a_Node000006"><a xlink:href="classpycanha_1_1gmm_1_1GeometryItem.html" target="_top" xlink:title="The base class for all geometry items.">
<polygon fill="white" stroke="#666666" points="556,-352 389,-352 389,-333 556,-333 556,-352"/>
<text text-anchor="middle" x="472.5" y="-340" font-family="Helvetica,sans-Serif" font-size="10.00">pycanha::gmm::GeometryItem</text>
</a>
</g>
</g>
<!-- Node3&#45;&gt;Node6 -->
<g id="edge5_Node000003_Node000006" class="edge">
<title>Node3&#45;&gt;Node6</title>
<g id="a_edge5_Node000003_Node000006"><a xlink:title=" ">
<path fill="none" stroke="#63b8ff" d="M345.36,-342.5C359.59,-342.5 374.41,-342.5 388.68,-342.5"/>
<polygon fill="#63b8ff" stroke="#63b8ff" points="345.12,-339 335.12,-342.5 345.12,-346 345.12,-339"/>
</a>
</g>
</g>
<!-- Node5 -->
<g id="Node000005" class="node">
<title>Node5</title>
<g id="a_Node000005"><a xlink:href="classpycanha_1_1gmm_1_1GeometryGroupCutted.html" target="_top" xlink:title="Class representing a cutted geometry.">
<polygon fill="white" stroke="#666666" points="784,-398.5 611,-398.5 611,-368.5 784,-368.5 784,-398.5"/>
<text text-anchor="start" x="619" y="-386.5" font-family="Helvetica,sans-Serif" font-size="10.00">pycanha::gmm::GeometryGroup</text>
<text text-anchor="middle" x="697.5" y="-375.5" font-family="Helvetica,sans-Serif" font-size="10.00">Cutted</text>
</a>
</g>
</g>
<!-- Node4&#45;&gt;Node5 -->
<g id="edge4_Node000004_Node000005" class="edge">
<title>Node4&#45;&gt;Node5</title>
<g id="a_edge4_Node000004_Node000005"><a xlink:title=" ">
<path fill="none" stroke="#63b8ff" d="M569.1,-382.93C582.95,-382.99 597.14,-383.05 610.78,-383.12"/>
<polygon fill="#63b8ff" stroke="#63b8ff" points="569.1,-379.43 559.08,-382.88 569.06,-386.43 569.1,-379.43"/>
</a>
</g>
</g>
<!-- Node7 -->
<g id="Node000007" class="node">
<title>Node7</title>
<g id="a_Node000007"><a xlink:href="classpycanha_1_1gmm_1_1GeometryMeshedItem.html" target="_top" xlink:title="A geometry item that contains mesh data.">
<polygon fill="white" stroke="#666666" points="800,-350 595,-350 595,-331 800,-331 800,-350"/>
<text text-anchor="middle" x="697.5" y="-338" font-family="Helvetica,sans-Serif" font-size="10.00">pycanha::gmm::GeometryMeshedItem</text>
</a>
</g>
</g>
<!-- Node6&#45;&gt;Node7 -->
<g id="edge6_Node000006_Node000007" class="edge">
<title>Node6&#45;&gt;Node7</title>
<g id="a_edge6_Node000006_Node000007"><a xlink:title=" ">
<path fill="none" stroke="#63b8ff" d="M566.29,-341.67C575.65,-341.58 585.2,-341.5 594.64,-341.41"/>
<polygon fill="#63b8ff" stroke="#63b8ff" points="566.19,-338.17 556.22,-341.76 566.25,-345.17 566.19,-338.17"/>
</a>
</g>
</g>
<!-- Node10 -->
<g id="Node000010" class="node">
<title>Node10</title>
<g id="a_Node000010"><a xlink:href="classpycanha_1_1gmm_1_1BulkMaterial.html" target="_top" xlink:title=" ">
<polygon fill="white" stroke="#bfbfbf" points="551.5,-315 393.5,-315 393.5,-296 551.5,-296 551.5,-315"/>
<text text-anchor="middle" x="472.5" y="-303" font-family="Helvetica,sans-Serif" font-size="10.00">pycanha::gmm::BulkMaterial</text>
</a>
</g>
</g>
<!-- Node9&#45;&gt;Node10 -->
<g id="edge9_Node000009_Node000010" class="edge">
<title>Node9&#45;&gt;Node10</title>
<g id="a_edge9_Node000009_Node000010"><a xlink:title=" ">
<path fill="none" stroke="#63b8ff" d="M327.44,-279.81C356.37,-284.97 390.25,-291.01 417.88,-295.94"/>
<polygon fill="#63b8ff" stroke="#63b8ff" points="327.9,-276.34 317.44,-278.03 326.67,-283.23 327.9,-276.34"/>
</a>
</g>
</g>
<!-- Node11 -->
<g id="Node000011" class="node">
<title>Node11</title>
<g id="a_Node000011"><a xlink:href="classpycanha_1_1gmm_1_1OpticalMaterial.html" target="_top" xlink:title=" ">
<polygon fill="white" stroke="#bfbfbf" points="557.5,-278 387.5,-278 387.5,-259 557.5,-259 557.5,-278"/>
<text text-anchor="middle" x="472.5" y="-266" font-family="Helvetica,sans-Serif" font-size="10.00">pycanha::gmm::OpticalMaterial</text>
</a>
</g>
</g>
<!-- Node9&#45;&gt;Node11 -->
<g id="edge10_Node000009_Node000011" class="edge">
<title>Node9&#45;&gt;Node11</title>
<g id="a_edge10_Node000009_Node000011"><a xlink:title=" ">
<path fill="none" stroke="#63b8ff" d="M358.95,-268.5C368.44,-268.5 378.04,-268.5 387.41,-268.5"/>
<polygon fill="#63b8ff" stroke="#63b8ff" points="358.7,-265 348.7,-268.5 358.7,-272 358.7,-265"/>
</a>
</g>
</g>
<!-- Node13 -->
<g id="Node000013" class="node">
<title>Node13</title>
<g id="a_Node000013"><a xlink:href="classpycanha_1_1gmm_1_1Cone.html" target="_top" xlink:title="A class representing a cone in 3D space.">
<polygon fill="white" stroke="#666666" points="532.5,-241 412.5,-241 412.5,-222 532.5,-222 532.5,-241"/>
<text text-anchor="middle" x="472.5" y="-229" font-family="Helvetica,sans-Serif" font-size="10.00">pycanha::gmm::Cone</text>
</a>
</g>
</g>
<!-- Node12&#45;&gt;Node13 -->
<g id="edge12_Node000012_Node000013" class="edge">
<title>Node12&#45;&gt;Node13</title>
<g id="a_edge12_Node000012_Node000013"><a xlink:title=" ">
<path fill="none" stroke="#63b8ff" d="M290.62,-171.82C314.88,-184.36 352.01,-202.28 386,-213.5 395.94,-216.78 406.73,-219.6 417.2,-221.97"/>
<polygon fill="#63b8ff" stroke="#63b8ff" points="292.16,-168.68 281.68,-167.14 288.92,-174.88 292.16,-168.68"/>
</a>
</g>
</g>
<!-- Node14 -->
<g id="Node000014" class="node">
<title>Node14</title>
<g id="a_Node000014"><a xlink:href="classpycanha_1_1gmm_1_1Cylinder.html" target="_top" xlink:title="A class representing a cylinder in 3D space.">
<polygon fill="white" stroke="#666666" points="540.5,-204 404.5,-204 404.5,-185 540.5,-185 540.5,-204"/>
<text text-anchor="middle" x="472.5" y="-192" font-family="Helvetica,sans-Serif" font-size="10.00">pycanha::gmm::Cylinder</text>
</a>
</g>
</g>
<!-- Node12&#45;&gt;Node14 -->
<g id="edge13_Node000012_Node000014" class="edge">
<title>Node12&#45;&gt;Node14</title>
<g id="a_edge13_Node000012_Node000014"><a xlink:title=" ">
<path fill="none" stroke="#63b8ff" d="M327.44,-168.81C356.37,-173.97 390.25,-180.01 417.88,-184.94"/>
<polygon fill="#63b8ff" stroke="#63b8ff" points="327.9,-165.34 317.44,-167.03 326.67,-172.23 327.9,-165.34"/>
</a>
</g>
</g>
<!-- Node15 -->
<g id="Node000015" class="node">
<title>Node15</title>
<g id="a_Node000015"><a xlink:href="classpycanha_1_1gmm_1_1Disc.html" target="_top" xlink:title="A class representing a disc in 3D space.">
<polygon fill="white" stroke="#666666" points="530.5,-167 414.5,-167 414.5,-148 530.5,-148 530.5,-167"/>
<text text-anchor="middle" x="472.5" y="-155" font-family="Helvetica,sans-Serif" font-size="10.00">pycanha::gmm::Disc</text>
</a>
</g>
</g>
<!-- Node12&#45;&gt;Node15 -->
<g id="edge14_Node000012_Node000015" class="edge">
<title>Node12&#45;&gt;Node15</title>
<g id="a_edge14_Node000012_Node000015"><a xlink:title=" ">
<path fill="none" stroke="#63b8ff" d="M343.14,-157.5C366.88,-157.5 392.44,-157.5 414.46,-157.5"/>
<polygon fill="#63b8ff" stroke="#63b8ff" points="343.09,-154 333.09,-157.5 343.09,-161 343.09,-154"/>
</a>
</g>
</g>
<!-- Node16 -->
<g id="Node000016" class="node">
<title>Node16</title>
<g id="a_Node000016"><a xlink:href="classpycanha_1_1gmm_1_1Quadrilateral.html" target="_top" xlink:title="A class representing a quadrilateral in 3D space.">
<polygon fill="white" stroke="#666666" points="552,-130 393,-130 393,-111 552,-111 552,-130"/>
<text text-anchor="middle" x="472.5" y="-118" font-family="Helvetica,sans-Serif" font-size="10.00">pycanha::gmm::Quadrilateral</text>
</a>
</g>
</g>
<!-- Node12&#45;&gt;Node16 -->
<g id="edge15_Node000012_Node000016" class="edge">
<title>Node12&#45;&gt;Node16</title>
<g id="a_edge15_Node000012_Node000016"><a xlink:title=" ">
<path fill="none" stroke="#63b8ff" d="M327.44,-146.19C356.37,-141.03 390.25,-134.99 417.88,-130.06"/>
<polygon fill="#63b8ff" stroke="#63b8ff" points="326.67,-142.77 317.44,-147.97 327.9,-149.66 326.67,-142.77"/>
</a>
</g>
</g>
<!-- Node17 -->
<g id="Node000017" class="node">
<title>Node17</title>
<g id="a_Node000017"><a xlink:href="classpycanha_1_1gmm_1_1Rectangle.html" target="_top" xlink:title="A class representing a rectangle in 3D space.">
<polygon fill="white" stroke="#666666" points="544.5,-93 400.5,-93 400.5,-74 544.5,-74 544.5,-93"/>
<text text-anchor="middle" x="472.5" y="-81" font-family="Helvetica,sans-Serif" font-size="10.00">pycanha::gmm::Rectangle</text>
</a>
</g>
</g>
<!-- Node12&#45;&gt;Node17 -->
<g id="edge16_Node000012_Node000017" class="edge">
<title>Node12&#45;&gt;Node17</title>
<g id="a_edge16_Node000012_Node000017"><a xlink:title=" ">
<path fill="none" stroke="#63b8ff" d="M339.78,-144.37C343.31,-142.91 346.73,-141.3 350,-139.5 370.11,-128.45 365.96,-113.68 386,-102.5 392.91,-98.65 400.53,-95.58 408.3,-93.13"/>
<polygon fill="#63b8ff" stroke="#63b8ff" points="338.44,-141.13 330.25,-147.86 340.85,-147.71 338.44,-141.13"/>
</a>
</g>
</g>
<!-- Node18 -->
<g id="Node000018" class="node">
<title>Node18</title>
<g id="a_Node000018"><a xlink:href="classpycanha_1_1gmm_1_1Sphere.html" target="_top" xlink:title="A class representing a sphere in 3D space.">
<polygon fill="white" stroke="#666666" points="537,-56 408,-56 408,-37 537,-37 537,-56"/>
<text text-anchor="middle" x="472.5" y="-44" font-family="Helvetica,sans-Serif" font-size="10.00">pycanha::gmm::Sphere</text>
</a>
</g>
</g>
<!-- Node12&#45;&gt;Node18 -->
<g id="edge17_Node000012_Node000018" class="edge">
<title>Node12&#45;&gt;Node18</title>
<g id="a_edge17_Node000012_Node000018"><a xlink:title=" ">
<path fill="none" stroke="#63b8ff" d="M342.24,-144.67C344.95,-143.13 347.55,-141.41 350,-139.5 378.84,-117.01 357.29,-88.16 386,-65.5 392.44,-60.41 399.97,-56.62 407.85,-53.82"/>
<polygon fill="#63b8ff" stroke="#63b8ff" points="340.69,-141.53 333.22,-149.05 343.75,-147.83 340.69,-141.53"/>
</a>
</g>
</g>
<!-- Node19 -->
<g id="Node000019" class="node">
<title>Node19</title>
<g id="a_Node000019"><a xlink:href="classpycanha_1_1gmm_1_1Triangle.html" target="_top" xlink:title="A class representing a triangle in 3D space.">
<polygon fill="white" stroke="#666666" points="539.5,-19 405.5,-19 405.5,0 539.5,0 539.5,-19"/>
<text text-anchor="middle" x="472.5" y="-7" font-family="Helvetica,sans-Serif" font-size="10.00">pycanha::gmm::Triangle</text>
</a>
</g>
</g>
<!-- Node12&#45;&gt;Node19 -->
<g id="edge18_Node000012_Node000019" class="edge">
<title>Node12&#45;&gt;Node19</title>
<g id="a_edge18_Node000012_Node000019"><a xlink:title=" ">
<path fill="none" stroke="#63b8ff" d="M342.4,-145.21C345.09,-143.52 347.64,-141.62 350,-139.5 388.59,-104.85 347.63,-63.39 386,-28.5 391.63,-23.39 398.31,-19.54 405.44,-16.67"/>
<polygon fill="#63b8ff" stroke="#63b8ff" points="340.62,-142.2 333.4,-149.96 343.88,-148.39 340.62,-142.2"/>
</a>
</g>
</g>
</g>
</svg>
