<?xml version="1.0" encoding="UTF-8" standalone="no"?>
<!DOCTYPE svg PUBLIC "-//W3C//DTD SVG 1.1//EN"
 "http://www.w3.org/Graphics/SVG/1.1/DTD/svg11.dtd">
<!-- Generated by graphviz version 2.43.0 (0)
 -->
<!-- Title: pycanha::SSLU Pages: 1 -->
<svg width="1112pt" height="152pt"
 viewBox="0.00 0.00 1112.00 152.00" xmlns="http://www.w3.org/2000/svg" xmlns:xlink="http://www.w3.org/1999/xlink">
<g id="graph0" class="graph" transform="scale(1 1) rotate(0) translate(4 148)">
<title>pycanha::SSLU</title>
<!-- Node1 -->
<g id="Node000001" class="node">
<title>Node1</title>
<g id="a_Node000001"><a xlink:title=" ">
<polygon fill="#999999" stroke="#666666" points="1104,-64 1015,-64 1015,-45 1104,-45 1104,-64"/>
<text text-anchor="middle" x="1059.5" y="-52" font-family="Helvetica,sans-Serif" font-size="10.00">pycanha::SSLU</text>
</a>
</g>
</g>
<!-- Node2 -->
<g id="Node000002" class="node">
<title>Node2</title>
<g id="a_Node000002"><a xlink:href="classpycanha_1_1SteadyStateSolver.html" target="_top" xlink:title=" ">
<polygon fill="white" stroke="#bfbfbf" points="978,-64 824,-64 824,-45 978,-45 978,-64"/>
<text text-anchor="middle" x="901" y="-52" font-family="Helvetica,sans-Serif" font-size="10.00">pycanha::SteadyStateSolver</text>
</a>
</g>
</g>
<!-- Node2&#45;&gt;Node1 -->
<g id="edge1_Node000001_Node000002" class="edge">
<title>Node2&#45;&gt;Node1</title>
<g id="a_edge1_Node000001_Node000002"><a xlink:title=" ">
<path fill="none" stroke="#63b8ff" d="M988.59,-54.5C997.56,-54.5 1006.39,-54.5 1014.59,-54.5"/>
<polygon fill="#63b8ff" stroke="#63b8ff" points="988.42,-51 978.42,-54.5 988.42,-58 988.42,-51"/>
</a>
</g>
</g>
<!-- Node3 -->
<g id="Node000003" class="node">
<title>Node3</title>
<g id="a_Node000003"><a xlink:href="classpycanha_1_1Solver.html" target="_top" xlink:title=" ">
<polygon fill="white" stroke="#bfbfbf" points="787,-64 692,-64 692,-45 787,-45 787,-64"/>
<text text-anchor="middle" x="739.5" y="-52" font-family="Helvetica,sans-Serif" font-size="10.00">pycanha::Solver</text>
</a>
</g>
</g>
<!-- Node3&#45;&gt;Node2 -->
<g id="edge2_Node000002_Node000003" class="edge">
<title>Node3&#45;&gt;Node2</title>
<g id="a_edge2_Node000002_Node000003"><a xlink:title=" ">
<path fill="none" stroke="#63b8ff" d="M797.08,-54.5C805.8,-54.5 814.92,-54.5 823.97,-54.5"/>
<polygon fill="#63b8ff" stroke="#63b8ff" points="797.06,-51 787.06,-54.5 797.06,-58 797.06,-51"/>
</a>
</g>
</g>
<!-- Node4 -->
<g id="Node000004" class="node">
<title>Node4</title>
<g id="a_Node000004"><a xlink:href="classpycanha_1_1ThermalMathematicalModel.html" target="_top" xlink:title=" ">
<polygon fill="white" stroke="#bfbfbf" points="629,-112.5 457,-112.5 457,-82.5 629,-82.5 629,-112.5"/>
<text text-anchor="start" x="465" y="-100.5" font-family="Helvetica,sans-Serif" font-size="10.00">pycanha::ThermalMathematical</text>
<text text-anchor="middle" x="543" y="-89.5" font-family="Helvetica,sans-Serif" font-size="10.00">Model</text>
</a>
</g>
</g>
<!-- Node4&#45;&gt;Node3 -->
<g id="edge3_Node000003_Node000004" class="edge">
<title>Node4&#45;&gt;Node3</title>
<g id="a_edge3_Node000003_Node000004"><a xlink:title=" ">
<path fill="none" stroke="#9a32cd" stroke-dasharray="5,2" d="M624.91,-80.29C641.18,-76.77 658.14,-73.05 674,-69.5 681.74,-67.77 689.99,-65.88 697.92,-64.04"/>
<polygon fill="#9a32cd" stroke="#9a32cd" points="623.93,-76.92 614.89,-82.45 625.4,-83.76 623.93,-76.92"/>
</a>
</g>
<text text-anchor="middle" x="660.5" y="-77.5" font-family="Helvetica,sans-Serif" font-size="10.00" fill="grey"> tmm</text>
</g>
<!-- Node5 -->
<g id="Node000005" class="node">
<title>Node5</title>
<g id="a_Node000005"><a xlink:href="classpycanha_1_1Parameters.html" target="_top" xlink:title=" ">
<polygon fill="white" stroke="#bfbfbf" points="347.5,-144 228.5,-144 228.5,-125 347.5,-125 347.5,-144"/>
<text text-anchor="middle" x="288" y="-132" font-family="Helvetica,sans-Serif" font-size="10.00">pycanha::Parameters</text>
</a>
</g>
</g>
<!-- Node5&#45;&gt;Node4 -->
<g id="edge4_Node000004_Node000005" class="edge">
<title>Node5&#45;&gt;Node4</title>
<g id="a_edge4_Node000004_Node000005"><a xlink:title=" ">
<path fill="none" stroke="#9a32cd" stroke-dasharray="5,2" d="M357.8,-124.44C388.33,-119.97 424.56,-114.67 456.79,-109.96"/>
<polygon fill="#9a32cd" stroke="#9a32cd" points="357.07,-121.01 347.68,-125.92 358.08,-127.93 357.07,-121.01"/>
</a>
</g>
<text text-anchor="middle" x="404.5" y="-125.5" font-family="Helvetica,sans-Serif" font-size="10.00" fill="grey"> parameters</text>
</g>
<!-- Node6 -->
<g id="Node000006" class="node">
<title>Node6</title>
<g id="a_Node000006"><a xlink:href="classpycanha_1_1Formulas.html" target="_top" xlink:title=" ">
<polygon fill="white" stroke="#bfbfbf" points="342.5,-107 233.5,-107 233.5,-88 342.5,-88 342.5,-107"/>
<text text-anchor="middle" x="288" y="-95" font-family="Helvetica,sans-Serif" font-size="10.00">pycanha::Formulas</text>
</a>
</g>
</g>
<!-- Node6&#45;&gt;Node4 -->
<g id="edge5_Node000004_Node000006" class="edge">
<title>Node6&#45;&gt;Node4</title>
<g id="a_edge5_Node000004_Node000006"><a xlink:title=" ">
<path fill="none" stroke="#9a32cd" stroke-dasharray="5,2" d="M353.03,-97.5C384.43,-97.5 422.7,-97.5 456.57,-97.5"/>
<polygon fill="#9a32cd" stroke="#9a32cd" points="352.65,-94 342.65,-97.5 352.65,-101 352.65,-94"/>
</a>
</g>
<text text-anchor="middle" x="404.5" y="-100.5" font-family="Helvetica,sans-Serif" font-size="10.00" fill="grey"> formulas</text>
</g>
<!-- Node7 -->
<g id="Node000007" class="node">
<title>Node7</title>
<g id="a_Node000007"><a xlink:href="classpycanha_1_1ThermalData.html" target="_top" xlink:title=" ">
<polygon fill="white" stroke="#bfbfbf" points="352,-70 224,-70 224,-51 352,-51 352,-70"/>
<text text-anchor="middle" x="288" y="-58" font-family="Helvetica,sans-Serif" font-size="10.00">pycanha::ThermalData</text>
</a>
</g>
</g>
<!-- Node7&#45;&gt;Node4 -->
<g id="edge6_Node000004_Node000007" class="edge">
<title>Node7&#45;&gt;Node4</title>
<g id="a_edge6_Node000004_Node000007"><a xlink:title=" ">
<path fill="none" stroke="#9a32cd" stroke-dasharray="5,2" d="M362.42,-71.24C391.92,-75.55 426.13,-80.56 456.73,-85.03"/>
<polygon fill="#9a32cd" stroke="#9a32cd" points="362.59,-67.73 352.19,-69.74 361.58,-74.65 362.59,-67.73"/>
</a>
</g>
<text text-anchor="middle" x="404.5" y="-84.5" font-family="Helvetica,sans-Serif" font-size="10.00" fill="grey"> thermal_data</text>
</g>
<!-- Node8 -->
<g id="Node000008" class="node">
<title>Node8</title>
<g id="a_Node000008"><a xlink:href="classpycanha_1_1DataTableStore.html" target="_top" xlink:title=" ">
<polygon fill="white" stroke="#bfbfbf" points="140.5,-89 2.5,-89 2.5,-70 140.5,-70 140.5,-89"/>
<text text-anchor="middle" x="71.5" y="-77" font-family="Helvetica,sans-Serif" font-size="10.00">pycanha::DataTableStore</text>
</a>
</g>
</g>
<!-- Node8&#45;&gt;Node7 -->
<g id="edge7_Node000007_Node000008" class="edge">
<title>Node8&#45;&gt;Node7</title>
<g id="a_edge7_Node000007_Node000008"><a xlink:title=" ">
<path fill="none" stroke="#9a32cd" stroke-dasharray="5,2" d="M150.81,-72.56C174.8,-70.44 200.89,-68.13 223.75,-66.1"/>
<polygon fill="#9a32cd" stroke="#9a32cd" points="150.32,-69.09 140.66,-73.46 150.93,-76.07 150.32,-69.09"/>
</a>
</g>
<text text-anchor="middle" x="183.5" y="-73.5" font-family="Helvetica,sans-Serif" font-size="10.00" fill="grey"> _tables</text>
</g>
<!-- Node9 -->
<g id="Node000009" class="node">
<title>Node9</title>
<g id="a_Node000009"><a xlink:href="classpycanha_1_1DataModelStore.html" target="_top" xlink:title=" ">
<polygon fill="white" stroke="#bfbfbf" points="143,-52 0,-52 0,-33 143,-33 143,-52"/>
<text text-anchor="middle" x="71.5" y="-40" font-family="Helvetica,sans-Serif" font-size="10.00">pycanha::DataModelStore</text>
</a>
</g>
</g>
<!-- Node9&#45;&gt;Node7 -->
<g id="edge8_Node000007_Node000009" class="edge">
<title>Node9&#45;&gt;Node7</title>
<g id="a_edge8_Node000007_Node000009"><a xlink:title=" ">
<path fill="none" stroke="#9a32cd" stroke-dasharray="5,2" d="M153.41,-43.09C170.79,-43.73 189.03,-44.79 206,-46.5 216.51,-47.56 227.71,-49.18 238.32,-50.94"/>
<polygon fill="#9a32cd" stroke="#9a32cd" points="153.4,-39.59 143.29,-42.76 153.17,-46.58 153.4,-39.59"/>
</a>
</g>
<text text-anchor="middle" x="183.5" y="-49.5" font-family="Helvetica,sans-Serif" font-size="10.00" fill="grey"> _models</text>
</g>
<!-- Node10 -->
<g id="Node000010" class="node">
<title>Node10</title>
<g id="a_Node000010"><a xlink:href="classpycanha_1_1ThermalNetwork.html" target="_top" xlink:title=" ">
<polygon fill="white" stroke="#bfbfbf" points="616,-64 470,-64 470,-45 616,-45 616,-64"/>
<text text-anchor="middle" x="543" y="-52" font-family="Helvetica,sans-Serif" font-size="10.00">pycanha::ThermalNetwork</text>
</a>
</g>
</g>
<!-- Node10&#45;&gt;Node3 -->
<g id="edge9_Node000003_Node000010" class="edge">
<title>Node10&#45;&gt;Node3</title>
<g id="a_edge9_Node000003_Node000010"><a xlink:title=" ">
<path fill="none" stroke="#9a32cd" stroke-dasharray="5,2" d="M626.34,-54.5C648.72,-54.5 672.19,-54.5 691.83,-54.5"/>
<polygon fill="#9a32cd" stroke="#9a32cd" points="626.15,-51 616.15,-54.5 626.15,-58 626.15,-51"/>
</a>
</g>
<text text-anchor="middle" x="660.5" y="-57.5" font-family="Helvetica,sans-Serif" font-size="10.00" fill="grey"> tnw</text>
</g>
<!-- Node11 -->
<g id="Node000011" class="node">
<title>Node11</title>
<g id="a_Node000011"><a xlink:href="classpycanha_1_1CouplingMatrices.html" target="_top" xlink:title=" ">
<polygon fill="white" stroke="#bfbfbf" points="617.5,-19 468.5,-19 468.5,0 617.5,0 617.5,-19"/>
<text text-anchor="middle" x="543" y="-7" font-family="Helvetica,sans-Serif" font-size="10.00">pycanha::CouplingMatrices</text>
</a>
</g>
</g>
<!-- Node11&#45;&gt;Node3 -->
<g id="edge10_Node000003_Node000011" class="edge">
<title>Node11&#45;&gt;Node3</title>
<g id="a_edge10_Node000003_Node000011"><a xlink:title=" ">
<path fill="none" stroke="#9a32cd" stroke-dasharray="5,2" d="M627.64,-18.72C643.19,-21.28 659.19,-24.49 674,-28.5 689.27,-32.63 705.8,-39.34 718.3,-44.91"/>
<polygon fill="#9a32cd" stroke="#9a32cd" points="627.93,-15.22 617.51,-17.13 626.84,-22.14 627.93,-15.22"/>
</a>
</g>
<text text-anchor="middle" x="660.5" y="-42.5" font-family="Helvetica,sans-Serif" font-size="10.00" fill="grey"> ltcs</text>
<text text-anchor="middle" x="660.5" y="-31.5" font-family="Helvetica,sans-Serif" font-size="10.00" fill="grey">rtcs</text>
</g>
</g>
</svg>
