<?xml version="1.0" encoding="UTF-8" standalone="no"?>
<!DOCTYPE svg PUBLIC "-//W3C//DTD SVG 1.1//EN"
 "http://www.w3.org/Graphics/SVG/1.1/DTD/svg11.dtd">
<!-- Generated by graphviz version 2.43.0 (0)
 -->
<!-- Title: pycanha::SteadyStateSolver Pages: 1 -->
<svg width="762pt" height="152pt"
 viewBox="0.00 0.00 762.00 152.00" xmlns="http://www.w3.org/2000/svg" xmlns:xlink="http://www.w3.org/1999/xlink">
<g id="graph0" class="graph" transform="scale(1 1) rotate(0) translate(4 148)">
<title>pycanha::SteadyStateSolver</title>
<!-- Node1 -->
<g id="Node000001" class="node">
<title>Node1</title>
<g id="a_Node000001"><a xlink:title=" ">
<polygon fill="#999999" stroke="#666666" points="754,-64 600,-64 600,-45 754,-45 754,-64"/>
<text text-anchor="middle" x="677" y="-52" font-family="Helvetica,sans-Serif" font-size="10.00">pycanha::SteadyStateSolver</text>
</a>
</g>
</g>
<!-- Node2 -->
<g id="Node000002" class="node">
<title>Node2</title>
<g id="a_Node000002"><a xlink:href="classpycanha_1_1Solver.html" target="_top" xlink:title=" ">
<polygon fill="white" stroke="#bfbfbf" points="563,-64 468,-64 468,-45 563,-45 563,-64"/>
<text text-anchor="middle" x="515.5" y="-52" font-family="Helvetica,sans-Serif" font-size="10.00">pycanha::Solver</text>
</a>
</g>
</g>
<!-- Node2&#45;&gt;Node1 -->
<g id="edge1_Node000001_Node000002" class="edge">
<title>Node2&#45;&gt;Node1</title>
<g id="a_edge1_Node000001_Node000002"><a xlink:title=" ">
<path fill="none" stroke="#63b8ff" d="M573.08,-54.5C581.8,-54.5 590.92,-54.5 599.97,-54.5"/>
<polygon fill="#63b8ff" stroke="#63b8ff" points="573.06,-51 563.06,-54.5 573.06,-58 573.06,-51"/>
</a>
</g>
</g>
<!-- Node3 -->
<g id="Node000003" class="node">
<title>Node3</title>
<g id="a_Node000003"><a xlink:href="classpycanha_1_1ThermalMathematicalModel.html" target="_top" xlink:title=" ">
<polygon fill="white" stroke="#bfbfbf" points="405,-112.5 233,-112.5 233,-82.5 405,-82.5 405,-112.5"/>
<text text-anchor="start" x="241" y="-100.5" font-family="Helvetica,sans-Serif" font-size="10.00">pycanha::ThermalMathematical</text>
<text text-anchor="middle" x="319" y="-89.5" font-family="Helvetica,sans-Serif" font-size="10.00">Model</text>
</a>
</g>
</g>
<!-- Node3&#45;&gt;Node2 -->
<g id="edge2_Node000002_Node000003" class="edge">
<title>Node3&#45;&gt;Node2</title>
<g id="a_edge2_Node000002_Node000003"><a xlink:title=" ">
<path fill="none" stroke="#9a32cd" stroke-dasharray="5,2" d="M400.91,-80.29C417.18,-76.77 434.14,-73.05 450,-69.5 457.74,-67.77 465.99,-65.88 473.92,-64.04"/>
<polygon fill="#9a32cd" stroke="#9a32cd" points="399.93,-76.92 390.89,-82.45 401.4,-83.76 399.93,-76.92"/>
</a>
</g>
<text text-anchor="middle" x="436.5" y="-77.5" font-family="Helvetica,sans-Serif" font-size="10.00" fill="grey"> tmm</text>
</g>
<!-- Node4 -->
<g id="Node000004" class="node">
<title>Node4</title>
<g id="a_Node000004"><a xlink:href="classpycanha_1_1Parameters.html" target="_top" xlink:title=" ">
<polygon fill="white" stroke="#bfbfbf" points="123.5,-144 4.5,-144 4.5,-125 123.5,-125 123.5,-144"/>
<text text-anchor="middle" x="64" y="-132" font-family="Helvetica,sans-Serif" font-size="10.00">pycanha::Parameters</text>
</a>
</g>
</g>
<!-- Node4&#45;&gt;Node3 -->
<g id="edge3_Node000003_Node000004" class="edge">
<title>Node4&#45;&gt;Node3</title>
<g id="a_edge3_Node000003_Node000004"><a xlink:title=" ">
<path fill="none" stroke="#9a32cd" stroke-dasharray="5,2" d="M133.8,-124.44C164.33,-119.97 200.56,-114.67 232.79,-109.96"/>
<polygon fill="#9a32cd" stroke="#9a32cd" points="133.07,-121.01 123.68,-125.92 134.08,-127.93 133.07,-121.01"/>
</a>
</g>
<text text-anchor="middle" x="180.5" y="-125.5" font-family="Helvetica,sans-Serif" font-size="10.00" fill="grey"> parameters</text>
</g>
<!-- Node5 -->
<g id="Node000005" class="node">
<title>Node5</title>
<g id="a_Node000005"><a xlink:href="classpycanha_1_1Formulas.html" target="_top" xlink:title=" ">
<polygon fill="white" stroke="#bfbfbf" points="118.5,-107 9.5,-107 9.5,-88 118.5,-88 118.5,-107"/>
<text text-anchor="middle" x="64" y="-95" font-family="Helvetica,sans-Serif" font-size="10.00">pycanha::Formulas</text>
</a>
</g>
</g>
<!-- Node5&#45;&gt;Node3 -->
<g id="edge4_Node000003_Node000005" class="edge">
<title>Node5&#45;&gt;Node3</title>
<g id="a_edge4_Node000003_Node000005"><a xlink:title=" ">
<path fill="none" stroke="#9a32cd" stroke-dasharray="5,2" d="M129.03,-97.5C160.43,-97.5 198.7,-97.5 232.57,-97.5"/>
<polygon fill="#9a32cd" stroke="#9a32cd" points="128.65,-94 118.65,-97.5 128.65,-101 128.65,-94"/>
</a>
</g>
<text text-anchor="middle" x="180.5" y="-100.5" font-family="Helvetica,sans-Serif" font-size="10.00" fill="grey"> formulas</text>
</g>
<!-- Node6 -->
<g id="Node000006" class="node">
<title>Node6</title>
<g id="a_Node000006"><a xlink:href="classpycanha_1_1ThermalData.html" target="_top" xlink:title=" ">
<polygon fill="white" stroke="#bfbfbf" points="128,-70 0,-70 0,-51 128,-51 128,-70"/>
<text text-anchor="middle" x="64" y="-58" font-family="Helvetica,sans-Serif" font-size="10.00">pycanha::ThermalData</text>
</a>
</g>
</g>
<!-- Node6&#45;&gt;Node3 -->
<g id="edge5_Node000003_Node000006" class="edge">
<title>Node6&#45;&gt;Node3</title>
<g id="a_edge5_Node000003_Node000006"><a xlink:title=" ">
<path fill="none" stroke="#9a32cd" stroke-dasharray="5,2" d="M138.42,-71.24C167.92,-75.55 202.13,-80.56 232.73,-85.03"/>
<polygon fill="#9a32cd" stroke="#9a32cd" points="138.59,-67.73 128.19,-69.74 137.58,-74.65 138.59,-67.73"/>
</a>
</g>
<text text-anchor="middle" x="180.5" y="-84.5" font-family="Helvetica,sans-Serif" font-size="10.00" fill="grey"> thermal_data</text>
</g>
<!-- Node7 -->
<g id="Node000007" class="node">
<title>Node7</title>
<g id="a_Node000007"><a xlink:href="classpycanha_1_1ThermalNetwork.html" target="_top" xlink:title=" ">
<polygon fill="white" stroke="#bfbfbf" points="392,-64 246,-64 246,-45 392,-45 392,-64"/>
<text text-anchor="middle" x="319" y="-52" font-family="Helvetica,sans-Serif" font-size="10.00">pycanha::ThermalNetwork</text>
</a>
</g>
</g>
<!-- Node7&#45;&gt;Node2 -->
<g id="edge6_Node000002_Node000007" class="edge">
<title>Node7&#45;&gt;Node2</title>
<g id="a_edge6_Node000002_Node000007"><a xlink:title=" ">
<path fill="none" stroke="#9a32cd" stroke-dasharray="5,2" d="M402.34,-54.5C424.72,-54.5 448.19,-54.5 467.83,-54.5"/>
<polygon fill="#9a32cd" stroke="#9a32cd" points="402.15,-51 392.15,-54.5 402.15,-58 402.15,-51"/>
</a>
</g>
<text text-anchor="middle" x="436.5" y="-57.5" font-family="Helvetica,sans-Serif" font-size="10.00" fill="grey"> tnw</text>
</g>
<!-- Node8 -->
<g id="Node000008" class="node">
<title>Node8</title>
<g id="a_Node000008"><a xlink:href="classpycanha_1_1CouplingMatrices.html" target="_top" xlink:title=" ">
<polygon fill="white" stroke="#bfbfbf" points="393.5,-19 244.5,-19 244.5,0 393.5,0 393.5,-19"/>
<text text-anchor="middle" x="319" y="-7" font-family="Helvetica,sans-Serif" font-size="10.00">pycanha::CouplingMatrices</text>
</a>
</g>
</g>
<!-- Node8&#45;&gt;Node2 -->
<g id="edge7_Node000002_Node000008" class="edge">
<title>Node8&#45;&gt;Node2</title>
<g id="a_edge7_Node000002_Node000008"><a xlink:title=" ">
<path fill="none" stroke="#9a32cd" stroke-dasharray="5,2" d="M403.64,-18.72C419.19,-21.28 435.19,-24.49 450,-28.5 465.27,-32.63 481.8,-39.34 494.3,-44.91"/>
<polygon fill="#9a32cd" stroke="#9a32cd" points="403.93,-15.22 393.51,-17.13 402.84,-22.14 403.93,-15.22"/>
</a>
</g>
<text text-anchor="middle" x="436.5" y="-42.5" font-family="Helvetica,sans-Serif" font-size="10.00" fill="grey"> ltcs</text>
<text text-anchor="middle" x="436.5" y="-31.5" font-family="Helvetica,sans-Serif" font-size="10.00" fill="grey">rtcs</text>
</g>
</g>
</svg>
