<?xml version="1.0" encoding="UTF-8" standalone="no"?>
<!DOCTYPE svg PUBLIC "-//W3C//DTD SVG 1.1//EN"
 "http://www.w3.org/Graphics/SVG/1.1/DTD/svg11.dtd">
<!-- Generated by graphviz version 2.43.0 (0)
 -->
<!-- Title: pycanha::gmm::GeometryModel Pages: 1 -->
<svg width="470pt" height="116pt"
 viewBox="0.00 0.00 470.00 116.00" xmlns="http://www.w3.org/2000/svg" xmlns:xlink="http://www.w3.org/1999/xlink">
<g id="graph0" class="graph" transform="scale(1 1) rotate(0) translate(4 112)">
<title>pycanha::gmm::GeometryModel</title>
<!-- Node1 -->
<g id="node1" class="node">
<title>Node1</title>
<g id="a_node1"><a xlink:title="Class representing a geometrical mathematical model.">
<polygon fill="#bfbfbf" stroke="black" points="288,-44.5 288,-63.5 462,-63.5 462,-44.5 288,-44.5"/>
<text text-anchor="middle" x="375" y="-51.5" font-family="Helvetica,sans-Serif" font-size="10.00">pycanha::gmm::GeometryModel</text>
</a>
</g>
</g>
<!-- Node2 -->
<g id="node2" class="node">
<title>Node2</title>
<g id="a_node2"><a xlink:href="classpycanha_1_1gmm_1_1UniqueID.html" target="_top" xlink:title="Provides a unique integer id.">
<polygon fill="none" stroke="black" points="15,-88.5 15,-107.5 155,-107.5 155,-88.5 15,-88.5"/>
<text text-anchor="middle" x="85" y="-95.5" font-family="Helvetica,sans-Serif" font-size="10.00">pycanha::gmm::UniqueID</text>
</a>
</g>
</g>
<!-- Node2&#45;&gt;Node1 -->
<g id="edge1" class="edge">
<title>Node2&#45;&gt;Node1</title>
<path fill="none" stroke="midnightblue" d="M158.64,-86.9C205.81,-79.7 266.65,-70.4 311.63,-63.53"/>
<polygon fill="midnightblue" stroke="midnightblue" points="157.85,-83.48 148.49,-88.45 158.91,-90.4 157.85,-83.48"/>
</g>
<!-- Node3 -->
<g id="node3" class="node">
<title>Node3</title>
<g id="a_node3"><a xlink:title=" ">
<polygon fill="none" stroke="#bfbfbf" points="0,-39 0,-69 170,-69 170,-39 0,-39"/>
<text text-anchor="start" x="8" y="-57" font-family="Helvetica,sans-Serif" font-size="10.00">std::enable_shared</text>
<text text-anchor="middle" x="85" y="-46" font-family="Helvetica,sans-Serif" font-size="10.00">_from_this&lt; GeometryModel &gt;</text>
</a>
</g>
</g>
<!-- Node3&#45;&gt;Node1 -->
<g id="edge2" class="edge">
<title>Node3&#45;&gt;Node1</title>
<path fill="none" stroke="midnightblue" d="M180.2,-54C214.86,-54 253.91,-54 287.82,-54"/>
<polygon fill="midnightblue" stroke="midnightblue" points="180.08,-50.5 170.08,-54 180.08,-57.5 180.08,-50.5"/>
</g>
<!-- Node4 -->
<g id="node4" class="node">
<title>Node4</title>
<g id="a_node4"><a xlink:href="classpycanha_1_1gmm_1_1TriMeshModel.html" target="_top" xlink:title="A collection of TriMeshes in a compacted cache&#45;friendly format.">
<polygon fill="none" stroke="black" points="3.5,-0.5 3.5,-19.5 166.5,-19.5 166.5,-0.5 3.5,-0.5"/>
<text text-anchor="middle" x="85" y="-7.5" font-family="Helvetica,sans-Serif" font-size="10.00">pycanha::gmm::TriMeshModel</text>
</a>
</g>
</g>
<!-- Node4&#45;&gt;Node1 -->
<g id="edge3" class="edge">
<title>Node4&#45;&gt;Node1</title>
<path fill="none" stroke="#9a32cd" stroke-dasharray="5,2" d="M158.64,-21.1C205.81,-28.3 266.65,-37.6 311.63,-44.47"/>
<polygon fill="#9a32cd" stroke="#9a32cd" points="158.91,-17.6 148.49,-19.55 157.85,-24.52 158.91,-17.6"/>
<text text-anchor="middle" x="229" y="-40" font-family="Helvetica,sans-Serif" font-size="10.00"> _trimesh_model</text>
</g>
</g>
</svg>
