<?xml version="1.0" encoding="UTF-8" standalone="no"?>
<!DOCTYPE svg PUBLIC "-//W3C//DTD SVG 1.1//EN"
 "http://www.w3.org/Graphics/SVG/1.1/DTD/svg11.dtd">
<!-- Generated by graphviz version 2.43.0 (0)
 -->
<!-- Title: pycanha::ESATANReader Pages: 1 -->
<svg width="703pt" height="181pt"
 viewBox="0.00 0.00 702.50 181.00" xmlns="http://www.w3.org/2000/svg" xmlns:xlink="http://www.w3.org/1999/xlink">
<g id="graph0" class="graph" transform="scale(1 1) rotate(0) translate(4 177)">
<title>pycanha::ESATANReader</title>
<!-- Node1 -->
<g id="Node000001" class="node">
<title>Node1</title>
<g id="a_Node000001"><a xlink:title=" ">
<polygon fill="#999999" stroke="#666666" points="543.5,-19 406.5,-19 406.5,0 543.5,0 543.5,-19"/>
<text text-anchor="middle" x="475" y="-7" font-family="Helvetica,sans-Serif" font-size="10.00">pycanha::ESATANReader</text>
</a>
</g>
</g>
<!-- Node2 -->
<g id="Node000002" class="node">
<title>Node2</title>
<g id="a_Node000002"><a xlink:href="classpycanha_1_1ThermalMathematicalModel.html" target="_top" xlink:title=" ">
<polygon fill="white" stroke="#bfbfbf" points="566,-107 394,-107 394,-77 566,-77 566,-107"/>
<text text-anchor="start" x="402" y="-95" font-family="Helvetica,sans-Serif" font-size="10.00">pycanha::ThermalMathematical</text>
<text text-anchor="middle" x="480" y="-84" font-family="Helvetica,sans-Serif" font-size="10.00">Model</text>
</a>
</g>
</g>
<!-- Node2&#45;&gt;Node1 -->
<g id="edge1_Node000001_Node000002" class="edge">
<title>Node2&#45;&gt;Node1</title>
<g id="a_edge1_Node000001_Node000002"><a xlink:title=" ">
<path fill="none" stroke="#9a32cd" stroke-dasharray="5,2" d="M478.49,-66.7C477.5,-50.7 476.25,-30.7 475.55,-19.38"/>
<polygon fill="#9a32cd" stroke="#9a32cd" points="475.02,-67.21 479.13,-76.98 482,-66.78 475.02,-67.21"/>
</a>
</g>
<text text-anchor="middle" x="497" y="-45.5" font-family="Helvetica,sans-Serif" font-size="10.00" fill="grey"> _model</text>
</g>
<!-- Node4 -->
<g id="Node000004" class="node">
<title>Node4</title>
<g id="a_Node000004"><a xlink:href="classpycanha_1_1Solver.html" target="_top" xlink:title=" ">
<polygon fill="white" stroke="#bfbfbf" points="308.5,-19 213.5,-19 213.5,0 308.5,0 308.5,-19"/>
<text text-anchor="middle" x="261" y="-7" font-family="Helvetica,sans-Serif" font-size="10.00">pycanha::Solver</text>
</a>
</g>
</g>
<!-- Node2&#45;&gt;Node4 -->
<g id="edge4_Node000004_Node000002" class="edge">
<title>Node2&#45;&gt;Node4</title>
<g id="a_edge4_Node000004_Node000002"><a xlink:title=" ">
<path fill="none" stroke="#9a32cd" stroke-dasharray="5,2" d="M383.95,-84.64C340.99,-80.02 296.36,-72.17 280,-59 267.75,-49.13 263.37,-30.27 261.83,-19.2"/>
<polygon fill="#9a32cd" stroke="#9a32cd" points="383.64,-88.13 393.95,-85.67 384.35,-81.17 383.64,-88.13"/>
</a>
</g>
<text text-anchor="middle" x="293.5" y="-45.5" font-family="Helvetica,sans-Serif" font-size="10.00" fill="grey"> tmm</text>
</g>
<!-- Node7 -->
<g id="Node000007" class="node">
<title>Node7</title>
<g id="a_Node000007"><a xlink:href="classpycanha_1_1EntitiesHelper.html" target="_top" xlink:title=" ">
<polygon fill="white" stroke="#bfbfbf" points="694.5,-19 561.5,-19 561.5,0 694.5,0 694.5,-19"/>
<text text-anchor="middle" x="628" y="-7" font-family="Helvetica,sans-Serif" font-size="10.00">pycanha::EntitiesHelper</text>
</a>
</g>
</g>
<!-- Node2&#45;&gt;Node7 -->
<g id="edge8_Node000007_Node000002" class="edge">
<title>Node2&#45;&gt;Node7</title>
<g id="a_edge8_Node000007_Node000002"><a xlink:title=" ">
<path fill="none" stroke="#9a32cd" stroke-dasharray="5,2" d="M506.69,-70.79C521.82,-59.91 541.39,-46.75 560,-37 573.47,-29.94 589.25,-23.68 602.22,-19.02"/>
<polygon fill="#9a32cd" stroke="#9a32cd" points="504.35,-68.17 498.34,-76.89 508.48,-73.82 504.35,-68.17"/>
</a>
</g>
<text text-anchor="middle" x="576" y="-45.5" font-family="Helvetica,sans-Serif" font-size="10.00" fill="grey"> _tmm</text>
</g>
<!-- Node3 -->
<g id="Node000003" class="node">
<title>Node3</title>
<g id="a_Node000003"><a xlink:href="classpycanha_1_1SolverRegistry.html" target="_top" xlink:title=" ">
<polygon fill="white" stroke="#bfbfbf" points="547.5,-173 412.5,-173 412.5,-154 547.5,-154 547.5,-173"/>
<text text-anchor="middle" x="480" y="-161" font-family="Helvetica,sans-Serif" font-size="10.00">pycanha::SolverRegistry</text>
</a>
</g>
</g>
<!-- Node3&#45;&gt;Node2 -->
<g id="edge2_Node000002_Node000003" class="edge">
<title>Node3&#45;&gt;Node2</title>
<g id="a_edge2_Node000002_Node000003"><a xlink:title=" ">
<path fill="none" stroke="#9a32cd" stroke-dasharray="5,2" d="M480,-143.71C480,-132.19 480,-117.68 480,-107.14"/>
<polygon fill="#9a32cd" stroke="#9a32cd" points="476.5,-143.98 480,-153.98 483.5,-143.98 476.5,-143.98"/>
</a>
</g>
<text text-anchor="middle" x="502" y="-128" font-family="Helvetica,sans-Serif" font-size="10.00" fill="grey"> _solvers</text>
</g>
<!-- Node4&#45;&gt;Node2 -->
<g id="edge3_Node000002_Node000004" class="edge">
<title>Node4&#45;&gt;Node2</title>
<g id="a_edge3_Node000002_Node000004"><a xlink:title=" ">
<path fill="none" stroke="#9a32cd" stroke-dasharray="5,2" d="M286.82,-23.88C294.63,-28.01 303.21,-32.62 311,-37 327.68,-46.37 330.28,-51.78 348,-59 366.01,-66.34 386.13,-72.28 405.11,-76.95"/>
<polygon fill="#9a32cd" stroke="#9a32cd" points="288.26,-20.68 277.78,-19.13 285.01,-26.88 288.26,-20.68"/>
</a>
</g>
<text text-anchor="middle" x="410" y="-45.5" font-family="Helvetica,sans-Serif" font-size="10.00" fill="grey"> _current_callback_solver</text>
</g>
<!-- Node5 -->
<g id="Node000005" class="node">
<title>Node5</title>
<g id="a_Node000005"><a xlink:href="classpycanha_1_1ThermalNetwork.html" target="_top" xlink:title=" ">
<polygon fill="white" stroke="#bfbfbf" points="146,-101.5 0,-101.5 0,-82.5 146,-82.5 146,-101.5"/>
<text text-anchor="middle" x="73" y="-89.5" font-family="Helvetica,sans-Serif" font-size="10.00">pycanha::ThermalNetwork</text>
</a>
</g>
</g>
<!-- Node5&#45;&gt;Node4 -->
<g id="edge5_Node000004_Node000005" class="edge">
<title>Node5&#45;&gt;Node4</title>
<g id="a_edge5_Node000004_Node000005"><a xlink:title=" ">
<path fill="none" stroke="#9a32cd" stroke-dasharray="5,2" d="M102.78,-78.25C141.45,-61.69 207.91,-33.23 241.03,-19.05"/>
<polygon fill="#9a32cd" stroke="#9a32cd" points="100.93,-75.23 93.12,-82.39 103.69,-81.67 100.93,-75.23"/>
</a>
</g>
<text text-anchor="middle" x="206" y="-45.5" font-family="Helvetica,sans-Serif" font-size="10.00" fill="grey"> tnw</text>
</g>
<!-- Node6 -->
<g id="Node000006" class="node">
<title>Node6</title>
<g id="a_Node000006"><a xlink:href="classpycanha_1_1CouplingMatrices.html" target="_top" xlink:title=" ">
<polygon fill="white" stroke="#bfbfbf" points="313.5,-101.5 164.5,-101.5 164.5,-82.5 313.5,-82.5 313.5,-101.5"/>
<text text-anchor="middle" x="239" y="-89.5" font-family="Helvetica,sans-Serif" font-size="10.00">pycanha::CouplingMatrices</text>
</a>
</g>
</g>
<!-- Node6&#45;&gt;Node4 -->
<g id="edge6_Node000004_Node000006" class="edge">
<title>Node6&#45;&gt;Node4</title>
<g id="a_edge6_Node000004_Node000006"><a xlink:title=" ">
<path fill="none" stroke="#9a32cd" stroke-dasharray="5,2" d="M236.43,-72.05C235.71,-61.44 236,-48.15 240,-37 242.38,-30.37 247.14,-24.13 251.53,-19.38"/>
<polygon fill="#9a32cd" stroke="#9a32cd" points="232.98,-72.69 237.49,-82.28 239.94,-71.97 232.98,-72.69"/>
</a>
</g>
<text text-anchor="middle" x="250.5" y="-51" font-family="Helvetica,sans-Serif" font-size="10.00" fill="grey"> ltcs</text>
<text text-anchor="middle" x="250.5" y="-40" font-family="Helvetica,sans-Serif" font-size="10.00" fill="grey">rtcs</text>
</g>
<!-- Node7&#45;&gt;Node2 -->
<g id="edge7_Node000002_Node000007" class="edge">
<title>Node7&#45;&gt;Node2</title>
<g id="a_edge7_Node000002_Node000007"><a xlink:title=" ">
<path fill="none" stroke="#9a32cd" stroke-dasharray="5,2" d="M620.31,-28.14C614.93,-38.55 606.76,-51.18 596,-59 585.44,-66.68 573.12,-72.51 560.53,-76.95"/>
<polygon fill="#9a32cd" stroke="#9a32cd" points="623.5,-29.6 624.62,-19.06 617.17,-26.6 623.5,-29.6"/>
</a>
</g>
<text text-anchor="middle" x="637" y="-45.5" font-family="Helvetica,sans-Serif" font-size="10.00" fill="grey"> _entities</text>
</g>
</g>
</svg>
