<?xml version="1.0" encoding="UTF-8" standalone="no"?>
<!DOCTYPE svg PUBLIC "-//W3C//DTD SVG 1.1//EN"
 "http://www.w3.org/Graphics/SVG/1.1/DTD/svg11.dtd">
<!-- Generated by graphviz version 2.43.0 (0)
 -->
<!-- Title: pycanha::gmm::Disc::create_mesh Pages: 1 -->
<svg width="633pt" height="774pt"
 viewBox="0.00 0.00 633.00 774.00" xmlns="http://www.w3.org/2000/svg" xmlns:xlink="http://www.w3.org/1999/xlink">
<g id="graph0" class="graph" transform="scale(1 1) rotate(0) translate(4 770)">
<title>pycanha::gmm::Disc::create_mesh</title>
<!-- Node1 -->
<g id="node1" class="node">
<title>Node1</title>
<g id="a_node1"><a xlink:title="Creates the triangular mesh from the primitive.">
<polygon fill="#bfbfbf" stroke="black" points="0,-367.5 0,-397.5 116,-397.5 116,-367.5 0,-367.5"/>
<text text-anchor="start" x="8" y="-385.5" font-family="Helvetica,sans-Serif" font-size="10.00">pycanha::gmm::Disc</text>
<text text-anchor="middle" x="58" y="-374.5" font-family="Helvetica,sans-Serif" font-size="10.00">::create_mesh</text>
</a>
</g>
</g>
<!-- Node2 -->
<g id="node2" class="node">
<title>Node2</title>
<g id="a_node2"><a xlink:href="classpycanha_1_1gmm_1_1Disc.html#a1010f80f61b08fb6113893a32a7ceff5" target="_top" xlink:title="3D coordinates of a point ON the primitive surface from 2D coordinates. Note: The method is not valid...">
<polygon fill="none" stroke="black" points="160.5,-735.5 160.5,-765.5 276.5,-765.5 276.5,-735.5 160.5,-735.5"/>
<text text-anchor="start" x="168.5" y="-753.5" font-family="Helvetica,sans-Serif" font-size="10.00">pycanha::gmm::Disc</text>
<text text-anchor="middle" x="218.5" y="-742.5" font-family="Helvetica,sans-Serif" font-size="10.00">::from_2d_to_3d</text>
</a>
</g>
</g>
<!-- Node1&#45;&gt;Node2 -->
<g id="edge1" class="edge">
<title>Node1&#45;&gt;Node2</title>
<path fill="none" stroke="midnightblue" d="M58.49,-397.86C57.58,-450.81 61.72,-627.98 152,-726.5 152.78,-727.35 153.59,-728.17 154.43,-728.96"/>
<polygon fill="midnightblue" stroke="midnightblue" points="152.61,-731.97 162.67,-735.31 156.88,-726.43 152.61,-731.97"/>
</g>
<!-- Node5 -->
<g id="node5" class="node">
<title>Node5</title>
<g id="a_node5"><a xlink:href="classpycanha_1_1gmm_1_1Disc.html#a15e488ca7d69c8d41c80ab70342689f5" target="_top" xlink:title="2D coordinates of a point ON the primitive surface from 3D coordinates. Note: It is assumed that the ...">
<polygon fill="none" stroke="black" points="160.5,-686.5 160.5,-716.5 276.5,-716.5 276.5,-686.5 160.5,-686.5"/>
<text text-anchor="start" x="168.5" y="-704.5" font-family="Helvetica,sans-Serif" font-size="10.00">pycanha::gmm::Disc</text>
<text text-anchor="middle" x="218.5" y="-693.5" font-family="Helvetica,sans-Serif" font-size="10.00">::from_3d_to_2d</text>
</a>
</g>
</g>
<!-- Node1&#45;&gt;Node5 -->
<g id="edge5" class="edge">
<title>Node1&#45;&gt;Node5</title>
<path fill="none" stroke="midnightblue" d="M59.3,-397.67C61.08,-445.49 72.99,-594.79 152,-677.5 152.92,-678.46 153.88,-679.38 154.87,-680.27"/>
<polygon fill="midnightblue" stroke="midnightblue" points="153.01,-683.24 163.13,-686.36 157.16,-677.61 153.01,-683.24"/>
</g>
<!-- Node6 -->
<g id="node6" class="node">
<title>Node6</title>
<g id="a_node6"><a xlink:href="classpycanha_1_1gmm_1_1Disc.html#a4c41f143b301831ef15df062a5a0be63" target="_top" xlink:title="Returns the end angle of the disc.">
<polygon fill="none" stroke="black" points="160.5,-637.5 160.5,-667.5 276.5,-667.5 276.5,-637.5 160.5,-637.5"/>
<text text-anchor="start" x="168.5" y="-655.5" font-family="Helvetica,sans-Serif" font-size="10.00">pycanha::gmm::Disc</text>
<text text-anchor="middle" x="218.5" y="-644.5" font-family="Helvetica,sans-Serif" font-size="10.00">::get_end_angle</text>
</a>
</g>
</g>
<!-- Node1&#45;&gt;Node6 -->
<g id="edge8" class="edge">
<title>Node1&#45;&gt;Node6</title>
<path fill="none" stroke="midnightblue" d="M60.4,-397.54C65.11,-439.89 84.18,-561.37 152,-628.5 153.08,-629.56 154.2,-630.58 155.37,-631.56"/>
<polygon fill="midnightblue" stroke="midnightblue" points="153.45,-634.48 163.65,-637.35 157.47,-628.75 153.45,-634.48"/>
</g>
<!-- Node7 -->
<g id="node7" class="node">
<title>Node7</title>
<g id="a_node7"><a xlink:href="classpycanha_1_1gmm_1_1TriMesh.html#a81f6628b978aaeac9d36fafc63e0eead" target="_top" xlink:title="Get face ids vector.">
<polygon fill="none" stroke="black" points="152,-588.5 152,-618.5 285,-618.5 285,-588.5 152,-588.5"/>
<text text-anchor="start" x="160" y="-606.5" font-family="Helvetica,sans-Serif" font-size="10.00">pycanha::gmm::TriMesh</text>
<text text-anchor="middle" x="218.5" y="-595.5" font-family="Helvetica,sans-Serif" font-size="10.00">::get_face_ids</text>
</a>
</g>
</g>
<!-- Node1&#45;&gt;Node7 -->
<g id="edge9" class="edge">
<title>Node1&#45;&gt;Node7</title>
<path fill="none" stroke="midnightblue" d="M62.02,-397.67C70.06,-434.18 95.33,-527.7 152,-579.5 153.29,-580.68 154.64,-581.8 156.05,-582.87"/>
<polygon fill="midnightblue" stroke="midnightblue" points="154.29,-585.9 164.58,-588.42 158.11,-580.03 154.29,-585.9"/>
</g>
<!-- Node8 -->
<g id="node8" class="node">
<title>Node8</title>
<g id="a_node8"><a xlink:href="classpycanha_1_1gmm_1_1Disc.html#a578a2348582f419e910b199a125f6f88" target="_top" xlink:title="Returns the ID of the face in the thermal mesh that contains the given UV coordinates....">
<polygon fill="none" stroke="black" points="159,-539.5 159,-569.5 278,-569.5 278,-539.5 159,-539.5"/>
<text text-anchor="start" x="167" y="-557.5" font-family="Helvetica,sans-Serif" font-size="10.00">pycanha::gmm::Disc</text>
<text text-anchor="middle" x="218.5" y="-546.5" font-family="Helvetica,sans-Serif" font-size="10.00">::get_faceid_from_uv</text>
</a>
</g>
</g>
<!-- Node1&#45;&gt;Node8 -->
<g id="edge10" class="edge">
<title>Node1&#45;&gt;Node8</title>
<path fill="none" stroke="midnightblue" d="M64.67,-397.82C76.43,-427.56 106.24,-493.46 152,-530.5 153.59,-531.79 155.25,-533.01 156.97,-534.16"/>
<polygon fill="midnightblue" stroke="midnightblue" points="155.6,-537.41 165.99,-539.45 159.14,-531.38 155.6,-537.41"/>
</g>
<!-- Node9 -->
<g id="node9" class="node">
<title>Node9</title>
<g id="a_node9"><a xlink:href="classpycanha_1_1gmm_1_1Disc.html#a4147b74fb02d5e0be945a78de485f8c8" target="_top" xlink:title="Returns the inner radius of the disc.">
<polygon fill="none" stroke="black" points="160.5,-490.5 160.5,-520.5 276.5,-520.5 276.5,-490.5 160.5,-490.5"/>
<text text-anchor="start" x="168.5" y="-508.5" font-family="Helvetica,sans-Serif" font-size="10.00">pycanha::gmm::Disc</text>
<text text-anchor="middle" x="218.5" y="-497.5" font-family="Helvetica,sans-Serif" font-size="10.00">::get_inner_radius</text>
</a>
</g>
</g>
<!-- Node1&#45;&gt;Node9 -->
<g id="edge11" class="edge">
<title>Node1&#45;&gt;Node9</title>
<path fill="none" stroke="midnightblue" d="M69.62,-397.67C85.35,-419.1 116.78,-458.23 152,-481.5 154.29,-483.01 156.69,-484.45 159.15,-485.8"/>
<polygon fill="midnightblue" stroke="midnightblue" points="157.82,-489.05 168.33,-490.37 160.94,-482.78 157.82,-489.05"/>
</g>
<!-- Node10 -->
<g id="node10" class="node">
<title>Node10</title>
<g id="a_node10"><a xlink:href="classpycanha_1_1gmm_1_1Disc.html#ac6aa4cebf3265294f27998f841bf5975" target="_top" xlink:title="Returns the outer radius of the disc.">
<polygon fill="none" stroke="black" points="160.5,-441.5 160.5,-471.5 276.5,-471.5 276.5,-441.5 160.5,-441.5"/>
<text text-anchor="start" x="168.5" y="-459.5" font-family="Helvetica,sans-Serif" font-size="10.00">pycanha::gmm::Disc</text>
<text text-anchor="middle" x="218.5" y="-448.5" font-family="Helvetica,sans-Serif" font-size="10.00">::get_outer_radius</text>
</a>
</g>
</g>
<!-- Node1&#45;&gt;Node10 -->
<g id="edge12" class="edge">
<title>Node1&#45;&gt;Node10</title>
<path fill="none" stroke="midnightblue" d="M84.56,-397.52C102.97,-408.01 128.59,-421.98 152,-432.5 156.02,-434.31 160.23,-436.09 164.48,-437.81"/>
<polygon fill="midnightblue" stroke="midnightblue" points="163.23,-441.08 173.82,-441.48 165.79,-434.56 163.23,-441.08"/>
</g>
<!-- Node11 -->
<g id="node11" class="node">
<title>Node11</title>
<g id="a_node11"><a xlink:href="classpycanha_1_1gmm_1_1Disc.html#acb3bc280f0a329d139c37d983edb756f" target="_top" xlink:title="Returns the first point of the disc.">
<polygon fill="none" stroke="black" points="160.5,-392.5 160.5,-422.5 276.5,-422.5 276.5,-392.5 160.5,-392.5"/>
<text text-anchor="start" x="168.5" y="-410.5" font-family="Helvetica,sans-Serif" font-size="10.00">pycanha::gmm::Disc</text>
<text text-anchor="middle" x="218.5" y="-399.5" font-family="Helvetica,sans-Serif" font-size="10.00">::get_p1</text>
</a>
</g>
</g>
<!-- Node1&#45;&gt;Node11 -->
<g id="edge13" class="edge">
<title>Node1&#45;&gt;Node11</title>
<path fill="none" stroke="midnightblue" d="M116.22,-391.53C127.33,-393.28 139.07,-395.13 150.46,-396.93"/>
<polygon fill="midnightblue" stroke="midnightblue" points="149.94,-400.39 160.36,-398.49 151.03,-393.47 149.94,-400.39"/>
</g>
<!-- Node12 -->
<g id="node12" class="node">
<title>Node12</title>
<g id="a_node12"><a xlink:href="classpycanha_1_1gmm_1_1Disc.html#a2658c136b4e712defa0f88ad313137f1" target="_top" xlink:title="Returns the third point of the disc.">
<polygon fill="none" stroke="black" points="160.5,-343.5 160.5,-373.5 276.5,-373.5 276.5,-343.5 160.5,-343.5"/>
<text text-anchor="start" x="168.5" y="-361.5" font-family="Helvetica,sans-Serif" font-size="10.00">pycanha::gmm::Disc</text>
<text text-anchor="middle" x="218.5" y="-350.5" font-family="Helvetica,sans-Serif" font-size="10.00">::get_p3</text>
</a>
</g>
</g>
<!-- Node1&#45;&gt;Node12 -->
<g id="edge14" class="edge">
<title>Node1&#45;&gt;Node12</title>
<path fill="none" stroke="midnightblue" d="M116.22,-373.84C127.33,-372.15 139.07,-370.38 150.46,-368.65"/>
<polygon fill="midnightblue" stroke="midnightblue" points="151,-372.11 160.36,-367.15 149.95,-365.19 151,-372.11"/>
</g>
<!-- Node13 -->
<g id="node13" class="node">
<title>Node13</title>
<g id="a_node13"><a xlink:href="classpycanha_1_1gmm_1_1Color.html#a6b0ff80336dd7c71b042dd65fb5534da" target="_top" xlink:title="Get the RGB values.">
<polygon fill="none" stroke="black" points="158,-294.5 158,-324.5 279,-324.5 279,-294.5 158,-294.5"/>
<text text-anchor="start" x="166" y="-312.5" font-family="Helvetica,sans-Serif" font-size="10.00">pycanha::gmm::Color</text>
<text text-anchor="middle" x="218.5" y="-301.5" font-family="Helvetica,sans-Serif" font-size="10.00">::get_rgb</text>
</a>
</g>
</g>
<!-- Node1&#45;&gt;Node13 -->
<g id="edge15" class="edge">
<title>Node1&#45;&gt;Node13</title>
<path fill="none" stroke="midnightblue" d="M86.28,-367.4C104.61,-357.5 129.44,-344.59 152,-334.5 156.67,-332.41 161.58,-330.33 166.51,-328.32"/>
<polygon fill="midnightblue" stroke="midnightblue" points="167.99,-331.5 175.98,-324.54 165.4,-325 167.99,-331.5"/>
</g>
<!-- Node14 -->
<g id="node14" class="node">
<title>Node14</title>
<g id="a_node14"><a xlink:href="classpycanha_1_1gmm_1_1Disc.html#a1f09a722bc330036df14d4aeb3c89953" target="_top" xlink:title="Returns the start angle of the disc.">
<polygon fill="none" stroke="black" points="160.5,-245.5 160.5,-275.5 276.5,-275.5 276.5,-245.5 160.5,-245.5"/>
<text text-anchor="start" x="168.5" y="-263.5" font-family="Helvetica,sans-Serif" font-size="10.00">pycanha::gmm::Disc</text>
<text text-anchor="middle" x="218.5" y="-252.5" font-family="Helvetica,sans-Serif" font-size="10.00">::get_start_angle</text>
</a>
</g>
</g>
<!-- Node1&#45;&gt;Node14 -->
<g id="edge16" class="edge">
<title>Node1&#45;&gt;Node14</title>
<path fill="none" stroke="midnightblue" d="M70,-367.36C85.95,-346.38 117.39,-308.45 152,-285.5 154.93,-283.56 158.03,-281.74 161.23,-280.03"/>
<polygon fill="midnightblue" stroke="midnightblue" points="162.98,-283.07 170.43,-275.54 159.91,-276.78 162.98,-283.07"/>
</g>
<!-- Node15 -->
<g id="node15" class="node">
<title>Node15</title>
<g id="a_node15"><a xlink:href="classpycanha_1_1gmm_1_1TriMesh.html#a113cdc2728d6b47e8841ef9732ebd9b2" target="_top" xlink:title="Get triangles matrix.">
<polygon fill="none" stroke="black" points="152,-196.5 152,-226.5 285,-226.5 285,-196.5 152,-196.5"/>
<text text-anchor="start" x="160" y="-214.5" font-family="Helvetica,sans-Serif" font-size="10.00">pycanha::gmm::TriMesh</text>
<text text-anchor="middle" x="218.5" y="-203.5" font-family="Helvetica,sans-Serif" font-size="10.00">::get_triangles</text>
</a>
</g>
</g>
<!-- Node1&#45;&gt;Node15 -->
<g id="edge17" class="edge">
<title>Node1&#45;&gt;Node15</title>
<path fill="none" stroke="midnightblue" d="M64.77,-367.44C76.71,-338.19 106.82,-273.35 152,-236.5 154.06,-234.82 156.25,-233.24 158.53,-231.76"/>
<polygon fill="midnightblue" stroke="midnightblue" points="160.73,-234.54 167.68,-226.54 157.26,-228.46 160.73,-234.54"/>
</g>
<!-- Node16 -->
<g id="node16" class="node">
<title>Node16</title>
<g id="a_node16"><a xlink:href="classpycanha_1_1gmm_1_1TriMesh.html#a5e7a2cc9ec97ba48a13277d2c391e928" target="_top" xlink:title="Get vertices matrix.">
<polygon fill="none" stroke="black" points="152,-147.5 152,-177.5 285,-177.5 285,-147.5 152,-147.5"/>
<text text-anchor="start" x="160" y="-165.5" font-family="Helvetica,sans-Serif" font-size="10.00">pycanha::gmm::TriMesh</text>
<text text-anchor="middle" x="218.5" y="-154.5" font-family="Helvetica,sans-Serif" font-size="10.00">::get_vertices</text>
</a>
</g>
</g>
<!-- Node1&#45;&gt;Node16 -->
<g id="edge18" class="edge">
<title>Node1&#45;&gt;Node16</title>
<path fill="none" stroke="midnightblue" d="M62.17,-367.26C70.48,-331.04 96.18,-239 152,-187.5 153.71,-185.92 155.53,-184.44 157.43,-183.05"/>
<polygon fill="midnightblue" stroke="midnightblue" points="159.62,-185.81 166.22,-177.52 155.89,-179.89 159.62,-185.81"/>
</g>
<!-- Node17 -->
<g id="node17" class="node">
<title>Node17</title>
<g id="a_node17"><a xlink:href="classpycanha_1_1gmm_1_1TriMesh.html#a27e1232524b78c47b58b8d4d45d8172d" target="_top" xlink:title="Set the surface 1 color.">
<polygon fill="none" stroke="black" points="152,-98.5 152,-128.5 285,-128.5 285,-98.5 152,-98.5"/>
<text text-anchor="start" x="160" y="-116.5" font-family="Helvetica,sans-Serif" font-size="10.00">pycanha::gmm::TriMesh</text>
<text text-anchor="middle" x="218.5" y="-105.5" font-family="Helvetica,sans-Serif" font-size="10.00">::set_surface1_color</text>
</a>
</g>
</g>
<!-- Node1&#45;&gt;Node17 -->
<g id="edge19" class="edge">
<title>Node1&#45;&gt;Node17</title>
<path fill="none" stroke="midnightblue" d="M60.52,-367.32C65.51,-325.16 85.18,-205.35 152,-138.5 153.45,-137.05 155,-135.68 156.62,-134.39"/>
<polygon fill="midnightblue" stroke="midnightblue" points="158.92,-137.05 165.25,-128.56 155,-131.25 158.92,-137.05"/>
</g>
<!-- Node18 -->
<g id="node18" class="node">
<title>Node18</title>
<g id="a_node18"><a xlink:href="classpycanha_1_1gmm_1_1TriMesh.html#a331d5c97a882188d4454694b4a2a4af9" target="_top" xlink:title="Set the surface 2 color.">
<polygon fill="none" stroke="black" points="152,-49.5 152,-79.5 285,-79.5 285,-49.5 152,-49.5"/>
<text text-anchor="start" x="160" y="-67.5" font-family="Helvetica,sans-Serif" font-size="10.00">pycanha::gmm::TriMesh</text>
<text text-anchor="middle" x="218.5" y="-56.5" font-family="Helvetica,sans-Serif" font-size="10.00">::set_surface2_color</text>
</a>
</g>
</g>
<!-- Node1&#45;&gt;Node18 -->
<g id="edge20" class="edge">
<title>Node1&#45;&gt;Node18</title>
<path fill="none" stroke="midnightblue" d="M59.38,-367.47C61.4,-320.1 73.95,-172.15 152,-89.5 153.38,-88.04 154.85,-86.66 156.4,-85.37"/>
<polygon fill="midnightblue" stroke="midnightblue" points="158.54,-88.14 164.7,-79.53 154.51,-82.42 158.54,-88.14"/>
</g>
<!-- Node19 -->
<g id="node19" class="node">
<title>Node19</title>
<g id="a_node19"><a xlink:href="classpycanha_1_1gmm_1_1TriMesh.html#a7f0a8a501de5c2d065f71e164b956b39" target="_top" xlink:title="Sort the triangles according to the face ids.">
<polygon fill="none" stroke="black" points="152,-0.5 152,-30.5 285,-30.5 285,-0.5 152,-0.5"/>
<text text-anchor="start" x="160" y="-18.5" font-family="Helvetica,sans-Serif" font-size="10.00">pycanha::gmm::TriMesh</text>
<text text-anchor="middle" x="218.5" y="-7.5" font-family="Helvetica,sans-Serif" font-size="10.00">::sort_triangles</text>
</a>
</g>
</g>
<!-- Node1&#45;&gt;Node19 -->
<g id="edge21" class="edge">
<title>Node1&#45;&gt;Node19</title>
<path fill="none" stroke="midnightblue" d="M58.57,-367.28C57.91,-314.76 62.79,-139.02 152,-40.5 153.21,-39.17 154.49,-37.9 155.85,-36.71"/>
<polygon fill="midnightblue" stroke="midnightblue" points="158.23,-39.3 164.22,-30.56 154.09,-33.66 158.23,-39.3"/>
</g>
<!-- Node3 -->
<g id="node3" class="node">
<title>Node3</title>
<g id="a_node3"><a xlink:href="classpycanha_1_1gmm_1_1Disc.html#a517c77be943d5862ac5bb77ceaf91e78" target="_top" xlink:title="Returns the first direction v1 = p2 &#45; p1.">
<polygon fill="none" stroke="black" points="491,-716 491,-735 625,-735 625,-716 491,-716"/>
<text text-anchor="middle" x="558" y="-723" font-family="Helvetica,sans-Serif" font-size="10.00">pycanha::gmm::Disc::v1</text>
</a>
</g>
</g>
<!-- Node2&#45;&gt;Node3 -->
<g id="edge2" class="edge">
<title>Node2&#45;&gt;Node3</title>
<path fill="none" stroke="midnightblue" d="M276.77,-751.57C324.56,-751.86 394.4,-750.88 455,-744.5 471.02,-742.81 488.29,-739.99 503.99,-737.02"/>
<polygon fill="midnightblue" stroke="midnightblue" points="504.9,-740.41 514.04,-735.07 503.56,-733.54 504.9,-740.41"/>
</g>
<!-- Node4 -->
<g id="node4" class="node">
<title>Node4</title>
<g id="a_node4"><a xlink:href="classpycanha_1_1gmm_1_1Disc.html#ac73c900dbe32b0e7437d9d8d787696b2" target="_top" xlink:title="Returns the second direction v2 = p3 &#45; p2.">
<polygon fill="none" stroke="black" points="321,-716 321,-735 455,-735 455,-716 321,-716"/>
<text text-anchor="middle" x="388" y="-723" font-family="Helvetica,sans-Serif" font-size="10.00">pycanha::gmm::Disc::v2</text>
</a>
</g>
</g>
<!-- Node2&#45;&gt;Node4 -->
<g id="edge3" class="edge">
<title>Node2&#45;&gt;Node4</title>
<path fill="none" stroke="midnightblue" d="M276.68,-741.97C288.37,-740.22 300.84,-738.36 313.03,-736.54"/>
<polygon fill="midnightblue" stroke="midnightblue" points="313.81,-739.96 323.18,-735.02 312.78,-733.04 313.81,-739.96"/>
</g>
<!-- Node4&#45;&gt;Node3 -->
<g id="edge4" class="edge">
<title>Node4&#45;&gt;Node3</title>
<path fill="none" stroke="midnightblue" d="M455.4,-725.5C463.68,-725.5 472.2,-725.5 480.62,-725.5"/>
<polygon fill="midnightblue" stroke="midnightblue" points="480.81,-729 490.81,-725.5 480.81,-722 480.81,-729"/>
</g>
<!-- Node5&#45;&gt;Node3 -->
<g id="edge6" class="edge">
<title>Node5&#45;&gt;Node3</title>
<path fill="none" stroke="midnightblue" d="M276.77,-700.12C324.55,-699.58 394.39,-700.25 455,-706.5 471.17,-708.17 488.61,-711.02 504.42,-714.01"/>
<polygon fill="midnightblue" stroke="midnightblue" points="504.06,-717.51 514.55,-715.99 505.4,-710.64 504.06,-717.51"/>
</g>
<!-- Node5&#45;&gt;Node4 -->
<g id="edge7" class="edge">
<title>Node5&#45;&gt;Node4</title>
<path fill="none" stroke="midnightblue" d="M276.68,-709.69C287.67,-711.27 299.35,-712.94 310.83,-714.59"/>
<polygon fill="midnightblue" stroke="midnightblue" points="310.46,-718.07 320.85,-716.02 311.45,-711.14 310.46,-718.07"/>
</g>
</g>
</svg>
