<?xml version="1.0" encoding="UTF-8" standalone="no"?>
<!DOCTYPE svg PUBLIC "-//W3C//DTD SVG 1.1//EN"
 "http://www.w3.org/Graphics/SVG/1.1/DTD/svg11.dtd">
<!-- Generated by graphviz version 2.43.0 (0)
 -->
<!-- Title: pycanha::gmm::GeometryGroup Pages: 1 -->
<svg width="181pt" height="207pt"
 viewBox="0.00 0.00 181.00 207.00" xmlns="http://www.w3.org/2000/svg" xmlns:xlink="http://www.w3.org/1999/xlink">
<g id="graph0" class="graph" transform="scale(1 1) rotate(0) translate(4 203)">
<title>pycanha::gmm::GeometryGroup</title>
<!-- Node1 -->
<g id="node1" class="node">
<title>Node1</title>
<g id="a_node1"><a xlink:title="Class representing a group of geometric items. Inherits from Geometry.">
<polygon fill="#bfbfbf" stroke="black" points="0,-67.5 0,-86.5 173,-86.5 173,-67.5 0,-67.5"/>
<text text-anchor="middle" x="86.5" y="-74.5" font-family="Helvetica,sans-Serif" font-size="10.00">pycanha::gmm::GeometryGroup</text>
</a>
</g>
</g>
<!-- Node4 -->
<g id="node4" class="node">
<title>Node4</title>
<g id="a_node4"><a xlink:href="classpycanha_1_1gmm_1_1GeometryGroupCutted.html" target="_top" xlink:title="Class representing a cutted geometry.">
<polygon fill="none" stroke="black" points="0,-0.5 0,-30.5 173,-30.5 173,-0.5 0,-0.5"/>
<text text-anchor="start" x="8" y="-18.5" font-family="Helvetica,sans-Serif" font-size="10.00">pycanha::gmm::GeometryGroup</text>
<text text-anchor="middle" x="86.5" y="-7.5" font-family="Helvetica,sans-Serif" font-size="10.00">Cutted</text>
</a>
</g>
</g>
<!-- Node1&#45;&gt;Node4 -->
<g id="edge3" class="edge">
<title>Node1&#45;&gt;Node4</title>
<path fill="none" stroke="midnightblue" d="M86.5,-57.23C86.5,-48.59 86.5,-38.5 86.5,-30.52"/>
<polygon fill="midnightblue" stroke="midnightblue" points="83,-57.48 86.5,-67.48 90,-57.48 83,-57.48"/>
</g>
<!-- Node2 -->
<g id="node2" class="node">
<title>Node2</title>
<g id="a_node2"><a xlink:href="classpycanha_1_1gmm_1_1Geometry.html" target="_top" xlink:title="Base class for geometric items.">
<polygon fill="none" stroke="black" points="14.5,-123.5 14.5,-142.5 158.5,-142.5 158.5,-123.5 14.5,-123.5"/>
<text text-anchor="middle" x="86.5" y="-130.5" font-family="Helvetica,sans-Serif" font-size="10.00">pycanha::gmm::Geometry</text>
</a>
</g>
</g>
<!-- Node2&#45;&gt;Node1 -->
<g id="edge1" class="edge">
<title>Node2&#45;&gt;Node1</title>
<path fill="none" stroke="midnightblue" d="M86.5,-112.8C86.5,-103.91 86.5,-93.78 86.5,-86.75"/>
<polygon fill="midnightblue" stroke="midnightblue" points="83,-113.08 86.5,-123.08 90,-113.08 83,-113.08"/>
</g>
<!-- Node3 -->
<g id="node3" class="node">
<title>Node3</title>
<g id="a_node3"><a xlink:href="classpycanha_1_1gmm_1_1UniqueID.html" target="_top" xlink:title="Provides a unique integer id.">
<polygon fill="none" stroke="black" points="16.5,-179.5 16.5,-198.5 156.5,-198.5 156.5,-179.5 16.5,-179.5"/>
<text text-anchor="middle" x="86.5" y="-186.5" font-family="Helvetica,sans-Serif" font-size="10.00">pycanha::gmm::UniqueID</text>
</a>
</g>
</g>
<!-- Node3&#45;&gt;Node2 -->
<g id="edge2" class="edge">
<title>Node3&#45;&gt;Node2</title>
<path fill="none" stroke="midnightblue" d="M86.5,-168.8C86.5,-159.91 86.5,-149.78 86.5,-142.75"/>
<polygon fill="midnightblue" stroke="midnightblue" points="83,-169.08 86.5,-179.08 90,-169.08 83,-169.08"/>
</g>
</g>
</svg>
