<?xml version="1.0" encoding="UTF-8" standalone="no"?>
<!DOCTYPE svg PUBLIC "-//W3C//DTD SVG 1.1//EN"
 "http://www.w3.org/Graphics/SVG/1.1/DTD/svg11.dtd">
<!-- Generated by graphviz version 2.43.0 (0)
 -->
<!-- Title: pycanha::TransientSolver Pages: 1 -->
<svg width="177pt" height="302pt"
 viewBox="0.00 0.00 177.00 302.00" xmlns="http://www.w3.org/2000/svg" xmlns:xlink="http://www.w3.org/1999/xlink">
<g id="graph0" class="graph" transform="scale(1 1) rotate(0) translate(4 298)">
<title>pycanha::TransientSolver</title>
<!-- Node1 -->
<g id="Node000001" class="node">
<title>Node1</title>
<g id="a_Node000001"><a xlink:title=" ">
<polygon fill="#999999" stroke="#666666" points="154,-239 15,-239 15,-220 154,-220 154,-239"/>
<text text-anchor="middle" x="84.5" y="-227" font-family="Helvetica,sans-Serif" font-size="10.00">pycanha::TransientSolver</text>
</a>
</g>
</g>
<!-- Node3 -->
<g id="Node000003" class="node">
<title>Node3</title>
<g id="a_Node000003"><a xlink:href="classpycanha_1_1TSCN.html" target="_top" xlink:title=" ">
<polygon fill="white" stroke="#bfbfbf" points="129.5,-184 39.5,-184 39.5,-165 129.5,-165 129.5,-184"/>
<text text-anchor="middle" x="84.5" y="-172" font-family="Helvetica,sans-Serif" font-size="10.00">pycanha::TSCN</text>
</a>
</g>
</g>
<!-- Node1&#45;&gt;Node3 -->
<g id="edge2_Node000001_Node000003" class="edge">
<title>Node1&#45;&gt;Node3</title>
<g id="a_edge2_Node000001_Node000003"><a xlink:title=" ">
<path fill="none" stroke="#63b8ff" d="M84.5,-209.66C84.5,-200.93 84.5,-190.99 84.5,-184.09"/>
<polygon fill="#63b8ff" stroke="#63b8ff" points="81,-209.75 84.5,-219.75 88,-209.75 81,-209.75"/>
</a>
</g>
</g>
<!-- Node2 -->
<g id="Node000002" class="node">
<title>Node2</title>
<g id="a_Node000002"><a xlink:href="classpycanha_1_1Solver.html" target="_top" xlink:title=" ">
<polygon fill="white" stroke="#bfbfbf" points="132,-294 37,-294 37,-275 132,-275 132,-294"/>
<text text-anchor="middle" x="84.5" y="-282" font-family="Helvetica,sans-Serif" font-size="10.00">pycanha::Solver</text>
</a>
</g>
</g>
<!-- Node2&#45;&gt;Node1 -->
<g id="edge1_Node000001_Node000002" class="edge">
<title>Node2&#45;&gt;Node1</title>
<g id="a_edge1_Node000001_Node000002"><a xlink:title=" ">
<path fill="none" stroke="#63b8ff" d="M84.5,-264.66C84.5,-255.93 84.5,-245.99 84.5,-239.09"/>
<polygon fill="#63b8ff" stroke="#63b8ff" points="81,-264.75 84.5,-274.75 88,-264.75 81,-264.75"/>
</a>
</g>
</g>
<!-- Node4 -->
<g id="Node000004" class="node">
<title>Node4</title>
<g id="a_Node000004"><a xlink:href="classpycanha_1_1TSCNRL.html" target="_top" xlink:title=" ">
<polygon fill="white" stroke="#bfbfbf" points="135.5,-129 33.5,-129 33.5,-110 135.5,-110 135.5,-129"/>
<text text-anchor="middle" x="84.5" y="-117" font-family="Helvetica,sans-Serif" font-size="10.00">pycanha::TSCNRL</text>
</a>
</g>
</g>
<!-- Node3&#45;&gt;Node4 -->
<g id="edge3_Node000003_Node000004" class="edge">
<title>Node3&#45;&gt;Node4</title>
<g id="a_edge3_Node000003_Node000004"><a xlink:title=" ">
<path fill="none" stroke="#63b8ff" d="M84.5,-154.66C84.5,-145.93 84.5,-135.99 84.5,-129.09"/>
<polygon fill="#63b8ff" stroke="#63b8ff" points="81,-154.75 84.5,-164.75 88,-154.75 81,-154.75"/>
</a>
</g>
</g>
<!-- Node5 -->
<g id="Node000005" class="node">
<title>Node5</title>
<g id="a_Node000005"><a xlink:href="classpycanha_1_1TSCNRLDS.html" target="_top" xlink:title=" ">
<polygon fill="white" stroke="#bfbfbf" points="142.5,-74 26.5,-74 26.5,-55 142.5,-55 142.5,-74"/>
<text text-anchor="middle" x="84.5" y="-62" font-family="Helvetica,sans-Serif" font-size="10.00">pycanha::TSCNRLDS</text>
</a>
</g>
</g>
<!-- Node4&#45;&gt;Node5 -->
<g id="edge4_Node000004_Node000005" class="edge">
<title>Node4&#45;&gt;Node5</title>
<g id="a_edge4_Node000004_Node000005"><a xlink:title=" ">
<path fill="none" stroke="#63b8ff" d="M84.5,-99.66C84.5,-90.93 84.5,-80.99 84.5,-74.09"/>
<polygon fill="#63b8ff" stroke="#63b8ff" points="81,-99.75 84.5,-109.75 88,-99.75 81,-99.75"/>
</a>
</g>
</g>
<!-- Node6 -->
<g id="Node000006" class="node">
<title>Node6</title>
<g id="a_Node000006"><a xlink:href="classpycanha_1_1TSCNRLDS__JACOBIAN.html" target="_top" xlink:title=" ">
<polygon fill="white" stroke="#bfbfbf" points="169,-19 0,-19 0,0 169,0 169,-19"/>
<text text-anchor="middle" x="84.5" y="-7" font-family="Helvetica,sans-Serif" font-size="10.00">pycanha::TSCNRLDS_JACOBIAN</text>
</a>
</g>
</g>
<!-- Node5&#45;&gt;Node6 -->
<g id="edge5_Node000005_Node000006" class="edge">
<title>Node5&#45;&gt;Node6</title>
<g id="a_edge5_Node000005_Node000006"><a xlink:title=" ">
<path fill="none" stroke="#63b8ff" d="M84.5,-44.66C84.5,-35.93 84.5,-25.99 84.5,-19.09"/>
<polygon fill="#63b8ff" stroke="#63b8ff" points="81,-44.75 84.5,-54.75 88,-44.75 81,-44.75"/>
</a>
</g>
</g>
</g>
</svg>
