<?xml version="1.0" encoding="UTF-8" standalone="no"?>
<!DOCTYPE svg PUBLIC "-//W3C//DTD SVG 1.1//EN"
 "http://www.w3.org/Graphics/SVG/1.1/DTD/svg11.dtd">
<!-- Generated by graphviz version 2.43.0 (0)
 -->
<!-- Title: pycanha::gmm::Primitive Pages: 1 -->
<svg width="346pt" height="93pt"
 viewBox="0.00 0.00 345.50 93.00" xmlns="http://www.w3.org/2000/svg" xmlns:xlink="http://www.w3.org/1999/xlink">
<g id="graph0" class="graph" transform="scale(1 1) rotate(0) translate(4 89)">
<title>pycanha::gmm::Primitive</title>
<!-- Node1 -->
<g id="Node000001" class="node">
<title>Node1</title>
<g id="a_Node000001"><a xlink:title="A geometry primitive.">
<polygon fill="#999999" stroke="#666666" points="229,-19 89,-19 89,0 229,0 229,-19"/>
<text text-anchor="middle" x="159" y="-7" font-family="Helvetica,sans-Serif" font-size="10.00">pycanha::gmm::Primitive</text>
</a>
</g>
</g>
<!-- Node2 -->
<g id="Node000002" class="node">
<title>Node2</title>
<g id="a_Node000002"><a xlink:href="classpycanha_1_1gmm_1_1UniqueID.html" target="_top" xlink:title="Provides a unique integer id.">
<polygon fill="white" stroke="#666666" points="140,-79.5 0,-79.5 0,-60.5 140,-60.5 140,-79.5"/>
<text text-anchor="middle" x="70" y="-67.5" font-family="Helvetica,sans-Serif" font-size="10.00">pycanha::gmm::UniqueID</text>
</a>
</g>
</g>
<!-- Node2&#45;&gt;Node1 -->
<g id="edge1_Node000001_Node000002" class="edge">
<title>Node2&#45;&gt;Node1</title>
<g id="a_edge1_Node000001_Node000002"><a xlink:title=" ">
<path fill="none" stroke="#63b8ff" d="M91.82,-54.66C108.73,-43.55 131.59,-28.51 145.81,-19.17"/>
<polygon fill="#63b8ff" stroke="#63b8ff" points="89.57,-51.95 83.13,-60.37 93.41,-57.8 89.57,-51.95"/>
</a>
</g>
</g>
<!-- Node3 -->
<g id="Node000003" class="node">
<title>Node3</title>
<g id="a_Node000003"><a xlink:href="classpycanha_1_1gmm_1_1GeometryUpdateCallback.html" target="_top" xlink:title=" ">
<polygon fill="white" stroke="#bfbfbf" points="337.5,-85 158.5,-85 158.5,-55 337.5,-55 337.5,-85"/>
<text text-anchor="start" x="166.5" y="-73" font-family="Helvetica,sans-Serif" font-size="10.00">pycanha::gmm::GeometryUpdate</text>
<text text-anchor="middle" x="248" y="-62" font-family="Helvetica,sans-Serif" font-size="10.00">Callback</text>
</a>
</g>
</g>
<!-- Node3&#45;&gt;Node1 -->
<g id="edge2_Node000001_Node000003" class="edge">
<title>Node3&#45;&gt;Node1</title>
<g id="a_edge2_Node000001_Node000003"><a xlink:title=" ">
<path fill="none" stroke="#63b8ff" d="M217.67,-49.06C202.13,-38.85 184.02,-26.95 172.08,-19.09"/>
<polygon fill="#63b8ff" stroke="#63b8ff" points="216.18,-52.27 226.46,-54.84 220.02,-46.42 216.18,-52.27"/>
</a>
</g>
</g>
</g>
</svg>
