<?xml version="1.0" encoding="UTF-8" standalone="no"?>
<!DOCTYPE svg PUBLIC "-//W3C//DTD SVG 1.1//EN"
 "http://www.w3.org/Graphics/SVG/1.1/DTD/svg11.dtd">
<!-- Generated by graphviz version 2.43.0 (0)
 -->
<!-- Title: pycanha::gmm::Cylinder::create_mesh Pages: 1 -->
<svg width="488pt" height="623pt"
 viewBox="0.00 0.00 488.00 623.00" xmlns="http://www.w3.org/2000/svg" xmlns:xlink="http://www.w3.org/1999/xlink">
<g id="graph0" class="graph" transform="scale(1 1) rotate(0) translate(4 619)">
<title>pycanha::gmm::Cylinder::create_mesh</title>
<!-- Node1 -->
<g id="node1" class="node">
<title>Node1</title>
<g id="a_node1"><a xlink:title="Creates the triangular mesh from the primitive.">
<polygon fill="#bfbfbf" stroke="black" points="0,-316.5 0,-346.5 136,-346.5 136,-316.5 0,-316.5"/>
<text text-anchor="start" x="8" y="-334.5" font-family="Helvetica,sans-Serif" font-size="10.00">pycanha::gmm::Cylinder</text>
<text text-anchor="middle" x="68" y="-323.5" font-family="Helvetica,sans-Serif" font-size="10.00">::create_mesh</text>
</a>
</g>
</g>
<!-- Node2 -->
<g id="node2" class="node">
<title>Node2</title>
<g id="a_node2"><a xlink:href="classpycanha_1_1gmm_1_1Cylinder.html#a6bf9a74e8eaf64b40ac6f45c59ea3f65" target="_top" xlink:title="3D coordinates of a point ON the primitive surface from 2D coordinates. Note: The method is not valid...">
<polygon fill="none" stroke="black" points="172,-584.5 172,-614.5 308,-614.5 308,-584.5 172,-584.5"/>
<text text-anchor="start" x="180" y="-602.5" font-family="Helvetica,sans-Serif" font-size="10.00">pycanha::gmm::Cylinder</text>
<text text-anchor="middle" x="240" y="-591.5" font-family="Helvetica,sans-Serif" font-size="10.00">::from_2d_to_3d</text>
</a>
</g>
</g>
<!-- Node1&#45;&gt;Node2 -->
<g id="edge1" class="edge">
<title>Node1&#45;&gt;Node2</title>
<path fill="none" stroke="midnightblue" d="M71.62,-346.73C79.46,-387.95 106.36,-503.03 172,-569.5 175.6,-573.15 179.73,-576.39 184.12,-579.26"/>
<polygon fill="midnightblue" stroke="midnightblue" points="182.43,-582.33 192.83,-584.34 185.96,-576.28 182.43,-582.33"/>
</g>
<!-- Node3 -->
<g id="node3" class="node">
<title>Node3</title>
<g id="a_node3"><a xlink:href="classpycanha_1_1gmm_1_1Cylinder.html#a6beb7ed803cea0337ed3cb8a22365792" target="_top" xlink:title="Returns the end angle of the cylinder.">
<polygon fill="none" stroke="black" points="344,-539.5 344,-569.5 480,-569.5 480,-539.5 344,-539.5"/>
<text text-anchor="start" x="352" y="-557.5" font-family="Helvetica,sans-Serif" font-size="10.00">pycanha::gmm::Cylinder</text>
<text text-anchor="middle" x="412" y="-546.5" font-family="Helvetica,sans-Serif" font-size="10.00">::get_end_angle</text>
</a>
</g>
</g>
<!-- Node1&#45;&gt;Node3 -->
<g id="edge2" class="edge">
<title>Node1&#45;&gt;Node3</title>
<path fill="none" stroke="midnightblue" d="M72.12,-346.72C80.66,-384.1 108.17,-480.58 172,-524.5 218.89,-556.77 283.49,-563.2 333.71,-562.15"/>
<polygon fill="midnightblue" stroke="midnightblue" points="333.99,-565.65 343.87,-561.84 333.77,-558.65 333.99,-565.65"/>
</g>
<!-- Node4 -->
<g id="node4" class="node">
<title>Node4</title>
<g id="a_node4"><a xlink:href="classpycanha_1_1gmm_1_1TriMesh.html#a81f6628b978aaeac9d36fafc63e0eead" target="_top" xlink:title="Get face ids vector.">
<polygon fill="none" stroke="black" points="173.5,-294.5 173.5,-324.5 306.5,-324.5 306.5,-294.5 173.5,-294.5"/>
<text text-anchor="start" x="181.5" y="-312.5" font-family="Helvetica,sans-Serif" font-size="10.00">pycanha::gmm::TriMesh</text>
<text text-anchor="middle" x="240" y="-301.5" font-family="Helvetica,sans-Serif" font-size="10.00">::get_face_ids</text>
</a>
</g>
</g>
<!-- Node1&#45;&gt;Node4 -->
<g id="edge3" class="edge">
<title>Node1&#45;&gt;Node4</title>
<path fill="none" stroke="midnightblue" d="M136.19,-322.81C145.09,-321.65 154.26,-320.47 163.3,-319.3"/>
<polygon fill="midnightblue" stroke="midnightblue" points="163.94,-322.74 173.41,-317.99 163.04,-315.8 163.94,-322.74"/>
</g>
<!-- Node5 -->
<g id="node5" class="node">
<title>Node5</title>
<g id="a_node5"><a xlink:href="classpycanha_1_1gmm_1_1Cylinder.html#ae6e9725aa439500d0da3f09629420e3f" target="_top" xlink:title="Returns the ID of the face in the thermal mesh that contains the given UV coordinates....">
<polygon fill="none" stroke="black" points="172,-458.5 172,-488.5 308,-488.5 308,-458.5 172,-458.5"/>
<text text-anchor="start" x="180" y="-476.5" font-family="Helvetica,sans-Serif" font-size="10.00">pycanha::gmm::Cylinder</text>
<text text-anchor="middle" x="240" y="-465.5" font-family="Helvetica,sans-Serif" font-size="10.00">::get_faceid_from_uv</text>
</a>
</g>
</g>
<!-- Node1&#45;&gt;Node5 -->
<g id="edge4" class="edge">
<title>Node1&#45;&gt;Node5</title>
<path fill="none" stroke="midnightblue" d="M79.78,-346.74C96.99,-370.16 132.77,-415.25 172,-443.5 177.23,-447.26 183,-450.71 188.9,-453.82"/>
<polygon fill="midnightblue" stroke="midnightblue" points="187.7,-457.13 198.22,-458.42 190.8,-450.85 187.7,-457.13"/>
</g>
<!-- Node6 -->
<g id="node6" class="node">
<title>Node6</title>
<g id="a_node6"><a xlink:href="classpycanha_1_1gmm_1_1Cylinder.html#ae88cc5f161c9b1b8451e8743f0165140" target="_top" xlink:title="Returns the first point of the cylinder.">
<polygon fill="none" stroke="black" points="344,-490.5 344,-520.5 480,-520.5 480,-490.5 344,-490.5"/>
<text text-anchor="start" x="352" y="-508.5" font-family="Helvetica,sans-Serif" font-size="10.00">pycanha::gmm::Cylinder</text>
<text text-anchor="middle" x="412" y="-497.5" font-family="Helvetica,sans-Serif" font-size="10.00">::get_p1</text>
</a>
</g>
</g>
<!-- Node1&#45;&gt;Node6 -->
<g id="edge10" class="edge">
<title>Node1&#45;&gt;Node6</title>
<path fill="none" stroke="midnightblue" d="M73.01,-346.57C83.03,-380.84 112.71,-464.26 172,-498.5 220.51,-526.52 284.29,-526.94 333.77,-521.08"/>
<polygon fill="midnightblue" stroke="midnightblue" points="334.31,-524.53 343.78,-519.78 333.41,-517.59 334.31,-524.53"/>
</g>
<!-- Node7 -->
<g id="node7" class="node">
<title>Node7</title>
<g id="a_node7"><a xlink:href="classpycanha_1_1gmm_1_1Cylinder.html#af8c604069c7bb98a807e9e8348929935" target="_top" xlink:title="Returns the second point of the cylinder.">
<polygon fill="none" stroke="black" points="344,-441.5 344,-471.5 480,-471.5 480,-441.5 344,-441.5"/>
<text text-anchor="start" x="352" y="-459.5" font-family="Helvetica,sans-Serif" font-size="10.00">pycanha::gmm::Cylinder</text>
<text text-anchor="middle" x="412" y="-448.5" font-family="Helvetica,sans-Serif" font-size="10.00">::get_p2</text>
</a>
</g>
</g>
<!-- Node1&#45;&gt;Node7 -->
<g id="edge11" class="edge">
<title>Node1&#45;&gt;Node7</title>
<path fill="none" stroke="midnightblue" d="M93.24,-346.64C113.65,-358.9 143.94,-375.98 172,-387.5 224.97,-409.24 287.17,-426.97 334.84,-439.01"/>
<polygon fill="midnightblue" stroke="midnightblue" points="334.23,-442.47 344.78,-441.49 335.92,-435.67 334.23,-442.47"/>
</g>
<!-- Node8 -->
<g id="node8" class="node">
<title>Node8</title>
<g id="a_node8"><a xlink:href="classpycanha_1_1gmm_1_1Cylinder.html#a9311fb67f5f5a26986ec7c872a9e8344" target="_top" xlink:title="Returns the radius of the cylinder.">
<polygon fill="none" stroke="black" points="344,-391.5 344,-421.5 480,-421.5 480,-391.5 344,-391.5"/>
<text text-anchor="start" x="352" y="-409.5" font-family="Helvetica,sans-Serif" font-size="10.00">pycanha::gmm::Cylinder</text>
<text text-anchor="middle" x="412" y="-398.5" font-family="Helvetica,sans-Serif" font-size="10.00">::get_radius</text>
</a>
</g>
</g>
<!-- Node1&#45;&gt;Node8 -->
<g id="edge12" class="edge">
<title>Node1&#45;&gt;Node8</title>
<path fill="none" stroke="midnightblue" d="M123.91,-346.53C139.42,-350.6 156.33,-354.88 172,-358.5 225.78,-370.94 286.8,-383.16 333.72,-392.16"/>
<polygon fill="midnightblue" stroke="midnightblue" points="333.33,-395.65 343.81,-394.09 334.65,-388.77 333.33,-395.65"/>
</g>
<!-- Node9 -->
<g id="node9" class="node">
<title>Node9</title>
<g id="a_node9"><a xlink:href="classpycanha_1_1gmm_1_1Cylinder.html#aff728f73d0160468bb95fe907db65a77" target="_top" xlink:title="Returns the start angle of the cylinder.">
<polygon fill="none" stroke="black" points="344,-341.5 344,-371.5 480,-371.5 480,-341.5 344,-341.5"/>
<text text-anchor="start" x="352" y="-359.5" font-family="Helvetica,sans-Serif" font-size="10.00">pycanha::gmm::Cylinder</text>
<text text-anchor="middle" x="412" y="-348.5" font-family="Helvetica,sans-Serif" font-size="10.00">::get_start_angle</text>
</a>
</g>
</g>
<!-- Node1&#45;&gt;Node9 -->
<g id="edge14" class="edge">
<title>Node1&#45;&gt;Node9</title>
<path fill="none" stroke="midnightblue" d="M136.16,-336.41C192.98,-340.56 274.43,-346.52 333.9,-350.86"/>
<polygon fill="midnightblue" stroke="midnightblue" points="333.76,-354.36 343.99,-351.6 334.28,-347.38 333.76,-354.36"/>
</g>
<!-- Node10 -->
<g id="node10" class="node">
<title>Node10</title>
<g id="a_node10"><a xlink:href="classpycanha_1_1gmm_1_1Color.html#a6b0ff80336dd7c71b042dd65fb5534da" target="_top" xlink:title="Get the RGB values.">
<polygon fill="none" stroke="black" points="179.5,-245.5 179.5,-275.5 300.5,-275.5 300.5,-245.5 179.5,-245.5"/>
<text text-anchor="start" x="187.5" y="-263.5" font-family="Helvetica,sans-Serif" font-size="10.00">pycanha::gmm::Color</text>
<text text-anchor="middle" x="240" y="-252.5" font-family="Helvetica,sans-Serif" font-size="10.00">::get_rgb</text>
</a>
</g>
</g>
<!-- Node1&#45;&gt;Node10 -->
<g id="edge13" class="edge">
<title>Node1&#45;&gt;Node10</title>
<path fill="none" stroke="midnightblue" d="M100.26,-316.41C120.52,-306.83 147.6,-294.42 172,-284.5 176.42,-282.7 181.03,-280.91 185.67,-279.14"/>
<polygon fill="midnightblue" stroke="midnightblue" points="187.04,-282.37 195.19,-275.59 184.6,-275.81 187.04,-282.37"/>
</g>
<!-- Node11 -->
<g id="node11" class="node">
<title>Node11</title>
<g id="a_node11"><a xlink:href="classpycanha_1_1gmm_1_1TriMesh.html#a113cdc2728d6b47e8841ef9732ebd9b2" target="_top" xlink:title="Get triangles matrix.">
<polygon fill="none" stroke="black" points="173.5,-196.5 173.5,-226.5 306.5,-226.5 306.5,-196.5 173.5,-196.5"/>
<text text-anchor="start" x="181.5" y="-214.5" font-family="Helvetica,sans-Serif" font-size="10.00">pycanha::gmm::TriMesh</text>
<text text-anchor="middle" x="240" y="-203.5" font-family="Helvetica,sans-Serif" font-size="10.00">::get_triangles</text>
</a>
</g>
</g>
<!-- Node1&#45;&gt;Node11 -->
<g id="edge15" class="edge">
<title>Node1&#45;&gt;Node11</title>
<path fill="none" stroke="midnightblue" d="M81.51,-316.5C99.56,-295.71 134.84,-258.14 172,-235.5 174.66,-233.88 177.44,-232.35 180.3,-230.9"/>
<polygon fill="midnightblue" stroke="midnightblue" points="182.03,-233.96 189.62,-226.56 179.08,-227.61 182.03,-233.96"/>
</g>
<!-- Node12 -->
<g id="node12" class="node">
<title>Node12</title>
<g id="a_node12"><a xlink:href="classpycanha_1_1gmm_1_1TriMesh.html#a5e7a2cc9ec97ba48a13277d2c391e928" target="_top" xlink:title="Get vertices matrix.">
<polygon fill="none" stroke="black" points="173.5,-147.5 173.5,-177.5 306.5,-177.5 306.5,-147.5 173.5,-147.5"/>
<text text-anchor="start" x="181.5" y="-165.5" font-family="Helvetica,sans-Serif" font-size="10.00">pycanha::gmm::TriMesh</text>
<text text-anchor="middle" x="240" y="-154.5" font-family="Helvetica,sans-Serif" font-size="10.00">::get_vertices</text>
</a>
</g>
</g>
<!-- Node1&#45;&gt;Node12 -->
<g id="edge16" class="edge">
<title>Node1&#45;&gt;Node12</title>
<path fill="none" stroke="midnightblue" d="M75.8,-316.47C89.72,-287.3 124.26,-222.68 172,-186.5 173.84,-185.11 175.77,-183.79 177.76,-182.54"/>
<polygon fill="midnightblue" stroke="midnightblue" points="179.79,-185.42 186.86,-177.52 176.41,-179.29 179.79,-185.42"/>
</g>
<!-- Node13 -->
<g id="node13" class="node">
<title>Node13</title>
<g id="a_node13"><a xlink:href="classpycanha_1_1gmm_1_1TriMesh.html#a27e1232524b78c47b58b8d4d45d8172d" target="_top" xlink:title="Set the surface 1 color.">
<polygon fill="none" stroke="black" points="173.5,-98.5 173.5,-128.5 306.5,-128.5 306.5,-98.5 173.5,-98.5"/>
<text text-anchor="start" x="181.5" y="-116.5" font-family="Helvetica,sans-Serif" font-size="10.00">pycanha::gmm::TriMesh</text>
<text text-anchor="middle" x="240" y="-105.5" font-family="Helvetica,sans-Serif" font-size="10.00">::set_surface1_color</text>
</a>
</g>
</g>
<!-- Node1&#45;&gt;Node13 -->
<g id="edge17" class="edge">
<title>Node1&#45;&gt;Node13</title>
<path fill="none" stroke="midnightblue" d="M72.96,-316.24C83.15,-280.01 113.61,-188.03 172,-137.5 173.35,-136.33 174.76,-135.22 176.22,-134.16"/>
<polygon fill="midnightblue" stroke="midnightblue" points="178.41,-136.92 185.04,-128.66 174.71,-130.98 178.41,-136.92"/>
</g>
<!-- Node14 -->
<g id="node14" class="node">
<title>Node14</title>
<g id="a_node14"><a xlink:href="classpycanha_1_1gmm_1_1TriMesh.html#a331d5c97a882188d4454694b4a2a4af9" target="_top" xlink:title="Set the surface 2 color.">
<polygon fill="none" stroke="black" points="173.5,-49.5 173.5,-79.5 306.5,-79.5 306.5,-49.5 173.5,-49.5"/>
<text text-anchor="start" x="181.5" y="-67.5" font-family="Helvetica,sans-Serif" font-size="10.00">pycanha::gmm::TriMesh</text>
<text text-anchor="middle" x="240" y="-56.5" font-family="Helvetica,sans-Serif" font-size="10.00">::set_surface2_color</text>
</a>
</g>
</g>
<!-- Node1&#45;&gt;Node14 -->
<g id="edge18" class="edge">
<title>Node1&#45;&gt;Node14</title>
<path fill="none" stroke="midnightblue" d="M71.15,-316.28C77.9,-274.04 102.55,-154.1 172,-88.5 173.12,-87.44 174.3,-86.43 175.51,-85.46"/>
<polygon fill="midnightblue" stroke="midnightblue" points="177.74,-88.17 184.07,-79.68 173.82,-82.37 177.74,-88.17"/>
</g>
<!-- Node15 -->
<g id="node15" class="node">
<title>Node15</title>
<g id="a_node15"><a xlink:href="classpycanha_1_1gmm_1_1TriMesh.html#a7f0a8a501de5c2d065f71e164b956b39" target="_top" xlink:title="Sort the triangles according to the face ids.">
<polygon fill="none" stroke="black" points="173.5,-0.5 173.5,-30.5 306.5,-30.5 306.5,-0.5 173.5,-0.5"/>
<text text-anchor="start" x="181.5" y="-18.5" font-family="Helvetica,sans-Serif" font-size="10.00">pycanha::gmm::TriMesh</text>
<text text-anchor="middle" x="240" y="-7.5" font-family="Helvetica,sans-Serif" font-size="10.00">::sort_triangles</text>
</a>
</g>
</g>
<!-- Node1&#45;&gt;Node15 -->
<g id="edge19" class="edge">
<title>Node1&#45;&gt;Node15</title>
<path fill="none" stroke="midnightblue" d="M69.91,-316.42C73.56,-268.91 91.23,-120.66 172,-39.5 173.06,-38.43 174.18,-37.41 175.33,-36.44"/>
<polygon fill="midnightblue" stroke="midnightblue" points="177.38,-39.27 183.52,-30.64 173.34,-33.56 177.38,-39.27"/>
</g>
<!-- Node5&#45;&gt;Node3 -->
<g id="edge5" class="edge">
<title>Node5&#45;&gt;Node3</title>
<path fill="none" stroke="midnightblue" d="M265.81,-488.72C286.32,-500.93 316.44,-518.04 344,-530.5 348.04,-532.32 352.25,-534.11 356.53,-535.83"/>
<polygon fill="midnightblue" stroke="midnightblue" points="355.32,-539.12 365.91,-539.48 357.86,-532.59 355.32,-539.12"/>
</g>
<!-- Node5&#45;&gt;Node6 -->
<g id="edge6" class="edge">
<title>Node5&#45;&gt;Node6</title>
<path fill="none" stroke="midnightblue" d="M308.19,-486.15C316.59,-487.73 325.24,-489.36 333.78,-490.97"/>
<polygon fill="midnightblue" stroke="midnightblue" points="333.27,-494.43 343.74,-492.84 334.56,-487.55 333.27,-494.43"/>
</g>
<!-- Node5&#45;&gt;Node7 -->
<g id="edge7" class="edge">
<title>Node5&#45;&gt;Node7</title>
<path fill="none" stroke="midnightblue" d="M308.19,-466.78C316.59,-465.94 325.24,-465.08 333.78,-464.22"/>
<polygon fill="midnightblue" stroke="midnightblue" points="334.14,-467.7 343.74,-463.23 333.44,-460.74 334.14,-467.7"/>
</g>
<!-- Node5&#45;&gt;Node8 -->
<g id="edge8" class="edge">
<title>Node5&#45;&gt;Node8</title>
<path fill="none" stroke="midnightblue" d="M278.64,-458.43C298.13,-450.64 322.33,-441.02 344,-432.5 349.94,-430.16 356.19,-427.72 362.38,-425.31"/>
<polygon fill="midnightblue" stroke="midnightblue" points="363.96,-428.45 372.01,-421.57 361.42,-421.93 363.96,-428.45"/>
</g>
<!-- Node5&#45;&gt;Node9 -->
<g id="edge9" class="edge">
<title>Node5&#45;&gt;Node9</title>
<path fill="none" stroke="midnightblue" d="M254.62,-458.21C273.14,-438.21 308.08,-403.18 344,-381.5 347.37,-379.46 350.94,-377.55 354.59,-375.76"/>
<polygon fill="midnightblue" stroke="midnightblue" points="356.17,-378.88 363.82,-371.55 353.27,-372.51 356.17,-378.88"/>
</g>
</g>
</svg>
