<?xml version="1.0" encoding="UTF-8" standalone="no"?>
<!DOCTYPE svg PUBLIC "-//W3C//DTD SVG 1.1//EN"
 "http://www.w3.org/Graphics/SVG/1.1/DTD/svg11.dtd">
<!-- Generated by graphviz version 2.43.0 (0)
 -->
<!-- Title: pycanha::gmm::ThermalMesh Pages: 1 -->
<svg width="288pt" height="104pt"
 viewBox="0.00 0.00 287.50 104.00" xmlns="http://www.w3.org/2000/svg" xmlns:xlink="http://www.w3.org/1999/xlink">
<g id="graph0" class="graph" transform="scale(1 1) rotate(0) translate(4 100)">
<title>pycanha::gmm::ThermalMesh</title>
<!-- Node1 -->
<g id="Node000001" class="node">
<title>Node1</title>
<g id="a_Node000001"><a xlink:title=" ">
<polygon fill="#999999" stroke="#666666" points="225,-19 63,-19 63,0 225,0 225,-19"/>
<text text-anchor="middle" x="144" y="-7" font-family="Helvetica,sans-Serif" font-size="10.00">pycanha::gmm::ThermalMesh</text>
</a>
</g>
</g>
<!-- Node2 -->
<g id="Node000002" class="node">
<title>Node2</title>
<g id="a_Node000002"><a xlink:href="classpycanha_1_1gmm_1_1UniqueID.html" target="_top" xlink:title="Provides a unique integer id.">
<polygon fill="white" stroke="#666666" points="140,-96 0,-96 0,-77 140,-77 140,-96"/>
<text text-anchor="middle" x="70" y="-84" font-family="Helvetica,sans-Serif" font-size="10.00">pycanha::gmm::UniqueID</text>
</a>
</g>
</g>
<!-- Node2&#45;&gt;Node1 -->
<g id="edge1_Node000001_Node000002" class="edge">
<title>Node2&#45;&gt;Node1</title>
<g id="a_edge1_Node000001_Node000002"><a xlink:title=" ">
<path fill="none" stroke="#63b8ff" d="M85.7,-69.59C100.95,-54.13 123.51,-31.27 135.61,-19"/>
<polygon fill="#63b8ff" stroke="#63b8ff" points="83.02,-67.32 78.49,-76.9 88,-72.24 83.02,-67.32"/>
</a>
</g>
</g>
<!-- Node3 -->
<g id="Node000003" class="node">
<title>Node3</title>
<g id="a_Node000003"><a xlink:href="classpycanha_1_1gmm_1_1Color.html" target="_top" xlink:title=" ">
<polygon fill="white" stroke="#bfbfbf" points="279.5,-96 158.5,-96 158.5,-77 279.5,-77 279.5,-96"/>
<text text-anchor="middle" x="219" y="-84" font-family="Helvetica,sans-Serif" font-size="10.00">pycanha::gmm::Color</text>
</a>
</g>
</g>
<!-- Node3&#45;&gt;Node1 -->
<g id="edge2_Node000001_Node000003" class="edge">
<title>Node3&#45;&gt;Node1</title>
<g id="a_edge2_Node000001_Node000003"><a xlink:title=" ">
<path fill="none" stroke="#9a32cd" stroke-dasharray="5,2" d="M203.09,-69.59C187.63,-54.13 164.77,-31.27 152.5,-19"/>
<polygon fill="#9a32cd" stroke="#9a32cd" points="200.85,-72.3 210.4,-76.9 205.8,-67.35 200.85,-72.3"/>
</a>
</g>
<text text-anchor="middle" x="222" y="-51" font-family="Helvetica,sans-Serif" font-size="10.00" fill="grey"> _side1_color</text>
<text text-anchor="middle" x="222" y="-40" font-family="Helvetica,sans-Serif" font-size="10.00" fill="grey">_side2_color</text>
</g>
</g>
</svg>
