<?xml version="1.0" encoding="UTF-8" standalone="no"?>
<!DOCTYPE svg PUBLIC "-//W3C//DTD SVG 1.1//EN"
 "http://www.w3.org/Graphics/SVG/1.1/DTD/svg11.dtd">
<!-- Generated by graphviz version 2.43.0 (0)
 -->
<!-- Title: pycanha::ThermalMathematicalModel Pages: 1 -->
<svg width="401pt" height="104pt"
 viewBox="0.00 0.00 400.50 104.00" xmlns="http://www.w3.org/2000/svg" xmlns:xlink="http://www.w3.org/1999/xlink">
<g id="graph0" class="graph" transform="scale(1 1) rotate(0) translate(4 100)">
<title>pycanha::ThermalMathematicalModel</title>
<!-- Node1 -->
<g id="Node000001" class="node">
<title>Node1</title>
<g id="a_Node000001"><a xlink:title=" ">
<polygon fill="#999999" stroke="#666666" points="277.5,-30 105.5,-30 105.5,0 277.5,0 277.5,-30"/>
<text text-anchor="start" x="113.5" y="-18" font-family="Helvetica,sans-Serif" font-size="10.00">pycanha::ThermalMathematical</text>
<text text-anchor="middle" x="191.5" y="-7" font-family="Helvetica,sans-Serif" font-size="10.00">Model</text>
</a>
</g>
</g>
<!-- Node2 -->
<g id="Node000002" class="node">
<title>Node2</title>
<g id="a_Node000002"><a xlink:href="classpycanha_1_1Parameters.html" target="_top" xlink:title=" ">
<polygon fill="white" stroke="#bfbfbf" points="119,-96 0,-96 0,-77 119,-77 119,-96"/>
<text text-anchor="middle" x="59.5" y="-84" font-family="Helvetica,sans-Serif" font-size="10.00">pycanha::Parameters</text>
</a>
</g>
</g>
<!-- Node2&#45;&gt;Node1 -->
<g id="edge1_Node000001_Node000002" class="edge">
<title>Node2&#45;&gt;Node1</title>
<g id="a_edge1_Node000001_Node000002"><a xlink:title=" ">
<path fill="none" stroke="#9a32cd" stroke-dasharray="5,2" d="M83.31,-72.06C96.31,-64.81 112.71,-55.77 127.5,-48 138.94,-41.99 151.64,-35.58 162.7,-30.09"/>
<polygon fill="#9a32cd" stroke="#9a32cd" points="81.54,-69.04 74.53,-76.98 84.96,-75.15 81.54,-69.04"/>
</a>
</g>
<text text-anchor="middle" x="157.5" y="-51" font-family="Helvetica,sans-Serif" font-size="10.00" fill="grey"> parameters</text>
</g>
<!-- Node3 -->
<g id="Node000003" class="node">
<title>Node3</title>
<g id="a_Node000003"><a xlink:href="classpycanha_1_1Formulas.html" target="_top" xlink:title=" ">
<polygon fill="white" stroke="#bfbfbf" points="246,-96 137,-96 137,-77 246,-77 246,-96"/>
<text text-anchor="middle" x="191.5" y="-84" font-family="Helvetica,sans-Serif" font-size="10.00">pycanha::Formulas</text>
</a>
</g>
</g>
<!-- Node3&#45;&gt;Node1 -->
<g id="edge2_Node000001_Node000003" class="edge">
<title>Node3&#45;&gt;Node1</title>
<g id="a_edge2_Node000001_Node000003"><a xlink:title=" ">
<path fill="none" stroke="#9a32cd" stroke-dasharray="5,2" d="M191.5,-66.71C191.5,-55.19 191.5,-40.68 191.5,-30.14"/>
<polygon fill="#9a32cd" stroke="#9a32cd" points="188,-66.98 191.5,-76.98 195,-66.98 188,-66.98"/>
</a>
</g>
<text text-anchor="middle" x="215" y="-51" font-family="Helvetica,sans-Serif" font-size="10.00" fill="grey"> formulas</text>
</g>
<!-- Node4 -->
<g id="Node000004" class="node">
<title>Node4</title>
<g id="a_Node000004"><a xlink:href="classpycanha_1_1ThermalData.html" target="_top" xlink:title=" ">
<polygon fill="white" stroke="#bfbfbf" points="392.5,-96 264.5,-96 264.5,-77 392.5,-77 392.5,-96"/>
<text text-anchor="middle" x="328.5" y="-84" font-family="Helvetica,sans-Serif" font-size="10.00">pycanha::ThermalData</text>
</a>
</g>
</g>
<!-- Node4&#45;&gt;Node1 -->
<g id="edge3_Node000001_Node000004" class="edge">
<title>Node4&#45;&gt;Node1</title>
<g id="a_edge3_Node000001_Node000004"><a xlink:title=" ">
<path fill="none" stroke="#9a32cd" stroke-dasharray="5,2" d="M302.55,-72.34C278.71,-60.24 243.47,-42.36 219.11,-30.01"/>
<polygon fill="#9a32cd" stroke="#9a32cd" points="301.2,-75.58 311.7,-76.98 304.37,-69.33 301.2,-75.58"/>
</a>
</g>
<text text-anchor="middle" x="306" y="-51" font-family="Helvetica,sans-Serif" font-size="10.00" fill="grey"> thermal_data</text>
</g>
</g>
</svg>
