<?xml version="1.0" encoding="UTF-8" standalone="no"?>
<!DOCTYPE svg PUBLIC "-//W3C//DTD SVG 1.1//EN"
 "http://www.w3.org/Graphics/SVG/1.1/DTD/svg11.dtd">
<!-- Generated by graphviz version 2.43.0 (0)
 -->
<!-- Title: pycanha::gmm::TriMeshModel::add_mesh Pages: 1 -->
<svg width="340pt" height="470pt"
 viewBox="0.00 0.00 340.00 470.00" xmlns="http://www.w3.org/2000/svg" xmlns:xlink="http://www.w3.org/1999/xlink">
<g id="graph0" class="graph" transform="scale(1 1) rotate(0) translate(4 466)">
<title>pycanha::gmm::TriMeshModel::add_mesh</title>
<!-- Node1 -->
<g id="Node000001" class="node">
<title>Node1</title>
<g id="a_Node000001"><a xlink:title="Aggregate the contents of a Trimesh to this one.">
<polygon fill="#999999" stroke="#666666" points="163,-246 0,-246 0,-216 163,-216 163,-246"/>
<text text-anchor="start" x="8" y="-234" font-family="Helvetica,sans-Serif" font-size="10.00">pycanha::gmm::TriMeshModel</text>
<text text-anchor="middle" x="81.5" y="-223" font-family="Helvetica,sans-Serif" font-size="10.00">::add_mesh</text>
</a>
</g>
</g>
<!-- Node2 -->
<g id="Node000002" class="node">
<title>Node2</title>
<g id="a_Node000002"><a xlink:href="classpycanha_1_1gmm_1_1TriMesh.html#a4e106b5e41ca2fd5f6dc4a1bdde6f8db" target="_top" xlink:title="Get cummulative area vector.">
<polygon fill="white" stroke="#666666" points="332,-462 199,-462 199,-432 332,-432 332,-462"/>
<text text-anchor="start" x="207" y="-450" font-family="Helvetica,sans-Serif" font-size="10.00">pycanha::gmm::TriMesh</text>
<text text-anchor="middle" x="265.5" y="-439" font-family="Helvetica,sans-Serif" font-size="10.00">::get_cumareas</text>
</a>
</g>
</g>
<!-- Node1&#45;&gt;Node2 -->
<g id="edge1_Node000001_Node000002" class="edge">
<title>Node1&#45;&gt;Node2</title>
<g id="a_edge1_Node000001_Node000002"><a xlink:title=" ">
<path fill="none" stroke="#63b8ff" d="M87.65,-246.08C100.62,-281.9 138.02,-372.85 199,-423 200.54,-424.27 202.16,-425.47 203.83,-426.62"/>
<polygon fill="#63b8ff" stroke="#63b8ff" points="202.22,-429.73 212.61,-431.85 205.81,-423.72 202.22,-429.73"/>
</a>
</g>
</g>
<!-- Node3 -->
<g id="Node000003" class="node">
<title>Node3</title>
<g id="a_Node000003"><a xlink:href="classpycanha_1_1gmm_1_1TriMesh.html#a4791955cf63c345d8f60077ea1bb044e" target="_top" xlink:title="Get edges.">
<polygon fill="white" stroke="#666666" points="332,-414 199,-414 199,-384 332,-384 332,-414"/>
<text text-anchor="start" x="207" y="-402" font-family="Helvetica,sans-Serif" font-size="10.00">pycanha::gmm::TriMesh</text>
<text text-anchor="middle" x="265.5" y="-391" font-family="Helvetica,sans-Serif" font-size="10.00">::get_edges</text>
</a>
</g>
</g>
<!-- Node1&#45;&gt;Node3 -->
<g id="edge2_Node000001_Node000003" class="edge">
<title>Node1&#45;&gt;Node3</title>
<g id="a_edge2_Node000001_Node000003"><a xlink:title=" ">
<path fill="none" stroke="#63b8ff" d="M91.02,-246.31C107.94,-275.38 148.52,-338.89 199,-375 201.07,-376.48 203.24,-377.88 205.48,-379.2"/>
<polygon fill="#63b8ff" stroke="#63b8ff" points="203.93,-382.34 214.41,-383.91 207.2,-376.15 203.93,-382.34"/>
</a>
</g>
</g>
<!-- Node4 -->
<g id="Node000004" class="node">
<title>Node4</title>
<g id="a_Node000004"><a xlink:href="classpycanha_1_1gmm_1_1TriMesh.html#a719e49a87330de4cc80fe24f8d871d77" target="_top" xlink:title="Get face ids vector.">
<polygon fill="white" stroke="#666666" points="332,-366 199,-366 199,-336 332,-336 332,-366"/>
<text text-anchor="start" x="207" y="-354" font-family="Helvetica,sans-Serif" font-size="10.00">pycanha::gmm::TriMesh</text>
<text text-anchor="middle" x="265.5" y="-343" font-family="Helvetica,sans-Serif" font-size="10.00">::get_face_ids</text>
</a>
</g>
</g>
<!-- Node1&#45;&gt;Node4 -->
<g id="edge3_Node000001_Node000004" class="edge">
<title>Node1&#45;&gt;Node4</title>
<g id="a_edge3_Node000001_Node000004"><a xlink:title=" ">
<path fill="none" stroke="#63b8ff" d="M97.44,-246.2C118.47,-266.88 158.75,-303.94 199,-327 201.98,-328.71 205.1,-330.33 208.3,-331.87"/>
<polygon fill="#63b8ff" stroke="#63b8ff" points="206.9,-335.08 217.46,-335.97 209.77,-328.69 206.9,-335.08"/>
</a>
</g>
</g>
<!-- Node5 -->
<g id="Node000005" class="node">
<title>Node5</title>
<g id="a_Node000005"><a xlink:href="classpycanha_1_1gmm_1_1TriMesh.html#a67005774ec8e4204abe88c1d2c795ef4" target="_top" xlink:title="Get faces edges vector of indices.">
<polygon fill="white" stroke="#666666" points="332,-318 199,-318 199,-288 332,-288 332,-318"/>
<text text-anchor="start" x="207" y="-306" font-family="Helvetica,sans-Serif" font-size="10.00">pycanha::gmm::TriMesh</text>
<text text-anchor="middle" x="265.5" y="-295" font-family="Helvetica,sans-Serif" font-size="10.00">::get_faces_edges</text>
</a>
</g>
</g>
<!-- Node1&#45;&gt;Node5 -->
<g id="edge4_Node000001_Node000005" class="edge">
<title>Node1&#45;&gt;Node5</title>
<g id="a_edge4_Node000001_Node000005"><a xlink:title=" ">
<path fill="none" stroke="#63b8ff" d="M118.04,-246.07C141.04,-255.72 171.68,-268.37 199,-279 203.49,-280.75 208.17,-282.53 212.86,-284.3"/>
<polygon fill="#63b8ff" stroke="#63b8ff" points="211.88,-287.67 222.48,-287.88 214.33,-281.11 211.88,-287.67"/>
</a>
</g>
</g>
<!-- Node6 -->
<g id="Node000006" class="node">
<title>Node6</title>
<g id="a_Node000006"><a xlink:href="classpycanha_1_1gmm_1_1TriMesh.html#a9738f0ec5e4816d990b04a54e3081ced" target="_top" xlink:title="Get the number of faces.">
<polygon fill="white" stroke="#666666" points="332,-270 199,-270 199,-240 332,-240 332,-270"/>
<text text-anchor="start" x="207" y="-258" font-family="Helvetica,sans-Serif" font-size="10.00">pycanha::gmm::TriMesh</text>
<text text-anchor="middle" x="265.5" y="-247" font-family="Helvetica,sans-Serif" font-size="10.00">::get_number_of_faces</text>
</a>
</g>
</g>
<!-- Node1&#45;&gt;Node6 -->
<g id="edge5_Node000001_Node000006" class="edge">
<title>Node1&#45;&gt;Node6</title>
<g id="a_edge5_Node000001_Node000006"><a xlink:title=" ">
<path fill="none" stroke="#63b8ff" d="M163.12,-241.63C171.73,-242.77 180.47,-243.92 189.02,-245.05"/>
<polygon fill="#63b8ff" stroke="#63b8ff" points="188.58,-248.52 198.95,-246.36 189.49,-241.58 188.58,-248.52"/>
</a>
</g>
</g>
<!-- Node7 -->
<g id="Node000007" class="node">
<title>Node7</title>
<g id="a_Node000007"><a xlink:href="classpycanha_1_1gmm_1_1TriMesh.html#a51306790240f2c5de747a4b011766163" target="_top" xlink:title="Get perimeter edges indices.">
<polygon fill="white" stroke="#666666" points="332,-222 199,-222 199,-192 332,-192 332,-222"/>
<text text-anchor="start" x="207" y="-210" font-family="Helvetica,sans-Serif" font-size="10.00">pycanha::gmm::TriMesh</text>
<text text-anchor="middle" x="265.5" y="-199" font-family="Helvetica,sans-Serif" font-size="10.00">::get_perimeter_edges</text>
</a>
</g>
</g>
<!-- Node1&#45;&gt;Node7 -->
<g id="edge6_Node000001_Node000007" class="edge">
<title>Node1&#45;&gt;Node7</title>
<g id="a_edge6_Node000001_Node000007"><a xlink:title=" ">
<path fill="none" stroke="#63b8ff" d="M163.12,-220.37C171.73,-219.23 180.47,-218.08 189.02,-216.95"/>
<polygon fill="#63b8ff" stroke="#63b8ff" points="189.49,-220.42 198.95,-215.64 188.58,-213.48 189.49,-220.42"/>
</a>
</g>
</g>
<!-- Node8 -->
<g id="Node000008" class="node">
<title>Node8</title>
<g id="a_Node000008"><a xlink:href="classpycanha_1_1gmm_1_1TriMesh.html#aefd2b4642a2e9996f8fb59cf31a43ad2" target="_top" xlink:title="Get the surface 1 color.">
<polygon fill="white" stroke="#666666" points="332,-174 199,-174 199,-144 332,-144 332,-174"/>
<text text-anchor="start" x="207" y="-162" font-family="Helvetica,sans-Serif" font-size="10.00">pycanha::gmm::TriMesh</text>
<text text-anchor="middle" x="265.5" y="-151" font-family="Helvetica,sans-Serif" font-size="10.00">::get_surface1_color</text>
</a>
</g>
</g>
<!-- Node1&#45;&gt;Node8 -->
<g id="edge7_Node000001_Node000008" class="edge">
<title>Node1&#45;&gt;Node8</title>
<g id="a_edge7_Node000001_Node000008"><a xlink:title=" ">
<path fill="none" stroke="#63b8ff" d="M118.04,-215.93C141.04,-206.28 171.68,-193.63 199,-183 203.49,-181.25 208.17,-179.47 212.86,-177.7"/>
<polygon fill="#63b8ff" stroke="#63b8ff" points="214.33,-180.89 222.48,-174.12 211.88,-174.33 214.33,-180.89"/>
</a>
</g>
</g>
<!-- Node9 -->
<g id="Node000009" class="node">
<title>Node9</title>
<g id="a_Node000009"><a xlink:href="classpycanha_1_1gmm_1_1TriMesh.html#af2b32aff1bcc4841fa8ce7d6f4e5b76a" target="_top" xlink:title="Get the surface 2 color.">
<polygon fill="white" stroke="#666666" points="332,-126 199,-126 199,-96 332,-96 332,-126"/>
<text text-anchor="start" x="207" y="-114" font-family="Helvetica,sans-Serif" font-size="10.00">pycanha::gmm::TriMesh</text>
<text text-anchor="middle" x="265.5" y="-103" font-family="Helvetica,sans-Serif" font-size="10.00">::get_surface2_color</text>
</a>
</g>
</g>
<!-- Node1&#45;&gt;Node9 -->
<g id="edge8_Node000001_Node000009" class="edge">
<title>Node1&#45;&gt;Node9</title>
<g id="a_edge8_Node000001_Node000009"><a xlink:title=" ">
<path fill="none" stroke="#63b8ff" d="M97.44,-215.8C118.47,-195.12 158.75,-158.06 199,-135 201.98,-133.29 205.1,-131.67 208.3,-130.13"/>
<polygon fill="#63b8ff" stroke="#63b8ff" points="209.77,-133.31 217.46,-126.03 206.9,-126.92 209.77,-133.31"/>
</a>
</g>
</g>
<!-- Node10 -->
<g id="Node000010" class="node">
<title>Node10</title>
<g id="a_Node000010"><a xlink:href="classpycanha_1_1gmm_1_1TriMesh.html#aa20d192b636f4453f79d6fd4a3aafcd4" target="_top" xlink:title="Get triangles matrix.">
<polygon fill="white" stroke="#666666" points="332,-78 199,-78 199,-48 332,-48 332,-78"/>
<text text-anchor="start" x="207" y="-66" font-family="Helvetica,sans-Serif" font-size="10.00">pycanha::gmm::TriMesh</text>
<text text-anchor="middle" x="265.5" y="-55" font-family="Helvetica,sans-Serif" font-size="10.00">::get_triangles</text>
</a>
</g>
</g>
<!-- Node1&#45;&gt;Node10 -->
<g id="edge9_Node000001_Node000010" class="edge">
<title>Node1&#45;&gt;Node10</title>
<g id="a_edge9_Node000001_Node000010"><a xlink:title=" ">
<path fill="none" stroke="#63b8ff" d="M91.02,-215.69C107.94,-186.62 148.52,-123.11 199,-87 201.07,-85.52 203.24,-84.12 205.48,-82.8"/>
<polygon fill="#63b8ff" stroke="#63b8ff" points="207.2,-85.85 214.41,-78.09 203.93,-79.66 207.2,-85.85"/>
</a>
</g>
</g>
<!-- Node11 -->
<g id="Node000011" class="node">
<title>Node11</title>
<g id="a_Node000011"><a xlink:href="classpycanha_1_1gmm_1_1TriMesh.html#a4ed00ebc28ddc7ef836cabed7f9b1881" target="_top" xlink:title="Get vertices matrix.">
<polygon fill="white" stroke="#666666" points="332,-30 199,-30 199,0 332,0 332,-30"/>
<text text-anchor="start" x="207" y="-18" font-family="Helvetica,sans-Serif" font-size="10.00">pycanha::gmm::TriMesh</text>
<text text-anchor="middle" x="265.5" y="-7" font-family="Helvetica,sans-Serif" font-size="10.00">::get_vertices</text>
</a>
</g>
</g>
<!-- Node1&#45;&gt;Node11 -->
<g id="edge10_Node000001_Node000011" class="edge">
<title>Node1&#45;&gt;Node11</title>
<g id="a_edge10_Node000001_Node000011"><a xlink:title=" ">
<path fill="none" stroke="#63b8ff" d="M87.65,-215.92C100.62,-180.1 138.02,-89.15 199,-39 200.54,-37.73 202.16,-36.53 203.83,-35.38"/>
<polygon fill="#63b8ff" stroke="#63b8ff" points="205.81,-38.28 212.61,-30.15 202.22,-32.27 205.81,-38.28"/>
</a>
</g>
</g>
</g>
</svg>
