<?xml version="1.0" encoding="UTF-8" standalone="no"?>
<!DOCTYPE svg PUBLIC "-//W3C//DTD SVG 1.1//EN"
 "http://www.w3.org/Graphics/SVG/1.1/DTD/svg11.dtd">
<!-- Generated by graphviz version 2.43.0 (0)
 -->
<!-- Title: pycanha::gmm::Geometry Pages: 1 -->
<svg width="404pt" height="203pt"
 viewBox="0.00 0.00 404.00 203.00" xmlns="http://www.w3.org/2000/svg" xmlns:xlink="http://www.w3.org/1999/xlink">
<g id="graph0" class="graph" transform="scale(1 1) rotate(0) translate(4 199)">
<title>pycanha::gmm::Geometry</title>
<!-- Node1 -->
<g id="Node000001" class="node">
<title>Node1</title>
<g id="a_Node000001"><a xlink:title="Base class for geometric items.">
<polygon fill="#999999" stroke="#666666" points="261.5,-140 117.5,-140 117.5,-121 261.5,-121 261.5,-140"/>
<text text-anchor="middle" x="189.5" y="-128" font-family="Helvetica,sans-Serif" font-size="10.00">pycanha::gmm::Geometry</text>
</a>
</g>
</g>
<!-- Node3 -->
<g id="Node000003" class="node">
<title>Node3</title>
<g id="a_Node000003"><a xlink:href="classpycanha_1_1gmm_1_1GeometryGroup.html" target="_top" xlink:title="Class representing a group of geometric items. Inherits from Geometry.">
<polygon fill="white" stroke="#666666" points="182,-85 9,-85 9,-66 182,-66 182,-85"/>
<text text-anchor="middle" x="95.5" y="-73" font-family="Helvetica,sans-Serif" font-size="10.00">pycanha::gmm::GeometryGroup</text>
</a>
</g>
</g>
<!-- Node1&#45;&gt;Node3 -->
<g id="edge2_Node000001_Node000003" class="edge">
<title>Node1&#45;&gt;Node3</title>
<g id="a_edge2_Node000001_Node000003"><a xlink:title=" ">
<path fill="none" stroke="#63b8ff" d="M165.5,-115.97C148.31,-106.28 125.69,-93.52 110.88,-85.17"/>
<polygon fill="#63b8ff" stroke="#63b8ff" points="163.97,-119.12 174.4,-120.98 167.41,-113.02 163.97,-119.12"/>
</a>
</g>
</g>
<!-- Node5 -->
<g id="Node000005" class="node">
<title>Node5</title>
<g id="a_Node000005"><a xlink:href="classpycanha_1_1gmm_1_1GeometryItem.html" target="_top" xlink:title="The base class for all geometry items.">
<polygon fill="white" stroke="#666666" points="372,-85 205,-85 205,-66 372,-66 372,-85"/>
<text text-anchor="middle" x="288.5" y="-73" font-family="Helvetica,sans-Serif" font-size="10.00">pycanha::gmm::GeometryItem</text>
</a>
</g>
</g>
<!-- Node1&#45;&gt;Node5 -->
<g id="edge4_Node000001_Node000005" class="edge">
<title>Node1&#45;&gt;Node5</title>
<g id="a_edge4_Node000001_Node000005"><a xlink:title=" ">
<path fill="none" stroke="#63b8ff" d="M214.28,-116.23C232.44,-106.51 256.56,-93.6 272.3,-85.17"/>
<polygon fill="#63b8ff" stroke="#63b8ff" points="212.57,-113.18 205.41,-120.98 215.87,-119.35 212.57,-113.18"/>
</a>
</g>
</g>
<!-- Node2 -->
<g id="Node000002" class="node">
<title>Node2</title>
<g id="a_Node000002"><a xlink:href="classpycanha_1_1gmm_1_1UniqueID.html" target="_top" xlink:title="Provides a unique integer id.">
<polygon fill="white" stroke="#666666" points="259.5,-195 119.5,-195 119.5,-176 259.5,-176 259.5,-195"/>
<text text-anchor="middle" x="189.5" y="-183" font-family="Helvetica,sans-Serif" font-size="10.00">pycanha::gmm::UniqueID</text>
</a>
</g>
</g>
<!-- Node2&#45;&gt;Node1 -->
<g id="edge1_Node000001_Node000002" class="edge">
<title>Node2&#45;&gt;Node1</title>
<g id="a_edge1_Node000001_Node000002"><a xlink:title=" ">
<path fill="none" stroke="#63b8ff" d="M189.5,-165.66C189.5,-156.93 189.5,-146.99 189.5,-140.09"/>
<polygon fill="#63b8ff" stroke="#63b8ff" points="186,-165.75 189.5,-175.75 193,-165.75 186,-165.75"/>
</a>
</g>
</g>
<!-- Node4 -->
<g id="Node000004" class="node">
<title>Node4</title>
<g id="a_Node000004"><a xlink:href="classpycanha_1_1gmm_1_1GeometryGroupCutted.html" target="_top" xlink:title="Class representing a cutted geometry.">
<polygon fill="white" stroke="#666666" points="173,-30 0,-30 0,0 173,0 173,-30"/>
<text text-anchor="start" x="8" y="-18" font-family="Helvetica,sans-Serif" font-size="10.00">pycanha::gmm::GeometryGroup</text>
<text text-anchor="middle" x="86.5" y="-7" font-family="Helvetica,sans-Serif" font-size="10.00">Cutted</text>
</a>
</g>
</g>
<!-- Node3&#45;&gt;Node4 -->
<g id="edge3_Node000003_Node000004" class="edge">
<title>Node3&#45;&gt;Node4</title>
<g id="a_edge3_Node000003_Node000004"><a xlink:title=" ">
<path fill="none" stroke="#63b8ff" d="M92.64,-55.93C91.36,-47.58 89.86,-37.87 88.67,-30.11"/>
<polygon fill="#63b8ff" stroke="#63b8ff" points="89.19,-56.52 94.17,-65.87 96.11,-55.45 89.19,-56.52"/>
</a>
</g>
</g>
<!-- Node6 -->
<g id="Node000006" class="node">
<title>Node6</title>
<g id="a_Node000006"><a xlink:href="classpycanha_1_1gmm_1_1GeometryMeshedItem.html" target="_top" xlink:title="A geometry item that contains mesh data.">
<polygon fill="white" stroke="#666666" points="396,-24.5 191,-24.5 191,-5.5 396,-5.5 396,-24.5"/>
<text text-anchor="middle" x="293.5" y="-12.5" font-family="Helvetica,sans-Serif" font-size="10.00">pycanha::gmm::GeometryMeshedItem</text>
</a>
</g>
</g>
<!-- Node5&#45;&gt;Node6 -->
<g id="edge5_Node000005_Node000006" class="edge">
<title>Node5&#45;&gt;Node6</title>
<g id="a_edge5_Node000005_Node000006"><a xlink:title=" ">
<path fill="none" stroke="#63b8ff" d="M290.11,-55.66C291,-45.24 292.06,-32.8 292.76,-24.67"/>
<polygon fill="#63b8ff" stroke="#63b8ff" points="286.6,-55.61 289.24,-65.87 293.58,-56.2 286.6,-55.61"/>
</a>
</g>
</g>
</g>
</svg>
