<?xml version="1.0" encoding="UTF-8" standalone="no"?>
<!DOCTYPE svg PUBLIC "-//W3C//DTD SVG 1.1//EN"
 "http://www.w3.org/Graphics/SVG/1.1/DTD/svg11.dtd">
<!-- Generated by graphviz version 2.43.0 (0)
 -->
<!-- Title: pycanha::gmm::GeometryUpdateCallback Pages: 1 -->
<svg width="558pt" height="256pt"
 viewBox="0.00 0.00 558.00 256.00" xmlns="http://www.w3.org/2000/svg" xmlns:xlink="http://www.w3.org/1999/xlink">
<g id="graph0" class="graph" transform="scale(1 1) rotate(0) translate(4 252)">
<title>pycanha::gmm::GeometryUpdateCallback</title>
<!-- Node1 -->
<g id="node1" class="node">
<title>Node1</title>
<g id="a_node1"><a xlink:title=" ">
<polygon fill="#bfbfbf" stroke="black" points="0,-109 0,-139 179,-139 179,-109 0,-109"/>
<text text-anchor="start" x="8" y="-127" font-family="Helvetica,sans-Serif" font-size="10.00">pycanha::gmm::GeometryUpdate</text>
<text text-anchor="middle" x="89.5" y="-116" font-family="Helvetica,sans-Serif" font-size="10.00">Callback</text>
</a>
</g>
</g>
<!-- Node2 -->
<g id="node2" class="node">
<title>Node2</title>
<g id="a_node2"><a xlink:href="classpycanha_1_1gmm_1_1Primitive.html" target="_top" xlink:title="A geometry primitive.">
<polygon fill="none" stroke="black" points="215,-114.5 215,-133.5 355,-133.5 355,-114.5 215,-114.5"/>
<text text-anchor="middle" x="285" y="-121.5" font-family="Helvetica,sans-Serif" font-size="10.00">pycanha::gmm::Primitive</text>
</a>
</g>
</g>
<!-- Node1&#45;&gt;Node2 -->
<g id="edge1" class="edge">
<title>Node1&#45;&gt;Node2</title>
<path fill="none" stroke="midnightblue" d="M189.22,-124C197.9,-124 206.56,-124 214.92,-124"/>
<polygon fill="midnightblue" stroke="midnightblue" points="189.04,-120.5 179.04,-124 189.04,-127.5 189.04,-120.5"/>
</g>
<!-- Node3 -->
<g id="node3" class="node">
<title>Node3</title>
<g id="a_node3"><a xlink:href="classpycanha_1_1gmm_1_1Cone.html" target="_top" xlink:title="A class representing a cone in 3D space.">
<polygon fill="none" stroke="black" points="410.5,-228.5 410.5,-247.5 530.5,-247.5 530.5,-228.5 410.5,-228.5"/>
<text text-anchor="middle" x="470.5" y="-235.5" font-family="Helvetica,sans-Serif" font-size="10.00">pycanha::gmm::Cone</text>
</a>
</g>
</g>
<!-- Node2&#45;&gt;Node3 -->
<g id="edge2" class="edge">
<title>Node2&#45;&gt;Node3</title>
<path fill="none" stroke="midnightblue" d="M300.37,-141.53C319.01,-163.08 353.59,-199.22 391,-219 398.31,-222.87 406.43,-225.96 414.58,-228.43"/>
<polygon fill="midnightblue" stroke="midnightblue" points="302.96,-139.17 293.83,-133.79 297.61,-143.69 302.96,-139.17"/>
</g>
<!-- Node4 -->
<g id="node4" class="node">
<title>Node4</title>
<g id="a_node4"><a xlink:href="classpycanha_1_1gmm_1_1Cylinder.html" target="_top" xlink:title="A class representing a cylinder in 3D space.">
<polygon fill="none" stroke="black" points="402.5,-190.5 402.5,-209.5 538.5,-209.5 538.5,-190.5 402.5,-190.5"/>
<text text-anchor="middle" x="470.5" y="-197.5" font-family="Helvetica,sans-Serif" font-size="10.00">pycanha::gmm::Cylinder</text>
</a>
</g>
</g>
<!-- Node2&#45;&gt;Node4 -->
<g id="edge3" class="edge">
<title>Node2&#45;&gt;Node4</title>
<path fill="none" stroke="midnightblue" d="M309.44,-139.03C330.18,-151.76 361.62,-169.69 391,-181 400.68,-184.73 411.33,-187.89 421.57,-190.5"/>
<polygon fill="midnightblue" stroke="midnightblue" points="311.05,-135.91 300.71,-133.59 307.35,-141.85 311.05,-135.91"/>
</g>
<!-- Node5 -->
<g id="node5" class="node">
<title>Node5</title>
<g id="a_node5"><a xlink:href="classpycanha_1_1gmm_1_1Disc.html" target="_top" xlink:title="A class representing a disc in 3D space.">
<polygon fill="none" stroke="black" points="412.5,-152.5 412.5,-171.5 528.5,-171.5 528.5,-152.5 412.5,-152.5"/>
<text text-anchor="middle" x="470.5" y="-159.5" font-family="Helvetica,sans-Serif" font-size="10.00">pycanha::gmm::Disc</text>
</a>
</g>
</g>
<!-- Node2&#45;&gt;Node5 -->
<g id="edge4" class="edge">
<title>Node2&#45;&gt;Node5</title>
<path fill="none" stroke="midnightblue" d="M342.41,-135.68C368.43,-141.07 398.93,-147.39 423.53,-152.48"/>
<polygon fill="midnightblue" stroke="midnightblue" points="342.81,-132.19 332.3,-133.59 341.39,-139.04 342.81,-132.19"/>
</g>
<!-- Node6 -->
<g id="node6" class="node">
<title>Node6</title>
<g id="a_node6"><a xlink:href="classpycanha_1_1gmm_1_1Quadrilateral.html" target="_top" xlink:title="A class representing a quadrilateral in 3D space.">
<polygon fill="none" stroke="black" points="391,-114.5 391,-133.5 550,-133.5 550,-114.5 391,-114.5"/>
<text text-anchor="middle" x="470.5" y="-121.5" font-family="Helvetica,sans-Serif" font-size="10.00">pycanha::gmm::Quadrilateral</text>
</a>
</g>
</g>
<!-- Node2&#45;&gt;Node6 -->
<g id="edge5" class="edge">
<title>Node2&#45;&gt;Node6</title>
<path fill="none" stroke="midnightblue" d="M365.35,-124C373.83,-124 382.44,-124 390.91,-124"/>
<polygon fill="midnightblue" stroke="midnightblue" points="365.11,-120.5 355.11,-124 365.11,-127.5 365.11,-120.5"/>
</g>
<!-- Node7 -->
<g id="node7" class="node">
<title>Node7</title>
<g id="a_node7"><a xlink:href="classpycanha_1_1gmm_1_1Rectangle.html" target="_top" xlink:title="A class representing a rectangle in 3D space.">
<polygon fill="none" stroke="black" points="398.5,-76.5 398.5,-95.5 542.5,-95.5 542.5,-76.5 398.5,-76.5"/>
<text text-anchor="middle" x="470.5" y="-83.5" font-family="Helvetica,sans-Serif" font-size="10.00">pycanha::gmm::Rectangle</text>
</a>
</g>
</g>
<!-- Node2&#45;&gt;Node7 -->
<g id="edge6" class="edge">
<title>Node2&#45;&gt;Node7</title>
<path fill="none" stroke="midnightblue" d="M342.41,-112.32C368.43,-106.93 398.93,-100.61 423.53,-95.52"/>
<polygon fill="midnightblue" stroke="midnightblue" points="341.39,-108.96 332.3,-114.41 342.81,-115.81 341.39,-108.96"/>
</g>
<!-- Node8 -->
<g id="node8" class="node">
<title>Node8</title>
<g id="a_node8"><a xlink:href="classpycanha_1_1gmm_1_1Sphere.html" target="_top" xlink:title="A class representing a sphere in 3D space.">
<polygon fill="none" stroke="black" points="406,-38.5 406,-57.5 535,-57.5 535,-38.5 406,-38.5"/>
<text text-anchor="middle" x="470.5" y="-45.5" font-family="Helvetica,sans-Serif" font-size="10.00">pycanha::gmm::Sphere</text>
</a>
</g>
</g>
<!-- Node2&#45;&gt;Node8 -->
<g id="edge7" class="edge">
<title>Node2&#45;&gt;Node8</title>
<path fill="none" stroke="midnightblue" d="M309.44,-108.97C330.18,-96.24 361.62,-78.31 391,-67 400.68,-63.27 411.33,-60.11 421.57,-57.5"/>
<polygon fill="midnightblue" stroke="midnightblue" points="307.35,-106.15 300.71,-114.41 311.05,-112.09 307.35,-106.15"/>
</g>
<!-- Node9 -->
<g id="node9" class="node">
<title>Node9</title>
<g id="a_node9"><a xlink:href="classpycanha_1_1gmm_1_1Triangle.html" target="_top" xlink:title="A class representing a triangle in 3D space.">
<polygon fill="none" stroke="black" points="403.5,-0.5 403.5,-19.5 537.5,-19.5 537.5,-0.5 403.5,-0.5"/>
<text text-anchor="middle" x="470.5" y="-7.5" font-family="Helvetica,sans-Serif" font-size="10.00">pycanha::gmm::Triangle</text>
</a>
</g>
</g>
<!-- Node2&#45;&gt;Node9 -->
<g id="edge8" class="edge">
<title>Node2&#45;&gt;Node9</title>
<path fill="none" stroke="midnightblue" d="M300.37,-106.47C319.01,-84.92 353.59,-48.78 391,-29 398.31,-25.13 406.43,-22.04 414.58,-19.57"/>
<polygon fill="midnightblue" stroke="midnightblue" points="297.61,-104.31 293.83,-114.21 302.96,-108.83 297.61,-104.31"/>
</g>
</g>
</svg>
