<?xml version="1.0" encoding="UTF-8" standalone="no"?>
<!DOCTYPE svg PUBLIC "-//W3C//DTD SVG 1.1//EN"
 "http://www.w3.org/Graphics/SVG/1.1/DTD/svg11.dtd">
<!-- Generated by graphviz version 2.43.0 (0)
 -->
<!-- Title: pycanha::Nodes::remove_node Pages: 1 -->
<svg width="342pt" height="86pt"
 viewBox="0.00 0.00 342.00 86.00" xmlns="http://www.w3.org/2000/svg" xmlns:xlink="http://www.w3.org/1999/xlink">
<g id="graph0" class="graph" transform="scale(1 1) rotate(0) translate(4 82)">
<title>pycanha::Nodes::remove_node</title>
<!-- Node1 -->
<g id="Node000001" class="node">
<title>Node1</title>
<g id="a_Node000001"><a xlink:title="Method to delete a node of the model.">
<polygon fill="#999999" stroke="#666666" points="167,-48.5 0,-48.5 0,-29.5 167,-29.5 167,-48.5"/>
<text text-anchor="middle" x="83.5" y="-36.5" font-family="Helvetica,sans-Serif" font-size="10.00">pycanha::Nodes::remove_node</text>
</a>
</g>
</g>
<!-- Node2 -->
<g id="Node000002" class="node">
<title>Node2</title>
<g id="a_Node000002"><a xlink:href="classpycanha_1_1Nodes.html#a81700922fc0fd0e15b785233a71b315c" target="_top" xlink:title=" ">
<polygon fill="white" stroke="#666666" points="334,-78 203,-78 203,-48 334,-48 334,-78"/>
<text text-anchor="start" x="211" y="-66" font-family="Helvetica,sans-Serif" font-size="10.00">pycanha::Nodes::delete</text>
<text text-anchor="middle" x="268.5" y="-55" font-family="Helvetica,sans-Serif" font-size="10.00">_displace</text>
</a>
</g>
</g>
<!-- Node1&#45;&gt;Node2 -->
<g id="edge1_Node000001_Node000002" class="edge">
<title>Node1&#45;&gt;Node2</title>
<g id="a_edge1_Node000001_Node000002"><a xlink:title=" ">
<path fill="none" stroke="#63b8ff" d="M157.09,-48.52C168.74,-50.05 180.83,-51.63 192.53,-53.17"/>
<polygon fill="#63b8ff" stroke="#63b8ff" points="192.34,-56.67 202.71,-54.5 193.25,-49.73 192.34,-56.67"/>
</a>
</g>
</g>
<!-- Node3 -->
<g id="Node000003" class="node">
<title>Node3</title>
<g id="a_Node000003"><a xlink:href="classpycanha_1_1Nodes.html#aea1777a63bd88acb2368d5ab614cd813" target="_top" xlink:title="Get internal node numbre from user number.">
<polygon fill="white" stroke="#666666" points="329.5,-30 207.5,-30 207.5,0 329.5,0 329.5,-30"/>
<text text-anchor="start" x="215.5" y="-18" font-family="Helvetica,sans-Serif" font-size="10.00">pycanha::Nodes::get</text>
<text text-anchor="middle" x="268.5" y="-7" font-family="Helvetica,sans-Serif" font-size="10.00">_idx_from_node_num</text>
</a>
</g>
</g>
<!-- Node1&#45;&gt;Node3 -->
<g id="edge2_Node000001_Node000003" class="edge">
<title>Node1&#45;&gt;Node3</title>
<g id="a_edge2_Node000001_Node000003"><a xlink:title=" ">
<path fill="none" stroke="#63b8ff" d="M157.09,-29.48C170.37,-27.74 184.2,-25.92 197.41,-24.19"/>
<polygon fill="#63b8ff" stroke="#63b8ff" points="197.91,-27.66 207.37,-22.89 197,-20.72 197.91,-27.66"/>
</a>
</g>
</g>
</g>
</svg>
