<?xml version="1.0" encoding="UTF-8" standalone="no"?>
<!DOCTYPE svg PUBLIC "-//W3C//DTD SVG 1.1//EN"
 "http://www.w3.org/Graphics/SVG/1.1/DTD/svg11.dtd">
<!-- Generated by graphviz version 2.43.0 (0)
 -->
<!-- Title: pycanha::gmm::Triangle::get_faceid_from_uv Pages: 1 -->
<svg width="518pt" height="114pt"
 viewBox="0.00 0.00 518.00 113.50" xmlns="http://www.w3.org/2000/svg" xmlns:xlink="http://www.w3.org/1999/xlink">
<g id="graph0" class="graph" transform="scale(1 1) rotate(0) translate(4 109.5)">
<title>pycanha::gmm::Triangle::get_faceid_from_uv</title>
<!-- Node1 -->
<g id="Node000001" class="node">
<title>Node1</title>
<g id="a_Node000001"><a xlink:title="Returns the ID of the face in the thermal mesh that contains the given UV coordinates....">
<polygon fill="#999999" stroke="#666666" points="134,-62.5 0,-62.5 0,-32.5 134,-32.5 134,-62.5"/>
<text text-anchor="start" x="8" y="-50.5" font-family="Helvetica,sans-Serif" font-size="10.00">pycanha::gmm::Triangle</text>
<text text-anchor="middle" x="67" y="-39.5" font-family="Helvetica,sans-Serif" font-size="10.00">::get_faceid_from_uv</text>
</a>
</g>
</g>
<!-- Node2 -->
<g id="Node000002" class="node">
<title>Node2</title>
<g id="a_Node000002"><a xlink:href="classpycanha_1_1gmm_1_1Triangle.html#a63ee40470d93361a8c4462b4fdde2127" target="_top" xlink:title="2D coordinates of a point ON the primitive surface from 3D coordinates. Note: It is assumed that the ...">
<polygon fill="white" stroke="#666666" points="313,-105.5 179,-105.5 179,-75.5 313,-75.5 313,-105.5"/>
<text text-anchor="start" x="187" y="-93.5" font-family="Helvetica,sans-Serif" font-size="10.00">pycanha::gmm::Triangle</text>
<text text-anchor="middle" x="246" y="-82.5" font-family="Helvetica,sans-Serif" font-size="10.00">::from_3d_to_2d</text>
</a>
</g>
</g>
<!-- Node1&#45;&gt;Node2 -->
<g id="edge1_Node000001_Node000002" class="edge">
<title>Node1&#45;&gt;Node2</title>
<g id="a_edge1_Node000001_Node000002"><a xlink:title=" ">
<path fill="none" stroke="#63b8ff" d="M129.91,-62.54C143.92,-65.94 158.91,-69.59 173.29,-73.08"/>
<polygon fill="#63b8ff" stroke="#63b8ff" points="172.59,-76.51 183.13,-75.47 174.24,-69.71 172.59,-76.51"/>
</a>
</g>
</g>
<!-- Node3 -->
<g id="Node000003" class="node">
<title>Node3</title>
<g id="a_Node000003"><a xlink:href="classpycanha_1_1gmm_1_1Triangle.html#af4f67a2841391839a57889d67443ef0c" target="_top" xlink:title="Returns the first direction v1 = p2 &#45; p1.">
<polygon fill="white" stroke="#666666" points="510,-78 358,-78 358,-59 510,-59 510,-78"/>
<text text-anchor="middle" x="434" y="-66" font-family="Helvetica,sans-Serif" font-size="10.00">pycanha::gmm::Triangle::v1</text>
</a>
</g>
</g>
<!-- Node1&#45;&gt;Node3 -->
<g id="edge3_Node000001_Node000003" class="edge">
<title>Node1&#45;&gt;Node3</title>
<g id="a_edge3_Node000001_Node000003"><a xlink:title=" ">
<path fill="none" stroke="#63b8ff" d="M134.1,-51.3C193.96,-54.75 282.51,-59.84 347.7,-63.59"/>
<polygon fill="#63b8ff" stroke="#63b8ff" points="347.77,-67.1 357.95,-64.18 348.17,-60.11 347.77,-67.1"/>
</a>
</g>
</g>
<!-- Node4 -->
<g id="Node000004" class="node">
<title>Node4</title>
<g id="a_Node000004"><a xlink:href="classpycanha_1_1gmm_1_1Triangle.html#a113cd18f27bd12d15681af628524300c" target="_top" xlink:title="Returns the second direction v2 = p3 &#45; p2.">
<polygon fill="white" stroke="#666666" points="322,-19 170,-19 170,0 322,0 322,-19"/>
<text text-anchor="middle" x="246" y="-7" font-family="Helvetica,sans-Serif" font-size="10.00">pycanha::gmm::Triangle::v2</text>
</a>
</g>
</g>
<!-- Node1&#45;&gt;Node4 -->
<g id="edge4_Node000001_Node000004" class="edge">
<title>Node1&#45;&gt;Node4</title>
<g id="a_edge4_Node000001_Node000004"><a xlink:title=" ">
<path fill="none" stroke="#63b8ff" d="M134.16,-33.3C152.71,-29.31 172.66,-25.03 190.46,-21.21"/>
<polygon fill="#63b8ff" stroke="#63b8ff" points="191.61,-24.54 200.66,-19.02 190.14,-17.7 191.61,-24.54"/>
</a>
</g>
</g>
<!-- Node2&#45;&gt;Node3 -->
<g id="edge2_Node000002_Node000003" class="edge">
<title>Node2&#45;&gt;Node3</title>
<g id="a_edge2_Node000002_Node000003"><a xlink:title=" ">
<path fill="none" stroke="#63b8ff" d="M313.1,-82.68C324.33,-81.35 336.12,-79.96 347.76,-78.58"/>
<polygon fill="#63b8ff" stroke="#63b8ff" points="348.4,-82.03 357.92,-77.38 347.58,-75.08 348.4,-82.03"/>
</a>
</g>
</g>
</g>
</svg>
