<?xml version="1.0" encoding="UTF-8" standalone="no"?>
<!DOCTYPE svg PUBLIC "-//W3C//DTD SVG 1.1//EN"
 "http://www.w3.org/Graphics/SVG/1.1/DTD/svg11.dtd">
<!-- Generated by graphviz version 2.43.0 (0)
 -->
<!-- Title: pycanha::gmm::CoordinateTransformation::transform_trimesh Pages: 1 -->
<svg width="527pt" height="100pt"
 viewBox="0.00 0.00 527.00 99.50" xmlns="http://www.w3.org/2000/svg" xmlns:xlink="http://www.w3.org/1999/xlink">
<g id="graph0" class="graph" transform="scale(1 1) rotate(0) translate(4 95.5)">
<title>pycanha::gmm::CoordinateTransformation::transform_trimesh</title>
<!-- Node1 -->
<g id="node1" class="node">
<title>Node1</title>
<g id="a_node1"><a xlink:title="Transform trimesh.">
<polygon fill="#bfbfbf" stroke="black" points="0,-27.5 0,-68.5 149,-68.5 149,-27.5 0,-27.5"/>
<text text-anchor="start" x="8" y="-56.5" font-family="Helvetica,sans-Serif" font-size="10.00">pycanha::gmm::Coordinate</text>
<text text-anchor="start" x="8" y="-45.5" font-family="Helvetica,sans-Serif" font-size="10.00">Transformation::transform</text>
<text text-anchor="middle" x="74.5" y="-34.5" font-family="Helvetica,sans-Serif" font-size="10.00">_trimesh</text>
</a>
</g>
</g>
<!-- Node2 -->
<g id="node2" class="node">
<title>Node2</title>
<g id="a_node2"><a xlink:href="classpycanha_1_1gmm_1_1CoordinateTransformation.html#abd93075ef06eea44103105a272a29c40" target="_top" xlink:title="Transform trimesh inplace.">
<polygon fill="none" stroke="black" points="185,-27.5 185,-68.5 334,-68.5 334,-27.5 185,-27.5"/>
<text text-anchor="start" x="193" y="-56.5" font-family="Helvetica,sans-Serif" font-size="10.00">pycanha::gmm::Coordinate</text>
<text text-anchor="start" x="193" y="-45.5" font-family="Helvetica,sans-Serif" font-size="10.00">Transformation::transform</text>
<text text-anchor="middle" x="259.5" y="-34.5" font-family="Helvetica,sans-Serif" font-size="10.00">_trimesh_inplace</text>
</a>
</g>
</g>
<!-- Node1&#45;&gt;Node2 -->
<g id="edge1" class="edge">
<title>Node1&#45;&gt;Node2</title>
<path fill="none" stroke="midnightblue" d="M149.14,-48C157.47,-48 166.01,-48 174.46,-48"/>
<polygon fill="midnightblue" stroke="midnightblue" points="174.71,-51.5 184.71,-48 174.71,-44.5 174.71,-51.5"/>
</g>
<!-- Node3 -->
<g id="node3" class="node">
<title>Node3</title>
<g id="a_node3"><a xlink:href="classpycanha_1_1gmm_1_1TriMesh.html#a5e7a2cc9ec97ba48a13277d2c391e928" target="_top" xlink:title="Get vertices matrix.">
<polygon fill="none" stroke="black" points="378,-61 378,-91 511,-91 511,-61 378,-61"/>
<text text-anchor="start" x="386" y="-79" font-family="Helvetica,sans-Serif" font-size="10.00">pycanha::gmm::TriMesh</text>
<text text-anchor="middle" x="444.5" y="-68" font-family="Helvetica,sans-Serif" font-size="10.00">::get_vertices</text>
</a>
</g>
</g>
<!-- Node2&#45;&gt;Node3 -->
<g id="edge2" class="edge">
<title>Node2&#45;&gt;Node3</title>
<path fill="none" stroke="midnightblue" d="M334.14,-59.27C345.24,-60.97 356.71,-62.72 367.85,-64.43"/>
<polygon fill="midnightblue" stroke="midnightblue" points="367.56,-67.92 377.98,-65.97 368.62,-61 367.56,-67.92"/>
</g>
<!-- Node4 -->
<g id="node4" class="node">
<title>Node4</title>
<g id="a_node4"><a xlink:href="classpycanha_1_1gmm_1_1CoordinateTransformation.html#a2e2c25f5f8672173950bf9c0878222c3" target="_top" xlink:title="Transform trimesh points inplace.">
<polygon fill="none" stroke="black" points="370,-0.5 370,-41.5 519,-41.5 519,-0.5 370,-0.5"/>
<text text-anchor="start" x="378" y="-29.5" font-family="Helvetica,sans-Serif" font-size="10.00">pycanha::gmm::Coordinate</text>
<text text-anchor="start" x="378" y="-18.5" font-family="Helvetica,sans-Serif" font-size="10.00">Transformation::transform</text>
<text text-anchor="middle" x="444.5" y="-7.5" font-family="Helvetica,sans-Serif" font-size="10.00">_point_list_inplace</text>
</a>
</g>
</g>
<!-- Node2&#45;&gt;Node4 -->
<g id="edge3" class="edge">
<title>Node2&#45;&gt;Node4</title>
<path fill="none" stroke="midnightblue" d="M334.14,-37.13C342.57,-35.89 351.2,-34.62 359.74,-33.36"/>
<polygon fill="midnightblue" stroke="midnightblue" points="360.33,-36.81 369.71,-31.89 359.31,-29.88 360.33,-36.81"/>
</g>
</g>
</svg>
