<?xml version="1.0" encoding="UTF-8" standalone="no"?>
<!DOCTYPE svg PUBLIC "-//W3C//DTD SVG 1.1//EN"
 "http://www.w3.org/Graphics/SVG/1.1/DTD/svg11.dtd">
<!-- Generated by graphviz version 2.43.0 (0)
 -->
<!-- Title: pycanha::gmm::Geometry Pages: 1 -->
<svg width="404pt" height="207pt"
 viewBox="0.00 0.00 404.00 207.00" xmlns="http://www.w3.org/2000/svg" xmlns:xlink="http://www.w3.org/1999/xlink">
<g id="graph0" class="graph" transform="scale(1 1) rotate(0) translate(4 203)">
<title>pycanha::gmm::Geometry</title>
<!-- Node1 -->
<g id="node1" class="node">
<title>Node1</title>
<g id="a_node1"><a xlink:title="Base class for geometric items.">
<polygon fill="#bfbfbf" stroke="black" points="117.5,-123.5 117.5,-142.5 261.5,-142.5 261.5,-123.5 117.5,-123.5"/>
<text text-anchor="middle" x="189.5" y="-130.5" font-family="Helvetica,sans-Serif" font-size="10.00">pycanha::gmm::Geometry</text>
</a>
</g>
</g>
<!-- Node3 -->
<g id="node3" class="node">
<title>Node3</title>
<g id="a_node3"><a xlink:href="classpycanha_1_1gmm_1_1GeometryGroup.html" target="_top" xlink:title="Class representing a group of geometric items. Inherits from Geometry.">
<polygon fill="none" stroke="black" points="9,-67.5 9,-86.5 182,-86.5 182,-67.5 9,-67.5"/>
<text text-anchor="middle" x="95.5" y="-74.5" font-family="Helvetica,sans-Serif" font-size="10.00">pycanha::gmm::GeometryGroup</text>
</a>
</g>
</g>
<!-- Node1&#45;&gt;Node3 -->
<g id="edge2" class="edge">
<title>Node1&#45;&gt;Node3</title>
<path fill="none" stroke="midnightblue" d="M165.44,-118.18C148.14,-108.24 125.35,-95.15 110.57,-86.65"/>
<polygon fill="midnightblue" stroke="midnightblue" points="163.98,-121.38 174.4,-123.32 167.47,-115.31 163.98,-121.38"/>
</g>
<!-- Node5 -->
<g id="node5" class="node">
<title>Node5</title>
<g id="a_node5"><a xlink:href="classpycanha_1_1gmm_1_1GeometryItem.html" target="_top" xlink:title="The base class for all geometry items.">
<polygon fill="none" stroke="black" points="205,-67.5 205,-86.5 372,-86.5 372,-67.5 205,-67.5"/>
<text text-anchor="middle" x="288.5" y="-74.5" font-family="Helvetica,sans-Serif" font-size="10.00">pycanha::gmm::GeometryItem</text>
</a>
</g>
</g>
<!-- Node1&#45;&gt;Node5 -->
<g id="edge4" class="edge">
<title>Node1&#45;&gt;Node5</title>
<path fill="none" stroke="midnightblue" d="M214.34,-118.45C232.61,-108.48 256.92,-95.23 272.63,-86.65"/>
<polygon fill="midnightblue" stroke="midnightblue" points="212.51,-115.46 205.41,-123.32 215.86,-121.61 212.51,-115.46"/>
</g>
<!-- Node2 -->
<g id="node2" class="node">
<title>Node2</title>
<g id="a_node2"><a xlink:href="classpycanha_1_1gmm_1_1UniqueID.html" target="_top" xlink:title="Provides a unique integer id.">
<polygon fill="none" stroke="black" points="119.5,-179.5 119.5,-198.5 259.5,-198.5 259.5,-179.5 119.5,-179.5"/>
<text text-anchor="middle" x="189.5" y="-186.5" font-family="Helvetica,sans-Serif" font-size="10.00">pycanha::gmm::UniqueID</text>
</a>
</g>
</g>
<!-- Node2&#45;&gt;Node1 -->
<g id="edge1" class="edge">
<title>Node2&#45;&gt;Node1</title>
<path fill="none" stroke="midnightblue" d="M189.5,-168.8C189.5,-159.91 189.5,-149.78 189.5,-142.75"/>
<polygon fill="midnightblue" stroke="midnightblue" points="186,-169.08 189.5,-179.08 193,-169.08 186,-169.08"/>
</g>
<!-- Node4 -->
<g id="node4" class="node">
<title>Node4</title>
<g id="a_node4"><a xlink:href="classpycanha_1_1gmm_1_1GeometryGroupCutted.html" target="_top" xlink:title="Class representing a cutted geometry.">
<polygon fill="none" stroke="black" points="0,-0.5 0,-30.5 173,-30.5 173,-0.5 0,-0.5"/>
<text text-anchor="start" x="8" y="-18.5" font-family="Helvetica,sans-Serif" font-size="10.00">pycanha::gmm::GeometryGroup</text>
<text text-anchor="middle" x="86.5" y="-7.5" font-family="Helvetica,sans-Serif" font-size="10.00">Cutted</text>
</a>
</g>
</g>
<!-- Node3&#45;&gt;Node4 -->
<g id="edge3" class="edge">
<title>Node3&#45;&gt;Node4</title>
<path fill="none" stroke="midnightblue" d="M92.71,-57.53C91.39,-48.81 89.84,-38.59 88.62,-30.52"/>
<polygon fill="midnightblue" stroke="midnightblue" points="89.25,-58.11 94.21,-67.48 96.18,-57.06 89.25,-58.11"/>
</g>
<!-- Node6 -->
<g id="node6" class="node">
<title>Node6</title>
<g id="a_node6"><a xlink:href="classpycanha_1_1gmm_1_1GeometryMeshedItem.html" target="_top" xlink:title="A geometry item that contains mesh data.">
<polygon fill="none" stroke="black" points="191,-6 191,-25 396,-25 396,-6 191,-6"/>
<text text-anchor="middle" x="293.5" y="-13" font-family="Helvetica,sans-Serif" font-size="10.00">pycanha::gmm::GeometryMeshedItem</text>
</a>
</g>
</g>
<!-- Node5&#45;&gt;Node6 -->
<g id="edge5" class="edge">
<title>Node5&#45;&gt;Node6</title>
<path fill="none" stroke="midnightblue" d="M290.07,-57.32C290.98,-46.5 292.08,-33.4 292.78,-25.01"/>
<polygon fill="midnightblue" stroke="midnightblue" points="286.57,-57.22 289.22,-67.48 293.54,-57.8 286.57,-57.22"/>
</g>
</g>
</svg>
