<?xml version="1.0" encoding="UTF-8" standalone="no"?>
<!DOCTYPE svg PUBLIC "-//W3C//DTD SVG 1.1//EN"
 "http://www.w3.org/Graphics/SVG/1.1/DTD/svg11.dtd">
<!-- Generated by graphviz version 2.43.0 (0)
 -->
<!-- Title: pycanha::Nodes::add_node_insert_idx Pages: 1 -->
<svg width="477pt" height="692pt"
 viewBox="0.00 0.00 477.00 691.50" xmlns="http://www.w3.org/2000/svg" xmlns:xlink="http://www.w3.org/1999/xlink">
<g id="graph0" class="graph" transform="scale(1 1) rotate(0) translate(4 687.5)">
<title>pycanha::Nodes::add_node_insert_idx</title>
<!-- Node1 -->
<g id="Node000001" class="node">
<title>Node1</title>
<g id="a_Node000001"><a xlink:title=" ">
<polygon fill="#999999" stroke="#666666" points="119,-364 0,-364 0,-334 119,-334 119,-364"/>
<text text-anchor="start" x="8" y="-352" font-family="Helvetica,sans-Serif" font-size="10.00">pycanha::Nodes::add</text>
<text text-anchor="middle" x="59.5" y="-341" font-family="Helvetica,sans-Serif" font-size="10.00">_node_insert_idx</text>
</a>
</g>
</g>
<!-- Node2 -->
<g id="Node000002" class="node">
<title>Node2</title>
<g id="a_Node000002"><a xlink:href="classpycanha_1_1Node.html#a876558b19fd24813e3ad240d7bcc6b47" target="_top" xlink:title="Area [m^2] getter.">
<polygon fill="white" stroke="#666666" points="285,-683.5 163,-683.5 163,-664.5 285,-664.5 285,-683.5"/>
<text text-anchor="middle" x="224" y="-671.5" font-family="Helvetica,sans-Serif" font-size="10.00">pycanha::Node::get_a</text>
</a>
</g>
</g>
<!-- Node1&#45;&gt;Node2 -->
<g id="edge1_Node000001_Node000002" class="edge">
<title>Node1&#45;&gt;Node2</title>
<g id="a_edge1_Node000001_Node000002"><a xlink:title=" ">
<path fill="none" stroke="#63b8ff" d="M60.35,-364.05C60.69,-413.6 68.75,-573.12 155,-656 156.1,-657.06 157.26,-658.06 158.46,-659"/>
<polygon fill="#63b8ff" stroke="#63b8ff" points="156.67,-662 166.98,-664.41 160.42,-656.09 156.67,-662"/>
</a>
</g>
</g>
<!-- Node4 -->
<g id="Node000004" class="node">
<title>Node4</title>
<g id="a_Node000004"><a xlink:href="classpycanha_1_1Node.html#ad4784620cf111949d455951f408a8ff1" target="_top" xlink:title="Solar absortivity getter.">
<polygon fill="white" stroke="#666666" points="291,-646.5 157,-646.5 157,-627.5 291,-627.5 291,-646.5"/>
<text text-anchor="middle" x="224" y="-634.5" font-family="Helvetica,sans-Serif" font-size="10.00">pycanha::Node::get_aph</text>
</a>
</g>
</g>
<!-- Node1&#45;&gt;Node4 -->
<g id="edge3_Node000001_Node000004" class="edge">
<title>Node1&#45;&gt;Node4</title>
<g id="a_edge3_Node000001_Node000004"><a xlink:title=" ">
<path fill="none" stroke="#63b8ff" d="M61.08,-364.17C63.69,-409.91 77.89,-547.68 155,-619 156.15,-620.06 157.35,-621.06 158.6,-622.01"/>
<polygon fill="#63b8ff" stroke="#63b8ff" points="157.1,-625.19 167.45,-627.43 160.76,-619.22 157.1,-625.19"/>
</a>
</g>
</g>
<!-- Node6 -->
<g id="Node000006" class="node">
<title>Node6</title>
<g id="a_Node000006"><a xlink:href="classpycanha_1_1Node.html#aa0530593dd3c33b50051fd5630583a9a" target="_top" xlink:title="Thermal capacity [J/K] getter.">
<polygon fill="white" stroke="#666666" points="285.5,-609.5 162.5,-609.5 162.5,-590.5 285.5,-590.5 285.5,-609.5"/>
<text text-anchor="middle" x="224" y="-597.5" font-family="Helvetica,sans-Serif" font-size="10.00">pycanha::Node::get_C</text>
</a>
</g>
</g>
<!-- Node1&#45;&gt;Node6 -->
<g id="edge5_Node000001_Node000006" class="edge">
<title>Node1&#45;&gt;Node6</title>
<g id="a_edge5_Node000001_Node000006"><a xlink:title=" ">
<path fill="none" stroke="#63b8ff" d="M62.04,-364.17C67.07,-405.68 86.87,-521.99 155,-582 156.32,-583.17 157.71,-584.26 159.16,-585.28"/>
<polygon fill="#63b8ff" stroke="#63b8ff" points="157.56,-588.4 167.96,-590.4 161.08,-582.35 157.56,-588.4"/>
</a>
</g>
</g>
<!-- Node8 -->
<g id="Node000008" class="node">
<title>Node8</title>
<g id="a_Node000008"><a xlink:href="classpycanha_1_1Node.html#a82b33ac89fa4e60186dd49bbccff62a5" target="_top" xlink:title="IR emissivity getter.">
<polygon fill="white" stroke="#666666" points="291,-572.5 157,-572.5 157,-553.5 291,-553.5 291,-572.5"/>
<text text-anchor="middle" x="224" y="-560.5" font-family="Helvetica,sans-Serif" font-size="10.00">pycanha::Node::get_eps</text>
</a>
</g>
</g>
<!-- Node1&#45;&gt;Node8 -->
<g id="edge7_Node000001_Node000008" class="edge">
<title>Node1&#45;&gt;Node8</title>
<g id="a_edge7_Node000001_Node000008"><a xlink:title=" ">
<path fill="none" stroke="#63b8ff" d="M63.31,-364.17C70.97,-401.07 95.72,-496.06 155,-545 156.55,-546.28 158.19,-547.48 159.89,-548.58"/>
<polygon fill="#63b8ff" stroke="#63b8ff" points="158.4,-551.76 168.86,-553.45 161.74,-545.6 158.4,-551.76"/>
</a>
</g>
</g>
<!-- Node10 -->
<g id="Node000010" class="node">
<title>Node10</title>
<g id="a_Node000010"><a xlink:href="classpycanha_1_1Node.html#af99429c4bbd433a67325730ed5517252" target="_top" xlink:title="X coordinate [m] getter.">
<polygon fill="white" stroke="#666666" points="287,-535.5 161,-535.5 161,-516.5 287,-516.5 287,-535.5"/>
<text text-anchor="middle" x="224" y="-523.5" font-family="Helvetica,sans-Serif" font-size="10.00">pycanha::Node::get_fx</text>
</a>
</g>
</g>
<!-- Node1&#45;&gt;Node10 -->
<g id="edge9_Node000001_Node000010" class="edge">
<title>Node1&#45;&gt;Node10</title>
<g id="a_edge9_Node000001_Node000010"><a xlink:title=" ">
<path fill="none" stroke="#63b8ff" d="M65.2,-364.37C75.77,-396.27 104.51,-469.88 155,-508 156.82,-509.38 158.74,-510.65 160.73,-511.82"/>
<polygon fill="#63b8ff" stroke="#63b8ff" points="159.34,-515.04 169.85,-516.37 162.46,-508.77 159.34,-515.04"/>
</a>
</g>
</g>
<!-- Node12 -->
<g id="Node000012" class="node">
<title>Node12</title>
<g id="a_Node000012"><a xlink:href="classpycanha_1_1Node.html#a75a1e382bb8d0fab4ffc116191f099f5" target="_top" xlink:title="Y coordinate [m] getter.">
<polygon fill="white" stroke="#666666" points="286.5,-498.5 161.5,-498.5 161.5,-479.5 286.5,-479.5 286.5,-498.5"/>
<text text-anchor="middle" x="224" y="-486.5" font-family="Helvetica,sans-Serif" font-size="10.00">pycanha::Node::get_fy</text>
</a>
</g>
</g>
<!-- Node1&#45;&gt;Node12 -->
<g id="edge11_Node000001_Node000012" class="edge">
<title>Node1&#45;&gt;Node12</title>
<g id="a_edge11_Node000001_Node000012"><a xlink:title=" ">
<path fill="none" stroke="#63b8ff" d="M68.07,-364.36C81.73,-390.42 113.01,-443.18 155,-471 157.43,-472.61 160.01,-474.08 162.67,-475.42"/>
<polygon fill="#63b8ff" stroke="#63b8ff" points="161.44,-478.7 172.01,-479.48 164.23,-472.28 161.44,-478.7"/>
</a>
</g>
</g>
<!-- Node14 -->
<g id="Node000014" class="node">
<title>Node14</title>
<g id="a_Node000014"><a xlink:href="classpycanha_1_1Node.html#a1c12438baa7975c31b59b4b8d8cbfee9" target="_top" xlink:title="Z coordinate [m] getter.">
<polygon fill="white" stroke="#666666" points="286.5,-461.5 161.5,-461.5 161.5,-442.5 286.5,-442.5 286.5,-461.5"/>
<text text-anchor="middle" x="224" y="-449.5" font-family="Helvetica,sans-Serif" font-size="10.00">pycanha::Node::get_fz</text>
</a>
</g>
</g>
<!-- Node1&#45;&gt;Node14 -->
<g id="edge13_Node000001_Node000014" class="edge">
<title>Node1&#45;&gt;Node14</title>
<g id="a_edge13_Node000001_Node000014"><a xlink:title=" ">
<path fill="none" stroke="#63b8ff" d="M75.26,-364.28C92.84,-381.75 123.78,-410.22 155,-428 162.43,-432.23 170.73,-435.91 178.91,-439.04"/>
<polygon fill="#63b8ff" stroke="#63b8ff" points="177.81,-442.36 188.41,-442.45 180.18,-435.77 177.81,-442.36"/>
</a>
</g>
</g>
<!-- Node16 -->
<g id="Node000016" class="node">
<title>Node16</title>
<g id="a_Node000016"><a xlink:href="namespacepycanha.html#af116674b7649af0e33b3d7e78ecb1b1b" target="_top" xlink:title=" ">
<polygon fill="white" stroke="#666666" points="457,-380.5 341,-380.5 341,-361.5 457,-361.5 457,-380.5"/>
<text text-anchor="middle" x="399" y="-368.5" font-family="Helvetica,sans-Serif" font-size="10.00">pycanha::get_logger</text>
</a>
</g>
</g>
<!-- Node1&#45;&gt;Node16 -->
<g id="edge15_Node000001_Node000016" class="edge">
<title>Node1&#45;&gt;Node16</title>
<g id="a_edge15_Node000001_Node000016"><a xlink:title=" ">
<path fill="none" stroke="#63b8ff" d="M83.85,-364.09C102.33,-375.09 129.22,-389.06 155,-395 224.61,-411.04 307.87,-395.57 356.65,-383.11"/>
<polygon fill="#63b8ff" stroke="#63b8ff" points="357.74,-386.45 366.52,-380.52 355.95,-379.68 357.74,-386.45"/>
</a>
</g>
</g>
<!-- Node17 -->
<g id="Node000017" class="node">
<title>Node17</title>
<g id="a_Node000017"><a xlink:href="classpycanha_1_1Node.html#ab36caedf2446704d68357c396cf5da9c" target="_top" xlink:title="User node number getter.">
<polygon fill="white" stroke="#666666" points="279.5,-386 168.5,-386 168.5,-356 279.5,-356 279.5,-386"/>
<text text-anchor="start" x="176.5" y="-374" font-family="Helvetica,sans-Serif" font-size="10.00">pycanha::Node::get</text>
<text text-anchor="middle" x="224" y="-363" font-family="Helvetica,sans-Serif" font-size="10.00">_node_num</text>
</a>
</g>
</g>
<!-- Node1&#45;&gt;Node17 -->
<g id="edge16_Node000001_Node000017" class="edge">
<title>Node1&#45;&gt;Node17</title>
<g id="a_edge16_Node000001_Node000017"><a xlink:title=" ">
<path fill="none" stroke="#63b8ff" d="M119.17,-356.94C131.86,-358.66 145.36,-360.49 158.27,-362.24"/>
<polygon fill="#63b8ff" stroke="#63b8ff" points="158.1,-365.75 168.48,-363.62 159.04,-358.81 158.1,-365.75"/>
</a>
</g>
</g>
<!-- Node18 -->
<g id="Node000018" class="node">
<title>Node18</title>
<g id="a_Node000018"><a xlink:href="classpycanha_1_1Node.html#a716082814c425fc97d24196193216ab7" target="_top" xlink:title="Albedo load [W] getter.">
<polygon fill="white" stroke="#666666" points="288,-300.5 160,-300.5 160,-281.5 288,-281.5 288,-300.5"/>
<text text-anchor="middle" x="224" y="-288.5" font-family="Helvetica,sans-Serif" font-size="10.00">pycanha::Node::get_qa</text>
</a>
</g>
</g>
<!-- Node1&#45;&gt;Node18 -->
<g id="edge17_Node000001_Node000018" class="edge">
<title>Node1&#45;&gt;Node18</title>
<g id="a_edge17_Node000001_Node000018"><a xlink:title=" ">
<path fill="none" stroke="#63b8ff" d="M94.24,-333.93C112.11,-326.24 134.53,-317.06 155,-310 161.62,-307.72 168.67,-305.51 175.63,-303.45"/>
<polygon fill="#63b8ff" stroke="#63b8ff" points="177.05,-306.69 185.7,-300.56 175.12,-299.96 177.05,-306.69"/>
</a>
</g>
</g>
<!-- Node20 -->
<g id="Node000020" class="node">
<title>Node20</title>
<g id="a_Node000020"><a xlink:href="classpycanha_1_1Node.html#a3f8d98cc232bfb86459eeb1e15803a29" target="_top" xlink:title="Earth IR load [W] getter.">
<polygon fill="white" stroke="#666666" points="288,-263.5 160,-263.5 160,-244.5 288,-244.5 288,-263.5"/>
<text text-anchor="middle" x="224" y="-251.5" font-family="Helvetica,sans-Serif" font-size="10.00">pycanha::Node::get_qe</text>
</a>
</g>
</g>
<!-- Node1&#45;&gt;Node20 -->
<g id="edge19_Node000001_Node000020" class="edge">
<title>Node1&#45;&gt;Node20</title>
<g id="a_edge19_Node000001_Node000020"><a xlink:title=" ">
<path fill="none" stroke="#63b8ff" d="M75.17,-333.97C92.68,-316.85 123.54,-289.17 155,-273 159.52,-270.68 164.35,-268.61 169.29,-266.77"/>
<polygon fill="#63b8ff" stroke="#63b8ff" points="170.5,-270.06 178.84,-263.52 168.24,-263.43 170.5,-270.06"/>
</a>
</g>
</g>
<!-- Node22 -->
<g id="Node000022" class="node">
<title>Node22</title>
<g id="a_Node000022"><a xlink:href="classpycanha_1_1Node.html#a8eaf6624e94095586b79ce8208e21fd0" target="_top" xlink:title="Internal load [W] getter.">
<polygon fill="white" stroke="#666666" points="286.5,-226.5 161.5,-226.5 161.5,-207.5 286.5,-207.5 286.5,-226.5"/>
<text text-anchor="middle" x="224" y="-214.5" font-family="Helvetica,sans-Serif" font-size="10.00">pycanha::Node::get_qi</text>
</a>
</g>
</g>
<!-- Node1&#45;&gt;Node22 -->
<g id="edge21_Node000001_Node000022" class="edge">
<title>Node1&#45;&gt;Node22</title>
<g id="a_edge21_Node000001_Node000022"><a xlink:title=" ">
<path fill="none" stroke="#63b8ff" d="M69.1,-333.67C83.6,-309.25 115.25,-261.67 155,-236 158.17,-233.95 161.57,-232.12 165.08,-230.48"/>
<polygon fill="#63b8ff" stroke="#63b8ff" points="166.67,-233.62 174.61,-226.59 164.03,-227.14 166.67,-233.62"/>
</a>
</g>
</g>
<!-- Node24 -->
<g id="Node000024" class="node">
<title>Node24</title>
<g id="a_Node000024"><a xlink:href="classpycanha_1_1Node.html#afd9b106f3cc7b293cb9ab474d801823c" target="_top" xlink:title="Other load [W] getter.">
<polygon fill="white" stroke="#666666" points="287,-189.5 161,-189.5 161,-170.5 287,-170.5 287,-189.5"/>
<text text-anchor="middle" x="224" y="-177.5" font-family="Helvetica,sans-Serif" font-size="10.00">pycanha::Node::get_qr</text>
</a>
</g>
</g>
<!-- Node1&#45;&gt;Node24 -->
<g id="edge23_Node000001_Node000024" class="edge">
<title>Node1&#45;&gt;Node24</title>
<g id="a_edge23_Node000001_Node000024"><a xlink:title=" ">
<path fill="none" stroke="#63b8ff" d="M65.84,-333.62C77.24,-303.13 106.88,-234.87 155,-199 157.52,-197.12 160.22,-195.42 163.04,-193.9"/>
<polygon fill="#63b8ff" stroke="#63b8ff" points="164.77,-196.96 172.36,-189.57 161.82,-190.61 164.77,-196.96"/>
</a>
</g>
</g>
<!-- Node26 -->
<g id="Node000026" class="node">
<title>Node26</title>
<g id="a_Node000026"><a xlink:href="classpycanha_1_1Node.html#aab3d773b93036e4a219a72ca6b029a50" target="_top" xlink:title="Solar load [W] getter.">
<polygon fill="white" stroke="#666666" points="288,-152.5 160,-152.5 160,-133.5 288,-133.5 288,-152.5"/>
<text text-anchor="middle" x="224" y="-140.5" font-family="Helvetica,sans-Serif" font-size="10.00">pycanha::Node::get_qs</text>
</a>
</g>
</g>
<!-- Node1&#45;&gt;Node26 -->
<g id="edge25_Node000001_Node000026" class="edge">
<title>Node1&#45;&gt;Node26</title>
<g id="a_edge25_Node000001_Node000026"><a xlink:title=" ">
<path fill="none" stroke="#63b8ff" d="M63.76,-333.77C72.21,-298.11 98.22,-208.64 155,-162 157.07,-160.3 159.29,-158.75 161.6,-157.34"/>
<polygon fill="#63b8ff" stroke="#63b8ff" points="163.66,-160.22 170.97,-152.55 160.47,-153.99 163.66,-160.22"/>
</a>
</g>
</g>
<!-- Node28 -->
<g id="Node000028" class="node">
<title>Node28</title>
<g id="a_Node000028"><a xlink:href="classpycanha_1_1Node.html#a341fecda21eb1508e112ecd8c693385f" target="_top" xlink:title="Temperature [K] getter.">
<polygon fill="white" stroke="#666666" points="285,-115.5 163,-115.5 163,-96.5 285,-96.5 285,-115.5"/>
<text text-anchor="middle" x="224" y="-103.5" font-family="Helvetica,sans-Serif" font-size="10.00">pycanha::Node::get_T</text>
</a>
</g>
</g>
<!-- Node1&#45;&gt;Node28 -->
<g id="edge27_Node000001_Node000028" class="edge">
<title>Node1&#45;&gt;Node28</title>
<g id="a_edge27_Node000001_Node000028"><a xlink:title=" ">
<path fill="none" stroke="#63b8ff" d="M62.35,-333.87C68.11,-293.56 89.43,-182.74 155,-125 156.93,-123.3 159,-121.75 161.18,-120.34"/>
<polygon fill="#63b8ff" stroke="#63b8ff" points="162.9,-123.39 170.02,-115.55 159.56,-117.23 162.9,-123.39"/>
</a>
</g>
</g>
<!-- Node30 -->
<g id="Node000030" class="node">
<title>Node30</title>
<g id="a_Node000030"><a xlink:href="classpycanha_1_1Node.html#a55a4679e85533618ff220014344cc15b" target="_top" xlink:title="Type getter.">
<polygon fill="white" stroke="#666666" points="293,-337.5 155,-337.5 155,-318.5 293,-318.5 293,-337.5"/>
<text text-anchor="middle" x="224" y="-325.5" font-family="Helvetica,sans-Serif" font-size="10.00">pycanha::Node::get_type</text>
</a>
</g>
</g>
<!-- Node1&#45;&gt;Node30 -->
<g id="edge29_Node000001_Node000030" class="edge">
<title>Node1&#45;&gt;Node30</title>
<g id="a_edge29_Node000001_Node000030"><a xlink:title=" ">
<path fill="none" stroke="#63b8ff" d="M119.17,-341.42C127.46,-340.35 136.1,-339.23 144.7,-338.12"/>
<polygon fill="#63b8ff" stroke="#63b8ff" points="145.28,-341.57 154.75,-336.82 144.38,-334.63 145.28,-341.57"/>
</a>
</g>
</g>
<!-- Node31 -->
<g id="Node000031" class="node">
<title>Node31</title>
<g id="a_Node000031"><a xlink:href="classpycanha_1_1Nodes.html#a2ef3ee52b5de782b318b9860a7becff3" target="_top" xlink:title=" ">
<polygon fill="white" stroke="#666666" points="288,-78 160,-78 160,-48 288,-48 288,-78"/>
<text text-anchor="start" x="168" y="-66" font-family="Helvetica,sans-Serif" font-size="10.00">pycanha::Nodes::insert</text>
<text text-anchor="middle" x="224" y="-55" font-family="Helvetica,sans-Serif" font-size="10.00">_displace</text>
</a>
</g>
</g>
<!-- Node1&#45;&gt;Node31 -->
<g id="edge31_Node000001_Node000031" class="edge">
<title>Node1&#45;&gt;Node31</title>
<g id="a_edge31_Node000001_Node000031"><a xlink:title=" ">
<path fill="none" stroke="#63b8ff" d="M61.64,-333.7C65.76,-289.41 83.62,-159.74 155,-88 156.43,-86.56 157.95,-85.21 159.54,-83.93"/>
<polygon fill="#63b8ff" stroke="#63b8ff" points="161.73,-86.67 168.03,-78.16 157.8,-80.88 161.73,-86.67"/>
</a>
</g>
</g>
<!-- Node32 -->
<g id="Node000032" class="node">
<title>Node32</title>
<g id="a_Node000032"><a xlink:href="classpycanha_1_1Node.html#aa6ed2994d3acaf711d8f0c12145a7983" target="_top" xlink:title="Set the parent instance.">
<polygon fill="white" stroke="#666666" points="289.5,-30 158.5,-30 158.5,0 289.5,0 289.5,-30"/>
<text text-anchor="start" x="166.5" y="-18" font-family="Helvetica,sans-Serif" font-size="10.00">pycanha::Node::set</text>
<text text-anchor="middle" x="224" y="-7" font-family="Helvetica,sans-Serif" font-size="10.00">_thermal_nodes_parent</text>
</a>
</g>
</g>
<!-- Node1&#45;&gt;Node32 -->
<g id="edge32_Node000001_Node000032" class="edge">
<title>Node1&#45;&gt;Node32</title>
<g id="a_edge32_Node000001_Node000032"><a xlink:title=" ">
<path fill="none" stroke="#63b8ff" d="M60.57,-333.73C61.64,-284.16 71.73,-125.97 155,-39 155.93,-38.03 156.89,-37.11 157.89,-36.22"/>
<polygon fill="#63b8ff" stroke="#63b8ff" points="160.23,-38.84 166.21,-30.1 156.08,-33.21 160.23,-38.84"/>
</a>
</g>
</g>
<!-- Node3 -->
<g id="Node000003" class="node">
<title>Node3</title>
<g id="a_Node000003"><a xlink:href="classpycanha_1_1Nodes.html#ab82156d7252c29b5498f99db2766d02e" target="_top" xlink:title="Area [m^2] getter.">
<polygon fill="white" stroke="#666666" points="463,-683.5 335,-683.5 335,-664.5 463,-664.5 463,-683.5"/>
<text text-anchor="middle" x="399" y="-671.5" font-family="Helvetica,sans-Serif" font-size="10.00">pycanha::Nodes::get_a</text>
</a>
</g>
</g>
<!-- Node2&#45;&gt;Node3 -->
<g id="edge2_Node000002_Node000003" class="edge">
<title>Node2&#45;&gt;Node3</title>
<g id="a_edge2_Node000002_Node000003"><a xlink:title=" ">
<path fill="none" stroke="#63b8ff" d="M285.02,-674C297.85,-674 311.55,-674 324.81,-674"/>
<polygon fill="#63b8ff" stroke="#63b8ff" points="324.85,-677.5 334.85,-674 324.85,-670.5 324.85,-677.5"/>
</a>
</g>
</g>
<!-- Node5 -->
<g id="Node000005" class="node">
<title>Node5</title>
<g id="a_Node000005"><a xlink:href="classpycanha_1_1Nodes.html#af7a7bb9b2ce3080e447b7da1bdf5356d" target="_top" xlink:title="Solar absortivity getter.">
<polygon fill="white" stroke="#666666" points="469,-646.5 329,-646.5 329,-627.5 469,-627.5 469,-646.5"/>
<text text-anchor="middle" x="399" y="-634.5" font-family="Helvetica,sans-Serif" font-size="10.00">pycanha::Nodes::get_aph</text>
</a>
</g>
</g>
<!-- Node4&#45;&gt;Node5 -->
<g id="edge4_Node000004_Node000005" class="edge">
<title>Node4&#45;&gt;Node5</title>
<g id="a_edge4_Node000004_Node000005"><a xlink:title=" ">
<path fill="none" stroke="#63b8ff" d="M291.39,-637C300.32,-637 309.56,-637 318.68,-637"/>
<polygon fill="#63b8ff" stroke="#63b8ff" points="318.92,-640.5 328.92,-637 318.92,-633.5 318.92,-640.5"/>
</a>
</g>
</g>
<!-- Node7 -->
<g id="Node000007" class="node">
<title>Node7</title>
<g id="a_Node000007"><a xlink:href="classpycanha_1_1Nodes.html#a5e79301fe2f9a84b00b8d7e3192d0c18" target="_top" xlink:title="Thermal capacity [J/K] getter.">
<polygon fill="white" stroke="#666666" points="463,-609.5 335,-609.5 335,-590.5 463,-590.5 463,-609.5"/>
<text text-anchor="middle" x="399" y="-597.5" font-family="Helvetica,sans-Serif" font-size="10.00">pycanha::Nodes::get_C</text>
</a>
</g>
</g>
<!-- Node6&#45;&gt;Node7 -->
<g id="edge6_Node000006_Node000007" class="edge">
<title>Node6&#45;&gt;Node7</title>
<g id="a_edge6_Node000006_Node000007"><a xlink:title=" ">
<path fill="none" stroke="#63b8ff" d="M285.51,-600C298.12,-600 311.54,-600 324.56,-600"/>
<polygon fill="#63b8ff" stroke="#63b8ff" points="324.89,-603.5 334.89,-600 324.89,-596.5 324.89,-603.5"/>
</a>
</g>
</g>
<!-- Node9 -->
<g id="Node000009" class="node">
<title>Node9</title>
<g id="a_Node000009"><a xlink:href="classpycanha_1_1Nodes.html#a531d05e7782bb7f07e8df951346cb07d" target="_top" xlink:title="IR emissivity getter.">
<polygon fill="white" stroke="#666666" points="468.5,-572.5 329.5,-572.5 329.5,-553.5 468.5,-553.5 468.5,-572.5"/>
<text text-anchor="middle" x="399" y="-560.5" font-family="Helvetica,sans-Serif" font-size="10.00">pycanha::Nodes::get_eps</text>
</a>
</g>
</g>
<!-- Node8&#45;&gt;Node9 -->
<g id="edge8_Node000008_Node000009" class="edge">
<title>Node8&#45;&gt;Node9</title>
<g id="a_edge8_Node000008_Node000009"><a xlink:title=" ">
<path fill="none" stroke="#63b8ff" d="M291.39,-563C300.56,-563 310.04,-563 319.41,-563"/>
<polygon fill="#63b8ff" stroke="#63b8ff" points="319.49,-566.5 329.49,-563 319.49,-559.5 319.49,-566.5"/>
</a>
</g>
</g>
<!-- Node11 -->
<g id="Node000011" class="node">
<title>Node11</title>
<g id="a_Node000011"><a xlink:href="classpycanha_1_1Nodes.html#ade1dbf803c8d20e1b2d9ae23ce17db55" target="_top" xlink:title="X coordinate [m] getter.">
<polygon fill="white" stroke="#666666" points="464.5,-535.5 333.5,-535.5 333.5,-516.5 464.5,-516.5 464.5,-535.5"/>
<text text-anchor="middle" x="399" y="-523.5" font-family="Helvetica,sans-Serif" font-size="10.00">pycanha::Nodes::get_fx</text>
</a>
</g>
</g>
<!-- Node10&#45;&gt;Node11 -->
<g id="edge10_Node000010_Node000011" class="edge">
<title>Node10&#45;&gt;Node11</title>
<g id="a_edge10_Node000010_Node000011"><a xlink:title=" ">
<path fill="none" stroke="#63b8ff" d="M287.46,-526C298.98,-526 311.13,-526 322.99,-526"/>
<polygon fill="#63b8ff" stroke="#63b8ff" points="323.3,-529.5 333.3,-526 323.3,-522.5 323.3,-529.5"/>
</a>
</g>
</g>
<!-- Node13 -->
<g id="Node000013" class="node">
<title>Node13</title>
<g id="a_Node000013"><a xlink:href="classpycanha_1_1Nodes.html#ad9f977fc439adaee3bbb109a7aafba7c" target="_top" xlink:title="Y coordinate [m] getter.">
<polygon fill="white" stroke="#666666" points="464.5,-498.5 333.5,-498.5 333.5,-479.5 464.5,-479.5 464.5,-498.5"/>
<text text-anchor="middle" x="399" y="-486.5" font-family="Helvetica,sans-Serif" font-size="10.00">pycanha::Nodes::get_fy</text>
</a>
</g>
</g>
<!-- Node12&#45;&gt;Node13 -->
<g id="edge12_Node000012_Node000013" class="edge">
<title>Node12&#45;&gt;Node13</title>
<g id="a_edge12_Node000012_Node000013"><a xlink:title=" ">
<path fill="none" stroke="#63b8ff" d="M286.97,-489C298.71,-489 311.11,-489 323.19,-489"/>
<polygon fill="#63b8ff" stroke="#63b8ff" points="323.25,-492.5 333.25,-489 323.25,-485.5 323.25,-492.5"/>
</a>
</g>
</g>
<!-- Node15 -->
<g id="Node000015" class="node">
<title>Node15</title>
<g id="a_Node000015"><a xlink:href="classpycanha_1_1Nodes.html#a6e62ce9ae684aa26ae0af9559fd38278" target="_top" xlink:title="Z coordinate [m] getter.">
<polygon fill="white" stroke="#666666" points="464.5,-461.5 333.5,-461.5 333.5,-442.5 464.5,-442.5 464.5,-461.5"/>
<text text-anchor="middle" x="399" y="-449.5" font-family="Helvetica,sans-Serif" font-size="10.00">pycanha::Nodes::get_fz</text>
</a>
</g>
</g>
<!-- Node14&#45;&gt;Node15 -->
<g id="edge14_Node000014_Node000015" class="edge">
<title>Node14&#45;&gt;Node15</title>
<g id="a_edge14_Node000014_Node000015"><a xlink:title=" ">
<path fill="none" stroke="#63b8ff" d="M286.97,-452C298.71,-452 311.11,-452 323.19,-452"/>
<polygon fill="#63b8ff" stroke="#63b8ff" points="323.25,-455.5 333.25,-452 323.25,-448.5 323.25,-455.5"/>
</a>
</g>
</g>
<!-- Node19 -->
<g id="Node000019" class="node">
<title>Node19</title>
<g id="a_Node000019"><a xlink:href="classpycanha_1_1Nodes.html#addc9af809210100179ec50692fa9358e" target="_top" xlink:title="Albedo load [W] getter.">
<polygon fill="white" stroke="#666666" points="466,-300.5 332,-300.5 332,-281.5 466,-281.5 466,-300.5"/>
<text text-anchor="middle" x="399" y="-288.5" font-family="Helvetica,sans-Serif" font-size="10.00">pycanha::Nodes::get_qa</text>
</a>
</g>
</g>
<!-- Node18&#45;&gt;Node19 -->
<g id="edge18_Node000018_Node000019" class="edge">
<title>Node18&#45;&gt;Node19</title>
<g id="a_edge18_Node000018_Node000019"><a xlink:title=" ">
<path fill="none" stroke="#63b8ff" d="M288.44,-291C299.29,-291 310.67,-291 321.81,-291"/>
<polygon fill="#63b8ff" stroke="#63b8ff" points="321.96,-294.5 331.96,-291 321.96,-287.5 321.96,-294.5"/>
</a>
</g>
</g>
<!-- Node21 -->
<g id="Node000021" class="node">
<title>Node21</title>
<g id="a_Node000021"><a xlink:href="classpycanha_1_1Nodes.html#aa4f2a4ef10430906a8834730b27ae7e0" target="_top" xlink:title="Earth IR load [W] getter.">
<polygon fill="white" stroke="#666666" points="466,-263.5 332,-263.5 332,-244.5 466,-244.5 466,-263.5"/>
<text text-anchor="middle" x="399" y="-251.5" font-family="Helvetica,sans-Serif" font-size="10.00">pycanha::Nodes::get_qe</text>
</a>
</g>
</g>
<!-- Node20&#45;&gt;Node21 -->
<g id="edge20_Node000020_Node000021" class="edge">
<title>Node20&#45;&gt;Node21</title>
<g id="a_edge20_Node000020_Node000021"><a xlink:title=" ">
<path fill="none" stroke="#63b8ff" d="M288.44,-254C299.29,-254 310.67,-254 321.81,-254"/>
<polygon fill="#63b8ff" stroke="#63b8ff" points="321.96,-257.5 331.96,-254 321.96,-250.5 321.96,-257.5"/>
</a>
</g>
</g>
<!-- Node23 -->
<g id="Node000023" class="node">
<title>Node23</title>
<g id="a_Node000023"><a xlink:href="classpycanha_1_1Nodes.html#a97cf792bfa0bf86bdfb3260ceee6a997" target="_top" xlink:title="Internal load [W] getter.">
<polygon fill="white" stroke="#666666" points="464.5,-226.5 333.5,-226.5 333.5,-207.5 464.5,-207.5 464.5,-226.5"/>
<text text-anchor="middle" x="399" y="-214.5" font-family="Helvetica,sans-Serif" font-size="10.00">pycanha::Nodes::get_qi</text>
</a>
</g>
</g>
<!-- Node22&#45;&gt;Node23 -->
<g id="edge22_Node000022_Node000023" class="edge">
<title>Node22&#45;&gt;Node23</title>
<g id="a_edge22_Node000022_Node000023"><a xlink:title=" ">
<path fill="none" stroke="#63b8ff" d="M286.97,-217C298.71,-217 311.11,-217 323.19,-217"/>
<polygon fill="#63b8ff" stroke="#63b8ff" points="323.25,-220.5 333.25,-217 323.25,-213.5 323.25,-220.5"/>
</a>
</g>
</g>
<!-- Node25 -->
<g id="Node000025" class="node">
<title>Node25</title>
<g id="a_Node000025"><a xlink:href="classpycanha_1_1Nodes.html#a956e7683c050ed612380aa9f17824ce4" target="_top" xlink:title="Other load [W] getter.">
<polygon fill="white" stroke="#666666" points="464.5,-189.5 333.5,-189.5 333.5,-170.5 464.5,-170.5 464.5,-189.5"/>
<text text-anchor="middle" x="399" y="-177.5" font-family="Helvetica,sans-Serif" font-size="10.00">pycanha::Nodes::get_qr</text>
</a>
</g>
</g>
<!-- Node24&#45;&gt;Node25 -->
<g id="edge24_Node000024_Node000025" class="edge">
<title>Node24&#45;&gt;Node25</title>
<g id="a_edge24_Node000024_Node000025"><a xlink:title=" ">
<path fill="none" stroke="#63b8ff" d="M287.46,-180C298.98,-180 311.13,-180 322.99,-180"/>
<polygon fill="#63b8ff" stroke="#63b8ff" points="323.3,-183.5 333.3,-180 323.3,-176.5 323.3,-183.5"/>
</a>
</g>
</g>
<!-- Node27 -->
<g id="Node000027" class="node">
<title>Node27</title>
<g id="a_Node000027"><a xlink:href="classpycanha_1_1Nodes.html#a08f2c7c25b0430a8649bfd87952649cb" target="_top" xlink:title="Solar load [W] getter.">
<polygon fill="white" stroke="#666666" points="465.5,-152.5 332.5,-152.5 332.5,-133.5 465.5,-133.5 465.5,-152.5"/>
<text text-anchor="middle" x="399" y="-140.5" font-family="Helvetica,sans-Serif" font-size="10.00">pycanha::Nodes::get_qs</text>
</a>
</g>
</g>
<!-- Node26&#45;&gt;Node27 -->
<g id="edge26_Node000026_Node000027" class="edge">
<title>Node26&#45;&gt;Node27</title>
<g id="a_edge26_Node000026_Node000027"><a xlink:title=" ">
<path fill="none" stroke="#63b8ff" d="M288.44,-143C299.36,-143 310.82,-143 322.04,-143"/>
<polygon fill="#63b8ff" stroke="#63b8ff" points="322.25,-146.5 332.25,-143 322.25,-139.5 322.25,-146.5"/>
</a>
</g>
</g>
<!-- Node29 -->
<g id="Node000029" class="node">
<title>Node29</title>
<g id="a_Node000029"><a xlink:href="classpycanha_1_1Nodes.html#a10ec85737e6be55ce7a96b448bbe29f3" target="_top" xlink:title="Temperature [K] getter.">
<polygon fill="white" stroke="#666666" points="463,-115.5 335,-115.5 335,-96.5 463,-96.5 463,-115.5"/>
<text text-anchor="middle" x="399" y="-103.5" font-family="Helvetica,sans-Serif" font-size="10.00">pycanha::Nodes::get_T</text>
</a>
</g>
</g>
<!-- Node28&#45;&gt;Node29 -->
<g id="edge28_Node000028_Node000029" class="edge">
<title>Node28&#45;&gt;Node29</title>
<g id="a_edge28_Node000028_Node000029"><a xlink:title=" ">
<path fill="none" stroke="#63b8ff" d="M285.02,-106C297.85,-106 311.55,-106 324.81,-106"/>
<polygon fill="#63b8ff" stroke="#63b8ff" points="324.85,-109.5 334.85,-106 324.85,-102.5 324.85,-109.5"/>
</a>
</g>
</g>
<!-- Node30&#45;&gt;Node16 -->
<g id="edge30_Node000030_Node000016" class="edge">
<title>Node30&#45;&gt;Node16</title>
<g id="a_edge30_Node000030_Node000016"><a xlink:title=" ">
<path fill="none" stroke="#63b8ff" d="M263.39,-337.54C288.93,-343.89 322.66,-352.27 349.97,-359.06"/>
<polygon fill="#63b8ff" stroke="#63b8ff" points="349.16,-362.47 359.71,-361.48 350.85,-355.67 349.16,-362.47"/>
</a>
</g>
</g>
<!-- Node33 -->
<g id="Node000033" class="node">
<title>Node33</title>
<g id="a_Node000033"><a xlink:href="classpycanha_1_1Node.html#a6b3e48a500d2f713fc7ee37e26693749" target="_top" xlink:title=" ">
<polygon fill="white" stroke="#666666" points="458.5,-30 339.5,-30 339.5,0 458.5,0 458.5,-30"/>
<text text-anchor="start" x="347.5" y="-18" font-family="Helvetica,sans-Serif" font-size="10.00">pycanha::Node::local</text>
<text text-anchor="middle" x="399" y="-7" font-family="Helvetica,sans-Serif" font-size="10.00">_storage_destructor</text>
</a>
</g>
</g>
<!-- Node32&#45;&gt;Node33 -->
<g id="edge33_Node000032_Node000033" class="edge">
<title>Node32&#45;&gt;Node33</title>
<g id="a_edge33_Node000032_Node000033"><a xlink:title=" ">
<path fill="none" stroke="#63b8ff" d="M289.91,-15C302.7,-15 316.15,-15 329.07,-15"/>
<polygon fill="#63b8ff" stroke="#63b8ff" points="329.28,-18.5 339.28,-15 329.28,-11.5 329.28,-18.5"/>
</a>
</g>
</g>
</g>
</svg>
