<?xml version="1.0" encoding="UTF-8" standalone="no"?>
<!DOCTYPE svg PUBLIC "-//W3C//DTD SVG 1.1//EN"
 "http://www.w3.org/Graphics/SVG/1.1/DTD/svg11.dtd">
<!-- Generated by graphviz version 2.43.0 (0)
 -->
<!-- Title: pycanha::gmm::GeometryGroupCutted::create_cutted_mesh Pages: 1 -->
<svg width="575pt" height="88pt"
 viewBox="0.00 0.00 575.00 88.00" xmlns="http://www.w3.org/2000/svg" xmlns:xlink="http://www.w3.org/1999/xlink">
<g id="graph0" class="graph" transform="scale(1 1) rotate(0) translate(4 84)">
<title>pycanha::gmm::GeometryGroupCutted::create_cutted_mesh</title>
<!-- Node1 -->
<g id="node1" class="node">
<title>Node1</title>
<g id="a_node1"><a xlink:title="Creates the cutted mesh.">
<polygon fill="#bfbfbf" stroke="black" points="0,-24.5 0,-54.5 173,-54.5 173,-24.5 0,-24.5"/>
<text text-anchor="start" x="8" y="-42.5" font-family="Helvetica,sans-Serif" font-size="10.00">pycanha::gmm::GeometryGroup</text>
<text text-anchor="middle" x="86.5" y="-31.5" font-family="Helvetica,sans-Serif" font-size="10.00">Cutted::create_cutted_mesh</text>
</a>
</g>
</g>
<!-- Node2 -->
<g id="node2" class="node">
<title>Node2</title>
<g id="a_node2"><a xlink:href="classpycanha_1_1gmm_1_1GeometryGroupCutted.html#ad4999df9e16d08d9623bd9e5aa8c9195" target="_top" xlink:title="Clears the resultant cutting meshes.">
<polygon fill="none" stroke="black" points="209,-49.5 209,-79.5 382,-79.5 382,-49.5 209,-49.5"/>
<text text-anchor="start" x="217" y="-67.5" font-family="Helvetica,sans-Serif" font-size="10.00">pycanha::gmm::GeometryGroup</text>
<text text-anchor="middle" x="295.5" y="-56.5" font-family="Helvetica,sans-Serif" font-size="10.00">Cutted::clear_cutted_mesh</text>
</a>
</g>
</g>
<!-- Node1&#45;&gt;Node2 -->
<g id="edge1" class="edge">
<title>Node1&#45;&gt;Node2</title>
<path fill="none" stroke="midnightblue" d="M173.19,-49.85C181.66,-50.87 190.3,-51.92 198.87,-52.95"/>
<polygon fill="midnightblue" stroke="midnightblue" points="198.53,-56.43 208.88,-54.16 199.37,-49.48 198.53,-56.43"/>
</g>
<!-- Node3 -->
<g id="node3" class="node">
<title>Node3</title>
<g id="a_node3"><a xlink:href="classpycanha_1_1gmm_1_1GeometryGroup.html#a7624420810302a53a00c84ae60ea27a0" target="_top" xlink:title="Recursively iterates over all geometry below a GeometryGroupCutted. Call this function only from top ...">
<polygon fill="none" stroke="black" points="209,-0.5 209,-30.5 382,-30.5 382,-0.5 209,-0.5"/>
<text text-anchor="start" x="217" y="-18.5" font-family="Helvetica,sans-Serif" font-size="10.00">pycanha::gmm::GeometryGroup</text>
<text text-anchor="middle" x="295.5" y="-7.5" font-family="Helvetica,sans-Serif" font-size="10.00">::iterate_create_cut_groups</text>
</a>
</g>
</g>
<!-- Node1&#45;&gt;Node3 -->
<g id="edge2" class="edge">
<title>Node1&#45;&gt;Node3</title>
<path fill="none" stroke="midnightblue" d="M173.19,-29.57C181.66,-28.58 190.3,-27.58 198.87,-26.59"/>
<polygon fill="midnightblue" stroke="midnightblue" points="199.34,-30.06 208.88,-25.43 198.54,-23.1 199.34,-30.06"/>
</g>
<!-- Node4 -->
<g id="node4" class="node">
<title>Node4</title>
<g id="a_node4"><a xlink:href="classpycanha_1_1gmm_1_1CoordinateTransformation.html#a2223d8c13985136ad110d1cb4126f9d9" target="_top" xlink:title="Creates a new transformation equivalent to applying other and then this.">
<polygon fill="none" stroke="black" points="418,-0.5 418,-30.5 567,-30.5 567,-0.5 418,-0.5"/>
<text text-anchor="start" x="426" y="-18.5" font-family="Helvetica,sans-Serif" font-size="10.00">pycanha::gmm::Coordinate</text>
<text text-anchor="middle" x="492.5" y="-7.5" font-family="Helvetica,sans-Serif" font-size="10.00">Transformation::chain</text>
</a>
</g>
</g>
<!-- Node3&#45;&gt;Node4 -->
<g id="edge3" class="edge">
<title>Node3&#45;&gt;Node4</title>
<path fill="none" stroke="midnightblue" d="M382.03,-15.5C390.54,-15.5 399.18,-15.5 407.67,-15.5"/>
<polygon fill="midnightblue" stroke="midnightblue" points="407.94,-19 417.94,-15.5 407.94,-12 407.94,-19"/>
</g>
</g>
</svg>
