<?xml version="1.0" encoding="UTF-8" standalone="no"?>
<!DOCTYPE svg PUBLIC "-//W3C//DTD SVG 1.1//EN"
 "http://www.w3.org/Graphics/SVG/1.1/DTD/svg11.dtd">
<!-- Generated by graphviz version 2.43.0 (0)
 -->
<!-- Title: pycanha::gmm::Quadrilateral::create_mesh Pages: 1 -->
<svg width="575pt" height="662pt"
 viewBox="0.00 0.00 575.00 662.00" xmlns="http://www.w3.org/2000/svg" xmlns:xlink="http://www.w3.org/1999/xlink">
<g id="graph0" class="graph" transform="scale(1 1) rotate(0) translate(4 658)">
<title>pycanha::gmm::Quadrilateral::create_mesh</title>
<!-- Node1 -->
<g id="Node000001" class="node">
<title>Node1</title>
<g id="a_Node000001"><a xlink:title="Creates the triangular mesh from the primitive.">
<polygon fill="#999999" stroke="#666666" points="159,-342 0,-342 0,-312 159,-312 159,-342"/>
<text text-anchor="start" x="8" y="-330" font-family="Helvetica,sans-Serif" font-size="10.00">pycanha::gmm::Quadrilateral</text>
<text text-anchor="middle" x="79.5" y="-319" font-family="Helvetica,sans-Serif" font-size="10.00">::create_mesh</text>
</a>
</g>
</g>
<!-- Node2 -->
<g id="Node000002" class="node">
<title>Node2</title>
<g id="a_Node000002"><a xlink:href="classpycanha_1_1gmm_1_1Quadrilateral.html#a73193629bf24bc896f00d9888b053368" target="_top" xlink:title="3D coordinates of a point ON the primitive surface from 2D coordinates. Note: The method is not valid...">
<polygon fill="white" stroke="#666666" points="354,-654 195,-654 195,-624 354,-624 354,-654"/>
<text text-anchor="start" x="203" y="-642" font-family="Helvetica,sans-Serif" font-size="10.00">pycanha::gmm::Quadrilateral</text>
<text text-anchor="middle" x="274.5" y="-631" font-family="Helvetica,sans-Serif" font-size="10.00">::from_2d_to_3d</text>
</a>
</g>
</g>
<!-- Node1&#45;&gt;Node2 -->
<g id="edge1_Node000001_Node000002" class="edge">
<title>Node1&#45;&gt;Node2</title>
<g id="a_edge1_Node000001_Node000002"><a xlink:title=" ">
<path fill="none" stroke="#63b8ff" d="M81.97,-342.07C87.42,-389.53 110.72,-537.34 195,-615 196.3,-616.2 197.65,-617.33 199.06,-618.41"/>
<polygon fill="#63b8ff" stroke="#63b8ff" points="197.3,-621.44 207.58,-623.99 201.13,-615.59 197.3,-621.44"/>
</a>
</g>
</g>
<!-- Node5 -->
<g id="Node000005" class="node">
<title>Node5</title>
<g id="a_Node000005"><a xlink:href="classpycanha_1_1gmm_1_1Quadrilateral.html#a75d240e94a5545d07123a5657b24c82b" target="_top" xlink:title="2D coordinates of a point ON the primitive surface from 3D coordinates. Note: It is assumed that the ...">
<polygon fill="white" stroke="#666666" points="354,-606 195,-606 195,-576 354,-576 354,-606"/>
<text text-anchor="start" x="203" y="-594" font-family="Helvetica,sans-Serif" font-size="10.00">pycanha::gmm::Quadrilateral</text>
<text text-anchor="middle" x="274.5" y="-583" font-family="Helvetica,sans-Serif" font-size="10.00">::from_3d_to_2d</text>
</a>
</g>
</g>
<!-- Node1&#45;&gt;Node5 -->
<g id="edge4_Node000001_Node000005" class="edge">
<title>Node1&#45;&gt;Node5</title>
<g id="a_edge4_Node000001_Node000005"><a xlink:title=" ">
<path fill="none" stroke="#63b8ff" d="M83.33,-342.23C91.99,-384.48 122.08,-504.17 195,-567 196.5,-568.29 198.06,-569.51 199.69,-570.67"/>
<polygon fill="#63b8ff" stroke="#63b8ff" points="197.86,-573.66 208.22,-575.92 201.53,-567.69 197.86,-573.66"/>
</a>
</g>
</g>
<!-- Node6 -->
<g id="Node000006" class="node">
<title>Node6</title>
<g id="a_Node000006"><a xlink:href="classpycanha_1_1gmm_1_1TriMesh.html#a719e49a87330de4cc80fe24f8d871d77" target="_top" xlink:title="Get face ids vector.">
<polygon fill="white" stroke="#666666" points="341,-510 208,-510 208,-480 341,-480 341,-510"/>
<text text-anchor="start" x="216" y="-498" font-family="Helvetica,sans-Serif" font-size="10.00">pycanha::gmm::TriMesh</text>
<text text-anchor="middle" x="274.5" y="-487" font-family="Helvetica,sans-Serif" font-size="10.00">::get_face_ids</text>
</a>
</g>
</g>
<!-- Node1&#45;&gt;Node6 -->
<g id="edge7_Node000001_Node000006" class="edge">
<title>Node1&#45;&gt;Node6</title>
<g id="a_edge7_Node000001_Node000006"><a xlink:title=" ">
<path fill="none" stroke="#63b8ff" d="M88.38,-342.11C104.44,-371.41 143.78,-436.12 195,-471 197.37,-472.62 199.86,-474.13 202.43,-475.54"/>
<polygon fill="#63b8ff" stroke="#63b8ff" points="200.9,-478.69 211.42,-479.97 203.99,-472.41 200.9,-478.69"/>
</a>
</g>
</g>
<!-- Node7 -->
<g id="Node000007" class="node">
<title>Node7</title>
<g id="a_Node000007"><a xlink:href="classpycanha_1_1gmm_1_1Quadrilateral.html#a2c4ffa947c0d4af2f7a1c67ed24f1ba9" target="_top" xlink:title="Returns the ID of the face in the thermal mesh that contains the given UV coordinates....">
<polygon fill="white" stroke="#666666" points="354,-558 195,-558 195,-528 354,-528 354,-558"/>
<text text-anchor="start" x="203" y="-546" font-family="Helvetica,sans-Serif" font-size="10.00">pycanha::gmm::Quadrilateral</text>
<text text-anchor="middle" x="274.5" y="-535" font-family="Helvetica,sans-Serif" font-size="10.00">::get_faceid_from_uv</text>
</a>
</g>
</g>
<!-- Node1&#45;&gt;Node7 -->
<g id="edge8_Node000001_Node000007" class="edge">
<title>Node1&#45;&gt;Node7</title>
<g id="a_edge8_Node000001_Node000007"><a xlink:title=" ">
<path fill="none" stroke="#63b8ff" d="M85.22,-342.03C97.33,-378.14 133,-470.39 195,-519 196.78,-520.39 198.63,-521.71 200.56,-522.94"/>
<polygon fill="#63b8ff" stroke="#63b8ff" points="198.91,-526.03 209.34,-527.89 202.35,-519.93 198.91,-526.03"/>
</a>
</g>
</g>
<!-- Node8 -->
<g id="Node000008" class="node">
<title>Node8</title>
<g id="a_Node000008"><a xlink:href="classpycanha_1_1gmm_1_1Quadrilateral.html#ac4cb1e8be94b071ce9822ead19fb1957" target="_top" xlink:title="Returns the first vertex of the quadrilateral.">
<polygon fill="white" stroke="#666666" points="354,-462 195,-462 195,-432 354,-432 354,-462"/>
<text text-anchor="start" x="203" y="-450" font-family="Helvetica,sans-Serif" font-size="10.00">pycanha::gmm::Quadrilateral</text>
<text text-anchor="middle" x="274.5" y="-439" font-family="Helvetica,sans-Serif" font-size="10.00">::get_p1</text>
</a>
</g>
</g>
<!-- Node1&#45;&gt;Node8 -->
<g id="edge11_Node000001_Node000008" class="edge">
<title>Node1&#45;&gt;Node8</title>
<g id="a_edge11_Node000001_Node000008"><a xlink:title=" ">
<path fill="none" stroke="#63b8ff" d="M94.61,-342.17C114.91,-363.17 154.42,-400.98 195,-423 198.42,-424.86 202.01,-426.59 205.69,-428.21"/>
<polygon fill="#63b8ff" stroke="#63b8ff" points="204.4,-431.46 214.98,-431.99 207.04,-424.98 204.4,-431.46"/>
</a>
</g>
</g>
<!-- Node9 -->
<g id="Node000009" class="node">
<title>Node9</title>
<g id="a_Node000009"><a xlink:href="classpycanha_1_1gmm_1_1Quadrilateral.html#ad556f56b486cc8c95c081e1c8fc147c7" target="_top" xlink:title="Returns the second vertex of the quadrilateral.">
<polygon fill="white" stroke="#666666" points="354,-414 195,-414 195,-384 354,-384 354,-414"/>
<text text-anchor="start" x="203" y="-402" font-family="Helvetica,sans-Serif" font-size="10.00">pycanha::gmm::Quadrilateral</text>
<text text-anchor="middle" x="274.5" y="-391" font-family="Helvetica,sans-Serif" font-size="10.00">::get_p2</text>
</a>
</g>
</g>
<!-- Node1&#45;&gt;Node9 -->
<g id="edge12_Node000001_Node000009" class="edge">
<title>Node1&#45;&gt;Node9</title>
<g id="a_edge12_Node000001_Node000009"><a xlink:title=" ">
<path fill="none" stroke="#63b8ff" d="M114.22,-342.18C136.84,-352.11 167.43,-365.04 195,-375 200.5,-376.99 206.24,-378.95 212.02,-380.85"/>
<polygon fill="#63b8ff" stroke="#63b8ff" points="211.15,-384.25 221.74,-383.98 213.29,-377.58 211.15,-384.25"/>
</a>
</g>
</g>
<!-- Node10 -->
<g id="Node000010" class="node">
<title>Node10</title>
<g id="a_Node000010"><a xlink:href="classpycanha_1_1gmm_1_1Quadrilateral.html#a58c2b81b97bb32961f51d5f8f1d68c2b" target="_top" xlink:title="Returns the third vertex of the quadrilateral.">
<polygon fill="white" stroke="#666666" points="354,-366 195,-366 195,-336 354,-336 354,-366"/>
<text text-anchor="start" x="203" y="-354" font-family="Helvetica,sans-Serif" font-size="10.00">pycanha::gmm::Quadrilateral</text>
<text text-anchor="middle" x="274.5" y="-343" font-family="Helvetica,sans-Serif" font-size="10.00">::get_p3</text>
</a>
</g>
</g>
<!-- Node1&#45;&gt;Node10 -->
<g id="edge13_Node000001_Node000010" class="edge">
<title>Node1&#45;&gt;Node10</title>
<g id="a_edge13_Node000001_Node000010"><a xlink:title=" ">
<path fill="none" stroke="#63b8ff" d="M159,-336.76C167.48,-337.82 176.14,-338.89 184.73,-339.96"/>
<polygon fill="#63b8ff" stroke="#63b8ff" points="184.4,-343.45 194.76,-341.21 185.26,-336.5 184.4,-343.45"/>
</a>
</g>
</g>
<!-- Node11 -->
<g id="Node000011" class="node">
<title>Node11</title>
<g id="a_Node000011"><a xlink:href="classpycanha_1_1gmm_1_1Quadrilateral.html#ad3e58b173fd8bab7969342b46ec2fd74" target="_top" xlink:title="Returns the fourth vertex of the quadrilateral.">
<polygon fill="white" stroke="#666666" points="354,-318 195,-318 195,-288 354,-288 354,-318"/>
<text text-anchor="start" x="203" y="-306" font-family="Helvetica,sans-Serif" font-size="10.00">pycanha::gmm::Quadrilateral</text>
<text text-anchor="middle" x="274.5" y="-295" font-family="Helvetica,sans-Serif" font-size="10.00">::get_p4</text>
</a>
</g>
</g>
<!-- Node1&#45;&gt;Node11 -->
<g id="edge14_Node000001_Node000011" class="edge">
<title>Node1&#45;&gt;Node11</title>
<g id="a_edge14_Node000001_Node000011"><a xlink:title=" ">
<path fill="none" stroke="#63b8ff" d="M159,-317.24C167.48,-316.18 176.14,-315.11 184.73,-314.04"/>
<polygon fill="#63b8ff" stroke="#63b8ff" points="185.26,-317.5 194.76,-312.79 184.4,-310.55 185.26,-317.5"/>
</a>
</g>
</g>
<!-- Node12 -->
<g id="Node000012" class="node">
<title>Node12</title>
<g id="a_Node000012"><a xlink:href="classpycanha_1_1gmm_1_1Color.html#a6b0ff80336dd7c71b042dd65fb5534da" target="_top" xlink:title="Get the RGB values.">
<polygon fill="white" stroke="#666666" points="335,-270 214,-270 214,-240 335,-240 335,-270"/>
<text text-anchor="start" x="222" y="-258" font-family="Helvetica,sans-Serif" font-size="10.00">pycanha::gmm::Color</text>
<text text-anchor="middle" x="274.5" y="-247" font-family="Helvetica,sans-Serif" font-size="10.00">::get_rgb</text>
</a>
</g>
</g>
<!-- Node1&#45;&gt;Node12 -->
<g id="edge15_Node000001_Node000012" class="edge">
<title>Node1&#45;&gt;Node12</title>
<g id="a_edge15_Node000001_Node000012"><a xlink:title=" ">
<path fill="none" stroke="#63b8ff" d="M114.22,-311.82C136.84,-301.89 167.43,-288.96 195,-279 200.5,-277.01 206.24,-275.05 212.02,-273.15"/>
<polygon fill="#63b8ff" stroke="#63b8ff" points="213.29,-276.42 221.74,-270.02 211.15,-269.75 213.29,-276.42"/>
</a>
</g>
</g>
<!-- Node13 -->
<g id="Node000013" class="node">
<title>Node13</title>
<g id="a_Node000013"><a xlink:href="classpycanha_1_1gmm_1_1TriMesh.html#aa20d192b636f4453f79d6fd4a3aafcd4" target="_top" xlink:title="Get triangles matrix.">
<polygon fill="white" stroke="#666666" points="341,-222 208,-222 208,-192 341,-192 341,-222"/>
<text text-anchor="start" x="216" y="-210" font-family="Helvetica,sans-Serif" font-size="10.00">pycanha::gmm::TriMesh</text>
<text text-anchor="middle" x="274.5" y="-199" font-family="Helvetica,sans-Serif" font-size="10.00">::get_triangles</text>
</a>
</g>
</g>
<!-- Node1&#45;&gt;Node13 -->
<g id="edge16_Node000001_Node000013" class="edge">
<title>Node1&#45;&gt;Node13</title>
<g id="a_edge16_Node000001_Node000013"><a xlink:title=" ">
<path fill="none" stroke="#63b8ff" d="M94.61,-311.83C114.91,-290.83 154.42,-253.02 195,-231 198.42,-229.14 202.01,-227.41 205.69,-225.79"/>
<polygon fill="#63b8ff" stroke="#63b8ff" points="207.04,-229.02 214.98,-222.01 204.4,-222.54 207.04,-229.02"/>
</a>
</g>
</g>
<!-- Node14 -->
<g id="Node000014" class="node">
<title>Node14</title>
<g id="a_Node000014"><a xlink:href="classpycanha_1_1gmm_1_1TriMesh.html#a4ed00ebc28ddc7ef836cabed7f9b1881" target="_top" xlink:title="Get vertices matrix.">
<polygon fill="white" stroke="#666666" points="341,-174 208,-174 208,-144 341,-144 341,-174"/>
<text text-anchor="start" x="216" y="-162" font-family="Helvetica,sans-Serif" font-size="10.00">pycanha::gmm::TriMesh</text>
<text text-anchor="middle" x="274.5" y="-151" font-family="Helvetica,sans-Serif" font-size="10.00">::get_vertices</text>
</a>
</g>
</g>
<!-- Node1&#45;&gt;Node14 -->
<g id="edge17_Node000001_Node000014" class="edge">
<title>Node1&#45;&gt;Node14</title>
<g id="a_edge17_Node000001_Node000014"><a xlink:title=" ">
<path fill="none" stroke="#63b8ff" d="M88.38,-311.89C104.44,-282.59 143.78,-217.88 195,-183 197.37,-181.38 199.86,-179.87 202.43,-178.46"/>
<polygon fill="#63b8ff" stroke="#63b8ff" points="203.99,-181.59 211.42,-174.03 200.9,-175.31 203.99,-181.59"/>
</a>
</g>
</g>
<!-- Node15 -->
<g id="Node000015" class="node">
<title>Node15</title>
<g id="a_Node000015"><a xlink:href="classpycanha_1_1gmm_1_1TriMesh.html#a27e1232524b78c47b58b8d4d45d8172d" target="_top" xlink:title="Set the surface 1 color.">
<polygon fill="white" stroke="#666666" points="341,-126 208,-126 208,-96 341,-96 341,-126"/>
<text text-anchor="start" x="216" y="-114" font-family="Helvetica,sans-Serif" font-size="10.00">pycanha::gmm::TriMesh</text>
<text text-anchor="middle" x="274.5" y="-103" font-family="Helvetica,sans-Serif" font-size="10.00">::set_surface1_color</text>
</a>
</g>
</g>
<!-- Node1&#45;&gt;Node15 -->
<g id="edge18_Node000001_Node000015" class="edge">
<title>Node1&#45;&gt;Node15</title>
<g id="a_edge18_Node000001_Node000015"><a xlink:title=" ">
<path fill="none" stroke="#63b8ff" d="M85.22,-311.97C97.33,-275.86 133,-183.61 195,-135 196.78,-133.61 198.63,-132.29 200.56,-131.06"/>
<polygon fill="#63b8ff" stroke="#63b8ff" points="202.35,-134.07 209.34,-126.11 198.91,-127.97 202.35,-134.07"/>
</a>
</g>
</g>
<!-- Node16 -->
<g id="Node000016" class="node">
<title>Node16</title>
<g id="a_Node000016"><a xlink:href="classpycanha_1_1gmm_1_1TriMesh.html#a331d5c97a882188d4454694b4a2a4af9" target="_top" xlink:title="Set the surface 2 color.">
<polygon fill="white" stroke="#666666" points="341,-78 208,-78 208,-48 341,-48 341,-78"/>
<text text-anchor="start" x="216" y="-66" font-family="Helvetica,sans-Serif" font-size="10.00">pycanha::gmm::TriMesh</text>
<text text-anchor="middle" x="274.5" y="-55" font-family="Helvetica,sans-Serif" font-size="10.00">::set_surface2_color</text>
</a>
</g>
</g>
<!-- Node1&#45;&gt;Node16 -->
<g id="edge19_Node000001_Node000016" class="edge">
<title>Node1&#45;&gt;Node16</title>
<g id="a_edge19_Node000001_Node000016"><a xlink:title=" ">
<path fill="none" stroke="#63b8ff" d="M83.33,-311.77C91.99,-269.52 122.08,-149.83 195,-87 196.5,-85.71 198.06,-84.49 199.69,-83.33"/>
<polygon fill="#63b8ff" stroke="#63b8ff" points="201.53,-86.31 208.22,-78.08 197.86,-80.34 201.53,-86.31"/>
</a>
</g>
</g>
<!-- Node17 -->
<g id="Node000017" class="node">
<title>Node17</title>
<g id="a_Node000017"><a xlink:href="classpycanha_1_1gmm_1_1TriMesh.html#a7f0a8a501de5c2d065f71e164b956b39" target="_top" xlink:title="Sort the triangles according to the face ids.">
<polygon fill="white" stroke="#666666" points="341,-30 208,-30 208,0 341,0 341,-30"/>
<text text-anchor="start" x="216" y="-18" font-family="Helvetica,sans-Serif" font-size="10.00">pycanha::gmm::TriMesh</text>
<text text-anchor="middle" x="274.5" y="-7" font-family="Helvetica,sans-Serif" font-size="10.00">::sort_triangles</text>
</a>
</g>
</g>
<!-- Node1&#45;&gt;Node17 -->
<g id="edge20_Node000001_Node000017" class="edge">
<title>Node1&#45;&gt;Node17</title>
<g id="a_edge20_Node000001_Node000017"><a xlink:title=" ">
<path fill="none" stroke="#63b8ff" d="M81.97,-311.93C87.42,-264.47 110.72,-116.66 195,-39 196.33,-37.77 197.73,-36.61 199.17,-35.5"/>
<polygon fill="#63b8ff" stroke="#63b8ff" points="201.48,-38.18 207.96,-29.8 197.67,-32.31 201.48,-38.18"/>
</a>
</g>
</g>
<!-- Node3 -->
<g id="Node000003" class="node">
<title>Node3</title>
<g id="a_Node000003"><a xlink:href="classpycanha_1_1gmm_1_1Quadrilateral.html#a3c2cecd1d2adf11cb3c619dceb6baa1f" target="_top" xlink:title="Returns the first direction v1 = p2 &#45; p1.">
<polygon fill="white" stroke="#666666" points="567,-618.5 390,-618.5 390,-599.5 567,-599.5 567,-618.5"/>
<text text-anchor="middle" x="478.5" y="-606.5" font-family="Helvetica,sans-Serif" font-size="10.00">pycanha::gmm::Quadrilateral::v1</text>
</a>
</g>
</g>
<!-- Node2&#45;&gt;Node3 -->
<g id="edge2_Node000002_Node000003" class="edge">
<title>Node2&#45;&gt;Node3</title>
<g id="a_edge2_Node000002_Node000003"><a xlink:title=" ">
<path fill="none" stroke="#63b8ff" d="M354.18,-627.32C370.26,-624.93 387.14,-622.42 403.07,-620.05"/>
<polygon fill="#63b8ff" stroke="#63b8ff" points="404.01,-623.45 413.38,-618.52 402.98,-616.53 404.01,-623.45"/>
</a>
</g>
</g>
<!-- Node4 -->
<g id="Node000004" class="node">
<title>Node4</title>
<g id="a_Node000004"><a xlink:href="classpycanha_1_1gmm_1_1Quadrilateral.html#a6037ada729f3b3aaa6c9a1392019a799" target="_top" xlink:title="Returns the second direction v2 = p4 &#45; p1.">
<polygon fill="white" stroke="#666666" points="567,-581.5 390,-581.5 390,-562.5 567,-562.5 567,-581.5"/>
<text text-anchor="middle" x="478.5" y="-569.5" font-family="Helvetica,sans-Serif" font-size="10.00">pycanha::gmm::Quadrilateral::v2</text>
</a>
</g>
</g>
<!-- Node2&#45;&gt;Node4 -->
<g id="edge3_Node000002_Node000004" class="edge">
<title>Node2&#45;&gt;Node4</title>
<g id="a_edge3_Node000002_Node000004"><a xlink:title=" ">
<path fill="none" stroke="#63b8ff" d="M332,-623.91C339.53,-621.27 347.05,-618.29 354,-615 371.38,-606.77 372.3,-598.5 390,-591 395.92,-588.49 402.21,-586.3 408.59,-584.38"/>
<polygon fill="#63b8ff" stroke="#63b8ff" points="409.96,-587.64 418.66,-581.6 408.09,-580.89 409.96,-587.64"/>
</a>
</g>
</g>
<!-- Node5&#45;&gt;Node3 -->
<g id="edge5_Node000005_Node000003" class="edge">
<title>Node5&#45;&gt;Node3</title>
<g id="a_edge5_Node000005_Node000003"><a xlink:title=" ">
<path fill="none" stroke="#63b8ff" d="M354.18,-598.01C362.62,-598.76 371.28,-599.53 379.9,-600.3"/>
<polygon fill="#63b8ff" stroke="#63b8ff" points="379.73,-603.8 390,-601.2 380.35,-596.83 379.73,-603.8"/>
</a>
</g>
</g>
<!-- Node5&#45;&gt;Node4 -->
<g id="edge6_Node000005_Node000004" class="edge">
<title>Node5&#45;&gt;Node4</title>
<g id="a_edge6_Node000005_Node000004"><a xlink:title=" ">
<path fill="none" stroke="#63b8ff" d="M354.18,-583.6C362.62,-582.81 371.28,-581.99 379.9,-581.18"/>
<polygon fill="#63b8ff" stroke="#63b8ff" points="380.37,-584.65 390,-580.23 379.71,-577.68 380.37,-584.65"/>
</a>
</g>
</g>
<!-- Node7&#45;&gt;Node3 -->
<g id="edge9_Node000007_Node000003" class="edge">
<title>Node7&#45;&gt;Node3</title>
<g id="a_edge9_Node000007_Node000003"><a xlink:title=" ">
<path fill="none" stroke="#63b8ff" d="M332,-558.09C339.53,-560.73 347.05,-563.71 354,-567 371.38,-575.23 372.25,-583.59 390,-591 395.1,-593.13 400.47,-595.01 405.95,-596.68"/>
<polygon fill="#63b8ff" stroke="#63b8ff" points="405.3,-600.13 415.87,-599.45 407.18,-593.39 405.3,-600.13"/>
</a>
</g>
</g>
<!-- Node7&#45;&gt;Node4 -->
<g id="edge10_Node000007_Node000004" class="edge">
<title>Node7&#45;&gt;Node4</title>
<g id="a_edge10_Node000007_Node000004"><a xlink:title=" ">
<path fill="none" stroke="#63b8ff" d="M354.18,-554.3C369.63,-556.51 385.81,-558.84 401.18,-561.04"/>
<polygon fill="#63b8ff" stroke="#63b8ff" points="400.75,-564.52 411.14,-562.47 401.74,-557.59 400.75,-564.52"/>
</a>
</g>
</g>
</g>
</svg>
