<?xml version="1.0" encoding="UTF-8" standalone="no"?>
<!DOCTYPE svg PUBLIC "-//W3C//DTD SVG 1.1//EN"
 "http://www.w3.org/Graphics/SVG/1.1/DTD/svg11.dtd">
<!-- Generated by graphviz version 2.43.0 (0)
 -->
<!-- Title: pycanha::Nodes::add_node Pages: 1 -->
<svg width="661pt" height="654pt"
 viewBox="0.00 0.00 661.00 653.50" xmlns="http://www.w3.org/2000/svg" xmlns:xlink="http://www.w3.org/1999/xlink">
<g id="graph0" class="graph" transform="scale(1 1) rotate(0) translate(4 649.5)">
<title>pycanha::Nodes::add_node</title>
<!-- Node1 -->
<g id="Node000001" class="node">
<title>Node1</title>
<g id="a_Node000001"><a xlink:title="Method to add a new node.">
<polygon fill="#999999" stroke="#666666" points="148,-338 0,-338 0,-319 148,-319 148,-338"/>
<text text-anchor="middle" x="74" y="-326" font-family="Helvetica,sans-Serif" font-size="10.00">pycanha::Nodes::add_node</text>
</a>
</g>
</g>
<!-- Node2 -->
<g id="Node000002" class="node">
<title>Node2</title>
<g id="a_Node000002"><a xlink:href="classpycanha_1_1Nodes.html#a9e9b067ca2c37eb1df8cb9d17595c181" target="_top" xlink:title=" ">
<polygon fill="white" stroke="#666666" points="303,-343.5 184,-343.5 184,-313.5 303,-313.5 303,-343.5"/>
<text text-anchor="start" x="192" y="-331.5" font-family="Helvetica,sans-Serif" font-size="10.00">pycanha::Nodes::add</text>
<text text-anchor="middle" x="243.5" y="-320.5" font-family="Helvetica,sans-Serif" font-size="10.00">_node_insert_idx</text>
</a>
</g>
</g>
<!-- Node1&#45;&gt;Node2 -->
<g id="edge1_Node000001_Node000002" class="edge">
<title>Node1&#45;&gt;Node2</title>
<g id="a_edge1_Node000001_Node000002"><a xlink:title=" ">
<path fill="none" stroke="#63b8ff" d="M148.47,-328.5C156.9,-328.5 165.48,-328.5 173.85,-328.5"/>
<polygon fill="#63b8ff" stroke="#63b8ff" points="173.93,-332 183.93,-328.5 173.93,-325 173.93,-332"/>
</a>
</g>
</g>
<!-- Node17 -->
<g id="Node000017" class="node">
<title>Node17</title>
<g id="a_Node000017"><a xlink:href="classpycanha_1_1Node.html#a31d790ab1c03fb481434cebdef5e6017" target="_top" xlink:title="User node number getter.">
<polygon fill="white" stroke="#666666" points="463.5,-645.5 352.5,-645.5 352.5,-615.5 463.5,-615.5 463.5,-645.5"/>
<text text-anchor="start" x="360.5" y="-633.5" font-family="Helvetica,sans-Serif" font-size="10.00">pycanha::Node::get</text>
<text text-anchor="middle" x="408" y="-622.5" font-family="Helvetica,sans-Serif" font-size="10.00">_node_num</text>
</a>
</g>
</g>
<!-- Node1&#45;&gt;Node17 -->
<g id="edge33_Node000001_Node000017" class="edge">
<title>Node1&#45;&gt;Node17</title>
<g id="a_edge33_Node000001_Node000017"><a xlink:title=" ">
<path fill="none" stroke="#63b8ff" d="M81.53,-338.18C108.5,-377.44 215.58,-526.47 339,-606.5 341.41,-608.06 343.94,-609.54 346.54,-610.93"/>
<polygon fill="#63b8ff" stroke="#63b8ff" points="345.09,-614.12 355.62,-615.35 348.15,-607.83 345.09,-614.12"/>
</a>
</g>
</g>
<!-- Node30 -->
<g id="Node000030" class="node">
<title>Node30</title>
<g id="a_Node000030"><a xlink:href="classpycanha_1_1Node.html#a55a4679e85533618ff220014344cc15b" target="_top" xlink:title="Type getter.">
<polygon fill="white" stroke="#666666" points="477,-19 339,-19 339,0 477,0 477,-19"/>
<text text-anchor="middle" x="408" y="-7" font-family="Helvetica,sans-Serif" font-size="10.00">pycanha::Node::get_type</text>
</a>
</g>
</g>
<!-- Node1&#45;&gt;Node30 -->
<g id="edge34_Node000001_Node000030" class="edge">
<title>Node1&#45;&gt;Node30</title>
<g id="a_edge34_Node000001_Node000030"><a xlink:title=" ">
<path fill="none" stroke="#63b8ff" d="M80.5,-318.93C104.9,-277.36 207.98,-110.79 339,-28.5 342.35,-26.4 345.93,-24.52 349.64,-22.85"/>
<polygon fill="#63b8ff" stroke="#63b8ff" points="351.06,-26.06 359.05,-19.1 348.47,-19.55 351.06,-26.06"/>
</a>
</g>
</g>
<!-- Node3 -->
<g id="Node000003" class="node">
<title>Node3</title>
<g id="a_Node000003"><a xlink:href="classpycanha_1_1Node.html#a876558b19fd24813e3ad240d7bcc6b47" target="_top" xlink:title="Area [m^2] getter.">
<polygon fill="white" stroke="#666666" points="469,-597 347,-597 347,-578 469,-578 469,-597"/>
<text text-anchor="middle" x="408" y="-585" font-family="Helvetica,sans-Serif" font-size="10.00">pycanha::Node::get_a</text>
</a>
</g>
</g>
<!-- Node2&#45;&gt;Node3 -->
<g id="edge2_Node000002_Node000003" class="edge">
<title>Node2&#45;&gt;Node3</title>
<g id="a_edge2_Node000002_Node000003"><a xlink:title=" ">
<path fill="none" stroke="#63b8ff" d="M250.04,-343.72C268.89,-395.41 329.94,-561.43 339,-569.5 340.32,-570.67 341.7,-571.77 343.14,-572.8"/>
<polygon fill="#63b8ff" stroke="#63b8ff" points="341.52,-575.91 351.92,-577.95 345.06,-569.87 341.52,-575.91"/>
</a>
</g>
</g>
<!-- Node5 -->
<g id="Node000005" class="node">
<title>Node5</title>
<g id="a_Node000005"><a xlink:href="classpycanha_1_1Node.html#ad4784620cf111949d455951f408a8ff1" target="_top" xlink:title="Solar absortivity getter.">
<polygon fill="white" stroke="#666666" points="475,-560 341,-560 341,-541 475,-541 475,-560"/>
<text text-anchor="middle" x="408" y="-548" font-family="Helvetica,sans-Serif" font-size="10.00">pycanha::Node::get_aph</text>
</a>
</g>
</g>
<!-- Node2&#45;&gt;Node5 -->
<g id="edge4_Node000002_Node000005" class="edge">
<title>Node2&#45;&gt;Node5</title>
<g id="a_edge4_Node000002_Node000005"><a xlink:title=" ">
<path fill="none" stroke="#63b8ff" d="M249.62,-343.65C264.33,-386.33 307.67,-506.23 339,-532.5 340.38,-533.66 341.83,-534.75 343.34,-535.76"/>
<polygon fill="#63b8ff" stroke="#63b8ff" points="342.03,-539.04 352.47,-540.86 345.44,-532.93 342.03,-539.04"/>
</a>
</g>
</g>
<!-- Node7 -->
<g id="Node000007" class="node">
<title>Node7</title>
<g id="a_Node000007"><a xlink:href="classpycanha_1_1Node.html#aa0530593dd3c33b50051fd5630583a9a" target="_top" xlink:title="Thermal capacity [J/K] getter.">
<polygon fill="white" stroke="#666666" points="469.5,-523 346.5,-523 346.5,-504 469.5,-504 469.5,-523"/>
<text text-anchor="middle" x="408" y="-511" font-family="Helvetica,sans-Serif" font-size="10.00">pycanha::Node::get_C</text>
</a>
</g>
</g>
<!-- Node2&#45;&gt;Node7 -->
<g id="edge6_Node000002_Node000007" class="edge">
<title>Node2&#45;&gt;Node7</title>
<g id="a_edge6_Node000002_Node000007"><a xlink:title=" ">
<path fill="none" stroke="#63b8ff" d="M248.66,-343.63C258.53,-376.55 286.52,-455 339,-495.5 340.81,-496.89 342.71,-498.18 344.69,-499.37"/>
<polygon fill="#63b8ff" stroke="#63b8ff" points="343.27,-502.57 353.78,-503.96 346.43,-496.33 343.27,-502.57"/>
</a>
</g>
</g>
<!-- Node9 -->
<g id="Node000009" class="node">
<title>Node9</title>
<g id="a_Node000009"><a xlink:href="classpycanha_1_1Node.html#a82b33ac89fa4e60186dd49bbccff62a5" target="_top" xlink:title="IR emissivity getter.">
<polygon fill="white" stroke="#666666" points="475,-486 341,-486 341,-467 475,-467 475,-486"/>
<text text-anchor="middle" x="408" y="-474" font-family="Helvetica,sans-Serif" font-size="10.00">pycanha::Node::get_eps</text>
</a>
</g>
</g>
<!-- Node2&#45;&gt;Node9 -->
<g id="edge8_Node000002_Node000009" class="edge">
<title>Node2&#45;&gt;Node9</title>
<g id="a_edge8_Node000002_Node000009"><a xlink:title=" ">
<path fill="none" stroke="#63b8ff" d="M251.18,-343.56C264.07,-370.84 295.03,-428.39 339,-458.5 341.28,-460.06 343.69,-461.49 346.19,-462.79"/>
<polygon fill="#63b8ff" stroke="#63b8ff" points="345,-466.09 355.56,-466.99 347.86,-459.71 345,-466.09"/>
</a>
</g>
</g>
<!-- Node11 -->
<g id="Node000011" class="node">
<title>Node11</title>
<g id="a_Node000011"><a xlink:href="classpycanha_1_1Node.html#af99429c4bbd433a67325730ed5517252" target="_top" xlink:title="X coordinate [m] getter.">
<polygon fill="white" stroke="#666666" points="471,-449 345,-449 345,-430 471,-430 471,-449"/>
<text text-anchor="middle" x="408" y="-437" font-family="Helvetica,sans-Serif" font-size="10.00">pycanha::Node::get_fx</text>
</a>
</g>
</g>
<!-- Node2&#45;&gt;Node11 -->
<g id="edge10_Node000002_Node000011" class="edge">
<title>Node2&#45;&gt;Node11</title>
<g id="a_edge10_Node000002_Node000011"><a xlink:title=" ">
<path fill="none" stroke="#63b8ff" d="M255.83,-343.84C271.98,-364.59 303.6,-401.32 339,-421.5 342.06,-423.25 345.3,-424.83 348.63,-426.26"/>
<polygon fill="#63b8ff" stroke="#63b8ff" points="347.63,-429.62 358.22,-429.91 350.12,-423.08 347.63,-429.62"/>
</a>
</g>
</g>
<!-- Node13 -->
<g id="Node000013" class="node">
<title>Node13</title>
<g id="a_Node000013"><a xlink:href="classpycanha_1_1Node.html#a75a1e382bb8d0fab4ffc116191f099f5" target="_top" xlink:title="Y coordinate [m] getter.">
<polygon fill="white" stroke="#666666" points="470.5,-412 345.5,-412 345.5,-393 470.5,-393 470.5,-412"/>
<text text-anchor="middle" x="408" y="-400" font-family="Helvetica,sans-Serif" font-size="10.00">pycanha::Node::get_fy</text>
</a>
</g>
</g>
<!-- Node2&#45;&gt;Node13 -->
<g id="edge12_Node000002_Node000013" class="edge">
<title>Node2&#45;&gt;Node13</title>
<g id="a_edge12_Node000002_Node000013"><a xlink:title=" ">
<path fill="none" stroke="#63b8ff" d="M266.12,-343.67C284.71,-356.12 312.62,-373.44 339,-384.5 343.74,-386.48 348.75,-388.3 353.82,-389.96"/>
<polygon fill="#63b8ff" stroke="#63b8ff" points="353.01,-393.37 363.6,-392.93 355.05,-386.67 353.01,-393.37"/>
</a>
</g>
</g>
<!-- Node15 -->
<g id="Node000015" class="node">
<title>Node15</title>
<g id="a_Node000015"><a xlink:href="classpycanha_1_1Node.html#a1c12438baa7975c31b59b4b8d8cbfee9" target="_top" xlink:title="Z coordinate [m] getter.">
<polygon fill="white" stroke="#666666" points="470.5,-375 345.5,-375 345.5,-356 470.5,-356 470.5,-375"/>
<text text-anchor="middle" x="408" y="-363" font-family="Helvetica,sans-Serif" font-size="10.00">pycanha::Node::get_fz</text>
</a>
</g>
</g>
<!-- Node2&#45;&gt;Node15 -->
<g id="edge14_Node000002_Node000015" class="edge">
<title>Node2&#45;&gt;Node15</title>
<g id="a_edge14_Node000002_Node000015"><a xlink:title=" ">
<path fill="none" stroke="#63b8ff" d="M303.17,-341.86C320.18,-345.73 338.63,-349.93 355.19,-353.7"/>
<polygon fill="#63b8ff" stroke="#63b8ff" points="354.7,-357.18 365.23,-355.99 356.26,-350.36 354.7,-357.18"/>
</a>
</g>
</g>
<!-- Node2&#45;&gt;Node17 -->
<g id="edge16_Node000002_Node000017" class="edge">
<title>Node2&#45;&gt;Node17</title>
<g id="a_edge16_Node000002_Node000017"><a xlink:title=" ">
<path fill="none" stroke="#63b8ff" d="M250.47,-343.64C261.43,-371.65 285.27,-433.52 303,-486.5 320.68,-539.3 300.58,-566.2 339,-606.5 340.58,-608.16 342.28,-609.7 344.08,-611.13"/>
<polygon fill="#63b8ff" stroke="#63b8ff" points="342.23,-614.11 352.49,-616.77 346.13,-608.3 342.23,-614.11"/>
</a>
</g>
</g>
<!-- Node18 -->
<g id="Node000018" class="node">
<title>Node18</title>
<g id="a_Node000018"><a xlink:href="classpycanha_1_1Node.html#a716082814c425fc97d24196193216ab7" target="_top" xlink:title="Albedo load [W] getter.">
<polygon fill="white" stroke="#666666" points="472,-338 344,-338 344,-319 472,-319 472,-338"/>
<text text-anchor="middle" x="408" y="-326" font-family="Helvetica,sans-Serif" font-size="10.00">pycanha::Node::get_qa</text>
</a>
</g>
</g>
<!-- Node2&#45;&gt;Node18 -->
<g id="edge17_Node000002_Node000018" class="edge">
<title>Node2&#45;&gt;Node18</title>
<g id="a_edge17_Node000002_Node000018"><a xlink:title=" ">
<path fill="none" stroke="#63b8ff" d="M303.17,-328.5C313.05,-328.5 323.42,-328.5 333.63,-328.5"/>
<polygon fill="#63b8ff" stroke="#63b8ff" points="333.75,-332 343.75,-328.5 333.75,-325 333.75,-332"/>
</a>
</g>
</g>
<!-- Node20 -->
<g id="Node000020" class="node">
<title>Node20</title>
<g id="a_Node000020"><a xlink:href="classpycanha_1_1Node.html#a3f8d98cc232bfb86459eeb1e15803a29" target="_top" xlink:title="Earth IR load [W] getter.">
<polygon fill="white" stroke="#666666" points="472,-301 344,-301 344,-282 472,-282 472,-301"/>
<text text-anchor="middle" x="408" y="-289" font-family="Helvetica,sans-Serif" font-size="10.00">pycanha::Node::get_qe</text>
</a>
</g>
</g>
<!-- Node2&#45;&gt;Node20 -->
<g id="edge19_Node000002_Node000020" class="edge">
<title>Node2&#45;&gt;Node20</title>
<g id="a_edge19_Node000002_Node000020"><a xlink:title=" ">
<path fill="none" stroke="#63b8ff" d="M303.17,-315.14C320.18,-311.27 338.63,-307.07 355.19,-303.3"/>
<polygon fill="#63b8ff" stroke="#63b8ff" points="356.26,-306.64 365.23,-301.01 354.7,-299.82 356.26,-306.64"/>
</a>
</g>
</g>
<!-- Node22 -->
<g id="Node000022" class="node">
<title>Node22</title>
<g id="a_Node000022"><a xlink:href="classpycanha_1_1Node.html#a8eaf6624e94095586b79ce8208e21fd0" target="_top" xlink:title="Internal load [W] getter.">
<polygon fill="white" stroke="#666666" points="470.5,-264 345.5,-264 345.5,-245 470.5,-245 470.5,-264"/>
<text text-anchor="middle" x="408" y="-252" font-family="Helvetica,sans-Serif" font-size="10.00">pycanha::Node::get_qi</text>
</a>
</g>
</g>
<!-- Node2&#45;&gt;Node22 -->
<g id="edge21_Node000002_Node000022" class="edge">
<title>Node2&#45;&gt;Node22</title>
<g id="a_edge21_Node000002_Node000022"><a xlink:title=" ">
<path fill="none" stroke="#63b8ff" d="M266.57,-313.48C285.21,-301.33 312.95,-284.51 339,-273.5 344.5,-271.18 350.36,-269.05 356.26,-267.13"/>
<polygon fill="#63b8ff" stroke="#63b8ff" points="357.62,-270.37 366.15,-264.09 355.56,-263.68 357.62,-270.37"/>
</a>
</g>
</g>
<!-- Node24 -->
<g id="Node000024" class="node">
<title>Node24</title>
<g id="a_Node000024"><a xlink:href="classpycanha_1_1Node.html#afd9b106f3cc7b293cb9ab474d801823c" target="_top" xlink:title="Other load [W] getter.">
<polygon fill="white" stroke="#666666" points="471,-227 345,-227 345,-208 471,-208 471,-227"/>
<text text-anchor="middle" x="408" y="-215" font-family="Helvetica,sans-Serif" font-size="10.00">pycanha::Node::get_qr</text>
</a>
</g>
</g>
<!-- Node2&#45;&gt;Node24 -->
<g id="edge23_Node000002_Node000024" class="edge">
<title>Node2&#45;&gt;Node24</title>
<g id="a_edge23_Node000002_Node000024"><a xlink:title=" ">
<path fill="none" stroke="#63b8ff" d="M255.91,-313.4C272.15,-292.96 303.87,-256.72 339,-236.5 342.87,-234.27 347.01,-232.3 351.28,-230.54"/>
<polygon fill="#63b8ff" stroke="#63b8ff" points="352.57,-233.79 360.74,-227.05 350.15,-227.23 352.57,-233.79"/>
</a>
</g>
</g>
<!-- Node26 -->
<g id="Node000026" class="node">
<title>Node26</title>
<g id="a_Node000026"><a xlink:href="classpycanha_1_1Node.html#aab3d773b93036e4a219a72ca6b029a50" target="_top" xlink:title="Solar load [W] getter.">
<polygon fill="white" stroke="#666666" points="472,-190 344,-190 344,-171 472,-171 472,-190"/>
<text text-anchor="middle" x="408" y="-178" font-family="Helvetica,sans-Serif" font-size="10.00">pycanha::Node::get_qs</text>
</a>
</g>
</g>
<!-- Node2&#45;&gt;Node26 -->
<g id="edge25_Node000002_Node000026" class="edge">
<title>Node2&#45;&gt;Node26</title>
<g id="a_edge25_Node000002_Node000026"><a xlink:title=" ">
<path fill="none" stroke="#63b8ff" d="M251.46,-313.18C264.58,-286.04 295.63,-229.52 339,-199.5 341.91,-197.49 345.03,-195.68 348.27,-194.07"/>
<polygon fill="#63b8ff" stroke="#63b8ff" points="349.88,-197.19 357.67,-190.02 347.1,-190.76 349.88,-197.19"/>
</a>
</g>
</g>
<!-- Node28 -->
<g id="Node000028" class="node">
<title>Node28</title>
<g id="a_Node000028"><a xlink:href="classpycanha_1_1Node.html#a341fecda21eb1508e112ecd8c693385f" target="_top" xlink:title="Temperature [K] getter.">
<polygon fill="white" stroke="#666666" points="469,-153 347,-153 347,-134 469,-134 469,-153"/>
<text text-anchor="middle" x="408" y="-141" font-family="Helvetica,sans-Serif" font-size="10.00">pycanha::Node::get_T</text>
</a>
</g>
</g>
<!-- Node2&#45;&gt;Node28 -->
<g id="edge27_Node000002_Node000028" class="edge">
<title>Node2&#45;&gt;Node28</title>
<g id="a_edge27_Node000002_Node000028"><a xlink:title=" ">
<path fill="none" stroke="#63b8ff" d="M248.88,-313.02C259.02,-280.11 287.24,-202.91 339,-162.5 341.31,-160.7 343.78,-159.06 346.36,-157.59"/>
<polygon fill="#63b8ff" stroke="#63b8ff" points="348.04,-160.66 355.5,-153.14 344.98,-154.37 348.04,-160.66"/>
</a>
</g>
</g>
<!-- Node2&#45;&gt;Node30 -->
<g id="edge29_Node000002_Node000030" class="edge">
<title>Node2&#45;&gt;Node30</title>
<g id="a_edge29_Node000002_Node000030"><a xlink:title=" ">
<path fill="none" stroke="#63b8ff" d="M250.19,-313.43C261.11,-284.29 285.44,-218.13 303,-161.5 321.13,-103.01 295.87,-71.98 339,-28.5 340.42,-27.06 341.95,-25.73 343.55,-24.5"/>
<polygon fill="#63b8ff" stroke="#63b8ff" points="345.52,-27.4 352.15,-19.13 341.81,-21.46 345.52,-27.4"/>
</a>
</g>
</g>
<!-- Node31 -->
<g id="Node000031" class="node">
<title>Node31</title>
<g id="a_Node000031"><a xlink:href="classpycanha_1_1Nodes.html#a2ef3ee52b5de782b318b9860a7becff3" target="_top" xlink:title=" ">
<polygon fill="white" stroke="#666666" points="472,-115.5 344,-115.5 344,-85.5 472,-85.5 472,-115.5"/>
<text text-anchor="start" x="352" y="-103.5" font-family="Helvetica,sans-Serif" font-size="10.00">pycanha::Nodes::insert</text>
<text text-anchor="middle" x="408" y="-92.5" font-family="Helvetica,sans-Serif" font-size="10.00">_displace</text>
</a>
</g>
</g>
<!-- Node2&#45;&gt;Node31 -->
<g id="edge30_Node000002_Node000031" class="edge">
<title>Node2&#45;&gt;Node31</title>
<g id="a_edge30_Node000002_Node000031"><a xlink:title=" ">
<path fill="none" stroke="#63b8ff" d="M247.39,-313.42C255.28,-276.22 280.64,-179.19 339,-125.5 340.69,-123.94 342.49,-122.48 344.37,-121.11"/>
<polygon fill="#63b8ff" stroke="#63b8ff" points="346.45,-123.93 353.05,-115.64 342.73,-118.01 346.45,-123.93"/>
</a>
</g>
</g>
<!-- Node32 -->
<g id="Node000032" class="node">
<title>Node32</title>
<g id="a_Node000032"><a xlink:href="classpycanha_1_1Node.html#aa6ed2994d3acaf711d8f0c12145a7983" target="_top" xlink:title="Set the parent instance.">
<polygon fill="white" stroke="#666666" points="473.5,-67.5 342.5,-67.5 342.5,-37.5 473.5,-37.5 473.5,-67.5"/>
<text text-anchor="start" x="350.5" y="-55.5" font-family="Helvetica,sans-Serif" font-size="10.00">pycanha::Node::set</text>
<text text-anchor="middle" x="408" y="-44.5" font-family="Helvetica,sans-Serif" font-size="10.00">_thermal_nodes_parent</text>
</a>
</g>
</g>
<!-- Node2&#45;&gt;Node32 -->
<g id="edge31_Node000002_Node000032" class="edge">
<title>Node2&#45;&gt;Node32</title>
<g id="a_edge31_Node000002_Node000032"><a xlink:title=" ">
<path fill="none" stroke="#63b8ff" d="M249.78,-313.35C268.34,-260.27 329.95,-85.37 339,-76.5 340.09,-75.43 341.23,-74.41 342.41,-73.43"/>
<polygon fill="#63b8ff" stroke="#63b8ff" points="344.55,-76.21 350.77,-67.63 340.56,-70.46 344.55,-76.21"/>
</a>
</g>
</g>
<!-- Node4 -->
<g id="Node000004" class="node">
<title>Node4</title>
<g id="a_Node000004"><a xlink:href="classpycanha_1_1Nodes.html#a77196970cfb979acc7b67f8b99c9f634" target="_top" xlink:title="Area [m^2] getter.">
<polygon fill="white" stroke="#666666" points="647,-597 519,-597 519,-578 647,-578 647,-597"/>
<text text-anchor="middle" x="583" y="-585" font-family="Helvetica,sans-Serif" font-size="10.00">pycanha::Nodes::get_a</text>
</a>
</g>
</g>
<!-- Node3&#45;&gt;Node4 -->
<g id="edge3_Node000003_Node000004" class="edge">
<title>Node3&#45;&gt;Node4</title>
<g id="a_edge3_Node000003_Node000004"><a xlink:title=" ">
<path fill="none" stroke="#63b8ff" d="M469.02,-587.5C481.85,-587.5 495.55,-587.5 508.81,-587.5"/>
<polygon fill="#63b8ff" stroke="#63b8ff" points="508.85,-591 518.85,-587.5 508.85,-584 508.85,-591"/>
</a>
</g>
</g>
<!-- Node6 -->
<g id="Node000006" class="node">
<title>Node6</title>
<g id="a_Node000006"><a xlink:href="classpycanha_1_1Nodes.html#ad61fdb5f6c5d4a13dd351715818f930a" target="_top" xlink:title="Solar absortivity getter.">
<polygon fill="white" stroke="#666666" points="653,-560 513,-560 513,-541 653,-541 653,-560"/>
<text text-anchor="middle" x="583" y="-548" font-family="Helvetica,sans-Serif" font-size="10.00">pycanha::Nodes::get_aph</text>
</a>
</g>
</g>
<!-- Node5&#45;&gt;Node6 -->
<g id="edge5_Node000005_Node000006" class="edge">
<title>Node5&#45;&gt;Node6</title>
<g id="a_edge5_Node000005_Node000006"><a xlink:title=" ">
<path fill="none" stroke="#63b8ff" d="M475.39,-550.5C484.32,-550.5 493.56,-550.5 502.68,-550.5"/>
<polygon fill="#63b8ff" stroke="#63b8ff" points="502.92,-554 512.92,-550.5 502.92,-547 502.92,-554"/>
</a>
</g>
</g>
<!-- Node8 -->
<g id="Node000008" class="node">
<title>Node8</title>
<g id="a_Node000008"><a xlink:href="classpycanha_1_1Nodes.html#ab1c554b7523ca26126896ac0df536594" target="_top" xlink:title="Thermal capacity [J/K] getter.">
<polygon fill="white" stroke="#666666" points="647,-523 519,-523 519,-504 647,-504 647,-523"/>
<text text-anchor="middle" x="583" y="-511" font-family="Helvetica,sans-Serif" font-size="10.00">pycanha::Nodes::get_C</text>
</a>
</g>
</g>
<!-- Node7&#45;&gt;Node8 -->
<g id="edge7_Node000007_Node000008" class="edge">
<title>Node7&#45;&gt;Node8</title>
<g id="a_edge7_Node000007_Node000008"><a xlink:title=" ">
<path fill="none" stroke="#63b8ff" d="M469.51,-513.5C482.12,-513.5 495.54,-513.5 508.56,-513.5"/>
<polygon fill="#63b8ff" stroke="#63b8ff" points="508.89,-517 518.89,-513.5 508.89,-510 508.89,-517"/>
</a>
</g>
</g>
<!-- Node10 -->
<g id="Node000010" class="node">
<title>Node10</title>
<g id="a_Node000010"><a xlink:href="classpycanha_1_1Nodes.html#a8802742ebd0f9ccdd0182b600fe7eff1" target="_top" xlink:title="IR emissivity getter.">
<polygon fill="white" stroke="#666666" points="652.5,-486 513.5,-486 513.5,-467 652.5,-467 652.5,-486"/>
<text text-anchor="middle" x="583" y="-474" font-family="Helvetica,sans-Serif" font-size="10.00">pycanha::Nodes::get_eps</text>
</a>
</g>
</g>
<!-- Node9&#45;&gt;Node10 -->
<g id="edge9_Node000009_Node000010" class="edge">
<title>Node9&#45;&gt;Node10</title>
<g id="a_edge9_Node000009_Node000010"><a xlink:title=" ">
<path fill="none" stroke="#63b8ff" d="M475.39,-476.5C484.56,-476.5 494.04,-476.5 503.41,-476.5"/>
<polygon fill="#63b8ff" stroke="#63b8ff" points="503.49,-480 513.49,-476.5 503.49,-473 503.49,-480"/>
</a>
</g>
</g>
<!-- Node12 -->
<g id="Node000012" class="node">
<title>Node12</title>
<g id="a_Node000012"><a xlink:href="classpycanha_1_1Nodes.html#a4cf1319c964a09c43c8b7d727c08e4ec" target="_top" xlink:title="X coordinate [m] getter.">
<polygon fill="white" stroke="#666666" points="648.5,-449 517.5,-449 517.5,-430 648.5,-430 648.5,-449"/>
<text text-anchor="middle" x="583" y="-437" font-family="Helvetica,sans-Serif" font-size="10.00">pycanha::Nodes::get_fx</text>
</a>
</g>
</g>
<!-- Node11&#45;&gt;Node12 -->
<g id="edge11_Node000011_Node000012" class="edge">
<title>Node11&#45;&gt;Node12</title>
<g id="a_edge11_Node000011_Node000012"><a xlink:title=" ">
<path fill="none" stroke="#63b8ff" d="M471.46,-439.5C482.98,-439.5 495.13,-439.5 506.99,-439.5"/>
<polygon fill="#63b8ff" stroke="#63b8ff" points="507.3,-443 517.3,-439.5 507.3,-436 507.3,-443"/>
</a>
</g>
</g>
<!-- Node14 -->
<g id="Node000014" class="node">
<title>Node14</title>
<g id="a_Node000014"><a xlink:href="classpycanha_1_1Nodes.html#a64c3c26707b3116db6928646261954b2" target="_top" xlink:title="Y coordinate [m] getter.">
<polygon fill="white" stroke="#666666" points="648.5,-412 517.5,-412 517.5,-393 648.5,-393 648.5,-412"/>
<text text-anchor="middle" x="583" y="-400" font-family="Helvetica,sans-Serif" font-size="10.00">pycanha::Nodes::get_fy</text>
</a>
</g>
</g>
<!-- Node13&#45;&gt;Node14 -->
<g id="edge13_Node000013_Node000014" class="edge">
<title>Node13&#45;&gt;Node14</title>
<g id="a_edge13_Node000013_Node000014"><a xlink:title=" ">
<path fill="none" stroke="#63b8ff" d="M470.97,-402.5C482.71,-402.5 495.11,-402.5 507.19,-402.5"/>
<polygon fill="#63b8ff" stroke="#63b8ff" points="507.25,-406 517.25,-402.5 507.25,-399 507.25,-406"/>
</a>
</g>
</g>
<!-- Node16 -->
<g id="Node000016" class="node">
<title>Node16</title>
<g id="a_Node000016"><a xlink:href="classpycanha_1_1Nodes.html#a698ac07f5879b7ec5b81fd0a90f525ce" target="_top" xlink:title="Z coordinate [m] getter.">
<polygon fill="white" stroke="#666666" points="648.5,-375 517.5,-375 517.5,-356 648.5,-356 648.5,-375"/>
<text text-anchor="middle" x="583" y="-363" font-family="Helvetica,sans-Serif" font-size="10.00">pycanha::Nodes::get_fz</text>
</a>
</g>
</g>
<!-- Node15&#45;&gt;Node16 -->
<g id="edge15_Node000015_Node000016" class="edge">
<title>Node15&#45;&gt;Node16</title>
<g id="a_edge15_Node000015_Node000016"><a xlink:title=" ">
<path fill="none" stroke="#63b8ff" d="M470.97,-365.5C482.71,-365.5 495.11,-365.5 507.19,-365.5"/>
<polygon fill="#63b8ff" stroke="#63b8ff" points="507.25,-369 517.25,-365.5 507.25,-362 507.25,-369"/>
</a>
</g>
</g>
<!-- Node19 -->
<g id="Node000019" class="node">
<title>Node19</title>
<g id="a_Node000019"><a xlink:href="classpycanha_1_1Nodes.html#a521272051bce035b77e810f8f2e16b7b" target="_top" xlink:title="Albedo load [W] getter.">
<polygon fill="white" stroke="#666666" points="650,-338 516,-338 516,-319 650,-319 650,-338"/>
<text text-anchor="middle" x="583" y="-326" font-family="Helvetica,sans-Serif" font-size="10.00">pycanha::Nodes::get_qa</text>
</a>
</g>
</g>
<!-- Node18&#45;&gt;Node19 -->
<g id="edge18_Node000018_Node000019" class="edge">
<title>Node18&#45;&gt;Node19</title>
<g id="a_edge18_Node000018_Node000019"><a xlink:title=" ">
<path fill="none" stroke="#63b8ff" d="M472.44,-328.5C483.29,-328.5 494.67,-328.5 505.81,-328.5"/>
<polygon fill="#63b8ff" stroke="#63b8ff" points="505.96,-332 515.96,-328.5 505.96,-325 505.96,-332"/>
</a>
</g>
</g>
<!-- Node21 -->
<g id="Node000021" class="node">
<title>Node21</title>
<g id="a_Node000021"><a xlink:href="classpycanha_1_1Nodes.html#a3004cfb5c89e1c32f565eca56433e836" target="_top" xlink:title="Earth IR load [W] getter.">
<polygon fill="white" stroke="#666666" points="650,-301 516,-301 516,-282 650,-282 650,-301"/>
<text text-anchor="middle" x="583" y="-289" font-family="Helvetica,sans-Serif" font-size="10.00">pycanha::Nodes::get_qe</text>
</a>
</g>
</g>
<!-- Node20&#45;&gt;Node21 -->
<g id="edge20_Node000020_Node000021" class="edge">
<title>Node20&#45;&gt;Node21</title>
<g id="a_edge20_Node000020_Node000021"><a xlink:title=" ">
<path fill="none" stroke="#63b8ff" d="M472.44,-291.5C483.29,-291.5 494.67,-291.5 505.81,-291.5"/>
<polygon fill="#63b8ff" stroke="#63b8ff" points="505.96,-295 515.96,-291.5 505.96,-288 505.96,-295"/>
</a>
</g>
</g>
<!-- Node23 -->
<g id="Node000023" class="node">
<title>Node23</title>
<g id="a_Node000023"><a xlink:href="classpycanha_1_1Nodes.html#a7281e1dc78824a8a1c151c4bb5f0ac9c" target="_top" xlink:title="Internal load [W] getter.">
<polygon fill="white" stroke="#666666" points="648.5,-264 517.5,-264 517.5,-245 648.5,-245 648.5,-264"/>
<text text-anchor="middle" x="583" y="-252" font-family="Helvetica,sans-Serif" font-size="10.00">pycanha::Nodes::get_qi</text>
</a>
</g>
</g>
<!-- Node22&#45;&gt;Node23 -->
<g id="edge22_Node000022_Node000023" class="edge">
<title>Node22&#45;&gt;Node23</title>
<g id="a_edge22_Node000022_Node000023"><a xlink:title=" ">
<path fill="none" stroke="#63b8ff" d="M470.97,-254.5C482.71,-254.5 495.11,-254.5 507.19,-254.5"/>
<polygon fill="#63b8ff" stroke="#63b8ff" points="507.25,-258 517.25,-254.5 507.25,-251 507.25,-258"/>
</a>
</g>
</g>
<!-- Node25 -->
<g id="Node000025" class="node">
<title>Node25</title>
<g id="a_Node000025"><a xlink:href="classpycanha_1_1Nodes.html#a044abae6432fcf073ec1bbd2e2faba98" target="_top" xlink:title="Other load [W] getter.">
<polygon fill="white" stroke="#666666" points="648.5,-227 517.5,-227 517.5,-208 648.5,-208 648.5,-227"/>
<text text-anchor="middle" x="583" y="-215" font-family="Helvetica,sans-Serif" font-size="10.00">pycanha::Nodes::get_qr</text>
</a>
</g>
</g>
<!-- Node24&#45;&gt;Node25 -->
<g id="edge24_Node000024_Node000025" class="edge">
<title>Node24&#45;&gt;Node25</title>
<g id="a_edge24_Node000024_Node000025"><a xlink:title=" ">
<path fill="none" stroke="#63b8ff" d="M471.46,-217.5C482.98,-217.5 495.13,-217.5 506.99,-217.5"/>
<polygon fill="#63b8ff" stroke="#63b8ff" points="507.3,-221 517.3,-217.5 507.3,-214 507.3,-221"/>
</a>
</g>
</g>
<!-- Node27 -->
<g id="Node000027" class="node">
<title>Node27</title>
<g id="a_Node000027"><a xlink:href="classpycanha_1_1Nodes.html#a69b8286c1d8f94103a25d32f1ed155b5" target="_top" xlink:title="Solar load [W] getter.">
<polygon fill="white" stroke="#666666" points="649.5,-190 516.5,-190 516.5,-171 649.5,-171 649.5,-190"/>
<text text-anchor="middle" x="583" y="-178" font-family="Helvetica,sans-Serif" font-size="10.00">pycanha::Nodes::get_qs</text>
</a>
</g>
</g>
<!-- Node26&#45;&gt;Node27 -->
<g id="edge26_Node000026_Node000027" class="edge">
<title>Node26&#45;&gt;Node27</title>
<g id="a_edge26_Node000026_Node000027"><a xlink:title=" ">
<path fill="none" stroke="#63b8ff" d="M472.44,-180.5C483.36,-180.5 494.82,-180.5 506.04,-180.5"/>
<polygon fill="#63b8ff" stroke="#63b8ff" points="506.25,-184 516.25,-180.5 506.25,-177 506.25,-184"/>
</a>
</g>
</g>
<!-- Node29 -->
<g id="Node000029" class="node">
<title>Node29</title>
<g id="a_Node000029"><a xlink:href="classpycanha_1_1Nodes.html#a2241f25d67aaa234fe0f73b1245560d6" target="_top" xlink:title="Temperature [K] getter.">
<polygon fill="white" stroke="#666666" points="647,-153 519,-153 519,-134 647,-134 647,-153"/>
<text text-anchor="middle" x="583" y="-141" font-family="Helvetica,sans-Serif" font-size="10.00">pycanha::Nodes::get_T</text>
</a>
</g>
</g>
<!-- Node28&#45;&gt;Node29 -->
<g id="edge28_Node000028_Node000029" class="edge">
<title>Node28&#45;&gt;Node29</title>
<g id="a_edge28_Node000028_Node000029"><a xlink:title=" ">
<path fill="none" stroke="#63b8ff" d="M469.02,-143.5C481.85,-143.5 495.55,-143.5 508.81,-143.5"/>
<polygon fill="#63b8ff" stroke="#63b8ff" points="508.85,-147 518.85,-143.5 508.85,-140 508.85,-147"/>
</a>
</g>
</g>
<!-- Node33 -->
<g id="Node000033" class="node">
<title>Node33</title>
<g id="a_Node000033"><a xlink:href="classpycanha_1_1Node.html#a6b3e48a500d2f713fc7ee37e26693749" target="_top" xlink:title=" ">
<polygon fill="white" stroke="#666666" points="642.5,-67.5 523.5,-67.5 523.5,-37.5 642.5,-37.5 642.5,-67.5"/>
<text text-anchor="start" x="531.5" y="-55.5" font-family="Helvetica,sans-Serif" font-size="10.00">pycanha::Node::local</text>
<text text-anchor="middle" x="583" y="-44.5" font-family="Helvetica,sans-Serif" font-size="10.00">_storage_destructor</text>
</a>
</g>
</g>
<!-- Node32&#45;&gt;Node33 -->
<g id="edge32_Node000032_Node000033" class="edge">
<title>Node32&#45;&gt;Node33</title>
<g id="a_edge32_Node000032_Node000033"><a xlink:title=" ">
<path fill="none" stroke="#63b8ff" d="M473.91,-52.5C486.7,-52.5 500.15,-52.5 513.07,-52.5"/>
<polygon fill="#63b8ff" stroke="#63b8ff" points="513.28,-56 523.28,-52.5 513.28,-49 513.28,-56"/>
</a>
</g>
</g>
</g>
</svg>
