<?xml version="1.0" encoding="UTF-8" standalone="no"?>
<!DOCTYPE svg PUBLIC "-//W3C//DTD SVG 1.1//EN"
 "http://www.w3.org/Graphics/SVG/1.1/DTD/svg11.dtd">
<!-- Generated by graphviz version 2.43.0 (0)
 -->
<!-- Title: pycanha::gmm::Primitive::reconstruct_face_edges_2d Pages: 1 -->
<svg width="361pt" height="88pt"
 viewBox="0.00 0.00 361.00 88.00" xmlns="http://www.w3.org/2000/svg" xmlns:xlink="http://www.w3.org/1999/xlink">
<g id="graph0" class="graph" transform="scale(1 1) rotate(0) translate(4 84)">
<title>pycanha::gmm::Primitive::reconstruct_face_edges_2d</title>
<!-- Node1 -->
<g id="node1" class="node">
<title>Node1</title>
<g id="a_node1"><a xlink:title="Iterate over all the edges in the mesh and assign each one to the correspondent face....">
<polygon fill="#bfbfbf" stroke="black" points="0,-24.5 0,-54.5 155,-54.5 155,-24.5 0,-24.5"/>
<text text-anchor="start" x="8" y="-42.5" font-family="Helvetica,sans-Serif" font-size="10.00">pycanha::gmm::Primitive</text>
<text text-anchor="middle" x="77.5" y="-31.5" font-family="Helvetica,sans-Serif" font-size="10.00">::reconstruct_face_edges_2d</text>
</a>
</g>
</g>
<!-- Node2 -->
<g id="node2" class="node">
<title>Node2</title>
<g id="a_node2"><a xlink:href="classpycanha_1_1gmm_1_1Primitive.html#ab9cdca3dd0c0726e36b8dae1967885bc" target="_top" xlink:title="Returns the ID of the face in the thermal mesh that contains the given UV coordinates....">
<polygon fill="none" stroke="black" points="202,-49.5 202,-79.5 342,-79.5 342,-49.5 202,-49.5"/>
<text text-anchor="start" x="210" y="-67.5" font-family="Helvetica,sans-Serif" font-size="10.00">pycanha::gmm::Primitive</text>
<text text-anchor="middle" x="272" y="-56.5" font-family="Helvetica,sans-Serif" font-size="10.00">::get_faceid_from_uv</text>
</a>
</g>
</g>
<!-- Node1&#45;&gt;Node2 -->
<g id="edge1" class="edge">
<title>Node1&#45;&gt;Node2</title>
<path fill="none" stroke="midnightblue" d="M155.13,-49.45C167.18,-51.02 179.64,-52.64 191.74,-54.21"/>
<polygon fill="midnightblue" stroke="midnightblue" points="191.43,-57.7 201.8,-55.51 192.34,-50.75 191.43,-57.7"/>
</g>
<!-- Node3 -->
<g id="node3" class="node">
<title>Node3</title>
<g id="a_node3"><a xlink:href="classpycanha_1_1gmm_1_1ThermalMesh.html#aa4f95a1ff0a29ef63939fff7fb0e0480" target="_top" xlink:title="Return number of pair of faces.">
<polygon fill="none" stroke="black" points="191,-0.5 191,-30.5 353,-30.5 353,-0.5 191,-0.5"/>
<text text-anchor="start" x="199" y="-18.5" font-family="Helvetica,sans-Serif" font-size="10.00">pycanha::gmm::ThermalMesh</text>
<text text-anchor="middle" x="272" y="-7.5" font-family="Helvetica,sans-Serif" font-size="10.00">::get_number_of_pair_faces</text>
</a>
</g>
</g>
<!-- Node1&#45;&gt;Node3 -->
<g id="edge2" class="edge">
<title>Node1&#45;&gt;Node3</title>
<path fill="none" stroke="midnightblue" d="M155.13,-29.95C163.57,-28.89 172.22,-27.81 180.81,-26.74"/>
<polygon fill="midnightblue" stroke="midnightblue" points="181.35,-30.2 190.84,-25.49 180.49,-23.26 181.35,-30.2"/>
</g>
</g>
</svg>
