<?xml version="1.0" encoding="UTF-8" standalone="no"?>
<!DOCTYPE svg PUBLIC "-//W3C//DTD SVG 1.1//EN"
 "http://www.w3.org/Graphics/SVG/1.1/DTD/svg11.dtd">
<!-- Generated by graphviz version 2.43.0 (0)
 -->
<!-- Title: pycanha::gmm::Cylinder::get_faceid_from_uv Pages: 1 -->
<svg width="316pt" height="235pt"
 viewBox="0.00 0.00 316.00 235.00" xmlns="http://www.w3.org/2000/svg" xmlns:xlink="http://www.w3.org/1999/xlink">
<g id="graph0" class="graph" transform="scale(1 1) rotate(0) translate(4 231)">
<title>pycanha::gmm::Cylinder::get_faceid_from_uv</title>
<!-- Node1 -->
<g id="node1" class="node">
<title>Node1</title>
<g id="a_node1"><a xlink:title="Returns the ID of the face in the thermal mesh that contains the given UV coordinates....">
<polygon fill="#bfbfbf" stroke="black" points="0,-98.5 0,-128.5 136,-128.5 136,-98.5 0,-98.5"/>
<text text-anchor="start" x="8" y="-116.5" font-family="Helvetica,sans-Serif" font-size="10.00">pycanha::gmm::Cylinder</text>
<text text-anchor="middle" x="68" y="-105.5" font-family="Helvetica,sans-Serif" font-size="10.00">::get_faceid_from_uv</text>
</a>
</g>
</g>
<!-- Node2 -->
<g id="node2" class="node">
<title>Node2</title>
<g id="a_node2"><a xlink:href="classpycanha_1_1gmm_1_1Cylinder.html#a6beb7ed803cea0337ed3cb8a22365792" target="_top" xlink:title="Returns the end angle of the cylinder.">
<polygon fill="none" stroke="black" points="172,-196.5 172,-226.5 308,-226.5 308,-196.5 172,-196.5"/>
<text text-anchor="start" x="180" y="-214.5" font-family="Helvetica,sans-Serif" font-size="10.00">pycanha::gmm::Cylinder</text>
<text text-anchor="middle" x="240" y="-203.5" font-family="Helvetica,sans-Serif" font-size="10.00">::get_end_angle</text>
</a>
</g>
</g>
<!-- Node1&#45;&gt;Node2 -->
<g id="edge1" class="edge">
<title>Node1&#45;&gt;Node2</title>
<path fill="none" stroke="midnightblue" d="M86.6,-128.5C106.34,-144.75 139.83,-170.61 172,-187.5 175.31,-189.24 178.78,-190.9 182.32,-192.48"/>
<polygon fill="midnightblue" stroke="midnightblue" points="181.21,-195.82 191.79,-196.47 183.93,-189.37 181.21,-195.82"/>
</g>
<!-- Node3 -->
<g id="node3" class="node">
<title>Node3</title>
<g id="a_node3"><a xlink:href="classpycanha_1_1gmm_1_1Cylinder.html#ae88cc5f161c9b1b8451e8743f0165140" target="_top" xlink:title="Returns the first point of the cylinder.">
<polygon fill="none" stroke="black" points="172,-147.5 172,-177.5 308,-177.5 308,-147.5 172,-147.5"/>
<text text-anchor="start" x="180" y="-165.5" font-family="Helvetica,sans-Serif" font-size="10.00">pycanha::gmm::Cylinder</text>
<text text-anchor="middle" x="240" y="-154.5" font-family="Helvetica,sans-Serif" font-size="10.00">::get_p1</text>
</a>
</g>
</g>
<!-- Node1&#45;&gt;Node3 -->
<g id="edge2" class="edge">
<title>Node1&#45;&gt;Node3</title>
<path fill="none" stroke="midnightblue" d="M121.39,-128.6C139.01,-133.68 158.82,-139.39 177.1,-144.66"/>
<polygon fill="midnightblue" stroke="midnightblue" points="176.2,-148.04 186.78,-147.45 178.14,-141.32 176.2,-148.04"/>
</g>
<!-- Node4 -->
<g id="node4" class="node">
<title>Node4</title>
<g id="a_node4"><a xlink:href="classpycanha_1_1gmm_1_1Cylinder.html#af8c604069c7bb98a807e9e8348929935" target="_top" xlink:title="Returns the second point of the cylinder.">
<polygon fill="none" stroke="black" points="172,-98.5 172,-128.5 308,-128.5 308,-98.5 172,-98.5"/>
<text text-anchor="start" x="180" y="-116.5" font-family="Helvetica,sans-Serif" font-size="10.00">pycanha::gmm::Cylinder</text>
<text text-anchor="middle" x="240" y="-105.5" font-family="Helvetica,sans-Serif" font-size="10.00">::get_p2</text>
</a>
</g>
</g>
<!-- Node1&#45;&gt;Node4 -->
<g id="edge3" class="edge">
<title>Node1&#45;&gt;Node4</title>
<path fill="none" stroke="midnightblue" d="M136.19,-113.5C144.5,-113.5 153.05,-113.5 161.51,-113.5"/>
<polygon fill="midnightblue" stroke="midnightblue" points="161.74,-117 171.74,-113.5 161.74,-110 161.74,-117"/>
</g>
<!-- Node5 -->
<g id="node5" class="node">
<title>Node5</title>
<g id="a_node5"><a xlink:href="classpycanha_1_1gmm_1_1Cylinder.html#a9311fb67f5f5a26986ec7c872a9e8344" target="_top" xlink:title="Returns the radius of the cylinder.">
<polygon fill="none" stroke="black" points="172,-49.5 172,-79.5 308,-79.5 308,-49.5 172,-49.5"/>
<text text-anchor="start" x="180" y="-67.5" font-family="Helvetica,sans-Serif" font-size="10.00">pycanha::gmm::Cylinder</text>
<text text-anchor="middle" x="240" y="-56.5" font-family="Helvetica,sans-Serif" font-size="10.00">::get_radius</text>
</a>
</g>
</g>
<!-- Node1&#45;&gt;Node5 -->
<g id="edge4" class="edge">
<title>Node1&#45;&gt;Node5</title>
<path fill="none" stroke="midnightblue" d="M121.39,-98.4C139.01,-93.32 158.82,-87.61 177.1,-82.34"/>
<polygon fill="midnightblue" stroke="midnightblue" points="178.14,-85.68 186.78,-79.55 176.2,-78.96 178.14,-85.68"/>
</g>
<!-- Node6 -->
<g id="node6" class="node">
<title>Node6</title>
<g id="a_node6"><a xlink:href="classpycanha_1_1gmm_1_1Cylinder.html#aff728f73d0160468bb95fe907db65a77" target="_top" xlink:title="Returns the start angle of the cylinder.">
<polygon fill="none" stroke="black" points="172,-0.5 172,-30.5 308,-30.5 308,-0.5 172,-0.5"/>
<text text-anchor="start" x="180" y="-18.5" font-family="Helvetica,sans-Serif" font-size="10.00">pycanha::gmm::Cylinder</text>
<text text-anchor="middle" x="240" y="-7.5" font-family="Helvetica,sans-Serif" font-size="10.00">::get_start_angle</text>
</a>
</g>
</g>
<!-- Node1&#45;&gt;Node6 -->
<g id="edge5" class="edge">
<title>Node1&#45;&gt;Node6</title>
<path fill="none" stroke="midnightblue" d="M87.4,-98.22C107.3,-82.24 140.43,-57.21 172,-40.5 175.93,-38.42 180.08,-36.43 184.3,-34.55"/>
<polygon fill="midnightblue" stroke="midnightblue" points="185.76,-37.73 193.61,-30.61 183.03,-31.28 185.76,-37.73"/>
</g>
</g>
</svg>
