<?xml version="1.0" encoding="UTF-8" standalone="no"?>
<!DOCTYPE svg PUBLIC "-//W3C//DTD SVG 1.1//EN"
 "http://www.w3.org/Graphics/SVG/1.1/DTD/svg11.dtd">
<!-- Generated by graphviz version 14.1.2 (0)
 -->
<!-- Title: pycanha::Nodes::Nodes Pages: 1 -->
<svg width="290pt" height="47pt"
 viewBox="0.00 0.00 290.00 47.00" xmlns="http://www.w3.org/2000/svg" xmlns:xlink="http://www.w3.org/1999/xlink">
<g id="graph0" class="graph" transform="scale(1 1) rotate(0) translate(4 42.75)">
<title>pycanha::Nodes::Nodes</title>
<!-- Node1 -->
<g id="Node000001" class="node">
<title>Node1</title>
<g id="a_Node000001"><a xlink:title="Default constructor.">
<polygon fill="#999999" stroke="#666666" points="130.75,-20.75 0,-20.75 0,0 130.75,0 130.75,-20.75"/>
<text xml:space="preserve" text-anchor="middle" x="65.38" y="-7.25" font-family="Helvetica,sans-Serif" font-size="10.00">pycanha::Nodes::Nodes</text>
</a>
</g>
</g>
<!-- Node1&#45;&gt;Node1 -->
<g id="edge2_Node000001_Node000001" class="edge">
<title>Node1&#45;&gt;Node1</title>
<g id="a_edge2_Node000001_Node000001"><a xlink:title=" ">
<path fill="none" stroke="#63b8ff" d="M39.78,-21.15C29.54,-29.81 38.07,-38.75 65.38,-38.75 80.31,-38.75 89.63,-36.08 93.33,-32.24"/>
<polygon fill="#63b8ff" stroke="#63b8ff" points="96.79,-31.68 91.29,-22.63 89.94,-33.14 96.79,-31.68"/>
</a>
</g>
</g>
<!-- Node2 -->
<g id="Node000002" class="node">
<title>Node2</title>
<g id="a_Node000002"><a xlink:href="namespacepycanha.html#af116674b7649af0e33b3d7e78ecb1b1b" target="_top" xlink:title=" ">
<polygon fill="white" stroke="#666666" points="281.75,-20.75 166.75,-20.75 166.75,0 281.75,0 281.75,-20.75"/>
<text xml:space="preserve" text-anchor="middle" x="224.25" y="-7.25" font-family="Helvetica,sans-Serif" font-size="10.00">pycanha::get_logger</text>
</a>
</g>
</g>
<!-- Node1&#45;&gt;Node2 -->
<g id="edge1_Node000001_Node000002" class="edge">
<title>Node1&#45;&gt;Node2</title>
<g id="a_edge1_Node000001_Node000002"><a xlink:title=" ">
<path fill="none" stroke="#63b8ff" d="M131.09,-10.38C139.12,-10.38 147.35,-10.38 155.42,-10.38"/>
<polygon fill="#63b8ff" stroke="#63b8ff" points="155.19,-13.88 165.19,-10.38 155.19,-6.88 155.19,-13.88"/>
</a>
</g>
</g>
</g>
</svg>
