<?xml version="1.0" encoding="UTF-8" standalone="no"?>
<!DOCTYPE svg PUBLIC "-//W3C//DTD SVG 1.1//EN"
 "http://www.w3.org/Graphics/SVG/1.1/DTD/svg11.dtd">
<!-- Generated by graphviz version 2.43.0 (0)
 -->
<!-- Title: pycanha::gmm::Cone::create_mesh Pages: 1 -->
<svg width="297pt" height="1068pt"
 viewBox="0.00 0.00 297.00 1068.00" xmlns="http://www.w3.org/2000/svg" xmlns:xlink="http://www.w3.org/1999/xlink">
<g id="graph0" class="graph" transform="scale(1 1) rotate(0) translate(4 1064)">
<title>pycanha::gmm::Cone::create_mesh</title>
<!-- Node1 -->
<g id="node1" class="node">
<title>Node1</title>
<g id="a_node1"><a xlink:title="Creates the triangular mesh from the primitive.">
<polygon fill="#bfbfbf" stroke="black" points="0,-514.5 0,-544.5 120,-544.5 120,-514.5 0,-514.5"/>
<text text-anchor="start" x="8" y="-532.5" font-family="Helvetica,sans-Serif" font-size="10.00">pycanha::gmm::Cone</text>
<text text-anchor="middle" x="60" y="-521.5" font-family="Helvetica,sans-Serif" font-size="10.00">::create_mesh</text>
</a>
</g>
</g>
<!-- Node2 -->
<g id="node2" class="node">
<title>Node2</title>
<g id="a_node2"><a xlink:href="classpycanha_1_1gmm_1_1Cone.html#aedf93bbfdbfcae836eb8fe626eb3ecc7" target="_top" xlink:title="3D coordinates of a point ON the primitive surface from 2D coordinates. Note: The method is not valid...">
<polygon fill="none" stroke="black" points="162.5,-1029.5 162.5,-1059.5 282.5,-1059.5 282.5,-1029.5 162.5,-1029.5"/>
<text text-anchor="start" x="170.5" y="-1047.5" font-family="Helvetica,sans-Serif" font-size="10.00">pycanha::gmm::Cone</text>
<text text-anchor="middle" x="222.5" y="-1036.5" font-family="Helvetica,sans-Serif" font-size="10.00">::from_2d_to_3d</text>
</a>
</g>
</g>
<!-- Node1&#45;&gt;Node2 -->
<g id="edge1" class="edge">
<title>Node1&#45;&gt;Node2</title>
<path fill="none" stroke="midnightblue" d="M61.95,-544.57C66.94,-618.89 92.25,-945.63 156,-1020.5 156.73,-1021.35 157.49,-1022.18 158.27,-1022.97"/>
<polygon fill="midnightblue" stroke="midnightblue" points="156.13,-1025.73 166.09,-1029.35 160.56,-1020.31 156.13,-1025.73"/>
</g>
<!-- Node3 -->
<g id="node3" class="node">
<title>Node3</title>
<g id="a_node3"><a xlink:href="classpycanha_1_1gmm_1_1Cone.html#a84b7db6c1af17dba1e699af61e2dab71" target="_top" xlink:title="2D coordinates of a point ON the primitive surface from 3D coordinates. Note: It is assumed that the ...">
<polygon fill="none" stroke="black" points="162.5,-980.5 162.5,-1010.5 282.5,-1010.5 282.5,-980.5 162.5,-980.5"/>
<text text-anchor="start" x="170.5" y="-998.5" font-family="Helvetica,sans-Serif" font-size="10.00">pycanha::gmm::Cone</text>
<text text-anchor="middle" x="222.5" y="-987.5" font-family="Helvetica,sans-Serif" font-size="10.00">::from_3d_to_2d</text>
</a>
</g>
</g>
<!-- Node1&#45;&gt;Node3 -->
<g id="edge2" class="edge">
<title>Node1&#45;&gt;Node3</title>
<path fill="none" stroke="midnightblue" d="M62.34,-544.91C68.72,-615.22 98.2,-905.01 156,-971.5 156.75,-972.37 157.54,-973.21 158.36,-974.01"/>
<polygon fill="midnightblue" stroke="midnightblue" points="156.47,-976.98 166.47,-980.49 160.84,-971.51 156.47,-976.98"/>
</g>
<!-- Node4 -->
<g id="node4" class="node">
<title>Node4</title>
<g id="a_node4"><a xlink:href="classpycanha_1_1gmm_1_1TriMesh.html#ac96e1edfa90d2ef931bfb038d9eeede3" target="_top" xlink:title="Get edges.">
<polygon fill="none" stroke="black" points="156,-931.5 156,-961.5 289,-961.5 289,-931.5 156,-931.5"/>
<text text-anchor="start" x="164" y="-949.5" font-family="Helvetica,sans-Serif" font-size="10.00">pycanha::gmm::TriMesh</text>
<text text-anchor="middle" x="222.5" y="-938.5" font-family="Helvetica,sans-Serif" font-size="10.00">::get_edges</text>
</a>
</g>
</g>
<!-- Node1&#45;&gt;Node4 -->
<g id="edge3" class="edge">
<title>Node1&#45;&gt;Node4</title>
<path fill="none" stroke="midnightblue" d="M62.78,-544.93C70.63,-610.37 104.02,-864.22 156,-922.5 156.77,-923.36 157.57,-924.19 158.39,-924.98"/>
<polygon fill="midnightblue" stroke="midnightblue" points="156.54,-927.98 166.57,-931.4 160.86,-922.47 156.54,-927.98"/>
</g>
<!-- Node5 -->
<g id="node5" class="node">
<title>Node5</title>
<g id="a_node5"><a xlink:href="classpycanha_1_1gmm_1_1Cone.html#a67118c03959d2351f3c8c48f1698181c" target="_top" xlink:title="Returns the end angle of the cone.">
<polygon fill="none" stroke="black" points="162.5,-882.5 162.5,-912.5 282.5,-912.5 282.5,-882.5 162.5,-882.5"/>
<text text-anchor="start" x="170.5" y="-900.5" font-family="Helvetica,sans-Serif" font-size="10.00">pycanha::gmm::Cone</text>
<text text-anchor="middle" x="222.5" y="-889.5" font-family="Helvetica,sans-Serif" font-size="10.00">::get_end_angle</text>
</a>
</g>
</g>
<!-- Node1&#45;&gt;Node5 -->
<g id="edge4" class="edge">
<title>Node1&#45;&gt;Node5</title>
<path fill="none" stroke="midnightblue" d="M60.59,-544.86C60.03,-597.85 65.32,-775.08 156,-873.5 156.9,-874.48 157.84,-875.41 158.82,-876.31"/>
<polygon fill="midnightblue" stroke="midnightblue" points="156.91,-879.25 167,-882.49 161.13,-873.67 156.91,-879.25"/>
</g>
<!-- Node6 -->
<g id="node6" class="node">
<title>Node6</title>
<g id="a_node6"><a xlink:href="classpycanha_1_1gmm_1_1TriMesh.html#a81f6628b978aaeac9d36fafc63e0eead" target="_top" xlink:title="Get face ids vector.">
<polygon fill="none" stroke="black" points="156,-833.5 156,-863.5 289,-863.5 289,-833.5 156,-833.5"/>
<text text-anchor="start" x="164" y="-851.5" font-family="Helvetica,sans-Serif" font-size="10.00">pycanha::gmm::TriMesh</text>
<text text-anchor="middle" x="222.5" y="-840.5" font-family="Helvetica,sans-Serif" font-size="10.00">::get_face_ids</text>
</a>
</g>
</g>
<!-- Node1&#45;&gt;Node6 -->
<g id="edge5" class="edge">
<title>Node1&#45;&gt;Node6</title>
<path fill="none" stroke="midnightblue" d="M61.42,-544.68C63.56,-592.52 76.58,-741.87 156,-824.5 156.92,-825.46 157.88,-826.38 158.88,-827.26"/>
<polygon fill="midnightblue" stroke="midnightblue" points="157.02,-830.24 167.15,-833.34 161.17,-824.6 157.02,-830.24"/>
</g>
<!-- Node7 -->
<g id="node7" class="node">
<title>Node7</title>
<g id="a_node7"><a xlink:href="classpycanha_1_1gmm_1_1Cone.html#a4917ba84c6b3a8f8a0e68999168c9750" target="_top" xlink:title="Returns the ID of the face in the thermal mesh that contains the given UV coordinates....">
<polygon fill="none" stroke="black" points="162.5,-784.5 162.5,-814.5 282.5,-814.5 282.5,-784.5 162.5,-784.5"/>
<text text-anchor="start" x="170.5" y="-802.5" font-family="Helvetica,sans-Serif" font-size="10.00">pycanha::gmm::Cone</text>
<text text-anchor="middle" x="222.5" y="-791.5" font-family="Helvetica,sans-Serif" font-size="10.00">::get_faceid_from_uv</text>
</a>
</g>
</g>
<!-- Node1&#45;&gt;Node7 -->
<g id="edge6" class="edge">
<title>Node1&#45;&gt;Node7</title>
<path fill="none" stroke="midnightblue" d="M62.53,-544.55C67.62,-586.91 87.76,-708.43 156,-775.5 157.08,-776.56 158.21,-777.58 159.38,-778.55"/>
<polygon fill="midnightblue" stroke="midnightblue" points="157.47,-781.48 167.68,-784.33 161.47,-775.74 157.47,-781.48"/>
</g>
<!-- Node8 -->
<g id="node8" class="node">
<title>Node8</title>
<g id="a_node8"><a xlink:href="classpycanha_1_1gmm_1_1TriMesh.html#ac519c05be1a8304a4674b79c5a827551" target="_top" xlink:title="Get faces edges vector of indices.">
<polygon fill="none" stroke="black" points="156,-735.5 156,-765.5 289,-765.5 289,-735.5 156,-735.5"/>
<text text-anchor="start" x="164" y="-753.5" font-family="Helvetica,sans-Serif" font-size="10.00">pycanha::gmm::TriMesh</text>
<text text-anchor="middle" x="222.5" y="-742.5" font-family="Helvetica,sans-Serif" font-size="10.00">::get_faces_edges</text>
</a>
</g>
</g>
<!-- Node1&#45;&gt;Node8 -->
<g id="edge7" class="edge">
<title>Node1&#45;&gt;Node8</title>
<path fill="none" stroke="midnightblue" d="M64.19,-544.68C72.62,-581.19 98.89,-674.73 156,-726.5 157.3,-727.67 158.65,-728.79 160.06,-729.86"/>
<polygon fill="midnightblue" stroke="midnightblue" points="158.31,-732.89 168.61,-735.39 162.12,-727.02 158.31,-732.89"/>
</g>
<!-- Node9 -->
<g id="node9" class="node">
<title>Node9</title>
<g id="a_node9"><a xlink:href="classpycanha_1_1gmm_1_1TriMesh.html#ae06f494211f1c8d830818babc1e79b3e" target="_top" xlink:title="Get perimeter edges indices.">
<polygon fill="none" stroke="black" points="156,-686.5 156,-716.5 289,-716.5 289,-686.5 156,-686.5"/>
<text text-anchor="start" x="164" y="-704.5" font-family="Helvetica,sans-Serif" font-size="10.00">pycanha::gmm::TriMesh</text>
<text text-anchor="middle" x="222.5" y="-693.5" font-family="Helvetica,sans-Serif" font-size="10.00">::get_perimeter_edges</text>
</a>
</g>
</g>
<!-- Node1&#45;&gt;Node9 -->
<g id="edge8" class="edge">
<title>Node1&#45;&gt;Node9</title>
<path fill="none" stroke="midnightblue" d="M66.88,-544.82C79.06,-574.56 109.78,-640.45 156,-677.5 157.59,-678.78 159.26,-679.99 160.99,-681.14"/>
<polygon fill="midnightblue" stroke="midnightblue" points="159.62,-684.4 170.03,-686.41 163.15,-678.35 159.62,-684.4"/>
</g>
<!-- Node10 -->
<g id="node10" class="node">
<title>Node10</title>
<g id="a_node10"><a xlink:href="classpycanha_1_1gmm_1_1Cone.html#a763ab05104d136f1155501cf19ac5610" target="_top" xlink:title="Returns the radius1 of the cone.">
<polygon fill="none" stroke="black" points="162.5,-637.5 162.5,-667.5 282.5,-667.5 282.5,-637.5 162.5,-637.5"/>
<text text-anchor="start" x="170.5" y="-655.5" font-family="Helvetica,sans-Serif" font-size="10.00">pycanha::gmm::Cone</text>
<text text-anchor="middle" x="222.5" y="-644.5" font-family="Helvetica,sans-Serif" font-size="10.00">::get_radius1</text>
</a>
</g>
</g>
<!-- Node1&#45;&gt;Node10 -->
<g id="edge9" class="edge">
<title>Node1&#45;&gt;Node10</title>
<path fill="none" stroke="midnightblue" d="M71.92,-544.65C88.08,-566.07 120.3,-605.18 156,-628.5 158.42,-630.08 160.97,-631.58 163.58,-632.99"/>
<polygon fill="midnightblue" stroke="midnightblue" points="162.19,-636.21 172.71,-637.48 165.28,-629.93 162.19,-636.21"/>
</g>
<!-- Node11 -->
<g id="node11" class="node">
<title>Node11</title>
<g id="a_node11"><a xlink:href="classpycanha_1_1gmm_1_1Cone.html#a43bd830faa52037fba8915e328efa664" target="_top" xlink:title="Returns the radius2 of the cone.">
<polygon fill="none" stroke="black" points="162.5,-588.5 162.5,-618.5 282.5,-618.5 282.5,-588.5 162.5,-588.5"/>
<text text-anchor="start" x="170.5" y="-606.5" font-family="Helvetica,sans-Serif" font-size="10.00">pycanha::gmm::Cone</text>
<text text-anchor="middle" x="222.5" y="-595.5" font-family="Helvetica,sans-Serif" font-size="10.00">::get_radius2</text>
</a>
</g>
</g>
<!-- Node1&#45;&gt;Node11 -->
<g id="edge10" class="edge">
<title>Node1&#45;&gt;Node11</title>
<path fill="none" stroke="midnightblue" d="M87.55,-544.7C106.35,-555.15 132.32,-568.99 156,-579.5 160.03,-581.29 164.24,-583.06 168.5,-584.77"/>
<polygon fill="midnightblue" stroke="midnightblue" points="167.25,-588.04 177.84,-588.42 169.8,-581.52 167.25,-588.04"/>
</g>
<!-- Node12 -->
<g id="node12" class="node">
<title>Node12</title>
<g id="a_node12"><a xlink:href="classpycanha_1_1gmm_1_1Color.html#a6b0ff80336dd7c71b042dd65fb5534da" target="_top" xlink:title="Get the RGB values.">
<polygon fill="none" stroke="black" points="162,-539.5 162,-569.5 283,-569.5 283,-539.5 162,-539.5"/>
<text text-anchor="start" x="170" y="-557.5" font-family="Helvetica,sans-Serif" font-size="10.00">pycanha::gmm::Color</text>
<text text-anchor="middle" x="222.5" y="-546.5" font-family="Helvetica,sans-Serif" font-size="10.00">::get_rgb</text>
</a>
</g>
</g>
<!-- Node1&#45;&gt;Node12 -->
<g id="edge11" class="edge">
<title>Node1&#45;&gt;Node12</title>
<path fill="none" stroke="midnightblue" d="M120.31,-538.74C130.59,-540.34 141.37,-542.02 151.9,-543.66"/>
<polygon fill="midnightblue" stroke="midnightblue" points="151.48,-547.14 161.9,-545.22 152.56,-540.22 151.48,-547.14"/>
</g>
<!-- Node13 -->
<g id="node13" class="node">
<title>Node13</title>
<g id="a_node13"><a xlink:href="classpycanha_1_1gmm_1_1Cone.html#a00320e07ada992d2b6dba4c7d0d15fa3" target="_top" xlink:title="Returns the start angle of the cone.">
<polygon fill="none" stroke="black" points="162.5,-490.5 162.5,-520.5 282.5,-520.5 282.5,-490.5 162.5,-490.5"/>
<text text-anchor="start" x="170.5" y="-508.5" font-family="Helvetica,sans-Serif" font-size="10.00">pycanha::gmm::Cone</text>
<text text-anchor="middle" x="222.5" y="-497.5" font-family="Helvetica,sans-Serif" font-size="10.00">::get_start_angle</text>
</a>
</g>
</g>
<!-- Node1&#45;&gt;Node13 -->
<g id="edge12" class="edge">
<title>Node1&#45;&gt;Node13</title>
<path fill="none" stroke="midnightblue" d="M120.31,-520.63C130.73,-519.07 141.66,-517.44 152.32,-515.84"/>
<polygon fill="midnightblue" stroke="midnightblue" points="153.06,-519.27 162.44,-514.33 152.03,-512.35 153.06,-519.27"/>
</g>
<!-- Node14 -->
<g id="node14" class="node">
<title>Node14</title>
<g id="a_node14"><a xlink:href="classpycanha_1_1gmm_1_1TriMesh.html#a113cdc2728d6b47e8841ef9732ebd9b2" target="_top" xlink:title="Get triangles matrix.">
<polygon fill="none" stroke="black" points="156,-441.5 156,-471.5 289,-471.5 289,-441.5 156,-441.5"/>
<text text-anchor="start" x="164" y="-459.5" font-family="Helvetica,sans-Serif" font-size="10.00">pycanha::gmm::TriMesh</text>
<text text-anchor="middle" x="222.5" y="-448.5" font-family="Helvetica,sans-Serif" font-size="10.00">::get_triangles</text>
</a>
</g>
</g>
<!-- Node1&#45;&gt;Node14 -->
<g id="edge13" class="edge">
<title>Node1&#45;&gt;Node14</title>
<path fill="none" stroke="midnightblue" d="M88.9,-514.44C107.64,-504.57 133.01,-491.66 156,-481.5 160.68,-479.43 165.59,-477.37 170.53,-475.36"/>
<polygon fill="midnightblue" stroke="midnightblue" points="172.01,-478.54 180.01,-471.59 169.42,-472.04 172.01,-478.54"/>
</g>
<!-- Node15 -->
<g id="node15" class="node">
<title>Node15</title>
<g id="a_node15"><a xlink:href="classpycanha_1_1gmm_1_1TriMesh.html#a5e7a2cc9ec97ba48a13277d2c391e928" target="_top" xlink:title="Get vertices matrix.">
<polygon fill="none" stroke="black" points="156,-392.5 156,-422.5 289,-422.5 289,-392.5 156,-392.5"/>
<text text-anchor="start" x="164" y="-410.5" font-family="Helvetica,sans-Serif" font-size="10.00">pycanha::gmm::TriMesh</text>
<text text-anchor="middle" x="222.5" y="-399.5" font-family="Helvetica,sans-Serif" font-size="10.00">::get_vertices</text>
</a>
</g>
</g>
<!-- Node1&#45;&gt;Node15 -->
<g id="edge14" class="edge">
<title>Node1&#45;&gt;Node15</title>
<path fill="none" stroke="midnightblue" d="M72.31,-514.38C88.69,-493.41 120.91,-455.5 156,-432.5 158.94,-430.57 162.05,-428.76 165.25,-427.07"/>
<polygon fill="midnightblue" stroke="midnightblue" points="167,-430.11 174.47,-422.59 163.95,-423.81 167,-430.11"/>
</g>
<!-- Node16 -->
<g id="node16" class="node">
<title>Node16</title>
<g id="a_node16"><a xlink:href="classpycanha_1_1gmm_1_1TriMesh.html#a764175436ec04bec5542199bf643fef3" target="_top" xlink:title="Set the edges.">
<polygon fill="none" stroke="black" points="156,-343.5 156,-373.5 289,-373.5 289,-343.5 156,-343.5"/>
<text text-anchor="start" x="164" y="-361.5" font-family="Helvetica,sans-Serif" font-size="10.00">pycanha::gmm::TriMesh</text>
<text text-anchor="middle" x="222.5" y="-350.5" font-family="Helvetica,sans-Serif" font-size="10.00">::set_edges</text>
</a>
</g>
</g>
<!-- Node1&#45;&gt;Node16 -->
<g id="edge15" class="edge">
<title>Node1&#45;&gt;Node16</title>
<path fill="none" stroke="midnightblue" d="M66.99,-514.44C79.33,-485.2 110.36,-420.36 156,-383.5 158.07,-381.83 160.27,-380.26 162.55,-378.79"/>
<polygon fill="midnightblue" stroke="midnightblue" points="164.75,-381.56 171.72,-373.58 161.29,-375.48 164.75,-381.56"/>
</g>
<!-- Node17 -->
<g id="node17" class="node">
<title>Node17</title>
<g id="a_node17"><a xlink:href="classpycanha_1_1gmm_1_1TriMesh.html#af10f5e664fe6f933f8b45f26b160ffbd" target="_top" xlink:title="Set faces edges vector of indices.">
<polygon fill="none" stroke="black" points="156,-294.5 156,-324.5 289,-324.5 289,-294.5 156,-294.5"/>
<text text-anchor="start" x="164" y="-312.5" font-family="Helvetica,sans-Serif" font-size="10.00">pycanha::gmm::TriMesh</text>
<text text-anchor="middle" x="222.5" y="-301.5" font-family="Helvetica,sans-Serif" font-size="10.00">::set_faces_edges</text>
</a>
</g>
</g>
<!-- Node1&#45;&gt;Node17 -->
<g id="edge16" class="edge">
<title>Node1&#45;&gt;Node17</title>
<path fill="none" stroke="midnightblue" d="M64.34,-514.25C73.04,-478.03 99.74,-385.98 156,-334.5 157.71,-332.93 159.54,-331.46 161.44,-330.07"/>
<polygon fill="midnightblue" stroke="midnightblue" points="163.63,-332.83 170.25,-324.56 159.92,-326.9 163.63,-332.83"/>
</g>
<!-- Node18 -->
<g id="node18" class="node">
<title>Node18</title>
<g id="a_node18"><a xlink:href="classpycanha_1_1gmm_1_1TriMesh.html#a493b607aa11005d377995eb9fccc4aab" target="_top" xlink:title="Set perimeter edges indices.">
<polygon fill="none" stroke="black" points="156,-245.5 156,-275.5 289,-275.5 289,-245.5 156,-245.5"/>
<text text-anchor="start" x="164" y="-263.5" font-family="Helvetica,sans-Serif" font-size="10.00">pycanha::gmm::TriMesh</text>
<text text-anchor="middle" x="222.5" y="-252.5" font-family="Helvetica,sans-Serif" font-size="10.00">::set_perimeter_edges</text>
</a>
</g>
</g>
<!-- Node1&#45;&gt;Node18 -->
<g id="edge17" class="edge">
<title>Node1&#45;&gt;Node18</title>
<path fill="none" stroke="midnightblue" d="M62.65,-514.32C68.03,-472.14 88.76,-352.3 156,-285.5 157.46,-284.05 159.01,-282.69 160.63,-281.4"/>
<polygon fill="midnightblue" stroke="midnightblue" points="162.93,-284.07 169.28,-275.59 159.03,-278.26 162.93,-284.07"/>
</g>
<!-- Node19 -->
<g id="node19" class="node">
<title>Node19</title>
<g id="a_node19"><a xlink:href="classpycanha_1_1gmm_1_1TriMesh.html#a27e1232524b78c47b58b8d4d45d8172d" target="_top" xlink:title="Set the surface 1 color.">
<polygon fill="none" stroke="black" points="156,-196.5 156,-226.5 289,-226.5 289,-196.5 156,-196.5"/>
<text text-anchor="start" x="164" y="-214.5" font-family="Helvetica,sans-Serif" font-size="10.00">pycanha::gmm::TriMesh</text>
<text text-anchor="middle" x="222.5" y="-203.5" font-family="Helvetica,sans-Serif" font-size="10.00">::set_surface1_color</text>
</a>
</g>
</g>
<!-- Node1&#45;&gt;Node19 -->
<g id="edge18" class="edge">
<title>Node1&#45;&gt;Node19</title>
<path fill="none" stroke="midnightblue" d="M61.5,-514.47C63.88,-467.08 77.54,-319.07 156,-236.5 157.38,-235.04 158.86,-233.67 160.41,-232.38"/>
<polygon fill="midnightblue" stroke="midnightblue" points="162.55,-235.16 168.73,-226.55 158.53,-229.42 162.55,-235.16"/>
</g>
<!-- Node20 -->
<g id="node20" class="node">
<title>Node20</title>
<g id="a_node20"><a xlink:href="classpycanha_1_1gmm_1_1TriMesh.html#a331d5c97a882188d4454694b4a2a4af9" target="_top" xlink:title="Set the surface 2 color.">
<polygon fill="none" stroke="black" points="156,-147.5 156,-177.5 289,-177.5 289,-147.5 156,-147.5"/>
<text text-anchor="start" x="164" y="-165.5" font-family="Helvetica,sans-Serif" font-size="10.00">pycanha::gmm::TriMesh</text>
<text text-anchor="middle" x="222.5" y="-154.5" font-family="Helvetica,sans-Serif" font-size="10.00">::set_surface2_color</text>
</a>
</g>
</g>
<!-- Node1&#45;&gt;Node20 -->
<g id="edge19" class="edge">
<title>Node1&#45;&gt;Node20</title>
<path fill="none" stroke="midnightblue" d="M60.67,-514.27C60.36,-461.73 66.39,-285.92 156,-187.5 157.21,-186.17 158.5,-184.91 159.86,-183.72"/>
<polygon fill="midnightblue" stroke="midnightblue" points="162.24,-186.31 168.24,-177.58 158.1,-180.66 162.24,-186.31"/>
</g>
<!-- Node21 -->
<g id="node21" class="node">
<title>Node21</title>
<g id="a_node21"><a xlink:href="classpycanha_1_1gmm_1_1TriMesh.html#aaf397af7f952a2282ecf9a8f8c45616d" target="_top" xlink:title="Set triangles matrix.">
<polygon fill="none" stroke="black" points="156,-98.5 156,-128.5 289,-128.5 289,-98.5 156,-98.5"/>
<text text-anchor="start" x="164" y="-116.5" font-family="Helvetica,sans-Serif" font-size="10.00">pycanha::gmm::TriMesh</text>
<text text-anchor="middle" x="222.5" y="-105.5" font-family="Helvetica,sans-Serif" font-size="10.00">::set_triangles</text>
</a>
</g>
</g>
<!-- Node1&#45;&gt;Node21 -->
<g id="edge20" class="edge">
<title>Node1&#45;&gt;Node21</title>
<path fill="none" stroke="midnightblue" d="M62.82,-514.16C70.79,-449.12 104.62,-196.81 156,-138.5 157.16,-137.18 158.4,-135.93 159.7,-134.75"/>
<polygon fill="midnightblue" stroke="midnightblue" points="161.91,-137.47 167.8,-128.66 157.7,-131.88 161.91,-137.47"/>
</g>
<!-- Node22 -->
<g id="node22" class="node">
<title>Node22</title>
<g id="a_node22"><a xlink:href="classpycanha_1_1gmm_1_1TriMesh.html#aa4325faa89a30e8ffe2392e5a59e99e3" target="_top" xlink:title="Set vertices matrix.">
<polygon fill="none" stroke="black" points="156,-49.5 156,-79.5 289,-79.5 289,-49.5 156,-49.5"/>
<text text-anchor="start" x="164" y="-67.5" font-family="Helvetica,sans-Serif" font-size="10.00">pycanha::gmm::TriMesh</text>
<text text-anchor="middle" x="222.5" y="-56.5" font-family="Helvetica,sans-Serif" font-size="10.00">::set_vertices</text>
</a>
</g>
</g>
<!-- Node1&#45;&gt;Node22 -->
<g id="edge21" class="edge">
<title>Node1&#45;&gt;Node22</title>
<path fill="none" stroke="midnightblue" d="M62.37,-514.18C68.88,-444.26 98.86,-156.06 156,-89.5 157.14,-88.17 158.37,-86.9 159.66,-85.71"/>
<polygon fill="midnightblue" stroke="midnightblue" points="161.87,-88.42 167.69,-79.57 157.62,-82.86 161.87,-88.42"/>
</g>
<!-- Node23 -->
<g id="node23" class="node">
<title>Node23</title>
<g id="a_node23"><a xlink:href="classpycanha_1_1gmm_1_1TriMesh.html#a7f0a8a501de5c2d065f71e164b956b39" target="_top" xlink:title="Sort the triangles according to the face ids.">
<polygon fill="none" stroke="black" points="156,-0.5 156,-30.5 289,-30.5 289,-0.5 156,-0.5"/>
<text text-anchor="start" x="164" y="-18.5" font-family="Helvetica,sans-Serif" font-size="10.00">pycanha::gmm::TriMesh</text>
<text text-anchor="middle" x="222.5" y="-7.5" font-family="Helvetica,sans-Serif" font-size="10.00">::sort_triangles</text>
</a>
</g>
</g>
<!-- Node1&#45;&gt;Node23 -->
<g id="edge22" class="edge">
<title>Node1&#45;&gt;Node23</title>
<path fill="none" stroke="midnightblue" d="M62.02,-514.01C67.22,-439.14 93.12,-115.31 156,-40.5 157,-39.31 158.07,-38.17 159.19,-37.09"/>
<polygon fill="midnightblue" stroke="midnightblue" points="161.61,-39.64 167.3,-30.7 157.28,-34.14 161.61,-39.64"/>
</g>
</g>
</svg>
