<?xml version="1.0" encoding="UTF-8" standalone="no"?>
<!DOCTYPE svg PUBLIC "-//W3C//DTD SVG 1.1//EN"
 "http://www.w3.org/Graphics/SVG/1.1/DTD/svg11.dtd">
<!-- Generated by graphviz version 2.43.0 (0)
 -->
<!-- Title: pycanha::Solver::FormulaExecutionGuard Pages: 1 -->
<svg width="897pt" height="135pt"
 viewBox="0.00 0.00 897.00 134.50" xmlns="http://www.w3.org/2000/svg" xmlns:xlink="http://www.w3.org/1999/xlink">
<g id="graph0" class="graph" transform="scale(1 1) rotate(0) translate(4 130.5)">
<title>pycanha::Solver::FormulaExecutionGuard</title>
<!-- Node1 -->
<g id="Node000001" class="node">
<title>Node1</title>
<g id="a_Node000001"><a xlink:title=" ">
<polygon fill="#999999" stroke="#666666" points="658,-30 518,-30 518,0 658,0 658,-30"/>
<text text-anchor="start" x="526" y="-18" font-family="Helvetica,sans-Serif" font-size="10.00">pycanha::Solver::Formula</text>
<text text-anchor="middle" x="588" y="-7" font-family="Helvetica,sans-Serif" font-size="10.00">ExecutionGuard</text>
</a>
</g>
</g>
<!-- Node2 -->
<g id="Node000002" class="node">
<title>Node2</title>
<g id="a_Node000002"><a xlink:href="classpycanha_1_1Solver.html" target="_top" xlink:title=" ">
<polygon fill="white" stroke="#bfbfbf" points="322,-58.5 227,-58.5 227,-39.5 322,-39.5 322,-58.5"/>
<text text-anchor="middle" x="274.5" y="-46.5" font-family="Helvetica,sans-Serif" font-size="10.00">pycanha::Solver</text>
</a>
</g>
</g>
<!-- Node2&#45;&gt;Node1 -->
<g id="edge1_Node000001_Node000002" class="edge">
<title>Node2&#45;&gt;Node1</title>
<g id="a_edge1_Node000001_Node000002"><a xlink:title=" ">
<path fill="none" stroke="#9a32cd" stroke-dasharray="5,2" d="M303.39,-35.11C319.5,-27.86 340.4,-19.74 360,-16 412.26,-6.04 472.53,-6.3 517.83,-8.78"/>
<polygon fill="#9a32cd" stroke="#9a32cd" points="301.62,-32.07 294.03,-39.46 304.58,-38.42 301.62,-32.07"/>
</a>
</g>
<text text-anchor="middle" x="422" y="-19" font-family="Helvetica,sans-Serif" font-size="10.00" fill="grey"> _solver</text>
</g>
<!-- Node3 -->
<g id="Node000003" class="node">
<title>Node3</title>
<g id="a_Node000003"><a xlink:href="classpycanha_1_1ThermalMathematicalModel.html" target="_top" xlink:title=" ">
<polygon fill="white" stroke="#bfbfbf" points="674,-98 502,-98 502,-68 674,-68 674,-98"/>
<text text-anchor="start" x="510" y="-86" font-family="Helvetica,sans-Serif" font-size="10.00">pycanha::ThermalMathematical</text>
<text text-anchor="middle" x="588" y="-75" font-family="Helvetica,sans-Serif" font-size="10.00">Model</text>
</a>
</g>
</g>
<!-- Node2&#45;&gt;Node3 -->
<g id="edge4_Node000003_Node000002" class="edge">
<title>Node2&#45;&gt;Node3</title>
<g id="a_edge4_Node000003_Node000002"><a xlink:title=" ">
<path fill="none" stroke="#9a32cd" stroke-dasharray="5,2" d="M332.29,-57.42C341.54,-58.69 351.03,-59.93 360,-61 406.78,-66.59 459.12,-71.73 501.75,-75.64"/>
<polygon fill="#9a32cd" stroke="#9a32cd" points="332.77,-53.95 322.38,-56.04 331.8,-60.88 332.77,-53.95"/>
</a>
</g>
<text text-anchor="middle" x="422" y="-76" font-family="Helvetica,sans-Serif" font-size="10.00" fill="grey"> _current_callback_solver</text>
</g>
<!-- Node3&#45;&gt;Node2 -->
<g id="edge2_Node000002_Node000003" class="edge">
<title>Node3&#45;&gt;Node2</title>
<g id="a_edge2_Node000002_Node000003"><a xlink:title=" ">
<path fill="none" stroke="#9a32cd" stroke-dasharray="5,2" d="M539.69,-64.51C522.44,-58.66 502.6,-52.95 484,-50 428.94,-41.26 364.68,-42.67 322.2,-45.19"/>
<polygon fill="#9a32cd" stroke="#9a32cd" points="538.93,-67.95 549.52,-67.95 541.24,-61.34 538.93,-67.95"/>
</a>
</g>
<text text-anchor="middle" x="422" y="-53" font-family="Helvetica,sans-Serif" font-size="10.00" fill="grey"> tmm</text>
</g>
<!-- Node5 -->
<g id="Node000005" class="node">
<title>Node5</title>
<g id="a_Node000005"><a xlink:href="classpycanha_1_1EntitiesHelper.html" target="_top" xlink:title=" ">
<polygon fill="white" stroke="#bfbfbf" points="889,-92.5 756,-92.5 756,-73.5 889,-73.5 889,-92.5"/>
<text text-anchor="middle" x="822.5" y="-80.5" font-family="Helvetica,sans-Serif" font-size="10.00">pycanha::EntitiesHelper</text>
</a>
</g>
</g>
<!-- Node3&#45;&gt;Node5 -->
<g id="edge6_Node000005_Node000003" class="edge">
<title>Node3&#45;&gt;Node5</title>
<g id="a_edge6_Node000005_Node000003"><a xlink:title=" ">
<path fill="none" stroke="#9a32cd" stroke-dasharray="5,2" d="M684.46,-83C708.49,-83 733.74,-83 755.92,-83"/>
<polygon fill="#9a32cd" stroke="#9a32cd" points="684.25,-79.5 674.25,-83 684.25,-86.5 684.25,-79.5"/>
</a>
</g>
<text text-anchor="middle" x="715" y="-86" font-family="Helvetica,sans-Serif" font-size="10.00" fill="grey"> _tmm</text>
</g>
<!-- Node4 -->
<g id="Node000004" class="node">
<title>Node4</title>
<g id="a_Node000004"><a xlink:href="classpycanha_1_1SolverRegistry.html" target="_top" xlink:title=" ">
<polygon fill="white" stroke="#bfbfbf" points="342,-126.5 207,-126.5 207,-107.5 342,-107.5 342,-126.5"/>
<text text-anchor="middle" x="274.5" y="-114.5" font-family="Helvetica,sans-Serif" font-size="10.00">pycanha::SolverRegistry</text>
</a>
</g>
</g>
<!-- Node4&#45;&gt;Node3 -->
<g id="edge3_Node000003_Node000004" class="edge">
<title>Node4&#45;&gt;Node3</title>
<g id="a_edge3_Node000003_Node000004"><a xlink:title=" ">
<path fill="none" stroke="#9a32cd" stroke-dasharray="5,2" d="M352.25,-109.1C391.65,-105 440.4,-99.84 484,-95 489.82,-94.35 495.81,-93.68 501.86,-92.99"/>
<polygon fill="#9a32cd" stroke="#9a32cd" points="351.77,-105.63 342.19,-110.15 352.5,-112.6 351.77,-105.63"/>
</a>
</g>
<text text-anchor="middle" x="422" y="-111" font-family="Helvetica,sans-Serif" font-size="10.00" fill="grey"> _solvers</text>
</g>
<!-- Node5&#45;&gt;Node3 -->
<g id="edge5_Node000003_Node000005" class="edge">
<title>Node5&#45;&gt;Node3</title>
<g id="a_edge5_Node000003_Node000005"><a xlink:title=" ">
<path fill="none" stroke="#9a32cd" stroke-dasharray="5,2" d="M770.16,-71.58C759.57,-69.67 748.47,-67.99 738,-67 717.02,-65.01 694.4,-65.88 673.28,-68"/>
<polygon fill="#9a32cd" stroke="#9a32cd" points="769.62,-75.04 780.1,-73.46 770.93,-68.16 769.62,-75.04"/>
</a>
</g>
<text text-anchor="middle" x="715" y="-70" font-family="Helvetica,sans-Serif" font-size="10.00" fill="grey"> _entities</text>
</g>
<!-- Node6 -->
<g id="Node000006" class="node">
<title>Node6</title>
<g id="a_Node000006"><a xlink:href="classpycanha_1_1ThermalNetwork.html" target="_top" xlink:title=" ">
<polygon fill="white" stroke="#bfbfbf" points="147.5,-81.5 1.5,-81.5 1.5,-62.5 147.5,-62.5 147.5,-81.5"/>
<text text-anchor="middle" x="74.5" y="-69.5" font-family="Helvetica,sans-Serif" font-size="10.00">pycanha::ThermalNetwork</text>
</a>
</g>
</g>
<!-- Node6&#45;&gt;Node2 -->
<g id="edge7_Node000002_Node000006" class="edge">
<title>Node6&#45;&gt;Node2</title>
<g id="a_edge7_Node000002_Node000006"><a xlink:title=" ">
<path fill="none" stroke="#9a32cd" stroke-dasharray="5,2" d="M157.57,-62.47C181.18,-59.72 206.12,-56.83 226.8,-54.43"/>
<polygon fill="#9a32cd" stroke="#9a32cd" points="157.07,-59 147.54,-63.63 157.88,-65.95 157.07,-59"/>
</a>
</g>
<text text-anchor="middle" x="178" y="-64" font-family="Helvetica,sans-Serif" font-size="10.00" fill="grey"> tnw</text>
</g>
<!-- Node7 -->
<g id="Node000007" class="node">
<title>Node7</title>
<g id="a_Node000007"><a xlink:href="classpycanha_1_1CouplingMatrices.html" target="_top" xlink:title=" ">
<polygon fill="white" stroke="#bfbfbf" points="149,-36.5 0,-36.5 0,-17.5 149,-17.5 149,-36.5"/>
<text text-anchor="middle" x="74.5" y="-24.5" font-family="Helvetica,sans-Serif" font-size="10.00">pycanha::CouplingMatrices</text>
</a>
</g>
</g>
<!-- Node7&#45;&gt;Node2 -->
<g id="edge8_Node000002_Node000007" class="edge">
<title>Node7&#45;&gt;Node2</title>
<g id="a_edge8_Node000002_Node000007"><a xlink:title=" ">
<path fill="none" stroke="#9a32cd" stroke-dasharray="5,2" d="M159.25,-25.52C169.3,-25.99 179.4,-26.78 189,-28 207,-30.28 226.69,-35.04 242.53,-39.45"/>
<polygon fill="#9a32cd" stroke="#9a32cd" points="159.37,-22.02 149.24,-25.14 159.1,-29.01 159.37,-22.02"/>
</a>
</g>
<text text-anchor="middle" x="178" y="-42" font-family="Helvetica,sans-Serif" font-size="10.00" fill="grey"> ltcs</text>
<text text-anchor="middle" x="178" y="-31" font-family="Helvetica,sans-Serif" font-size="10.00" fill="grey">rtcs</text>
</g>
</g>
</svg>
