<?xml version="1.0" encoding="UTF-8" standalone="no"?>
<!DOCTYPE svg PUBLIC "-//W3C//DTD SVG 1.1//EN"
 "http://www.w3.org/Graphics/SVG/1.1/DTD/svg11.dtd">
<!-- Generated by graphviz version 2.43.0 (0)
 -->
<!-- Title: pycanha::EntitiesHelper Pages: 1 -->
<svg width="571pt" height="181pt"
 viewBox="0.00 0.00 571.00 181.00" xmlns="http://www.w3.org/2000/svg" xmlns:xlink="http://www.w3.org/1999/xlink">
<g id="graph0" class="graph" transform="scale(1 1) rotate(0) translate(4 177)">
<title>pycanha::EntitiesHelper</title>
<!-- Node1 -->
<g id="Node000001" class="node">
<title>Node1</title>
<g id="a_Node000001"><a xlink:title=" ">
<polygon fill="#999999" stroke="#666666" points="133,-173 0,-173 0,-154 133,-154 133,-173"/>
<text text-anchor="middle" x="66.5" y="-161" font-family="Helvetica,sans-Serif" font-size="10.00">pycanha::EntitiesHelper</text>
</a>
</g>
</g>
<!-- Node2 -->
<g id="Node000002" class="node">
<title>Node2</title>
<g id="a_Node000002"><a xlink:href="classpycanha_1_1ThermalMathematicalModel.html" target="_top" xlink:title=" ">
<polygon fill="white" stroke="#bfbfbf" points="221.5,-107 49.5,-107 49.5,-77 221.5,-77 221.5,-107"/>
<text text-anchor="start" x="57.5" y="-95" font-family="Helvetica,sans-Serif" font-size="10.00">pycanha::ThermalMathematical</text>
<text text-anchor="middle" x="135.5" y="-84" font-family="Helvetica,sans-Serif" font-size="10.00">Model</text>
</a>
</g>
</g>
<!-- Node1&#45;&gt;Node2 -->
<g id="edge7_Node000002_Node000001" class="edge">
<title>Node1&#45;&gt;Node2</title>
<g id="a_edge7_Node000002_Node000001"><a xlink:title=" ">
<path fill="none" stroke="#9a32cd" stroke-dasharray="5,2" d="M60.55,-143.78C59.62,-137.39 59.94,-130.47 63.5,-125 68.49,-117.32 75.81,-111.46 83.88,-107.01"/>
<polygon fill="#9a32cd" stroke="#9a32cd" points="57.2,-144.81 62.94,-153.71 64,-143.17 57.2,-144.81"/>
</a>
</g>
<text text-anchor="middle" x="86.5" y="-128" font-family="Helvetica,sans-Serif" font-size="10.00" fill="grey"> _entities</text>
</g>
<!-- Node2&#45;&gt;Node1 -->
<g id="edge1_Node000001_Node000002" class="edge">
<title>Node2&#45;&gt;Node1</title>
<g id="a_edge1_Node000001_Node000002"><a xlink:title=" ">
<path fill="none" stroke="#9a32cd" stroke-dasharray="5,2" d="M126.49,-116.62C123.13,-123.41 118.81,-130.47 113.5,-136 106.23,-143.57 96.33,-149.59 87.49,-153.96"/>
<polygon fill="#9a32cd" stroke="#9a32cd" points="129.88,-117.62 130.74,-107.06 123.48,-114.78 129.88,-117.62"/>
</a>
</g>
<text text-anchor="middle" x="136.5" y="-128" font-family="Helvetica,sans-Serif" font-size="10.00" fill="grey"> _tmm</text>
</g>
<!-- Node4 -->
<g id="Node000004" class="node">
<title>Node4</title>
<g id="a_Node000004"><a xlink:href="classpycanha_1_1Solver.html" target="_top" xlink:title=" ">
<polygon fill="white" stroke="#bfbfbf" points="296,-19 201,-19 201,0 296,0 296,-19"/>
<text text-anchor="middle" x="248.5" y="-7" font-family="Helvetica,sans-Serif" font-size="10.00">pycanha::Solver</text>
</a>
</g>
</g>
<!-- Node2&#45;&gt;Node4 -->
<g id="edge4_Node000004_Node000002" class="edge">
<title>Node2&#45;&gt;Node4</title>
<g id="a_edge4_Node000004_Node000002"><a xlink:title=" ">
<path fill="none" stroke="#9a32cd" stroke-dasharray="5,2" d="M122.12,-67.35C118.22,-57.08 116.63,-45.48 123.5,-37 133.28,-24.93 169.74,-18.14 200.78,-14.46"/>
<polygon fill="#9a32cd" stroke="#9a32cd" points="119.03,-69 126.37,-76.65 125.4,-66.1 119.03,-69"/>
</a>
</g>
<text text-anchor="middle" x="137" y="-45.5" font-family="Helvetica,sans-Serif" font-size="10.00" fill="grey"> tmm</text>
</g>
<!-- Node3 -->
<g id="Node000003" class="node">
<title>Node3</title>
<g id="a_Node000003"><a xlink:href="classpycanha_1_1SolverRegistry.html" target="_top" xlink:title=" ">
<polygon fill="white" stroke="#bfbfbf" points="286,-173 151,-173 151,-154 286,-154 286,-173"/>
<text text-anchor="middle" x="218.5" y="-161" font-family="Helvetica,sans-Serif" font-size="10.00">pycanha::SolverRegistry</text>
</a>
</g>
</g>
<!-- Node3&#45;&gt;Node2 -->
<g id="edge2_Node000002_Node000003" class="edge">
<title>Node3&#45;&gt;Node2</title>
<g id="a_edge2_Node000002_Node000003"><a xlink:title=" ">
<path fill="none" stroke="#9a32cd" stroke-dasharray="5,2" d="M200.64,-147.54C186.34,-135.57 166.42,-118.89 152.38,-107.14"/>
<polygon fill="#9a32cd" stroke="#9a32cd" points="198.41,-150.24 208.32,-153.98 202.9,-144.87 198.41,-150.24"/>
</a>
</g>
<text text-anchor="middle" x="205.5" y="-128" font-family="Helvetica,sans-Serif" font-size="10.00" fill="grey"> _solvers</text>
</g>
<!-- Node4&#45;&gt;Node2 -->
<g id="edge3_Node000002_Node000004" class="edge">
<title>Node4&#45;&gt;Node2</title>
<g id="a_edge3_Node000002_Node000004"><a xlink:title=" ">
<path fill="none" stroke="#9a32cd" stroke-dasharray="5,2" d="M199.54,-22.42C190,-26.12 180.49,-30.89 172.5,-37 165.19,-42.59 152.31,-62.73 143.84,-76.77"/>
<polygon fill="#9a32cd" stroke="#9a32cd" points="200.77,-25.7 209.03,-19.07 198.44,-19.1 200.77,-25.7"/>
</a>
</g>
<text text-anchor="middle" x="234.5" y="-45.5" font-family="Helvetica,sans-Serif" font-size="10.00" fill="grey"> _current_callback_solver</text>
</g>
<!-- Node5 -->
<g id="Node000005" class="node">
<title>Node5</title>
<g id="a_Node000005"><a xlink:href="classpycanha_1_1ThermalNetwork.html" target="_top" xlink:title=" ">
<polygon fill="white" stroke="#bfbfbf" points="395.5,-101.5 249.5,-101.5 249.5,-82.5 395.5,-82.5 395.5,-101.5"/>
<text text-anchor="middle" x="322.5" y="-89.5" font-family="Helvetica,sans-Serif" font-size="10.00">pycanha::ThermalNetwork</text>
</a>
</g>
</g>
<!-- Node5&#45;&gt;Node4 -->
<g id="edge5_Node000004_Node000005" class="edge">
<title>Node5&#45;&gt;Node4</title>
<g id="a_edge5_Node000004_Node000005"><a xlink:title=" ">
<path fill="none" stroke="#9a32cd" stroke-dasharray="5,2" d="M318.48,-72.54C315.22,-61.18 309.64,-46.94 300.5,-37 293.3,-29.17 283.26,-23.3 273.92,-19.11"/>
<polygon fill="#9a32cd" stroke="#9a32cd" points="315.1,-73.47 320.93,-82.32 321.89,-71.77 315.1,-73.47"/>
</a>
</g>
<text text-anchor="middle" x="324.5" y="-45.5" font-family="Helvetica,sans-Serif" font-size="10.00" fill="grey"> tnw</text>
</g>
<!-- Node6 -->
<g id="Node000006" class="node">
<title>Node6</title>
<g id="a_Node000006"><a xlink:href="classpycanha_1_1CouplingMatrices.html" target="_top" xlink:title=" ">
<polygon fill="white" stroke="#bfbfbf" points="563,-101.5 414,-101.5 414,-82.5 563,-82.5 563,-101.5"/>
<text text-anchor="middle" x="488.5" y="-89.5" font-family="Helvetica,sans-Serif" font-size="10.00">pycanha::CouplingMatrices</text>
</a>
</g>
</g>
<!-- Node6&#45;&gt;Node4 -->
<g id="edge6_Node000004_Node000006" class="edge">
<title>Node6&#45;&gt;Node4</title>
<g id="a_edge6_Node000004_Node000006"><a xlink:title=" ">
<path fill="none" stroke="#9a32cd" stroke-dasharray="5,2" d="M456.66,-78.79C426.64,-67.43 380.27,-50.31 339.5,-37 319.79,-30.57 297.44,-24.05 279.82,-19.08"/>
<polygon fill="#9a32cd" stroke="#9a32cd" points="455.6,-82.13 466.19,-82.41 458.08,-75.58 455.6,-82.13"/>
</a>
</g>
<text text-anchor="middle" x="411" y="-51" font-family="Helvetica,sans-Serif" font-size="10.00" fill="grey"> ltcs</text>
<text text-anchor="middle" x="411" y="-40" font-family="Helvetica,sans-Serif" font-size="10.00" fill="grey">rtcs</text>
</g>
</g>
</svg>
