<?xml version="1.0" encoding="UTF-8" standalone="no"?>
<!DOCTYPE svg PUBLIC "-//W3C//DTD SVG 1.1//EN"
 "http://www.w3.org/Graphics/SVG/1.1/DTD/svg11.dtd">
<!-- Generated by graphviz version 2.43.0 (0)
 -->
<!-- Title: pycanha::gmm::GeometryGroup::iterate_all_geometry_meshed_items Pages: 1 -->
<svg width="654pt" height="38pt"
 viewBox="0.00 0.00 654.00 38.00" xmlns="http://www.w3.org/2000/svg" xmlns:xlink="http://www.w3.org/1999/xlink">
<g id="graph0" class="graph" transform="scale(1 1) rotate(0) translate(4 34)">
<title>pycanha::gmm::GeometryGroup::iterate_all_geometry_meshed_items</title>
<!-- Node1 -->
<g id="Node000001" class="node">
<title>Node1</title>
<g id="a_Node000001"><a xlink:title="Recursively iterates over all GeometryMeshedItem in the GeometryGroup. Does NOT skip GeometryGroupCut...">
<polygon fill="#999999" stroke="#666666" points="202,-30 0,-30 0,0 202,0 202,-30"/>
<text text-anchor="start" x="8" y="-18" font-family="Helvetica,sans-Serif" font-size="10.00">pycanha::gmm::GeometryGroup</text>
<text text-anchor="middle" x="101" y="-7" font-family="Helvetica,sans-Serif" font-size="10.00">::iterate_all_geometry_meshed_items</text>
</a>
</g>
</g>
<!-- Node2 -->
<g id="Node000002" class="node">
<title>Node2</title>
<g id="a_Node000002"><a xlink:href="classpycanha_1_1gmm_1_1CoordinateTransformation.html#a2223d8c13985136ad110d1cb4126f9d9" target="_top" xlink:title="Creates a new transformation equivalent to applying other and then this.">
<polygon fill="white" stroke="#666666" points="387,-30 238,-30 238,0 387,0 387,-30"/>
<text text-anchor="start" x="246" y="-18" font-family="Helvetica,sans-Serif" font-size="10.00">pycanha::gmm::Coordinate</text>
<text text-anchor="middle" x="312.5" y="-7" font-family="Helvetica,sans-Serif" font-size="10.00">Transformation::chain</text>
</a>
</g>
</g>
<!-- Node1&#45;&gt;Node2 -->
<g id="edge1_Node000001_Node000002" class="edge">
<title>Node1&#45;&gt;Node2</title>
<g id="a_edge1_Node000001_Node000002"><a xlink:title=" ">
<path fill="none" stroke="#63b8ff" d="M202.15,-15C210.67,-15 219.24,-15 227.62,-15"/>
<polygon fill="#63b8ff" stroke="#63b8ff" points="227.74,-18.5 237.74,-15 227.74,-11.5 227.74,-18.5"/>
</a>
</g>
</g>
<!-- Node3 -->
<g id="Node000003" class="node">
<title>Node3</title>
<g id="a_Node000003"><a xlink:href="classpycanha_1_1gmm_1_1CoordinateTransformation.html#adb564610750eb3d80d29e8a4de0d7aae" target="_top" xlink:title="Default constructor for CoordinateTransformation class.">
<polygon fill="white" stroke="#666666" points="646,-30 423,-30 423,0 646,0 646,-30"/>
<text text-anchor="start" x="431" y="-18" font-family="Helvetica,sans-Serif" font-size="10.00">pycanha::gmm::Coordinate</text>
<text text-anchor="middle" x="534.5" y="-7" font-family="Helvetica,sans-Serif" font-size="10.00">Transformation::CoordinateTransformation</text>
</a>
</g>
</g>
<!-- Node2&#45;&gt;Node3 -->
<g id="edge2_Node000002_Node000003" class="edge">
<title>Node2&#45;&gt;Node3</title>
<g id="a_edge2_Node000002_Node000003"><a xlink:title=" ">
<path fill="none" stroke="#63b8ff" d="M387.06,-15C395.32,-15 403.89,-15 412.55,-15"/>
<polygon fill="#63b8ff" stroke="#63b8ff" points="412.75,-18.5 422.75,-15 412.75,-11.5 412.75,-18.5"/>
</a>
</g>
</g>
</g>
</svg>
