<?xml version="1.0" encoding="UTF-8" standalone="no"?>
<!DOCTYPE svg PUBLIC "-//W3C//DTD SVG 1.1//EN"
 "http://www.w3.org/Graphics/SVG/1.1/DTD/svg11.dtd">
<!-- Generated by graphviz version 2.43.0 (0)
 -->
<!-- Title: pycanha::gmm::Disc::from_2d_to_3d Pages: 1 -->
<svg width="464pt" height="52pt"
 viewBox="0.00 0.00 464.00 51.50" xmlns="http://www.w3.org/2000/svg" xmlns:xlink="http://www.w3.org/1999/xlink">
<g id="graph0" class="graph" transform="scale(1 1) rotate(0) translate(4 47.5)">
<title>pycanha::gmm::Disc::from_2d_to_3d</title>
<!-- Node1 -->
<g id="Node000001" class="node">
<title>Node1</title>
<g id="a_Node000001"><a xlink:title="3D coordinates of a point ON the primitive surface from 2D coordinates. Note: The method is not valid...">
<polygon fill="#999999" stroke="#666666" points="116,-43.5 0,-43.5 0,-13.5 116,-13.5 116,-43.5"/>
<text text-anchor="start" x="8" y="-31.5" font-family="Helvetica,sans-Serif" font-size="10.00">pycanha::gmm::Disc</text>
<text text-anchor="middle" x="58" y="-20.5" font-family="Helvetica,sans-Serif" font-size="10.00">::from_2d_to_3d</text>
</a>
</g>
</g>
<!-- Node2 -->
<g id="Node000002" class="node">
<title>Node2</title>
<g id="a_Node000002"><a xlink:href="classpycanha_1_1gmm_1_1Disc.html#a517c77be943d5862ac5bb77ceaf91e78" target="_top" xlink:title="Returns the first direction v1 = p2 &#45; p1.">
<polygon fill="white" stroke="#666666" points="456,-38 322,-38 322,-19 456,-19 456,-38"/>
<text text-anchor="middle" x="389" y="-26" font-family="Helvetica,sans-Serif" font-size="10.00">pycanha::gmm::Disc::v1</text>
</a>
</g>
</g>
<!-- Node1&#45;&gt;Node2 -->
<g id="edge1_Node000001_Node000002" class="edge">
<title>Node1&#45;&gt;Node2</title>
<g id="a_edge1_Node000001_Node000002"><a xlink:title=" ">
<path fill="none" stroke="#63b8ff" d="M116.31,-28.5C170.43,-28.5 251.98,-28.5 311.61,-28.5"/>
<polygon fill="#63b8ff" stroke="#63b8ff" points="311.73,-32 321.73,-28.5 311.73,-25 311.73,-32"/>
</a>
</g>
</g>
<!-- Node3 -->
<g id="Node000003" class="node">
<title>Node3</title>
<g id="a_Node000003"><a xlink:href="classpycanha_1_1gmm_1_1Disc.html#ac73c900dbe32b0e7437d9d8d787696b2" target="_top" xlink:title="Returns the second direction v2 = p3 &#45; p2.">
<polygon fill="white" stroke="#666666" points="286,-19 152,-19 152,0 286,0 286,-19"/>
<text text-anchor="middle" x="219" y="-7" font-family="Helvetica,sans-Serif" font-size="10.00">pycanha::gmm::Disc::v2</text>
</a>
</g>
</g>
<!-- Node1&#45;&gt;Node3 -->
<g id="edge2_Node000001_Node000003" class="edge">
<title>Node1&#45;&gt;Node3</title>
<g id="a_edge2_Node000001_Node000003"><a xlink:title=" ">
<path fill="none" stroke="#63b8ff" d="M116.4,-21.64C124.65,-20.66 133.24,-19.63 141.78,-18.61"/>
<polygon fill="#63b8ff" stroke="#63b8ff" points="142.25,-22.08 151.76,-17.41 141.42,-15.13 142.25,-22.08"/>
</a>
</g>
</g>
<!-- Node3&#45;&gt;Node2 -->
<g id="edge3_Node000003_Node000002" class="edge">
<title>Node3&#45;&gt;Node2</title>
<g id="a_edge3_Node000003_Node000002"><a xlink:title=" ">
<path fill="none" stroke="#63b8ff" d="M286.4,-17.01C294.68,-17.95 303.2,-18.91 311.62,-19.86"/>
<polygon fill="#63b8ff" stroke="#63b8ff" points="311.48,-23.37 321.81,-21.01 312.27,-16.41 311.48,-23.37"/>
</a>
</g>
</g>
</g>
</svg>
