<?xml version="1.0" encoding="UTF-8" standalone="no"?>
<!DOCTYPE svg PUBLIC "-//W3C//DTD SVG 1.1//EN"
 "http://www.w3.org/Graphics/SVG/1.1/DTD/svg11.dtd">
<!-- Generated by graphviz version 2.43.0 (0)
 -->
<!-- Title: pycanha::Solver Pages: 1 -->
<svg width="897pt" height="101pt"
 viewBox="0.00 0.00 897.00 101.00" xmlns="http://www.w3.org/2000/svg" xmlns:xlink="http://www.w3.org/1999/xlink">
<g id="graph0" class="graph" transform="scale(1 1) rotate(0) translate(4 97)">
<title>pycanha::Solver</title>
<!-- Node1 -->
<g id="Node000001" class="node">
<title>Node1</title>
<g id="a_Node000001"><a xlink:title=" ">
<polygon fill="#999999" stroke="#666666" points="322,-41 227,-41 227,-22 322,-22 322,-41"/>
<text text-anchor="middle" x="274.5" y="-29" font-family="Helvetica,sans-Serif" font-size="10.00">pycanha::Solver</text>
</a>
</g>
</g>
<!-- Node2 -->
<g id="Node000002" class="node">
<title>Node2</title>
<g id="a_Node000002"><a xlink:href="classpycanha_1_1ThermalMathematicalModel.html" target="_top" xlink:title=" ">
<polygon fill="white" stroke="#bfbfbf" points="674,-64.5 502,-64.5 502,-34.5 674,-34.5 674,-64.5"/>
<text text-anchor="start" x="510" y="-52.5" font-family="Helvetica,sans-Serif" font-size="10.00">pycanha::ThermalMathematical</text>
<text text-anchor="middle" x="588" y="-41.5" font-family="Helvetica,sans-Serif" font-size="10.00">Model</text>
</a>
</g>
</g>
<!-- Node1&#45;&gt;Node2 -->
<g id="edge3_Node000002_Node000001" class="edge">
<title>Node1&#45;&gt;Node2</title>
<g id="a_edge3_Node000002_Node000001"><a xlink:title=" ">
<path fill="none" stroke="#9a32cd" stroke-dasharray="5,2" d="M332.21,-34.78C379.58,-37.51 447.84,-41.46 501.79,-44.58"/>
<polygon fill="#9a32cd" stroke="#9a32cd" points="332.32,-31.28 322.13,-34.19 331.92,-38.27 332.32,-31.28"/>
</a>
</g>
<text text-anchor="middle" x="422" y="-45.5" font-family="Helvetica,sans-Serif" font-size="10.00" fill="grey"> _current_callback_solver</text>
</g>
<!-- Node2&#45;&gt;Node1 -->
<g id="edge1_Node000001_Node000002" class="edge">
<title>Node2&#45;&gt;Node1</title>
<g id="a_edge1_Node000001_Node000002"><a xlink:title=" ">
<path fill="none" stroke="#9a32cd" stroke-dasharray="5,2" d="M539.7,-30.96C522.45,-25.1 502.61,-19.41 484,-16.5 429.55,-7.99 414.9,-11.67 360,-16.5 347.24,-17.62 333.51,-19.69 320.91,-21.93"/>
<polygon fill="#9a32cd" stroke="#9a32cd" points="538.93,-34.4 549.53,-34.4 541.25,-27.79 538.93,-34.4"/>
</a>
</g>
<text text-anchor="middle" x="422" y="-19.5" font-family="Helvetica,sans-Serif" font-size="10.00" fill="grey"> tmm</text>
</g>
<!-- Node4 -->
<g id="Node000004" class="node">
<title>Node4</title>
<g id="a_Node000004"><a xlink:href="classpycanha_1_1EntitiesHelper.html" target="_top" xlink:title=" ">
<polygon fill="white" stroke="#bfbfbf" points="889,-59 756,-59 756,-40 889,-40 889,-59"/>
<text text-anchor="middle" x="822.5" y="-47" font-family="Helvetica,sans-Serif" font-size="10.00">pycanha::EntitiesHelper</text>
</a>
</g>
</g>
<!-- Node2&#45;&gt;Node4 -->
<g id="edge5_Node000004_Node000002" class="edge">
<title>Node2&#45;&gt;Node4</title>
<g id="a_edge5_Node000004_Node000002"><a xlink:title=" ">
<path fill="none" stroke="#9a32cd" stroke-dasharray="5,2" d="M684.46,-49.5C708.49,-49.5 733.74,-49.5 755.92,-49.5"/>
<polygon fill="#9a32cd" stroke="#9a32cd" points="684.25,-46 674.25,-49.5 684.25,-53 684.25,-46"/>
</a>
</g>
<text text-anchor="middle" x="715" y="-52.5" font-family="Helvetica,sans-Serif" font-size="10.00" fill="grey"> _tmm</text>
</g>
<!-- Node3 -->
<g id="Node000003" class="node">
<title>Node3</title>
<g id="a_Node000003"><a xlink:href="classpycanha_1_1SolverRegistry.html" target="_top" xlink:title=" ">
<polygon fill="white" stroke="#bfbfbf" points="342,-93 207,-93 207,-74 342,-74 342,-93"/>
<text text-anchor="middle" x="274.5" y="-81" font-family="Helvetica,sans-Serif" font-size="10.00">pycanha::SolverRegistry</text>
</a>
</g>
</g>
<!-- Node3&#45;&gt;Node2 -->
<g id="edge2_Node000002_Node000003" class="edge">
<title>Node3&#45;&gt;Node2</title>
<g id="a_edge2_Node000002_Node000003"><a xlink:title=" ">
<path fill="none" stroke="#9a32cd" stroke-dasharray="5,2" d="M352.39,-75.11C397.73,-70.16 455.19,-63.89 501.89,-58.79"/>
<polygon fill="#9a32cd" stroke="#9a32cd" points="351.89,-71.64 342.32,-76.21 352.65,-78.6 351.89,-71.64"/>
</a>
</g>
<text text-anchor="middle" x="422" y="-75.5" font-family="Helvetica,sans-Serif" font-size="10.00" fill="grey"> _solvers</text>
</g>
<!-- Node4&#45;&gt;Node2 -->
<g id="edge4_Node000002_Node000004" class="edge">
<title>Node4&#45;&gt;Node2</title>
<g id="a_edge4_Node000002_Node000004"><a xlink:title=" ">
<path fill="none" stroke="#9a32cd" stroke-dasharray="5,2" d="M770.16,-38.08C759.57,-36.17 748.47,-34.49 738,-33.5 717.02,-31.51 694.4,-32.38 673.28,-34.5"/>
<polygon fill="#9a32cd" stroke="#9a32cd" points="769.62,-41.54 780.1,-39.96 770.93,-34.66 769.62,-41.54"/>
</a>
</g>
<text text-anchor="middle" x="715" y="-36.5" font-family="Helvetica,sans-Serif" font-size="10.00" fill="grey"> _entities</text>
</g>
<!-- Node5 -->
<g id="Node000005" class="node">
<title>Node5</title>
<g id="a_Node000005"><a xlink:href="classpycanha_1_1ThermalNetwork.html" target="_top" xlink:title=" ">
<polygon fill="white" stroke="#bfbfbf" points="147.5,-64 1.5,-64 1.5,-45 147.5,-45 147.5,-64"/>
<text text-anchor="middle" x="74.5" y="-52" font-family="Helvetica,sans-Serif" font-size="10.00">pycanha::ThermalNetwork</text>
</a>
</g>
</g>
<!-- Node5&#45;&gt;Node1 -->
<g id="edge6_Node000001_Node000005" class="edge">
<title>Node5&#45;&gt;Node1</title>
<g id="a_edge6_Node000001_Node000005"><a xlink:title=" ">
<path fill="none" stroke="#9a32cd" stroke-dasharray="5,2" d="M157.57,-44.97C181.18,-42.22 206.12,-39.33 226.8,-36.93"/>
<polygon fill="#9a32cd" stroke="#9a32cd" points="157.07,-41.5 147.54,-46.13 157.88,-48.45 157.07,-41.5"/>
</a>
</g>
<text text-anchor="middle" x="178" y="-46.5" font-family="Helvetica,sans-Serif" font-size="10.00" fill="grey"> tnw</text>
</g>
<!-- Node6 -->
<g id="Node000006" class="node">
<title>Node6</title>
<g id="a_Node000006"><a xlink:href="classpycanha_1_1CouplingMatrices.html" target="_top" xlink:title=" ">
<polygon fill="white" stroke="#bfbfbf" points="149,-19 0,-19 0,0 149,0 149,-19"/>
<text text-anchor="middle" x="74.5" y="-7" font-family="Helvetica,sans-Serif" font-size="10.00">pycanha::CouplingMatrices</text>
</a>
</g>
</g>
<!-- Node6&#45;&gt;Node1 -->
<g id="edge7_Node000001_Node000006" class="edge">
<title>Node6&#45;&gt;Node1</title>
<g id="a_edge7_Node000001_Node000006"><a xlink:title=" ">
<path fill="none" stroke="#9a32cd" stroke-dasharray="5,2" d="M159.25,-8.02C169.3,-8.49 179.4,-9.28 189,-10.5 207,-12.78 226.69,-17.54 242.53,-21.95"/>
<polygon fill="#9a32cd" stroke="#9a32cd" points="159.37,-4.52 149.24,-7.64 159.1,-11.51 159.37,-4.52"/>
</a>
</g>
<text text-anchor="middle" x="178" y="-24.5" font-family="Helvetica,sans-Serif" font-size="10.00" fill="grey"> ltcs</text>
<text text-anchor="middle" x="178" y="-13.5" font-family="Helvetica,sans-Serif" font-size="10.00" fill="grey">rtcs</text>
</g>
</g>
</svg>
