<?xml version="1.0" encoding="UTF-8" standalone="no"?>
<!DOCTYPE svg PUBLIC "-//W3C//DTD SVG 1.1//EN"
 "http://www.w3.org/Graphics/SVG/1.1/DTD/svg11.dtd">
<!-- Generated by graphviz version 2.43.0 (0)
 -->
<!-- Title: pycanha::gmm::GeometryModel Pages: 1 -->
<svg width="336pt" height="93pt"
 viewBox="0.00 0.00 336.00 93.00" xmlns="http://www.w3.org/2000/svg" xmlns:xlink="http://www.w3.org/1999/xlink">
<g id="graph0" class="graph" transform="scale(1 1) rotate(0) translate(4 89)">
<title>pycanha::gmm::GeometryModel</title>
<!-- Node1 -->
<g id="Node000001" class="node">
<title>Node1</title>
<g id="a_Node000001"><a xlink:title="Class representing a geometrical mathematical model.">
<polygon fill="#999999" stroke="#666666" points="243,-19 69,-19 69,0 243,0 243,-19"/>
<text text-anchor="middle" x="156" y="-7" font-family="Helvetica,sans-Serif" font-size="10.00">pycanha::gmm::GeometryModel</text>
</a>
</g>
</g>
<!-- Node2 -->
<g id="Node000002" class="node">
<title>Node2</title>
<g id="a_Node000002"><a xlink:href="classpycanha_1_1gmm_1_1UniqueID.html" target="_top" xlink:title="Provides a unique integer id.">
<polygon fill="white" stroke="#666666" points="140,-79.5 0,-79.5 0,-60.5 140,-60.5 140,-79.5"/>
<text text-anchor="middle" x="70" y="-67.5" font-family="Helvetica,sans-Serif" font-size="10.00">pycanha::gmm::UniqueID</text>
</a>
</g>
</g>
<!-- Node2&#45;&gt;Node1 -->
<g id="edge1_Node000001_Node000002" class="edge">
<title>Node2&#45;&gt;Node1</title>
<g id="a_edge1_Node000001_Node000002"><a xlink:title=" ">
<path fill="none" stroke="#63b8ff" d="M91.08,-54.66C107.42,-43.55 129.52,-28.51 143.26,-19.17"/>
<polygon fill="#63b8ff" stroke="#63b8ff" points="88.99,-51.85 82.69,-60.37 92.93,-57.64 88.99,-51.85"/>
</a>
</g>
</g>
<!-- Node3 -->
<g id="Node000003" class="node">
<title>Node3</title>
<g id="a_Node000003"><a xlink:title=" ">
<polygon fill="white" stroke="#bfbfbf" points="328,-85 158,-85 158,-55 328,-55 328,-85"/>
<text text-anchor="start" x="166" y="-73" font-family="Helvetica,sans-Serif" font-size="10.00">std::enable_shared</text>
<text text-anchor="middle" x="243" y="-62" font-family="Helvetica,sans-Serif" font-size="10.00">_from_this&lt; GeometryModel &gt;</text>
</a>
</g>
</g>
<!-- Node3&#45;&gt;Node1 -->
<g id="edge2_Node000001_Node000003" class="edge">
<title>Node3&#45;&gt;Node1</title>
<g id="a_edge2_Node000001_Node000003"><a xlink:title=" ">
<path fill="none" stroke="#63b8ff" d="M213.35,-49.06C198.16,-38.85 180.46,-26.95 168.78,-19.09"/>
<polygon fill="#63b8ff" stroke="#63b8ff" points="211.69,-52.16 221.94,-54.84 215.59,-46.35 211.69,-52.16"/>
</a>
</g>
</g>
</g>
</svg>
