<?xml version="1.0" encoding="UTF-8" standalone="no"?>
<!DOCTYPE svg PUBLIC "-//W3C//DTD SVG 1.1//EN"
 "http://www.w3.org/Graphics/SVG/1.1/DTD/svg11.dtd">
<!-- Generated by graphviz version 2.43.0 (0)
 -->
<!-- Title: pycanha::gmm::Triangle::distance_jacobian_cutted_surface Pages: 1 -->
<svg width="342pt" height="66pt"
 viewBox="0.00 0.00 342.00 66.00" xmlns="http://www.w3.org/2000/svg" xmlns:xlink="http://www.w3.org/1999/xlink">
<g id="graph0" class="graph" transform="scale(1 1) rotate(0) translate(4 62)">
<title>pycanha::gmm::Triangle::distance_jacobian_cutted_surface</title>
<!-- Node1 -->
<g id="node1" class="node">
<title>Node1</title>
<g id="a_node1"><a xlink:title="Calculates the minimum distance and the jacobian from a point to the extended surface....">
<polygon fill="#bfbfbf" stroke="black" points="0,-8.5 0,-49.5 146,-49.5 146,-8.5 0,-8.5"/>
<text text-anchor="start" x="8" y="-37.5" font-family="Helvetica,sans-Serif" font-size="10.00">pycanha::gmm::Triangle</text>
<text text-anchor="start" x="8" y="-26.5" font-family="Helvetica,sans-Serif" font-size="10.00">::distance_jacobian_cutted</text>
<text text-anchor="middle" x="73" y="-15.5" font-family="Helvetica,sans-Serif" font-size="10.00">_surface</text>
</a>
</g>
</g>
<!-- Node2 -->
<g id="node2" class="node">
<title>Node2</title>
<g id="a_node2"><a xlink:href="classpycanha_1_1gmm_1_1Triangle.html#af4f67a2841391839a57889d67443ef0c" target="_top" xlink:title="Returns the first direction v1 = p2 &#45; p1.">
<polygon fill="none" stroke="black" points="182,-38.5 182,-57.5 334,-57.5 334,-38.5 182,-38.5"/>
<text text-anchor="middle" x="258" y="-45.5" font-family="Helvetica,sans-Serif" font-size="10.00">pycanha::gmm::Triangle::v1</text>
</a>
</g>
</g>
<!-- Node1&#45;&gt;Node2 -->
<g id="edge1" class="edge">
<title>Node1&#45;&gt;Node2</title>
<path fill="none" stroke="midnightblue" d="M146.06,-36.48C154.55,-37.36 163.26,-38.27 171.9,-39.16"/>
<polygon fill="midnightblue" stroke="midnightblue" points="171.68,-42.66 181.99,-40.21 172.41,-35.7 171.68,-42.66"/>
</g>
<!-- Node3 -->
<g id="node3" class="node">
<title>Node3</title>
<g id="a_node3"><a xlink:href="classpycanha_1_1gmm_1_1Triangle.html#a113cd18f27bd12d15681af628524300c" target="_top" xlink:title="Returns the second direction v2 = p3 &#45; p2.">
<polygon fill="none" stroke="black" points="182,-0.5 182,-19.5 334,-19.5 334,-0.5 182,-0.5"/>
<text text-anchor="middle" x="258" y="-7.5" font-family="Helvetica,sans-Serif" font-size="10.00">pycanha::gmm::Triangle::v2</text>
</a>
</g>
</g>
<!-- Node1&#45;&gt;Node3 -->
<g id="edge2" class="edge">
<title>Node1&#45;&gt;Node3</title>
<path fill="none" stroke="midnightblue" d="M146.06,-21.52C154.55,-20.64 163.26,-19.73 171.9,-18.84"/>
<polygon fill="midnightblue" stroke="midnightblue" points="172.41,-22.3 181.99,-17.79 171.68,-15.34 172.41,-22.3"/>
</g>
</g>
</svg>
