<?xml version="1.0" encoding="UTF-8" standalone="no"?>
<!DOCTYPE svg PUBLIC "-//W3C//DTD SVG 1.1//EN"
 "http://www.w3.org/Graphics/SVG/1.1/DTD/svg11.dtd">
<!-- Generated by graphviz version 2.43.0 (0)
 -->
<!-- Title: pycanha::gmm::CoordinateTransformation::transform_trimesh Pages: 1 -->
<svg width="527pt" height="98pt"
 viewBox="0.00 0.00 527.00 97.50" xmlns="http://www.w3.org/2000/svg" xmlns:xlink="http://www.w3.org/1999/xlink">
<g id="graph0" class="graph" transform="scale(1 1) rotate(0) translate(4 93.5)">
<title>pycanha::gmm::CoordinateTransformation::transform_trimesh</title>
<!-- Node1 -->
<g id="Node000001" class="node">
<title>Node1</title>
<g id="a_Node000001"><a xlink:title="Transform trimesh.">
<polygon fill="#999999" stroke="#666666" points="149,-68 0,-68 0,-27 149,-27 149,-68"/>
<text text-anchor="start" x="8" y="-56" font-family="Helvetica,sans-Serif" font-size="10.00">pycanha::gmm::Coordinate</text>
<text text-anchor="start" x="8" y="-45" font-family="Helvetica,sans-Serif" font-size="10.00">Transformation::transform</text>
<text text-anchor="middle" x="74.5" y="-34" font-family="Helvetica,sans-Serif" font-size="10.00">_trimesh</text>
</a>
</g>
</g>
<!-- Node2 -->
<g id="Node000002" class="node">
<title>Node2</title>
<g id="a_Node000002"><a xlink:href="classpycanha_1_1gmm_1_1CoordinateTransformation.html#abd93075ef06eea44103105a272a29c40" target="_top" xlink:title="Transform trimesh inplace.">
<polygon fill="white" stroke="#666666" points="334,-68 185,-68 185,-27 334,-27 334,-68"/>
<text text-anchor="start" x="193" y="-56" font-family="Helvetica,sans-Serif" font-size="10.00">pycanha::gmm::Coordinate</text>
<text text-anchor="start" x="193" y="-45" font-family="Helvetica,sans-Serif" font-size="10.00">Transformation::transform</text>
<text text-anchor="middle" x="259.5" y="-34" font-family="Helvetica,sans-Serif" font-size="10.00">_trimesh_inplace</text>
</a>
</g>
</g>
<!-- Node1&#45;&gt;Node2 -->
<g id="edge1_Node000001_Node000002" class="edge">
<title>Node1&#45;&gt;Node2</title>
<g id="a_edge1_Node000001_Node000002"><a xlink:title=" ">
<path fill="none" stroke="#63b8ff" d="M149.14,-47.5C157.47,-47.5 166.01,-47.5 174.46,-47.5"/>
<polygon fill="#63b8ff" stroke="#63b8ff" points="174.71,-51 184.71,-47.5 174.71,-44 174.71,-51"/>
</a>
</g>
</g>
<!-- Node3 -->
<g id="Node000003" class="node">
<title>Node3</title>
<g id="a_Node000003"><a xlink:href="classpycanha_1_1gmm_1_1TriMesh.html#a4ed00ebc28ddc7ef836cabed7f9b1881" target="_top" xlink:title="Get vertices matrix.">
<polygon fill="white" stroke="#666666" points="511,-89.5 378,-89.5 378,-59.5 511,-59.5 511,-89.5"/>
<text text-anchor="start" x="386" y="-77.5" font-family="Helvetica,sans-Serif" font-size="10.00">pycanha::gmm::TriMesh</text>
<text text-anchor="middle" x="444.5" y="-66.5" font-family="Helvetica,sans-Serif" font-size="10.00">::get_vertices</text>
</a>
</g>
</g>
<!-- Node2&#45;&gt;Node3 -->
<g id="edge2_Node000002_Node000003" class="edge">
<title>Node2&#45;&gt;Node3</title>
<g id="a_edge2_Node000002_Node000003"><a xlink:title=" ">
<path fill="none" stroke="#63b8ff" d="M334.14,-58.37C345.24,-60 356.71,-61.7 367.85,-63.34"/>
<polygon fill="#63b8ff" stroke="#63b8ff" points="367.57,-66.84 377.98,-64.83 368.59,-59.91 367.57,-66.84"/>
</a>
</g>
</g>
<!-- Node4 -->
<g id="Node000004" class="node">
<title>Node4</title>
<g id="a_Node000004"><a xlink:href="classpycanha_1_1gmm_1_1CoordinateTransformation.html#a2e2c25f5f8672173950bf9c0878222c3" target="_top" xlink:title="Transform trimesh points inplace.">
<polygon fill="white" stroke="#666666" points="519,-41 370,-41 370,0 519,0 519,-41"/>
<text text-anchor="start" x="378" y="-29" font-family="Helvetica,sans-Serif" font-size="10.00">pycanha::gmm::Coordinate</text>
<text text-anchor="start" x="378" y="-18" font-family="Helvetica,sans-Serif" font-size="10.00">Transformation::transform</text>
<text text-anchor="middle" x="444.5" y="-7" font-family="Helvetica,sans-Serif" font-size="10.00">_point_list_inplace</text>
</a>
</g>
</g>
<!-- Node2&#45;&gt;Node4 -->
<g id="edge3_Node000002_Node000004" class="edge">
<title>Node2&#45;&gt;Node4</title>
<g id="a_edge3_Node000002_Node000004"><a xlink:title=" ">
<path fill="none" stroke="#63b8ff" d="M334.14,-36.63C342.57,-35.39 351.2,-34.12 359.74,-32.86"/>
<polygon fill="#63b8ff" stroke="#63b8ff" points="360.33,-36.31 369.71,-31.39 359.31,-29.38 360.33,-36.31"/>
</a>
</g>
</g>
</g>
</svg>
