<?xml version="1.0" encoding="UTF-8" standalone="no"?>
<!DOCTYPE svg PUBLIC "-//W3C//DTD SVG 1.1//EN"
 "http://www.w3.org/Graphics/SVG/1.1/DTD/svg11.dtd">
<!-- Generated by graphviz version 2.43.0 (0)
 -->
<!-- Title: pycanha::gmm::CoordinateTransformation::transform_trimesh_inplace Pages: 1 -->
<svg width="342pt" height="98pt"
 viewBox="0.00 0.00 342.00 97.50" xmlns="http://www.w3.org/2000/svg" xmlns:xlink="http://www.w3.org/1999/xlink">
<g id="graph0" class="graph" transform="scale(1 1) rotate(0) translate(4 93.5)">
<title>pycanha::gmm::CoordinateTransformation::transform_trimesh_inplace</title>
<!-- Node1 -->
<g id="Node000001" class="node">
<title>Node1</title>
<g id="a_Node000001"><a xlink:title="Transform trimesh inplace.">
<polygon fill="#999999" stroke="#666666" points="149,-68 0,-68 0,-27 149,-27 149,-68"/>
<text text-anchor="start" x="8" y="-56" font-family="Helvetica,sans-Serif" font-size="10.00">pycanha::gmm::Coordinate</text>
<text text-anchor="start" x="8" y="-45" font-family="Helvetica,sans-Serif" font-size="10.00">Transformation::transform</text>
<text text-anchor="middle" x="74.5" y="-34" font-family="Helvetica,sans-Serif" font-size="10.00">_trimesh_inplace</text>
</a>
</g>
</g>
<!-- Node2 -->
<g id="Node000002" class="node">
<title>Node2</title>
<g id="a_Node000002"><a xlink:href="classpycanha_1_1gmm_1_1TriMesh.html#a4ed00ebc28ddc7ef836cabed7f9b1881" target="_top" xlink:title="Get vertices matrix.">
<polygon fill="white" stroke="#666666" points="326,-89.5 193,-89.5 193,-59.5 326,-59.5 326,-89.5"/>
<text text-anchor="start" x="201" y="-77.5" font-family="Helvetica,sans-Serif" font-size="10.00">pycanha::gmm::TriMesh</text>
<text text-anchor="middle" x="259.5" y="-66.5" font-family="Helvetica,sans-Serif" font-size="10.00">::get_vertices</text>
</a>
</g>
</g>
<!-- Node1&#45;&gt;Node2 -->
<g id="edge1_Node000001_Node000002" class="edge">
<title>Node1&#45;&gt;Node2</title>
<g id="a_edge1_Node000001_Node000002"><a xlink:title=" ">
<path fill="none" stroke="#63b8ff" d="M149.14,-58.37C160.24,-60 171.71,-61.7 182.85,-63.34"/>
<polygon fill="#63b8ff" stroke="#63b8ff" points="182.57,-66.84 192.98,-64.83 183.59,-59.91 182.57,-66.84"/>
</a>
</g>
</g>
<!-- Node3 -->
<g id="Node000003" class="node">
<title>Node3</title>
<g id="a_Node000003"><a xlink:href="classpycanha_1_1gmm_1_1CoordinateTransformation.html#a2e2c25f5f8672173950bf9c0878222c3" target="_top" xlink:title="Transform trimesh points inplace.">
<polygon fill="white" stroke="#666666" points="334,-41 185,-41 185,0 334,0 334,-41"/>
<text text-anchor="start" x="193" y="-29" font-family="Helvetica,sans-Serif" font-size="10.00">pycanha::gmm::Coordinate</text>
<text text-anchor="start" x="193" y="-18" font-family="Helvetica,sans-Serif" font-size="10.00">Transformation::transform</text>
<text text-anchor="middle" x="259.5" y="-7" font-family="Helvetica,sans-Serif" font-size="10.00">_point_list_inplace</text>
</a>
</g>
</g>
<!-- Node1&#45;&gt;Node3 -->
<g id="edge2_Node000001_Node000003" class="edge">
<title>Node1&#45;&gt;Node3</title>
<g id="a_edge2_Node000001_Node000003"><a xlink:title=" ">
<path fill="none" stroke="#63b8ff" d="M149.14,-36.63C157.57,-35.39 166.2,-34.12 174.74,-32.86"/>
<polygon fill="#63b8ff" stroke="#63b8ff" points="175.33,-36.31 184.71,-31.39 174.31,-29.38 175.33,-36.31"/>
</a>
</g>
</g>
</g>
</svg>
