<?xml version="1.0" encoding="UTF-8" standalone="no"?>
<!DOCTYPE svg PUBLIC "-//W3C//DTD SVG 1.1//EN"
 "http://www.w3.org/Graphics/SVG/1.1/DTD/svg11.dtd">
<!-- Generated by graphviz version 2.43.0 (0)
 -->
<!-- Title: pycanha::gmm::CoordinateTransformation::transform_trimesh_inplace Pages: 1 -->
<svg width="342pt" height="100pt"
 viewBox="0.00 0.00 342.00 99.50" xmlns="http://www.w3.org/2000/svg" xmlns:xlink="http://www.w3.org/1999/xlink">
<g id="graph0" class="graph" transform="scale(1 1) rotate(0) translate(4 95.5)">
<title>pycanha::gmm::CoordinateTransformation::transform_trimesh_inplace</title>
<!-- Node1 -->
<g id="node1" class="node">
<title>Node1</title>
<g id="a_node1"><a xlink:title="Transform trimesh inplace.">
<polygon fill="#bfbfbf" stroke="black" points="0,-27.5 0,-68.5 149,-68.5 149,-27.5 0,-27.5"/>
<text text-anchor="start" x="8" y="-56.5" font-family="Helvetica,sans-Serif" font-size="10.00">pycanha::gmm::Coordinate</text>
<text text-anchor="start" x="8" y="-45.5" font-family="Helvetica,sans-Serif" font-size="10.00">Transformation::transform</text>
<text text-anchor="middle" x="74.5" y="-34.5" font-family="Helvetica,sans-Serif" font-size="10.00">_trimesh_inplace</text>
</a>
</g>
</g>
<!-- Node2 -->
<g id="node2" class="node">
<title>Node2</title>
<g id="a_node2"><a xlink:href="classpycanha_1_1gmm_1_1TriMesh.html#a5e7a2cc9ec97ba48a13277d2c391e928" target="_top" xlink:title="Get vertices matrix.">
<polygon fill="none" stroke="black" points="193,-61 193,-91 326,-91 326,-61 193,-61"/>
<text text-anchor="start" x="201" y="-79" font-family="Helvetica,sans-Serif" font-size="10.00">pycanha::gmm::TriMesh</text>
<text text-anchor="middle" x="259.5" y="-68" font-family="Helvetica,sans-Serif" font-size="10.00">::get_vertices</text>
</a>
</g>
</g>
<!-- Node1&#45;&gt;Node2 -->
<g id="edge1" class="edge">
<title>Node1&#45;&gt;Node2</title>
<path fill="none" stroke="midnightblue" d="M149.14,-59.27C160.24,-60.97 171.71,-62.72 182.85,-64.43"/>
<polygon fill="midnightblue" stroke="midnightblue" points="182.56,-67.92 192.98,-65.97 183.62,-61 182.56,-67.92"/>
</g>
<!-- Node3 -->
<g id="node3" class="node">
<title>Node3</title>
<g id="a_node3"><a xlink:href="classpycanha_1_1gmm_1_1CoordinateTransformation.html#a2e2c25f5f8672173950bf9c0878222c3" target="_top" xlink:title="Transform trimesh points inplace.">
<polygon fill="none" stroke="black" points="185,-0.5 185,-41.5 334,-41.5 334,-0.5 185,-0.5"/>
<text text-anchor="start" x="193" y="-29.5" font-family="Helvetica,sans-Serif" font-size="10.00">pycanha::gmm::Coordinate</text>
<text text-anchor="start" x="193" y="-18.5" font-family="Helvetica,sans-Serif" font-size="10.00">Transformation::transform</text>
<text text-anchor="middle" x="259.5" y="-7.5" font-family="Helvetica,sans-Serif" font-size="10.00">_point_list_inplace</text>
</a>
</g>
</g>
<!-- Node1&#45;&gt;Node3 -->
<g id="edge2" class="edge">
<title>Node1&#45;&gt;Node3</title>
<path fill="none" stroke="midnightblue" d="M149.14,-37.13C157.57,-35.89 166.2,-34.62 174.74,-33.36"/>
<polygon fill="midnightblue" stroke="midnightblue" points="175.33,-36.81 184.71,-31.89 174.31,-29.88 175.33,-36.81"/>
</g>
</g>
</svg>
