<?xml version="1.0" encoding="UTF-8" standalone="no"?>
<!DOCTYPE svg PUBLIC "-//W3C//DTD SVG 1.1//EN"
 "http://www.w3.org/Graphics/SVG/1.1/DTD/svg11.dtd">
<!-- Generated by graphviz version 2.43.0 (0)
 -->
<!-- Title: pycanha::CouplingEntity Pages: 1 -->
<svg width="340pt" height="148pt"
 viewBox="0.00 0.00 340.00 148.00" xmlns="http://www.w3.org/2000/svg" xmlns:xlink="http://www.w3.org/1999/xlink">
<g id="graph0" class="graph" transform="scale(1 1) rotate(0) translate(4 144)">
<title>pycanha::CouplingEntity</title>
<!-- Node1 -->
<g id="Node000001" class="node">
<title>Node1</title>
<g id="a_Node000001"><a xlink:title=" ">
<polygon fill="#999999" stroke="#666666" points="235,-85 100,-85 100,-66 235,-66 235,-85"/>
<text text-anchor="middle" x="167.5" y="-73" font-family="Helvetica,sans-Serif" font-size="10.00">pycanha::CouplingEntity</text>
</a>
</g>
</g>
<!-- Node3 -->
<g id="Node000003" class="node">
<title>Node3</title>
<g id="a_Node000003"><a xlink:href="classpycanha_1_1ConductiveCouplingEntity.html" target="_top" xlink:title=" ">
<polygon fill="white" stroke="#bfbfbf" points="161,-30 0,-30 0,0 161,0 161,-30"/>
<text text-anchor="start" x="8" y="-18" font-family="Helvetica,sans-Serif" font-size="10.00">pycanha::ConductiveCoupling</text>
<text text-anchor="middle" x="80.5" y="-7" font-family="Helvetica,sans-Serif" font-size="10.00">Entity</text>
</a>
</g>
</g>
<!-- Node1&#45;&gt;Node3 -->
<g id="edge2_Node000001_Node000003" class="edge">
<title>Node1&#45;&gt;Node3</title>
<g id="a_edge2_Node000001_Node000003"><a xlink:title=" ">
<path fill="none" stroke="#63b8ff" d="M145.98,-60.03C132.41,-50.9 114.96,-39.17 101.49,-30.11"/>
<polygon fill="#63b8ff" stroke="#63b8ff" points="144.41,-63.19 154.66,-65.87 148.32,-57.38 144.41,-63.19"/>
</a>
</g>
</g>
<!-- Node4 -->
<g id="Node000004" class="node">
<title>Node4</title>
<g id="a_Node000004"><a xlink:href="classpycanha_1_1RadiativeCouplingEntity.html" target="_top" xlink:title=" ">
<polygon fill="white" stroke="#bfbfbf" points="332,-30 179,-30 179,0 332,0 332,-30"/>
<text text-anchor="start" x="187" y="-18" font-family="Helvetica,sans-Serif" font-size="10.00">pycanha::RadiativeCoupling</text>
<text text-anchor="middle" x="255.5" y="-7" font-family="Helvetica,sans-Serif" font-size="10.00">Entity</text>
</a>
</g>
</g>
<!-- Node1&#45;&gt;Node4 -->
<g id="edge3_Node000001_Node000004" class="edge">
<title>Node1&#45;&gt;Node4</title>
<g id="a_edge3_Node000001_Node000004"><a xlink:title=" ">
<path fill="none" stroke="#63b8ff" d="M188.87,-60.29C202.66,-51.13 220.51,-39.26 234.27,-30.11"/>
<polygon fill="#63b8ff" stroke="#63b8ff" points="186.87,-57.42 180.48,-65.87 190.75,-63.25 186.87,-57.42"/>
</a>
</g>
</g>
<!-- Node2 -->
<g id="Node000002" class="node">
<title>Node2</title>
<g id="a_Node000002"><a xlink:href="classpycanha_1_1ThermalEntity.html" target="_top" xlink:title=" ">
<polygon fill="white" stroke="#bfbfbf" points="234,-140 101,-140 101,-121 234,-121 234,-140"/>
<text text-anchor="middle" x="167.5" y="-128" font-family="Helvetica,sans-Serif" font-size="10.00">pycanha::ThermalEntity</text>
</a>
</g>
</g>
<!-- Node2&#45;&gt;Node1 -->
<g id="edge1_Node000001_Node000002" class="edge">
<title>Node2&#45;&gt;Node1</title>
<g id="a_edge1_Node000001_Node000002"><a xlink:title=" ">
<path fill="none" stroke="#63b8ff" d="M167.5,-110.66C167.5,-101.93 167.5,-91.99 167.5,-85.09"/>
<polygon fill="#63b8ff" stroke="#63b8ff" points="164,-110.75 167.5,-120.75 171,-110.75 164,-110.75"/>
</a>
</g>
</g>
</g>
</svg>
