<?xml version="1.0" encoding="UTF-8" standalone="no"?>
<!DOCTYPE svg PUBLIC "-//W3C//DTD SVG 1.1//EN"
 "http://www.w3.org/Graphics/SVG/1.1/DTD/svg11.dtd">
<!-- Generated by graphviz version 2.43.0 (0)
 -->
<!-- Title: pycanha::Nodes::add_nodes Pages: 1 -->
<svg width="816pt" height="654pt"
 viewBox="0.00 0.00 816.00 653.50" xmlns="http://www.w3.org/2000/svg" xmlns:xlink="http://www.w3.org/1999/xlink">
<g id="graph0" class="graph" transform="scale(1 1) rotate(0) translate(4 649.5)">
<title>pycanha::Nodes::add_nodes</title>
<!-- Node1 -->
<g id="Node000001" class="node">
<title>Node1</title>
<g id="a_Node000001"><a xlink:title="Method to add a several nodes contained in a std::vector.">
<polygon fill="#999999" stroke="#666666" points="119,-343.5 0,-343.5 0,-313.5 119,-313.5 119,-343.5"/>
<text text-anchor="start" x="8" y="-331.5" font-family="Helvetica,sans-Serif" font-size="10.00">pycanha::Nodes::add</text>
<text text-anchor="middle" x="59.5" y="-320.5" font-family="Helvetica,sans-Serif" font-size="10.00">_nodes</text>
</a>
</g>
</g>
<!-- Node2 -->
<g id="Node000002" class="node">
<title>Node2</title>
<g id="a_Node000002"><a xlink:href="classpycanha_1_1Nodes.html#a9653a8fbd5e2f07eb29cf1c94d05bbdd" target="_top" xlink:title="Method to add a new node.">
<polygon fill="white" stroke="#666666" points="303,-338 155,-338 155,-319 303,-319 303,-338"/>
<text text-anchor="middle" x="229" y="-326" font-family="Helvetica,sans-Serif" font-size="10.00">pycanha::Nodes::add_node</text>
</a>
</g>
</g>
<!-- Node1&#45;&gt;Node2 -->
<g id="edge1_Node000001_Node000002" class="edge">
<title>Node1&#45;&gt;Node2</title>
<g id="a_edge1_Node000001_Node000002"><a xlink:title=" ">
<path fill="none" stroke="#63b8ff" d="M119.08,-328.5C127.36,-328.5 135.99,-328.5 144.62,-328.5"/>
<polygon fill="#63b8ff" stroke="#63b8ff" points="144.72,-332 154.72,-328.5 144.72,-325 144.72,-332"/>
</a>
</g>
</g>
<!-- Node3 -->
<g id="Node000003" class="node">
<title>Node3</title>
<g id="a_Node000003"><a xlink:href="classpycanha_1_1Nodes.html#a9e9b067ca2c37eb1df8cb9d17595c181" target="_top" xlink:title=" ">
<polygon fill="white" stroke="#666666" points="458,-343.5 339,-343.5 339,-313.5 458,-313.5 458,-343.5"/>
<text text-anchor="start" x="347" y="-331.5" font-family="Helvetica,sans-Serif" font-size="10.00">pycanha::Nodes::add</text>
<text text-anchor="middle" x="398.5" y="-320.5" font-family="Helvetica,sans-Serif" font-size="10.00">_node_insert_idx</text>
</a>
</g>
</g>
<!-- Node2&#45;&gt;Node3 -->
<g id="edge2_Node000002_Node000003" class="edge">
<title>Node2&#45;&gt;Node3</title>
<g id="a_edge2_Node000002_Node000003"><a xlink:title=" ">
<path fill="none" stroke="#63b8ff" d="M303.47,-328.5C311.9,-328.5 320.48,-328.5 328.85,-328.5"/>
<polygon fill="#63b8ff" stroke="#63b8ff" points="328.93,-332 338.93,-328.5 328.93,-325 328.93,-332"/>
</a>
</g>
</g>
<!-- Node18 -->
<g id="Node000018" class="node">
<title>Node18</title>
<g id="a_Node000018"><a xlink:href="classpycanha_1_1Node.html#a31d790ab1c03fb481434cebdef5e6017" target="_top" xlink:title="User node number getter.">
<polygon fill="white" stroke="#666666" points="618.5,-645.5 507.5,-645.5 507.5,-615.5 618.5,-615.5 618.5,-645.5"/>
<text text-anchor="start" x="515.5" y="-633.5" font-family="Helvetica,sans-Serif" font-size="10.00">pycanha::Node::get</text>
<text text-anchor="middle" x="563" y="-622.5" font-family="Helvetica,sans-Serif" font-size="10.00">_node_num</text>
</a>
</g>
</g>
<!-- Node2&#45;&gt;Node18 -->
<g id="edge34_Node000002_Node000018" class="edge">
<title>Node2&#45;&gt;Node18</title>
<g id="a_edge34_Node000002_Node000018"><a xlink:title=" ">
<path fill="none" stroke="#63b8ff" d="M236.53,-338.18C263.5,-377.44 370.58,-526.47 494,-606.5 496.41,-608.06 498.94,-609.54 501.54,-610.93"/>
<polygon fill="#63b8ff" stroke="#63b8ff" points="500.09,-614.12 510.62,-615.35 503.15,-607.83 500.09,-614.12"/>
</a>
</g>
</g>
<!-- Node31 -->
<g id="Node000031" class="node">
<title>Node31</title>
<g id="a_Node000031"><a xlink:href="classpycanha_1_1Node.html#a55a4679e85533618ff220014344cc15b" target="_top" xlink:title="Type getter.">
<polygon fill="white" stroke="#666666" points="632,-19 494,-19 494,0 632,0 632,-19"/>
<text text-anchor="middle" x="563" y="-7" font-family="Helvetica,sans-Serif" font-size="10.00">pycanha::Node::get_type</text>
</a>
</g>
</g>
<!-- Node2&#45;&gt;Node31 -->
<g id="edge35_Node000002_Node000031" class="edge">
<title>Node2&#45;&gt;Node31</title>
<g id="a_edge35_Node000002_Node000031"><a xlink:title=" ">
<path fill="none" stroke="#63b8ff" d="M235.5,-318.93C259.9,-277.36 362.98,-110.79 494,-28.5 497.35,-26.4 500.93,-24.52 504.64,-22.85"/>
<polygon fill="#63b8ff" stroke="#63b8ff" points="506.06,-26.06 514.05,-19.1 503.47,-19.55 506.06,-26.06"/>
</a>
</g>
</g>
<!-- Node4 -->
<g id="Node000004" class="node">
<title>Node4</title>
<g id="a_Node000004"><a xlink:href="classpycanha_1_1Node.html#a876558b19fd24813e3ad240d7bcc6b47" target="_top" xlink:title="Area [m^2] getter.">
<polygon fill="white" stroke="#666666" points="624,-597 502,-597 502,-578 624,-578 624,-597"/>
<text text-anchor="middle" x="563" y="-585" font-family="Helvetica,sans-Serif" font-size="10.00">pycanha::Node::get_a</text>
</a>
</g>
</g>
<!-- Node3&#45;&gt;Node4 -->
<g id="edge3_Node000003_Node000004" class="edge">
<title>Node3&#45;&gt;Node4</title>
<g id="a_edge3_Node000003_Node000004"><a xlink:title=" ">
<path fill="none" stroke="#63b8ff" d="M405.04,-343.72C423.89,-395.41 484.94,-561.43 494,-569.5 495.32,-570.67 496.7,-571.77 498.14,-572.8"/>
<polygon fill="#63b8ff" stroke="#63b8ff" points="496.52,-575.91 506.92,-577.95 500.06,-569.87 496.52,-575.91"/>
</a>
</g>
</g>
<!-- Node6 -->
<g id="Node000006" class="node">
<title>Node6</title>
<g id="a_Node000006"><a xlink:href="classpycanha_1_1Node.html#ad4784620cf111949d455951f408a8ff1" target="_top" xlink:title="Solar absortivity getter.">
<polygon fill="white" stroke="#666666" points="630,-560 496,-560 496,-541 630,-541 630,-560"/>
<text text-anchor="middle" x="563" y="-548" font-family="Helvetica,sans-Serif" font-size="10.00">pycanha::Node::get_aph</text>
</a>
</g>
</g>
<!-- Node3&#45;&gt;Node6 -->
<g id="edge5_Node000003_Node000006" class="edge">
<title>Node3&#45;&gt;Node6</title>
<g id="a_edge5_Node000003_Node000006"><a xlink:title=" ">
<path fill="none" stroke="#63b8ff" d="M404.62,-343.65C419.33,-386.33 462.67,-506.23 494,-532.5 495.38,-533.66 496.83,-534.75 498.34,-535.76"/>
<polygon fill="#63b8ff" stroke="#63b8ff" points="497.03,-539.04 507.47,-540.86 500.44,-532.93 497.03,-539.04"/>
</a>
</g>
</g>
<!-- Node8 -->
<g id="Node000008" class="node">
<title>Node8</title>
<g id="a_Node000008"><a xlink:href="classpycanha_1_1Node.html#aa0530593dd3c33b50051fd5630583a9a" target="_top" xlink:title="Thermal capacity [J/K] getter.">
<polygon fill="white" stroke="#666666" points="624.5,-523 501.5,-523 501.5,-504 624.5,-504 624.5,-523"/>
<text text-anchor="middle" x="563" y="-511" font-family="Helvetica,sans-Serif" font-size="10.00">pycanha::Node::get_C</text>
</a>
</g>
</g>
<!-- Node3&#45;&gt;Node8 -->
<g id="edge7_Node000003_Node000008" class="edge">
<title>Node3&#45;&gt;Node8</title>
<g id="a_edge7_Node000003_Node000008"><a xlink:title=" ">
<path fill="none" stroke="#63b8ff" d="M403.66,-343.63C413.53,-376.55 441.52,-455 494,-495.5 495.81,-496.89 497.71,-498.18 499.69,-499.37"/>
<polygon fill="#63b8ff" stroke="#63b8ff" points="498.27,-502.57 508.78,-503.96 501.43,-496.33 498.27,-502.57"/>
</a>
</g>
</g>
<!-- Node10 -->
<g id="Node000010" class="node">
<title>Node10</title>
<g id="a_Node000010"><a xlink:href="classpycanha_1_1Node.html#a82b33ac89fa4e60186dd49bbccff62a5" target="_top" xlink:title="IR emissivity getter.">
<polygon fill="white" stroke="#666666" points="630,-486 496,-486 496,-467 630,-467 630,-486"/>
<text text-anchor="middle" x="563" y="-474" font-family="Helvetica,sans-Serif" font-size="10.00">pycanha::Node::get_eps</text>
</a>
</g>
</g>
<!-- Node3&#45;&gt;Node10 -->
<g id="edge9_Node000003_Node000010" class="edge">
<title>Node3&#45;&gt;Node10</title>
<g id="a_edge9_Node000003_Node000010"><a xlink:title=" ">
<path fill="none" stroke="#63b8ff" d="M406.18,-343.56C419.07,-370.84 450.03,-428.39 494,-458.5 496.28,-460.06 498.69,-461.49 501.19,-462.79"/>
<polygon fill="#63b8ff" stroke="#63b8ff" points="500,-466.09 510.56,-466.99 502.86,-459.71 500,-466.09"/>
</a>
</g>
</g>
<!-- Node12 -->
<g id="Node000012" class="node">
<title>Node12</title>
<g id="a_Node000012"><a xlink:href="classpycanha_1_1Node.html#af99429c4bbd433a67325730ed5517252" target="_top" xlink:title="X coordinate [m] getter.">
<polygon fill="white" stroke="#666666" points="626,-449 500,-449 500,-430 626,-430 626,-449"/>
<text text-anchor="middle" x="563" y="-437" font-family="Helvetica,sans-Serif" font-size="10.00">pycanha::Node::get_fx</text>
</a>
</g>
</g>
<!-- Node3&#45;&gt;Node12 -->
<g id="edge11_Node000003_Node000012" class="edge">
<title>Node3&#45;&gt;Node12</title>
<g id="a_edge11_Node000003_Node000012"><a xlink:title=" ">
<path fill="none" stroke="#63b8ff" d="M410.83,-343.84C426.98,-364.59 458.6,-401.32 494,-421.5 497.06,-423.25 500.3,-424.83 503.63,-426.26"/>
<polygon fill="#63b8ff" stroke="#63b8ff" points="502.63,-429.62 513.22,-429.91 505.12,-423.08 502.63,-429.62"/>
</a>
</g>
</g>
<!-- Node14 -->
<g id="Node000014" class="node">
<title>Node14</title>
<g id="a_Node000014"><a xlink:href="classpycanha_1_1Node.html#a75a1e382bb8d0fab4ffc116191f099f5" target="_top" xlink:title="Y coordinate [m] getter.">
<polygon fill="white" stroke="#666666" points="625.5,-412 500.5,-412 500.5,-393 625.5,-393 625.5,-412"/>
<text text-anchor="middle" x="563" y="-400" font-family="Helvetica,sans-Serif" font-size="10.00">pycanha::Node::get_fy</text>
</a>
</g>
</g>
<!-- Node3&#45;&gt;Node14 -->
<g id="edge13_Node000003_Node000014" class="edge">
<title>Node3&#45;&gt;Node14</title>
<g id="a_edge13_Node000003_Node000014"><a xlink:title=" ">
<path fill="none" stroke="#63b8ff" d="M421.12,-343.67C439.71,-356.12 467.62,-373.44 494,-384.5 498.74,-386.48 503.75,-388.3 508.82,-389.96"/>
<polygon fill="#63b8ff" stroke="#63b8ff" points="508.01,-393.37 518.6,-392.93 510.05,-386.67 508.01,-393.37"/>
</a>
</g>
</g>
<!-- Node16 -->
<g id="Node000016" class="node">
<title>Node16</title>
<g id="a_Node000016"><a xlink:href="classpycanha_1_1Node.html#a1c12438baa7975c31b59b4b8d8cbfee9" target="_top" xlink:title="Z coordinate [m] getter.">
<polygon fill="white" stroke="#666666" points="625.5,-375 500.5,-375 500.5,-356 625.5,-356 625.5,-375"/>
<text text-anchor="middle" x="563" y="-363" font-family="Helvetica,sans-Serif" font-size="10.00">pycanha::Node::get_fz</text>
</a>
</g>
</g>
<!-- Node3&#45;&gt;Node16 -->
<g id="edge15_Node000003_Node000016" class="edge">
<title>Node3&#45;&gt;Node16</title>
<g id="a_edge15_Node000003_Node000016"><a xlink:title=" ">
<path fill="none" stroke="#63b8ff" d="M458.17,-341.86C475.18,-345.73 493.63,-349.93 510.19,-353.7"/>
<polygon fill="#63b8ff" stroke="#63b8ff" points="509.7,-357.18 520.23,-355.99 511.26,-350.36 509.7,-357.18"/>
</a>
</g>
</g>
<!-- Node3&#45;&gt;Node18 -->
<g id="edge17_Node000003_Node000018" class="edge">
<title>Node3&#45;&gt;Node18</title>
<g id="a_edge17_Node000003_Node000018"><a xlink:title=" ">
<path fill="none" stroke="#63b8ff" d="M405.47,-343.64C416.43,-371.65 440.27,-433.52 458,-486.5 475.68,-539.3 455.58,-566.2 494,-606.5 495.58,-608.16 497.28,-609.7 499.08,-611.13"/>
<polygon fill="#63b8ff" stroke="#63b8ff" points="497.23,-614.11 507.49,-616.77 501.13,-608.3 497.23,-614.11"/>
</a>
</g>
</g>
<!-- Node19 -->
<g id="Node000019" class="node">
<title>Node19</title>
<g id="a_Node000019"><a xlink:href="classpycanha_1_1Node.html#a716082814c425fc97d24196193216ab7" target="_top" xlink:title="Albedo load [W] getter.">
<polygon fill="white" stroke="#666666" points="627,-338 499,-338 499,-319 627,-319 627,-338"/>
<text text-anchor="middle" x="563" y="-326" font-family="Helvetica,sans-Serif" font-size="10.00">pycanha::Node::get_qa</text>
</a>
</g>
</g>
<!-- Node3&#45;&gt;Node19 -->
<g id="edge18_Node000003_Node000019" class="edge">
<title>Node3&#45;&gt;Node19</title>
<g id="a_edge18_Node000003_Node000019"><a xlink:title=" ">
<path fill="none" stroke="#63b8ff" d="M458.17,-328.5C468.05,-328.5 478.42,-328.5 488.63,-328.5"/>
<polygon fill="#63b8ff" stroke="#63b8ff" points="488.75,-332 498.75,-328.5 488.75,-325 488.75,-332"/>
</a>
</g>
</g>
<!-- Node21 -->
<g id="Node000021" class="node">
<title>Node21</title>
<g id="a_Node000021"><a xlink:href="classpycanha_1_1Node.html#a3f8d98cc232bfb86459eeb1e15803a29" target="_top" xlink:title="Earth IR load [W] getter.">
<polygon fill="white" stroke="#666666" points="627,-301 499,-301 499,-282 627,-282 627,-301"/>
<text text-anchor="middle" x="563" y="-289" font-family="Helvetica,sans-Serif" font-size="10.00">pycanha::Node::get_qe</text>
</a>
</g>
</g>
<!-- Node3&#45;&gt;Node21 -->
<g id="edge20_Node000003_Node000021" class="edge">
<title>Node3&#45;&gt;Node21</title>
<g id="a_edge20_Node000003_Node000021"><a xlink:title=" ">
<path fill="none" stroke="#63b8ff" d="M458.17,-315.14C475.18,-311.27 493.63,-307.07 510.19,-303.3"/>
<polygon fill="#63b8ff" stroke="#63b8ff" points="511.26,-306.64 520.23,-301.01 509.7,-299.82 511.26,-306.64"/>
</a>
</g>
</g>
<!-- Node23 -->
<g id="Node000023" class="node">
<title>Node23</title>
<g id="a_Node000023"><a xlink:href="classpycanha_1_1Node.html#a8eaf6624e94095586b79ce8208e21fd0" target="_top" xlink:title="Internal load [W] getter.">
<polygon fill="white" stroke="#666666" points="625.5,-264 500.5,-264 500.5,-245 625.5,-245 625.5,-264"/>
<text text-anchor="middle" x="563" y="-252" font-family="Helvetica,sans-Serif" font-size="10.00">pycanha::Node::get_qi</text>
</a>
</g>
</g>
<!-- Node3&#45;&gt;Node23 -->
<g id="edge22_Node000003_Node000023" class="edge">
<title>Node3&#45;&gt;Node23</title>
<g id="a_edge22_Node000003_Node000023"><a xlink:title=" ">
<path fill="none" stroke="#63b8ff" d="M421.57,-313.48C440.21,-301.33 467.95,-284.51 494,-273.5 499.5,-271.18 505.36,-269.05 511.26,-267.13"/>
<polygon fill="#63b8ff" stroke="#63b8ff" points="512.62,-270.37 521.15,-264.09 510.56,-263.68 512.62,-270.37"/>
</a>
</g>
</g>
<!-- Node25 -->
<g id="Node000025" class="node">
<title>Node25</title>
<g id="a_Node000025"><a xlink:href="classpycanha_1_1Node.html#afd9b106f3cc7b293cb9ab474d801823c" target="_top" xlink:title="Other load [W] getter.">
<polygon fill="white" stroke="#666666" points="626,-227 500,-227 500,-208 626,-208 626,-227"/>
<text text-anchor="middle" x="563" y="-215" font-family="Helvetica,sans-Serif" font-size="10.00">pycanha::Node::get_qr</text>
</a>
</g>
</g>
<!-- Node3&#45;&gt;Node25 -->
<g id="edge24_Node000003_Node000025" class="edge">
<title>Node3&#45;&gt;Node25</title>
<g id="a_edge24_Node000003_Node000025"><a xlink:title=" ">
<path fill="none" stroke="#63b8ff" d="M410.91,-313.4C427.15,-292.96 458.87,-256.72 494,-236.5 497.87,-234.27 502.01,-232.3 506.28,-230.54"/>
<polygon fill="#63b8ff" stroke="#63b8ff" points="507.57,-233.79 515.74,-227.05 505.15,-227.23 507.57,-233.79"/>
</a>
</g>
</g>
<!-- Node27 -->
<g id="Node000027" class="node">
<title>Node27</title>
<g id="a_Node000027"><a xlink:href="classpycanha_1_1Node.html#aab3d773b93036e4a219a72ca6b029a50" target="_top" xlink:title="Solar load [W] getter.">
<polygon fill="white" stroke="#666666" points="627,-190 499,-190 499,-171 627,-171 627,-190"/>
<text text-anchor="middle" x="563" y="-178" font-family="Helvetica,sans-Serif" font-size="10.00">pycanha::Node::get_qs</text>
</a>
</g>
</g>
<!-- Node3&#45;&gt;Node27 -->
<g id="edge26_Node000003_Node000027" class="edge">
<title>Node3&#45;&gt;Node27</title>
<g id="a_edge26_Node000003_Node000027"><a xlink:title=" ">
<path fill="none" stroke="#63b8ff" d="M406.46,-313.18C419.58,-286.04 450.63,-229.52 494,-199.5 496.91,-197.49 500.03,-195.68 503.27,-194.07"/>
<polygon fill="#63b8ff" stroke="#63b8ff" points="504.88,-197.19 512.67,-190.02 502.1,-190.76 504.88,-197.19"/>
</a>
</g>
</g>
<!-- Node29 -->
<g id="Node000029" class="node">
<title>Node29</title>
<g id="a_Node000029"><a xlink:href="classpycanha_1_1Node.html#a341fecda21eb1508e112ecd8c693385f" target="_top" xlink:title="Temperature [K] getter.">
<polygon fill="white" stroke="#666666" points="624,-153 502,-153 502,-134 624,-134 624,-153"/>
<text text-anchor="middle" x="563" y="-141" font-family="Helvetica,sans-Serif" font-size="10.00">pycanha::Node::get_T</text>
</a>
</g>
</g>
<!-- Node3&#45;&gt;Node29 -->
<g id="edge28_Node000003_Node000029" class="edge">
<title>Node3&#45;&gt;Node29</title>
<g id="a_edge28_Node000003_Node000029"><a xlink:title=" ">
<path fill="none" stroke="#63b8ff" d="M403.88,-313.02C414.02,-280.11 442.24,-202.91 494,-162.5 496.31,-160.7 498.78,-159.06 501.36,-157.59"/>
<polygon fill="#63b8ff" stroke="#63b8ff" points="503.04,-160.66 510.5,-153.14 499.98,-154.37 503.04,-160.66"/>
</a>
</g>
</g>
<!-- Node3&#45;&gt;Node31 -->
<g id="edge30_Node000003_Node000031" class="edge">
<title>Node3&#45;&gt;Node31</title>
<g id="a_edge30_Node000003_Node000031"><a xlink:title=" ">
<path fill="none" stroke="#63b8ff" d="M405.19,-313.43C416.11,-284.29 440.44,-218.13 458,-161.5 476.13,-103.01 450.87,-71.98 494,-28.5 495.42,-27.06 496.95,-25.73 498.55,-24.5"/>
<polygon fill="#63b8ff" stroke="#63b8ff" points="500.52,-27.4 507.15,-19.13 496.81,-21.46 500.52,-27.4"/>
</a>
</g>
</g>
<!-- Node32 -->
<g id="Node000032" class="node">
<title>Node32</title>
<g id="a_Node000032"><a xlink:href="classpycanha_1_1Nodes.html#a2ef3ee52b5de782b318b9860a7becff3" target="_top" xlink:title=" ">
<polygon fill="white" stroke="#666666" points="627,-115.5 499,-115.5 499,-85.5 627,-85.5 627,-115.5"/>
<text text-anchor="start" x="507" y="-103.5" font-family="Helvetica,sans-Serif" font-size="10.00">pycanha::Nodes::insert</text>
<text text-anchor="middle" x="563" y="-92.5" font-family="Helvetica,sans-Serif" font-size="10.00">_displace</text>
</a>
</g>
</g>
<!-- Node3&#45;&gt;Node32 -->
<g id="edge31_Node000003_Node000032" class="edge">
<title>Node3&#45;&gt;Node32</title>
<g id="a_edge31_Node000003_Node000032"><a xlink:title=" ">
<path fill="none" stroke="#63b8ff" d="M402.39,-313.42C410.28,-276.22 435.64,-179.19 494,-125.5 495.69,-123.94 497.49,-122.48 499.37,-121.11"/>
<polygon fill="#63b8ff" stroke="#63b8ff" points="501.45,-123.93 508.05,-115.64 497.73,-118.01 501.45,-123.93"/>
</a>
</g>
</g>
<!-- Node33 -->
<g id="Node000033" class="node">
<title>Node33</title>
<g id="a_Node000033"><a xlink:href="classpycanha_1_1Node.html#aa6ed2994d3acaf711d8f0c12145a7983" target="_top" xlink:title="Set the parent instance.">
<polygon fill="white" stroke="#666666" points="628.5,-67.5 497.5,-67.5 497.5,-37.5 628.5,-37.5 628.5,-67.5"/>
<text text-anchor="start" x="505.5" y="-55.5" font-family="Helvetica,sans-Serif" font-size="10.00">pycanha::Node::set</text>
<text text-anchor="middle" x="563" y="-44.5" font-family="Helvetica,sans-Serif" font-size="10.00">_thermal_nodes_parent</text>
</a>
</g>
</g>
<!-- Node3&#45;&gt;Node33 -->
<g id="edge32_Node000003_Node000033" class="edge">
<title>Node3&#45;&gt;Node33</title>
<g id="a_edge32_Node000003_Node000033"><a xlink:title=" ">
<path fill="none" stroke="#63b8ff" d="M404.78,-313.35C423.34,-260.27 484.95,-85.37 494,-76.5 495.09,-75.43 496.23,-74.41 497.41,-73.43"/>
<polygon fill="#63b8ff" stroke="#63b8ff" points="499.55,-76.21 505.77,-67.63 495.56,-70.46 499.55,-76.21"/>
</a>
</g>
</g>
<!-- Node5 -->
<g id="Node000005" class="node">
<title>Node5</title>
<g id="a_Node000005"><a xlink:href="classpycanha_1_1Nodes.html#a77196970cfb979acc7b67f8b99c9f634" target="_top" xlink:title="Area [m^2] getter.">
<polygon fill="white" stroke="#666666" points="802,-597 674,-597 674,-578 802,-578 802,-597"/>
<text text-anchor="middle" x="738" y="-585" font-family="Helvetica,sans-Serif" font-size="10.00">pycanha::Nodes::get_a</text>
</a>
</g>
</g>
<!-- Node4&#45;&gt;Node5 -->
<g id="edge4_Node000004_Node000005" class="edge">
<title>Node4&#45;&gt;Node5</title>
<g id="a_edge4_Node000004_Node000005"><a xlink:title=" ">
<path fill="none" stroke="#63b8ff" d="M624.02,-587.5C636.85,-587.5 650.55,-587.5 663.81,-587.5"/>
<polygon fill="#63b8ff" stroke="#63b8ff" points="663.85,-591 673.85,-587.5 663.85,-584 663.85,-591"/>
</a>
</g>
</g>
<!-- Node7 -->
<g id="Node000007" class="node">
<title>Node7</title>
<g id="a_Node000007"><a xlink:href="classpycanha_1_1Nodes.html#ad61fdb5f6c5d4a13dd351715818f930a" target="_top" xlink:title="Solar absortivity getter.">
<polygon fill="white" stroke="#666666" points="808,-560 668,-560 668,-541 808,-541 808,-560"/>
<text text-anchor="middle" x="738" y="-548" font-family="Helvetica,sans-Serif" font-size="10.00">pycanha::Nodes::get_aph</text>
</a>
</g>
</g>
<!-- Node6&#45;&gt;Node7 -->
<g id="edge6_Node000006_Node000007" class="edge">
<title>Node6&#45;&gt;Node7</title>
<g id="a_edge6_Node000006_Node000007"><a xlink:title=" ">
<path fill="none" stroke="#63b8ff" d="M630.39,-550.5C639.32,-550.5 648.56,-550.5 657.68,-550.5"/>
<polygon fill="#63b8ff" stroke="#63b8ff" points="657.92,-554 667.92,-550.5 657.92,-547 657.92,-554"/>
</a>
</g>
</g>
<!-- Node9 -->
<g id="Node000009" class="node">
<title>Node9</title>
<g id="a_Node000009"><a xlink:href="classpycanha_1_1Nodes.html#ab1c554b7523ca26126896ac0df536594" target="_top" xlink:title="Thermal capacity [J/K] getter.">
<polygon fill="white" stroke="#666666" points="802,-523 674,-523 674,-504 802,-504 802,-523"/>
<text text-anchor="middle" x="738" y="-511" font-family="Helvetica,sans-Serif" font-size="10.00">pycanha::Nodes::get_C</text>
</a>
</g>
</g>
<!-- Node8&#45;&gt;Node9 -->
<g id="edge8_Node000008_Node000009" class="edge">
<title>Node8&#45;&gt;Node9</title>
<g id="a_edge8_Node000008_Node000009"><a xlink:title=" ">
<path fill="none" stroke="#63b8ff" d="M624.51,-513.5C637.12,-513.5 650.54,-513.5 663.56,-513.5"/>
<polygon fill="#63b8ff" stroke="#63b8ff" points="663.89,-517 673.89,-513.5 663.89,-510 663.89,-517"/>
</a>
</g>
</g>
<!-- Node11 -->
<g id="Node000011" class="node">
<title>Node11</title>
<g id="a_Node000011"><a xlink:href="classpycanha_1_1Nodes.html#a8802742ebd0f9ccdd0182b600fe7eff1" target="_top" xlink:title="IR emissivity getter.">
<polygon fill="white" stroke="#666666" points="807.5,-486 668.5,-486 668.5,-467 807.5,-467 807.5,-486"/>
<text text-anchor="middle" x="738" y="-474" font-family="Helvetica,sans-Serif" font-size="10.00">pycanha::Nodes::get_eps</text>
</a>
</g>
</g>
<!-- Node10&#45;&gt;Node11 -->
<g id="edge10_Node000010_Node000011" class="edge">
<title>Node10&#45;&gt;Node11</title>
<g id="a_edge10_Node000010_Node000011"><a xlink:title=" ">
<path fill="none" stroke="#63b8ff" d="M630.39,-476.5C639.56,-476.5 649.04,-476.5 658.41,-476.5"/>
<polygon fill="#63b8ff" stroke="#63b8ff" points="658.49,-480 668.49,-476.5 658.49,-473 658.49,-480"/>
</a>
</g>
</g>
<!-- Node13 -->
<g id="Node000013" class="node">
<title>Node13</title>
<g id="a_Node000013"><a xlink:href="classpycanha_1_1Nodes.html#a4cf1319c964a09c43c8b7d727c08e4ec" target="_top" xlink:title="X coordinate [m] getter.">
<polygon fill="white" stroke="#666666" points="803.5,-449 672.5,-449 672.5,-430 803.5,-430 803.5,-449"/>
<text text-anchor="middle" x="738" y="-437" font-family="Helvetica,sans-Serif" font-size="10.00">pycanha::Nodes::get_fx</text>
</a>
</g>
</g>
<!-- Node12&#45;&gt;Node13 -->
<g id="edge12_Node000012_Node000013" class="edge">
<title>Node12&#45;&gt;Node13</title>
<g id="a_edge12_Node000012_Node000013"><a xlink:title=" ">
<path fill="none" stroke="#63b8ff" d="M626.46,-439.5C637.98,-439.5 650.13,-439.5 661.99,-439.5"/>
<polygon fill="#63b8ff" stroke="#63b8ff" points="662.3,-443 672.3,-439.5 662.3,-436 662.3,-443"/>
</a>
</g>
</g>
<!-- Node15 -->
<g id="Node000015" class="node">
<title>Node15</title>
<g id="a_Node000015"><a xlink:href="classpycanha_1_1Nodes.html#a64c3c26707b3116db6928646261954b2" target="_top" xlink:title="Y coordinate [m] getter.">
<polygon fill="white" stroke="#666666" points="803.5,-412 672.5,-412 672.5,-393 803.5,-393 803.5,-412"/>
<text text-anchor="middle" x="738" y="-400" font-family="Helvetica,sans-Serif" font-size="10.00">pycanha::Nodes::get_fy</text>
</a>
</g>
</g>
<!-- Node14&#45;&gt;Node15 -->
<g id="edge14_Node000014_Node000015" class="edge">
<title>Node14&#45;&gt;Node15</title>
<g id="a_edge14_Node000014_Node000015"><a xlink:title=" ">
<path fill="none" stroke="#63b8ff" d="M625.97,-402.5C637.71,-402.5 650.11,-402.5 662.19,-402.5"/>
<polygon fill="#63b8ff" stroke="#63b8ff" points="662.25,-406 672.25,-402.5 662.25,-399 662.25,-406"/>
</a>
</g>
</g>
<!-- Node17 -->
<g id="Node000017" class="node">
<title>Node17</title>
<g id="a_Node000017"><a xlink:href="classpycanha_1_1Nodes.html#a698ac07f5879b7ec5b81fd0a90f525ce" target="_top" xlink:title="Z coordinate [m] getter.">
<polygon fill="white" stroke="#666666" points="803.5,-375 672.5,-375 672.5,-356 803.5,-356 803.5,-375"/>
<text text-anchor="middle" x="738" y="-363" font-family="Helvetica,sans-Serif" font-size="10.00">pycanha::Nodes::get_fz</text>
</a>
</g>
</g>
<!-- Node16&#45;&gt;Node17 -->
<g id="edge16_Node000016_Node000017" class="edge">
<title>Node16&#45;&gt;Node17</title>
<g id="a_edge16_Node000016_Node000017"><a xlink:title=" ">
<path fill="none" stroke="#63b8ff" d="M625.97,-365.5C637.71,-365.5 650.11,-365.5 662.19,-365.5"/>
<polygon fill="#63b8ff" stroke="#63b8ff" points="662.25,-369 672.25,-365.5 662.25,-362 662.25,-369"/>
</a>
</g>
</g>
<!-- Node20 -->
<g id="Node000020" class="node">
<title>Node20</title>
<g id="a_Node000020"><a xlink:href="classpycanha_1_1Nodes.html#a521272051bce035b77e810f8f2e16b7b" target="_top" xlink:title="Albedo load [W] getter.">
<polygon fill="white" stroke="#666666" points="805,-338 671,-338 671,-319 805,-319 805,-338"/>
<text text-anchor="middle" x="738" y="-326" font-family="Helvetica,sans-Serif" font-size="10.00">pycanha::Nodes::get_qa</text>
</a>
</g>
</g>
<!-- Node19&#45;&gt;Node20 -->
<g id="edge19_Node000019_Node000020" class="edge">
<title>Node19&#45;&gt;Node20</title>
<g id="a_edge19_Node000019_Node000020"><a xlink:title=" ">
<path fill="none" stroke="#63b8ff" d="M627.44,-328.5C638.29,-328.5 649.67,-328.5 660.81,-328.5"/>
<polygon fill="#63b8ff" stroke="#63b8ff" points="660.96,-332 670.96,-328.5 660.96,-325 660.96,-332"/>
</a>
</g>
</g>
<!-- Node22 -->
<g id="Node000022" class="node">
<title>Node22</title>
<g id="a_Node000022"><a xlink:href="classpycanha_1_1Nodes.html#a3004cfb5c89e1c32f565eca56433e836" target="_top" xlink:title="Earth IR load [W] getter.">
<polygon fill="white" stroke="#666666" points="805,-301 671,-301 671,-282 805,-282 805,-301"/>
<text text-anchor="middle" x="738" y="-289" font-family="Helvetica,sans-Serif" font-size="10.00">pycanha::Nodes::get_qe</text>
</a>
</g>
</g>
<!-- Node21&#45;&gt;Node22 -->
<g id="edge21_Node000021_Node000022" class="edge">
<title>Node21&#45;&gt;Node22</title>
<g id="a_edge21_Node000021_Node000022"><a xlink:title=" ">
<path fill="none" stroke="#63b8ff" d="M627.44,-291.5C638.29,-291.5 649.67,-291.5 660.81,-291.5"/>
<polygon fill="#63b8ff" stroke="#63b8ff" points="660.96,-295 670.96,-291.5 660.96,-288 660.96,-295"/>
</a>
</g>
</g>
<!-- Node24 -->
<g id="Node000024" class="node">
<title>Node24</title>
<g id="a_Node000024"><a xlink:href="classpycanha_1_1Nodes.html#a7281e1dc78824a8a1c151c4bb5f0ac9c" target="_top" xlink:title="Internal load [W] getter.">
<polygon fill="white" stroke="#666666" points="803.5,-264 672.5,-264 672.5,-245 803.5,-245 803.5,-264"/>
<text text-anchor="middle" x="738" y="-252" font-family="Helvetica,sans-Serif" font-size="10.00">pycanha::Nodes::get_qi</text>
</a>
</g>
</g>
<!-- Node23&#45;&gt;Node24 -->
<g id="edge23_Node000023_Node000024" class="edge">
<title>Node23&#45;&gt;Node24</title>
<g id="a_edge23_Node000023_Node000024"><a xlink:title=" ">
<path fill="none" stroke="#63b8ff" d="M625.97,-254.5C637.71,-254.5 650.11,-254.5 662.19,-254.5"/>
<polygon fill="#63b8ff" stroke="#63b8ff" points="662.25,-258 672.25,-254.5 662.25,-251 662.25,-258"/>
</a>
</g>
</g>
<!-- Node26 -->
<g id="Node000026" class="node">
<title>Node26</title>
<g id="a_Node000026"><a xlink:href="classpycanha_1_1Nodes.html#a044abae6432fcf073ec1bbd2e2faba98" target="_top" xlink:title="Other load [W] getter.">
<polygon fill="white" stroke="#666666" points="803.5,-227 672.5,-227 672.5,-208 803.5,-208 803.5,-227"/>
<text text-anchor="middle" x="738" y="-215" font-family="Helvetica,sans-Serif" font-size="10.00">pycanha::Nodes::get_qr</text>
</a>
</g>
</g>
<!-- Node25&#45;&gt;Node26 -->
<g id="edge25_Node000025_Node000026" class="edge">
<title>Node25&#45;&gt;Node26</title>
<g id="a_edge25_Node000025_Node000026"><a xlink:title=" ">
<path fill="none" stroke="#63b8ff" d="M626.46,-217.5C637.98,-217.5 650.13,-217.5 661.99,-217.5"/>
<polygon fill="#63b8ff" stroke="#63b8ff" points="662.3,-221 672.3,-217.5 662.3,-214 662.3,-221"/>
</a>
</g>
</g>
<!-- Node28 -->
<g id="Node000028" class="node">
<title>Node28</title>
<g id="a_Node000028"><a xlink:href="classpycanha_1_1Nodes.html#a69b8286c1d8f94103a25d32f1ed155b5" target="_top" xlink:title="Solar load [W] getter.">
<polygon fill="white" stroke="#666666" points="804.5,-190 671.5,-190 671.5,-171 804.5,-171 804.5,-190"/>
<text text-anchor="middle" x="738" y="-178" font-family="Helvetica,sans-Serif" font-size="10.00">pycanha::Nodes::get_qs</text>
</a>
</g>
</g>
<!-- Node27&#45;&gt;Node28 -->
<g id="edge27_Node000027_Node000028" class="edge">
<title>Node27&#45;&gt;Node28</title>
<g id="a_edge27_Node000027_Node000028"><a xlink:title=" ">
<path fill="none" stroke="#63b8ff" d="M627.44,-180.5C638.36,-180.5 649.82,-180.5 661.04,-180.5"/>
<polygon fill="#63b8ff" stroke="#63b8ff" points="661.25,-184 671.25,-180.5 661.25,-177 661.25,-184"/>
</a>
</g>
</g>
<!-- Node30 -->
<g id="Node000030" class="node">
<title>Node30</title>
<g id="a_Node000030"><a xlink:href="classpycanha_1_1Nodes.html#a2241f25d67aaa234fe0f73b1245560d6" target="_top" xlink:title="Temperature [K] getter.">
<polygon fill="white" stroke="#666666" points="802,-153 674,-153 674,-134 802,-134 802,-153"/>
<text text-anchor="middle" x="738" y="-141" font-family="Helvetica,sans-Serif" font-size="10.00">pycanha::Nodes::get_T</text>
</a>
</g>
</g>
<!-- Node29&#45;&gt;Node30 -->
<g id="edge29_Node000029_Node000030" class="edge">
<title>Node29&#45;&gt;Node30</title>
<g id="a_edge29_Node000029_Node000030"><a xlink:title=" ">
<path fill="none" stroke="#63b8ff" d="M624.02,-143.5C636.85,-143.5 650.55,-143.5 663.81,-143.5"/>
<polygon fill="#63b8ff" stroke="#63b8ff" points="663.85,-147 673.85,-143.5 663.85,-140 663.85,-147"/>
</a>
</g>
</g>
<!-- Node34 -->
<g id="Node000034" class="node">
<title>Node34</title>
<g id="a_Node000034"><a xlink:href="classpycanha_1_1Node.html#a6b3e48a500d2f713fc7ee37e26693749" target="_top" xlink:title=" ">
<polygon fill="white" stroke="#666666" points="797.5,-67.5 678.5,-67.5 678.5,-37.5 797.5,-37.5 797.5,-67.5"/>
<text text-anchor="start" x="686.5" y="-55.5" font-family="Helvetica,sans-Serif" font-size="10.00">pycanha::Node::local</text>
<text text-anchor="middle" x="738" y="-44.5" font-family="Helvetica,sans-Serif" font-size="10.00">_storage_destructor</text>
</a>
</g>
</g>
<!-- Node33&#45;&gt;Node34 -->
<g id="edge33_Node000033_Node000034" class="edge">
<title>Node33&#45;&gt;Node34</title>
<g id="a_edge33_Node000033_Node000034"><a xlink:title=" ">
<path fill="none" stroke="#63b8ff" d="M628.91,-52.5C641.7,-52.5 655.15,-52.5 668.07,-52.5"/>
<polygon fill="#63b8ff" stroke="#63b8ff" points="668.28,-56 678.28,-52.5 668.28,-49 668.28,-56"/>
</a>
</g>
</g>
</g>
</svg>
