<?xml version="1.0" encoding="UTF-8" standalone="no"?>
<!DOCTYPE svg PUBLIC "-//W3C//DTD SVG 1.1//EN"
 "http://www.w3.org/Graphics/SVG/1.1/DTD/svg11.dtd">
<!-- Generated by graphviz version 2.43.0 (0)
 -->
<!-- Title: pycanha::Entity Pages: 1 -->
<svg width="278pt" height="192pt"
 viewBox="0.00 0.00 277.50 192.00" xmlns="http://www.w3.org/2000/svg" xmlns:xlink="http://www.w3.org/1999/xlink">
<g id="graph0" class="graph" transform="scale(1 1) rotate(0) translate(4 188)">
<title>pycanha::Entity</title>
<!-- Node1 -->
<g id="Node000001" class="node">
<title>Node1</title>
<g id="a_Node000001"><a xlink:title=" ">
<polygon fill="#999999" stroke="#666666" points="119,-19 27,-19 27,0 119,0 119,-19"/>
<text text-anchor="middle" x="73" y="-7" font-family="Helvetica,sans-Serif" font-size="10.00">pycanha::Entity</text>
</a>
</g>
</g>
<!-- Node2 -->
<g id="Node000002" class="node">
<title>Node2</title>
<g id="a_Node000002"><a xlink:href="classpycanha_1_1ThermalNetwork.html" target="_top" xlink:title=" ">
<polygon fill="white" stroke="#bfbfbf" points="146,-184 0,-184 0,-165 146,-165 146,-184"/>
<text text-anchor="middle" x="73" y="-172" font-family="Helvetica,sans-Serif" font-size="10.00">pycanha::ThermalNetwork</text>
</a>
</g>
</g>
<!-- Node2&#45;&gt;Node1 -->
<g id="edge1_Node000001_Node000002" class="edge">
<title>Node2&#45;&gt;Node1</title>
<g id="a_edge1_Node000001_Node000002"><a xlink:title=" ">
<path fill="none" stroke="#9a32cd" stroke-dasharray="5,2" d="M70.72,-154.85C68.38,-133.42 65.32,-97.17 67,-66 67.9,-49.35 70.3,-30.02 71.78,-19.13"/>
<polygon fill="#9a32cd" stroke="#9a32cd" points="67.25,-155.33 71.88,-164.86 74.2,-154.53 67.25,-155.33"/>
</a>
</g>
<text text-anchor="middle" x="91.5" y="-73" font-family="Helvetica,sans-Serif" font-size="10.00" fill="grey"> _network</text>
</g>
<!-- Node3 -->
<g id="Node000003" class="node">
<title>Node3</title>
<g id="a_Node000003"><a xlink:href="structpycanha_1_1detail_1_1EntityOps.html" target="_top" xlink:title=" ">
<polygon fill="white" stroke="#bfbfbf" points="269.5,-85 124.5,-85 124.5,-66 269.5,-66 269.5,-85"/>
<text text-anchor="middle" x="197" y="-73" font-family="Helvetica,sans-Serif" font-size="10.00">pycanha::detail::EntityOps</text>
</a>
</g>
</g>
<!-- Node2&#45;&gt;Node3 -->
<g id="edge3_Node000003_Node000002" class="edge">
<title>Node2&#45;&gt;Node3</title>
<g id="a_edge3_Node000003_Node000002"><a xlink:title=" ">
<path fill="none" stroke="#9a32cd" stroke-dasharray="5,2" d="M92.06,-158.59C118.28,-138.08 164.63,-101.82 185.84,-85.23"/>
<polygon fill="#9a32cd" stroke="#9a32cd" points="89.72,-155.97 84,-164.89 94.04,-161.49 89.72,-155.97"/>
</a>
</g>
<text text-anchor="middle" x="193.5" y="-139" font-family="Helvetica,sans-Serif" font-size="10.00" fill="grey"> exists</text>
<text text-anchor="middle" x="193.5" y="-128" font-family="Helvetica,sans-Serif" font-size="10.00" fill="grey">get_value</text>
<text text-anchor="middle" x="193.5" y="-117" font-family="Helvetica,sans-Serif" font-size="10.00" fill="grey">get_value_ref</text>
<text text-anchor="middle" x="193.5" y="-106" font-family="Helvetica,sans-Serif" font-size="10.00" fill="grey">set_value</text>
</g>
<!-- Node3&#45;&gt;Node1 -->
<g id="edge2_Node000001_Node000003" class="edge">
<title>Node3&#45;&gt;Node1</title>
<g id="a_edge2_Node000001_Node000003"><a xlink:title=" ">
<path fill="none" stroke="#9a32cd" stroke-dasharray="5,2" d="M171.22,-61.19C146.79,-48.59 110.81,-30.01 89.85,-19.2"/>
<polygon fill="#9a32cd" stroke="#9a32cd" points="169.79,-64.39 180.28,-65.87 173,-58.17 169.79,-64.39"/>
</a>
</g>
<text text-anchor="middle" x="155" y="-40" font-family="Helvetica,sans-Serif" font-size="10.00" fill="grey"> _ops</text>
</g>
</g>
</svg>
