<?xml version="1.0" encoding="UTF-8" standalone="no"?>
<!DOCTYPE svg PUBLIC "-//W3C//DTD SVG 1.1//EN"
 "http://www.w3.org/Graphics/SVG/1.1/DTD/svg11.dtd">
<!-- Generated by graphviz version 2.43.0 (0)
 -->
<!-- Title: pycanha::gmm::Triangle::create_mesh Pages: 1 -->
<svg width="688pt" height="743pt"
 viewBox="0.00 0.00 688.00 743.00" xmlns="http://www.w3.org/2000/svg" xmlns:xlink="http://www.w3.org/1999/xlink">
<g id="graph0" class="graph" transform="scale(1 1) rotate(0) translate(4 739)">
<title>pycanha::gmm::Triangle::create_mesh</title>
<!-- Node1 -->
<g id="node1" class="node">
<title>Node1</title>
<g id="a_node1"><a xlink:title="Creates the triangular mesh from the primitive.">
<polygon fill="#bfbfbf" stroke="black" points="0,-367.5 0,-397.5 134,-397.5 134,-367.5 0,-367.5"/>
<text text-anchor="start" x="8" y="-385.5" font-family="Helvetica,sans-Serif" font-size="10.00">pycanha::gmm::Triangle</text>
<text text-anchor="middle" x="67" y="-374.5" font-family="Helvetica,sans-Serif" font-size="10.00">::create_mesh</text>
</a>
</g>
</g>
<!-- Node2 -->
<g id="node2" class="node">
<title>Node2</title>
<g id="a_node2"><a xlink:href="classpycanha_1_1gmm_1_1Triangle.html#ad8405cc3fb6b587860fd4df1813ae6c1" target="_top" xlink:title="3D coordinates of a point ON the primitive surface from 2D coordinates. Note: The method is not valid...">
<polygon fill="none" stroke="black" points="349,-704.5 349,-734.5 483,-734.5 483,-704.5 349,-704.5"/>
<text text-anchor="start" x="357" y="-722.5" font-family="Helvetica,sans-Serif" font-size="10.00">pycanha::gmm::Triangle</text>
<text text-anchor="middle" x="416" y="-711.5" font-family="Helvetica,sans-Serif" font-size="10.00">::from_2d_to_3d</text>
</a>
</g>
</g>
<!-- Node1&#45;&gt;Node2 -->
<g id="edge1" class="edge">
<title>Node1&#45;&gt;Node2</title>
<path fill="none" stroke="midnightblue" d="M67.82,-397.72C68.13,-448.46 76.56,-613.02 170,-689.5 216.57,-727.62 285.79,-732.94 338.78,-729.98"/>
<polygon fill="midnightblue" stroke="midnightblue" points="339.07,-733.47 348.81,-729.31 338.6,-726.49 339.07,-733.47"/>
</g>
<!-- Node3 -->
<g id="node3" class="node">
<title>Node3</title>
<g id="a_node3"><a xlink:href="classpycanha_1_1gmm_1_1Triangle.html#af4f67a2841391839a57889d67443ef0c" target="_top" xlink:title="Returns the first direction v1 = p2 &#45; p1.">
<polygon fill="none" stroke="black" points="528,-644 528,-663 680,-663 680,-644 528,-644"/>
<text text-anchor="middle" x="604" y="-651" font-family="Helvetica,sans-Serif" font-size="10.00">pycanha::gmm::Triangle::v1</text>
</a>
</g>
</g>
<!-- Node1&#45;&gt;Node3 -->
<g id="edge20" class="edge">
<title>Node1&#45;&gt;Node3</title>
<path fill="none" stroke="midnightblue" d="M68.49,-397.52C70.91,-443.99 85.24,-585.94 170,-647.5 223.46,-686.32 407.62,-674.67 517.81,-663.54"/>
<polygon fill="midnightblue" stroke="midnightblue" points="518.32,-667.01 527.91,-662.5 517.6,-660.05 518.32,-667.01"/>
</g>
<!-- Node4 -->
<g id="node4" class="node">
<title>Node4</title>
<g id="a_node4"><a xlink:href="classpycanha_1_1gmm_1_1Triangle.html#a63ee40470d93361a8c4462b4fdde2127" target="_top" xlink:title="2D coordinates of a point ON the primitive surface from 3D coordinates. Note: It is assumed that the ...">
<polygon fill="none" stroke="black" points="349,-616.5 349,-646.5 483,-646.5 483,-616.5 349,-616.5"/>
<text text-anchor="start" x="357" y="-634.5" font-family="Helvetica,sans-Serif" font-size="10.00">pycanha::gmm::Triangle</text>
<text text-anchor="middle" x="416" y="-623.5" font-family="Helvetica,sans-Serif" font-size="10.00">::from_3d_to_2d</text>
</a>
</g>
</g>
<!-- Node1&#45;&gt;Node4 -->
<g id="edge3" class="edge">
<title>Node1&#45;&gt;Node4</title>
<path fill="none" stroke="midnightblue" d="M69.28,-397.74C73.8,-441.05 93.24,-565.09 170,-618.5 218.59,-652.31 286.64,-653.24 338.69,-647.03"/>
<polygon fill="midnightblue" stroke="midnightblue" points="339.41,-650.46 348.87,-645.7 338.51,-643.52 339.41,-650.46"/>
</g>
<!-- Node5 -->
<g id="node5" class="node">
<title>Node5</title>
<g id="a_node5"><a xlink:href="classpycanha_1_1gmm_1_1TriMesh.html#a81f6628b978aaeac9d36fafc63e0eead" target="_top" xlink:title="Get face ids vector.">
<polygon fill="none" stroke="black" points="170.5,-578.5 170.5,-608.5 303.5,-608.5 303.5,-578.5 170.5,-578.5"/>
<text text-anchor="start" x="178.5" y="-596.5" font-family="Helvetica,sans-Serif" font-size="10.00">pycanha::gmm::TriMesh</text>
<text text-anchor="middle" x="237" y="-585.5" font-family="Helvetica,sans-Serif" font-size="10.00">::get_face_ids</text>
</a>
</g>
</g>
<!-- Node1&#45;&gt;Node5 -->
<g id="edge5" class="edge">
<title>Node1&#45;&gt;Node5</title>
<path fill="none" stroke="midnightblue" d="M72.22,-397.71C82.75,-432.96 113.5,-520.92 170,-569.5 171.49,-570.78 173.06,-572 174.68,-573.15"/>
<polygon fill="midnightblue" stroke="midnightblue" points="172.87,-576.14 183.22,-578.4 176.53,-570.18 172.87,-576.14"/>
</g>
<!-- Node6 -->
<g id="node6" class="node">
<title>Node6</title>
<g id="a_node6"><a xlink:href="classpycanha_1_1gmm_1_1Triangle.html#a691cd31a1c3f5de250e32ed063eb5496" target="_top" xlink:title="Returns the ID of the face in the thermal mesh that contains the given UV coordinates....">
<polygon fill="none" stroke="black" points="170,-529.5 170,-559.5 304,-559.5 304,-529.5 170,-529.5"/>
<text text-anchor="start" x="178" y="-547.5" font-family="Helvetica,sans-Serif" font-size="10.00">pycanha::gmm::Triangle</text>
<text text-anchor="middle" x="237" y="-536.5" font-family="Helvetica,sans-Serif" font-size="10.00">::get_faceid_from_uv</text>
</a>
</g>
</g>
<!-- Node1&#45;&gt;Node6 -->
<g id="edge6" class="edge">
<title>Node1&#45;&gt;Node6</title>
<path fill="none" stroke="midnightblue" d="M76.48,-397.91C91.94,-424.77 127.09,-480.52 170,-514.5 174.68,-518.2 179.89,-521.57 185.27,-524.58"/>
<polygon fill="midnightblue" stroke="midnightblue" points="183.94,-527.84 194.43,-529.34 187.17,-521.62 183.94,-527.84"/>
</g>
<!-- Node7 -->
<g id="node7" class="node">
<title>Node7</title>
<g id="a_node7"><a xlink:href="classpycanha_1_1gmm_1_1Triangle.html#a113cd18f27bd12d15681af628524300c" target="_top" xlink:title="Returns the second direction v2 = p3 &#45; p2.">
<polygon fill="none" stroke="black" points="340,-513 340,-532 492,-532 492,-513 340,-513"/>
<text text-anchor="middle" x="416" y="-520" font-family="Helvetica,sans-Serif" font-size="10.00">pycanha::gmm::Triangle::v2</text>
</a>
</g>
</g>
<!-- Node1&#45;&gt;Node7 -->
<g id="edge21" class="edge">
<title>Node1&#45;&gt;Node7</title>
<path fill="none" stroke="midnightblue" d="M78.92,-397.65C95.76,-419.77 130.32,-460.47 170,-480.5 219.36,-505.42 280.69,-515.92 329.64,-520.19"/>
<polygon fill="midnightblue" stroke="midnightblue" points="329.64,-523.7 339.89,-521.01 330.2,-516.72 329.64,-523.7"/>
</g>
<!-- Node8 -->
<g id="node8" class="node">
<title>Node8</title>
<g id="a_node8"><a xlink:href="classpycanha_1_1gmm_1_1TriMesh.html#ac519c05be1a8304a4674b79c5a827551" target="_top" xlink:title="Get faces edges vector of indices.">
<polygon fill="none" stroke="black" points="170.5,-441.5 170.5,-471.5 303.5,-471.5 303.5,-441.5 170.5,-441.5"/>
<text text-anchor="start" x="178.5" y="-459.5" font-family="Helvetica,sans-Serif" font-size="10.00">pycanha::gmm::TriMesh</text>
<text text-anchor="middle" x="237" y="-448.5" font-family="Helvetica,sans-Serif" font-size="10.00">::get_faces_edges</text>
</a>
</g>
</g>
<!-- Node1&#45;&gt;Node8 -->
<g id="edge10" class="edge">
<title>Node1&#45;&gt;Node8</title>
<path fill="none" stroke="midnightblue" d="M97.59,-397.55C117.79,-407.61 145.26,-420.9 170,-431.5 174.8,-433.56 179.84,-435.63 184.9,-437.64"/>
<polygon fill="midnightblue" stroke="midnightblue" points="184,-441.05 194.59,-441.44 186.55,-434.53 184,-441.05"/>
</g>
<!-- Node9 -->
<g id="node9" class="node">
<title>Node9</title>
<g id="a_node9"><a xlink:href="classpycanha_1_1gmm_1_1Triangle.html#a9ceec935ef361eb7735ee96da585fe46" target="_top" xlink:title="Returns the first vertex of the triangle.">
<polygon fill="none" stroke="black" points="170,-392.5 170,-422.5 304,-422.5 304,-392.5 170,-392.5"/>
<text text-anchor="start" x="178" y="-410.5" font-family="Helvetica,sans-Serif" font-size="10.00">pycanha::gmm::Triangle</text>
<text text-anchor="middle" x="237" y="-399.5" font-family="Helvetica,sans-Serif" font-size="10.00">::get_p1</text>
</a>
</g>
</g>
<!-- Node1&#45;&gt;Node9 -->
<g id="edge11" class="edge">
<title>Node1&#45;&gt;Node9</title>
<path fill="none" stroke="midnightblue" d="M134.4,-392.38C142.77,-393.63 151.39,-394.91 159.89,-396.17"/>
<polygon fill="midnightblue" stroke="midnightblue" points="159.4,-399.64 169.81,-397.65 160.43,-392.72 159.4,-399.64"/>
</g>
<!-- Node10 -->
<g id="node10" class="node">
<title>Node10</title>
<g id="a_node10"><a xlink:href="classpycanha_1_1gmm_1_1Triangle.html#aac62eb826a36358ad9811172d0825979" target="_top" xlink:title="Returns the second vertex of the triangle.">
<polygon fill="none" stroke="black" points="170,-343.5 170,-373.5 304,-373.5 304,-343.5 170,-343.5"/>
<text text-anchor="start" x="178" y="-361.5" font-family="Helvetica,sans-Serif" font-size="10.00">pycanha::gmm::Triangle</text>
<text text-anchor="middle" x="237" y="-350.5" font-family="Helvetica,sans-Serif" font-size="10.00">::get_p2</text>
</a>
</g>
</g>
<!-- Node1&#45;&gt;Node10 -->
<g id="edge12" class="edge">
<title>Node1&#45;&gt;Node10</title>
<path fill="none" stroke="midnightblue" d="M134.4,-373.01C142.77,-371.82 151.39,-370.59 159.89,-369.37"/>
<polygon fill="midnightblue" stroke="midnightblue" points="160.4,-372.83 169.81,-367.96 159.41,-365.91 160.4,-372.83"/>
</g>
<!-- Node11 -->
<g id="node11" class="node">
<title>Node11</title>
<g id="a_node11"><a xlink:href="classpycanha_1_1gmm_1_1Triangle.html#a99ffbb35ea0374cc0fcbd44b62b05bf3" target="_top" xlink:title="Returns the third vertex of the triangle.">
<polygon fill="none" stroke="black" points="170,-294.5 170,-324.5 304,-324.5 304,-294.5 170,-294.5"/>
<text text-anchor="start" x="178" y="-312.5" font-family="Helvetica,sans-Serif" font-size="10.00">pycanha::gmm::Triangle</text>
<text text-anchor="middle" x="237" y="-301.5" font-family="Helvetica,sans-Serif" font-size="10.00">::get_p3</text>
</a>
</g>
</g>
<!-- Node1&#45;&gt;Node11 -->
<g id="edge13" class="edge">
<title>Node1&#45;&gt;Node11</title>
<path fill="none" stroke="midnightblue" d="M97.55,-367.35C117.72,-357.24 145.19,-343.94 170,-333.5 174.34,-331.67 178.87,-329.85 183.43,-328.08"/>
<polygon fill="midnightblue" stroke="midnightblue" points="184.7,-331.34 192.8,-324.51 182.21,-324.8 184.7,-331.34"/>
</g>
<!-- Node12 -->
<g id="node12" class="node">
<title>Node12</title>
<g id="a_node12"><a xlink:href="classpycanha_1_1gmm_1_1Color.html#a6b0ff80336dd7c71b042dd65fb5534da" target="_top" xlink:title="Get the RGB values.">
<polygon fill="none" stroke="black" points="176.5,-245.5 176.5,-275.5 297.5,-275.5 297.5,-245.5 176.5,-245.5"/>
<text text-anchor="start" x="184.5" y="-263.5" font-family="Helvetica,sans-Serif" font-size="10.00">pycanha::gmm::Color</text>
<text text-anchor="middle" x="237" y="-252.5" font-family="Helvetica,sans-Serif" font-size="10.00">::get_rgb</text>
</a>
</g>
</g>
<!-- Node1&#45;&gt;Node12 -->
<g id="edge14" class="edge">
<title>Node1&#45;&gt;Node12</title>
<path fill="none" stroke="midnightblue" d="M80.3,-367.19C98.08,-345.96 132.9,-307.61 170,-284.5 172.61,-282.88 175.34,-281.34 178.15,-279.89"/>
<polygon fill="midnightblue" stroke="midnightblue" points="179.78,-282.99 187.31,-275.55 176.78,-276.66 179.78,-282.99"/>
</g>
<!-- Node13 -->
<g id="node13" class="node">
<title>Node13</title>
<g id="a_node13"><a xlink:href="classpycanha_1_1gmm_1_1TriMesh.html#a113cdc2728d6b47e8841ef9732ebd9b2" target="_top" xlink:title="Get triangles matrix.">
<polygon fill="none" stroke="black" points="170.5,-196.5 170.5,-226.5 303.5,-226.5 303.5,-196.5 170.5,-196.5"/>
<text text-anchor="start" x="178.5" y="-214.5" font-family="Helvetica,sans-Serif" font-size="10.00">pycanha::gmm::TriMesh</text>
<text text-anchor="middle" x="237" y="-203.5" font-family="Helvetica,sans-Serif" font-size="10.00">::get_triangles</text>
</a>
</g>
</g>
<!-- Node1&#45;&gt;Node13 -->
<g id="edge15" class="edge">
<title>Node1&#45;&gt;Node13</title>
<path fill="none" stroke="midnightblue" d="M74.65,-367.28C88.3,-337.73 122.26,-272.28 170,-235.5 171.8,-234.11 173.7,-232.79 175.66,-231.55"/>
<polygon fill="midnightblue" stroke="midnightblue" points="177.58,-234.48 184.6,-226.54 174.16,-228.38 177.58,-234.48"/>
</g>
<!-- Node14 -->
<g id="node14" class="node">
<title>Node14</title>
<g id="a_node14"><a xlink:href="classpycanha_1_1gmm_1_1TriMesh.html#a5e7a2cc9ec97ba48a13277d2c391e928" target="_top" xlink:title="Get vertices matrix.">
<polygon fill="none" stroke="black" points="170.5,-147.5 170.5,-177.5 303.5,-177.5 303.5,-147.5 170.5,-147.5"/>
<text text-anchor="start" x="178.5" y="-165.5" font-family="Helvetica,sans-Serif" font-size="10.00">pycanha::gmm::TriMesh</text>
<text text-anchor="middle" x="237" y="-154.5" font-family="Helvetica,sans-Serif" font-size="10.00">::get_vertices</text>
</a>
</g>
</g>
<!-- Node1&#45;&gt;Node14 -->
<g id="edge16" class="edge">
<title>Node1&#45;&gt;Node14</title>
<path fill="none" stroke="midnightblue" d="M71.78,-367.38C81.62,-331 111.45,-237.84 170,-186.5 171.48,-185.2 173.03,-183.98 174.65,-182.81"/>
<polygon fill="midnightblue" stroke="midnightblue" points="176.51,-185.78 183.15,-177.52 172.81,-179.83 176.51,-185.78"/>
</g>
<!-- Node15 -->
<g id="node15" class="node">
<title>Node15</title>
<g id="a_node15"><a xlink:href="classpycanha_1_1gmm_1_1TriMesh.html#a27e1232524b78c47b58b8d4d45d8172d" target="_top" xlink:title="Set the surface 1 color.">
<polygon fill="none" stroke="black" points="170.5,-98.5 170.5,-128.5 303.5,-128.5 303.5,-98.5 170.5,-98.5"/>
<text text-anchor="start" x="178.5" y="-116.5" font-family="Helvetica,sans-Serif" font-size="10.00">pycanha::gmm::TriMesh</text>
<text text-anchor="middle" x="237" y="-105.5" font-family="Helvetica,sans-Serif" font-size="10.00">::set_surface1_color</text>
</a>
</g>
</g>
<!-- Node1&#45;&gt;Node15 -->
<g id="edge17" class="edge">
<title>Node1&#45;&gt;Node15</title>
<path fill="none" stroke="midnightblue" d="M70.01,-367.48C76.45,-325.22 100.37,-204.02 170,-137.5 171.13,-136.42 172.31,-135.39 173.54,-134.4"/>
<polygon fill="midnightblue" stroke="midnightblue" points="175.87,-137.05 182.19,-128.54 171.94,-131.26 175.87,-137.05"/>
</g>
<!-- Node16 -->
<g id="node16" class="node">
<title>Node16</title>
<g id="a_node16"><a xlink:href="classpycanha_1_1gmm_1_1TriMesh.html#a331d5c97a882188d4454694b4a2a4af9" target="_top" xlink:title="Set the surface 2 color.">
<polygon fill="none" stroke="black" points="170.5,-49.5 170.5,-79.5 303.5,-79.5 303.5,-49.5 170.5,-49.5"/>
<text text-anchor="start" x="178.5" y="-67.5" font-family="Helvetica,sans-Serif" font-size="10.00">pycanha::gmm::TriMesh</text>
<text text-anchor="middle" x="237" y="-56.5" font-family="Helvetica,sans-Serif" font-size="10.00">::set_surface2_color</text>
</a>
</g>
</g>
<!-- Node1&#45;&gt;Node16 -->
<g id="edge18" class="edge">
<title>Node1&#45;&gt;Node16</title>
<path fill="none" stroke="midnightblue" d="M68.83,-367.34C72.26,-319.57 89.23,-170.47 170,-88.5 171.07,-87.41 172.19,-86.38 173.36,-85.39"/>
<polygon fill="midnightblue" stroke="midnightblue" points="175.51,-88.15 181.64,-79.51 171.46,-82.44 175.51,-88.15"/>
</g>
<!-- Node17 -->
<g id="node17" class="node">
<title>Node17</title>
<g id="a_node17"><a xlink:href="classpycanha_1_1gmm_1_1TriMesh.html#a7f0a8a501de5c2d065f71e164b956b39" target="_top" xlink:title="Sort the triangles according to the face ids.">
<polygon fill="none" stroke="black" points="170.5,-0.5 170.5,-30.5 303.5,-30.5 303.5,-0.5 170.5,-0.5"/>
<text text-anchor="start" x="178.5" y="-18.5" font-family="Helvetica,sans-Serif" font-size="10.00">pycanha::gmm::TriMesh</text>
<text text-anchor="middle" x="237" y="-7.5" font-family="Helvetica,sans-Serif" font-size="10.00">::sort_triangles</text>
</a>
</g>
</g>
<!-- Node1&#45;&gt;Node17 -->
<g id="edge19" class="edge">
<title>Node1&#45;&gt;Node17</title>
<path fill="none" stroke="midnightblue" d="M67.95,-367.15C68.63,-314.21 77.99,-137.18 170,-39.5 170.92,-38.53 171.88,-37.59 172.87,-36.7"/>
<polygon fill="midnightblue" stroke="midnightblue" points="175.22,-39.31 181.16,-30.54 171.04,-33.7 175.22,-39.31"/>
</g>
<!-- Node2&#45;&gt;Node3 -->
<g id="edge2" class="edge">
<title>Node2&#45;&gt;Node3</title>
<path fill="none" stroke="midnightblue" d="M459.67,-704.36C492,-692.89 535.93,-677.3 566.6,-666.42"/>
<polygon fill="midnightblue" stroke="midnightblue" points="567.81,-669.7 576.06,-663.06 565.47,-663.1 567.81,-669.7"/>
</g>
<!-- Node4&#45;&gt;Node3 -->
<g id="edge4" class="edge">
<title>Node4&#45;&gt;Node3</title>
<path fill="none" stroke="midnightblue" d="M483.1,-639.32C494.33,-640.65 506.12,-642.04 517.76,-643.42"/>
<polygon fill="midnightblue" stroke="midnightblue" points="517.58,-646.92 527.92,-644.62 518.4,-639.97 517.58,-646.92"/>
</g>
<!-- Node6&#45;&gt;Node3 -->
<g id="edge8" class="edge">
<title>Node6&#45;&gt;Node3</title>
<path fill="none" stroke="midnightblue" d="M304.02,-558.03C355.74,-569.31 429.21,-586.83 492,-607.5 520.13,-616.76 551.21,-629.9 573.3,-639.77"/>
<polygon fill="midnightblue" stroke="midnightblue" points="571.93,-642.99 582.48,-643.91 574.81,-636.61 571.93,-642.99"/>
</g>
<!-- Node6&#45;&gt;Node4 -->
<g id="edge7" class="edge">
<title>Node6&#45;&gt;Node4</title>
<path fill="none" stroke="midnightblue" d="M283.66,-559.51C290.65,-562.45 297.65,-565.79 304,-569.5 321.99,-580 322.23,-588.63 340,-599.5 347.63,-604.17 356.07,-608.48 364.45,-612.33"/>
<polygon fill="midnightblue" stroke="midnightblue" points="363.27,-615.64 373.83,-616.48 366.1,-609.24 363.27,-615.64"/>
</g>
<!-- Node6&#45;&gt;Node7 -->
<g id="edge9" class="edge">
<title>Node6&#45;&gt;Node7</title>
<path fill="none" stroke="midnightblue" d="M304.16,-536.28C312.56,-535.23 321.24,-534.15 329.89,-533.08"/>
<polygon fill="midnightblue" stroke="midnightblue" points="330.5,-536.53 339.99,-531.82 329.64,-529.58 330.5,-536.53"/>
</g>
</g>
</svg>
