<?xml version="1.0" encoding="UTF-8" standalone="no"?>
<!DOCTYPE svg PUBLIC "-//W3C//DTD SVG 1.1//EN"
 "http://www.w3.org/Graphics/SVG/1.1/DTD/svg11.dtd">
<!-- Generated by graphviz version 2.43.0 (0)
 -->
<!-- Title: pycanha::gmm::Cylinder::get_faceid_from_uv Pages: 1 -->
<svg width="316pt" height="230pt"
 viewBox="0.00 0.00 316.00 230.00" xmlns="http://www.w3.org/2000/svg" xmlns:xlink="http://www.w3.org/1999/xlink">
<g id="graph0" class="graph" transform="scale(1 1) rotate(0) translate(4 226)">
<title>pycanha::gmm::Cylinder::get_faceid_from_uv</title>
<!-- Node1 -->
<g id="Node000001" class="node">
<title>Node1</title>
<g id="a_Node000001"><a xlink:title="Returns the ID of the face in the thermal mesh that contains the given UV coordinates....">
<polygon fill="#999999" stroke="#666666" points="136,-126 0,-126 0,-96 136,-96 136,-126"/>
<text text-anchor="start" x="8" y="-114" font-family="Helvetica,sans-Serif" font-size="10.00">pycanha::gmm::Cylinder</text>
<text text-anchor="middle" x="68" y="-103" font-family="Helvetica,sans-Serif" font-size="10.00">::get_faceid_from_uv</text>
</a>
</g>
</g>
<!-- Node2 -->
<g id="Node000002" class="node">
<title>Node2</title>
<g id="a_Node000002"><a xlink:href="classpycanha_1_1gmm_1_1Cylinder.html#a6beb7ed803cea0337ed3cb8a22365792" target="_top" xlink:title="Returns the end angle of the cylinder.">
<polygon fill="white" stroke="#666666" points="308,-222 172,-222 172,-192 308,-192 308,-222"/>
<text text-anchor="start" x="180" y="-210" font-family="Helvetica,sans-Serif" font-size="10.00">pycanha::gmm::Cylinder</text>
<text text-anchor="middle" x="240" y="-199" font-family="Helvetica,sans-Serif" font-size="10.00">::get_end_angle</text>
</a>
</g>
</g>
<!-- Node1&#45;&gt;Node2 -->
<g id="edge1_Node000001_Node000002" class="edge">
<title>Node1&#45;&gt;Node2</title>
<g id="a_edge1_Node000001_Node000002"><a xlink:title=" ">
<path fill="none" stroke="#63b8ff" d="M87.4,-126.14C107.29,-141.95 140.41,-166.67 172,-183 175.32,-184.72 178.8,-186.37 182.34,-187.93"/>
<polygon fill="#63b8ff" stroke="#63b8ff" points="181.25,-191.27 191.83,-191.9 183.95,-184.81 181.25,-191.27"/>
</a>
</g>
</g>
<!-- Node3 -->
<g id="Node000003" class="node">
<title>Node3</title>
<g id="a_Node000003"><a xlink:href="classpycanha_1_1gmm_1_1Cylinder.html#a104eeb1b5c9e52e1fa96c8be01efa6ca" target="_top" xlink:title="Returns the first point of the cylinder.">
<polygon fill="white" stroke="#666666" points="308,-174 172,-174 172,-144 308,-144 308,-174"/>
<text text-anchor="start" x="180" y="-162" font-family="Helvetica,sans-Serif" font-size="10.00">pycanha::gmm::Cylinder</text>
<text text-anchor="middle" x="240" y="-151" font-family="Helvetica,sans-Serif" font-size="10.00">::get_p1</text>
</a>
</g>
</g>
<!-- Node1&#45;&gt;Node3 -->
<g id="edge2_Node000001_Node000003" class="edge">
<title>Node1&#45;&gt;Node3</title>
<g id="a_edge2_Node000001_Node000003"><a xlink:title=" ">
<path fill="none" stroke="#63b8ff" d="M122.32,-126.06C139.41,-130.88 158.49,-136.27 176.2,-141.27"/>
<polygon fill="#63b8ff" stroke="#63b8ff" points="175.29,-144.65 185.87,-144 177.19,-137.91 175.29,-144.65"/>
</a>
</g>
</g>
<!-- Node4 -->
<g id="Node000004" class="node">
<title>Node4</title>
<g id="a_Node000004"><a xlink:href="classpycanha_1_1gmm_1_1Cylinder.html#ab9a8e314a7f31627585f2c05412cfbdf" target="_top" xlink:title="Returns the second point of the cylinder.">
<polygon fill="white" stroke="#666666" points="308,-126 172,-126 172,-96 308,-96 308,-126"/>
<text text-anchor="start" x="180" y="-114" font-family="Helvetica,sans-Serif" font-size="10.00">pycanha::gmm::Cylinder</text>
<text text-anchor="middle" x="240" y="-103" font-family="Helvetica,sans-Serif" font-size="10.00">::get_p2</text>
</a>
</g>
</g>
<!-- Node1&#45;&gt;Node4 -->
<g id="edge3_Node000001_Node000004" class="edge">
<title>Node1&#45;&gt;Node4</title>
<g id="a_edge3_Node000001_Node000004"><a xlink:title=" ">
<path fill="none" stroke="#63b8ff" d="M136.19,-111C144.5,-111 153.05,-111 161.51,-111"/>
<polygon fill="#63b8ff" stroke="#63b8ff" points="161.74,-114.5 171.74,-111 161.74,-107.5 161.74,-114.5"/>
</a>
</g>
</g>
<!-- Node5 -->
<g id="Node000005" class="node">
<title>Node5</title>
<g id="a_Node000005"><a xlink:href="classpycanha_1_1gmm_1_1Cylinder.html#a9311fb67f5f5a26986ec7c872a9e8344" target="_top" xlink:title="Returns the radius of the cylinder.">
<polygon fill="white" stroke="#666666" points="308,-78 172,-78 172,-48 308,-48 308,-78"/>
<text text-anchor="start" x="180" y="-66" font-family="Helvetica,sans-Serif" font-size="10.00">pycanha::gmm::Cylinder</text>
<text text-anchor="middle" x="240" y="-55" font-family="Helvetica,sans-Serif" font-size="10.00">::get_radius</text>
</a>
</g>
</g>
<!-- Node1&#45;&gt;Node5 -->
<g id="edge4_Node000001_Node000005" class="edge">
<title>Node1&#45;&gt;Node5</title>
<g id="a_edge4_Node000001_Node000005"><a xlink:title=" ">
<path fill="none" stroke="#63b8ff" d="M122.32,-95.94C139.41,-91.12 158.49,-85.73 176.2,-80.73"/>
<polygon fill="#63b8ff" stroke="#63b8ff" points="177.19,-84.09 185.87,-78 175.29,-77.35 177.19,-84.09"/>
</a>
</g>
</g>
<!-- Node6 -->
<g id="Node000006" class="node">
<title>Node6</title>
<g id="a_Node000006"><a xlink:href="classpycanha_1_1gmm_1_1Cylinder.html#aff728f73d0160468bb95fe907db65a77" target="_top" xlink:title="Returns the start angle of the cylinder.">
<polygon fill="white" stroke="#666666" points="308,-30 172,-30 172,0 308,0 308,-30"/>
<text text-anchor="start" x="180" y="-18" font-family="Helvetica,sans-Serif" font-size="10.00">pycanha::gmm::Cylinder</text>
<text text-anchor="middle" x="240" y="-7" font-family="Helvetica,sans-Serif" font-size="10.00">::get_start_angle</text>
</a>
</g>
</g>
<!-- Node1&#45;&gt;Node6 -->
<g id="edge5_Node000001_Node000006" class="edge">
<title>Node1&#45;&gt;Node6</title>
<g id="a_edge5_Node000001_Node000006"><a xlink:title=" ">
<path fill="none" stroke="#63b8ff" d="M87.4,-95.86C107.29,-80.05 140.41,-55.33 172,-39 175.32,-37.28 178.8,-35.63 182.34,-34.07"/>
<polygon fill="#63b8ff" stroke="#63b8ff" points="183.95,-37.19 191.83,-30.1 181.25,-30.73 183.95,-37.19"/>
</a>
</g>
</g>
</g>
</svg>
