<?xml version="1.0" encoding="UTF-8" standalone="no"?>
<!DOCTYPE svg PUBLIC "-//W3C//DTD SVG 1.1//EN"
 "http://www.w3.org/Graphics/SVG/1.1/DTD/svg11.dtd">
<!-- Generated by graphviz version 2.43.0 (0)
 -->
<!-- Title: pycanha::TSCNRLDS_JACOBIAN Pages: 1 -->
<svg width="1728pt" height="152pt"
 viewBox="0.00 0.00 1728.00 152.00" xmlns="http://www.w3.org/2000/svg" xmlns:xlink="http://www.w3.org/1999/xlink">
<g id="graph0" class="graph" transform="scale(1 1) rotate(0) translate(4 148)">
<title>pycanha::TSCNRLDS_JACOBIAN</title>
<!-- Node1 -->
<g id="Node000001" class="node">
<title>Node1</title>
<g id="a_Node000001"><a xlink:title=" ">
<polygon fill="#999999" stroke="#666666" points="1720,-40 1551,-40 1551,-21 1720,-21 1720,-40"/>
<text text-anchor="middle" x="1635.5" y="-28" font-family="Helvetica,sans-Serif" font-size="10.00">pycanha::TSCNRLDS_JACOBIAN</text>
</a>
</g>
</g>
<!-- Node2 -->
<g id="Node000002" class="node">
<title>Node2</title>
<g id="a_Node000002"><a xlink:href="classpycanha_1_1TSCNRLDS.html" target="_top" xlink:title=" ">
<polygon fill="white" stroke="#bfbfbf" points="1514,-40 1398,-40 1398,-21 1514,-21 1514,-40"/>
<text text-anchor="middle" x="1456" y="-28" font-family="Helvetica,sans-Serif" font-size="10.00">pycanha::TSCNRLDS</text>
</a>
</g>
</g>
<!-- Node2&#45;&gt;Node1 -->
<g id="edge1_Node000001_Node000002" class="edge">
<title>Node2&#45;&gt;Node1</title>
<g id="a_edge1_Node000001_Node000002"><a xlink:title=" ">
<path fill="none" stroke="#63b8ff" d="M1524.24,-30.5C1532.98,-30.5 1542.01,-30.5 1550.97,-30.5"/>
<polygon fill="#63b8ff" stroke="#63b8ff" points="1524.14,-27 1514.14,-30.5 1524.14,-34 1524.14,-27"/>
</a>
</g>
</g>
<!-- Node3 -->
<g id="Node000003" class="node">
<title>Node3</title>
<g id="a_Node000003"><a xlink:href="classpycanha_1_1TSCNRL.html" target="_top" xlink:title=" ">
<polygon fill="white" stroke="#bfbfbf" points="1361,-40 1259,-40 1259,-21 1361,-21 1361,-40"/>
<text text-anchor="middle" x="1310" y="-28" font-family="Helvetica,sans-Serif" font-size="10.00">pycanha::TSCNRL</text>
</a>
</g>
</g>
<!-- Node3&#45;&gt;Node2 -->
<g id="edge2_Node000002_Node000003" class="edge">
<title>Node3&#45;&gt;Node2</title>
<g id="a_edge2_Node000002_Node000003"><a xlink:title=" ">
<path fill="none" stroke="#63b8ff" d="M1371.39,-30.5C1380.04,-30.5 1388.92,-30.5 1397.52,-30.5"/>
<polygon fill="#63b8ff" stroke="#63b8ff" points="1371.36,-27 1361.36,-30.5 1371.36,-34 1371.36,-27"/>
</a>
</g>
</g>
<!-- Node4 -->
<g id="Node000004" class="node">
<title>Node4</title>
<g id="a_Node000004"><a xlink:href="classpycanha_1_1TSCN.html" target="_top" xlink:title=" ">
<polygon fill="white" stroke="#bfbfbf" points="1222,-40 1132,-40 1132,-21 1222,-21 1222,-40"/>
<text text-anchor="middle" x="1177" y="-28" font-family="Helvetica,sans-Serif" font-size="10.00">pycanha::TSCN</text>
</a>
</g>
</g>
<!-- Node4&#45;&gt;Node3 -->
<g id="edge3_Node000003_Node000004" class="edge">
<title>Node4&#45;&gt;Node3</title>
<g id="a_edge3_Node000003_Node000004"><a xlink:title=" ">
<path fill="none" stroke="#63b8ff" d="M1232.45,-30.5C1241.19,-30.5 1250.2,-30.5 1258.83,-30.5"/>
<polygon fill="#63b8ff" stroke="#63b8ff" points="1232.35,-27 1222.35,-30.5 1232.35,-34 1232.35,-27"/>
</a>
</g>
</g>
<!-- Node5 -->
<g id="Node000005" class="node">
<title>Node5</title>
<g id="a_Node000005"><a xlink:href="classpycanha_1_1TransientSolver.html" target="_top" xlink:title=" ">
<polygon fill="white" stroke="#bfbfbf" points="1095,-40 956,-40 956,-21 1095,-21 1095,-40"/>
<text text-anchor="middle" x="1025.5" y="-28" font-family="Helvetica,sans-Serif" font-size="10.00">pycanha::TransientSolver</text>
</a>
</g>
</g>
<!-- Node5&#45;&gt;Node4 -->
<g id="edge4_Node000004_Node000005" class="edge">
<title>Node5&#45;&gt;Node4</title>
<g id="a_edge4_Node000004_Node000005"><a xlink:title=" ">
<path fill="none" stroke="#63b8ff" d="M1105.35,-30.5C1114.4,-30.5 1123.37,-30.5 1131.72,-30.5"/>
<polygon fill="#63b8ff" stroke="#63b8ff" points="1105.12,-27 1095.12,-30.5 1105.12,-34 1105.12,-27"/>
</a>
</g>
</g>
<!-- Node6 -->
<g id="Node000006" class="node">
<title>Node6</title>
<g id="a_Node000006"><a xlink:href="classpycanha_1_1Solver.html" target="_top" xlink:title=" ">
<polygon fill="white" stroke="#bfbfbf" points="818.5,-64 723.5,-64 723.5,-45 818.5,-45 818.5,-64"/>
<text text-anchor="middle" x="771" y="-52" font-family="Helvetica,sans-Serif" font-size="10.00">pycanha::Solver</text>
</a>
</g>
</g>
<!-- Node6&#45;&gt;Node5 -->
<g id="edge5_Node000005_Node000006" class="edge">
<title>Node6&#45;&gt;Node5</title>
<g id="a_edge5_Node000005_Node000006"><a xlink:title=" ">
<path fill="none" stroke="#63b8ff" d="M828.88,-49.09C866.47,-45.52 915.98,-40.82 955.78,-37.03"/>
<polygon fill="#63b8ff" stroke="#63b8ff" points="828.23,-45.64 818.61,-50.07 828.89,-52.61 828.23,-45.64"/>
</a>
</g>
</g>
<!-- Node7 -->
<g id="Node000007" class="node">
<title>Node7</title>
<g id="a_Node000007"><a xlink:href="classpycanha_1_1ThermalMathematicalModel.html" target="_top" xlink:title=" ">
<polygon fill="white" stroke="#bfbfbf" points="629,-112.5 457,-112.5 457,-82.5 629,-82.5 629,-112.5"/>
<text text-anchor="start" x="465" y="-100.5" font-family="Helvetica,sans-Serif" font-size="10.00">pycanha::ThermalMathematical</text>
<text text-anchor="middle" x="543" y="-89.5" font-family="Helvetica,sans-Serif" font-size="10.00">Model</text>
</a>
</g>
</g>
<!-- Node7&#45;&gt;Node6 -->
<g id="edge6_Node000006_Node000007" class="edge">
<title>Node7&#45;&gt;Node6</title>
<g id="a_edge6_Node000006_Node000007"><a xlink:title=" ">
<path fill="none" stroke="#9a32cd" stroke-dasharray="5,2" d="M632.96,-80.57C663.83,-74.7 697.2,-68.35 723.29,-63.39"/>
<polygon fill="#9a32cd" stroke="#9a32cd" points="632.21,-77.15 623.04,-82.46 633.52,-84.03 632.21,-77.15"/>
</a>
</g>
<text text-anchor="middle" x="660.5" y="-79.5" font-family="Helvetica,sans-Serif" font-size="10.00" fill="grey"> tmm</text>
</g>
<!-- Node8 -->
<g id="Node000008" class="node">
<title>Node8</title>
<g id="a_Node000008"><a xlink:href="classpycanha_1_1Parameters.html" target="_top" xlink:title=" ">
<polygon fill="white" stroke="#bfbfbf" points="347.5,-144 228.5,-144 228.5,-125 347.5,-125 347.5,-144"/>
<text text-anchor="middle" x="288" y="-132" font-family="Helvetica,sans-Serif" font-size="10.00">pycanha::Parameters</text>
</a>
</g>
</g>
<!-- Node8&#45;&gt;Node7 -->
<g id="edge7_Node000007_Node000008" class="edge">
<title>Node8&#45;&gt;Node7</title>
<g id="a_edge7_Node000007_Node000008"><a xlink:title=" ">
<path fill="none" stroke="#9a32cd" stroke-dasharray="5,2" d="M357.8,-124.44C388.33,-119.97 424.56,-114.67 456.79,-109.96"/>
<polygon fill="#9a32cd" stroke="#9a32cd" points="357.07,-121.01 347.68,-125.92 358.08,-127.93 357.07,-121.01"/>
</a>
</g>
<text text-anchor="middle" x="404.5" y="-125.5" font-family="Helvetica,sans-Serif" font-size="10.00" fill="grey"> parameters</text>
</g>
<!-- Node9 -->
<g id="Node000009" class="node">
<title>Node9</title>
<g id="a_Node000009"><a xlink:href="classpycanha_1_1Formulas.html" target="_top" xlink:title=" ">
<polygon fill="white" stroke="#bfbfbf" points="342.5,-107 233.5,-107 233.5,-88 342.5,-88 342.5,-107"/>
<text text-anchor="middle" x="288" y="-95" font-family="Helvetica,sans-Serif" font-size="10.00">pycanha::Formulas</text>
</a>
</g>
</g>
<!-- Node9&#45;&gt;Node7 -->
<g id="edge8_Node000007_Node000009" class="edge">
<title>Node9&#45;&gt;Node7</title>
<g id="a_edge8_Node000007_Node000009"><a xlink:title=" ">
<path fill="none" stroke="#9a32cd" stroke-dasharray="5,2" d="M353.03,-97.5C384.43,-97.5 422.7,-97.5 456.57,-97.5"/>
<polygon fill="#9a32cd" stroke="#9a32cd" points="352.65,-94 342.65,-97.5 352.65,-101 352.65,-94"/>
</a>
</g>
<text text-anchor="middle" x="404.5" y="-100.5" font-family="Helvetica,sans-Serif" font-size="10.00" fill="grey"> formulas</text>
</g>
<!-- Node10 -->
<g id="Node000010" class="node">
<title>Node10</title>
<g id="a_Node000010"><a xlink:href="classpycanha_1_1ThermalData.html" target="_top" xlink:title=" ">
<polygon fill="white" stroke="#bfbfbf" points="352,-70 224,-70 224,-51 352,-51 352,-70"/>
<text text-anchor="middle" x="288" y="-58" font-family="Helvetica,sans-Serif" font-size="10.00">pycanha::ThermalData</text>
</a>
</g>
</g>
<!-- Node10&#45;&gt;Node7 -->
<g id="edge9_Node000007_Node000010" class="edge">
<title>Node10&#45;&gt;Node7</title>
<g id="a_edge9_Node000007_Node000010"><a xlink:title=" ">
<path fill="none" stroke="#9a32cd" stroke-dasharray="5,2" d="M362.42,-71.24C391.92,-75.55 426.13,-80.56 456.73,-85.03"/>
<polygon fill="#9a32cd" stroke="#9a32cd" points="362.59,-67.73 352.19,-69.74 361.58,-74.65 362.59,-67.73"/>
</a>
</g>
<text text-anchor="middle" x="404.5" y="-84.5" font-family="Helvetica,sans-Serif" font-size="10.00" fill="grey"> thermal_data</text>
</g>
<!-- Node11 -->
<g id="Node000011" class="node">
<title>Node11</title>
<g id="a_Node000011"><a xlink:href="classpycanha_1_1DataTableStore.html" target="_top" xlink:title=" ">
<polygon fill="white" stroke="#bfbfbf" points="140.5,-89 2.5,-89 2.5,-70 140.5,-70 140.5,-89"/>
<text text-anchor="middle" x="71.5" y="-77" font-family="Helvetica,sans-Serif" font-size="10.00">pycanha::DataTableStore</text>
</a>
</g>
</g>
<!-- Node11&#45;&gt;Node10 -->
<g id="edge10_Node000010_Node000011" class="edge">
<title>Node11&#45;&gt;Node10</title>
<g id="a_edge10_Node000010_Node000011"><a xlink:title=" ">
<path fill="none" stroke="#9a32cd" stroke-dasharray="5,2" d="M150.81,-72.56C174.8,-70.44 200.89,-68.13 223.75,-66.1"/>
<polygon fill="#9a32cd" stroke="#9a32cd" points="150.32,-69.09 140.66,-73.46 150.93,-76.07 150.32,-69.09"/>
</a>
</g>
<text text-anchor="middle" x="183.5" y="-73.5" font-family="Helvetica,sans-Serif" font-size="10.00" fill="grey"> _tables</text>
</g>
<!-- Node12 -->
<g id="Node000012" class="node">
<title>Node12</title>
<g id="a_Node000012"><a xlink:href="classpycanha_1_1DataModelStore.html" target="_top" xlink:title=" ">
<polygon fill="white" stroke="#bfbfbf" points="143,-52 0,-52 0,-33 143,-33 143,-52"/>
<text text-anchor="middle" x="71.5" y="-40" font-family="Helvetica,sans-Serif" font-size="10.00">pycanha::DataModelStore</text>
</a>
</g>
</g>
<!-- Node12&#45;&gt;Node10 -->
<g id="edge11_Node000010_Node000012" class="edge">
<title>Node12&#45;&gt;Node10</title>
<g id="a_edge11_Node000010_Node000012"><a xlink:title=" ">
<path fill="none" stroke="#9a32cd" stroke-dasharray="5,2" d="M153.41,-43.09C170.79,-43.73 189.03,-44.79 206,-46.5 216.51,-47.56 227.71,-49.18 238.32,-50.94"/>
<polygon fill="#9a32cd" stroke="#9a32cd" points="153.4,-39.59 143.29,-42.76 153.17,-46.58 153.4,-39.59"/>
</a>
</g>
<text text-anchor="middle" x="183.5" y="-49.5" font-family="Helvetica,sans-Serif" font-size="10.00" fill="grey"> _models</text>
</g>
<!-- Node13 -->
<g id="Node000013" class="node">
<title>Node13</title>
<g id="a_Node000013"><a xlink:href="classpycanha_1_1ThermalNetwork.html" target="_top" xlink:title=" ">
<polygon fill="white" stroke="#bfbfbf" points="616,-64 470,-64 470,-45 616,-45 616,-64"/>
<text text-anchor="middle" x="543" y="-52" font-family="Helvetica,sans-Serif" font-size="10.00">pycanha::ThermalNetwork</text>
</a>
</g>
</g>
<!-- Node13&#45;&gt;Node6 -->
<g id="edge12_Node000006_Node000013" class="edge">
<title>Node13&#45;&gt;Node6</title>
<g id="a_edge12_Node000006_Node000013"><a xlink:title=" ">
<path fill="none" stroke="#9a32cd" stroke-dasharray="5,2" d="M626.16,-54.5C658.91,-54.5 695.4,-54.5 723.43,-54.5"/>
<polygon fill="#9a32cd" stroke="#9a32cd" points="626.13,-51 616.13,-54.5 626.13,-58 626.13,-51"/>
</a>
</g>
<text text-anchor="middle" x="660.5" y="-57.5" font-family="Helvetica,sans-Serif" font-size="10.00" fill="grey"> tnw</text>
</g>
<!-- Node14 -->
<g id="Node000014" class="node">
<title>Node14</title>
<g id="a_Node000014"><a xlink:href="classpycanha_1_1CouplingMatrices.html" target="_top" xlink:title=" ">
<polygon fill="white" stroke="#bfbfbf" points="617.5,-19 468.5,-19 468.5,0 617.5,0 617.5,-19"/>
<text text-anchor="middle" x="543" y="-7" font-family="Helvetica,sans-Serif" font-size="10.00">pycanha::CouplingMatrices</text>
</a>
</g>
</g>
<!-- Node14&#45;&gt;Node6 -->
<g id="edge13_Node000006_Node000014" class="edge">
<title>Node14&#45;&gt;Node6</title>
<g id="a_edge13_Node000006_Node000014"><a xlink:title=" ">
<path fill="none" stroke="#9a32cd" stroke-dasharray="5,2" d="M627.76,-18.3C643.29,-20.9 659.26,-24.24 674,-28.5 682.41,-30.93 683.7,-33.73 692,-36.5 702.02,-39.85 712.96,-42.79 723.4,-45.28"/>
<polygon fill="#9a32cd" stroke="#9a32cd" points="628.05,-14.8 617.63,-16.7 626.96,-21.72 628.05,-14.8"/>
</a>
</g>
<text text-anchor="middle" x="660.5" y="-42.5" font-family="Helvetica,sans-Serif" font-size="10.00" fill="grey"> ltcs</text>
<text text-anchor="middle" x="660.5" y="-31.5" font-family="Helvetica,sans-Serif" font-size="10.00" fill="grey">rtcs</text>
</g>
<!-- Node15 -->
<g id="Node000015" class="node">
<title>Node15</title>
<g id="a_Node000015"><a xlink:href="structpycanha_1_1SolverOutputConfig.html" target="_top" xlink:title=" ">
<polygon fill="white" stroke="#bfbfbf" points="850,-27 692,-27 692,-8 850,-8 850,-27"/>
<text text-anchor="middle" x="771" y="-15" font-family="Helvetica,sans-Serif" font-size="10.00">pycanha::SolverOutputConfig</text>
</a>
</g>
</g>
<!-- Node15&#45;&gt;Node5 -->
<g id="edge14_Node000005_Node000015" class="edge">
<title>Node15&#45;&gt;Node5</title>
<g id="a_edge14_Node000005_Node000015"><a xlink:title=" ">
<path fill="none" stroke="#9a32cd" stroke-dasharray="5,2" d="M860.38,-19.96C885.48,-20.86 912.82,-22.03 938,-23.5 943.72,-23.83 949.64,-24.22 955.59,-24.64"/>
<polygon fill="#9a32cd" stroke="#9a32cd" points="860.26,-16.46 850.15,-19.61 860.02,-23.45 860.26,-16.46"/>
</a>
</g>
<text text-anchor="middle" x="903" y="-26.5" font-family="Helvetica,sans-Serif" font-size="10.00" fill="grey"> output_config</text>
</g>
</g>
</svg>
