<?xml version="1.0" encoding="UTF-8" standalone="no"?>
<!DOCTYPE svg PUBLIC "-//W3C//DTD SVG 1.1//EN"
 "http://www.w3.org/Graphics/SVG/1.1/DTD/svg11.dtd">
<!-- Generated by graphviz version 2.43.0 (0)
 -->
<!-- Title: pycanha::Nodes::remove_node Pages: 1 -->
<svg width="494pt" height="103pt"
 viewBox="0.00 0.00 494.00 102.50" xmlns="http://www.w3.org/2000/svg" xmlns:xlink="http://www.w3.org/1999/xlink">
<g id="graph0" class="graph" transform="scale(1 1) rotate(0) translate(4 98.5)">
<title>pycanha::Nodes::remove_node</title>
<!-- Node1 -->
<g id="Node000001" class="node">
<title>Node1</title>
<g id="a_Node000001"><a xlink:title="Method to delete a node of the model.">
<polygon fill="#999999" stroke="#666666" points="167,-41 0,-41 0,-22 167,-22 167,-41"/>
<text text-anchor="middle" x="83.5" y="-29" font-family="Helvetica,sans-Serif" font-size="10.00">pycanha::Nodes::remove_node</text>
</a>
</g>
</g>
<!-- Node2 -->
<g id="Node000002" class="node">
<title>Node2</title>
<g id="a_Node000002"><a xlink:href="classpycanha_1_1Nodes.html#a81700922fc0fd0e15b785233a71b315c" target="_top" xlink:title=" ">
<polygon fill="white" stroke="#666666" points="334,-94.5 203,-94.5 203,-64.5 334,-64.5 334,-94.5"/>
<text text-anchor="start" x="211" y="-82.5" font-family="Helvetica,sans-Serif" font-size="10.00">pycanha::Nodes::delete</text>
<text text-anchor="middle" x="268.5" y="-71.5" font-family="Helvetica,sans-Serif" font-size="10.00">_displace</text>
</a>
</g>
</g>
<!-- Node1&#45;&gt;Node2 -->
<g id="edge1_Node000001_Node000002" class="edge">
<title>Node1&#45;&gt;Node2</title>
<g id="a_edge1_Node000001_Node000002"><a xlink:title=" ">
<path fill="none" stroke="#63b8ff" d="M121.09,-41.1C143.76,-47.04 173.56,-54.86 200.36,-61.89"/>
<polygon fill="#63b8ff" stroke="#63b8ff" points="199.51,-65.29 210.07,-64.44 201.29,-58.51 199.51,-65.29"/>
</a>
</g>
</g>
<!-- Node3 -->
<g id="Node000003" class="node">
<title>Node3</title>
<g id="a_Node000003"><a xlink:href="classpycanha_1_1Nodes.html#aea1777a63bd88acb2368d5ab614cd813" target="_top" xlink:title="Get internal node numbre from user number.">
<polygon fill="white" stroke="#666666" points="329.5,-46.5 207.5,-46.5 207.5,-16.5 329.5,-16.5 329.5,-46.5"/>
<text text-anchor="start" x="215.5" y="-34.5" font-family="Helvetica,sans-Serif" font-size="10.00">pycanha::Nodes::get</text>
<text text-anchor="middle" x="268.5" y="-23.5" font-family="Helvetica,sans-Serif" font-size="10.00">_idx_from_node_num</text>
</a>
</g>
</g>
<!-- Node1&#45;&gt;Node3 -->
<g id="edge2_Node000001_Node000003" class="edge">
<title>Node1&#45;&gt;Node3</title>
<g id="a_edge2_Node000001_Node000003"><a xlink:title=" ">
<path fill="none" stroke="#63b8ff" d="M167.17,-31.5C177.22,-31.5 187.42,-31.5 197.26,-31.5"/>
<polygon fill="#63b8ff" stroke="#63b8ff" points="197.38,-35 207.38,-31.5 197.38,-28 197.38,-35"/>
</a>
</g>
</g>
<!-- Node4 -->
<g id="Node000004" class="node">
<title>Node4</title>
<g id="a_Node000004"><a xlink:href="namespacepycanha.html#af116674b7649af0e33b3d7e78ecb1b1b" target="_top" xlink:title=" ">
<polygon fill="white" stroke="#666666" points="486,-19 370,-19 370,0 486,0 486,-19"/>
<text text-anchor="middle" x="428" y="-7" font-family="Helvetica,sans-Serif" font-size="10.00">pycanha::get_logger</text>
</a>
</g>
</g>
<!-- Node1&#45;&gt;Node4 -->
<g id="edge4_Node000001_Node000004" class="edge">
<title>Node1&#45;&gt;Node4</title>
<g id="a_edge4_Node000001_Node000004"><a xlink:title=" ">
<path fill="none" stroke="#63b8ff" d="M121.83,-21.95C145.02,-16.51 175.54,-10.25 203,-7.5 260.93,-1.69 275.78,-6.87 334,-7.5 342.36,-7.59 351.14,-7.73 359.82,-7.88"/>
<polygon fill="#63b8ff" stroke="#63b8ff" points="359.89,-11.39 369.95,-8.08 360.02,-4.39 359.89,-11.39"/>
</a>
</g>
</g>
<!-- Node3&#45;&gt;Node4 -->
<g id="edge3_Node000003_Node000004" class="edge">
<title>Node3&#45;&gt;Node4</title>
<g id="a_edge3_Node000003_Node000004"><a xlink:title=" ">
<path fill="none" stroke="#63b8ff" d="M329.94,-23.06C339.67,-21.7 349.78,-20.29 359.65,-18.91"/>
<polygon fill="#63b8ff" stroke="#63b8ff" points="360.41,-22.34 369.83,-17.49 359.44,-15.4 360.41,-22.34"/>
</a>
</g>
</g>
</g>
</svg>
