<?xml version="1.0" encoding="UTF-8" standalone="no"?>
<!DOCTYPE svg PUBLIC "-//W3C//DTD SVG 1.1//EN"
 "http://www.w3.org/Graphics/SVG/1.1/DTD/svg11.dtd">
<!-- Generated by graphviz version 14.1.2 (0)
 -->
<!-- Title: pycanha::Formula Pages: 1 -->
<svg width="278pt" height="306pt"
 viewBox="0.00 0.00 278.00 306.00" xmlns="http://www.w3.org/2000/svg" xmlns:xlink="http://www.w3.org/1999/xlink">
<g id="graph0" class="graph" transform="scale(1 1) rotate(0) translate(4 301.5)">
<title>pycanha::Formula</title>
<!-- Node1 -->
<g id="Node000001" class="node">
<title>Node1</title>
<g id="a_Node000001"><a xlink:title=" ">
<polygon fill="#999999" stroke="#666666" points="124,-20.75 21,-20.75 21,0 124,0 124,-20.75"/>
<text xml:space="preserve" text-anchor="middle" x="72.5" y="-7.25" font-family="Helvetica,sans-Serif" font-size="10.00">pycanha::Formula</text>
</a>
</g>
</g>
<!-- Node2 -->
<g id="Node000002" class="node">
<title>Node2</title>
<g id="a_Node000002"><a xlink:href="classpycanha_1_1Entity.html" target="_top" xlink:title=" ">
<polygon fill="white" stroke="#bfbfbf" points="118.38,-96.25 26.62,-96.25 26.62,-75.5 118.38,-75.5 118.38,-96.25"/>
<text xml:space="preserve" text-anchor="middle" x="72.5" y="-82.75" font-family="Helvetica,sans-Serif" font-size="10.00">pycanha::Entity</text>
</a>
</g>
</g>
<!-- Node2&#45;&gt;Node1 -->
<g id="edge1_Node000001_Node000002" class="edge">
<title>Node2&#45;&gt;Node1</title>
<g id="a_edge1_Node000001_Node000002"><a xlink:title=" ">
<path fill="none" stroke="#9a32cd" stroke-dasharray="5,2" d="M72.5,-63.76C72.5,-49.76 72.5,-32.05 72.5,-21.22"/>
<polygon fill="#9a32cd" stroke="#9a32cd" points="69,-63.75 72.5,-73.75 76,-63.75 69,-63.75"/>
</a>
</g>
<text xml:space="preserve" text-anchor="start" x="75.5" y="-45" font-family="Helvetica,sans-Serif" font-size="10.00" fill="grey">_entity</text>
</g>
<!-- Node3 -->
<g id="Node000003" class="node">
<title>Node3</title>
<g id="a_Node000003"><a xlink:href="classpycanha_1_1ThermalNetwork.html" target="_top" xlink:title=" ">
<polygon fill="white" stroke="#bfbfbf" points="145,-297.5 0,-297.5 0,-276.75 145,-276.75 145,-297.5"/>
<text xml:space="preserve" text-anchor="middle" x="72.5" y="-284" font-family="Helvetica,sans-Serif" font-size="10.00">pycanha::ThermalNetwork</text>
</a>
</g>
</g>
<!-- Node3&#45;&gt;Node2 -->
<g id="edge2_Node000002_Node000003" class="edge">
<title>Node3&#45;&gt;Node2</title>
<g id="a_edge2_Node000002_Node000003"><a xlink:title=" ">
<path fill="none" stroke="#9a32cd" stroke-dasharray="5,2" d="M70.02,-265C67.21,-238.4 63.31,-191.31 65.5,-151 66.56,-131.54 69.41,-108.91 71.13,-96.41"/>
<polygon fill="#9a32cd" stroke="#9a32cd" points="66.52,-265.23 71.11,-274.79 73.48,-264.46 66.52,-265.23"/>
</a>
</g>
<text xml:space="preserve" text-anchor="start" x="68.5" y="-158.25" font-family="Helvetica,sans-Serif" font-size="10.00" fill="grey">_network</text>
</g>
<!-- Node4 -->
<g id="Node000004" class="node">
<title>Node4</title>
<g id="a_Node000004"><a xlink:href="structpycanha_1_1detail_1_1EntityOps.html" target="_top" xlink:title=" ">
<polygon fill="white" stroke="#bfbfbf" points="269.62,-171.75 125.38,-171.75 125.38,-151 269.62,-151 269.62,-171.75"/>
<text xml:space="preserve" text-anchor="middle" x="197.5" y="-158.25" font-family="Helvetica,sans-Serif" font-size="10.00">pycanha::detail::EntityOps</text>
</a>
</g>
</g>
<!-- Node3&#45;&gt;Node4 -->
<g id="edge4_Node000004_Node000003" class="edge">
<title>Node3&#45;&gt;Node4</title>
<g id="a_edge4_Node000004_Node000003"><a xlink:title=" ">
<path fill="none" stroke="#9a32cd" stroke-dasharray="5,2" d="M90.45,-268.36C117.24,-241.83 166.78,-192.78 187.74,-172.04"/>
<polygon fill="#9a32cd" stroke="#9a32cd" points="88.03,-265.83 83.38,-275.35 92.95,-270.8 88.03,-265.83"/>
</a>
</g>
<text xml:space="preserve" text-anchor="start" x="170.29" y="-246.25" font-family="Helvetica,sans-Serif" font-size="10.00" fill="grey">exists</text>
<text xml:space="preserve" text-anchor="start" x="170.29" y="-229.5" font-family="Helvetica,sans-Serif" font-size="10.00" fill="grey">get_value</text>
<text xml:space="preserve" text-anchor="start" x="170.29" y="-212.75" font-family="Helvetica,sans-Serif" font-size="10.00" fill="grey">get_value_ref</text>
<text xml:space="preserve" text-anchor="start" x="170.29" y="-196" font-family="Helvetica,sans-Serif" font-size="10.00" fill="grey">set_value</text>
</g>
<!-- Node4&#45;&gt;Node2 -->
<g id="edge3_Node000002_Node000004" class="edge">
<title>Node4&#45;&gt;Node2</title>
<g id="a_edge3_Node000002_Node000004"><a xlink:title=" ">
<path fill="none" stroke="#9a32cd" stroke-dasharray="5,2" d="M171.08,-144.84C146.33,-130.29 110.12,-109 89.17,-96.68"/>
<polygon fill="#9a32cd" stroke="#9a32cd" points="169.2,-147.8 179.6,-149.85 172.75,-141.76 169.2,-147.8"/>
</a>
</g>
<text xml:space="preserve" text-anchor="start" x="152.87" y="-120.5" font-family="Helvetica,sans-Serif" font-size="10.00" fill="grey">_ops</text>
</g>
</g>
</svg>
