<?xml version="1.0" encoding="UTF-8" standalone="no"?>
<!DOCTYPE svg PUBLIC "-//W3C//DTD SVG 1.1//EN"
 "http://www.w3.org/Graphics/SVG/1.1/DTD/svg11.dtd">
<!-- Generated by graphviz version 2.43.0 (0)
 -->
<!-- Title: pycanha::ESATANReader Pages: 1 -->
<svg width="488pt" height="236pt"
 viewBox="0.00 0.00 488.00 236.00" xmlns="http://www.w3.org/2000/svg" xmlns:xlink="http://www.w3.org/1999/xlink">
<g id="graph0" class="graph" transform="scale(1 1) rotate(0) translate(4 232)">
<title>pycanha::ESATANReader</title>
<!-- Node1 -->
<g id="Node000001" class="node">
<title>Node1</title>
<g id="a_Node000001"><a xlink:title=" ">
<polygon fill="#999999" stroke="#666666" points="260,-19 123,-19 123,0 260,0 260,-19"/>
<text text-anchor="middle" x="191.5" y="-7" font-family="Helvetica,sans-Serif" font-size="10.00">pycanha::ESATANReader</text>
</a>
</g>
</g>
<!-- Node2 -->
<g id="Node000002" class="node">
<title>Node2</title>
<g id="a_Node000002"><a xlink:href="classpycanha_1_1ThermalMathematicalModel.html" target="_top" xlink:title=" ">
<polygon fill="white" stroke="#bfbfbf" points="277.5,-96 105.5,-96 105.5,-66 277.5,-66 277.5,-96"/>
<text text-anchor="start" x="113.5" y="-84" font-family="Helvetica,sans-Serif" font-size="10.00">pycanha::ThermalMathematical</text>
<text text-anchor="middle" x="191.5" y="-73" font-family="Helvetica,sans-Serif" font-size="10.00">Model</text>
</a>
</g>
</g>
<!-- Node2&#45;&gt;Node1 -->
<g id="edge1_Node000001_Node000002" class="edge">
<title>Node2&#45;&gt;Node1</title>
<g id="a_edge1_Node000001_Node000002"><a xlink:title=" ">
<path fill="none" stroke="#9a32cd" stroke-dasharray="5,2" d="M191.5,-55.56C191.5,-42.95 191.5,-28.35 191.5,-19.27"/>
<polygon fill="#9a32cd" stroke="#9a32cd" points="188,-55.94 191.5,-65.94 195,-55.94 188,-55.94"/>
</a>
</g>
<text text-anchor="middle" x="211.5" y="-40" font-family="Helvetica,sans-Serif" font-size="10.00" fill="grey"> _model</text>
</g>
<!-- Node3 -->
<g id="Node000003" class="node">
<title>Node3</title>
<g id="a_Node000003"><a xlink:href="classpycanha_1_1Parameters.html" target="_top" xlink:title=" ">
<polygon fill="white" stroke="#bfbfbf" points="119,-162 0,-162 0,-143 119,-143 119,-162"/>
<text text-anchor="middle" x="59.5" y="-150" font-family="Helvetica,sans-Serif" font-size="10.00">pycanha::Parameters</text>
</a>
</g>
</g>
<!-- Node3&#45;&gt;Node2 -->
<g id="edge2_Node000002_Node000003" class="edge">
<title>Node3&#45;&gt;Node2</title>
<g id="a_edge2_Node000002_Node000003"><a xlink:title=" ">
<path fill="none" stroke="#9a32cd" stroke-dasharray="5,2" d="M83.31,-138.06C96.31,-130.81 112.71,-121.77 127.5,-114 138.94,-107.99 151.64,-101.58 162.7,-96.09"/>
<polygon fill="#9a32cd" stroke="#9a32cd" points="81.54,-135.04 74.53,-142.98 84.96,-141.15 81.54,-135.04"/>
</a>
</g>
<text text-anchor="middle" x="157.5" y="-117" font-family="Helvetica,sans-Serif" font-size="10.00" fill="grey"> parameters</text>
</g>
<!-- Node4 -->
<g id="Node000004" class="node">
<title>Node4</title>
<g id="a_Node000004"><a xlink:href="classpycanha_1_1Formulas.html" target="_top" xlink:title=" ">
<polygon fill="white" stroke="#bfbfbf" points="246,-162 137,-162 137,-143 246,-143 246,-162"/>
<text text-anchor="middle" x="191.5" y="-150" font-family="Helvetica,sans-Serif" font-size="10.00">pycanha::Formulas</text>
</a>
</g>
</g>
<!-- Node4&#45;&gt;Node2 -->
<g id="edge3_Node000002_Node000004" class="edge">
<title>Node4&#45;&gt;Node2</title>
<g id="a_edge3_Node000002_Node000004"><a xlink:title=" ">
<path fill="none" stroke="#9a32cd" stroke-dasharray="5,2" d="M191.5,-132.71C191.5,-121.19 191.5,-106.68 191.5,-96.14"/>
<polygon fill="#9a32cd" stroke="#9a32cd" points="188,-132.98 191.5,-142.98 195,-132.98 188,-132.98"/>
</a>
</g>
<text text-anchor="middle" x="215" y="-117" font-family="Helvetica,sans-Serif" font-size="10.00" fill="grey"> formulas</text>
</g>
<!-- Node5 -->
<g id="Node000005" class="node">
<title>Node5</title>
<g id="a_Node000005"><a xlink:href="classpycanha_1_1ThermalData.html" target="_top" xlink:title=" ">
<polygon fill="white" stroke="#bfbfbf" points="392.5,-162 264.5,-162 264.5,-143 392.5,-143 392.5,-162"/>
<text text-anchor="middle" x="328.5" y="-150" font-family="Helvetica,sans-Serif" font-size="10.00">pycanha::ThermalData</text>
</a>
</g>
</g>
<!-- Node5&#45;&gt;Node2 -->
<g id="edge4_Node000002_Node000005" class="edge">
<title>Node5&#45;&gt;Node2</title>
<g id="a_edge4_Node000002_Node000005"><a xlink:title=" ">
<path fill="none" stroke="#9a32cd" stroke-dasharray="5,2" d="M302.55,-138.34C278.71,-126.24 243.47,-108.36 219.11,-96.01"/>
<polygon fill="#9a32cd" stroke="#9a32cd" points="301.2,-141.58 311.7,-142.98 304.37,-135.33 301.2,-141.58"/>
</a>
</g>
<text text-anchor="middle" x="307" y="-117" font-family="Helvetica,sans-Serif" font-size="10.00" fill="grey"> thermal_data</text>
</g>
<!-- Node6 -->
<g id="Node000006" class="node">
<title>Node6</title>
<g id="a_Node000006"><a xlink:href="classpycanha_1_1DataTableStore.html" target="_top" xlink:title=" ">
<polygon fill="white" stroke="#bfbfbf" points="318.5,-228 180.5,-228 180.5,-209 318.5,-209 318.5,-228"/>
<text text-anchor="middle" x="249.5" y="-216" font-family="Helvetica,sans-Serif" font-size="10.00">pycanha::DataTableStore</text>
</a>
</g>
</g>
<!-- Node6&#45;&gt;Node5 -->
<g id="edge5_Node000005_Node000006" class="edge">
<title>Node6&#45;&gt;Node5</title>
<g id="a_edge5_Node000005_Node000006"><a xlink:title=" ">
<path fill="none" stroke="#9a32cd" stroke-dasharray="5,2" d="M268.03,-202.49C283.5,-189.96 305,-172.54 317.76,-162.2"/>
<polygon fill="#9a32cd" stroke="#9a32cd" points="265.72,-199.85 260.15,-208.87 270.13,-205.29 265.72,-199.85"/>
</a>
</g>
<text text-anchor="middle" x="314" y="-183" font-family="Helvetica,sans-Serif" font-size="10.00" fill="grey"> _tables</text>
</g>
<!-- Node7 -->
<g id="Node000007" class="node">
<title>Node7</title>
<g id="a_Node000007"><a xlink:href="classpycanha_1_1DataModelStore.html" target="_top" xlink:title=" ">
<polygon fill="white" stroke="#bfbfbf" points="480,-228 337,-228 337,-209 480,-209 480,-228"/>
<text text-anchor="middle" x="408.5" y="-216" font-family="Helvetica,sans-Serif" font-size="10.00">pycanha::DataModelStore</text>
</a>
</g>
</g>
<!-- Node7&#45;&gt;Node5 -->
<g id="edge6_Node000005_Node000007" class="edge">
<title>Node7&#45;&gt;Node5</title>
<g id="a_edge6_Node000005_Node000007"><a xlink:title=" ">
<path fill="none" stroke="#9a32cd" stroke-dasharray="5,2" d="M389.73,-202.49C374.07,-189.96 352.3,-172.54 339.37,-162.2"/>
<polygon fill="#9a32cd" stroke="#9a32cd" points="387.72,-205.35 397.71,-208.87 392.09,-199.89 387.72,-205.35"/>
</a>
</g>
<text text-anchor="middle" x="395" y="-183" font-family="Helvetica,sans-Serif" font-size="10.00" fill="grey"> _models</text>
</g>
</g>
</svg>
