<?xml version="1.0" encoding="UTF-8" standalone="no"?>
<!DOCTYPE svg PUBLIC "-//W3C//DTD SVG 1.1//EN"
 "http://www.w3.org/Graphics/SVG/1.1/DTD/svg11.dtd">
<!-- Generated by graphviz version 2.43.0 (0)
 -->
<!-- Title: pycanha::gmm::Rectangle::distance_jacobian_cutted_surface Pages: 1 -->
<svg width="352pt" height="64pt"
 viewBox="0.00 0.00 352.00 64.00" xmlns="http://www.w3.org/2000/svg" xmlns:xlink="http://www.w3.org/1999/xlink">
<g id="graph0" class="graph" transform="scale(1 1) rotate(0) translate(4 60)">
<title>pycanha::gmm::Rectangle::distance_jacobian_cutted_surface</title>
<!-- Node1 -->
<g id="Node000001" class="node">
<title>Node1</title>
<g id="a_Node000001"><a xlink:title="Calculates the minimum distance and the jacobian from a point to the extended surface....">
<polygon fill="#999999" stroke="#666666" points="146,-48 0,-48 0,-7 146,-7 146,-48"/>
<text text-anchor="start" x="8" y="-36" font-family="Helvetica,sans-Serif" font-size="10.00">pycanha::gmm::Rectangle</text>
<text text-anchor="start" x="8" y="-25" font-family="Helvetica,sans-Serif" font-size="10.00">::distance_jacobian_cutted</text>
<text text-anchor="middle" x="73" y="-14" font-family="Helvetica,sans-Serif" font-size="10.00">_surface</text>
</a>
</g>
</g>
<!-- Node2 -->
<g id="Node000002" class="node">
<title>Node2</title>
<g id="a_Node000002"><a xlink:href="classpycanha_1_1gmm_1_1Rectangle.html#a7f0930c0081f540f3b7efd6543e151a0" target="_top" xlink:title="Returns the first direction v1 = p2 &#45; p1.">
<polygon fill="white" stroke="#666666" points="344,-56 182,-56 182,-37 344,-37 344,-56"/>
<text text-anchor="middle" x="263" y="-44" font-family="Helvetica,sans-Serif" font-size="10.00">pycanha::gmm::Rectangle::v1</text>
</a>
</g>
</g>
<!-- Node1&#45;&gt;Node2 -->
<g id="edge1_Node000001_Node000002" class="edge">
<title>Node1&#45;&gt;Node2</title>
<g id="a_edge1_Node000001_Node000002"><a xlink:title=" ">
<path fill="none" stroke="#63b8ff" d="M146.15,-34.79C154.56,-35.64 163.22,-36.52 171.83,-37.39"/>
<polygon fill="#63b8ff" stroke="#63b8ff" points="171.6,-40.88 181.9,-38.41 172.31,-33.92 171.6,-40.88"/>
</a>
</g>
</g>
<!-- Node3 -->
<g id="Node000003" class="node">
<title>Node3</title>
<g id="a_Node000003"><a xlink:href="classpycanha_1_1gmm_1_1Rectangle.html#af00e73251e4ccf0cec5e645aee3f22e1" target="_top" xlink:title="Returns the second direction v2 = p3 &#45; p1.">
<polygon fill="white" stroke="#666666" points="344,-19 182,-19 182,0 344,0 344,-19"/>
<text text-anchor="middle" x="263" y="-7" font-family="Helvetica,sans-Serif" font-size="10.00">pycanha::gmm::Rectangle::v2</text>
</a>
</g>
</g>
<!-- Node1&#45;&gt;Node3 -->
<g id="edge2_Node000001_Node000003" class="edge">
<title>Node1&#45;&gt;Node3</title>
<g id="a_edge2_Node000001_Node000003"><a xlink:title=" ">
<path fill="none" stroke="#63b8ff" d="M146.15,-20.59C154.56,-19.79 163.22,-18.96 171.83,-18.13"/>
<polygon fill="#63b8ff" stroke="#63b8ff" points="172.28,-21.61 181.9,-17.17 171.62,-14.64 172.28,-21.61"/>
</a>
</g>
</g>
</g>
</svg>
