<?xml version="1.0" encoding="UTF-8" standalone="no"?>
<!DOCTYPE svg PUBLIC "-//W3C//DTD SVG 1.1//EN"
 "http://www.w3.org/Graphics/SVG/1.1/DTD/svg11.dtd">
<!-- Generated by graphviz version 2.43.0 (0)
 -->
<!-- Title: pycanha::gmm::Triangle Pages: 1 -->
<svg width="346pt" height="148pt"
 viewBox="0.00 0.00 345.50 148.00" xmlns="http://www.w3.org/2000/svg" xmlns:xlink="http://www.w3.org/1999/xlink">
<g id="graph0" class="graph" transform="scale(1 1) rotate(0) translate(4 144)">
<title>pycanha::gmm::Triangle</title>
<!-- Node1 -->
<g id="Node000001" class="node">
<title>Node1</title>
<g id="a_Node000001"><a xlink:title="A class representing a triangle in 3D space.">
<polygon fill="#999999" stroke="#666666" points="226,-19 92,-19 92,0 226,0 226,-19"/>
<text text-anchor="middle" x="159" y="-7" font-family="Helvetica,sans-Serif" font-size="10.00">pycanha::gmm::Triangle</text>
</a>
</g>
</g>
<!-- Node2 -->
<g id="Node000002" class="node">
<title>Node2</title>
<g id="a_Node000002"><a xlink:href="classpycanha_1_1gmm_1_1Primitive.html" target="_top" xlink:title="A geometry primitive.">
<polygon fill="white" stroke="#666666" points="229,-74 89,-74 89,-55 229,-55 229,-74"/>
<text text-anchor="middle" x="159" y="-62" font-family="Helvetica,sans-Serif" font-size="10.00">pycanha::gmm::Primitive</text>
</a>
</g>
</g>
<!-- Node2&#45;&gt;Node1 -->
<g id="edge1_Node000001_Node000002" class="edge">
<title>Node2&#45;&gt;Node1</title>
<g id="a_edge1_Node000001_Node000002"><a xlink:title=" ">
<path fill="none" stroke="#63b8ff" d="M159,-44.66C159,-35.93 159,-25.99 159,-19.09"/>
<polygon fill="#63b8ff" stroke="#63b8ff" points="155.5,-44.75 159,-54.75 162.5,-44.75 155.5,-44.75"/>
</a>
</g>
</g>
<!-- Node3 -->
<g id="Node000003" class="node">
<title>Node3</title>
<g id="a_Node000003"><a xlink:href="classpycanha_1_1gmm_1_1UniqueID.html" target="_top" xlink:title="Provides a unique integer id.">
<polygon fill="white" stroke="#666666" points="140,-134.5 0,-134.5 0,-115.5 140,-115.5 140,-134.5"/>
<text text-anchor="middle" x="70" y="-122.5" font-family="Helvetica,sans-Serif" font-size="10.00">pycanha::gmm::UniqueID</text>
</a>
</g>
</g>
<!-- Node3&#45;&gt;Node2 -->
<g id="edge2_Node000002_Node000003" class="edge">
<title>Node3&#45;&gt;Node2</title>
<g id="a_edge2_Node000002_Node000003"><a xlink:title=" ">
<path fill="none" stroke="#63b8ff" d="M91.82,-109.66C108.73,-98.55 131.59,-83.51 145.81,-74.17"/>
<polygon fill="#63b8ff" stroke="#63b8ff" points="89.57,-106.95 83.13,-115.37 93.41,-112.8 89.57,-106.95"/>
</a>
</g>
</g>
<!-- Node4 -->
<g id="Node000004" class="node">
<title>Node4</title>
<g id="a_Node000004"><a xlink:href="classpycanha_1_1gmm_1_1GeometryUpdateCallback.html" target="_top" xlink:title=" ">
<polygon fill="white" stroke="#bfbfbf" points="337.5,-140 158.5,-140 158.5,-110 337.5,-110 337.5,-140"/>
<text text-anchor="start" x="166.5" y="-128" font-family="Helvetica,sans-Serif" font-size="10.00">pycanha::gmm::GeometryUpdate</text>
<text text-anchor="middle" x="248" y="-117" font-family="Helvetica,sans-Serif" font-size="10.00">Callback</text>
</a>
</g>
</g>
<!-- Node4&#45;&gt;Node2 -->
<g id="edge3_Node000002_Node000004" class="edge">
<title>Node4&#45;&gt;Node2</title>
<g id="a_edge3_Node000002_Node000004"><a xlink:title=" ">
<path fill="none" stroke="#63b8ff" d="M217.67,-104.06C202.13,-93.85 184.02,-81.95 172.08,-74.09"/>
<polygon fill="#63b8ff" stroke="#63b8ff" points="216.18,-107.27 226.46,-109.84 220.02,-101.42 216.18,-107.27"/>
</a>
</g>
</g>
</g>
</svg>
