<?xml version="1.0" encoding="UTF-8" standalone="no"?>
<!DOCTYPE svg PUBLIC "-//W3C//DTD SVG 1.1//EN"
 "http://www.w3.org/Graphics/SVG/1.1/DTD/svg11.dtd">
<!-- Generated by graphviz version 2.43.0 (0)
 -->
<!-- Title: pycanha::ParameterFormula Pages: 1 -->
<svg width="278pt" height="324pt"
 viewBox="0.00 0.00 277.50 324.00" xmlns="http://www.w3.org/2000/svg" xmlns:xlink="http://www.w3.org/1999/xlink">
<g id="graph0" class="graph" transform="scale(1 1) rotate(0) translate(4 320)">
<title>pycanha::ParameterFormula</title>
<!-- Node1 -->
<g id="Node000001" class="node">
<title>Node1</title>
<g id="a_Node000001"><a xlink:title=" ">
<polygon fill="#999999" stroke="#666666" points="215,-19 61,-19 61,0 215,0 215,-19"/>
<text text-anchor="middle" x="138" y="-7" font-family="Helvetica,sans-Serif" font-size="10.00">pycanha::ParameterFormula</text>
</a>
</g>
</g>
<!-- Node2 -->
<g id="Node000002" class="node">
<title>Node2</title>
<g id="a_Node000002"><a xlink:href="classpycanha_1_1Formula.html" target="_top" xlink:title=" ">
<polygon fill="white" stroke="#bfbfbf" points="125,-85 21,-85 21,-66 125,-66 125,-85"/>
<text text-anchor="middle" x="73" y="-73" font-family="Helvetica,sans-Serif" font-size="10.00">pycanha::Formula</text>
</a>
</g>
</g>
<!-- Node2&#45;&gt;Node1 -->
<g id="edge1_Node000001_Node000002" class="edge">
<title>Node2&#45;&gt;Node1</title>
<g id="a_edge1_Node000001_Node000002"><a xlink:title=" ">
<path fill="none" stroke="#63b8ff" d="M88.92,-58.83C101.5,-46.44 118.62,-29.59 128.96,-19.41"/>
<polygon fill="#63b8ff" stroke="#63b8ff" points="86.44,-56.36 81.77,-65.87 91.35,-61.35 86.44,-56.36"/>
</a>
</g>
</g>
<!-- Node3 -->
<g id="Node000003" class="node">
<title>Node3</title>
<g id="a_Node000003"><a xlink:href="classpycanha_1_1Entity.html" target="_top" xlink:title=" ">
<polygon fill="white" stroke="#bfbfbf" points="119,-151 27,-151 27,-132 119,-132 119,-151"/>
<text text-anchor="middle" x="73" y="-139" font-family="Helvetica,sans-Serif" font-size="10.00">pycanha::Entity</text>
</a>
</g>
</g>
<!-- Node3&#45;&gt;Node2 -->
<g id="edge2_Node000002_Node000003" class="edge">
<title>Node3&#45;&gt;Node2</title>
<g id="a_edge2_Node000002_Node000003"><a xlink:title=" ">
<path fill="none" stroke="#9a32cd" stroke-dasharray="5,2" d="M73,-121.58C73,-109.63 73,-94.72 73,-85.41"/>
<polygon fill="#9a32cd" stroke="#9a32cd" points="69.5,-121.87 73,-131.87 76.5,-121.87 69.5,-121.87"/>
</a>
</g>
<text text-anchor="middle" x="91.5" y="-106" font-family="Helvetica,sans-Serif" font-size="10.00" fill="grey"> _entity</text>
</g>
<!-- Node4 -->
<g id="Node000004" class="node">
<title>Node4</title>
<g id="a_Node000004"><a xlink:href="classpycanha_1_1ThermalNetwork.html" target="_top" xlink:title=" ">
<polygon fill="white" stroke="#bfbfbf" points="146,-316 0,-316 0,-297 146,-297 146,-316"/>
<text text-anchor="middle" x="73" y="-304" font-family="Helvetica,sans-Serif" font-size="10.00">pycanha::ThermalNetwork</text>
</a>
</g>
</g>
<!-- Node4&#45;&gt;Node3 -->
<g id="edge3_Node000003_Node000004" class="edge">
<title>Node4&#45;&gt;Node3</title>
<g id="a_edge3_Node000003_Node000004"><a xlink:title=" ">
<path fill="none" stroke="#9a32cd" stroke-dasharray="5,2" d="M70.34,-286.85C67.62,-265.42 64.04,-229.17 66,-198 67.05,-181.33 69.85,-162.01 71.57,-151.12"/>
<polygon fill="#9a32cd" stroke="#9a32cd" points="66.88,-287.42 71.69,-296.86 73.82,-286.48 66.88,-287.42"/>
</a>
</g>
<text text-anchor="middle" x="90.5" y="-205" font-family="Helvetica,sans-Serif" font-size="10.00" fill="grey"> _network</text>
</g>
<!-- Node5 -->
<g id="Node000005" class="node">
<title>Node5</title>
<g id="a_Node000005"><a xlink:href="structpycanha_1_1detail_1_1EntityOps.html" target="_top" xlink:title=" ">
<polygon fill="white" stroke="#bfbfbf" points="269.5,-217 124.5,-217 124.5,-198 269.5,-198 269.5,-217"/>
<text text-anchor="middle" x="197" y="-205" font-family="Helvetica,sans-Serif" font-size="10.00">pycanha::detail::EntityOps</text>
</a>
</g>
</g>
<!-- Node4&#45;&gt;Node5 -->
<g id="edge5_Node000005_Node000004" class="edge">
<title>Node4&#45;&gt;Node5</title>
<g id="a_edge5_Node000005_Node000004"><a xlink:title=" ">
<path fill="none" stroke="#9a32cd" stroke-dasharray="5,2" d="M92.06,-290.59C118.28,-270.08 164.63,-233.82 185.84,-217.23"/>
<polygon fill="#9a32cd" stroke="#9a32cd" points="89.72,-287.97 84,-296.89 94.04,-293.49 89.72,-287.97"/>
</a>
</g>
<text text-anchor="middle" x="194.5" y="-271" font-family="Helvetica,sans-Serif" font-size="10.00" fill="grey"> exists</text>
<text text-anchor="middle" x="194.5" y="-260" font-family="Helvetica,sans-Serif" font-size="10.00" fill="grey">get_value</text>
<text text-anchor="middle" x="194.5" y="-249" font-family="Helvetica,sans-Serif" font-size="10.00" fill="grey">get_value_ref</text>
<text text-anchor="middle" x="194.5" y="-238" font-family="Helvetica,sans-Serif" font-size="10.00" fill="grey">set_value</text>
</g>
<!-- Node5&#45;&gt;Node3 -->
<g id="edge4_Node000003_Node000005" class="edge">
<title>Node5&#45;&gt;Node3</title>
<g id="a_edge4_Node000003_Node000005"><a xlink:title=" ">
<path fill="none" stroke="#9a32cd" stroke-dasharray="5,2" d="M171.22,-193.19C146.79,-180.59 110.81,-162.01 89.85,-151.2"/>
<polygon fill="#9a32cd" stroke="#9a32cd" points="169.79,-196.39 180.28,-197.87 173,-190.17 169.79,-196.39"/>
</a>
</g>
<text text-anchor="middle" x="156" y="-172" font-family="Helvetica,sans-Serif" font-size="10.00" fill="grey"> _ops</text>
</g>
<!-- Node6 -->
<g id="Node000006" class="node">
<title>Node6</title>
<g id="a_Node000006"><a xlink:href="classpycanha_1_1Parameters.html" target="_top" xlink:title=" ">
<polygon fill="white" stroke="#bfbfbf" points="262.5,-85 143.5,-85 143.5,-66 262.5,-66 262.5,-85"/>
<text text-anchor="middle" x="203" y="-73" font-family="Helvetica,sans-Serif" font-size="10.00">pycanha::Parameters</text>
</a>
</g>
</g>
<!-- Node6&#45;&gt;Node1 -->
<g id="edge6_Node000001_Node000006" class="edge">
<title>Node6&#45;&gt;Node1</title>
<g id="a_edge6_Node000001_Node000006"><a xlink:title=" ">
<path fill="none" stroke="#9a32cd" stroke-dasharray="5,2" d="M187.08,-58.83C174.5,-46.44 157.38,-29.59 147.04,-19.41"/>
<polygon fill="#9a32cd" stroke="#9a32cd" points="184.65,-61.35 194.23,-65.87 189.56,-56.36 184.65,-61.35"/>
</a>
</g>
<text text-anchor="middle" x="206.5" y="-40" font-family="Helvetica,sans-Serif" font-size="10.00" fill="grey"> _parameters</text>
</g>
</g>
</svg>
