<?xml version="1.0" encoding="UTF-8" standalone="no"?>
<!DOCTYPE svg PUBLIC "-//W3C//DTD SVG 1.1//EN"
 "http://www.w3.org/Graphics/SVG/1.1/DTD/svg11.dtd">
<!-- Generated by graphviz version 2.43.0 (0)
 -->
<!-- Title: pycanha::Solver Pages: 1 -->
<svg width="320pt" height="247pt"
 viewBox="0.00 0.00 319.50 247.00" xmlns="http://www.w3.org/2000/svg" xmlns:xlink="http://www.w3.org/1999/xlink">
<g id="graph0" class="graph" transform="scale(1 1) rotate(0) translate(4 243)">
<title>pycanha::Solver</title>
<!-- Node1 -->
<g id="Node000001" class="node">
<title>Node1</title>
<g id="a_Node000001"><a xlink:title=" ">
<polygon fill="#999999" stroke="#666666" points="206.5,-239 111.5,-239 111.5,-220 206.5,-220 206.5,-239"/>
<text text-anchor="middle" x="159" y="-227" font-family="Helvetica,sans-Serif" font-size="10.00">pycanha::Solver</text>
</a>
</g>
</g>
<!-- Node2 -->
<g id="Node000002" class="node">
<title>Node2</title>
<g id="a_Node000002"><a xlink:href="classpycanha_1_1SteadyStateSolver.html" target="_top" xlink:title=" ">
<polygon fill="white" stroke="#bfbfbf" points="154,-184 0,-184 0,-165 154,-165 154,-184"/>
<text text-anchor="middle" x="77" y="-172" font-family="Helvetica,sans-Serif" font-size="10.00">pycanha::SteadyStateSolver</text>
</a>
</g>
</g>
<!-- Node1&#45;&gt;Node2 -->
<g id="edge1_Node000001_Node000002" class="edge">
<title>Node1&#45;&gt;Node2</title>
<g id="a_edge1_Node000001_Node000002"><a xlink:title=" ">
<path fill="none" stroke="#63b8ff" d="M137.22,-214.42C122.34,-204.81 103.09,-192.37 90.41,-184.17"/>
<polygon fill="#63b8ff" stroke="#63b8ff" points="135.53,-217.5 145.83,-219.98 139.33,-211.62 135.53,-217.5"/>
</a>
</g>
</g>
<!-- Node4 -->
<g id="Node000004" class="node">
<title>Node4</title>
<g id="a_Node000004"><a xlink:href="classpycanha_1_1TransientSolver.html" target="_top" xlink:title=" ">
<polygon fill="white" stroke="#bfbfbf" points="311.5,-184 172.5,-184 172.5,-165 311.5,-165 311.5,-184"/>
<text text-anchor="middle" x="242" y="-172" font-family="Helvetica,sans-Serif" font-size="10.00">pycanha::TransientSolver</text>
</a>
</g>
</g>
<!-- Node1&#45;&gt;Node4 -->
<g id="edge3_Node000001_Node000004" class="edge">
<title>Node1&#45;&gt;Node4</title>
<g id="a_edge3_Node000001_Node000004"><a xlink:title=" ">
<path fill="none" stroke="#63b8ff" d="M181.04,-214.42C196.11,-204.81 215.59,-192.37 228.42,-184.17"/>
<polygon fill="#63b8ff" stroke="#63b8ff" points="178.88,-211.65 172.34,-219.98 182.65,-217.55 178.88,-211.65"/>
</a>
</g>
</g>
<!-- Node3 -->
<g id="Node000003" class="node">
<title>Node3</title>
<g id="a_Node000003"><a xlink:href="classpycanha_1_1SSLU.html" target="_top" xlink:title=" ">
<polygon fill="white" stroke="#bfbfbf" points="121.5,-129 32.5,-129 32.5,-110 121.5,-110 121.5,-129"/>
<text text-anchor="middle" x="77" y="-117" font-family="Helvetica,sans-Serif" font-size="10.00">pycanha::SSLU</text>
</a>
</g>
</g>
<!-- Node2&#45;&gt;Node3 -->
<g id="edge2_Node000002_Node000003" class="edge">
<title>Node2&#45;&gt;Node3</title>
<g id="a_edge2_Node000002_Node000003"><a xlink:title=" ">
<path fill="none" stroke="#63b8ff" d="M77,-154.66C77,-145.93 77,-135.99 77,-129.09"/>
<polygon fill="#63b8ff" stroke="#63b8ff" points="73.5,-154.75 77,-164.75 80.5,-154.75 73.5,-154.75"/>
</a>
</g>
</g>
<!-- Node5 -->
<g id="Node000005" class="node">
<title>Node5</title>
<g id="a_Node000005"><a xlink:href="classpycanha_1_1TSCN.html" target="_top" xlink:title=" ">
<polygon fill="white" stroke="#bfbfbf" points="287,-129 197,-129 197,-110 287,-110 287,-129"/>
<text text-anchor="middle" x="242" y="-117" font-family="Helvetica,sans-Serif" font-size="10.00">pycanha::TSCN</text>
</a>
</g>
</g>
<!-- Node4&#45;&gt;Node5 -->
<g id="edge4_Node000004_Node000005" class="edge">
<title>Node4&#45;&gt;Node5</title>
<g id="a_edge4_Node000004_Node000005"><a xlink:title=" ">
<path fill="none" stroke="#63b8ff" d="M242,-154.66C242,-145.93 242,-135.99 242,-129.09"/>
<polygon fill="#63b8ff" stroke="#63b8ff" points="238.5,-154.75 242,-164.75 245.5,-154.75 238.5,-154.75"/>
</a>
</g>
</g>
<!-- Node6 -->
<g id="Node000006" class="node">
<title>Node6</title>
<g id="a_Node000006"><a xlink:href="classpycanha_1_1TSCNRL.html" target="_top" xlink:title=" ">
<polygon fill="white" stroke="#bfbfbf" points="293,-74 191,-74 191,-55 293,-55 293,-74"/>
<text text-anchor="middle" x="242" y="-62" font-family="Helvetica,sans-Serif" font-size="10.00">pycanha::TSCNRL</text>
</a>
</g>
</g>
<!-- Node5&#45;&gt;Node6 -->
<g id="edge5_Node000005_Node000006" class="edge">
<title>Node5&#45;&gt;Node6</title>
<g id="a_edge5_Node000005_Node000006"><a xlink:title=" ">
<path fill="none" stroke="#63b8ff" d="M242,-99.66C242,-90.93 242,-80.99 242,-74.09"/>
<polygon fill="#63b8ff" stroke="#63b8ff" points="238.5,-99.75 242,-109.75 245.5,-99.75 238.5,-99.75"/>
</a>
</g>
</g>
<!-- Node7 -->
<g id="Node000007" class="node">
<title>Node7</title>
<g id="a_Node000007"><a xlink:href="classpycanha_1_1TSCNRLDS.html" target="_top" xlink:title=" ">
<polygon fill="white" stroke="#bfbfbf" points="300,-19 184,-19 184,0 300,0 300,-19"/>
<text text-anchor="middle" x="242" y="-7" font-family="Helvetica,sans-Serif" font-size="10.00">pycanha::TSCNRLDS</text>
</a>
</g>
</g>
<!-- Node6&#45;&gt;Node7 -->
<g id="edge6_Node000006_Node000007" class="edge">
<title>Node6&#45;&gt;Node7</title>
<g id="a_edge6_Node000006_Node000007"><a xlink:title=" ">
<path fill="none" stroke="#63b8ff" d="M242,-44.66C242,-35.93 242,-25.99 242,-19.09"/>
<polygon fill="#63b8ff" stroke="#63b8ff" points="238.5,-44.75 242,-54.75 245.5,-44.75 238.5,-44.75"/>
</a>
</g>
</g>
</g>
</svg>
