<?xml version="1.0" encoding="UTF-8" standalone="no"?>
<!DOCTYPE svg PUBLIC "-//W3C//DTD SVG 1.1//EN"
 "http://www.w3.org/Graphics/SVG/1.1/DTD/svg11.dtd">
<!-- Generated by graphviz version 2.43.0 (0)
 -->
<!-- Title: pycanha::gmm::Triangle::distance_jacobian_cutted_surface Pages: 1 -->
<svg width="342pt" height="64pt"
 viewBox="0.00 0.00 342.00 64.00" xmlns="http://www.w3.org/2000/svg" xmlns:xlink="http://www.w3.org/1999/xlink">
<g id="graph0" class="graph" transform="scale(1 1) rotate(0) translate(4 60)">
<title>pycanha::gmm::Triangle::distance_jacobian_cutted_surface</title>
<!-- Node1 -->
<g id="Node000001" class="node">
<title>Node1</title>
<g id="a_Node000001"><a xlink:title="Calculates the minimum distance and the jacobian from a point to the extended surface....">
<polygon fill="#999999" stroke="#666666" points="146,-48 0,-48 0,-7 146,-7 146,-48"/>
<text text-anchor="start" x="8" y="-36" font-family="Helvetica,sans-Serif" font-size="10.00">pycanha::gmm::Triangle</text>
<text text-anchor="start" x="8" y="-25" font-family="Helvetica,sans-Serif" font-size="10.00">::distance_jacobian_cutted</text>
<text text-anchor="middle" x="73" y="-14" font-family="Helvetica,sans-Serif" font-size="10.00">_surface</text>
</a>
</g>
</g>
<!-- Node2 -->
<g id="Node000002" class="node">
<title>Node2</title>
<g id="a_Node000002"><a xlink:href="classpycanha_1_1gmm_1_1Triangle.html#af4f67a2841391839a57889d67443ef0c" target="_top" xlink:title="Returns the first direction v1 = p2 &#45; p1.">
<polygon fill="white" stroke="#666666" points="334,-56 182,-56 182,-37 334,-37 334,-56"/>
<text text-anchor="middle" x="258" y="-44" font-family="Helvetica,sans-Serif" font-size="10.00">pycanha::gmm::Triangle::v1</text>
</a>
</g>
</g>
<!-- Node1&#45;&gt;Node2 -->
<g id="edge1_Node000001_Node000002" class="edge">
<title>Node1&#45;&gt;Node2</title>
<g id="a_edge1_Node000001_Node000002"><a xlink:title=" ">
<path fill="none" stroke="#63b8ff" d="M146.06,-34.98C154.55,-35.86 163.26,-36.77 171.9,-37.66"/>
<polygon fill="#63b8ff" stroke="#63b8ff" points="171.68,-41.16 181.99,-38.71 172.41,-34.2 171.68,-41.16"/>
</a>
</g>
</g>
<!-- Node3 -->
<g id="Node000003" class="node">
<title>Node3</title>
<g id="a_Node000003"><a xlink:href="classpycanha_1_1gmm_1_1Triangle.html#a113cd18f27bd12d15681af628524300c" target="_top" xlink:title="Returns the second direction v2 = p3 &#45; p2.">
<polygon fill="white" stroke="#666666" points="334,-19 182,-19 182,0 334,0 334,-19"/>
<text text-anchor="middle" x="258" y="-7" font-family="Helvetica,sans-Serif" font-size="10.00">pycanha::gmm::Triangle::v2</text>
</a>
</g>
</g>
<!-- Node1&#45;&gt;Node3 -->
<g id="edge2_Node000001_Node000003" class="edge">
<title>Node1&#45;&gt;Node3</title>
<g id="a_edge2_Node000001_Node000003"><a xlink:title=" ">
<path fill="none" stroke="#63b8ff" d="M146.06,-20.41C154.55,-19.58 163.26,-18.72 171.9,-17.87"/>
<polygon fill="#63b8ff" stroke="#63b8ff" points="172.38,-21.34 181.99,-16.88 171.7,-14.37 172.38,-21.34"/>
</a>
</g>
</g>
</g>
</svg>
