<?xml version="1.0" encoding="UTF-8" standalone="no"?>
<!DOCTYPE svg PUBLIC "-//W3C//DTD SVG 1.1//EN"
 "http://www.w3.org/Graphics/SVG/1.1/DTD/svg11.dtd">
<!-- Generated by graphviz version 2.43.0 (0)
 -->
<!-- Title: pycanha::ValueFormula Pages: 1 -->
<svg width="278pt" height="314pt"
 viewBox="0.00 0.00 277.50 314.00" xmlns="http://www.w3.org/2000/svg" xmlns:xlink="http://www.w3.org/1999/xlink">
<g id="graph0" class="graph" transform="scale(1 1) rotate(0) translate(4 310)">
<title>pycanha::ValueFormula</title>
<!-- Node1 -->
<g id="Node000001" class="node">
<title>Node1</title>
<g id="a_Node000001"><a xlink:title=" ">
<polygon fill="#999999" stroke="#666666" points="138.5,-19 7.5,-19 7.5,0 138.5,0 138.5,-19"/>
<text text-anchor="middle" x="73" y="-7" font-family="Helvetica,sans-Serif" font-size="10.00">pycanha::ValueFormula</text>
</a>
</g>
</g>
<!-- Node2 -->
<g id="Node000002" class="node">
<title>Node2</title>
<g id="a_Node000002"><a xlink:href="classpycanha_1_1Formula.html" target="_top" xlink:title=" ">
<polygon fill="white" stroke="#bfbfbf" points="125,-75 21,-75 21,-56 125,-56 125,-75"/>
<text text-anchor="middle" x="73" y="-63" font-family="Helvetica,sans-Serif" font-size="10.00">pycanha::Formula</text>
</a>
</g>
</g>
<!-- Node2&#45;&gt;Node1 -->
<g id="edge1_Node000001_Node000002" class="edge">
<title>Node2&#45;&gt;Node1</title>
<g id="a_edge1_Node000001_Node000002"><a xlink:title=" ">
<path fill="none" stroke="#63b8ff" d="M73,-45.3C73,-36.41 73,-26.28 73,-19.25"/>
<polygon fill="#63b8ff" stroke="#63b8ff" points="69.5,-45.58 73,-55.58 76.5,-45.58 69.5,-45.58"/>
</a>
</g>
</g>
<!-- Node3 -->
<g id="Node000003" class="node">
<title>Node3</title>
<g id="a_Node000003"><a xlink:href="classpycanha_1_1Entity.html" target="_top" xlink:title=" ">
<polygon fill="white" stroke="#bfbfbf" points="119,-141 27,-141 27,-122 119,-122 119,-141"/>
<text text-anchor="middle" x="73" y="-129" font-family="Helvetica,sans-Serif" font-size="10.00">pycanha::Entity</text>
</a>
</g>
</g>
<!-- Node3&#45;&gt;Node2 -->
<g id="edge2_Node000002_Node000003" class="edge">
<title>Node3&#45;&gt;Node2</title>
<g id="a_edge2_Node000002_Node000003"><a xlink:title=" ">
<path fill="none" stroke="#9a32cd" stroke-dasharray="5,2" d="M73,-111.58C73,-99.63 73,-84.72 73,-75.41"/>
<polygon fill="#9a32cd" stroke="#9a32cd" points="69.5,-111.87 73,-121.87 76.5,-111.87 69.5,-111.87"/>
</a>
</g>
<text text-anchor="middle" x="91.5" y="-96" font-family="Helvetica,sans-Serif" font-size="10.00" fill="grey"> _entity</text>
</g>
<!-- Node4 -->
<g id="Node000004" class="node">
<title>Node4</title>
<g id="a_Node000004"><a xlink:href="classpycanha_1_1ThermalNetwork.html" target="_top" xlink:title=" ">
<polygon fill="white" stroke="#bfbfbf" points="146,-306 0,-306 0,-287 146,-287 146,-306"/>
<text text-anchor="middle" x="73" y="-294" font-family="Helvetica,sans-Serif" font-size="10.00">pycanha::ThermalNetwork</text>
</a>
</g>
</g>
<!-- Node4&#45;&gt;Node3 -->
<g id="edge3_Node000003_Node000004" class="edge">
<title>Node4&#45;&gt;Node3</title>
<g id="a_edge3_Node000003_Node000004"><a xlink:title=" ">
<path fill="none" stroke="#9a32cd" stroke-dasharray="5,2" d="M70.72,-276.85C68.38,-255.42 65.32,-219.17 67,-188 67.9,-171.35 70.3,-152.02 71.78,-141.13"/>
<polygon fill="#9a32cd" stroke="#9a32cd" points="67.25,-277.33 71.88,-286.86 74.2,-276.53 67.25,-277.33"/>
</a>
</g>
<text text-anchor="middle" x="91.5" y="-195" font-family="Helvetica,sans-Serif" font-size="10.00" fill="grey"> _network</text>
</g>
<!-- Node5 -->
<g id="Node000005" class="node">
<title>Node5</title>
<g id="a_Node000005"><a xlink:href="structpycanha_1_1detail_1_1EntityOps.html" target="_top" xlink:title=" ">
<polygon fill="white" stroke="#bfbfbf" points="269.5,-207 124.5,-207 124.5,-188 269.5,-188 269.5,-207"/>
<text text-anchor="middle" x="197" y="-195" font-family="Helvetica,sans-Serif" font-size="10.00">pycanha::detail::EntityOps</text>
</a>
</g>
</g>
<!-- Node4&#45;&gt;Node5 -->
<g id="edge5_Node000005_Node000004" class="edge">
<title>Node4&#45;&gt;Node5</title>
<g id="a_edge5_Node000005_Node000004"><a xlink:title=" ">
<path fill="none" stroke="#9a32cd" stroke-dasharray="5,2" d="M92.06,-280.59C118.28,-260.08 164.63,-223.82 185.84,-207.23"/>
<polygon fill="#9a32cd" stroke="#9a32cd" points="89.72,-277.97 84,-286.89 94.04,-283.49 89.72,-277.97"/>
</a>
</g>
<text text-anchor="middle" x="193.5" y="-261" font-family="Helvetica,sans-Serif" font-size="10.00" fill="grey"> exists</text>
<text text-anchor="middle" x="193.5" y="-250" font-family="Helvetica,sans-Serif" font-size="10.00" fill="grey">get_value</text>
<text text-anchor="middle" x="193.5" y="-239" font-family="Helvetica,sans-Serif" font-size="10.00" fill="grey">get_value_ref</text>
<text text-anchor="middle" x="193.5" y="-228" font-family="Helvetica,sans-Serif" font-size="10.00" fill="grey">set_value</text>
</g>
<!-- Node5&#45;&gt;Node3 -->
<g id="edge4_Node000003_Node000005" class="edge">
<title>Node5&#45;&gt;Node3</title>
<g id="a_edge4_Node000003_Node000005"><a xlink:title=" ">
<path fill="none" stroke="#9a32cd" stroke-dasharray="5,2" d="M171.22,-183.19C146.79,-170.59 110.81,-152.01 89.85,-141.2"/>
<polygon fill="#9a32cd" stroke="#9a32cd" points="169.79,-186.39 180.28,-187.87 173,-180.17 169.79,-186.39"/>
</a>
</g>
<text text-anchor="middle" x="155" y="-162" font-family="Helvetica,sans-Serif" font-size="10.00" fill="grey"> _ops</text>
</g>
</g>
</svg>
