<?xml version="1.0" encoding="UTF-8" standalone="no"?>
<!DOCTYPE svg PUBLIC "-//W3C//DTD SVG 1.1//EN"
 "http://www.w3.org/Graphics/SVG/1.1/DTD/svg11.dtd">
<!-- Generated by graphviz version 2.43.0 (0)
 -->
<!-- Title: pycanha::gmm::TriMeshModel::add_mesh Pages: 1 -->
<svg width="340pt" height="480pt"
 viewBox="0.00 0.00 340.00 480.00" xmlns="http://www.w3.org/2000/svg" xmlns:xlink="http://www.w3.org/1999/xlink">
<g id="graph0" class="graph" transform="scale(1 1) rotate(0) translate(4 476)">
<title>pycanha::gmm::TriMeshModel::add_mesh</title>
<!-- Node1 -->
<g id="node1" class="node">
<title>Node1</title>
<g id="a_node1"><a xlink:title="Aggregate the contents of a Trimesh to this one.">
<polygon fill="#bfbfbf" stroke="black" points="0,-220.5 0,-250.5 163,-250.5 163,-220.5 0,-220.5"/>
<text text-anchor="start" x="8" y="-238.5" font-family="Helvetica,sans-Serif" font-size="10.00">pycanha::gmm::TriMeshModel</text>
<text text-anchor="middle" x="81.5" y="-227.5" font-family="Helvetica,sans-Serif" font-size="10.00">::add_mesh</text>
</a>
</g>
</g>
<!-- Node2 -->
<g id="node2" class="node">
<title>Node2</title>
<g id="a_node2"><a xlink:href="classpycanha_1_1gmm_1_1TriMesh.html#a1c18146513be80ad67217cfdb36c7601" target="_top" xlink:title="Get cummulative area vector.">
<polygon fill="none" stroke="black" points="199,-441.5 199,-471.5 332,-471.5 332,-441.5 199,-441.5"/>
<text text-anchor="start" x="207" y="-459.5" font-family="Helvetica,sans-Serif" font-size="10.00">pycanha::gmm::TriMesh</text>
<text text-anchor="middle" x="265.5" y="-448.5" font-family="Helvetica,sans-Serif" font-size="10.00">::get_cumareas</text>
</a>
</g>
</g>
<!-- Node1&#45;&gt;Node2 -->
<g id="edge1" class="edge">
<title>Node1&#45;&gt;Node2</title>
<path fill="none" stroke="midnightblue" d="M87.44,-250.7C100.07,-287.26 137,-380.91 199,-432.5 200.54,-433.78 202.15,-434.99 203.81,-436.14"/>
<polygon fill="midnightblue" stroke="midnightblue" points="202.19,-439.25 212.57,-441.4 205.79,-433.25 202.19,-439.25"/>
</g>
<!-- Node3 -->
<g id="node3" class="node">
<title>Node3</title>
<g id="a_node3"><a xlink:href="classpycanha_1_1gmm_1_1TriMesh.html#ac96e1edfa90d2ef931bfb038d9eeede3" target="_top" xlink:title="Get edges.">
<polygon fill="none" stroke="black" points="199,-392.5 199,-422.5 332,-422.5 332,-392.5 199,-392.5"/>
<text text-anchor="start" x="207" y="-410.5" font-family="Helvetica,sans-Serif" font-size="10.00">pycanha::gmm::TriMesh</text>
<text text-anchor="middle" x="265.5" y="-399.5" font-family="Helvetica,sans-Serif" font-size="10.00">::get_edges</text>
</a>
</g>
</g>
<!-- Node1&#45;&gt;Node3 -->
<g id="edge2" class="edge">
<title>Node1&#45;&gt;Node3</title>
<path fill="none" stroke="midnightblue" d="M90.65,-250.78C107.22,-280.46 147.65,-346.25 199,-383.5 201.06,-384.99 203.22,-386.4 205.45,-387.73"/>
<polygon fill="midnightblue" stroke="midnightblue" points="203.89,-390.87 214.36,-392.48 207.18,-384.69 203.89,-390.87"/>
</g>
<!-- Node4 -->
<g id="node4" class="node">
<title>Node4</title>
<g id="a_node4"><a xlink:href="classpycanha_1_1gmm_1_1TriMesh.html#a81f6628b978aaeac9d36fafc63e0eead" target="_top" xlink:title="Get face ids vector.">
<polygon fill="none" stroke="black" points="199,-343.5 199,-373.5 332,-373.5 332,-343.5 199,-343.5"/>
<text text-anchor="start" x="207" y="-361.5" font-family="Helvetica,sans-Serif" font-size="10.00">pycanha::gmm::TriMesh</text>
<text text-anchor="middle" x="265.5" y="-350.5" font-family="Helvetica,sans-Serif" font-size="10.00">::get_face_ids</text>
</a>
</g>
</g>
<!-- Node1&#45;&gt;Node4 -->
<g id="edge3" class="edge">
<title>Node1&#45;&gt;Node4</title>
<path fill="none" stroke="midnightblue" d="M96.99,-250.84C117.8,-272.14 158.18,-310.71 199,-334.5 201.82,-336.15 204.78,-337.71 207.81,-339.2"/>
<polygon fill="midnightblue" stroke="midnightblue" points="206.52,-342.45 217.07,-343.41 209.41,-336.08 206.52,-342.45"/>
</g>
<!-- Node5 -->
<g id="node5" class="node">
<title>Node5</title>
<g id="a_node5"><a xlink:href="classpycanha_1_1gmm_1_1TriMesh.html#ac519c05be1a8304a4674b79c5a827551" target="_top" xlink:title="Get faces edges vector of indices.">
<polygon fill="none" stroke="black" points="199,-294.5 199,-324.5 332,-324.5 332,-294.5 199,-294.5"/>
<text text-anchor="start" x="207" y="-312.5" font-family="Helvetica,sans-Serif" font-size="10.00">pycanha::gmm::TriMesh</text>
<text text-anchor="middle" x="265.5" y="-301.5" font-family="Helvetica,sans-Serif" font-size="10.00">::get_faces_edges</text>
</a>
</g>
</g>
<!-- Node1&#45;&gt;Node5 -->
<g id="edge4" class="edge">
<title>Node1&#45;&gt;Node5</title>
<path fill="none" stroke="midnightblue" d="M116.2,-250.54C139.36,-260.73 170.88,-274.32 199,-285.5 203.48,-287.28 208.14,-289.09 212.83,-290.87"/>
<polygon fill="midnightblue" stroke="midnightblue" points="211.85,-294.24 222.44,-294.47 214.31,-287.68 211.85,-294.24"/>
</g>
<!-- Node6 -->
<g id="node6" class="node">
<title>Node6</title>
<g id="a_node6"><a xlink:href="classpycanha_1_1gmm_1_1TriMesh.html#a9738f0ec5e4816d990b04a54e3081ced" target="_top" xlink:title="Get the number of faces.">
<polygon fill="none" stroke="black" points="199,-245.5 199,-275.5 332,-275.5 332,-245.5 199,-245.5"/>
<text text-anchor="start" x="207" y="-263.5" font-family="Helvetica,sans-Serif" font-size="10.00">pycanha::gmm::TriMesh</text>
<text text-anchor="middle" x="265.5" y="-252.5" font-family="Helvetica,sans-Serif" font-size="10.00">::get_number_of_faces</text>
</a>
</g>
</g>
<!-- Node1&#45;&gt;Node6 -->
<g id="edge5" class="edge">
<title>Node1&#45;&gt;Node6</title>
<path fill="none" stroke="midnightblue" d="M163.12,-246.57C171.73,-247.76 180.47,-248.96 189.02,-250.13"/>
<polygon fill="midnightblue" stroke="midnightblue" points="188.56,-253.6 198.95,-251.5 189.52,-246.67 188.56,-253.6"/>
</g>
<!-- Node7 -->
<g id="node7" class="node">
<title>Node7</title>
<g id="a_node7"><a xlink:href="classpycanha_1_1gmm_1_1TriMesh.html#ae06f494211f1c8d830818babc1e79b3e" target="_top" xlink:title="Get perimeter edges indices.">
<polygon fill="none" stroke="black" points="199,-196.5 199,-226.5 332,-226.5 332,-196.5 199,-196.5"/>
<text text-anchor="start" x="207" y="-214.5" font-family="Helvetica,sans-Serif" font-size="10.00">pycanha::gmm::TriMesh</text>
<text text-anchor="middle" x="265.5" y="-203.5" font-family="Helvetica,sans-Serif" font-size="10.00">::get_perimeter_edges</text>
</a>
</g>
</g>
<!-- Node1&#45;&gt;Node7 -->
<g id="edge6" class="edge">
<title>Node1&#45;&gt;Node7</title>
<path fill="none" stroke="midnightblue" d="M163.12,-224.87C171.73,-223.73 180.47,-222.58 189.02,-221.45"/>
<polygon fill="midnightblue" stroke="midnightblue" points="189.49,-224.92 198.95,-220.14 188.58,-217.98 189.49,-224.92"/>
</g>
<!-- Node8 -->
<g id="node8" class="node">
<title>Node8</title>
<g id="a_node8"><a xlink:href="classpycanha_1_1gmm_1_1TriMesh.html#a363615026bd82597d9dfccf5f562acd1" target="_top" xlink:title="Get the surface 1 color.">
<polygon fill="none" stroke="black" points="199,-147.5 199,-177.5 332,-177.5 332,-147.5 199,-147.5"/>
<text text-anchor="start" x="207" y="-165.5" font-family="Helvetica,sans-Serif" font-size="10.00">pycanha::gmm::TriMesh</text>
<text text-anchor="middle" x="265.5" y="-154.5" font-family="Helvetica,sans-Serif" font-size="10.00">::get_surface1_color</text>
</a>
</g>
</g>
<!-- Node1&#45;&gt;Node8 -->
<g id="edge7" class="edge">
<title>Node1&#45;&gt;Node8</title>
<path fill="none" stroke="midnightblue" d="M118.35,-220.44C141.34,-210.86 171.86,-198.27 199,-187.5 204.16,-185.45 209.56,-183.34 214.96,-181.25"/>
<polygon fill="midnightblue" stroke="midnightblue" points="216.53,-184.4 224.6,-177.54 214.01,-177.87 216.53,-184.4"/>
</g>
<!-- Node9 -->
<g id="node9" class="node">
<title>Node9</title>
<g id="a_node9"><a xlink:href="classpycanha_1_1gmm_1_1TriMesh.html#a375ef908d3a6b26b69aebeaf7832b627" target="_top" xlink:title="Get the surface 2 color.">
<polygon fill="none" stroke="black" points="199,-98.5 199,-128.5 332,-128.5 332,-98.5 199,-98.5"/>
<text text-anchor="start" x="207" y="-116.5" font-family="Helvetica,sans-Serif" font-size="10.00">pycanha::gmm::TriMesh</text>
<text text-anchor="middle" x="265.5" y="-105.5" font-family="Helvetica,sans-Serif" font-size="10.00">::get_surface2_color</text>
</a>
</g>
</g>
<!-- Node1&#45;&gt;Node9 -->
<g id="edge8" class="edge">
<title>Node1&#45;&gt;Node9</title>
<path fill="none" stroke="midnightblue" d="M97.45,-220.21C118.49,-199.39 158.79,-162.03 199,-138.5 202.45,-136.48 206.09,-134.57 209.81,-132.77"/>
<polygon fill="midnightblue" stroke="midnightblue" points="211.52,-135.84 219.19,-128.54 208.64,-129.46 211.52,-135.84"/>
</g>
<!-- Node10 -->
<g id="node10" class="node">
<title>Node10</title>
<g id="a_node10"><a xlink:href="classpycanha_1_1gmm_1_1TriMesh.html#a113cdc2728d6b47e8841ef9732ebd9b2" target="_top" xlink:title="Get triangles matrix.">
<polygon fill="none" stroke="black" points="199,-49.5 199,-79.5 332,-79.5 332,-49.5 199,-49.5"/>
<text text-anchor="start" x="207" y="-67.5" font-family="Helvetica,sans-Serif" font-size="10.00">pycanha::gmm::TriMesh</text>
<text text-anchor="middle" x="265.5" y="-56.5" font-family="Helvetica,sans-Serif" font-size="10.00">::get_triangles</text>
</a>
</g>
</g>
<!-- Node1&#45;&gt;Node10 -->
<g id="edge9" class="edge">
<title>Node1&#45;&gt;Node10</title>
<path fill="none" stroke="midnightblue" d="M90.75,-220.49C107.49,-191.32 148.2,-126.61 199,-89.5 201.52,-87.66 204.2,-85.93 206.97,-84.32"/>
<polygon fill="midnightblue" stroke="midnightblue" points="208.85,-87.29 216.09,-79.55 205.6,-81.09 208.85,-87.29"/>
</g>
<!-- Node11 -->
<g id="node11" class="node">
<title>Node11</title>
<g id="a_node11"><a xlink:href="classpycanha_1_1gmm_1_1TriMesh.html#a5e7a2cc9ec97ba48a13277d2c391e928" target="_top" xlink:title="Get vertices matrix.">
<polygon fill="none" stroke="black" points="199,-0.5 199,-30.5 332,-30.5 332,-0.5 199,-0.5"/>
<text text-anchor="start" x="207" y="-18.5" font-family="Helvetica,sans-Serif" font-size="10.00">pycanha::gmm::TriMesh</text>
<text text-anchor="middle" x="265.5" y="-7.5" font-family="Helvetica,sans-Serif" font-size="10.00">::get_vertices</text>
</a>
</g>
</g>
<!-- Node1&#45;&gt;Node11 -->
<g id="edge10" class="edge">
<title>Node1&#45;&gt;Node11</title>
<path fill="none" stroke="midnightblue" d="M87.62,-220.24C100.54,-183.98 137.84,-91.85 199,-40.5 201,-38.82 203.12,-37.25 205.33,-35.78"/>
<polygon fill="midnightblue" stroke="midnightblue" points="207.37,-38.64 214.24,-30.58 203.84,-32.6 207.37,-38.64"/>
</g>
</g>
</svg>
