<?xml version="1.0" encoding="UTF-8" standalone="no"?>
<!DOCTYPE svg PUBLIC "-//W3C//DTD SVG 1.1//EN"
 "http://www.w3.org/Graphics/SVG/1.1/DTD/svg11.dtd">
<!-- Generated by graphviz version 2.43.0 (0)
 -->
<!-- Title: pycanha::Formula Pages: 1 -->
<svg width="487pt" height="82pt"
 viewBox="0.00 0.00 487.00 82.00" xmlns="http://www.w3.org/2000/svg" xmlns:xlink="http://www.w3.org/1999/xlink">
<g id="graph0" class="graph" transform="scale(1 1) rotate(0) translate(4 78)">
<title>pycanha::Formula</title>
<!-- Node1 -->
<g id="Node000001" class="node">
<title>Node1</title>
<g id="a_Node000001"><a xlink:title=" ">
<polygon fill="#999999" stroke="#666666" points="304.5,-74 200.5,-74 200.5,-55 304.5,-55 304.5,-74"/>
<text text-anchor="middle" x="252.5" y="-62" font-family="Helvetica,sans-Serif" font-size="10.00">pycanha::Formula</text>
</a>
</g>
</g>
<!-- Node2 -->
<g id="Node000002" class="node">
<title>Node2</title>
<g id="a_Node000002"><a xlink:href="classpycanha_1_1ExpressionFormula.html" target="_top" xlink:title=" ">
<polygon fill="white" stroke="#bfbfbf" points="157,-19 0,-19 0,0 157,0 157,-19"/>
<text text-anchor="middle" x="78.5" y="-7" font-family="Helvetica,sans-Serif" font-size="10.00">pycanha::ExpressionFormula</text>
</a>
</g>
</g>
<!-- Node1&#45;&gt;Node2 -->
<g id="edge1_Node000001_Node000002" class="edge">
<title>Node1&#45;&gt;Node2</title>
<g id="a_edge1_Node000001_Node000002"><a xlink:title=" ">
<path fill="none" stroke="#63b8ff" d="M214.93,-52.06C182.41,-42.15 136.1,-28.04 106.68,-19.08"/>
<polygon fill="#63b8ff" stroke="#63b8ff" points="213.96,-55.42 224.54,-54.98 216,-48.72 213.96,-55.42"/>
</a>
</g>
</g>
<!-- Node3 -->
<g id="Node000003" class="node">
<title>Node3</title>
<g id="a_Node000003"><a xlink:href="classpycanha_1_1ParameterFormula.html" target="_top" xlink:title=" ">
<polygon fill="white" stroke="#bfbfbf" points="329.5,-19 175.5,-19 175.5,0 329.5,0 329.5,-19"/>
<text text-anchor="middle" x="252.5" y="-7" font-family="Helvetica,sans-Serif" font-size="10.00">pycanha::ParameterFormula</text>
</a>
</g>
</g>
<!-- Node1&#45;&gt;Node3 -->
<g id="edge2_Node000001_Node000003" class="edge">
<title>Node1&#45;&gt;Node3</title>
<g id="a_edge2_Node000001_Node000003"><a xlink:title=" ">
<path fill="none" stroke="#63b8ff" d="M252.5,-44.66C252.5,-35.93 252.5,-25.99 252.5,-19.09"/>
<polygon fill="#63b8ff" stroke="#63b8ff" points="249,-44.75 252.5,-54.75 256,-44.75 249,-44.75"/>
</a>
</g>
</g>
<!-- Node4 -->
<g id="Node000004" class="node">
<title>Node4</title>
<g id="a_Node000004"><a xlink:href="classpycanha_1_1ValueFormula.html" target="_top" xlink:title=" ">
<polygon fill="white" stroke="#bfbfbf" points="479,-19 348,-19 348,0 479,0 479,-19"/>
<text text-anchor="middle" x="413.5" y="-7" font-family="Helvetica,sans-Serif" font-size="10.00">pycanha::ValueFormula</text>
</a>
</g>
</g>
<!-- Node1&#45;&gt;Node4 -->
<g id="edge3_Node000001_Node000004" class="edge">
<title>Node1&#45;&gt;Node4</title>
<g id="a_edge3_Node000001_Node000004"><a xlink:title=" ">
<path fill="none" stroke="#63b8ff" d="M288.05,-51.8C318.09,-41.91 360.44,-27.97 387.43,-19.08"/>
<polygon fill="#63b8ff" stroke="#63b8ff" points="286.77,-48.53 278.37,-54.98 288.96,-55.18 286.77,-48.53"/>
</a>
</g>
</g>
</g>
</svg>
