<?xml version="1.0" encoding="UTF-8" standalone="no"?>
<!DOCTYPE svg PUBLIC "-//W3C//DTD SVG 1.1//EN"
 "http://www.w3.org/Graphics/SVG/1.1/DTD/svg11.dtd">
<!-- Generated by graphviz version 2.43.0 (0)
 -->
<!-- Title: pycanha::gmm::GeometryModel Pages: 1 -->
<svg width="336pt" height="95pt"
 viewBox="0.00 0.00 336.00 95.00" xmlns="http://www.w3.org/2000/svg" xmlns:xlink="http://www.w3.org/1999/xlink">
<g id="graph0" class="graph" transform="scale(1 1) rotate(0) translate(4 91)">
<title>pycanha::gmm::GeometryModel</title>
<!-- Node1 -->
<g id="node1" class="node">
<title>Node1</title>
<g id="a_node1"><a xlink:title="Class representing a geometrical mathematical model.">
<polygon fill="#bfbfbf" stroke="black" points="69,-0.5 69,-19.5 243,-19.5 243,-0.5 69,-0.5"/>
<text text-anchor="middle" x="156" y="-7.5" font-family="Helvetica,sans-Serif" font-size="10.00">pycanha::gmm::GeometryModel</text>
</a>
</g>
</g>
<!-- Node2 -->
<g id="node2" class="node">
<title>Node2</title>
<g id="a_node2"><a xlink:href="classpycanha_1_1gmm_1_1UniqueID.html" target="_top" xlink:title="Provides a unique integer id.">
<polygon fill="none" stroke="black" points="0,-62 0,-81 140,-81 140,-62 0,-62"/>
<text text-anchor="middle" x="70" y="-69" font-family="Helvetica,sans-Serif" font-size="10.00">pycanha::gmm::UniqueID</text>
</a>
</g>
</g>
<!-- Node2&#45;&gt;Node1 -->
<g id="edge1" class="edge">
<title>Node2&#45;&gt;Node1</title>
<path fill="none" stroke="midnightblue" d="M90.8,-56.11C107.34,-44.67 129.92,-29.05 143.7,-19.51"/>
<polygon fill="midnightblue" stroke="midnightblue" points="88.55,-53.41 82.32,-61.98 92.54,-59.16 88.55,-53.41"/>
</g>
<!-- Node3 -->
<g id="node3" class="node">
<title>Node3</title>
<g id="a_node3"><a xlink:title=" ">
<polygon fill="none" stroke="#bfbfbf" points="158,-56.5 158,-86.5 328,-86.5 328,-56.5 158,-56.5"/>
<text text-anchor="start" x="166" y="-74.5" font-family="Helvetica,sans-Serif" font-size="10.00">std::enable_shared</text>
<text text-anchor="middle" x="243" y="-63.5" font-family="Helvetica,sans-Serif" font-size="10.00">_from_this&lt; GeometryModel &gt;</text>
</a>
</g>
</g>
<!-- Node3&#45;&gt;Node1 -->
<g id="edge2" class="edge">
<title>Node3&#45;&gt;Node1</title>
<path fill="none" stroke="midnightblue" d="M213.73,-50.48C198.41,-40 180.43,-27.71 168.66,-19.66"/>
<polygon fill="midnightblue" stroke="midnightblue" points="212.15,-53.64 222.38,-56.4 216.1,-47.87 212.15,-53.64"/>
</g>
</g>
</svg>
