<?xml version="1.0" encoding="UTF-8" standalone="no"?>
<!DOCTYPE svg PUBLIC "-//W3C//DTD SVG 1.1//EN"
 "http://www.w3.org/Graphics/SVG/1.1/DTD/svg11.dtd">
<!-- Generated by graphviz version 2.43.0 (0)
 -->
<!-- Title: pycanha::ConductiveCouplings Pages: 1 -->
<svg width="175pt" height="159pt"
 viewBox="0.00 0.00 175.00 159.00" xmlns="http://www.w3.org/2000/svg" xmlns:xlink="http://www.w3.org/1999/xlink">
<g id="graph0" class="graph" transform="scale(1 1) rotate(0) translate(4 155)">
<title>pycanha::ConductiveCouplings</title>
<!-- Node1 -->
<g id="Node000001" class="node">
<title>Node1</title>
<g id="a_Node000001"><a xlink:title=" ">
<polygon fill="#999999" stroke="#666666" points="167,-19 0,-19 0,0 167,0 167,-19"/>
<text text-anchor="middle" x="83.5" y="-7" font-family="Helvetica,sans-Serif" font-size="10.00">pycanha::ConductiveCouplings</text>
</a>
</g>
</g>
<!-- Node2 -->
<g id="Node000002" class="node">
<title>Node2</title>
<g id="a_Node000002"><a xlink:href="classpycanha_1_1Couplings.html" target="_top" xlink:title=" ">
<polygon fill="white" stroke="#666666" points="139.5,-85 27.5,-85 27.5,-66 139.5,-66 139.5,-85"/>
<text text-anchor="middle" x="83.5" y="-73" font-family="Helvetica,sans-Serif" font-size="10.00">pycanha::Couplings</text>
</a>
</g>
</g>
<!-- Node2&#45;&gt;Node1 -->
<g id="edge1_Node000001_Node000002" class="edge">
<title>Node2&#45;&gt;Node1</title>
<g id="a_edge1_Node000001_Node000002"><a xlink:title=" ">
<path fill="none" stroke="#9a32cd" stroke-dasharray="5,2" d="M83.5,-55.58C83.5,-43.63 83.5,-28.72 83.5,-19.41"/>
<polygon fill="#9a32cd" stroke="#9a32cd" points="80,-55.87 83.5,-65.87 87,-55.87 80,-55.87"/>
</a>
</g>
<text text-anchor="middle" x="111" y="-40" font-family="Helvetica,sans-Serif" font-size="10.00" fill="grey"> _couplings</text>
</g>
<!-- Node3 -->
<g id="Node000003" class="node">
<title>Node3</title>
<g id="a_Node000003"><a xlink:href="classpycanha_1_1CouplingMatrices.html" target="_top" xlink:title=" ">
<polygon fill="white" stroke="#bfbfbf" points="158,-151 9,-151 9,-132 158,-132 158,-151"/>
<text text-anchor="middle" x="83.5" y="-139" font-family="Helvetica,sans-Serif" font-size="10.00">pycanha::CouplingMatrices</text>
</a>
</g>
</g>
<!-- Node3&#45;&gt;Node2 -->
<g id="edge2_Node000002_Node000003" class="edge">
<title>Node3&#45;&gt;Node2</title>
<g id="a_edge2_Node000002_Node000003"><a xlink:title=" ">
<path fill="none" stroke="#9a32cd" stroke-dasharray="5,2" d="M83.5,-121.58C83.5,-109.63 83.5,-94.72 83.5,-85.41"/>
<polygon fill="#9a32cd" stroke="#9a32cd" points="80,-121.87 83.5,-131.87 87,-121.87 80,-121.87"/>
</a>
</g>
<text text-anchor="middle" x="109.5" y="-106" font-family="Helvetica,sans-Serif" font-size="10.00" fill="grey"> _matrices</text>
</g>
</g>
</svg>
