<?xml version="1.0" encoding="UTF-8" standalone="no"?>
<!DOCTYPE svg PUBLIC "-//W3C//DTD SVG 1.1//EN"
 "http://www.w3.org/Graphics/SVG/1.1/DTD/svg11.dtd">
<!-- Generated by graphviz version 2.43.0 (0)
 -->
<!-- Title: pycanha::gmm::GeometryMeshedItem Pages: 1 -->
<svg width="213pt" height="196pt"
 viewBox="0.00 0.00 213.00 196.00" xmlns="http://www.w3.org/2000/svg" xmlns:xlink="http://www.w3.org/1999/xlink">
<g id="graph0" class="graph" transform="scale(1 1) rotate(0) translate(4 192)">
<title>pycanha::gmm::GeometryMeshedItem</title>
<!-- Node1 -->
<g id="node1" class="node">
<title>Node1</title>
<g id="a_node1"><a xlink:title="A geometry item that contains mesh data.">
<polygon fill="#bfbfbf" stroke="black" points="0,-0.5 0,-19.5 205,-19.5 205,-0.5 0,-0.5"/>
<text text-anchor="middle" x="102.5" y="-7.5" font-family="Helvetica,sans-Serif" font-size="10.00">pycanha::gmm::GeometryMeshedItem</text>
</a>
</g>
</g>
<!-- Node2 -->
<g id="node2" class="node">
<title>Node2</title>
<g id="a_node2"><a xlink:href="classpycanha_1_1gmm_1_1GeometryItem.html" target="_top" xlink:title="The base class for all geometry items.">
<polygon fill="none" stroke="black" points="19,-56.5 19,-75.5 186,-75.5 186,-56.5 19,-56.5"/>
<text text-anchor="middle" x="102.5" y="-63.5" font-family="Helvetica,sans-Serif" font-size="10.00">pycanha::gmm::GeometryItem</text>
</a>
</g>
</g>
<!-- Node2&#45;&gt;Node1 -->
<g id="edge1" class="edge">
<title>Node2&#45;&gt;Node1</title>
<path fill="none" stroke="midnightblue" d="M102.5,-45.8C102.5,-36.91 102.5,-26.78 102.5,-19.75"/>
<polygon fill="midnightblue" stroke="midnightblue" points="99,-46.08 102.5,-56.08 106,-46.08 99,-46.08"/>
</g>
<!-- Node3 -->
<g id="node3" class="node">
<title>Node3</title>
<g id="a_node3"><a xlink:href="classpycanha_1_1gmm_1_1Geometry.html" target="_top" xlink:title="Base class for geometric items.">
<polygon fill="none" stroke="black" points="30.5,-112.5 30.5,-131.5 174.5,-131.5 174.5,-112.5 30.5,-112.5"/>
<text text-anchor="middle" x="102.5" y="-119.5" font-family="Helvetica,sans-Serif" font-size="10.00">pycanha::gmm::Geometry</text>
</a>
</g>
</g>
<!-- Node3&#45;&gt;Node2 -->
<g id="edge2" class="edge">
<title>Node3&#45;&gt;Node2</title>
<path fill="none" stroke="midnightblue" d="M102.5,-101.8C102.5,-92.91 102.5,-82.78 102.5,-75.75"/>
<polygon fill="midnightblue" stroke="midnightblue" points="99,-102.08 102.5,-112.08 106,-102.08 99,-102.08"/>
</g>
<!-- Node4 -->
<g id="node4" class="node">
<title>Node4</title>
<g id="a_node4"><a xlink:href="classpycanha_1_1gmm_1_1UniqueID.html" target="_top" xlink:title="Provides a unique integer id.">
<polygon fill="none" stroke="black" points="32.5,-168.5 32.5,-187.5 172.5,-187.5 172.5,-168.5 32.5,-168.5"/>
<text text-anchor="middle" x="102.5" y="-175.5" font-family="Helvetica,sans-Serif" font-size="10.00">pycanha::gmm::UniqueID</text>
</a>
</g>
</g>
<!-- Node4&#45;&gt;Node3 -->
<g id="edge3" class="edge">
<title>Node4&#45;&gt;Node3</title>
<path fill="none" stroke="midnightblue" d="M102.5,-157.8C102.5,-148.91 102.5,-138.78 102.5,-131.75"/>
<polygon fill="midnightblue" stroke="midnightblue" points="99,-158.08 102.5,-168.08 106,-158.08 99,-158.08"/>
</g>
</g>
</svg>
