<?xml version="1.0" encoding="UTF-8" standalone="no"?>
<!DOCTYPE svg PUBLIC "-//W3C//DTD SVG 1.1//EN"
 "http://www.w3.org/Graphics/SVG/1.1/DTD/svg11.dtd">
<!-- Generated by graphviz version 2.43.0 (0)
 -->
<!-- Title: pycanha::gmm::Rectangle::is_valid Pages: 1 -->
<svg width="350pt" height="66pt"
 viewBox="0.00 0.00 350.00 66.00" xmlns="http://www.w3.org/2000/svg" xmlns:xlink="http://www.w3.org/1999/xlink">
<g id="graph0" class="graph" transform="scale(1 1) rotate(0) translate(4 62)">
<title>pycanha::gmm::Rectangle::is_valid</title>
<!-- Node1 -->
<g id="node1" class="node">
<title>Node1</title>
<g id="a_node1"><a xlink:title="Validate the primitive.">
<polygon fill="#bfbfbf" stroke="black" points="0,-14 0,-44 144,-44 144,-14 0,-14"/>
<text text-anchor="start" x="8" y="-32" font-family="Helvetica,sans-Serif" font-size="10.00">pycanha::gmm::Rectangle</text>
<text text-anchor="middle" x="72" y="-21" font-family="Helvetica,sans-Serif" font-size="10.00">::is_valid</text>
</a>
</g>
</g>
<!-- Node2 -->
<g id="node2" class="node">
<title>Node2</title>
<g id="a_node2"><a xlink:href="classpycanha_1_1gmm_1_1Rectangle.html#a7f0930c0081f540f3b7efd6543e151a0" target="_top" xlink:title="Returns the first direction v1 = p2 &#45; p1.">
<polygon fill="none" stroke="black" points="180,-38.5 180,-57.5 342,-57.5 342,-38.5 180,-38.5"/>
<text text-anchor="middle" x="261" y="-45.5" font-family="Helvetica,sans-Serif" font-size="10.00">pycanha::gmm::Rectangle::v1</text>
</a>
</g>
</g>
<!-- Node1&#45;&gt;Node2 -->
<g id="edge1" class="edge">
<title>Node1&#45;&gt;Node2</title>
<path fill="none" stroke="midnightblue" d="M144.23,-36.24C152.61,-37.09 161.25,-37.97 169.85,-38.84"/>
<polygon fill="midnightblue" stroke="midnightblue" points="169.61,-42.33 179.91,-39.86 170.31,-35.37 169.61,-42.33"/>
</g>
<!-- Node3 -->
<g id="node3" class="node">
<title>Node3</title>
<g id="a_node3"><a xlink:href="classpycanha_1_1gmm_1_1Rectangle.html#af00e73251e4ccf0cec5e645aee3f22e1" target="_top" xlink:title="Returns the second direction v2 = p3 &#45; p1.">
<polygon fill="none" stroke="black" points="180,-0.5 180,-19.5 342,-19.5 342,-0.5 180,-0.5"/>
<text text-anchor="middle" x="261" y="-7.5" font-family="Helvetica,sans-Serif" font-size="10.00">pycanha::gmm::Rectangle::v2</text>
</a>
</g>
</g>
<!-- Node1&#45;&gt;Node3 -->
<g id="edge2" class="edge">
<title>Node1&#45;&gt;Node3</title>
<path fill="none" stroke="midnightblue" d="M144.23,-21.76C152.61,-20.91 161.25,-20.03 169.85,-19.16"/>
<polygon fill="midnightblue" stroke="midnightblue" points="170.31,-22.63 179.91,-18.14 169.61,-15.67 170.31,-22.63"/>
</g>
</g>
</svg>
