<?xml version="1.0" encoding="UTF-8" standalone="no"?>
<!DOCTYPE svg PUBLIC "-//W3C//DTD SVG 1.1//EN"
 "http://www.w3.org/Graphics/SVG/1.1/DTD/svg11.dtd">
<!-- Generated by graphviz version 2.43.0 (0)
 -->
<!-- Title: pycanha::TransientSolver Pages: 1 -->
<svg width="920pt" height="154pt"
 viewBox="0.00 0.00 920.00 154.00" xmlns="http://www.w3.org/2000/svg" xmlns:xlink="http://www.w3.org/1999/xlink">
<g id="graph0" class="graph" transform="scale(1 1) rotate(0) translate(4 150)">
<title>pycanha::TransientSolver</title>
<!-- Node1 -->
<g id="Node000001" class="node">
<title>Node1</title>
<g id="a_Node000001"><a xlink:title=" ">
<polygon fill="#999999" stroke="#666666" points="680.5,-32 541.5,-32 541.5,-13 680.5,-13 680.5,-32"/>
<text text-anchor="middle" x="611" y="-20" font-family="Helvetica,sans-Serif" font-size="10.00">pycanha::TransientSolver</text>
</a>
</g>
</g>
<!-- Node2 -->
<g id="Node000002" class="node">
<title>Node2</title>
<g id="a_Node000002"><a xlink:href="classpycanha_1_1Solver.html" target="_top" xlink:title=" ">
<polygon fill="white" stroke="#bfbfbf" points="333.5,-78 238.5,-78 238.5,-59 333.5,-59 333.5,-78"/>
<text text-anchor="middle" x="286" y="-66" font-family="Helvetica,sans-Serif" font-size="10.00">pycanha::Solver</text>
</a>
</g>
</g>
<!-- Node2&#45;&gt;Node1 -->
<g id="edge1_Node000001_Node000002" class="edge">
<title>Node2&#45;&gt;Node1</title>
<g id="a_edge1_Node000001_Node000002"><a xlink:title=" ">
<path fill="none" stroke="#63b8ff" d="M343.66,-60.43C399.33,-52.5 484.25,-40.41 543.18,-32.02"/>
<polygon fill="#63b8ff" stroke="#63b8ff" points="343.03,-56.99 333.62,-61.86 344.02,-63.92 343.03,-56.99"/>
</a>
</g>
</g>
<!-- Node3 -->
<g id="Node000003" class="node">
<title>Node3</title>
<g id="a_Node000003"><a xlink:href="classpycanha_1_1ThermalMathematicalModel.html" target="_top" xlink:title=" ">
<polygon fill="white" stroke="#bfbfbf" points="697,-117.5 525,-117.5 525,-87.5 697,-87.5 697,-117.5"/>
<text text-anchor="start" x="533" y="-105.5" font-family="Helvetica,sans-Serif" font-size="10.00">pycanha::ThermalMathematical</text>
<text text-anchor="middle" x="611" y="-94.5" font-family="Helvetica,sans-Serif" font-size="10.00">Model</text>
</a>
</g>
</g>
<!-- Node2&#45;&gt;Node3 -->
<g id="edge4_Node000003_Node000002" class="edge">
<title>Node2&#45;&gt;Node3</title>
<g id="a_edge4_Node000003_Node000002"><a xlink:title=" ">
<path fill="none" stroke="#9a32cd" stroke-dasharray="5,2" d="M343.95,-75.88C356.79,-77.47 370.35,-79.1 383,-80.5 429.83,-85.7 482.17,-90.81 524.78,-94.81"/>
<polygon fill="#9a32cd" stroke="#9a32cd" points="344.2,-72.39 333.84,-74.62 343.33,-79.33 344.2,-72.39"/>
</a>
</g>
<text text-anchor="middle" x="445" y="-95.5" font-family="Helvetica,sans-Serif" font-size="10.00" fill="grey"> _current_callback_solver</text>
</g>
<!-- Node3&#45;&gt;Node2 -->
<g id="edge2_Node000002_Node000003" class="edge">
<title>Node3&#45;&gt;Node2</title>
<g id="a_edge2_Node000002_Node000003"><a xlink:title=" ">
<path fill="none" stroke="#9a32cd" stroke-dasharray="5,2" d="M562.69,-84C545.44,-78.16 525.6,-72.45 507,-69.5 447.77,-60.11 378.45,-61.86 333.69,-64.62"/>
<polygon fill="#9a32cd" stroke="#9a32cd" points="561.93,-87.44 572.52,-87.44 564.24,-80.84 561.93,-87.44"/>
</a>
</g>
<text text-anchor="middle" x="445" y="-72.5" font-family="Helvetica,sans-Serif" font-size="10.00" fill="grey"> tmm</text>
</g>
<!-- Node5 -->
<g id="Node000005" class="node">
<title>Node5</title>
<g id="a_Node000005"><a xlink:href="classpycanha_1_1EntitiesHelper.html" target="_top" xlink:title=" ">
<polygon fill="white" stroke="#bfbfbf" points="912,-112 779,-112 779,-93 912,-93 912,-112"/>
<text text-anchor="middle" x="845.5" y="-100" font-family="Helvetica,sans-Serif" font-size="10.00">pycanha::EntitiesHelper</text>
</a>
</g>
</g>
<!-- Node3&#45;&gt;Node5 -->
<g id="edge6_Node000005_Node000003" class="edge">
<title>Node3&#45;&gt;Node5</title>
<g id="a_edge6_Node000005_Node000003"><a xlink:title=" ">
<path fill="none" stroke="#9a32cd" stroke-dasharray="5,2" d="M707.46,-102.5C731.49,-102.5 756.74,-102.5 778.92,-102.5"/>
<polygon fill="#9a32cd" stroke="#9a32cd" points="707.25,-99 697.25,-102.5 707.25,-106 707.25,-99"/>
</a>
</g>
<text text-anchor="middle" x="738" y="-105.5" font-family="Helvetica,sans-Serif" font-size="10.00" fill="grey"> _tmm</text>
</g>
<!-- Node4 -->
<g id="Node000004" class="node">
<title>Node4</title>
<g id="a_Node000004"><a xlink:href="classpycanha_1_1SolverRegistry.html" target="_top" xlink:title=" ">
<polygon fill="white" stroke="#bfbfbf" points="353.5,-146 218.5,-146 218.5,-127 353.5,-127 353.5,-146"/>
<text text-anchor="middle" x="286" y="-134" font-family="Helvetica,sans-Serif" font-size="10.00">pycanha::SolverRegistry</text>
</a>
</g>
</g>
<!-- Node4&#45;&gt;Node3 -->
<g id="edge3_Node000003_Node000004" class="edge">
<title>Node4&#45;&gt;Node3</title>
<g id="a_edge3_Node000003_Node000004"><a xlink:title=" ">
<path fill="none" stroke="#9a32cd" stroke-dasharray="5,2" d="M364.15,-129.1C406.37,-124.97 459.58,-119.63 507,-114.5 512.82,-113.87 518.82,-113.21 524.86,-112.53"/>
<polygon fill="#9a32cd" stroke="#9a32cd" points="363.56,-125.64 353.94,-130.09 364.24,-132.6 363.56,-125.64"/>
</a>
</g>
<text text-anchor="middle" x="445" y="-129.5" font-family="Helvetica,sans-Serif" font-size="10.00" fill="grey"> _solvers</text>
</g>
<!-- Node5&#45;&gt;Node3 -->
<g id="edge5_Node000003_Node000005" class="edge">
<title>Node5&#45;&gt;Node3</title>
<g id="a_edge5_Node000003_Node000005"><a xlink:title=" ">
<path fill="none" stroke="#9a32cd" stroke-dasharray="5,2" d="M793.16,-91.08C782.57,-89.17 771.47,-87.49 761,-86.5 740.02,-84.51 717.4,-85.38 696.28,-87.5"/>
<polygon fill="#9a32cd" stroke="#9a32cd" points="792.62,-94.54 803.1,-92.96 793.93,-87.66 792.62,-94.54"/>
</a>
</g>
<text text-anchor="middle" x="738" y="-89.5" font-family="Helvetica,sans-Serif" font-size="10.00" fill="grey"> _entities</text>
</g>
<!-- Node6 -->
<g id="Node000006" class="node">
<title>Node6</title>
<g id="a_Node000006"><a xlink:href="classpycanha_1_1ThermalNetwork.html" target="_top" xlink:title=" ">
<polygon fill="white" stroke="#bfbfbf" points="147.5,-100 1.5,-100 1.5,-81 147.5,-81 147.5,-100"/>
<text text-anchor="middle" x="74.5" y="-88" font-family="Helvetica,sans-Serif" font-size="10.00">pycanha::ThermalNetwork</text>
</a>
</g>
</g>
<!-- Node6&#45;&gt;Node2 -->
<g id="edge7_Node000002_Node000006" class="edge">
<title>Node6&#45;&gt;Node2</title>
<g id="a_edge7_Node000002_Node000006"><a xlink:title=" ">
<path fill="none" stroke="#9a32cd" stroke-dasharray="5,2" d="M157.59,-81.88C185.02,-79 214.63,-75.89 238.4,-73.39"/>
<polygon fill="#9a32cd" stroke="#9a32cd" points="157.18,-78.4 147.6,-82.93 157.91,-85.37 157.18,-78.4"/>
</a>
</g>
<text text-anchor="middle" x="178" y="-83.5" font-family="Helvetica,sans-Serif" font-size="10.00" fill="grey"> tnw</text>
</g>
<!-- Node7 -->
<g id="Node000007" class="node">
<title>Node7</title>
<g id="a_Node000007"><a xlink:href="classpycanha_1_1CouplingMatrices.html" target="_top" xlink:title=" ">
<polygon fill="white" stroke="#bfbfbf" points="149,-55 0,-55 0,-36 149,-36 149,-55"/>
<text text-anchor="middle" x="74.5" y="-43" font-family="Helvetica,sans-Serif" font-size="10.00">pycanha::CouplingMatrices</text>
</a>
</g>
</g>
<!-- Node7&#45;&gt;Node2 -->
<g id="edge8_Node000002_Node000007" class="edge">
<title>Node7&#45;&gt;Node2</title>
<g id="a_edge8_Node000002_Node000007"><a xlink:title=" ">
<path fill="none" stroke="#9a32cd" stroke-dasharray="5,2" d="M159.19,-49.68C169.25,-50.47 179.36,-51.4 189,-52.5 205.12,-54.34 222.65,-57.04 238.26,-59.71"/>
<polygon fill="#9a32cd" stroke="#9a32cd" points="159.4,-46.18 149.17,-48.93 158.88,-53.16 159.4,-46.18"/>
</a>
</g>
<text text-anchor="middle" x="178" y="-66.5" font-family="Helvetica,sans-Serif" font-size="10.00" fill="grey"> ltcs</text>
<text text-anchor="middle" x="178" y="-55.5" font-family="Helvetica,sans-Serif" font-size="10.00" fill="grey">rtcs</text>
</g>
<!-- Node8 -->
<g id="Node000008" class="node">
<title>Node8</title>
<g id="a_Node000008"><a xlink:href="structpycanha_1_1SolverOutputConfig.html" target="_top" xlink:title=" ">
<polygon fill="white" stroke="#bfbfbf" points="365,-19 207,-19 207,0 365,0 365,-19"/>
<text text-anchor="middle" x="286" y="-7" font-family="Helvetica,sans-Serif" font-size="10.00">pycanha::SolverOutputConfig</text>
</a>
</g>
</g>
<!-- Node8&#45;&gt;Node1 -->
<g id="edge9_Node000001_Node000008" class="edge">
<title>Node8&#45;&gt;Node1</title>
<g id="a_edge9_Node000001_Node000008"><a xlink:title=" ">
<path fill="none" stroke="#9a32cd" stroke-dasharray="5,2" d="M375.26,-7.66C415.48,-7.4 463.68,-7.89 507,-10.5 518.14,-11.17 529.93,-12.22 541.39,-13.43"/>
<polygon fill="#9a32cd" stroke="#9a32cd" points="375.18,-4.16 365.21,-7.74 375.24,-11.16 375.18,-4.16"/>
</a>
</g>
<text text-anchor="middle" x="445" y="-13.5" font-family="Helvetica,sans-Serif" font-size="10.00" fill="grey"> output_config</text>
</g>
</g>
</svg>
