<?xml version="1.0" encoding="UTF-8" standalone="no"?>
<!DOCTYPE svg PUBLIC "-//W3C//DTD SVG 1.1//EN"
 "http://www.w3.org/Graphics/SVG/1.1/DTD/svg11.dtd">
<!-- Generated by graphviz version 2.43.0 (0)
 -->
<!-- Title: pycanha::gmm::Disc::from_3d_to_2d Pages: 1 -->
<svg width="464pt" height="53pt"
 viewBox="0.00 0.00 464.00 52.50" xmlns="http://www.w3.org/2000/svg" xmlns:xlink="http://www.w3.org/1999/xlink">
<g id="graph0" class="graph" transform="scale(1 1) rotate(0) translate(4 48.5)">
<title>pycanha::gmm::Disc::from_3d_to_2d</title>
<!-- Node1 -->
<g id="node1" class="node">
<title>Node1</title>
<g id="a_node1"><a xlink:title="2D coordinates of a point ON the primitive surface from 3D coordinates. Note: It is assumed that the ...">
<polygon fill="#bfbfbf" stroke="black" points="0,-14 0,-44 116,-44 116,-14 0,-14"/>
<text text-anchor="start" x="8" y="-32" font-family="Helvetica,sans-Serif" font-size="10.00">pycanha::gmm::Disc</text>
<text text-anchor="middle" x="58" y="-21" font-family="Helvetica,sans-Serif" font-size="10.00">::from_3d_to_2d</text>
</a>
</g>
</g>
<!-- Node2 -->
<g id="node2" class="node">
<title>Node2</title>
<g id="a_node2"><a xlink:href="classpycanha_1_1gmm_1_1Disc.html#a517c77be943d5862ac5bb77ceaf91e78" target="_top" xlink:title="Returns the first direction v1 = p2 &#45; p1.">
<polygon fill="none" stroke="black" points="322,-19.5 322,-38.5 456,-38.5 456,-19.5 322,-19.5"/>
<text text-anchor="middle" x="389" y="-26.5" font-family="Helvetica,sans-Serif" font-size="10.00">pycanha::gmm::Disc::v1</text>
</a>
</g>
</g>
<!-- Node1&#45;&gt;Node2 -->
<g id="edge1" class="edge">
<title>Node1&#45;&gt;Node2</title>
<path fill="none" stroke="midnightblue" d="M116.31,-29C170.43,-29 251.98,-29 311.61,-29"/>
<polygon fill="midnightblue" stroke="midnightblue" points="311.73,-32.5 321.73,-29 311.73,-25.5 311.73,-32.5"/>
</g>
<!-- Node3 -->
<g id="node3" class="node">
<title>Node3</title>
<g id="a_node3"><a xlink:href="classpycanha_1_1gmm_1_1Disc.html#ac73c900dbe32b0e7437d9d8d787696b2" target="_top" xlink:title="Returns the second direction v2 = p3 &#45; p2.">
<polygon fill="none" stroke="black" points="152,-0.5 152,-19.5 286,-19.5 286,-0.5 152,-0.5"/>
<text text-anchor="middle" x="219" y="-7.5" font-family="Helvetica,sans-Serif" font-size="10.00">pycanha::gmm::Disc::v2</text>
</a>
</g>
</g>
<!-- Node1&#45;&gt;Node3 -->
<g id="edge2" class="edge">
<title>Node1&#45;&gt;Node3</title>
<path fill="none" stroke="midnightblue" d="M116.4,-22.14C124.65,-21.16 133.24,-20.13 141.78,-19.11"/>
<polygon fill="midnightblue" stroke="midnightblue" points="142.25,-22.58 151.76,-17.91 141.42,-15.63 142.25,-22.58"/>
</g>
<!-- Node3&#45;&gt;Node2 -->
<g id="edge3" class="edge">
<title>Node3&#45;&gt;Node2</title>
<path fill="none" stroke="midnightblue" d="M286.4,-17.51C294.68,-18.45 303.2,-19.41 311.62,-20.36"/>
<polygon fill="midnightblue" stroke="midnightblue" points="311.48,-23.87 321.81,-21.51 312.27,-16.91 311.48,-23.87"/>
</g>
</g>
</svg>
