<?xml version="1.0" encoding="UTF-8" standalone="no"?>
<!DOCTYPE svg PUBLIC "-//W3C//DTD SVG 1.1//EN"
 "http://www.w3.org/Graphics/SVG/1.1/DTD/svg11.dtd">
<!-- Generated by graphviz version 2.43.0 (0)
 -->
<!-- Title: pycanha::ConductiveCouplingEntity Pages: 1 -->
<svg width="169pt" height="216pt"
 viewBox="0.00 0.00 169.00 216.00" xmlns="http://www.w3.org/2000/svg" xmlns:xlink="http://www.w3.org/1999/xlink">
<g id="graph0" class="graph" transform="scale(1 1) rotate(0) translate(4 212)">
<title>pycanha::ConductiveCouplingEntity</title>
<!-- Node1 -->
<g id="Node000001" class="node">
<title>Node1</title>
<g id="a_Node000001"><a xlink:title=" ">
<polygon fill="#999999" stroke="#666666" points="161,-30 0,-30 0,0 161,0 161,-30"/>
<text text-anchor="start" x="8" y="-18" font-family="Helvetica,sans-Serif" font-size="10.00">pycanha::ConductiveCoupling</text>
<text text-anchor="middle" x="80.5" y="-7" font-family="Helvetica,sans-Serif" font-size="10.00">Entity</text>
</a>
</g>
</g>
<!-- Node2 -->
<g id="Node000002" class="node">
<title>Node2</title>
<g id="a_Node000002"><a xlink:href="classpycanha_1_1CouplingEntity.html" target="_top" xlink:title=" ">
<polygon fill="white" stroke="#bfbfbf" points="148,-86 13,-86 13,-67 148,-67 148,-86"/>
<text text-anchor="middle" x="80.5" y="-74" font-family="Helvetica,sans-Serif" font-size="10.00">pycanha::CouplingEntity</text>
</a>
</g>
</g>
<!-- Node2&#45;&gt;Node1 -->
<g id="edge1_Node000001_Node000002" class="edge">
<title>Node2&#45;&gt;Node1</title>
<g id="a_edge1_Node000001_Node000002"><a xlink:title=" ">
<path fill="none" stroke="#63b8ff" d="M80.5,-56.73C80.5,-48.09 80.5,-38 80.5,-30.02"/>
<polygon fill="#63b8ff" stroke="#63b8ff" points="77,-56.98 80.5,-66.98 84,-56.98 77,-56.98"/>
</a>
</g>
</g>
<!-- Node3 -->
<g id="Node000003" class="node">
<title>Node3</title>
<g id="a_Node000003"><a xlink:href="classpycanha_1_1ThermalEntity.html" target="_top" xlink:title=" ">
<polygon fill="white" stroke="#bfbfbf" points="147,-142 14,-142 14,-123 147,-123 147,-142"/>
<text text-anchor="middle" x="80.5" y="-130" font-family="Helvetica,sans-Serif" font-size="10.00">pycanha::ThermalEntity</text>
</a>
</g>
</g>
<!-- Node3&#45;&gt;Node2 -->
<g id="edge2_Node000002_Node000003" class="edge">
<title>Node3&#45;&gt;Node2</title>
<g id="a_edge2_Node000002_Node000003"><a xlink:title=" ">
<path fill="none" stroke="#63b8ff" d="M80.5,-112.3C80.5,-103.41 80.5,-93.28 80.5,-86.25"/>
<polygon fill="#63b8ff" stroke="#63b8ff" points="77,-112.58 80.5,-122.58 84,-112.58 77,-112.58"/>
</a>
</g>
</g>
<!-- Node4 -->
<g id="Node000004" class="node">
<title>Node4</title>
<g id="a_Node000004"><a xlink:href="classpycanha_1_1ThermalNetwork.html" target="_top" xlink:title=" ">
<polygon fill="white" stroke="#bfbfbf" points="153.5,-208 7.5,-208 7.5,-189 153.5,-189 153.5,-208"/>
<text text-anchor="middle" x="80.5" y="-196" font-family="Helvetica,sans-Serif" font-size="10.00">pycanha::ThermalNetwork</text>
</a>
</g>
</g>
<!-- Node4&#45;&gt;Node3 -->
<g id="edge3_Node000003_Node000004" class="edge">
<title>Node4&#45;&gt;Node3</title>
<g id="a_edge3_Node000003_Node000004"><a xlink:title=" ">
<path fill="none" stroke="#9a32cd" stroke-dasharray="5,2" d="M80.5,-178.58C80.5,-166.63 80.5,-151.72 80.5,-142.41"/>
<polygon fill="#9a32cd" stroke="#9a32cd" points="77,-178.87 80.5,-188.87 84,-178.87 77,-178.87"/>
</a>
</g>
<text text-anchor="middle" x="105" y="-163" font-family="Helvetica,sans-Serif" font-size="10.00" fill="grey"> _network</text>
</g>
</g>
</svg>
