<?xml version="1.0" encoding="UTF-8" standalone="no"?>
<!DOCTYPE svg PUBLIC "-//W3C//DTD SVG 1.1//EN"
 "http://www.w3.org/Graphics/SVG/1.1/DTD/svg11.dtd">
<!-- Generated by graphviz version 2.43.0 (0)
 -->
<!-- Title: pycanha::gmm::Quadrilateral::from_2d_to_3d Pages: 1 -->
<svg width="380pt" height="64pt"
 viewBox="0.00 0.00 380.00 64.00" xmlns="http://www.w3.org/2000/svg" xmlns:xlink="http://www.w3.org/1999/xlink">
<g id="graph0" class="graph" transform="scale(1 1) rotate(0) translate(4 60)">
<title>pycanha::gmm::Quadrilateral::from_2d_to_3d</title>
<!-- Node1 -->
<g id="Node000001" class="node">
<title>Node1</title>
<g id="a_Node000001"><a xlink:title="3D coordinates of a point ON the primitive surface from 2D coordinates. Note: The method is not valid...">
<polygon fill="#999999" stroke="#666666" points="159,-42.5 0,-42.5 0,-12.5 159,-12.5 159,-42.5"/>
<text text-anchor="start" x="8" y="-30.5" font-family="Helvetica,sans-Serif" font-size="10.00">pycanha::gmm::Quadrilateral</text>
<text text-anchor="middle" x="79.5" y="-19.5" font-family="Helvetica,sans-Serif" font-size="10.00">::from_2d_to_3d</text>
</a>
</g>
</g>
<!-- Node2 -->
<g id="Node000002" class="node">
<title>Node2</title>
<g id="a_Node000002"><a xlink:href="classpycanha_1_1gmm_1_1Quadrilateral.html#a3c2cecd1d2adf11cb3c619dceb6baa1f" target="_top" xlink:title="Returns the first direction v1 = p2 &#45; p1.">
<polygon fill="white" stroke="#666666" points="372,-56 195,-56 195,-37 372,-37 372,-56"/>
<text text-anchor="middle" x="283.5" y="-44" font-family="Helvetica,sans-Serif" font-size="10.00">pycanha::gmm::Quadrilateral::v1</text>
</a>
</g>
</g>
<!-- Node1&#45;&gt;Node2 -->
<g id="edge1_Node000001_Node000002" class="edge">
<title>Node1&#45;&gt;Node2</title>
<g id="a_edge1_Node000001_Node000002"><a xlink:title=" ">
<path fill="none" stroke="#63b8ff" d="M159.18,-34.9C167.62,-35.69 176.28,-36.51 184.9,-37.32"/>
<polygon fill="#63b8ff" stroke="#63b8ff" points="184.71,-40.82 195,-38.27 185.37,-33.85 184.71,-40.82"/>
</a>
</g>
</g>
<!-- Node3 -->
<g id="Node000003" class="node">
<title>Node3</title>
<g id="a_Node000003"><a xlink:href="classpycanha_1_1gmm_1_1Quadrilateral.html#a6037ada729f3b3aaa6c9a1392019a799" target="_top" xlink:title="Returns the second direction v2 = p4 &#45; p1.">
<polygon fill="white" stroke="#666666" points="372,-19 195,-19 195,0 372,0 372,-19"/>
<text text-anchor="middle" x="283.5" y="-7" font-family="Helvetica,sans-Serif" font-size="10.00">pycanha::gmm::Quadrilateral::v2</text>
</a>
</g>
</g>
<!-- Node1&#45;&gt;Node3 -->
<g id="edge2_Node000001_Node000003" class="edge">
<title>Node1&#45;&gt;Node3</title>
<g id="a_edge2_Node000001_Node000003"><a xlink:title=" ">
<path fill="none" stroke="#63b8ff" d="M159.18,-20.49C167.62,-19.74 176.28,-18.97 184.9,-18.2"/>
<polygon fill="#63b8ff" stroke="#63b8ff" points="185.35,-21.67 195,-17.3 184.73,-14.7 185.35,-21.67"/>
</a>
</g>
</g>
</g>
</svg>
