<?xml version="1.0" encoding="UTF-8" standalone="no"?>
<!DOCTYPE svg PUBLIC "-//W3C//DTD SVG 1.1//EN"
 "http://www.w3.org/Graphics/SVG/1.1/DTD/svg11.dtd">
<!-- Generated by graphviz version 2.43.0 (0)
 -->
<!-- Title: pycanha::gmm::Rectangle::distance_jacobian_cutted_surface Pages: 1 -->
<svg width="352pt" height="66pt"
 viewBox="0.00 0.00 352.00 66.00" xmlns="http://www.w3.org/2000/svg" xmlns:xlink="http://www.w3.org/1999/xlink">
<g id="graph0" class="graph" transform="scale(1 1) rotate(0) translate(4 62)">
<title>pycanha::gmm::Rectangle::distance_jacobian_cutted_surface</title>
<!-- Node1 -->
<g id="node1" class="node">
<title>Node1</title>
<g id="a_node1"><a xlink:title="Calculates the minimum distance and the jacobian from a point to the extended surface....">
<polygon fill="#bfbfbf" stroke="black" points="0,-8.5 0,-49.5 146,-49.5 146,-8.5 0,-8.5"/>
<text text-anchor="start" x="8" y="-37.5" font-family="Helvetica,sans-Serif" font-size="10.00">pycanha::gmm::Rectangle</text>
<text text-anchor="start" x="8" y="-26.5" font-family="Helvetica,sans-Serif" font-size="10.00">::distance_jacobian_cutted</text>
<text text-anchor="middle" x="73" y="-15.5" font-family="Helvetica,sans-Serif" font-size="10.00">_surface</text>
</a>
</g>
</g>
<!-- Node2 -->
<g id="node2" class="node">
<title>Node2</title>
<g id="a_node2"><a xlink:href="classpycanha_1_1gmm_1_1Rectangle.html#a7f0930c0081f540f3b7efd6543e151a0" target="_top" xlink:title="Returns the first direction v1 = p2 &#45; p1.">
<polygon fill="none" stroke="black" points="182,-38.5 182,-57.5 344,-57.5 344,-38.5 182,-38.5"/>
<text text-anchor="middle" x="263" y="-45.5" font-family="Helvetica,sans-Serif" font-size="10.00">pycanha::gmm::Rectangle::v1</text>
</a>
</g>
</g>
<!-- Node1&#45;&gt;Node2 -->
<g id="edge1" class="edge">
<title>Node1&#45;&gt;Node2</title>
<path fill="none" stroke="midnightblue" d="M146.15,-36.29C154.56,-37.14 163.22,-38.02 171.83,-38.89"/>
<polygon fill="midnightblue" stroke="midnightblue" points="171.6,-42.38 181.9,-39.91 172.31,-35.42 171.6,-42.38"/>
</g>
<!-- Node3 -->
<g id="node3" class="node">
<title>Node3</title>
<g id="a_node3"><a xlink:href="classpycanha_1_1gmm_1_1Rectangle.html#af00e73251e4ccf0cec5e645aee3f22e1" target="_top" xlink:title="Returns the second direction v2 = p3 &#45; p1.">
<polygon fill="none" stroke="black" points="182,-0.5 182,-19.5 344,-19.5 344,-0.5 182,-0.5"/>
<text text-anchor="middle" x="263" y="-7.5" font-family="Helvetica,sans-Serif" font-size="10.00">pycanha::gmm::Rectangle::v2</text>
</a>
</g>
</g>
<!-- Node1&#45;&gt;Node3 -->
<g id="edge2" class="edge">
<title>Node1&#45;&gt;Node3</title>
<path fill="none" stroke="midnightblue" d="M146.15,-21.71C154.56,-20.86 163.22,-19.98 171.83,-19.11"/>
<polygon fill="midnightblue" stroke="midnightblue" points="172.31,-22.58 181.9,-18.09 171.6,-15.62 172.31,-22.58"/>
</g>
</g>
</svg>
