<?xml version="1.0" encoding="UTF-8" standalone="no"?>
<!DOCTYPE svg PUBLIC "-//W3C//DTD SVG 1.1//EN"
 "http://www.w3.org/Graphics/SVG/1.1/DTD/svg11.dtd">
<!-- Generated by graphviz version 2.43.0 (0)
 -->
<!-- Title: pycanha::gmm::GeometryUpdateCallback Pages: 1 -->
<svg width="558pt" height="249pt"
 viewBox="0.00 0.00 558.00 249.00" xmlns="http://www.w3.org/2000/svg" xmlns:xlink="http://www.w3.org/1999/xlink">
<g id="graph0" class="graph" transform="scale(1 1) rotate(0) translate(4 245)">
<title>pycanha::gmm::GeometryUpdateCallback</title>
<!-- Node1 -->
<g id="Node000001" class="node">
<title>Node1</title>
<g id="a_Node000001"><a xlink:title=" ">
<polygon fill="#999999" stroke="#666666" points="179,-135.5 0,-135.5 0,-105.5 179,-105.5 179,-135.5"/>
<text text-anchor="start" x="8" y="-123.5" font-family="Helvetica,sans-Serif" font-size="10.00">pycanha::gmm::GeometryUpdate</text>
<text text-anchor="middle" x="89.5" y="-112.5" font-family="Helvetica,sans-Serif" font-size="10.00">Callback</text>
</a>
</g>
</g>
<!-- Node2 -->
<g id="Node000002" class="node">
<title>Node2</title>
<g id="a_Node000002"><a xlink:href="classpycanha_1_1gmm_1_1Primitive.html" target="_top" xlink:title="A geometry primitive.">
<polygon fill="white" stroke="#666666" points="355,-130 215,-130 215,-111 355,-111 355,-130"/>
<text text-anchor="middle" x="285" y="-118" font-family="Helvetica,sans-Serif" font-size="10.00">pycanha::gmm::Primitive</text>
</a>
</g>
</g>
<!-- Node1&#45;&gt;Node2 -->
<g id="edge1_Node000001_Node000002" class="edge">
<title>Node1&#45;&gt;Node2</title>
<g id="a_edge1_Node000001_Node000002"><a xlink:title=" ">
<path fill="none" stroke="#63b8ff" d="M189.22,-120.5C197.9,-120.5 206.56,-120.5 214.92,-120.5"/>
<polygon fill="#63b8ff" stroke="#63b8ff" points="189.04,-117 179.04,-120.5 189.04,-124 189.04,-117"/>
</a>
</g>
</g>
<!-- Node3 -->
<g id="Node000003" class="node">
<title>Node3</title>
<g id="a_Node000003"><a xlink:href="classpycanha_1_1gmm_1_1Cone.html" target="_top" xlink:title="A class representing a cone in 3D space.">
<polygon fill="white" stroke="#666666" points="530.5,-241 410.5,-241 410.5,-222 530.5,-222 530.5,-241"/>
<text text-anchor="middle" x="470.5" y="-229" font-family="Helvetica,sans-Serif" font-size="10.00">pycanha::gmm::Cone</text>
</a>
</g>
</g>
<!-- Node2&#45;&gt;Node3 -->
<g id="edge2_Node000002_Node000003" class="edge">
<title>Node2&#45;&gt;Node3</title>
<g id="a_edge2_Node000002_Node000003"><a xlink:title=" ">
<path fill="none" stroke="#63b8ff" d="M300.42,-137.72C319.1,-158.88 353.72,-194.32 391,-213.5 397.59,-216.89 404.82,-219.65 412.13,-221.89"/>
<polygon fill="#63b8ff" stroke="#63b8ff" points="303.04,-135.4 293.85,-130.12 297.74,-139.98 303.04,-135.4"/>
</a>
</g>
</g>
<!-- Node4 -->
<g id="Node000004" class="node">
<title>Node4</title>
<g id="a_Node000004"><a xlink:href="classpycanha_1_1gmm_1_1Cylinder.html" target="_top" xlink:title="A class representing a cylinder in 3D space.">
<polygon fill="white" stroke="#666666" points="538.5,-204 402.5,-204 402.5,-185 538.5,-185 538.5,-204"/>
<text text-anchor="middle" x="470.5" y="-192" font-family="Helvetica,sans-Serif" font-size="10.00">pycanha::gmm::Cylinder</text>
</a>
</g>
</g>
<!-- Node2&#45;&gt;Node4 -->
<g id="edge3_Node000002_Node000004" class="edge">
<title>Node2&#45;&gt;Node4</title>
<g id="a_edge3_Node000002_Node000004"><a xlink:title=" ">
<path fill="none" stroke="#63b8ff" d="M309.8,-135.55C330.54,-148.08 361.8,-165.59 391,-176.5 399.78,-179.78 409.33,-182.58 418.67,-184.92"/>
<polygon fill="#63b8ff" stroke="#63b8ff" points="311.41,-132.43 301.05,-130.18 307.75,-138.4 311.41,-132.43"/>
</a>
</g>
</g>
<!-- Node5 -->
<g id="Node000005" class="node">
<title>Node5</title>
<g id="a_Node000005"><a xlink:href="classpycanha_1_1gmm_1_1Disc.html" target="_top" xlink:title="A class representing a disc in 3D space.">
<polygon fill="white" stroke="#666666" points="528.5,-167 412.5,-167 412.5,-148 528.5,-148 528.5,-167"/>
<text text-anchor="middle" x="470.5" y="-155" font-family="Helvetica,sans-Serif" font-size="10.00">pycanha::gmm::Disc</text>
</a>
</g>
</g>
<!-- Node2&#45;&gt;Node5 -->
<g id="edge4_Node000002_Node000005" class="edge">
<title>Node2&#45;&gt;Node5</title>
<g id="a_edge4_Node000002_Node000005"><a xlink:title=" ">
<path fill="none" stroke="#63b8ff" d="M343.11,-132.02C368.47,-137.13 397.97,-143.08 422.09,-147.94"/>
<polygon fill="#63b8ff" stroke="#63b8ff" points="343.75,-128.57 333.26,-130.03 342.37,-135.44 343.75,-128.57"/>
</a>
</g>
</g>
<!-- Node6 -->
<g id="Node000006" class="node">
<title>Node6</title>
<g id="a_Node000006"><a xlink:href="classpycanha_1_1gmm_1_1Quadrilateral.html" target="_top" xlink:title="A class representing a quadrilateral in 3D space.">
<polygon fill="white" stroke="#666666" points="550,-130 391,-130 391,-111 550,-111 550,-130"/>
<text text-anchor="middle" x="470.5" y="-118" font-family="Helvetica,sans-Serif" font-size="10.00">pycanha::gmm::Quadrilateral</text>
</a>
</g>
</g>
<!-- Node2&#45;&gt;Node6 -->
<g id="edge5_Node000002_Node000006" class="edge">
<title>Node2&#45;&gt;Node6</title>
<g id="a_edge5_Node000002_Node000006"><a xlink:title=" ">
<path fill="none" stroke="#63b8ff" d="M365.35,-120.5C373.83,-120.5 382.44,-120.5 390.91,-120.5"/>
<polygon fill="#63b8ff" stroke="#63b8ff" points="365.11,-117 355.11,-120.5 365.11,-124 365.11,-117"/>
</a>
</g>
</g>
<!-- Node7 -->
<g id="Node000007" class="node">
<title>Node7</title>
<g id="a_Node000007"><a xlink:href="classpycanha_1_1gmm_1_1Rectangle.html" target="_top" xlink:title="A class representing a rectangle in 3D space.">
<polygon fill="white" stroke="#666666" points="542.5,-93 398.5,-93 398.5,-74 542.5,-74 542.5,-93"/>
<text text-anchor="middle" x="470.5" y="-81" font-family="Helvetica,sans-Serif" font-size="10.00">pycanha::gmm::Rectangle</text>
</a>
</g>
</g>
<!-- Node2&#45;&gt;Node7 -->
<g id="edge6_Node000002_Node000007" class="edge">
<title>Node2&#45;&gt;Node7</title>
<g id="a_edge6_Node000002_Node000007"><a xlink:title=" ">
<path fill="none" stroke="#63b8ff" d="M343.11,-108.98C368.47,-103.87 397.97,-97.92 422.09,-93.06"/>
<polygon fill="#63b8ff" stroke="#63b8ff" points="342.37,-105.56 333.26,-110.97 343.75,-112.43 342.37,-105.56"/>
</a>
</g>
</g>
<!-- Node8 -->
<g id="Node000008" class="node">
<title>Node8</title>
<g id="a_Node000008"><a xlink:href="classpycanha_1_1gmm_1_1Sphere.html" target="_top" xlink:title="A class representing a sphere in 3D space.">
<polygon fill="white" stroke="#666666" points="535,-56 406,-56 406,-37 535,-37 535,-56"/>
<text text-anchor="middle" x="470.5" y="-44" font-family="Helvetica,sans-Serif" font-size="10.00">pycanha::gmm::Sphere</text>
</a>
</g>
</g>
<!-- Node2&#45;&gt;Node8 -->
<g id="edge7_Node000002_Node000008" class="edge">
<title>Node2&#45;&gt;Node8</title>
<g id="a_edge7_Node000002_Node000008"><a xlink:title=" ">
<path fill="none" stroke="#63b8ff" d="M310.23,-105.62C331.02,-93.39 362.11,-76.38 391,-65.5 400.84,-61.8 411.66,-58.63 422.03,-56.01"/>
<polygon fill="#63b8ff" stroke="#63b8ff" points="308.24,-102.73 301.45,-110.86 311.83,-108.74 308.24,-102.73"/>
</a>
</g>
</g>
<!-- Node9 -->
<g id="Node000009" class="node">
<title>Node9</title>
<g id="a_Node000009"><a xlink:href="classpycanha_1_1gmm_1_1Triangle.html" target="_top" xlink:title="A class representing a triangle in 3D space.">
<polygon fill="white" stroke="#666666" points="537.5,-19 403.5,-19 403.5,0 537.5,0 537.5,-19"/>
<text text-anchor="middle" x="470.5" y="-7" font-family="Helvetica,sans-Serif" font-size="10.00">pycanha::gmm::Triangle</text>
</a>
</g>
</g>
<!-- Node2&#45;&gt;Node9 -->
<g id="edge8_Node000002_Node000009" class="edge">
<title>Node2&#45;&gt;Node9</title>
<g id="a_edge8_Node000002_Node000009"><a xlink:title=" ">
<path fill="none" stroke="#63b8ff" d="M300.78,-103.22C319.61,-82.33 354.15,-47.61 391,-28.5 398.47,-24.63 406.75,-21.52 415.05,-19.05"/>
<polygon fill="#63b8ff" stroke="#63b8ff" points="298.14,-100.92 294.15,-110.73 303.39,-105.55 298.14,-100.92"/>
</a>
</g>
</g>
</g>
</svg>
