<?xml version="1.0" encoding="UTF-8" standalone="no"?>
<!DOCTYPE svg PUBLIC "-//W3C//DTD SVG 1.1//EN"
 "http://www.w3.org/Graphics/SVG/1.1/DTD/svg11.dtd">
<!-- Generated by graphviz version 2.43.0 (0)
 -->
<!-- Title: pycanha::gmm::Quadrilateral::from_2d_to_3d Pages: 1 -->
<svg width="380pt" height="66pt"
 viewBox="0.00 0.00 380.00 66.00" xmlns="http://www.w3.org/2000/svg" xmlns:xlink="http://www.w3.org/1999/xlink">
<g id="graph0" class="graph" transform="scale(1 1) rotate(0) translate(4 62)">
<title>pycanha::gmm::Quadrilateral::from_2d_to_3d</title>
<!-- Node1 -->
<g id="node1" class="node">
<title>Node1</title>
<g id="a_node1"><a xlink:title="3D coordinates of a point ON the primitive surface from 2D coordinates. Note: The method is not valid...">
<polygon fill="#bfbfbf" stroke="black" points="0,-14 0,-44 159,-44 159,-14 0,-14"/>
<text text-anchor="start" x="8" y="-32" font-family="Helvetica,sans-Serif" font-size="10.00">pycanha::gmm::Quadrilateral</text>
<text text-anchor="middle" x="79.5" y="-21" font-family="Helvetica,sans-Serif" font-size="10.00">::from_2d_to_3d</text>
</a>
</g>
</g>
<!-- Node2 -->
<g id="node2" class="node">
<title>Node2</title>
<g id="a_node2"><a xlink:href="classpycanha_1_1gmm_1_1Quadrilateral.html#a3c2cecd1d2adf11cb3c619dceb6baa1f" target="_top" xlink:title="Returns the first direction v1 = p2 &#45; p1.">
<polygon fill="none" stroke="black" points="195,-38.5 195,-57.5 372,-57.5 372,-38.5 195,-38.5"/>
<text text-anchor="middle" x="283.5" y="-45.5" font-family="Helvetica,sans-Serif" font-size="10.00">pycanha::gmm::Quadrilateral::v1</text>
</a>
</g>
</g>
<!-- Node1&#45;&gt;Node2 -->
<g id="edge1" class="edge">
<title>Node1&#45;&gt;Node2</title>
<path fill="none" stroke="midnightblue" d="M159.18,-36.4C167.62,-37.19 176.28,-38.01 184.9,-38.82"/>
<polygon fill="midnightblue" stroke="midnightblue" points="184.71,-42.32 195,-39.77 185.37,-35.35 184.71,-42.32"/>
</g>
<!-- Node3 -->
<g id="node3" class="node">
<title>Node3</title>
<g id="a_node3"><a xlink:href="classpycanha_1_1gmm_1_1Quadrilateral.html#a6037ada729f3b3aaa6c9a1392019a799" target="_top" xlink:title="Returns the second direction v2 = p4 &#45; p1.">
<polygon fill="none" stroke="black" points="195,-0.5 195,-19.5 372,-19.5 372,-0.5 195,-0.5"/>
<text text-anchor="middle" x="283.5" y="-7.5" font-family="Helvetica,sans-Serif" font-size="10.00">pycanha::gmm::Quadrilateral::v2</text>
</a>
</g>
</g>
<!-- Node1&#45;&gt;Node3 -->
<g id="edge2" class="edge">
<title>Node1&#45;&gt;Node3</title>
<path fill="none" stroke="midnightblue" d="M159.18,-21.6C167.62,-20.81 176.28,-19.99 184.9,-19.18"/>
<polygon fill="midnightblue" stroke="midnightblue" points="185.37,-22.65 195,-18.23 184.71,-15.68 185.37,-22.65"/>
</g>
</g>
</svg>
