<?xml version="1.0" encoding="UTF-8" standalone="no"?>
<!DOCTYPE svg PUBLIC "-//W3C//DTD SVG 1.1//EN"
 "http://www.w3.org/Graphics/SVG/1.1/DTD/svg11.dtd">
<!-- Generated by graphviz version 2.43.0 (0)
 -->
<!-- Title: pycanha::gmm::Rectangle::distance Pages: 1 -->
<svg width="350pt" height="64pt"
 viewBox="0.00 0.00 350.00 64.00" xmlns="http://www.w3.org/2000/svg" xmlns:xlink="http://www.w3.org/1999/xlink">
<g id="graph0" class="graph" transform="scale(1 1) rotate(0) translate(4 60)">
<title>pycanha::gmm::Rectangle::distance</title>
<!-- Node1 -->
<g id="Node000001" class="node">
<title>Node1</title>
<g id="a_Node000001"><a xlink:title="Calculates the minimum distance from a point to the surface of the primitive. The distance is calcula...">
<polygon fill="#999999" stroke="#666666" points="144,-42.5 0,-42.5 0,-12.5 144,-12.5 144,-42.5"/>
<text text-anchor="start" x="8" y="-30.5" font-family="Helvetica,sans-Serif" font-size="10.00">pycanha::gmm::Rectangle</text>
<text text-anchor="middle" x="72" y="-19.5" font-family="Helvetica,sans-Serif" font-size="10.00">::distance</text>
</a>
</g>
</g>
<!-- Node2 -->
<g id="Node000002" class="node">
<title>Node2</title>
<g id="a_Node000002"><a xlink:href="classpycanha_1_1gmm_1_1Rectangle.html#a7f0930c0081f540f3b7efd6543e151a0" target="_top" xlink:title="Returns the first direction v1 = p2 &#45; p1.">
<polygon fill="white" stroke="#666666" points="342,-56 180,-56 180,-37 342,-37 342,-56"/>
<text text-anchor="middle" x="261" y="-44" font-family="Helvetica,sans-Serif" font-size="10.00">pycanha::gmm::Rectangle::v1</text>
</a>
</g>
</g>
<!-- Node1&#45;&gt;Node2 -->
<g id="edge1_Node000001_Node000002" class="edge">
<title>Node1&#45;&gt;Node2</title>
<g id="a_edge1_Node000001_Node000002"><a xlink:title=" ">
<path fill="none" stroke="#63b8ff" d="M144.23,-34.74C152.61,-35.59 161.25,-36.47 169.85,-37.34"/>
<polygon fill="#63b8ff" stroke="#63b8ff" points="169.61,-40.83 179.91,-38.36 170.31,-33.87 169.61,-40.83"/>
</a>
</g>
</g>
<!-- Node3 -->
<g id="Node000003" class="node">
<title>Node3</title>
<g id="a_Node000003"><a xlink:href="classpycanha_1_1gmm_1_1Rectangle.html#af00e73251e4ccf0cec5e645aee3f22e1" target="_top" xlink:title="Returns the second direction v2 = p3 &#45; p1.">
<polygon fill="white" stroke="#666666" points="342,-19 180,-19 180,0 342,0 342,-19"/>
<text text-anchor="middle" x="261" y="-7" font-family="Helvetica,sans-Serif" font-size="10.00">pycanha::gmm::Rectangle::v2</text>
</a>
</g>
</g>
<!-- Node1&#45;&gt;Node3 -->
<g id="edge2_Node000001_Node000003" class="edge">
<title>Node1&#45;&gt;Node3</title>
<g id="a_edge2_Node000001_Node000003"><a xlink:title=" ">
<path fill="none" stroke="#63b8ff" d="M144.23,-20.64C152.61,-19.84 161.25,-19.01 169.85,-18.18"/>
<polygon fill="#63b8ff" stroke="#63b8ff" points="170.29,-21.65 179.91,-17.21 169.62,-14.68 170.29,-21.65"/>
</a>
</g>
</g>
</g>
</svg>
