<?xml version="1.0" encoding="UTF-8" standalone="no"?>
<!DOCTYPE svg PUBLIC "-//W3C//DTD SVG 1.1//EN"
 "http://www.w3.org/Graphics/SVG/1.1/DTD/svg11.dtd">
<!-- Generated by graphviz version 2.43.0 (0)
 -->
<!-- Title: pycanha::Nodes::add_nodes Pages: 1 -->
<svg width="816pt" height="710pt"
 viewBox="0.00 0.00 816.00 709.53" xmlns="http://www.w3.org/2000/svg" xmlns:xlink="http://www.w3.org/1999/xlink">
<g id="graph0" class="graph" transform="scale(1 1) rotate(0) translate(4 705.53)">
<title>pycanha::Nodes::add_nodes</title>
<!-- Node1 -->
<g id="Node000001" class="node">
<title>Node1</title>
<g id="a_Node000001"><a xlink:title="Method to add a several nodes contained in a std::vector.">
<polygon fill="#999999" stroke="#666666" points="119,-265.53 0,-265.53 0,-235.53 119,-235.53 119,-265.53"/>
<text text-anchor="start" x="8" y="-253.53" font-family="Helvetica,sans-Serif" font-size="10.00">pycanha::Nodes::add</text>
<text text-anchor="middle" x="59.5" y="-242.53" font-family="Helvetica,sans-Serif" font-size="10.00">_nodes</text>
</a>
</g>
</g>
<!-- Node2 -->
<g id="Node000002" class="node">
<title>Node2</title>
<g id="a_Node000002"><a xlink:href="classpycanha_1_1Nodes.html#a9653a8fbd5e2f07eb29cf1c94d05bbdd" target="_top" xlink:title="Method to add a new node.">
<polygon fill="white" stroke="#666666" points="303,-260.03 155,-260.03 155,-241.03 303,-241.03 303,-260.03"/>
<text text-anchor="middle" x="229" y="-248.03" font-family="Helvetica,sans-Serif" font-size="10.00">pycanha::Nodes::add_node</text>
</a>
</g>
</g>
<!-- Node1&#45;&gt;Node2 -->
<g id="edge1_Node000001_Node000002" class="edge">
<title>Node1&#45;&gt;Node2</title>
<g id="a_edge1_Node000001_Node000002"><a xlink:title=" ">
<path fill="none" stroke="#63b8ff" d="M119.08,-250.53C127.36,-250.53 135.99,-250.53 144.62,-250.53"/>
<polygon fill="#63b8ff" stroke="#63b8ff" points="144.72,-254.03 154.72,-250.53 144.72,-247.03 144.72,-254.03"/>
</a>
</g>
</g>
<!-- Node3 -->
<g id="Node000003" class="node">
<title>Node3</title>
<g id="a_Node000003"><a xlink:href="classpycanha_1_1Nodes.html#a9e9b067ca2c37eb1df8cb9d17595c181" target="_top" xlink:title=" ">
<polygon fill="white" stroke="#666666" points="458,-340.53 339,-340.53 339,-310.53 458,-310.53 458,-340.53"/>
<text text-anchor="start" x="347" y="-328.53" font-family="Helvetica,sans-Serif" font-size="10.00">pycanha::Nodes::add</text>
<text text-anchor="middle" x="398.5" y="-317.53" font-family="Helvetica,sans-Serif" font-size="10.00">_node_insert_idx</text>
</a>
</g>
</g>
<!-- Node2&#45;&gt;Node3 -->
<g id="edge2_Node000002_Node000003" class="edge">
<title>Node2&#45;&gt;Node3</title>
<g id="a_edge2_Node000002_Node000003"><a xlink:title=" ">
<path fill="none" stroke="#63b8ff" d="M251.55,-260.18C277.45,-271.78 321.52,-291.51 354.47,-306.26"/>
<polygon fill="#63b8ff" stroke="#63b8ff" points="353.32,-309.58 363.88,-310.47 356.18,-303.19 353.32,-309.58"/>
</a>
</g>
</g>
<!-- Node18 -->
<g id="Node000018" class="node">
<title>Node18</title>
<g id="a_Node000018"><a xlink:href="namespacepycanha.html#af116674b7649af0e33b3d7e78ecb1b1b" target="_top" xlink:title=" ">
<polygon fill="white" stroke="#666666" points="796,-37.03 680,-37.03 680,-18.03 796,-18.03 796,-37.03"/>
<text text-anchor="middle" x="738" y="-25.03" font-family="Helvetica,sans-Serif" font-size="10.00">pycanha::get_logger</text>
</a>
</g>
</g>
<!-- Node2&#45;&gt;Node18 -->
<g id="edge36_Node000002_Node000018" class="edge">
<title>Node2&#45;&gt;Node18</title>
<g id="a_edge36_Node000002_Node000018"><a xlink:title=" ">
<path fill="none" stroke="#63b8ff" d="M233.32,-240.85C243.94,-211.19 279.93,-120.63 339,-70.53 440.51,15.57 499.43,3.37 632,-8.53 649.11,-10.07 667.61,-12.98 684.24,-16.08"/>
<polygon fill="#63b8ff" stroke="#63b8ff" points="683.84,-19.57 694.32,-18.02 685.16,-12.69 683.84,-19.57"/>
</a>
</g>
</g>
<!-- Node19 -->
<g id="Node000019" class="node">
<title>Node19</title>
<g id="a_Node000019"><a xlink:href="classpycanha_1_1Node.html#ab36caedf2446704d68357c396cf5da9c" target="_top" xlink:title="User node number getter.">
<polygon fill="white" stroke="#666666" points="618.5,-701.53 507.5,-701.53 507.5,-671.53 618.5,-671.53 618.5,-701.53"/>
<text text-anchor="start" x="515.5" y="-689.53" font-family="Helvetica,sans-Serif" font-size="10.00">pycanha::Node::get</text>
<text text-anchor="middle" x="563" y="-678.53" font-family="Helvetica,sans-Serif" font-size="10.00">_node_num</text>
</a>
</g>
</g>
<!-- Node2&#45;&gt;Node19 -->
<g id="edge37_Node000002_Node000019" class="edge">
<title>Node2&#45;&gt;Node19</title>
<g id="a_edge37_Node000002_Node000019"><a xlink:title=" ">
<path fill="none" stroke="#63b8ff" d="M233.46,-260.25C251.78,-310.43 342.53,-542.5 494,-662.53 495.75,-663.92 497.59,-665.23 499.5,-666.47"/>
<polygon fill="#63b8ff" stroke="#63b8ff" points="497.8,-669.53 508.22,-671.45 501.27,-663.45 497.8,-669.53"/>
</a>
</g>
</g>
<!-- Node32 -->
<g id="Node000032" class="node">
<title>Node32</title>
<g id="a_Node000032"><a xlink:href="classpycanha_1_1Node.html#a55a4679e85533618ff220014344cc15b" target="_top" xlink:title="Type getter.">
<polygon fill="white" stroke="#666666" points="632,-37.03 494,-37.03 494,-18.03 632,-18.03 632,-37.03"/>
<text text-anchor="middle" x="563" y="-25.03" font-family="Helvetica,sans-Serif" font-size="10.00">pycanha::Node::get_type</text>
</a>
</g>
</g>
<!-- Node2&#45;&gt;Node32 -->
<g id="edge38_Node000002_Node000032" class="edge">
<title>Node2&#45;&gt;Node32</title>
<g id="a_edge38_Node000002_Node000032"><a xlink:title=" ">
<path fill="none" stroke="#63b8ff" d="M240.25,-240.91C274.01,-209.65 385.78,-109.62 494,-51.53 501.85,-47.31 510.6,-43.59 519.13,-40.4"/>
<polygon fill="#63b8ff" stroke="#63b8ff" points="520.36,-43.68 528.62,-37.04 518.02,-37.08 520.36,-43.68"/>
</a>
</g>
</g>
<!-- Node4 -->
<g id="Node000004" class="node">
<title>Node4</title>
<g id="a_Node000004"><a xlink:href="classpycanha_1_1Node.html#a876558b19fd24813e3ad240d7bcc6b47" target="_top" xlink:title="Area [m^2] getter.">
<polygon fill="white" stroke="#666666" points="624,-557.03 502,-557.03 502,-538.03 624,-538.03 624,-557.03"/>
<text text-anchor="middle" x="563" y="-545.03" font-family="Helvetica,sans-Serif" font-size="10.00">pycanha::Node::get_a</text>
</a>
</g>
</g>
<!-- Node3&#45;&gt;Node4 -->
<g id="edge3_Node000003_Node000004" class="edge">
<title>Node3&#45;&gt;Node4</title>
<g id="a_edge3_Node000003_Node000004"><a xlink:title=" ">
<path fill="none" stroke="#63b8ff" d="M402.01,-340.75C409.09,-378.72 432.84,-478.24 494,-529.53 495.38,-530.69 496.83,-531.78 498.34,-532.79"/>
<polygon fill="#63b8ff" stroke="#63b8ff" points="497.03,-536.07 507.47,-537.89 500.44,-529.96 497.03,-536.07"/>
</a>
</g>
</g>
<!-- Node6 -->
<g id="Node000006" class="node">
<title>Node6</title>
<g id="a_Node000006"><a xlink:href="classpycanha_1_1Node.html#ad4784620cf111949d455951f408a8ff1" target="_top" xlink:title="Solar absortivity getter.">
<polygon fill="white" stroke="#666666" points="630,-520.03 496,-520.03 496,-501.03 630,-501.03 630,-520.03"/>
<text text-anchor="middle" x="563" y="-508.03" font-family="Helvetica,sans-Serif" font-size="10.00">pycanha::Node::get_aph</text>
</a>
</g>
</g>
<!-- Node3&#45;&gt;Node6 -->
<g id="edge5_Node000003_Node000006" class="edge">
<title>Node3&#45;&gt;Node6</title>
<g id="a_edge5_Node000003_Node000006"><a xlink:title=" ">
<path fill="none" stroke="#63b8ff" d="M403.66,-340.66C413.53,-373.58 441.52,-452.03 494,-492.53 495.81,-493.92 497.71,-495.21 499.69,-496.4"/>
<polygon fill="#63b8ff" stroke="#63b8ff" points="498.27,-499.6 508.78,-500.99 501.43,-493.36 498.27,-499.6"/>
</a>
</g>
</g>
<!-- Node8 -->
<g id="Node000008" class="node">
<title>Node8</title>
<g id="a_Node000008"><a xlink:href="classpycanha_1_1Node.html#aa0530593dd3c33b50051fd5630583a9a" target="_top" xlink:title="Thermal capacity [J/K] getter.">
<polygon fill="white" stroke="#666666" points="624.5,-483.03 501.5,-483.03 501.5,-464.03 624.5,-464.03 624.5,-483.03"/>
<text text-anchor="middle" x="563" y="-471.03" font-family="Helvetica,sans-Serif" font-size="10.00">pycanha::Node::get_C</text>
</a>
</g>
</g>
<!-- Node3&#45;&gt;Node8 -->
<g id="edge7_Node000003_Node000008" class="edge">
<title>Node3&#45;&gt;Node8</title>
<g id="a_edge7_Node000003_Node000008"><a xlink:title=" ">
<path fill="none" stroke="#63b8ff" d="M406.18,-340.59C419.07,-367.87 450.03,-425.42 494,-455.53 496.28,-457.09 498.69,-458.52 501.19,-459.82"/>
<polygon fill="#63b8ff" stroke="#63b8ff" points="500,-463.12 510.56,-464.02 502.86,-456.74 500,-463.12"/>
</a>
</g>
</g>
<!-- Node10 -->
<g id="Node000010" class="node">
<title>Node10</title>
<g id="a_Node000010"><a xlink:href="classpycanha_1_1Node.html#a82b33ac89fa4e60186dd49bbccff62a5" target="_top" xlink:title="IR emissivity getter.">
<polygon fill="white" stroke="#666666" points="630,-446.03 496,-446.03 496,-427.03 630,-427.03 630,-446.03"/>
<text text-anchor="middle" x="563" y="-434.03" font-family="Helvetica,sans-Serif" font-size="10.00">pycanha::Node::get_eps</text>
</a>
</g>
</g>
<!-- Node3&#45;&gt;Node10 -->
<g id="edge9_Node000003_Node000010" class="edge">
<title>Node3&#45;&gt;Node10</title>
<g id="a_edge9_Node000003_Node000010"><a xlink:title=" ">
<path fill="none" stroke="#63b8ff" d="M410.83,-340.87C426.98,-361.62 458.6,-398.35 494,-418.53 497.06,-420.28 500.3,-421.86 503.63,-423.29"/>
<polygon fill="#63b8ff" stroke="#63b8ff" points="502.63,-426.65 513.22,-426.94 505.12,-420.11 502.63,-426.65"/>
</a>
</g>
</g>
<!-- Node12 -->
<g id="Node000012" class="node">
<title>Node12</title>
<g id="a_Node000012"><a xlink:href="classpycanha_1_1Node.html#af99429c4bbd433a67325730ed5517252" target="_top" xlink:title="X coordinate [m] getter.">
<polygon fill="white" stroke="#666666" points="626,-409.03 500,-409.03 500,-390.03 626,-390.03 626,-409.03"/>
<text text-anchor="middle" x="563" y="-397.03" font-family="Helvetica,sans-Serif" font-size="10.00">pycanha::Node::get_fx</text>
</a>
</g>
</g>
<!-- Node3&#45;&gt;Node12 -->
<g id="edge11_Node000003_Node000012" class="edge">
<title>Node3&#45;&gt;Node12</title>
<g id="a_edge11_Node000003_Node000012"><a xlink:title=" ">
<path fill="none" stroke="#63b8ff" d="M421.12,-340.7C439.71,-353.15 467.62,-370.47 494,-381.53 498.74,-383.51 503.75,-385.33 508.82,-386.99"/>
<polygon fill="#63b8ff" stroke="#63b8ff" points="508.01,-390.4 518.6,-389.96 510.05,-383.7 508.01,-390.4"/>
</a>
</g>
</g>
<!-- Node14 -->
<g id="Node000014" class="node">
<title>Node14</title>
<g id="a_Node000014"><a xlink:href="classpycanha_1_1Node.html#a75a1e382bb8d0fab4ffc116191f099f5" target="_top" xlink:title="Y coordinate [m] getter.">
<polygon fill="white" stroke="#666666" points="625.5,-372.03 500.5,-372.03 500.5,-353.03 625.5,-353.03 625.5,-372.03"/>
<text text-anchor="middle" x="563" y="-360.03" font-family="Helvetica,sans-Serif" font-size="10.00">pycanha::Node::get_fy</text>
</a>
</g>
</g>
<!-- Node3&#45;&gt;Node14 -->
<g id="edge13_Node000003_Node000014" class="edge">
<title>Node3&#45;&gt;Node14</title>
<g id="a_edge13_Node000003_Node000014"><a xlink:title=" ">
<path fill="none" stroke="#63b8ff" d="M458.17,-338.89C475.18,-342.76 493.63,-346.96 510.19,-350.73"/>
<polygon fill="#63b8ff" stroke="#63b8ff" points="509.7,-354.21 520.23,-353.02 511.26,-347.39 509.7,-354.21"/>
</a>
</g>
</g>
<!-- Node16 -->
<g id="Node000016" class="node">
<title>Node16</title>
<g id="a_Node000016"><a xlink:href="classpycanha_1_1Node.html#a1c12438baa7975c31b59b4b8d8cbfee9" target="_top" xlink:title="Z coordinate [m] getter.">
<polygon fill="white" stroke="#666666" points="625.5,-335.03 500.5,-335.03 500.5,-316.03 625.5,-316.03 625.5,-335.03"/>
<text text-anchor="middle" x="563" y="-323.03" font-family="Helvetica,sans-Serif" font-size="10.00">pycanha::Node::get_fz</text>
</a>
</g>
</g>
<!-- Node3&#45;&gt;Node16 -->
<g id="edge15_Node000003_Node000016" class="edge">
<title>Node3&#45;&gt;Node16</title>
<g id="a_edge15_Node000003_Node000016"><a xlink:title=" ">
<path fill="none" stroke="#63b8ff" d="M458.17,-325.53C468.57,-325.53 479.51,-325.53 490.22,-325.53"/>
<polygon fill="#63b8ff" stroke="#63b8ff" points="490.41,-329.03 500.41,-325.53 490.41,-322.03 490.41,-329.03"/>
</a>
</g>
</g>
<!-- Node3&#45;&gt;Node18 -->
<g id="edge17_Node000003_Node000018" class="edge">
<title>Node3&#45;&gt;Node18</title>
<g id="a_edge17_Node000003_Node000018"><a xlink:title=" ">
<path fill="none" stroke="#63b8ff" d="M403.45,-310.41C416.23,-262.58 457.73,-115.94 494,-84.53 507.73,-72.64 607.68,-51.88 675.05,-38.96"/>
<polygon fill="#63b8ff" stroke="#63b8ff" points="675.98,-42.35 685.15,-37.04 674.67,-35.47 675.98,-42.35"/>
</a>
</g>
</g>
<!-- Node3&#45;&gt;Node19 -->
<g id="edge18_Node000003_Node000019" class="edge">
<title>Node3&#45;&gt;Node19</title>
<g id="a_edge18_Node000003_Node000019"><a xlink:title=" ">
<path fill="none" stroke="#63b8ff" d="M404.53,-340.54C415.1,-372.28 440.08,-448.62 458,-513.53 476.13,-579.2 448.35,-611.96 494,-662.53 495.53,-664.23 497.19,-665.81 498.96,-667.27"/>
<polygon fill="#63b8ff" stroke="#63b8ff" points="497.04,-670.21 507.26,-673.02 501.03,-664.45 497.04,-670.21"/>
</a>
</g>
</g>
<!-- Node20 -->
<g id="Node000020" class="node">
<title>Node20</title>
<g id="a_Node000020"><a xlink:href="classpycanha_1_1Node.html#a716082814c425fc97d24196193216ab7" target="_top" xlink:title="Albedo load [W] getter.">
<polygon fill="white" stroke="#666666" points="627,-298.03 499,-298.03 499,-279.03 627,-279.03 627,-298.03"/>
<text text-anchor="middle" x="563" y="-286.03" font-family="Helvetica,sans-Serif" font-size="10.00">pycanha::Node::get_qa</text>
</a>
</g>
</g>
<!-- Node3&#45;&gt;Node20 -->
<g id="edge19_Node000003_Node000020" class="edge">
<title>Node3&#45;&gt;Node20</title>
<g id="a_edge19_Node000003_Node000020"><a xlink:title=" ">
<path fill="none" stroke="#63b8ff" d="M458.17,-312.17C475.18,-308.3 493.63,-304.1 510.19,-300.33"/>
<polygon fill="#63b8ff" stroke="#63b8ff" points="511.26,-303.67 520.23,-298.04 509.7,-296.85 511.26,-303.67"/>
</a>
</g>
</g>
<!-- Node22 -->
<g id="Node000022" class="node">
<title>Node22</title>
<g id="a_Node000022"><a xlink:href="classpycanha_1_1Node.html#a3f8d98cc232bfb86459eeb1e15803a29" target="_top" xlink:title="Earth IR load [W] getter.">
<polygon fill="white" stroke="#666666" points="627,-261.03 499,-261.03 499,-242.03 627,-242.03 627,-261.03"/>
<text text-anchor="middle" x="563" y="-249.03" font-family="Helvetica,sans-Serif" font-size="10.00">pycanha::Node::get_qe</text>
</a>
</g>
</g>
<!-- Node3&#45;&gt;Node22 -->
<g id="edge21_Node000003_Node000022" class="edge">
<title>Node3&#45;&gt;Node22</title>
<g id="a_edge21_Node000003_Node000022"><a xlink:title=" ">
<path fill="none" stroke="#63b8ff" d="M421.57,-310.51C440.21,-298.36 467.95,-281.54 494,-270.53 499.5,-268.21 505.36,-266.08 511.26,-264.16"/>
<polygon fill="#63b8ff" stroke="#63b8ff" points="512.62,-267.4 521.15,-261.12 510.56,-260.71 512.62,-267.4"/>
</a>
</g>
</g>
<!-- Node24 -->
<g id="Node000024" class="node">
<title>Node24</title>
<g id="a_Node000024"><a xlink:href="classpycanha_1_1Node.html#a8eaf6624e94095586b79ce8208e21fd0" target="_top" xlink:title="Internal load [W] getter.">
<polygon fill="white" stroke="#666666" points="625.5,-224.03 500.5,-224.03 500.5,-205.03 625.5,-205.03 625.5,-224.03"/>
<text text-anchor="middle" x="563" y="-212.03" font-family="Helvetica,sans-Serif" font-size="10.00">pycanha::Node::get_qi</text>
</a>
</g>
</g>
<!-- Node3&#45;&gt;Node24 -->
<g id="edge23_Node000003_Node000024" class="edge">
<title>Node3&#45;&gt;Node24</title>
<g id="a_edge23_Node000003_Node000024"><a xlink:title=" ">
<path fill="none" stroke="#63b8ff" d="M410.91,-310.43C427.15,-289.99 458.87,-253.75 494,-233.53 497.87,-231.3 502.01,-229.33 506.28,-227.57"/>
<polygon fill="#63b8ff" stroke="#63b8ff" points="507.57,-230.82 515.74,-224.08 505.15,-224.26 507.57,-230.82"/>
</a>
</g>
</g>
<!-- Node26 -->
<g id="Node000026" class="node">
<title>Node26</title>
<g id="a_Node000026"><a xlink:href="classpycanha_1_1Node.html#afd9b106f3cc7b293cb9ab474d801823c" target="_top" xlink:title="Other load [W] getter.">
<polygon fill="white" stroke="#666666" points="626,-187.03 500,-187.03 500,-168.03 626,-168.03 626,-187.03"/>
<text text-anchor="middle" x="563" y="-175.03" font-family="Helvetica,sans-Serif" font-size="10.00">pycanha::Node::get_qr</text>
</a>
</g>
</g>
<!-- Node3&#45;&gt;Node26 -->
<g id="edge25_Node000003_Node000026" class="edge">
<title>Node3&#45;&gt;Node26</title>
<g id="a_edge25_Node000003_Node000026"><a xlink:title=" ">
<path fill="none" stroke="#63b8ff" d="M406.46,-310.22C419.58,-283.07 450.63,-226.55 494,-196.53 496.91,-194.52 500.03,-192.71 503.27,-191.1"/>
<polygon fill="#63b8ff" stroke="#63b8ff" points="504.88,-194.22 512.67,-187.05 502.1,-187.79 504.88,-194.22"/>
</a>
</g>
</g>
<!-- Node28 -->
<g id="Node000028" class="node">
<title>Node28</title>
<g id="a_Node000028"><a xlink:href="classpycanha_1_1Node.html#aab3d773b93036e4a219a72ca6b029a50" target="_top" xlink:title="Solar load [W] getter.">
<polygon fill="white" stroke="#666666" points="627,-150.03 499,-150.03 499,-131.03 627,-131.03 627,-150.03"/>
<text text-anchor="middle" x="563" y="-138.03" font-family="Helvetica,sans-Serif" font-size="10.00">pycanha::Node::get_qs</text>
</a>
</g>
</g>
<!-- Node3&#45;&gt;Node28 -->
<g id="edge27_Node000003_Node000028" class="edge">
<title>Node3&#45;&gt;Node28</title>
<g id="a_edge27_Node000003_Node000028"><a xlink:title=" ">
<path fill="none" stroke="#63b8ff" d="M403.88,-310.05C414.02,-277.14 442.24,-199.94 494,-159.53 496.31,-157.73 498.78,-156.09 501.36,-154.62"/>
<polygon fill="#63b8ff" stroke="#63b8ff" points="503.04,-157.69 510.5,-150.17 499.98,-151.4 503.04,-157.69"/>
</a>
</g>
</g>
<!-- Node30 -->
<g id="Node000030" class="node">
<title>Node30</title>
<g id="a_Node000030"><a xlink:href="classpycanha_1_1Node.html#a341fecda21eb1508e112ecd8c693385f" target="_top" xlink:title="Temperature [K] getter.">
<polygon fill="white" stroke="#666666" points="624,-113.03 502,-113.03 502,-94.03 624,-94.03 624,-113.03"/>
<text text-anchor="middle" x="563" y="-101.03" font-family="Helvetica,sans-Serif" font-size="10.00">pycanha::Node::get_T</text>
</a>
</g>
</g>
<!-- Node3&#45;&gt;Node30 -->
<g id="edge29_Node000003_Node000030" class="edge">
<title>Node3&#45;&gt;Node30</title>
<g id="a_edge29_Node000003_Node000030"><a xlink:title=" ">
<path fill="none" stroke="#63b8ff" d="M402.01,-310.31C409.09,-272.35 432.84,-172.82 494,-121.53 495.38,-120.37 496.83,-119.28 498.34,-118.27"/>
<polygon fill="#63b8ff" stroke="#63b8ff" points="500.44,-121.1 507.47,-113.17 497.03,-114.99 500.44,-121.1"/>
</a>
</g>
</g>
<!-- Node3&#45;&gt;Node32 -->
<g id="edge31_Node000003_Node000032" class="edge">
<title>Node3&#45;&gt;Node32</title>
<g id="a_edge31_Node000003_Node000032"><a xlink:title=" ">
<path fill="none" stroke="#63b8ff" d="M402.9,-310.38C414.76,-258.65 455.71,-90.1 494,-51.53 497.91,-47.59 502.51,-44.29 507.45,-41.53"/>
<polygon fill="#63b8ff" stroke="#63b8ff" points="509.11,-44.62 516.6,-37.13 506.07,-38.31 509.11,-44.62"/>
</a>
</g>
</g>
<!-- Node33 -->
<g id="Node000033" class="node">
<title>Node33</title>
<g id="a_Node000033"><a xlink:href="classpycanha_1_1Nodes.html#a2ef3ee52b5de782b318b9860a7becff3" target="_top" xlink:title=" ">
<polygon fill="white" stroke="#666666" points="627,-605.53 499,-605.53 499,-575.53 627,-575.53 627,-605.53"/>
<text text-anchor="start" x="507" y="-593.53" font-family="Helvetica,sans-Serif" font-size="10.00">pycanha::Nodes::insert</text>
<text text-anchor="middle" x="563" y="-582.53" font-family="Helvetica,sans-Serif" font-size="10.00">_displace</text>
</a>
</g>
</g>
<!-- Node3&#45;&gt;Node33 -->
<g id="edge33_Node000003_Node000033" class="edge">
<title>Node3&#45;&gt;Node33</title>
<g id="a_edge33_Node000003_Node000033"><a xlink:title=" ">
<path fill="none" stroke="#63b8ff" d="M403.69,-340.83C417.02,-388.52 459.58,-533.27 494,-566.53 495.1,-567.59 496.24,-568.6 497.43,-569.57"/>
<polygon fill="#63b8ff" stroke="#63b8ff" points="495.6,-572.56 505.82,-575.34 499.57,-566.79 495.6,-572.56"/>
</a>
</g>
</g>
<!-- Node34 -->
<g id="Node000034" class="node">
<title>Node34</title>
<g id="a_Node000034"><a xlink:href="classpycanha_1_1Node.html#aa6ed2994d3acaf711d8f0c12145a7983" target="_top" xlink:title="Set the parent instance.">
<polygon fill="white" stroke="#666666" points="628.5,-653.53 497.5,-653.53 497.5,-623.53 628.5,-623.53 628.5,-653.53"/>
<text text-anchor="start" x="505.5" y="-641.53" font-family="Helvetica,sans-Serif" font-size="10.00">pycanha::Node::set</text>
<text text-anchor="middle" x="563" y="-630.53" font-family="Helvetica,sans-Serif" font-size="10.00">_thermal_nodes_parent</text>
</a>
</g>
</g>
<!-- Node3&#45;&gt;Node34 -->
<g id="edge34_Node000003_Node000034" class="edge">
<title>Node3&#45;&gt;Node34</title>
<g id="a_edge34_Node000003_Node000034"><a xlink:title=" ">
<path fill="none" stroke="#63b8ff" d="M404.28,-340.76C422.78,-399.64 488.93,-609.34 494,-614.53 494.94,-615.49 495.91,-616.41 496.92,-617.29"/>
<polygon fill="#63b8ff" stroke="#63b8ff" points="495.13,-620.32 505.28,-623.36 499.25,-614.65 495.13,-620.32"/>
</a>
</g>
</g>
<!-- Node5 -->
<g id="Node000005" class="node">
<title>Node5</title>
<g id="a_Node000005"><a xlink:href="classpycanha_1_1Nodes.html#ab82156d7252c29b5498f99db2766d02e" target="_top" xlink:title="Area [m^2] getter.">
<polygon fill="white" stroke="#666666" points="802,-557.03 674,-557.03 674,-538.03 802,-538.03 802,-557.03"/>
<text text-anchor="middle" x="738" y="-545.03" font-family="Helvetica,sans-Serif" font-size="10.00">pycanha::Nodes::get_a</text>
</a>
</g>
</g>
<!-- Node4&#45;&gt;Node5 -->
<g id="edge4_Node000004_Node000005" class="edge">
<title>Node4&#45;&gt;Node5</title>
<g id="a_edge4_Node000004_Node000005"><a xlink:title=" ">
<path fill="none" stroke="#63b8ff" d="M624.02,-547.53C636.85,-547.53 650.55,-547.53 663.81,-547.53"/>
<polygon fill="#63b8ff" stroke="#63b8ff" points="663.85,-551.03 673.85,-547.53 663.85,-544.03 663.85,-551.03"/>
</a>
</g>
</g>
<!-- Node7 -->
<g id="Node000007" class="node">
<title>Node7</title>
<g id="a_Node000007"><a xlink:href="classpycanha_1_1Nodes.html#af7a7bb9b2ce3080e447b7da1bdf5356d" target="_top" xlink:title="Solar absortivity getter.">
<polygon fill="white" stroke="#666666" points="808,-520.03 668,-520.03 668,-501.03 808,-501.03 808,-520.03"/>
<text text-anchor="middle" x="738" y="-508.03" font-family="Helvetica,sans-Serif" font-size="10.00">pycanha::Nodes::get_aph</text>
</a>
</g>
</g>
<!-- Node6&#45;&gt;Node7 -->
<g id="edge6_Node000006_Node000007" class="edge">
<title>Node6&#45;&gt;Node7</title>
<g id="a_edge6_Node000006_Node000007"><a xlink:title=" ">
<path fill="none" stroke="#63b8ff" d="M630.39,-510.53C639.32,-510.53 648.56,-510.53 657.68,-510.53"/>
<polygon fill="#63b8ff" stroke="#63b8ff" points="657.92,-514.03 667.92,-510.53 657.92,-507.03 657.92,-514.03"/>
</a>
</g>
</g>
<!-- Node9 -->
<g id="Node000009" class="node">
<title>Node9</title>
<g id="a_Node000009"><a xlink:href="classpycanha_1_1Nodes.html#a5e79301fe2f9a84b00b8d7e3192d0c18" target="_top" xlink:title="Thermal capacity [J/K] getter.">
<polygon fill="white" stroke="#666666" points="802,-483.03 674,-483.03 674,-464.03 802,-464.03 802,-483.03"/>
<text text-anchor="middle" x="738" y="-471.03" font-family="Helvetica,sans-Serif" font-size="10.00">pycanha::Nodes::get_C</text>
</a>
</g>
</g>
<!-- Node8&#45;&gt;Node9 -->
<g id="edge8_Node000008_Node000009" class="edge">
<title>Node8&#45;&gt;Node9</title>
<g id="a_edge8_Node000008_Node000009"><a xlink:title=" ">
<path fill="none" stroke="#63b8ff" d="M624.51,-473.53C637.12,-473.53 650.54,-473.53 663.56,-473.53"/>
<polygon fill="#63b8ff" stroke="#63b8ff" points="663.89,-477.03 673.89,-473.53 663.89,-470.03 663.89,-477.03"/>
</a>
</g>
</g>
<!-- Node11 -->
<g id="Node000011" class="node">
<title>Node11</title>
<g id="a_Node000011"><a xlink:href="classpycanha_1_1Nodes.html#a531d05e7782bb7f07e8df951346cb07d" target="_top" xlink:title="IR emissivity getter.">
<polygon fill="white" stroke="#666666" points="807.5,-446.03 668.5,-446.03 668.5,-427.03 807.5,-427.03 807.5,-446.03"/>
<text text-anchor="middle" x="738" y="-434.03" font-family="Helvetica,sans-Serif" font-size="10.00">pycanha::Nodes::get_eps</text>
</a>
</g>
</g>
<!-- Node10&#45;&gt;Node11 -->
<g id="edge10_Node000010_Node000011" class="edge">
<title>Node10&#45;&gt;Node11</title>
<g id="a_edge10_Node000010_Node000011"><a xlink:title=" ">
<path fill="none" stroke="#63b8ff" d="M630.39,-436.53C639.56,-436.53 649.04,-436.53 658.41,-436.53"/>
<polygon fill="#63b8ff" stroke="#63b8ff" points="658.49,-440.03 668.49,-436.53 658.49,-433.03 658.49,-440.03"/>
</a>
</g>
</g>
<!-- Node13 -->
<g id="Node000013" class="node">
<title>Node13</title>
<g id="a_Node000013"><a xlink:href="classpycanha_1_1Nodes.html#ade1dbf803c8d20e1b2d9ae23ce17db55" target="_top" xlink:title="X coordinate [m] getter.">
<polygon fill="white" stroke="#666666" points="803.5,-409.03 672.5,-409.03 672.5,-390.03 803.5,-390.03 803.5,-409.03"/>
<text text-anchor="middle" x="738" y="-397.03" font-family="Helvetica,sans-Serif" font-size="10.00">pycanha::Nodes::get_fx</text>
</a>
</g>
</g>
<!-- Node12&#45;&gt;Node13 -->
<g id="edge12_Node000012_Node000013" class="edge">
<title>Node12&#45;&gt;Node13</title>
<g id="a_edge12_Node000012_Node000013"><a xlink:title=" ">
<path fill="none" stroke="#63b8ff" d="M626.46,-399.53C637.98,-399.53 650.13,-399.53 661.99,-399.53"/>
<polygon fill="#63b8ff" stroke="#63b8ff" points="662.3,-403.03 672.3,-399.53 662.3,-396.03 662.3,-403.03"/>
</a>
</g>
</g>
<!-- Node15 -->
<g id="Node000015" class="node">
<title>Node15</title>
<g id="a_Node000015"><a xlink:href="classpycanha_1_1Nodes.html#ad9f977fc439adaee3bbb109a7aafba7c" target="_top" xlink:title="Y coordinate [m] getter.">
<polygon fill="white" stroke="#666666" points="803.5,-372.03 672.5,-372.03 672.5,-353.03 803.5,-353.03 803.5,-372.03"/>
<text text-anchor="middle" x="738" y="-360.03" font-family="Helvetica,sans-Serif" font-size="10.00">pycanha::Nodes::get_fy</text>
</a>
</g>
</g>
<!-- Node14&#45;&gt;Node15 -->
<g id="edge14_Node000014_Node000015" class="edge">
<title>Node14&#45;&gt;Node15</title>
<g id="a_edge14_Node000014_Node000015"><a xlink:title=" ">
<path fill="none" stroke="#63b8ff" d="M625.97,-362.53C637.71,-362.53 650.11,-362.53 662.19,-362.53"/>
<polygon fill="#63b8ff" stroke="#63b8ff" points="662.25,-366.03 672.25,-362.53 662.25,-359.03 662.25,-366.03"/>
</a>
</g>
</g>
<!-- Node17 -->
<g id="Node000017" class="node">
<title>Node17</title>
<g id="a_Node000017"><a xlink:href="classpycanha_1_1Nodes.html#a6e62ce9ae684aa26ae0af9559fd38278" target="_top" xlink:title="Z coordinate [m] getter.">
<polygon fill="white" stroke="#666666" points="803.5,-335.03 672.5,-335.03 672.5,-316.03 803.5,-316.03 803.5,-335.03"/>
<text text-anchor="middle" x="738" y="-323.03" font-family="Helvetica,sans-Serif" font-size="10.00">pycanha::Nodes::get_fz</text>
</a>
</g>
</g>
<!-- Node16&#45;&gt;Node17 -->
<g id="edge16_Node000016_Node000017" class="edge">
<title>Node16&#45;&gt;Node17</title>
<g id="a_edge16_Node000016_Node000017"><a xlink:title=" ">
<path fill="none" stroke="#63b8ff" d="M625.97,-325.53C637.71,-325.53 650.11,-325.53 662.19,-325.53"/>
<polygon fill="#63b8ff" stroke="#63b8ff" points="662.25,-329.03 672.25,-325.53 662.25,-322.03 662.25,-329.03"/>
</a>
</g>
</g>
<!-- Node21 -->
<g id="Node000021" class="node">
<title>Node21</title>
<g id="a_Node000021"><a xlink:href="classpycanha_1_1Nodes.html#addc9af809210100179ec50692fa9358e" target="_top" xlink:title="Albedo load [W] getter.">
<polygon fill="white" stroke="#666666" points="805,-298.03 671,-298.03 671,-279.03 805,-279.03 805,-298.03"/>
<text text-anchor="middle" x="738" y="-286.03" font-family="Helvetica,sans-Serif" font-size="10.00">pycanha::Nodes::get_qa</text>
</a>
</g>
</g>
<!-- Node20&#45;&gt;Node21 -->
<g id="edge20_Node000020_Node000021" class="edge">
<title>Node20&#45;&gt;Node21</title>
<g id="a_edge20_Node000020_Node000021"><a xlink:title=" ">
<path fill="none" stroke="#63b8ff" d="M627.44,-288.53C638.29,-288.53 649.67,-288.53 660.81,-288.53"/>
<polygon fill="#63b8ff" stroke="#63b8ff" points="660.96,-292.03 670.96,-288.53 660.96,-285.03 660.96,-292.03"/>
</a>
</g>
</g>
<!-- Node23 -->
<g id="Node000023" class="node">
<title>Node23</title>
<g id="a_Node000023"><a xlink:href="classpycanha_1_1Nodes.html#aa4f2a4ef10430906a8834730b27ae7e0" target="_top" xlink:title="Earth IR load [W] getter.">
<polygon fill="white" stroke="#666666" points="805,-261.03 671,-261.03 671,-242.03 805,-242.03 805,-261.03"/>
<text text-anchor="middle" x="738" y="-249.03" font-family="Helvetica,sans-Serif" font-size="10.00">pycanha::Nodes::get_qe</text>
</a>
</g>
</g>
<!-- Node22&#45;&gt;Node23 -->
<g id="edge22_Node000022_Node000023" class="edge">
<title>Node22&#45;&gt;Node23</title>
<g id="a_edge22_Node000022_Node000023"><a xlink:title=" ">
<path fill="none" stroke="#63b8ff" d="M627.44,-251.53C638.29,-251.53 649.67,-251.53 660.81,-251.53"/>
<polygon fill="#63b8ff" stroke="#63b8ff" points="660.96,-255.03 670.96,-251.53 660.96,-248.03 660.96,-255.03"/>
</a>
</g>
</g>
<!-- Node25 -->
<g id="Node000025" class="node">
<title>Node25</title>
<g id="a_Node000025"><a xlink:href="classpycanha_1_1Nodes.html#a97cf792bfa0bf86bdfb3260ceee6a997" target="_top" xlink:title="Internal load [W] getter.">
<polygon fill="white" stroke="#666666" points="803.5,-224.03 672.5,-224.03 672.5,-205.03 803.5,-205.03 803.5,-224.03"/>
<text text-anchor="middle" x="738" y="-212.03" font-family="Helvetica,sans-Serif" font-size="10.00">pycanha::Nodes::get_qi</text>
</a>
</g>
</g>
<!-- Node24&#45;&gt;Node25 -->
<g id="edge24_Node000024_Node000025" class="edge">
<title>Node24&#45;&gt;Node25</title>
<g id="a_edge24_Node000024_Node000025"><a xlink:title=" ">
<path fill="none" stroke="#63b8ff" d="M625.97,-214.53C637.71,-214.53 650.11,-214.53 662.19,-214.53"/>
<polygon fill="#63b8ff" stroke="#63b8ff" points="662.25,-218.03 672.25,-214.53 662.25,-211.03 662.25,-218.03"/>
</a>
</g>
</g>
<!-- Node27 -->
<g id="Node000027" class="node">
<title>Node27</title>
<g id="a_Node000027"><a xlink:href="classpycanha_1_1Nodes.html#a956e7683c050ed612380aa9f17824ce4" target="_top" xlink:title="Other load [W] getter.">
<polygon fill="white" stroke="#666666" points="803.5,-187.03 672.5,-187.03 672.5,-168.03 803.5,-168.03 803.5,-187.03"/>
<text text-anchor="middle" x="738" y="-175.03" font-family="Helvetica,sans-Serif" font-size="10.00">pycanha::Nodes::get_qr</text>
</a>
</g>
</g>
<!-- Node26&#45;&gt;Node27 -->
<g id="edge26_Node000026_Node000027" class="edge">
<title>Node26&#45;&gt;Node27</title>
<g id="a_edge26_Node000026_Node000027"><a xlink:title=" ">
<path fill="none" stroke="#63b8ff" d="M626.46,-177.53C637.98,-177.53 650.13,-177.53 661.99,-177.53"/>
<polygon fill="#63b8ff" stroke="#63b8ff" points="662.3,-181.03 672.3,-177.53 662.3,-174.03 662.3,-181.03"/>
</a>
</g>
</g>
<!-- Node29 -->
<g id="Node000029" class="node">
<title>Node29</title>
<g id="a_Node000029"><a xlink:href="classpycanha_1_1Nodes.html#a08f2c7c25b0430a8649bfd87952649cb" target="_top" xlink:title="Solar load [W] getter.">
<polygon fill="white" stroke="#666666" points="804.5,-150.03 671.5,-150.03 671.5,-131.03 804.5,-131.03 804.5,-150.03"/>
<text text-anchor="middle" x="738" y="-138.03" font-family="Helvetica,sans-Serif" font-size="10.00">pycanha::Nodes::get_qs</text>
</a>
</g>
</g>
<!-- Node28&#45;&gt;Node29 -->
<g id="edge28_Node000028_Node000029" class="edge">
<title>Node28&#45;&gt;Node29</title>
<g id="a_edge28_Node000028_Node000029"><a xlink:title=" ">
<path fill="none" stroke="#63b8ff" d="M627.44,-140.53C638.36,-140.53 649.82,-140.53 661.04,-140.53"/>
<polygon fill="#63b8ff" stroke="#63b8ff" points="661.25,-144.03 671.25,-140.53 661.25,-137.03 661.25,-144.03"/>
</a>
</g>
</g>
<!-- Node31 -->
<g id="Node000031" class="node">
<title>Node31</title>
<g id="a_Node000031"><a xlink:href="classpycanha_1_1Nodes.html#a10ec85737e6be55ce7a96b448bbe29f3" target="_top" xlink:title="Temperature [K] getter.">
<polygon fill="white" stroke="#666666" points="802,-113.03 674,-113.03 674,-94.03 802,-94.03 802,-113.03"/>
<text text-anchor="middle" x="738" y="-101.03" font-family="Helvetica,sans-Serif" font-size="10.00">pycanha::Nodes::get_T</text>
</a>
</g>
</g>
<!-- Node30&#45;&gt;Node31 -->
<g id="edge30_Node000030_Node000031" class="edge">
<title>Node30&#45;&gt;Node31</title>
<g id="a_edge30_Node000030_Node000031"><a xlink:title=" ">
<path fill="none" stroke="#63b8ff" d="M624.02,-103.53C636.85,-103.53 650.55,-103.53 663.81,-103.53"/>
<polygon fill="#63b8ff" stroke="#63b8ff" points="663.85,-107.03 673.85,-103.53 663.85,-100.03 663.85,-107.03"/>
</a>
</g>
</g>
<!-- Node32&#45;&gt;Node18 -->
<g id="edge32_Node000032_Node000018" class="edge">
<title>Node32&#45;&gt;Node18</title>
<g id="a_edge32_Node000032_Node000018"><a xlink:title=" ">
<path fill="none" stroke="#63b8ff" d="M632.37,-27.53C644.7,-27.53 657.53,-27.53 669.82,-27.53"/>
<polygon fill="#63b8ff" stroke="#63b8ff" points="669.99,-31.03 679.99,-27.53 669.99,-24.03 669.99,-31.03"/>
</a>
</g>
</g>
<!-- Node35 -->
<g id="Node000035" class="node">
<title>Node35</title>
<g id="a_Node000035"><a xlink:href="classpycanha_1_1Node.html#a6b3e48a500d2f713fc7ee37e26693749" target="_top" xlink:title=" ">
<polygon fill="white" stroke="#666666" points="797.5,-653.53 678.5,-653.53 678.5,-623.53 797.5,-623.53 797.5,-653.53"/>
<text text-anchor="start" x="686.5" y="-641.53" font-family="Helvetica,sans-Serif" font-size="10.00">pycanha::Node::local</text>
<text text-anchor="middle" x="738" y="-630.53" font-family="Helvetica,sans-Serif" font-size="10.00">_storage_destructor</text>
</a>
</g>
</g>
<!-- Node34&#45;&gt;Node35 -->
<g id="edge35_Node000034_Node000035" class="edge">
<title>Node34&#45;&gt;Node35</title>
<g id="a_edge35_Node000034_Node000035"><a xlink:title=" ">
<path fill="none" stroke="#63b8ff" d="M628.91,-638.53C641.7,-638.53 655.15,-638.53 668.07,-638.53"/>
<polygon fill="#63b8ff" stroke="#63b8ff" points="668.28,-642.03 678.28,-638.53 668.28,-635.03 668.28,-642.03"/>
</a>
</g>
</g>
</g>
</svg>
