<?xml version="1.0" encoding="UTF-8" standalone="no"?>
<!DOCTYPE svg PUBLIC "-//W3C//DTD SVG 1.1//EN"
 "http://www.w3.org/Graphics/SVG/1.1/DTD/svg11.dtd">
<!-- Generated by graphviz version 2.43.0 (0)
 -->
<!-- Title: pycanha::ParameterFormula Pages: 1 -->
<svg width="250pt" height="93pt"
 viewBox="0.00 0.00 249.50 93.00" xmlns="http://www.w3.org/2000/svg" xmlns:xlink="http://www.w3.org/1999/xlink">
<g id="graph0" class="graph" transform="scale(1 1) rotate(0) translate(4 89)">
<title>pycanha::ParameterFormula</title>
<!-- Node1 -->
<g id="Node000001" class="node">
<title>Node1</title>
<g id="a_Node000001"><a xlink:title=" ">
<polygon fill="#999999" stroke="#666666" points="194,-19 40,-19 40,0 194,0 194,-19"/>
<text text-anchor="middle" x="117" y="-7" font-family="Helvetica,sans-Serif" font-size="10.00">pycanha::ParameterFormula</text>
</a>
</g>
</g>
<!-- Node2 -->
<g id="Node000002" class="node">
<title>Node2</title>
<g id="a_Node000002"><a xlink:href="classpycanha_1_1Formula.html" target="_top" xlink:title=" ">
<polygon fill="white" stroke="#bfbfbf" points="104,-85 0,-85 0,-66 104,-66 104,-85"/>
<text text-anchor="middle" x="52" y="-73" font-family="Helvetica,sans-Serif" font-size="10.00">pycanha::Formula</text>
</a>
</g>
</g>
<!-- Node2&#45;&gt;Node1 -->
<g id="edge1_Node000001_Node000002" class="edge">
<title>Node2&#45;&gt;Node1</title>
<g id="a_edge1_Node000001_Node000002"><a xlink:title=" ">
<path fill="none" stroke="#63b8ff" d="M67.92,-58.83C80.5,-46.44 97.62,-29.59 107.96,-19.41"/>
<polygon fill="#63b8ff" stroke="#63b8ff" points="65.44,-56.36 60.77,-65.87 70.35,-61.35 65.44,-56.36"/>
</a>
</g>
</g>
<!-- Node3 -->
<g id="Node000003" class="node">
<title>Node3</title>
<g id="a_Node000003"><a xlink:href="classpycanha_1_1Parameters.html" target="_top" xlink:title=" ">
<polygon fill="white" stroke="#bfbfbf" points="241.5,-85 122.5,-85 122.5,-66 241.5,-66 241.5,-85"/>
<text text-anchor="middle" x="182" y="-73" font-family="Helvetica,sans-Serif" font-size="10.00">pycanha::Parameters</text>
</a>
</g>
</g>
<!-- Node3&#45;&gt;Node1 -->
<g id="edge2_Node000001_Node000003" class="edge">
<title>Node3&#45;&gt;Node1</title>
<g id="a_edge2_Node000001_Node000003"><a xlink:title=" ">
<path fill="none" stroke="#9a32cd" stroke-dasharray="5,2" d="M166.08,-58.83C153.5,-46.44 136.38,-29.59 126.04,-19.41"/>
<polygon fill="#9a32cd" stroke="#9a32cd" points="163.65,-61.35 173.23,-65.87 168.56,-56.36 163.65,-61.35"/>
</a>
</g>
<text text-anchor="middle" x="185.5" y="-40" font-family="Helvetica,sans-Serif" font-size="10.00" fill="grey"> _parameters</text>
</g>
</g>
</svg>
