<?xml version="1.0" encoding="UTF-8" standalone="no"?>
<!DOCTYPE svg PUBLIC "-//W3C//DTD SVG 1.1//EN"
 "http://www.w3.org/Graphics/SVG/1.1/DTD/svg11.dtd">
<!-- Generated by graphviz version 2.43.0 (0)
 -->
<!-- Title: pycanha::RadiativeCouplingEntity Pages: 1 -->
<svg width="161pt" height="216pt"
 viewBox="0.00 0.00 161.00 216.00" xmlns="http://www.w3.org/2000/svg" xmlns:xlink="http://www.w3.org/1999/xlink">
<g id="graph0" class="graph" transform="scale(1 1) rotate(0) translate(4 212)">
<title>pycanha::RadiativeCouplingEntity</title>
<!-- Node1 -->
<g id="Node000001" class="node">
<title>Node1</title>
<g id="a_Node000001"><a xlink:title=" ">
<polygon fill="#999999" stroke="#666666" points="153,-30 0,-30 0,0 153,0 153,-30"/>
<text text-anchor="start" x="8" y="-18" font-family="Helvetica,sans-Serif" font-size="10.00">pycanha::RadiativeCoupling</text>
<text text-anchor="middle" x="76.5" y="-7" font-family="Helvetica,sans-Serif" font-size="10.00">Entity</text>
</a>
</g>
</g>
<!-- Node2 -->
<g id="Node000002" class="node">
<title>Node2</title>
<g id="a_Node000002"><a xlink:href="classpycanha_1_1CouplingEntity.html" target="_top" xlink:title=" ">
<polygon fill="white" stroke="#bfbfbf" points="144,-86 9,-86 9,-67 144,-67 144,-86"/>
<text text-anchor="middle" x="76.5" y="-74" font-family="Helvetica,sans-Serif" font-size="10.00">pycanha::CouplingEntity</text>
</a>
</g>
</g>
<!-- Node2&#45;&gt;Node1 -->
<g id="edge1_Node000001_Node000002" class="edge">
<title>Node2&#45;&gt;Node1</title>
<g id="a_edge1_Node000001_Node000002"><a xlink:title=" ">
<path fill="none" stroke="#63b8ff" d="M76.5,-56.73C76.5,-48.09 76.5,-38 76.5,-30.02"/>
<polygon fill="#63b8ff" stroke="#63b8ff" points="73,-56.98 76.5,-66.98 80,-56.98 73,-56.98"/>
</a>
</g>
</g>
<!-- Node3 -->
<g id="Node000003" class="node">
<title>Node3</title>
<g id="a_Node000003"><a xlink:href="classpycanha_1_1ThermalEntity.html" target="_top" xlink:title=" ">
<polygon fill="white" stroke="#bfbfbf" points="143,-142 10,-142 10,-123 143,-123 143,-142"/>
<text text-anchor="middle" x="76.5" y="-130" font-family="Helvetica,sans-Serif" font-size="10.00">pycanha::ThermalEntity</text>
</a>
</g>
</g>
<!-- Node3&#45;&gt;Node2 -->
<g id="edge2_Node000002_Node000003" class="edge">
<title>Node3&#45;&gt;Node2</title>
<g id="a_edge2_Node000002_Node000003"><a xlink:title=" ">
<path fill="none" stroke="#63b8ff" d="M76.5,-112.3C76.5,-103.41 76.5,-93.28 76.5,-86.25"/>
<polygon fill="#63b8ff" stroke="#63b8ff" points="73,-112.58 76.5,-122.58 80,-112.58 73,-112.58"/>
</a>
</g>
</g>
<!-- Node4 -->
<g id="Node000004" class="node">
<title>Node4</title>
<g id="a_Node000004"><a xlink:href="classpycanha_1_1ThermalNetwork.html" target="_top" xlink:title=" ">
<polygon fill="white" stroke="#bfbfbf" points="149.5,-208 3.5,-208 3.5,-189 149.5,-189 149.5,-208"/>
<text text-anchor="middle" x="76.5" y="-196" font-family="Helvetica,sans-Serif" font-size="10.00">pycanha::ThermalNetwork</text>
</a>
</g>
</g>
<!-- Node4&#45;&gt;Node3 -->
<g id="edge3_Node000003_Node000004" class="edge">
<title>Node4&#45;&gt;Node3</title>
<g id="a_edge3_Node000003_Node000004"><a xlink:title=" ">
<path fill="none" stroke="#9a32cd" stroke-dasharray="5,2" d="M76.5,-178.58C76.5,-166.63 76.5,-151.72 76.5,-142.41"/>
<polygon fill="#9a32cd" stroke="#9a32cd" points="73,-178.87 76.5,-188.87 80,-178.87 73,-178.87"/>
</a>
</g>
<text text-anchor="middle" x="101" y="-163" font-family="Helvetica,sans-Serif" font-size="10.00" fill="grey"> _network</text>
</g>
</g>
</svg>
