<?xml version="1.0" encoding="UTF-8" standalone="no"?>
<!DOCTYPE svg PUBLIC "-//W3C//DTD SVG 1.1//EN"
 "http://www.w3.org/Graphics/SVG/1.1/DTD/svg11.dtd">
<!-- Generated by graphviz version 2.43.0 (0)
 -->
<!-- Title: pycanha::gmm::Primitive::reconstruct_face_edges_2d Pages: 1 -->
<svg width="361pt" height="86pt"
 viewBox="0.00 0.00 361.00 86.00" xmlns="http://www.w3.org/2000/svg" xmlns:xlink="http://www.w3.org/1999/xlink">
<g id="graph0" class="graph" transform="scale(1 1) rotate(0) translate(4 82)">
<title>pycanha::gmm::Primitive::reconstruct_face_edges_2d</title>
<!-- Node1 -->
<g id="Node000001" class="node">
<title>Node1</title>
<g id="a_Node000001"><a xlink:title="Iterate over all the edges in the mesh and assign each one to the correspondent face....">
<polygon fill="#999999" stroke="#666666" points="155,-54 0,-54 0,-24 155,-24 155,-54"/>
<text text-anchor="start" x="8" y="-42" font-family="Helvetica,sans-Serif" font-size="10.00">pycanha::gmm::Primitive</text>
<text text-anchor="middle" x="77.5" y="-31" font-family="Helvetica,sans-Serif" font-size="10.00">::reconstruct_face_edges_2d</text>
</a>
</g>
</g>
<!-- Node2 -->
<g id="Node000002" class="node">
<title>Node2</title>
<g id="a_Node000002"><a xlink:href="classpycanha_1_1gmm_1_1Primitive.html#ab9cdca3dd0c0726e36b8dae1967885bc" target="_top" xlink:title="Returns the ID of the face in the thermal mesh that contains the given UV coordinates....">
<polygon fill="white" stroke="#666666" points="342,-78 202,-78 202,-48 342,-48 342,-78"/>
<text text-anchor="start" x="210" y="-66" font-family="Helvetica,sans-Serif" font-size="10.00">pycanha::gmm::Primitive</text>
<text text-anchor="middle" x="272" y="-55" font-family="Helvetica,sans-Serif" font-size="10.00">::get_faceid_from_uv</text>
</a>
</g>
</g>
<!-- Node1&#45;&gt;Node2 -->
<g id="edge1_Node000001_Node000002" class="edge">
<title>Node1&#45;&gt;Node2</title>
<g id="a_edge1_Node000001_Node000002"><a xlink:title=" ">
<path fill="none" stroke="#63b8ff" d="M155.13,-48.55C167.18,-50.06 179.64,-51.61 191.74,-53.12"/>
<polygon fill="#63b8ff" stroke="#63b8ff" points="191.45,-56.61 201.8,-54.37 192.31,-49.66 191.45,-56.61"/>
</a>
</g>
</g>
<!-- Node3 -->
<g id="Node000003" class="node">
<title>Node3</title>
<g id="a_Node000003"><a xlink:href="classpycanha_1_1gmm_1_1ThermalMesh.html#aa4f95a1ff0a29ef63939fff7fb0e0480" target="_top" xlink:title="Return number of pair of faces.">
<polygon fill="white" stroke="#666666" points="353,-30 191,-30 191,0 353,0 353,-30"/>
<text text-anchor="start" x="199" y="-18" font-family="Helvetica,sans-Serif" font-size="10.00">pycanha::gmm::ThermalMesh</text>
<text text-anchor="middle" x="272" y="-7" font-family="Helvetica,sans-Serif" font-size="10.00">::get_number_of_pair_faces</text>
</a>
</g>
</g>
<!-- Node1&#45;&gt;Node3 -->
<g id="edge2_Node000001_Node000003" class="edge">
<title>Node1&#45;&gt;Node3</title>
<g id="a_edge2_Node000001_Node000003"><a xlink:title=" ">
<path fill="none" stroke="#63b8ff" d="M155.13,-29.45C163.57,-28.39 172.22,-27.31 180.81,-26.24"/>
<polygon fill="#63b8ff" stroke="#63b8ff" points="181.35,-29.7 190.84,-24.99 180.49,-22.76 181.35,-29.7"/>
</a>
</g>
</g>
</g>
</svg>
