<?xml version="1.0" encoding="UTF-8" standalone="no"?>
<!DOCTYPE svg PUBLIC "-//W3C//DTD SVG 1.1//EN"
 "http://www.w3.org/Graphics/SVG/1.1/DTD/svg11.dtd">
<!-- Generated by graphviz version 2.43.0 (0)
 -->
<!-- Title: pycanha::DataModel Pages: 1 -->
<svg width="497pt" height="214pt"
 viewBox="0.00 0.00 497.00 214.00" xmlns="http://www.w3.org/2000/svg" xmlns:xlink="http://www.w3.org/1999/xlink">
<g id="graph0" class="graph" transform="scale(1 1) rotate(0) translate(4 210)">
<title>pycanha::DataModel</title>
<!-- Node1 -->
<g id="Node000001" class="node">
<title>Node1</title>
<g id="a_Node000001"><a xlink:title=" ">
<polygon fill="#999999" stroke="#666666" points="302,-19 185,-19 185,0 302,0 302,-19"/>
<text text-anchor="middle" x="243.5" y="-7" font-family="Helvetica,sans-Serif" font-size="10.00">pycanha::DataModel</text>
</a>
</g>
</g>
<!-- Node2 -->
<g id="Node000002" class="node">
<title>Node2</title>
<g id="a_Node000002"><a xlink:href="classpycanha_1_1DenseTimeSeries.html" target="_top" xlink:title=" ">
<polygon fill="white" stroke="#bfbfbf" points="149,-200.5 0,-200.5 0,-181.5 149,-181.5 149,-200.5"/>
<text text-anchor="middle" x="74.5" y="-188.5" font-family="Helvetica,sans-Serif" font-size="10.00">pycanha::DenseTimeSeries</text>
</a>
</g>
</g>
<!-- Node2&#45;&gt;Node1 -->
<g id="edge1_Node000001_Node000002" class="edge">
<title>Node2&#45;&gt;Node1</title>
<g id="a_edge1_Node000001_Node000002"><a xlink:title=" ">
<path fill="none" stroke="#9a32cd" stroke-dasharray="5,2" d="M88.35,-173.61C112.74,-145 165.33,-84.5 213.5,-37 219.83,-30.75 227.33,-24.13 233.25,-19.07"/>
<polygon fill="#9a32cd" stroke="#9a32cd" points="85.53,-171.52 81.72,-181.41 90.86,-176.05 85.53,-171.52"/>
</a>
</g>
<text text-anchor="middle" x="226.5" y="-150" font-family="Helvetica,sans-Serif" font-size="10.00" fill="grey"> _A</text>
<text text-anchor="middle" x="226.5" y="-139" font-family="Helvetica,sans-Serif" font-size="10.00" fill="grey">_APH</text>
<text text-anchor="middle" x="226.5" y="-128" font-family="Helvetica,sans-Serif" font-size="10.00" fill="grey">_C</text>
<text text-anchor="middle" x="226.5" y="-117" font-family="Helvetica,sans-Serif" font-size="10.00" fill="grey">_EPS</text>
<text text-anchor="middle" x="226.5" y="-106" font-family="Helvetica,sans-Serif" font-size="10.00" fill="grey">_FX</text>
<text text-anchor="middle" x="226.5" y="-95" font-family="Helvetica,sans-Serif" font-size="10.00" fill="grey">_FY</text>
<text text-anchor="middle" x="226.5" y="-84" font-family="Helvetica,sans-Serif" font-size="10.00" fill="grey">_FZ</text>
<text text-anchor="middle" x="226.5" y="-73" font-family="Helvetica,sans-Serif" font-size="10.00" fill="grey">_QA</text>
<text text-anchor="middle" x="226.5" y="-62" font-family="Helvetica,sans-Serif" font-size="10.00" fill="grey">_QE</text>
<text text-anchor="middle" x="226.5" y="-51" font-family="Helvetica,sans-Serif" font-size="10.00" fill="grey">_QI</text>
<text text-anchor="middle" x="226.5" y="-40" font-family="Helvetica,sans-Serif" font-size="10.00" fill="grey">...</text>
</g>
<!-- Node3 -->
<g id="Node000003" class="node">
<title>Node3</title>
<g id="a_Node000003"><a xlink:href="classpycanha_1_1SparseTimeSeries.html" target="_top" xlink:title=" ">
<polygon fill="white" stroke="#bfbfbf" points="319.5,-200.5 167.5,-200.5 167.5,-181.5 319.5,-181.5 319.5,-200.5"/>
<text text-anchor="middle" x="243.5" y="-188.5" font-family="Helvetica,sans-Serif" font-size="10.00">pycanha::SparseTimeSeries</text>
</a>
</g>
</g>
<!-- Node3&#45;&gt;Node1 -->
<g id="edge2_Node000001_Node000003" class="edge">
<title>Node3&#45;&gt;Node1</title>
<g id="a_edge2_Node000001_Node000003"><a xlink:title=" ">
<path fill="none" stroke="#9a32cd" stroke-dasharray="5,2" d="M243.5,-171.03C243.5,-132.52 243.5,-46.49 243.5,-19.07"/>
<polygon fill="#9a32cd" stroke="#9a32cd" points="240,-171.34 243.5,-181.34 247,-171.34 240,-171.34"/>
</a>
</g>
<text text-anchor="middle" x="300.5" y="-100.5" font-family="Helvetica,sans-Serif" font-size="10.00" fill="grey"> _conductive_couplings</text>
<text text-anchor="middle" x="300.5" y="-89.5" font-family="Helvetica,sans-Serif" font-size="10.00" fill="grey">_radiative_couplings</text>
</g>
<!-- Node4 -->
<g id="Node000004" class="node">
<title>Node4</title>
<g id="a_Node000004"><a xlink:href="classpycanha_1_1DenseMatrixTimeSeries.html" target="_top" xlink:title=" ">
<polygon fill="white" stroke="#bfbfbf" points="489,-206 338,-206 338,-176 489,-176 489,-206"/>
<text text-anchor="start" x="346" y="-194" font-family="Helvetica,sans-Serif" font-size="10.00">pycanha::DenseMatrixTime</text>
<text text-anchor="middle" x="413.5" y="-183" font-family="Helvetica,sans-Serif" font-size="10.00">Series</text>
</a>
</g>
</g>
<!-- Node4&#45;&gt;Node1 -->
<g id="edge3_Node000001_Node000004" class="edge">
<title>Node4&#45;&gt;Node1</title>
<g id="a_edge3_Node000001_Node000004"><a xlink:title=" ">
<path fill="none" stroke="#9a32cd" stroke-dasharray="5,2" d="M412.34,-165.72C409.35,-131.76 398.78,-70.5 361.5,-37 352.36,-28.79 326.93,-22.55 302.01,-18.19"/>
<polygon fill="#9a32cd" stroke="#9a32cd" points="408.85,-166 413.06,-175.72 415.83,-165.49 408.85,-166"/>
</a>
</g>
<text text-anchor="middle" x="435.5" y="-95" font-family="Helvetica,sans-Serif" font-size="10.00" fill="grey"> _jacobian</text>
</g>
</g>
</svg>
