<?xml version="1.0" encoding="UTF-8" standalone="no"?>
<!DOCTYPE svg PUBLIC "-//W3C//DTD SVG 1.1//EN"
 "http://www.w3.org/Graphics/SVG/1.1/DTD/svg11.dtd">
<!-- Generated by graphviz version 2.43.0 (0)
 -->
<!-- Title: pycanha::gmm::GeometryGroupCutted::create_cutted_mesh Pages: 1 -->
<svg width="834pt" height="86pt"
 viewBox="0.00 0.00 834.00 86.00" xmlns="http://www.w3.org/2000/svg" xmlns:xlink="http://www.w3.org/1999/xlink">
<g id="graph0" class="graph" transform="scale(1 1) rotate(0) translate(4 82)">
<title>pycanha::gmm::GeometryGroupCutted::create_cutted_mesh</title>
<!-- Node1 -->
<g id="Node000001" class="node">
<title>Node1</title>
<g id="a_Node000001"><a xlink:title="Creates the cutted mesh.">
<polygon fill="#999999" stroke="#666666" points="173,-54 0,-54 0,-24 173,-24 173,-54"/>
<text text-anchor="start" x="8" y="-42" font-family="Helvetica,sans-Serif" font-size="10.00">pycanha::gmm::GeometryGroup</text>
<text text-anchor="middle" x="86.5" y="-31" font-family="Helvetica,sans-Serif" font-size="10.00">Cutted::create_cutted_mesh</text>
</a>
</g>
</g>
<!-- Node2 -->
<g id="Node000002" class="node">
<title>Node2</title>
<g id="a_Node000002"><a xlink:href="classpycanha_1_1gmm_1_1GeometryGroupCutted.html#ad4999df9e16d08d9623bd9e5aa8c9195" target="_top" xlink:title="Clears the resultant cutting meshes.">
<polygon fill="white" stroke="#666666" points="382,-78 209,-78 209,-48 382,-48 382,-78"/>
<text text-anchor="start" x="217" y="-66" font-family="Helvetica,sans-Serif" font-size="10.00">pycanha::gmm::GeometryGroup</text>
<text text-anchor="middle" x="295.5" y="-55" font-family="Helvetica,sans-Serif" font-size="10.00">Cutted::clear_cutted_mesh</text>
</a>
</g>
</g>
<!-- Node1&#45;&gt;Node2 -->
<g id="edge1_Node000001_Node000002" class="edge">
<title>Node1&#45;&gt;Node2</title>
<g id="a_edge1_Node000001_Node000002"><a xlink:title=" ">
<path fill="none" stroke="#63b8ff" d="M173.19,-48.93C181.66,-49.92 190.3,-50.92 198.87,-51.91"/>
<polygon fill="#63b8ff" stroke="#63b8ff" points="198.54,-55.4 208.88,-53.07 199.34,-48.44 198.54,-55.4"/>
</a>
</g>
</g>
<!-- Node3 -->
<g id="Node000003" class="node">
<title>Node3</title>
<g id="a_Node000003"><a xlink:href="classpycanha_1_1gmm_1_1GeometryGroup.html#acaeec5a5ecddcaa60a934e6d88807dc1" target="_top" xlink:title="Recursively iterates over all geometry below a GeometryGroupCutted. Call this function only from top ...">
<polygon fill="white" stroke="#666666" points="382,-30 209,-30 209,0 382,0 382,-30"/>
<text text-anchor="start" x="217" y="-18" font-family="Helvetica,sans-Serif" font-size="10.00">pycanha::gmm::GeometryGroup</text>
<text text-anchor="middle" x="295.5" y="-7" font-family="Helvetica,sans-Serif" font-size="10.00">::iterate_create_cut_groups</text>
</a>
</g>
</g>
<!-- Node1&#45;&gt;Node3 -->
<g id="edge2_Node000001_Node000003" class="edge">
<title>Node1&#45;&gt;Node3</title>
<g id="a_edge2_Node000001_Node000003"><a xlink:title=" ">
<path fill="none" stroke="#63b8ff" d="M173.19,-29.07C181.66,-28.08 190.3,-27.08 198.87,-26.09"/>
<polygon fill="#63b8ff" stroke="#63b8ff" points="199.34,-29.56 208.88,-24.93 198.54,-22.6 199.34,-29.56"/>
</a>
</g>
</g>
<!-- Node4 -->
<g id="Node000004" class="node">
<title>Node4</title>
<g id="a_Node000004"><a xlink:href="classpycanha_1_1gmm_1_1CoordinateTransformation.html#a2223d8c13985136ad110d1cb4126f9d9" target="_top" xlink:title="Creates a new transformation equivalent to applying other and then this.">
<polygon fill="white" stroke="#666666" points="567,-30 418,-30 418,0 567,0 567,-30"/>
<text text-anchor="start" x="426" y="-18" font-family="Helvetica,sans-Serif" font-size="10.00">pycanha::gmm::Coordinate</text>
<text text-anchor="middle" x="492.5" y="-7" font-family="Helvetica,sans-Serif" font-size="10.00">Transformation::chain</text>
</a>
</g>
</g>
<!-- Node3&#45;&gt;Node4 -->
<g id="edge3_Node000003_Node000004" class="edge">
<title>Node3&#45;&gt;Node4</title>
<g id="a_edge3_Node000003_Node000004"><a xlink:title=" ">
<path fill="none" stroke="#63b8ff" d="M382.03,-15C390.54,-15 399.18,-15 407.67,-15"/>
<polygon fill="#63b8ff" stroke="#63b8ff" points="407.94,-18.5 417.94,-15 407.94,-11.5 407.94,-18.5"/>
</a>
</g>
</g>
<!-- Node5 -->
<g id="Node000005" class="node">
<title>Node5</title>
<g id="a_Node000005"><a xlink:href="classpycanha_1_1gmm_1_1CoordinateTransformation.html#adb564610750eb3d80d29e8a4de0d7aae" target="_top" xlink:title="Default constructor for CoordinateTransformation class.">
<polygon fill="white" stroke="#666666" points="826,-30 603,-30 603,0 826,0 826,-30"/>
<text text-anchor="start" x="611" y="-18" font-family="Helvetica,sans-Serif" font-size="10.00">pycanha::gmm::Coordinate</text>
<text text-anchor="middle" x="714.5" y="-7" font-family="Helvetica,sans-Serif" font-size="10.00">Transformation::CoordinateTransformation</text>
</a>
</g>
</g>
<!-- Node4&#45;&gt;Node5 -->
<g id="edge4_Node000004_Node000005" class="edge">
<title>Node4&#45;&gt;Node5</title>
<g id="a_edge4_Node000004_Node000005"><a xlink:title=" ">
<path fill="none" stroke="#63b8ff" d="M567.06,-15C575.32,-15 583.89,-15 592.55,-15"/>
<polygon fill="#63b8ff" stroke="#63b8ff" points="592.75,-18.5 602.75,-15 592.75,-11.5 592.75,-18.5"/>
</a>
</g>
</g>
</g>
</svg>
