<?xml version="1.0" encoding="UTF-8" standalone="no"?>
<!DOCTYPE svg PUBLIC "-//W3C//DTD SVG 1.1//EN"
 "http://www.w3.org/Graphics/SVG/1.1/DTD/svg11.dtd">
<!-- Generated by graphviz version 2.43.0 (0)
 -->
<!-- Title: pycanha::gmm::TriMeshModel::add_mesh Pages: 1 -->
<svg width="340pt" height="508pt"
 viewBox="0.00 0.00 340.00 508.00" xmlns="http://www.w3.org/2000/svg" xmlns:xlink="http://www.w3.org/1999/xlink">
<g id="graph0" class="graph" transform="scale(1 1) rotate(0) translate(4 504)">
<title>pycanha::gmm::TriMeshModel::add_mesh</title>
<!-- Node1 -->
<g id="Node000001" class="node">
<title>Node1</title>
<g id="a_Node000001"><a xlink:title="Aggregate the contents of a Trimesh to this one.">
<polygon fill="#999999" stroke="#666666" points="163,-270 0,-270 0,-240 163,-240 163,-270"/>
<text text-anchor="start" x="8" y="-258" font-family="Helvetica,sans-Serif" font-size="10.00">pycanha::gmm::TriMeshModel</text>
<text text-anchor="middle" x="81.5" y="-247" font-family="Helvetica,sans-Serif" font-size="10.00">::add_mesh</text>
</a>
</g>
</g>
<!-- Node2 -->
<g id="Node000002" class="node">
<title>Node2</title>
<g id="a_Node000002"><a xlink:href="classpycanha_1_1gmm_1_1TriMesh.html#a4e106b5e41ca2fd5f6dc4a1bdde6f8db" target="_top" xlink:title="Get cummulative area vector.">
<polygon fill="white" stroke="#666666" points="332,-500 199,-500 199,-470 332,-470 332,-500"/>
<text text-anchor="start" x="207" y="-488" font-family="Helvetica,sans-Serif" font-size="10.00">pycanha::gmm::TriMesh</text>
<text text-anchor="middle" x="265.5" y="-477" font-family="Helvetica,sans-Serif" font-size="10.00">::get_cumareas</text>
</a>
</g>
</g>
<!-- Node1&#45;&gt;Node2 -->
<g id="edge1_Node000001_Node000002" class="edge">
<title>Node1&#45;&gt;Node2</title>
<g id="a_edge1_Node000001_Node000002"><a xlink:title=" ">
<path fill="none" stroke="#63b8ff" d="M86.97,-270.06C98.88,-307.67 134.93,-406.64 199,-461 200.52,-462.29 202.12,-463.52 203.78,-464.68"/>
<polygon fill="#63b8ff" stroke="#63b8ff" points="202.14,-467.78 212.5,-469.98 205.77,-461.79 202.14,-467.78"/>
</a>
</g>
</g>
<!-- Node3 -->
<g id="Node000003" class="node">
<title>Node3</title>
<g id="a_Node000003"><a xlink:href="classpycanha_1_1gmm_1_1TriMesh.html#a4791955cf63c345d8f60077ea1bb044e" target="_top" xlink:title="Get edges.">
<polygon fill="white" stroke="#666666" points="332,-452 199,-452 199,-422 332,-422 332,-452"/>
<text text-anchor="start" x="207" y="-440" font-family="Helvetica,sans-Serif" font-size="10.00">pycanha::gmm::TriMesh</text>
<text text-anchor="middle" x="265.5" y="-429" font-family="Helvetica,sans-Serif" font-size="10.00">::get_edges</text>
</a>
</g>
</g>
<!-- Node1&#45;&gt;Node3 -->
<g id="edge2_Node000001_Node000003" class="edge">
<title>Node1&#45;&gt;Node3</title>
<g id="a_edge2_Node000001_Node000003"><a xlink:title=" ">
<path fill="none" stroke="#63b8ff" d="M89.89,-270.37C105.66,-301.6 145.55,-372.93 199,-413 200.85,-414.39 202.79,-415.7 204.79,-416.94"/>
<polygon fill="#63b8ff" stroke="#63b8ff" points="203.47,-420.21 213.92,-421.96 206.84,-414.08 203.47,-420.21"/>
</a>
</g>
</g>
<!-- Node4 -->
<g id="Node000004" class="node">
<title>Node4</title>
<g id="a_Node000004"><a xlink:href="classpycanha_1_1gmm_1_1TriMesh.html#a719e49a87330de4cc80fe24f8d871d77" target="_top" xlink:title="Get face ids vector.">
<polygon fill="white" stroke="#666666" points="332,-404 199,-404 199,-374 332,-374 332,-404"/>
<text text-anchor="start" x="207" y="-392" font-family="Helvetica,sans-Serif" font-size="10.00">pycanha::gmm::TriMesh</text>
<text text-anchor="middle" x="265.5" y="-381" font-family="Helvetica,sans-Serif" font-size="10.00">::get_face_ids</text>
</a>
</g>
</g>
<!-- Node1&#45;&gt;Node4 -->
<g id="edge3_Node000001_Node000004" class="edge">
<title>Node1&#45;&gt;Node4</title>
<g id="a_edge3_Node000001_Node000004"><a xlink:title=" ">
<path fill="none" stroke="#63b8ff" d="M94.96,-270.2C114.78,-293.52 155.71,-338.22 199,-365 201.59,-366.6 204.31,-368.13 207.1,-369.56"/>
<polygon fill="#63b8ff" stroke="#63b8ff" points="205.68,-372.76 216.21,-373.88 208.67,-366.44 205.68,-372.76"/>
</a>
</g>
</g>
<!-- Node5 -->
<g id="Node000005" class="node">
<title>Node5</title>
<g id="a_Node000005"><a xlink:href="classpycanha_1_1gmm_1_1TriMesh.html#a67005774ec8e4204abe88c1d2c795ef4" target="_top" xlink:title="Get faces edges vector of indices.">
<polygon fill="white" stroke="#666666" points="332,-356 199,-356 199,-326 332,-326 332,-356"/>
<text text-anchor="start" x="207" y="-344" font-family="Helvetica,sans-Serif" font-size="10.00">pycanha::gmm::TriMesh</text>
<text text-anchor="middle" x="265.5" y="-333" font-family="Helvetica,sans-Serif" font-size="10.00">::get_faces_edges</text>
</a>
</g>
</g>
<!-- Node1&#45;&gt;Node5 -->
<g id="edge4_Node000001_Node000005" class="edge">
<title>Node1&#45;&gt;Node5</title>
<g id="a_edge4_Node000001_Node000005"><a xlink:title=" ">
<path fill="none" stroke="#63b8ff" d="M108.36,-270.09C131.63,-283.35 166.99,-302.7 199,-317 203.03,-318.8 207.23,-320.57 211.49,-322.29"/>
<polygon fill="#63b8ff" stroke="#63b8ff" points="210.24,-325.56 220.83,-325.95 212.79,-319.04 210.24,-325.56"/>
</a>
</g>
</g>
<!-- Node6 -->
<g id="Node000006" class="node">
<title>Node6</title>
<g id="a_Node000006"><a xlink:href="namespacepycanha.html#af116674b7649af0e33b3d7e78ecb1b1b" target="_top" xlink:title=" ">
<polygon fill="white" stroke="#666666" points="323.5,-307.5 207.5,-307.5 207.5,-288.5 323.5,-288.5 323.5,-307.5"/>
<text text-anchor="middle" x="265.5" y="-295.5" font-family="Helvetica,sans-Serif" font-size="10.00">pycanha::get_logger</text>
</a>
</g>
</g>
<!-- Node1&#45;&gt;Node6 -->
<g id="edge5_Node000001_Node000006" class="edge">
<title>Node1&#45;&gt;Node6</title>
<g id="a_edge5_Node000001_Node000006"><a xlink:title=" ">
<path fill="none" stroke="#63b8ff" d="M146.15,-270.04C168.44,-275.3 193.14,-281.14 214.19,-286.11"/>
<polygon fill="#63b8ff" stroke="#63b8ff" points="213.66,-289.58 224.2,-288.48 215.27,-282.77 213.66,-289.58"/>
</a>
</g>
</g>
<!-- Node7 -->
<g id="Node000007" class="node">
<title>Node7</title>
<g id="a_Node000007"><a xlink:href="classpycanha_1_1gmm_1_1TriMesh.html#a9738f0ec5e4816d990b04a54e3081ced" target="_top" xlink:title="Get the number of faces.">
<polygon fill="white" stroke="#666666" points="332,-270 199,-270 199,-240 332,-240 332,-270"/>
<text text-anchor="start" x="207" y="-258" font-family="Helvetica,sans-Serif" font-size="10.00">pycanha::gmm::TriMesh</text>
<text text-anchor="middle" x="265.5" y="-247" font-family="Helvetica,sans-Serif" font-size="10.00">::get_number_of_faces</text>
</a>
</g>
</g>
<!-- Node1&#45;&gt;Node7 -->
<g id="edge6_Node000001_Node000007" class="edge">
<title>Node1&#45;&gt;Node7</title>
<g id="a_edge6_Node000001_Node000007"><a xlink:title=" ">
<path fill="none" stroke="#63b8ff" d="M163.12,-255C171.64,-255 180.28,-255 188.74,-255"/>
<polygon fill="#63b8ff" stroke="#63b8ff" points="188.95,-258.5 198.95,-255 188.95,-251.5 188.95,-258.5"/>
</a>
</g>
</g>
<!-- Node8 -->
<g id="Node000008" class="node">
<title>Node8</title>
<g id="a_Node000008"><a xlink:href="classpycanha_1_1gmm_1_1TriMesh.html#a51306790240f2c5de747a4b011766163" target="_top" xlink:title="Get perimeter edges indices.">
<polygon fill="white" stroke="#666666" points="332,-222 199,-222 199,-192 332,-192 332,-222"/>
<text text-anchor="start" x="207" y="-210" font-family="Helvetica,sans-Serif" font-size="10.00">pycanha::gmm::TriMesh</text>
<text text-anchor="middle" x="265.5" y="-199" font-family="Helvetica,sans-Serif" font-size="10.00">::get_perimeter_edges</text>
</a>
</g>
</g>
<!-- Node1&#45;&gt;Node8 -->
<g id="edge7_Node000001_Node000008" class="edge">
<title>Node1&#45;&gt;Node8</title>
<g id="a_edge7_Node000001_Node000008"><a xlink:title=" ">
<path fill="none" stroke="#63b8ff" d="M139.59,-239.94C158.05,-235.07 178.69,-229.63 197.79,-224.59"/>
<polygon fill="#63b8ff" stroke="#63b8ff" points="198.84,-227.94 207.62,-222 197.05,-221.17 198.84,-227.94"/>
</a>
</g>
</g>
<!-- Node9 -->
<g id="Node000009" class="node">
<title>Node9</title>
<g id="a_Node000009"><a xlink:href="classpycanha_1_1gmm_1_1TriMesh.html#aefd2b4642a2e9996f8fb59cf31a43ad2" target="_top" xlink:title="Get the surface 1 color.">
<polygon fill="white" stroke="#666666" points="332,-174 199,-174 199,-144 332,-144 332,-174"/>
<text text-anchor="start" x="207" y="-162" font-family="Helvetica,sans-Serif" font-size="10.00">pycanha::gmm::TriMesh</text>
<text text-anchor="middle" x="265.5" y="-151" font-family="Helvetica,sans-Serif" font-size="10.00">::get_surface1_color</text>
</a>
</g>
</g>
<!-- Node1&#45;&gt;Node9 -->
<g id="edge8_Node000001_Node000009" class="edge">
<title>Node1&#45;&gt;Node9</title>
<g id="a_edge8_Node000001_Node000009"><a xlink:title=" ">
<path fill="none" stroke="#63b8ff" d="M104.07,-239.82C126.91,-224.2 164.36,-199.84 199,-183 202.57,-181.26 206.31,-179.58 210.1,-177.96"/>
<polygon fill="#63b8ff" stroke="#63b8ff" points="211.67,-181.1 219.6,-174.08 209.02,-174.62 211.67,-181.1"/>
</a>
</g>
</g>
<!-- Node10 -->
<g id="Node000010" class="node">
<title>Node10</title>
<g id="a_Node000010"><a xlink:href="classpycanha_1_1gmm_1_1TriMesh.html#af2b32aff1bcc4841fa8ce7d6f4e5b76a" target="_top" xlink:title="Get the surface 2 color.">
<polygon fill="white" stroke="#666666" points="332,-126 199,-126 199,-96 332,-96 332,-126"/>
<text text-anchor="start" x="207" y="-114" font-family="Helvetica,sans-Serif" font-size="10.00">pycanha::gmm::TriMesh</text>
<text text-anchor="middle" x="265.5" y="-103" font-family="Helvetica,sans-Serif" font-size="10.00">::get_surface2_color</text>
</a>
</g>
</g>
<!-- Node1&#45;&gt;Node10 -->
<g id="edge9_Node000001_Node000010" class="edge">
<title>Node1&#45;&gt;Node10</title>
<g id="a_edge9_Node000001_Node000010"><a xlink:title=" ">
<path fill="none" stroke="#63b8ff" d="M93.4,-239.99C112.29,-214.97 153.45,-164.56 199,-135 201.43,-133.42 203.97,-131.93 206.6,-130.52"/>
<polygon fill="#63b8ff" stroke="#63b8ff" points="208.29,-133.59 215.73,-126.05 205.21,-127.31 208.29,-133.59"/>
</a>
</g>
</g>
<!-- Node11 -->
<g id="Node000011" class="node">
<title>Node11</title>
<g id="a_Node000011"><a xlink:href="classpycanha_1_1gmm_1_1TriMesh.html#aa20d192b636f4453f79d6fd4a3aafcd4" target="_top" xlink:title="Get triangles matrix.">
<polygon fill="white" stroke="#666666" points="332,-78 199,-78 199,-48 332,-48 332,-78"/>
<text text-anchor="start" x="207" y="-66" font-family="Helvetica,sans-Serif" font-size="10.00">pycanha::gmm::TriMesh</text>
<text text-anchor="middle" x="265.5" y="-55" font-family="Helvetica,sans-Serif" font-size="10.00">::get_triangles</text>
</a>
</g>
</g>
<!-- Node1&#45;&gt;Node11 -->
<g id="edge10_Node000001_Node000011" class="edge">
<title>Node1&#45;&gt;Node11</title>
<g id="a_edge10_Node000001_Node000011"><a xlink:title=" ">
<path fill="none" stroke="#63b8ff" d="M89.17,-239.65C104.11,-206.97 143.39,-129.97 199,-87 200.79,-85.62 202.67,-84.31 204.61,-83.07"/>
<polygon fill="#63b8ff" stroke="#63b8ff" points="206.48,-86.03 213.48,-78.08 203.05,-79.93 206.48,-86.03"/>
</a>
</g>
</g>
<!-- Node12 -->
<g id="Node000012" class="node">
<title>Node12</title>
<g id="a_Node000012"><a xlink:href="classpycanha_1_1gmm_1_1TriMesh.html#a4ed00ebc28ddc7ef836cabed7f9b1881" target="_top" xlink:title="Get vertices matrix.">
<polygon fill="white" stroke="#666666" points="332,-30 199,-30 199,0 332,0 332,-30"/>
<text text-anchor="start" x="207" y="-18" font-family="Helvetica,sans-Serif" font-size="10.00">pycanha::gmm::TriMesh</text>
<text text-anchor="middle" x="265.5" y="-7" font-family="Helvetica,sans-Serif" font-size="10.00">::get_vertices</text>
</a>
</g>
</g>
<!-- Node1&#45;&gt;Node12 -->
<g id="edge11_Node000001_Node000012" class="edge">
<title>Node1&#45;&gt;Node12</title>
<g id="a_edge11_Node000001_Node000012"><a xlink:title=" ">
<path fill="none" stroke="#63b8ff" d="M86.58,-239.79C97.82,-200.8 132.81,-96.32 199,-39 200.35,-37.83 201.77,-36.71 203.23,-35.65"/>
<polygon fill="#63b8ff" stroke="#63b8ff" points="205.47,-38.38 212.1,-30.12 201.76,-32.44 205.47,-38.38"/>
</a>
</g>
</g>
</g>
</svg>
