<?xml version="1.0" encoding="UTF-8" standalone="no"?>
<!DOCTYPE svg PUBLIC "-//W3C//DTD SVG 1.1//EN"
 "http://www.w3.org/Graphics/SVG/1.1/DTD/svg11.dtd">
<!-- Generated by graphviz version 2.43.0 (0)
 -->
<!-- Title: pycanha::gmm::Quadrilateral::create_mesh Pages: 1 -->
<svg width="575pt" height="676pt"
 viewBox="0.00 0.00 575.00 676.00" xmlns="http://www.w3.org/2000/svg" xmlns:xlink="http://www.w3.org/1999/xlink">
<g id="graph0" class="graph" transform="scale(1 1) rotate(0) translate(4 672)">
<title>pycanha::gmm::Quadrilateral::create_mesh</title>
<!-- Node1 -->
<g id="node1" class="node">
<title>Node1</title>
<g id="a_node1"><a xlink:title="Creates the triangular mesh from the primitive.">
<polygon fill="#bfbfbf" stroke="black" points="0,-318.5 0,-348.5 159,-348.5 159,-318.5 0,-318.5"/>
<text text-anchor="start" x="8" y="-336.5" font-family="Helvetica,sans-Serif" font-size="10.00">pycanha::gmm::Quadrilateral</text>
<text text-anchor="middle" x="79.5" y="-325.5" font-family="Helvetica,sans-Serif" font-size="10.00">::create_mesh</text>
</a>
</g>
</g>
<!-- Node2 -->
<g id="node2" class="node">
<title>Node2</title>
<g id="a_node2"><a xlink:href="classpycanha_1_1gmm_1_1Quadrilateral.html#a73193629bf24bc896f00d9888b053368" target="_top" xlink:title="3D coordinates of a point ON the primitive surface from 2D coordinates. Note: The method is not valid...">
<polygon fill="none" stroke="black" points="195,-637.5 195,-667.5 354,-667.5 354,-637.5 195,-637.5"/>
<text text-anchor="start" x="203" y="-655.5" font-family="Helvetica,sans-Serif" font-size="10.00">pycanha::gmm::Quadrilateral</text>
<text text-anchor="middle" x="274.5" y="-644.5" font-family="Helvetica,sans-Serif" font-size="10.00">::from_2d_to_3d</text>
</a>
</g>
</g>
<!-- Node1&#45;&gt;Node2 -->
<g id="edge1" class="edge">
<title>Node1&#45;&gt;Node2</title>
<path fill="none" stroke="midnightblue" d="M81.81,-348.59C86.83,-396.81 109.07,-548.67 195,-628.5 196.14,-629.56 197.33,-630.58 198.56,-631.54"/>
<polygon fill="midnightblue" stroke="midnightblue" points="196.91,-634.66 207.17,-637.31 200.81,-628.84 196.91,-634.66"/>
</g>
<!-- Node5 -->
<g id="node5" class="node">
<title>Node5</title>
<g id="a_node5"><a xlink:href="classpycanha_1_1gmm_1_1Quadrilateral.html#a75d240e94a5545d07123a5657b24c82b" target="_top" xlink:title="2D coordinates of a point ON the primitive surface from 3D coordinates. Note: It is assumed that the ...">
<polygon fill="none" stroke="black" points="195,-588.5 195,-618.5 354,-618.5 354,-588.5 195,-588.5"/>
<text text-anchor="start" x="203" y="-606.5" font-family="Helvetica,sans-Serif" font-size="10.00">pycanha::gmm::Quadrilateral</text>
<text text-anchor="middle" x="274.5" y="-595.5" font-family="Helvetica,sans-Serif" font-size="10.00">::from_3d_to_2d</text>
</a>
</g>
</g>
<!-- Node1&#45;&gt;Node5 -->
<g id="edge4" class="edge">
<title>Node1&#45;&gt;Node5</title>
<path fill="none" stroke="midnightblue" d="M83.15,-348.8C91.41,-391.81 120.72,-514.88 195,-579.5 196.49,-580.8 198.05,-582.03 199.67,-583.19"/>
<polygon fill="midnightblue" stroke="midnightblue" points="197.84,-586.17 208.18,-588.46 201.52,-580.22 197.84,-586.17"/>
</g>
<!-- Node6 -->
<g id="node6" class="node">
<title>Node6</title>
<g id="a_node6"><a xlink:href="classpycanha_1_1gmm_1_1TriMesh.html#a81f6628b978aaeac9d36fafc63e0eead" target="_top" xlink:title="Get face ids vector.">
<polygon fill="none" stroke="black" points="208,-490.5 208,-520.5 341,-520.5 341,-490.5 208,-490.5"/>
<text text-anchor="start" x="216" y="-508.5" font-family="Helvetica,sans-Serif" font-size="10.00">pycanha::gmm::TriMesh</text>
<text text-anchor="middle" x="274.5" y="-497.5" font-family="Helvetica,sans-Serif" font-size="10.00">::get_face_ids</text>
</a>
</g>
</g>
<!-- Node1&#45;&gt;Node6 -->
<g id="edge7" class="edge">
<title>Node1&#45;&gt;Node6</title>
<path fill="none" stroke="midnightblue" d="M88.03,-348.57C103.73,-378.47 142.88,-445.49 195,-481.5 197.15,-482.99 199.4,-484.39 201.72,-485.7"/>
<polygon fill="midnightblue" stroke="midnightblue" points="200.46,-488.98 210.97,-490.36 203.61,-482.73 200.46,-488.98"/>
</g>
<!-- Node7 -->
<g id="node7" class="node">
<title>Node7</title>
<g id="a_node7"><a xlink:href="classpycanha_1_1gmm_1_1Quadrilateral.html#a2c4ffa947c0d4af2f7a1c67ed24f1ba9" target="_top" xlink:title="Returns the ID of the face in the thermal mesh that contains the given UV coordinates....">
<polygon fill="none" stroke="black" points="195,-539.5 195,-569.5 354,-569.5 354,-539.5 195,-539.5"/>
<text text-anchor="start" x="203" y="-557.5" font-family="Helvetica,sans-Serif" font-size="10.00">pycanha::gmm::Quadrilateral</text>
<text text-anchor="middle" x="274.5" y="-546.5" font-family="Helvetica,sans-Serif" font-size="10.00">::get_faceid_from_uv</text>
</a>
</g>
</g>
<!-- Node1&#45;&gt;Node7 -->
<g id="edge8" class="edge">
<title>Node1&#45;&gt;Node7</title>
<path fill="none" stroke="midnightblue" d="M85.01,-348.65C96.78,-385.5 131.93,-480.48 195,-530.5 196.77,-531.9 198.62,-533.22 200.54,-534.47"/>
<polygon fill="midnightblue" stroke="midnightblue" points="198.87,-537.55 209.3,-539.45 202.33,-531.46 198.87,-537.55"/>
</g>
<!-- Node8 -->
<g id="node8" class="node">
<title>Node8</title>
<g id="a_node8"><a xlink:href="classpycanha_1_1gmm_1_1Quadrilateral.html#aa156a3cb9202e310dc68be1215120af1" target="_top" xlink:title="Returns the first vertex of the quadrilateral.">
<polygon fill="none" stroke="black" points="195,-441.5 195,-471.5 354,-471.5 354,-441.5 195,-441.5"/>
<text text-anchor="start" x="203" y="-459.5" font-family="Helvetica,sans-Serif" font-size="10.00">pycanha::gmm::Quadrilateral</text>
<text text-anchor="middle" x="274.5" y="-448.5" font-family="Helvetica,sans-Serif" font-size="10.00">::get_p1</text>
</a>
</g>
</g>
<!-- Node1&#45;&gt;Node8 -->
<g id="edge11" class="edge">
<title>Node1&#45;&gt;Node8</title>
<path fill="none" stroke="midnightblue" d="M94.17,-348.81C114.25,-370.41 153.83,-409.75 195,-432.5 198.25,-434.29 201.65,-435.97 205.13,-437.54"/>
<polygon fill="midnightblue" stroke="midnightblue" points="203.94,-440.83 214.52,-441.43 206.62,-434.36 203.94,-440.83"/>
</g>
<!-- Node9 -->
<g id="node9" class="node">
<title>Node9</title>
<g id="a_node9"><a xlink:href="classpycanha_1_1gmm_1_1Quadrilateral.html#af4122e45efd0321292142f3824529cba" target="_top" xlink:title="Returns the second vertex of the quadrilateral.">
<polygon fill="none" stroke="black" points="195,-392.5 195,-422.5 354,-422.5 354,-392.5 195,-392.5"/>
<text text-anchor="start" x="203" y="-410.5" font-family="Helvetica,sans-Serif" font-size="10.00">pycanha::gmm::Quadrilateral</text>
<text text-anchor="middle" x="274.5" y="-399.5" font-family="Helvetica,sans-Serif" font-size="10.00">::get_p2</text>
</a>
</g>
</g>
<!-- Node1&#45;&gt;Node9 -->
<g id="edge12" class="edge">
<title>Node1&#45;&gt;Node9</title>
<path fill="none" stroke="midnightblue" d="M112.18,-348.51C134.94,-359 166.52,-372.97 195,-383.5 200.39,-385.49 206.04,-387.46 211.72,-389.35"/>
<polygon fill="midnightblue" stroke="midnightblue" points="210.69,-392.69 221.28,-392.46 212.85,-386.04 210.69,-392.69"/>
</g>
<!-- Node10 -->
<g id="node10" class="node">
<title>Node10</title>
<g id="a_node10"><a xlink:href="classpycanha_1_1gmm_1_1Quadrilateral.html#a9ac9565012be590aab8eef4d241cef50" target="_top" xlink:title="Returns the third vertex of the quadrilateral.">
<polygon fill="none" stroke="black" points="195,-343.5 195,-373.5 354,-373.5 354,-343.5 195,-343.5"/>
<text text-anchor="start" x="203" y="-361.5" font-family="Helvetica,sans-Serif" font-size="10.00">pycanha::gmm::Quadrilateral</text>
<text text-anchor="middle" x="274.5" y="-350.5" font-family="Helvetica,sans-Serif" font-size="10.00">::get_p3</text>
</a>
</g>
</g>
<!-- Node1&#45;&gt;Node10 -->
<g id="edge13" class="edge">
<title>Node1&#45;&gt;Node10</title>
<path fill="none" stroke="midnightblue" d="M159,-343.67C167.48,-344.77 176.14,-345.89 184.73,-347"/>
<polygon fill="midnightblue" stroke="midnightblue" points="184.39,-350.49 194.76,-348.3 185.29,-343.54 184.39,-350.49"/>
</g>
<!-- Node11 -->
<g id="node11" class="node">
<title>Node11</title>
<g id="a_node11"><a xlink:href="classpycanha_1_1gmm_1_1Quadrilateral.html#a2586d9c1b6e557ab219ded313dfa5ce0" target="_top" xlink:title="Returns the fourth vertex of the quadrilateral.">
<polygon fill="none" stroke="black" points="195,-294.5 195,-324.5 354,-324.5 354,-294.5 195,-294.5"/>
<text text-anchor="start" x="203" y="-312.5" font-family="Helvetica,sans-Serif" font-size="10.00">pycanha::gmm::Quadrilateral</text>
<text text-anchor="middle" x="274.5" y="-301.5" font-family="Helvetica,sans-Serif" font-size="10.00">::get_p4</text>
</a>
</g>
</g>
<!-- Node1&#45;&gt;Node11 -->
<g id="edge14" class="edge">
<title>Node1&#45;&gt;Node11</title>
<path fill="none" stroke="midnightblue" d="M159,-323.74C167.48,-322.68 176.14,-321.61 184.73,-320.54"/>
<polygon fill="midnightblue" stroke="midnightblue" points="185.26,-324 194.76,-319.29 184.4,-317.05 185.26,-324"/>
</g>
<!-- Node12 -->
<g id="node12" class="node">
<title>Node12</title>
<g id="a_node12"><a xlink:href="classpycanha_1_1gmm_1_1Color.html#a6b0ff80336dd7c71b042dd65fb5534da" target="_top" xlink:title="Get the RGB values.">
<polygon fill="none" stroke="black" points="214,-245.5 214,-275.5 335,-275.5 335,-245.5 214,-245.5"/>
<text text-anchor="start" x="222" y="-263.5" font-family="Helvetica,sans-Serif" font-size="10.00">pycanha::gmm::Color</text>
<text text-anchor="middle" x="274.5" y="-252.5" font-family="Helvetica,sans-Serif" font-size="10.00">::get_rgb</text>
</a>
</g>
</g>
<!-- Node1&#45;&gt;Node12 -->
<g id="edge15" class="edge">
<title>Node1&#45;&gt;Node12</title>
<path fill="none" stroke="midnightblue" d="M114.26,-318.42C136.89,-308.54 167.49,-295.62 195,-285.5 201.22,-283.21 207.77,-280.93 214.31,-278.73"/>
<polygon fill="midnightblue" stroke="midnightblue" points="215.46,-282.04 223.86,-275.57 213.27,-275.39 215.46,-282.04"/>
</g>
<!-- Node13 -->
<g id="node13" class="node">
<title>Node13</title>
<g id="a_node13"><a xlink:href="classpycanha_1_1gmm_1_1TriMesh.html#a113cdc2728d6b47e8841ef9732ebd9b2" target="_top" xlink:title="Get triangles matrix.">
<polygon fill="none" stroke="black" points="208,-196.5 208,-226.5 341,-226.5 341,-196.5 208,-196.5"/>
<text text-anchor="start" x="216" y="-214.5" font-family="Helvetica,sans-Serif" font-size="10.00">pycanha::gmm::TriMesh</text>
<text text-anchor="middle" x="274.5" y="-203.5" font-family="Helvetica,sans-Serif" font-size="10.00">::get_triangles</text>
</a>
</g>
</g>
<!-- Node1&#45;&gt;Node13 -->
<g id="edge16" class="edge">
<title>Node1&#45;&gt;Node13</title>
<path fill="none" stroke="midnightblue" d="M94.61,-318.23C114.92,-297.08 154.43,-258.96 195,-236.5 198.91,-234.34 203.03,-232.33 207.25,-230.47"/>
<polygon fill="midnightblue" stroke="midnightblue" points="208.69,-233.67 216.63,-226.65 206.05,-227.19 208.69,-233.67"/>
</g>
<!-- Node14 -->
<g id="node14" class="node">
<title>Node14</title>
<g id="a_node14"><a xlink:href="classpycanha_1_1gmm_1_1TriMesh.html#a5e7a2cc9ec97ba48a13277d2c391e928" target="_top" xlink:title="Get vertices matrix.">
<polygon fill="none" stroke="black" points="208,-147.5 208,-177.5 341,-177.5 341,-147.5 208,-147.5"/>
<text text-anchor="start" x="216" y="-165.5" font-family="Helvetica,sans-Serif" font-size="10.00">pycanha::gmm::TriMesh</text>
<text text-anchor="middle" x="274.5" y="-154.5" font-family="Helvetica,sans-Serif" font-size="10.00">::get_vertices</text>
</a>
</g>
</g>
<!-- Node1&#45;&gt;Node14 -->
<g id="edge17" class="edge">
<title>Node1&#45;&gt;Node14</title>
<path fill="none" stroke="midnightblue" d="M88.36,-318.23C104.38,-288.61 143.67,-223.15 195,-187.5 197.85,-185.52 200.86,-183.7 203.98,-182.01"/>
<polygon fill="midnightblue" stroke="midnightblue" points="205.55,-185.14 213.01,-177.61 202.48,-178.84 205.55,-185.14"/>
</g>
<!-- Node15 -->
<g id="node15" class="node">
<title>Node15</title>
<g id="a_node15"><a xlink:href="classpycanha_1_1gmm_1_1TriMesh.html#a27e1232524b78c47b58b8d4d45d8172d" target="_top" xlink:title="Set the surface 1 color.">
<polygon fill="none" stroke="black" points="208,-98.5 208,-128.5 341,-128.5 341,-98.5 208,-98.5"/>
<text text-anchor="start" x="216" y="-116.5" font-family="Helvetica,sans-Serif" font-size="10.00">pycanha::gmm::TriMesh</text>
<text text-anchor="middle" x="274.5" y="-105.5" font-family="Helvetica,sans-Serif" font-size="10.00">::set_surface1_color</text>
</a>
</g>
</g>
<!-- Node1&#45;&gt;Node15 -->
<g id="edge18" class="edge">
<title>Node1&#45;&gt;Node15</title>
<path fill="none" stroke="midnightblue" d="M85.18,-318.28C97.22,-281.71 132.74,-188.24 195,-138.5 197.25,-136.7 199.64,-135.03 202.12,-133.48"/>
<polygon fill="midnightblue" stroke="midnightblue" points="203.81,-136.54 210.88,-128.65 200.43,-130.41 203.81,-136.54"/>
</g>
<!-- Node16 -->
<g id="node16" class="node">
<title>Node16</title>
<g id="a_node16"><a xlink:href="classpycanha_1_1gmm_1_1TriMesh.html#a331d5c97a882188d4454694b4a2a4af9" target="_top" xlink:title="Set the surface 2 color.">
<polygon fill="none" stroke="black" points="208,-49.5 208,-79.5 341,-79.5 341,-49.5 208,-49.5"/>
<text text-anchor="start" x="216" y="-67.5" font-family="Helvetica,sans-Serif" font-size="10.00">pycanha::gmm::TriMesh</text>
<text text-anchor="middle" x="274.5" y="-56.5" font-family="Helvetica,sans-Serif" font-size="10.00">::set_surface2_color</text>
</a>
</g>
</g>
<!-- Node1&#45;&gt;Node16 -->
<g id="edge19" class="edge">
<title>Node1&#45;&gt;Node16</title>
<path fill="none" stroke="midnightblue" d="M83.23,-318.37C91.69,-275.81 121.49,-154 195,-89.5 196.93,-87.81 198.97,-86.23 201.11,-84.76"/>
<polygon fill="midnightblue" stroke="midnightblue" points="202.94,-87.74 209.72,-79.6 199.35,-81.73 202.94,-87.74"/>
</g>
<!-- Node17 -->
<g id="node17" class="node">
<title>Node17</title>
<g id="a_node17"><a xlink:href="classpycanha_1_1gmm_1_1TriMesh.html#a7f0a8a501de5c2d065f71e164b956b39" target="_top" xlink:title="Sort the triangles according to the face ids.">
<polygon fill="none" stroke="black" points="208,-0.5 208,-30.5 341,-30.5 341,-0.5 208,-0.5"/>
<text text-anchor="start" x="216" y="-18.5" font-family="Helvetica,sans-Serif" font-size="10.00">pycanha::gmm::TriMesh</text>
<text text-anchor="middle" x="274.5" y="-7.5" font-family="Helvetica,sans-Serif" font-size="10.00">::sort_triangles</text>
</a>
</g>
</g>
<!-- Node1&#45;&gt;Node17 -->
<g id="edge20" class="edge">
<title>Node1&#45;&gt;Node17</title>
<path fill="none" stroke="midnightblue" d="M81.92,-318.21C87.23,-270.07 110.15,-120.07 195,-40.5 196.7,-38.91 198.49,-37.42 200.37,-36.03"/>
<polygon fill="midnightblue" stroke="midnightblue" points="202.5,-38.82 209.06,-30.5 198.75,-32.91 202.5,-38.82"/>
</g>
<!-- Node3 -->
<g id="node3" class="node">
<title>Node3</title>
<g id="a_node3"><a xlink:href="classpycanha_1_1gmm_1_1Quadrilateral.html#a3c2cecd1d2adf11cb3c619dceb6baa1f" target="_top" xlink:title="Returns the first direction v1 = p2 &#45; p1.">
<polygon fill="none" stroke="black" points="390,-613 390,-632 567,-632 567,-613 390,-613"/>
<text text-anchor="middle" x="478.5" y="-620" font-family="Helvetica,sans-Serif" font-size="10.00">pycanha::gmm::Quadrilateral::v1</text>
</a>
</g>
</g>
<!-- Node2&#45;&gt;Node3 -->
<g id="edge2" class="edge">
<title>Node2&#45;&gt;Node3</title>
<path fill="none" stroke="midnightblue" d="M354.18,-640.82C370.26,-638.43 387.14,-635.92 403.07,-633.55"/>
<polygon fill="midnightblue" stroke="midnightblue" points="404.01,-636.95 413.38,-632.02 402.98,-630.03 404.01,-636.95"/>
</g>
<!-- Node4 -->
<g id="node4" class="node">
<title>Node4</title>
<g id="a_node4"><a xlink:href="classpycanha_1_1gmm_1_1Quadrilateral.html#a6037ada729f3b3aaa6c9a1392019a799" target="_top" xlink:title="Returns the second direction v2 = p4 &#45; p1.">
<polygon fill="none" stroke="black" points="390,-575 390,-594 567,-594 567,-575 390,-575"/>
<text text-anchor="middle" x="478.5" y="-582" font-family="Helvetica,sans-Serif" font-size="10.00">pycanha::gmm::Quadrilateral::v2</text>
</a>
</g>
</g>
<!-- Node2&#45;&gt;Node4 -->
<g id="edge3" class="edge">
<title>Node2&#45;&gt;Node4</title>
<path fill="none" stroke="midnightblue" d="M332.48,-637.38C339.86,-634.76 347.2,-631.8 354,-628.5 371.52,-619.99 372.14,-611.27 390,-603.5 395.8,-600.98 401.97,-598.78 408.24,-596.86"/>
<polygon fill="midnightblue" stroke="midnightblue" points="409.46,-600.15 418.14,-594.07 407.56,-593.41 409.46,-600.15"/>
</g>
<!-- Node5&#45;&gt;Node3 -->
<g id="edge5" class="edge">
<title>Node5&#45;&gt;Node3</title>
<path fill="none" stroke="midnightblue" d="M354.18,-610.9C362.62,-611.69 371.28,-612.51 379.9,-613.32"/>
<polygon fill="midnightblue" stroke="midnightblue" points="379.71,-616.82 390,-614.27 380.37,-609.85 379.71,-616.82"/>
</g>
<!-- Node5&#45;&gt;Node4 -->
<g id="edge6" class="edge">
<title>Node5&#45;&gt;Node4</title>
<path fill="none" stroke="midnightblue" d="M354.18,-596.1C362.62,-595.31 371.28,-594.49 379.9,-593.68"/>
<polygon fill="midnightblue" stroke="midnightblue" points="380.37,-597.15 390,-592.73 379.71,-590.18 380.37,-597.15"/>
</g>
<!-- Node7&#45;&gt;Node3 -->
<g id="edge9" class="edge">
<title>Node7&#45;&gt;Node3</title>
<path fill="none" stroke="midnightblue" d="M329.9,-569.63C338.13,-572.54 346.39,-575.84 354,-579.5 371.33,-587.83 372.3,-596 390,-603.5 395.92,-606.01 402.21,-608.2 408.59,-610.12"/>
<polygon fill="midnightblue" stroke="midnightblue" points="408.09,-613.61 418.66,-612.9 409.96,-606.86 408.09,-613.61"/>
</g>
<!-- Node7&#45;&gt;Node4 -->
<g id="edge10" class="edge">
<title>Node7&#45;&gt;Node4</title>
<path fill="none" stroke="midnightblue" d="M354.18,-566.18C370.26,-568.57 387.14,-571.08 403.07,-573.45"/>
<polygon fill="midnightblue" stroke="midnightblue" points="402.98,-576.97 413.38,-574.98 404.01,-570.05 402.98,-576.97"/>
</g>
</g>
</svg>
