<?xml version="1.0" encoding="UTF-8" standalone="no"?>
<!DOCTYPE svg PUBLIC "-//W3C//DTD SVG 1.1//EN"
 "http://www.w3.org/Graphics/SVG/1.1/DTD/svg11.dtd">
<!-- Generated by graphviz version 2.43.0 (0)
 -->
<!-- Title: Graphical Class Hierarchy Pages: 1 -->
<svg width="847pt" height="431pt"
 viewBox="0.00 0.00 847.00 430.50" xmlns="http://www.w3.org/2000/svg" xmlns:xlink="http://www.w3.org/1999/xlink">
<g id="graph0" class="graph" transform="scale(1 1) rotate(0) translate(4 426.5)">
<title>Graphical Class Hierarchy</title>
<!-- Node0 -->
<g id="Node000000" class="node">
<title>Node0</title>
<g id="a_Node000000"><a xlink:title=" ">
<polygon fill="#e0e0e0" stroke="#999999" points="144,-325 35,-325 35,-295 144,-295 144,-325"/>
<text text-anchor="start" x="43" y="-313" font-family="Helvetica,sans-Serif" font-size="10.00">std::enable_shared</text>
<text text-anchor="middle" x="89.5" y="-302" font-family="Helvetica,sans-Serif" font-size="10.00">_from_this</text>
</a>
</g>
</g>
<!-- Node1 -->
<g id="Node000001" class="node">
<title>Node1</title>
<g id="a_Node000001"><a xlink:href="classpycanha_1_1gmm_1_1GeometryModel.html" target="_top" xlink:title="Class representing a geometrical mathematical model.">
<polygon fill="white" stroke="#666666" points="389,-316.5 215,-316.5 215,-297.5 389,-297.5 389,-316.5"/>
<text text-anchor="middle" x="302" y="-304.5" font-family="Helvetica,sans-Serif" font-size="10.00">pycanha::gmm::GeometryModel</text>
</a>
</g>
</g>
<!-- Node0&#45;&gt;Node1 -->
<g id="edge13_Node000000_Node000001" class="edge">
<title>Node0&#45;&gt;Node1</title>
<g id="a_edge13_Node000000_Node000001"><a xlink:title=" ">
<path fill="none" stroke="#63b8ff" d="M154.21,-309.09C173.26,-308.82 194.47,-308.52 214.72,-308.23"/>
<polygon fill="#63b8ff" stroke="#63b8ff" points="154.11,-305.59 144.16,-309.24 154.21,-312.59 154.11,-305.59"/>
</a>
</g>
</g>
<!-- Node20 -->
<g id="Node000020" class="node">
<title>Node20</title>
<g id="a_Node000020"><a xlink:href="classpycanha_1_1gmm_1_1GeometryUpdateCallback.html" target="_top" xlink:title=" ">
<polygon fill="white" stroke="#666666" points="179,-277 0,-277 0,-247 179,-247 179,-277"/>
<text text-anchor="start" x="8" y="-265" font-family="Helvetica,sans-Serif" font-size="10.00">pycanha::gmm::GeometryUpdate</text>
<text text-anchor="middle" x="89.5" y="-254" font-family="Helvetica,sans-Serif" font-size="10.00">Callback</text>
</a>
</g>
</g>
<!-- Node12 -->
<g id="Node000012" class="node">
<title>Node12</title>
<g id="a_Node000012"><a xlink:href="classpycanha_1_1gmm_1_1Primitive.html" target="_top" xlink:title="A geometry primitive.">
<polygon fill="white" stroke="#666666" points="372,-274.5 232,-274.5 232,-255.5 372,-255.5 372,-274.5"/>
<text text-anchor="middle" x="302" y="-262.5" font-family="Helvetica,sans-Serif" font-size="10.00">pycanha::gmm::Primitive</text>
</a>
</g>
</g>
<!-- Node20&#45;&gt;Node12 -->
<g id="edge14_Node000020_Node000012" class="edge">
<title>Node20&#45;&gt;Node12</title>
<g id="a_edge14_Node000020_Node000012"><a xlink:title=" ">
<path fill="none" stroke="#63b8ff" d="M189.55,-263.41C203.89,-263.62 218.37,-263.82 231.95,-264.02"/>
<polygon fill="#63b8ff" stroke="#63b8ff" points="189.21,-259.91 179.16,-263.26 189.11,-266.91 189.21,-259.91"/>
</a>
</g>
</g>
<!-- Node13 -->
<g id="Node000013" class="node">
<title>Node13</title>
<g id="a_Node000013"><a xlink:href="classpycanha_1_1gmm_1_1Cone.html" target="_top" xlink:title="A class representing a cone in 3D space.">
<polygon fill="white" stroke="#666666" points="571.5,-237.5 451.5,-237.5 451.5,-218.5 571.5,-218.5 571.5,-237.5"/>
<text text-anchor="middle" x="511.5" y="-225.5" font-family="Helvetica,sans-Serif" font-size="10.00">pycanha::gmm::Cone</text>
</a>
</g>
</g>
<!-- Node12&#45;&gt;Node13 -->
<g id="edge15_Node000012_Node000013" class="edge">
<title>Node12&#45;&gt;Node13</title>
<g id="a_edge15_Node000012_Node000013"><a xlink:title=" ">
<path fill="none" stroke="#63b8ff" d="M366.44,-253.69C395.37,-248.53 429.25,-242.49 456.88,-237.56"/>
<polygon fill="#63b8ff" stroke="#63b8ff" points="365.67,-250.27 356.44,-255.47 366.9,-257.16 365.67,-250.27"/>
</a>
</g>
</g>
<!-- Node14 -->
<g id="Node000014" class="node">
<title>Node14</title>
<g id="a_Node000014"><a xlink:href="classpycanha_1_1gmm_1_1Cylinder.html" target="_top" xlink:title="A class representing a cylinder in 3D space.">
<polygon fill="white" stroke="#666666" points="579.5,-200.5 443.5,-200.5 443.5,-181.5 579.5,-181.5 579.5,-200.5"/>
<text text-anchor="middle" x="511.5" y="-188.5" font-family="Helvetica,sans-Serif" font-size="10.00">pycanha::gmm::Cylinder</text>
</a>
</g>
</g>
<!-- Node12&#45;&gt;Node14 -->
<g id="edge16_Node000012_Node000014" class="edge">
<title>Node12&#45;&gt;Node14</title>
<g id="a_edge16_Node000012_Node000014"><a xlink:title=" ">
<path fill="none" stroke="#63b8ff" d="M330.11,-250.84C354.41,-238.61 391.33,-221.2 425,-210 435.97,-206.35 447.96,-203.2 459.4,-200.56"/>
<polygon fill="#63b8ff" stroke="#63b8ff" points="328.45,-247.75 321.13,-255.4 331.63,-253.99 328.45,-247.75"/>
</a>
</g>
</g>
<!-- Node15 -->
<g id="Node000015" class="node">
<title>Node15</title>
<g id="a_Node000015"><a xlink:href="classpycanha_1_1gmm_1_1Disc.html" target="_top" xlink:title="A class representing a disc in 3D space.">
<polygon fill="white" stroke="#666666" points="569.5,-422.5 453.5,-422.5 453.5,-403.5 569.5,-403.5 569.5,-422.5"/>
<text text-anchor="middle" x="511.5" y="-410.5" font-family="Helvetica,sans-Serif" font-size="10.00">pycanha::gmm::Disc</text>
</a>
</g>
</g>
<!-- Node12&#45;&gt;Node15 -->
<g id="edge17_Node000012_Node000015" class="edge">
<title>Node12&#45;&gt;Node15</title>
<g id="a_edge17_Node000012_Node000015"><a xlink:title=" ">
<path fill="none" stroke="#63b8ff" d="M375.04,-279.01C380.11,-281.78 384.85,-285.07 389,-289 425.14,-323.2 387.77,-361.99 425,-395 432.94,-402.04 442.94,-406.58 453.26,-409.46"/>
<polygon fill="#63b8ff" stroke="#63b8ff" points="376.14,-275.67 365.6,-274.6 373.17,-282.01 376.14,-275.67"/>
</a>
</g>
</g>
<!-- Node16 -->
<g id="Node000016" class="node">
<title>Node16</title>
<g id="a_Node000016"><a xlink:href="classpycanha_1_1gmm_1_1Quadrilateral.html" target="_top" xlink:title="A class representing a quadrilateral in 3D space.">
<polygon fill="white" stroke="#666666" points="591,-385.5 432,-385.5 432,-366.5 591,-366.5 591,-385.5"/>
<text text-anchor="middle" x="511.5" y="-373.5" font-family="Helvetica,sans-Serif" font-size="10.00">pycanha::gmm::Quadrilateral</text>
</a>
</g>
</g>
<!-- Node12&#45;&gt;Node16 -->
<g id="edge18_Node000012_Node000016" class="edge">
<title>Node12&#45;&gt;Node16</title>
<g id="a_edge18_Node000012_Node000016"><a xlink:title=" ">
<path fill="none" stroke="#63b8ff" d="M371.49,-278.35C377.77,-281.23 383.74,-284.74 389,-289 415.87,-310.78 397.44,-337.1 425,-358 429.47,-361.39 434.44,-364.18 439.66,-366.46"/>
<polygon fill="#63b8ff" stroke="#63b8ff" points="372.69,-275.06 362.11,-274.55 370.07,-281.55 372.69,-275.06"/>
</a>
</g>
</g>
<!-- Node17 -->
<g id="Node000017" class="node">
<title>Node17</title>
<g id="a_Node000017"><a xlink:href="classpycanha_1_1gmm_1_1Rectangle.html" target="_top" xlink:title="A class representing a rectangle in 3D space.">
<polygon fill="white" stroke="#666666" points="583.5,-348.5 439.5,-348.5 439.5,-329.5 583.5,-329.5 583.5,-348.5"/>
<text text-anchor="middle" x="511.5" y="-336.5" font-family="Helvetica,sans-Serif" font-size="10.00">pycanha::gmm::Rectangle</text>
</a>
</g>
</g>
<!-- Node12&#45;&gt;Node17 -->
<g id="edge19_Node000012_Node000017" class="edge">
<title>Node12&#45;&gt;Node17</title>
<g id="a_edge19_Node000012_Node000017"><a xlink:title=" ">
<path fill="none" stroke="#63b8ff" d="M361.96,-277.59C371.29,-280.67 380.62,-284.43 389,-289 407.79,-299.25 405.89,-311.36 425,-321 431.77,-324.42 439.16,-327.18 446.67,-329.43"/>
<polygon fill="#63b8ff" stroke="#63b8ff" points="362.85,-274.2 352.27,-274.63 360.81,-280.9 362.85,-274.2"/>
</a>
</g>
</g>
<!-- Node18 -->
<g id="Node000018" class="node">
<title>Node18</title>
<g id="a_Node000018"><a xlink:href="classpycanha_1_1gmm_1_1Sphere.html" target="_top" xlink:title="A class representing a sphere in 3D space.">
<polygon fill="white" stroke="#666666" points="576,-311.5 447,-311.5 447,-292.5 576,-292.5 576,-311.5"/>
<text text-anchor="middle" x="511.5" y="-299.5" font-family="Helvetica,sans-Serif" font-size="10.00">pycanha::gmm::Sphere</text>
</a>
</g>
</g>
<!-- Node12&#45;&gt;Node18 -->
<g id="edge20_Node000012_Node000018" class="edge">
<title>Node12&#45;&gt;Node18</title>
<g id="a_edge20_Node000012_Node000018"><a xlink:title=" ">
<path fill="none" stroke="#63b8ff" d="M366.44,-276.31C395.37,-281.47 429.25,-287.51 456.88,-292.44"/>
<polygon fill="#63b8ff" stroke="#63b8ff" points="366.9,-272.84 356.44,-274.53 365.67,-279.73 366.9,-272.84"/>
</a>
</g>
</g>
<!-- Node19 -->
<g id="Node000019" class="node">
<title>Node19</title>
<g id="a_Node000019"><a xlink:href="classpycanha_1_1gmm_1_1Triangle.html" target="_top" xlink:title="A class representing a triangle in 3D space.">
<polygon fill="white" stroke="#666666" points="578.5,-274.5 444.5,-274.5 444.5,-255.5 578.5,-255.5 578.5,-274.5"/>
<text text-anchor="middle" x="511.5" y="-262.5" font-family="Helvetica,sans-Serif" font-size="10.00">pycanha::gmm::Triangle</text>
</a>
</g>
</g>
<!-- Node12&#45;&gt;Node19 -->
<g id="edge21_Node000012_Node000019" class="edge">
<title>Node12&#45;&gt;Node19</title>
<g id="a_edge21_Node000012_Node000019"><a xlink:title=" ">
<path fill="none" stroke="#63b8ff" d="M382.31,-265C402.73,-265 424.49,-265 444.17,-265"/>
<polygon fill="#63b8ff" stroke="#63b8ff" points="382.09,-261.5 372.09,-265 382.09,-268.5 382.09,-261.5"/>
</a>
</g>
</g>
<!-- Node2 -->
<g id="Node000002" class="node">
<title>Node2</title>
<g id="a_Node000002"><a xlink:href="classpycanha_1_1gmm_1_1UniqueID.html" target="_top" xlink:title="Provides a unique integer id.">
<polygon fill="white" stroke="#666666" points="159.5,-158.5 19.5,-158.5 19.5,-139.5 159.5,-139.5 159.5,-158.5"/>
<text text-anchor="middle" x="89.5" y="-146.5" font-family="Helvetica,sans-Serif" font-size="10.00">pycanha::gmm::UniqueID</text>
</a>
</g>
</g>
<!-- Node2&#45;&gt;Node1 -->
<g id="edge28_Node000002_Node000001" class="edge">
<title>Node2&#45;&gt;Node1</title>
<g id="a_edge28_Node000002_Node000001"><a xlink:title=" ">
<path fill="none" stroke="#63b8ff" d="M108.32,-165.71C126.66,-183.18 155.74,-211.65 179,-238 196.18,-257.46 193.34,-269.69 215,-284 223.77,-289.79 233.95,-294.13 244.17,-297.38"/>
<polygon fill="#63b8ff" stroke="#63b8ff" points="110.38,-162.84 100.72,-158.51 105.57,-167.93 110.38,-162.84"/>
</a>
</g>
</g>
<!-- Node2&#45;&gt;Node12 -->
<g id="edge32_Node000002_Node000012" class="edge">
<title>Node2&#45;&gt;Node12</title>
<g id="a_edge32_Node000002_Node000012"><a xlink:title=" ">
<path fill="none" stroke="#63b8ff" d="M116.99,-163.6C160.7,-187.69 246.78,-235.12 283.61,-255.42"/>
<polygon fill="#63b8ff" stroke="#63b8ff" points="118.53,-160.45 108.09,-158.69 115.15,-166.58 118.53,-160.45"/>
</a>
</g>
</g>
<!-- Node3 -->
<g id="Node000003" class="node">
<title>Node3</title>
<g id="a_Node000003"><a xlink:href="classpycanha_1_1gmm_1_1CoordinateTransformation.html" target="_top" xlink:title="A class that represents a coordinate transformation.">
<polygon fill="white" stroke="#666666" points="376.5,-102 227.5,-102 227.5,-72 376.5,-72 376.5,-102"/>
<text text-anchor="start" x="235.5" y="-90" font-family="Helvetica,sans-Serif" font-size="10.00">pycanha::gmm::Coordinate</text>
<text text-anchor="middle" x="302" y="-79" font-family="Helvetica,sans-Serif" font-size="10.00">Transformation</text>
</a>
</g>
</g>
<!-- Node2&#45;&gt;Node3 -->
<g id="edge22_Node000002_Node000003" class="edge">
<title>Node2&#45;&gt;Node3</title>
<g id="a_edge22_Node000002_Node000003"><a xlink:title=" ">
<path fill="none" stroke="#63b8ff" d="M130.75,-136.45C155.1,-128.92 186.78,-119.24 215,-111 225.12,-108.04 235.93,-104.97 246.35,-102.04"/>
<polygon fill="#63b8ff" stroke="#63b8ff" points="129.65,-133.12 121.14,-139.42 131.72,-139.81 129.65,-133.12"/>
</a>
</g>
</g>
<!-- Node4 -->
<g id="Node000004" class="node">
<title>Node4</title>
<g id="a_Node000004"><a xlink:href="classpycanha_1_1gmm_1_1Geometry.html" target="_top" xlink:title="Base class for geometric items.">
<polygon fill="white" stroke="#666666" points="374,-53.5 230,-53.5 230,-34.5 374,-34.5 374,-53.5"/>
<text text-anchor="middle" x="302" y="-41.5" font-family="Helvetica,sans-Serif" font-size="10.00">pycanha::gmm::Geometry</text>
</a>
</g>
</g>
<!-- Node2&#45;&gt;Node4 -->
<g id="edge23_Node000002_Node000004" class="edge">
<title>Node2&#45;&gt;Node4</title>
<g id="a_edge23_Node000002_Node000004"><a xlink:title=" ">
<path fill="none" stroke="#63b8ff" d="M108.94,-132.79C132.1,-113.29 173.82,-80.95 215,-63 223.83,-59.15 233.52,-56.05 243.12,-53.55"/>
<polygon fill="#63b8ff" stroke="#63b8ff" points="106.61,-130.18 101.28,-139.34 111.16,-135.5 106.61,-130.18"/>
</a>
</g>
</g>
<!-- Node9 -->
<g id="Node000009" class="node">
<title>Node9</title>
<g id="a_Node000009"><a xlink:href="classpycanha_1_1gmm_1_1NamedMaterial.html" target="_top" xlink:title=" ">
<polygon fill="white" stroke="#666666" points="387.5,-176.5 216.5,-176.5 216.5,-157.5 387.5,-157.5 387.5,-176.5"/>
<text text-anchor="middle" x="302" y="-164.5" font-family="Helvetica,sans-Serif" font-size="10.00">pycanha::gmm::NamedMaterial</text>
</a>
</g>
</g>
<!-- Node2&#45;&gt;Node9 -->
<g id="edge29_Node000002_Node000009" class="edge">
<title>Node2&#45;&gt;Node9</title>
<g id="a_edge29_Node000002_Node000009"><a xlink:title=" ">
<path fill="none" stroke="#63b8ff" d="M170.05,-155.8C185.17,-157.1 201.05,-158.45 216.32,-159.76"/>
<polygon fill="#63b8ff" stroke="#63b8ff" points="169.98,-152.28 159.72,-154.92 169.38,-159.26 169.98,-152.28"/>
</a>
</g>
</g>
<!-- Node21 -->
<g id="Node000021" class="node">
<title>Node21</title>
<g id="a_Node000021"><a xlink:href="classpycanha_1_1gmm_1_1ThermalMesh.html" target="_top" xlink:title=" ">
<polygon fill="white" stroke="#666666" points="383,-139.5 221,-139.5 221,-120.5 383,-120.5 383,-139.5"/>
<text text-anchor="middle" x="302" y="-127.5" font-family="Helvetica,sans-Serif" font-size="10.00">pycanha::gmm::ThermalMesh</text>
</a>
</g>
</g>
<!-- Node2&#45;&gt;Node21 -->
<g id="edge33_Node000002_Node000021" class="edge">
<title>Node2&#45;&gt;Node21</title>
<g id="a_edge33_Node000002_Node000021"><a xlink:title=" ">
<path fill="none" stroke="#63b8ff" d="M169.94,-141.83C186.57,-140.33 204.12,-138.74 220.78,-137.24"/>
<polygon fill="#63b8ff" stroke="#63b8ff" points="169.36,-138.37 159.72,-142.75 169.99,-145.34 169.36,-138.37"/>
</a>
</g>
</g>
<!-- Node5 -->
<g id="Node000005" class="node">
<title>Node5</title>
<g id="a_Node000005"><a xlink:href="classpycanha_1_1gmm_1_1GeometryGroup.html" target="_top" xlink:title="Class representing a group of geometric items. Inherits from Geometry.">
<polygon fill="white" stroke="#666666" points="598,-27.5 425,-27.5 425,-8.5 598,-8.5 598,-27.5"/>
<text text-anchor="middle" x="511.5" y="-15.5" font-family="Helvetica,sans-Serif" font-size="10.00">pycanha::gmm::GeometryGroup</text>
</a>
</g>
</g>
<!-- Node4&#45;&gt;Node5 -->
<g id="edge24_Node000004_Node000005" class="edge">
<title>Node4&#45;&gt;Node5</title>
<g id="a_edge24_Node000004_Node000005"><a xlink:title=" ">
<path fill="none" stroke="#63b8ff" d="M384.3,-33.81C400.83,-31.74 418.17,-29.57 434.51,-27.52"/>
<polygon fill="#63b8ff" stroke="#63b8ff" points="383.61,-30.37 374.12,-35.09 384.48,-37.32 383.61,-30.37"/>
</a>
</g>
</g>
<!-- Node7 -->
<g id="Node000007" class="node">
<title>Node7</title>
<g id="a_Node000007"><a xlink:href="classpycanha_1_1gmm_1_1GeometryItem.html" target="_top" xlink:title="The base class for all geometry items.">
<polygon fill="white" stroke="#666666" points="595,-65.5 428,-65.5 428,-46.5 595,-46.5 595,-65.5"/>
<text text-anchor="middle" x="511.5" y="-53.5" font-family="Helvetica,sans-Serif" font-size="10.00">pycanha::gmm::GeometryItem</text>
</a>
</g>
</g>
<!-- Node4&#45;&gt;Node7 -->
<g id="edge26_Node000004_Node000007" class="edge">
<title>Node4&#45;&gt;Node7</title>
<g id="a_edge26_Node000004_Node000007"><a xlink:title=" ">
<path fill="none" stroke="#63b8ff" d="M384.36,-48.71C398.59,-49.53 413.41,-50.39 427.68,-51.21"/>
<polygon fill="#63b8ff" stroke="#63b8ff" points="384.3,-45.2 374.12,-48.11 383.9,-52.18 384.3,-45.2"/>
</a>
</g>
</g>
<!-- Node6 -->
<g id="Node000006" class="node">
<title>Node6</title>
<g id="a_Node000006"><a xlink:href="classpycanha_1_1gmm_1_1GeometryGroupCutted.html" target="_top" xlink:title="Class representing a cutted geometry.">
<polygon fill="white" stroke="#666666" points="823,-30 650,-30 650,0 823,0 823,-30"/>
<text text-anchor="start" x="658" y="-18" font-family="Helvetica,sans-Serif" font-size="10.00">pycanha::gmm::GeometryGroup</text>
<text text-anchor="middle" x="736.5" y="-7" font-family="Helvetica,sans-Serif" font-size="10.00">Cutted</text>
</a>
</g>
</g>
<!-- Node5&#45;&gt;Node6 -->
<g id="edge25_Node000005_Node000006" class="edge">
<title>Node5&#45;&gt;Node6</title>
<g id="a_edge25_Node000005_Node000006"><a xlink:title=" ">
<path fill="none" stroke="#63b8ff" d="M608.1,-16.71C621.95,-16.53 636.14,-16.34 649.78,-16.15"/>
<polygon fill="#63b8ff" stroke="#63b8ff" points="608.03,-13.21 598.08,-16.85 608.13,-20.21 608.03,-13.21"/>
</a>
</g>
</g>
<!-- Node8 -->
<g id="Node000008" class="node">
<title>Node8</title>
<g id="a_Node000008"><a xlink:href="classpycanha_1_1gmm_1_1GeometryMeshedItem.html" target="_top" xlink:title="A geometry item that contains mesh data.">
<polygon fill="white" stroke="#666666" points="839,-67.5 634,-67.5 634,-48.5 839,-48.5 839,-67.5"/>
<text text-anchor="middle" x="736.5" y="-55.5" font-family="Helvetica,sans-Serif" font-size="10.00">pycanha::gmm::GeometryMeshedItem</text>
</a>
</g>
</g>
<!-- Node7&#45;&gt;Node8 -->
<g id="edge27_Node000007_Node000008" class="edge">
<title>Node7&#45;&gt;Node8</title>
<g id="a_edge27_Node000007_Node000008"><a xlink:title=" ">
<path fill="none" stroke="#63b8ff" d="M605.29,-56.83C614.65,-56.92 624.2,-57 633.64,-57.09"/>
<polygon fill="#63b8ff" stroke="#63b8ff" points="605.25,-53.33 595.22,-56.74 605.19,-60.33 605.25,-53.33"/>
</a>
</g>
</g>
<!-- Node10 -->
<g id="Node000010" class="node">
<title>Node10</title>
<g id="a_Node000010"><a xlink:href="classpycanha_1_1gmm_1_1BulkMaterial.html" target="_top" xlink:title=" ">
<polygon fill="white" stroke="#666666" points="590.5,-126.5 432.5,-126.5 432.5,-107.5 590.5,-107.5 590.5,-126.5"/>
<text text-anchor="middle" x="511.5" y="-114.5" font-family="Helvetica,sans-Serif" font-size="10.00">pycanha::gmm::BulkMaterial</text>
</a>
</g>
</g>
<!-- Node9&#45;&gt;Node10 -->
<g id="edge30_Node000009_Node000010" class="edge">
<title>Node9&#45;&gt;Node10</title>
<g id="a_edge30_Node000009_Node000010"><a xlink:title=" ">
<path fill="none" stroke="#63b8ff" d="M364.65,-155.19C372.88,-153.3 381.18,-151.22 389,-149 405.37,-144.36 408.66,-140.74 425,-136 436.97,-132.52 450.05,-129.32 462.29,-126.58"/>
<polygon fill="#63b8ff" stroke="#63b8ff" points="363.68,-151.82 354.67,-157.41 365.2,-158.66 363.68,-151.82"/>
</a>
</g>
</g>
<!-- Node11 -->
<g id="Node000011" class="node">
<title>Node11</title>
<g id="a_Node000011"><a xlink:href="classpycanha_1_1gmm_1_1OpticalMaterial.html" target="_top" xlink:title=" ">
<polygon fill="white" stroke="#666666" points="596.5,-163.5 426.5,-163.5 426.5,-144.5 596.5,-144.5 596.5,-163.5"/>
<text text-anchor="middle" x="511.5" y="-151.5" font-family="Helvetica,sans-Serif" font-size="10.00">pycanha::gmm::OpticalMaterial</text>
</a>
</g>
</g>
<!-- Node9&#45;&gt;Node11 -->
<g id="edge31_Node000009_Node000011" class="edge">
<title>Node9&#45;&gt;Node11</title>
<g id="a_edge31_Node000009_Node000011"><a xlink:title=" ">
<path fill="none" stroke="#63b8ff" d="M397.95,-161.05C407.44,-160.46 417.04,-159.86 426.41,-159.27"/>
<polygon fill="#63b8ff" stroke="#63b8ff" points="397.46,-157.58 387.7,-161.69 397.9,-164.56 397.46,-157.58"/>
</a>
</g>
</g>
</g>
</svg>
