<?xml version="1.0" encoding="UTF-8" standalone="no"?>
<!DOCTYPE svg PUBLIC "-//W3C//DTD SVG 1.1//EN"
 "http://www.w3.org/Graphics/SVG/1.1/DTD/svg11.dtd">
<!-- Generated by graphviz version 2.43.0 (0)
 -->
<!-- Title: Graphical Class Hierarchy Pages: 1 -->
<svg width="305pt" height="101pt"
 viewBox="0.00 0.00 305.00 101.00" xmlns="http://www.w3.org/2000/svg" xmlns:xlink="http://www.w3.org/1999/xlink">
<g id="graph0" class="graph" transform="scale(1 1) rotate(0) translate(4 97)">
<title>Graphical Class Hierarchy</title>
<!-- Node0 -->
<g id="Node000000" class="node">
<title>Node0</title>
<g id="a_Node000000"><a xlink:href="classpycanha_1_1Formula.html" target="_top" xlink:title=" ">
<polygon fill="white" stroke="#666666" points="104,-56 0,-56 0,-37 104,-37 104,-56"/>
<text text-anchor="middle" x="52" y="-44" font-family="Helvetica,sans-Serif" font-size="10.00">pycanha::Formula</text>
</a>
</g>
</g>
<!-- Node1 -->
<g id="Node000001" class="node">
<title>Node1</title>
<g id="a_Node000001"><a xlink:href="classpycanha_1_1ExpressionFormula.html" target="_top" xlink:title=" ">
<polygon fill="white" stroke="#666666" points="297,-93 140,-93 140,-74 297,-74 297,-93"/>
<text text-anchor="middle" x="218.5" y="-81" font-family="Helvetica,sans-Serif" font-size="10.00">pycanha::ExpressionFormula</text>
</a>
</g>
</g>
<!-- Node0&#45;&gt;Node1 -->
<g id="edge1_Node000000_Node000001" class="edge">
<title>Node0&#45;&gt;Node1</title>
<g id="a_edge1_Node000000_Node000001"><a xlink:title=" ">
<path fill="none" stroke="#63b8ff" d="M105.41,-58.29C127.87,-63.34 153.76,-69.16 175,-73.94"/>
<polygon fill="#63b8ff" stroke="#63b8ff" points="105.89,-54.81 95.36,-56.03 104.35,-61.64 105.89,-54.81"/>
</a>
</g>
</g>
<!-- Node2 -->
<g id="Node000002" class="node">
<title>Node2</title>
<g id="a_Node000002"><a xlink:href="classpycanha_1_1ParameterFormula.html" target="_top" xlink:title=" ">
<polygon fill="white" stroke="#666666" points="295.5,-56 141.5,-56 141.5,-37 295.5,-37 295.5,-56"/>
<text text-anchor="middle" x="218.5" y="-44" font-family="Helvetica,sans-Serif" font-size="10.00">pycanha::ParameterFormula</text>
</a>
</g>
</g>
<!-- Node0&#45;&gt;Node2 -->
<g id="edge2_Node000000_Node000002" class="edge">
<title>Node0&#45;&gt;Node2</title>
<g id="a_edge2_Node000000_Node000002"><a xlink:title=" ">
<path fill="none" stroke="#63b8ff" d="M114.31,-46.5C123.12,-46.5 132.27,-46.5 141.32,-46.5"/>
<polygon fill="#63b8ff" stroke="#63b8ff" points="114.15,-43 104.15,-46.5 114.15,-50 114.15,-43"/>
</a>
</g>
</g>
<!-- Node3 -->
<g id="Node000003" class="node">
<title>Node3</title>
<g id="a_Node000003"><a xlink:href="classpycanha_1_1ValueFormula.html" target="_top" xlink:title=" ">
<polygon fill="white" stroke="#666666" points="284,-19 153,-19 153,0 284,0 284,-19"/>
<text text-anchor="middle" x="218.5" y="-7" font-family="Helvetica,sans-Serif" font-size="10.00">pycanha::ValueFormula</text>
</a>
</g>
</g>
<!-- Node0&#45;&gt;Node3 -->
<g id="edge3_Node000000_Node000003" class="edge">
<title>Node0&#45;&gt;Node3</title>
<g id="a_edge3_Node000000_Node000003"><a xlink:title=" ">
<path fill="none" stroke="#63b8ff" d="M105.41,-34.71C127.87,-29.66 153.76,-23.84 175,-19.06"/>
<polygon fill="#63b8ff" stroke="#63b8ff" points="104.35,-31.36 95.36,-36.97 105.89,-38.19 104.35,-31.36"/>
</a>
</g>
</g>
</g>
</svg>
