<?xml version="1.0" encoding="UTF-8" standalone="no"?>
<!DOCTYPE svg PUBLIC "-//W3C//DTD SVG 1.1//EN"
 "http://www.w3.org/Graphics/SVG/1.1/DTD/svg11.dtd">
<!-- Generated by graphviz version 2.43.0 (0)
 -->
<!-- Title: Graphical Class Hierarchy Pages: 1 -->
<svg width="847pt" height="443pt"
 viewBox="0.00 0.00 847.00 442.50" xmlns="http://www.w3.org/2000/svg" xmlns:xlink="http://www.w3.org/1999/xlink">
<g id="graph0" class="graph" transform="scale(1 1) rotate(0) translate(4 438.5)">
<title>Graphical Class Hierarchy</title>
<!-- Node2 -->
<g id="node1" class="node">
<title>Node2</title>
<g id="a_node1"><a xlink:title=" ">
<polygon fill="none" stroke="#bfbfbf" points="35,-303.5 35,-333.5 144,-333.5 144,-303.5 35,-303.5"/>
<text text-anchor="start" x="43" y="-321.5" font-family="Helvetica,sans-Serif" font-size="10.00">std::enable_shared</text>
<text text-anchor="middle" x="89.5" y="-310.5" font-family="Helvetica,sans-Serif" font-size="10.00">_from_this</text>
</a>
</g>
</g>
<!-- Node0 -->
<g id="node2" class="node">
<title>Node0</title>
<g id="a_node2"><a xlink:href="classpycanha_1_1gmm_1_1GeometryModel.html" target="_top" xlink:title="Class representing a geometrical mathematical model.">
<polygon fill="none" stroke="black" points="215,-306 215,-325 389,-325 389,-306 215,-306"/>
<text text-anchor="middle" x="302" y="-313" font-family="Helvetica,sans-Serif" font-size="10.00">pycanha::gmm::GeometryModel</text>
</a>
</g>
</g>
<!-- Node2&#45;&gt;Node0 -->
<g id="edge1" class="edge">
<title>Node2&#45;&gt;Node0</title>
<path fill="none" stroke="midnightblue" d="M154.21,-317.59C173.26,-317.32 194.47,-317.02 214.72,-316.73"/>
<polygon fill="midnightblue" stroke="midnightblue" points="154.11,-314.09 144.16,-317.74 154.21,-321.09 154.11,-314.09"/>
</g>
<!-- Node4 -->
<g id="node3" class="node">
<title>Node4</title>
<g id="a_node3"><a xlink:href="classpycanha_1_1gmm_1_1GeometryUpdateCallback.html" target="_top" xlink:title=" ">
<polygon fill="none" stroke="black" points="0,-254.5 0,-284.5 179,-284.5 179,-254.5 0,-254.5"/>
<text text-anchor="start" x="8" y="-272.5" font-family="Helvetica,sans-Serif" font-size="10.00">pycanha::gmm::GeometryUpdate</text>
<text text-anchor="middle" x="89.5" y="-261.5" font-family="Helvetica,sans-Serif" font-size="10.00">Callback</text>
</a>
</g>
</g>
<!-- Node5 -->
<g id="node4" class="node">
<title>Node5</title>
<g id="a_node4"><a xlink:href="classpycanha_1_1gmm_1_1Primitive.html" target="_top" xlink:title="A geometry primitive.">
<polygon fill="none" stroke="black" points="232,-263 232,-282 372,-282 372,-263 232,-263"/>
<text text-anchor="middle" x="302" y="-270" font-family="Helvetica,sans-Serif" font-size="10.00">pycanha::gmm::Primitive</text>
</a>
</g>
</g>
<!-- Node4&#45;&gt;Node5 -->
<g id="edge2" class="edge">
<title>Node4&#45;&gt;Node5</title>
<path fill="none" stroke="midnightblue" d="M189.55,-270.91C203.89,-271.12 218.37,-271.32 231.95,-271.52"/>
<polygon fill="midnightblue" stroke="midnightblue" points="189.21,-267.41 179.16,-270.76 189.11,-274.41 189.21,-267.41"/>
</g>
<!-- Node6 -->
<g id="node5" class="node">
<title>Node6</title>
<g id="a_node5"><a xlink:href="classpycanha_1_1gmm_1_1Cone.html" target="_top" xlink:title="A class representing a cone in 3D space.">
<polygon fill="none" stroke="black" points="451.5,-225 451.5,-244 571.5,-244 571.5,-225 451.5,-225"/>
<text text-anchor="middle" x="511.5" y="-232" font-family="Helvetica,sans-Serif" font-size="10.00">pycanha::gmm::Cone</text>
</a>
</g>
</g>
<!-- Node5&#45;&gt;Node6 -->
<g id="edge3" class="edge">
<title>Node5&#45;&gt;Node6</title>
<path fill="none" stroke="midnightblue" d="M364.96,-261.15C394.73,-255.7 430.02,-249.24 458.39,-244.04"/>
<polygon fill="midnightblue" stroke="midnightblue" points="364.3,-257.72 355.09,-262.96 365.56,-264.6 364.3,-257.72"/>
</g>
<!-- Node7 -->
<g id="node6" class="node">
<title>Node7</title>
<g id="a_node6"><a xlink:href="classpycanha_1_1gmm_1_1Cylinder.html" target="_top" xlink:title="A class representing a cylinder in 3D space.">
<polygon fill="none" stroke="black" points="443.5,-187 443.5,-206 579.5,-206 579.5,-187 443.5,-187"/>
<text text-anchor="middle" x="511.5" y="-194" font-family="Helvetica,sans-Serif" font-size="10.00">pycanha::gmm::Cylinder</text>
</a>
</g>
</g>
<!-- Node5&#45;&gt;Node7 -->
<g id="edge4" class="edge">
<title>Node5&#45;&gt;Node7</title>
<path fill="none" stroke="midnightblue" d="M329.2,-258.21C353.45,-245.48 390.81,-227.13 425,-215.5 435.8,-211.83 447.61,-208.68 458.91,-206.06"/>
<polygon fill="midnightblue" stroke="midnightblue" points="327.47,-255.17 320.28,-262.95 330.75,-261.35 327.47,-255.17"/>
</g>
<!-- Node8 -->
<g id="node7" class="node">
<title>Node8</title>
<g id="a_node7"><a xlink:href="classpycanha_1_1gmm_1_1Disc.html" target="_top" xlink:title="A class representing a disc in 3D space.">
<polygon fill="none" stroke="black" points="453.5,-415 453.5,-434 569.5,-434 569.5,-415 453.5,-415"/>
<text text-anchor="middle" x="511.5" y="-422" font-family="Helvetica,sans-Serif" font-size="10.00">pycanha::gmm::Disc</text>
</a>
</g>
</g>
<!-- Node5&#45;&gt;Node8 -->
<g id="edge5" class="edge">
<title>Node5&#45;&gt;Node8</title>
<path fill="none" stroke="midnightblue" d="M375.07,-286.48C380.14,-289.25 384.86,-292.55 389,-296.5 425.91,-331.72 387.16,-371.28 425,-405.5 432.89,-412.64 442.86,-417.3 453.18,-420.29"/>
<polygon fill="midnightblue" stroke="midnightblue" points="376.19,-283.13 365.65,-282.05 373.21,-289.47 376.19,-283.13"/>
</g>
<!-- Node9 -->
<g id="node8" class="node">
<title>Node9</title>
<g id="a_node8"><a xlink:href="classpycanha_1_1gmm_1_1Quadrilateral.html" target="_top" xlink:title="A class representing a quadrilateral in 3D space.">
<polygon fill="none" stroke="black" points="432,-377 432,-396 591,-396 591,-377 432,-377"/>
<text text-anchor="middle" x="511.5" y="-384" font-family="Helvetica,sans-Serif" font-size="10.00">pycanha::gmm::Quadrilateral</text>
</a>
</g>
</g>
<!-- Node5&#45;&gt;Node9 -->
<g id="edge6" class="edge">
<title>Node5&#45;&gt;Node9</title>
<path fill="none" stroke="midnightblue" d="M372.26,-286.12C378.27,-288.95 383.97,-292.37 389,-296.5 416.36,-318.93 397.05,-345.81 425,-367.5 429.92,-371.32 435.47,-374.41 441.3,-376.9"/>
<polygon fill="midnightblue" stroke="midnightblue" points="373.2,-282.72 362.62,-282.13 370.52,-289.19 373.2,-282.72"/>
</g>
<!-- Node10 -->
<g id="node9" class="node">
<title>Node10</title>
<g id="a_node9"><a xlink:href="classpycanha_1_1gmm_1_1Rectangle.html" target="_top" xlink:title="A class representing a rectangle in 3D space.">
<polygon fill="none" stroke="black" points="439.5,-339 439.5,-358 583.5,-358 583.5,-339 439.5,-339"/>
<text text-anchor="middle" x="511.5" y="-346" font-family="Helvetica,sans-Serif" font-size="10.00">pycanha::gmm::Rectangle</text>
</a>
</g>
</g>
<!-- Node5&#45;&gt;Node10 -->
<g id="edge7" class="edge">
<title>Node5&#45;&gt;Node10</title>
<path fill="none" stroke="midnightblue" d="M362.02,-284.98C371.34,-288.07 380.65,-291.86 389,-296.5 407.97,-307.04 405.75,-319.47 425,-329.5 432.42,-333.36 440.59,-336.45 448.86,-338.9"/>
<polygon fill="midnightblue" stroke="midnightblue" points="362.92,-281.59 352.33,-282.01 360.87,-288.29 362.92,-281.59"/>
</g>
<!-- Node11 -->
<g id="node10" class="node">
<title>Node11</title>
<g id="a_node10"><a xlink:href="classpycanha_1_1gmm_1_1Sphere.html" target="_top" xlink:title="A class representing a sphere in 3D space.">
<polygon fill="none" stroke="black" points="447,-301 447,-320 576,-320 576,-301 447,-301"/>
<text text-anchor="middle" x="511.5" y="-308" font-family="Helvetica,sans-Serif" font-size="10.00">pycanha::gmm::Sphere</text>
</a>
</g>
</g>
<!-- Node5&#45;&gt;Node11 -->
<g id="edge8" class="edge">
<title>Node5&#45;&gt;Node11</title>
<path fill="none" stroke="midnightblue" d="M364.96,-283.85C394.73,-289.3 430.02,-295.76 458.39,-300.96"/>
<polygon fill="midnightblue" stroke="midnightblue" points="365.56,-280.4 355.09,-282.04 364.3,-287.28 365.56,-280.4"/>
</g>
<!-- Node12 -->
<g id="node11" class="node">
<title>Node12</title>
<g id="a_node11"><a xlink:href="classpycanha_1_1gmm_1_1Triangle.html" target="_top" xlink:title="A class representing a triangle in 3D space.">
<polygon fill="none" stroke="black" points="444.5,-263 444.5,-282 578.5,-282 578.5,-263 444.5,-263"/>
<text text-anchor="middle" x="511.5" y="-270" font-family="Helvetica,sans-Serif" font-size="10.00">pycanha::gmm::Triangle</text>
</a>
</g>
</g>
<!-- Node5&#45;&gt;Node12 -->
<g id="edge9" class="edge">
<title>Node5&#45;&gt;Node12</title>
<path fill="none" stroke="midnightblue" d="M382.31,-272.5C402.73,-272.5 424.49,-272.5 444.17,-272.5"/>
<polygon fill="midnightblue" stroke="midnightblue" points="382.09,-269 372.09,-272.5 382.09,-276 382.09,-269"/>
</g>
<!-- Node15 -->
<g id="node12" class="node">
<title>Node15</title>
<g id="a_node12"><a xlink:href="classpycanha_1_1gmm_1_1UniqueID.html" target="_top" xlink:title="Provides a unique integer id.">
<polygon fill="none" stroke="black" points="19.5,-143 19.5,-162 159.5,-162 159.5,-143 19.5,-143"/>
<text text-anchor="middle" x="89.5" y="-150" font-family="Helvetica,sans-Serif" font-size="10.00">pycanha::gmm::UniqueID</text>
</a>
</g>
</g>
<!-- Node15&#45;&gt;Node0 -->
<g id="edge16" class="edge">
<title>Node15&#45;&gt;Node0</title>
<path fill="none" stroke="midnightblue" d="M107.93,-169.8C126.17,-188.13 155.38,-218.15 179,-245.5 195.97,-265.15 193.42,-277.07 215,-291.5 224.41,-297.79 235.44,-302.44 246.41,-305.88"/>
<polygon fill="midnightblue" stroke="midnightblue" points="109.93,-166.85 100.39,-162.25 104.98,-171.8 109.93,-166.85"/>
</g>
<!-- Node15&#45;&gt;Node5 -->
<g id="edge20" class="edge">
<title>Node15&#45;&gt;Node5</title>
<path fill="none" stroke="midnightblue" d="M116.23,-167.17C159.88,-192.05 247.26,-241.86 284.05,-262.84"/>
<polygon fill="midnightblue" stroke="midnightblue" points="117.79,-164.03 107.37,-162.12 114.32,-170.11 117.79,-164.03"/>
</g>
<!-- Node16 -->
<g id="node13" class="node">
<title>Node16</title>
<g id="a_node13"><a xlink:href="classpycanha_1_1gmm_1_1CoordinateTransformation.html" target="_top" xlink:title="A class that represents a coordinate transformation.">
<polygon fill="none" stroke="black" points="227.5,-74.5 227.5,-104.5 376.5,-104.5 376.5,-74.5 227.5,-74.5"/>
<text text-anchor="start" x="235.5" y="-92.5" font-family="Helvetica,sans-Serif" font-size="10.00">pycanha::gmm::Coordinate</text>
<text text-anchor="middle" x="302" y="-81.5" font-family="Helvetica,sans-Serif" font-size="10.00">Transformation</text>
</a>
</g>
</g>
<!-- Node15&#45;&gt;Node16 -->
<g id="edge10" class="edge">
<title>Node15&#45;&gt;Node16</title>
<path fill="none" stroke="midnightblue" d="M131.03,-139.98C155.36,-132.5 186.92,-122.87 215,-114.5 225.88,-111.26 237.55,-107.83 248.67,-104.59"/>
<polygon fill="midnightblue" stroke="midnightblue" points="129.95,-136.65 121.42,-142.94 132.01,-143.34 129.95,-136.65"/>
</g>
<!-- Node17 -->
<g id="node14" class="node">
<title>Node17</title>
<g id="a_node14"><a xlink:href="classpycanha_1_1gmm_1_1Geometry.html" target="_top" xlink:title="Base class for geometric items.">
<polygon fill="none" stroke="black" points="230,-36 230,-55 374,-55 374,-36 230,-36"/>
<text text-anchor="middle" x="302" y="-43" font-family="Helvetica,sans-Serif" font-size="10.00">pycanha::gmm::Geometry</text>
</a>
</g>
</g>
<!-- Node15&#45;&gt;Node17 -->
<g id="edge11" class="edge">
<title>Node15&#45;&gt;Node17</title>
<path fill="none" stroke="midnightblue" d="M108.51,-136.2C131.53,-116.27 173.39,-82.9 215,-64.5 223.67,-60.67 233.19,-57.57 242.63,-55.09"/>
<polygon fill="midnightblue" stroke="midnightblue" points="106.11,-133.65 100.92,-142.89 110.74,-138.91 106.11,-133.65"/>
</g>
<!-- Node22 -->
<g id="node19" class="node">
<title>Node22</title>
<g id="a_node19"><a xlink:href="classpycanha_1_1gmm_1_1NamedMaterial.html" target="_top" xlink:title=" ">
<polygon fill="none" stroke="black" points="216.5,-162 216.5,-181 387.5,-181 387.5,-162 216.5,-162"/>
<text text-anchor="middle" x="302" y="-169" font-family="Helvetica,sans-Serif" font-size="10.00">pycanha::gmm::NamedMaterial</text>
</a>
</g>
</g>
<!-- Node15&#45;&gt;Node22 -->
<g id="edge17" class="edge">
<title>Node15&#45;&gt;Node22</title>
<path fill="none" stroke="midnightblue" d="M170.05,-159.68C185.17,-161.05 201.05,-162.48 216.32,-163.86"/>
<polygon fill="midnightblue" stroke="midnightblue" points="169.99,-156.16 159.72,-158.75 169.36,-163.13 169.99,-156.16"/>
</g>
<!-- Node25 -->
<g id="node22" class="node">
<title>Node25</title>
<g id="a_node22"><a xlink:href="classpycanha_1_1gmm_1_1ThermalMesh.html" target="_top" xlink:title=" ">
<polygon fill="none" stroke="black" points="221,-124 221,-143 383,-143 383,-124 221,-124"/>
<text text-anchor="middle" x="302" y="-131" font-family="Helvetica,sans-Serif" font-size="10.00">pycanha::gmm::ThermalMesh</text>
</a>
</g>
</g>
<!-- Node15&#45;&gt;Node25 -->
<g id="edge21" class="edge">
<title>Node15&#45;&gt;Node25</title>
<path fill="none" stroke="midnightblue" d="M169.94,-145.33C186.57,-143.83 204.12,-142.24 220.78,-140.74"/>
<polygon fill="midnightblue" stroke="midnightblue" points="169.36,-141.87 159.72,-146.25 169.99,-148.84 169.36,-141.87"/>
</g>
<!-- Node18 -->
<g id="node15" class="node">
<title>Node18</title>
<g id="a_node15"><a xlink:href="classpycanha_1_1gmm_1_1GeometryGroup.html" target="_top" xlink:title="Class representing a group of geometric items. Inherits from Geometry.">
<polygon fill="none" stroke="black" points="425,-9 425,-28 598,-28 598,-9 425,-9"/>
<text text-anchor="middle" x="511.5" y="-16" font-family="Helvetica,sans-Serif" font-size="10.00">pycanha::gmm::GeometryGroup</text>
</a>
</g>
</g>
<!-- Node17&#45;&gt;Node18 -->
<g id="edge12" class="edge">
<title>Node17&#45;&gt;Node18</title>
<path fill="none" stroke="midnightblue" d="M384.3,-34.92C401.8,-32.64 420.19,-30.25 437.36,-28.02"/>
<polygon fill="midnightblue" stroke="midnightblue" points="383.58,-31.48 374.12,-36.25 384.49,-38.43 383.58,-31.48"/>
</g>
<!-- Node20 -->
<g id="node17" class="node">
<title>Node20</title>
<g id="a_node17"><a xlink:href="classpycanha_1_1gmm_1_1GeometryItem.html" target="_top" xlink:title="The base class for all geometry items.">
<polygon fill="none" stroke="black" points="428,-48 428,-67 595,-67 595,-48 428,-48"/>
<text text-anchor="middle" x="511.5" y="-55" font-family="Helvetica,sans-Serif" font-size="10.00">pycanha::gmm::GeometryItem</text>
</a>
</g>
</g>
<!-- Node17&#45;&gt;Node20 -->
<g id="edge14" class="edge">
<title>Node17&#45;&gt;Node20</title>
<path fill="none" stroke="midnightblue" d="M384.36,-50.21C398.59,-51.03 413.41,-51.89 427.68,-52.71"/>
<polygon fill="midnightblue" stroke="midnightblue" points="384.3,-46.7 374.12,-49.61 383.9,-53.68 384.3,-46.7"/>
</g>
<!-- Node19 -->
<g id="node16" class="node">
<title>Node19</title>
<g id="a_node16"><a xlink:href="classpycanha_1_1gmm_1_1GeometryGroupCutted.html" target="_top" xlink:title="Class representing a cutted geometry.">
<polygon fill="none" stroke="black" points="650,-0.5 650,-30.5 823,-30.5 823,-0.5 650,-0.5"/>
<text text-anchor="start" x="658" y="-18.5" font-family="Helvetica,sans-Serif" font-size="10.00">pycanha::gmm::GeometryGroup</text>
<text text-anchor="middle" x="736.5" y="-7.5" font-family="Helvetica,sans-Serif" font-size="10.00">Cutted</text>
</a>
</g>
</g>
<!-- Node18&#45;&gt;Node19 -->
<g id="edge13" class="edge">
<title>Node18&#45;&gt;Node19</title>
<path fill="none" stroke="midnightblue" d="M608.1,-17.21C621.95,-17.03 636.14,-16.84 649.78,-16.65"/>
<polygon fill="midnightblue" stroke="midnightblue" points="608.03,-13.71 598.08,-17.35 608.13,-20.71 608.03,-13.71"/>
</g>
<!-- Node21 -->
<g id="node18" class="node">
<title>Node21</title>
<g id="a_node18"><a xlink:href="classpycanha_1_1gmm_1_1GeometryMeshedItem.html" target="_top" xlink:title="A geometry item that contains mesh data.">
<polygon fill="none" stroke="black" points="634,-50 634,-69 839,-69 839,-50 634,-50"/>
<text text-anchor="middle" x="736.5" y="-57" font-family="Helvetica,sans-Serif" font-size="10.00">pycanha::gmm::GeometryMeshedItem</text>
</a>
</g>
</g>
<!-- Node20&#45;&gt;Node21 -->
<g id="edge15" class="edge">
<title>Node20&#45;&gt;Node21</title>
<path fill="none" stroke="midnightblue" d="M605.29,-58.33C614.65,-58.42 624.2,-58.5 633.64,-58.59"/>
<polygon fill="midnightblue" stroke="midnightblue" points="605.25,-54.83 595.22,-58.24 605.19,-61.83 605.25,-54.83"/>
</g>
<!-- Node23 -->
<g id="node20" class="node">
<title>Node23</title>
<g id="a_node20"><a xlink:href="classpycanha_1_1gmm_1_1BulkMaterial.html" target="_top" xlink:title=" ">
<polygon fill="none" stroke="black" points="432.5,-111 432.5,-130 590.5,-130 590.5,-111 432.5,-111"/>
<text text-anchor="middle" x="511.5" y="-118" font-family="Helvetica,sans-Serif" font-size="10.00">pycanha::gmm::BulkMaterial</text>
</a>
</g>
</g>
<!-- Node22&#45;&gt;Node23 -->
<g id="edge18" class="edge">
<title>Node22&#45;&gt;Node23</title>
<path fill="none" stroke="midnightblue" d="M361.44,-159.66C370.71,-157.47 380.16,-155.06 389,-152.5 405.34,-147.77 408.66,-144.24 425,-139.5 436.97,-136.02 450.05,-132.82 462.29,-130.08"/>
<polygon fill="midnightblue" stroke="midnightblue" points="360.46,-156.29 351.49,-161.93 362.02,-163.11 360.46,-156.29"/>
</g>
<!-- Node24 -->
<g id="node21" class="node">
<title>Node24</title>
<g id="a_node21"><a xlink:href="classpycanha_1_1gmm_1_1OpticalMaterial.html" target="_top" xlink:title=" ">
<polygon fill="none" stroke="black" points="426.5,-149 426.5,-168 596.5,-168 596.5,-149 426.5,-149"/>
<text text-anchor="middle" x="511.5" y="-156" font-family="Helvetica,sans-Serif" font-size="10.00">pycanha::gmm::OpticalMaterial</text>
</a>
</g>
</g>
<!-- Node22&#45;&gt;Node24 -->
<g id="edge19" class="edge">
<title>Node22&#45;&gt;Node24</title>
<path fill="none" stroke="midnightblue" d="M397.95,-165.55C407.44,-164.96 417.04,-164.36 426.41,-163.77"/>
<polygon fill="midnightblue" stroke="midnightblue" points="397.46,-162.08 387.7,-166.19 397.9,-169.06 397.46,-162.08"/>
</g>
</g>
</svg>
