<?xml version="1.0" encoding="UTF-8" standalone="no"?>
<!DOCTYPE svg PUBLIC "-//W3C//DTD SVG 1.1//EN"
 "http://www.w3.org/Graphics/SVG/1.1/DTD/svg11.dtd">
<!-- Generated by graphviz version 14.1.2 (0)
 -->
<!-- Title: Graphical Class Hierarchy Pages: 1 -->
<svg width="910pt" height="68pt"
 viewBox="0.00 0.00 910.00 68.00" xmlns="http://www.w3.org/2000/svg" xmlns:xlink="http://www.w3.org/1999/xlink">
<g id="graph0" class="graph" transform="scale(1 1) rotate(0) translate(4 63.75)">
<title>Graphical Class Hierarchy</title>
<!-- Node0 -->
<g id="Node000000" class="node">
<title>Node0</title>
<g id="a_Node000000"><a xlink:href="classpycanha_1_1Solver.html" target="_top" xlink:title=" ">
<polygon fill="white" stroke="#666666" points="94,-39.75 0,-39.75 0,-19 94,-19 94,-39.75"/>
<text xml:space="preserve" text-anchor="middle" x="47" y="-26.25" font-family="Helvetica,sans-Serif" font-size="10.00">pycanha::Solver</text>
</a>
</g>
</g>
<!-- Node1 -->
<g id="Node000001" class="node">
<title>Node1</title>
<g id="a_Node000001"><a xlink:href="classpycanha_1_1SteadyStateSolver.html" target="_top" xlink:title=" ">
<polygon fill="white" stroke="#666666" points="283.25,-59.75 130,-59.75 130,-39 283.25,-39 283.25,-59.75"/>
<text xml:space="preserve" text-anchor="middle" x="206.62" y="-46.25" font-family="Helvetica,sans-Serif" font-size="10.00">pycanha::SteadyStateSolver</text>
</a>
</g>
</g>
<!-- Node0&#45;&gt;Node1 -->
<g id="edge8_Node000000_Node000001" class="edge">
<title>Node0&#45;&gt;Node1</title>
<g id="a_edge8_Node000000_Node000001"><a xlink:title=" ">
<path fill="none" stroke="#63b8ff" d="M105.64,-36.69C113.46,-37.68 121.58,-38.71 129.65,-39.74"/>
<polygon fill="#63b8ff" stroke="#63b8ff" points="106.3,-33.24 95.94,-35.46 105.42,-40.19 106.3,-33.24"/>
</a>
</g>
</g>
<!-- Node3 -->
<g id="Node000003" class="node">
<title>Node3</title>
<g id="a_Node000003"><a xlink:href="classpycanha_1_1TransientSolver.html" target="_top" xlink:title=" ">
<polygon fill="white" stroke="#666666" points="275.75,-20.75 137.5,-20.75 137.5,0 275.75,0 275.75,-20.75"/>
<text xml:space="preserve" text-anchor="middle" x="206.62" y="-7.25" font-family="Helvetica,sans-Serif" font-size="10.00">pycanha::TransientSolver</text>
</a>
</g>
</g>
<!-- Node0&#45;&gt;Node3 -->
<g id="edge10_Node000000_Node000003" class="edge">
<title>Node0&#45;&gt;Node3</title>
<g id="a_edge10_Node000000_Node000003"><a xlink:title=" ">
<path fill="none" stroke="#63b8ff" d="M105.69,-22.42C115.88,-21.19 126.57,-19.9 137.03,-18.64"/>
<polygon fill="#63b8ff" stroke="#63b8ff" points="105.45,-18.92 95.94,-23.6 106.29,-25.87 105.45,-18.92"/>
</a>
</g>
</g>
<!-- Node2 -->
<g id="Node000002" class="node">
<title>Node2</title>
<g id="a_Node000002"><a xlink:href="classpycanha_1_1SSLU.html" target="_top" xlink:title=" ">
<polygon fill="white" stroke="#666666" points="408,-59.75 320,-59.75 320,-39 408,-39 408,-59.75"/>
<text xml:space="preserve" text-anchor="middle" x="364" y="-46.25" font-family="Helvetica,sans-Serif" font-size="10.00">pycanha::SSLU</text>
</a>
</g>
</g>
<!-- Node1&#45;&gt;Node2 -->
<g id="edge9_Node000001_Node000002" class="edge">
<title>Node1&#45;&gt;Node2</title>
<g id="a_edge9_Node000001_Node000002"><a xlink:title=" ">
<path fill="none" stroke="#63b8ff" d="M294.88,-49.38C303.5,-49.38 311.96,-49.38 319.83,-49.38"/>
<polygon fill="#63b8ff" stroke="#63b8ff" points="295.01,-45.88 285.01,-49.38 295.01,-52.88 295.01,-45.88"/>
</a>
</g>
</g>
<!-- Node4 -->
<g id="Node000004" class="node">
<title>Node4</title>
<g id="a_Node000004"><a xlink:href="classpycanha_1_1TSCN.html" target="_top" xlink:title=" ">
<polygon fill="white" stroke="#666666" points="408.75,-20.75 319.25,-20.75 319.25,0 408.75,0 408.75,-20.75"/>
<text xml:space="preserve" text-anchor="middle" x="364" y="-7.25" font-family="Helvetica,sans-Serif" font-size="10.00">pycanha::TSCN</text>
</a>
</g>
</g>
<!-- Node3&#45;&gt;Node4 -->
<g id="edge11_Node000003_Node000004" class="edge">
<title>Node3&#45;&gt;Node4</title>
<g id="a_edge11_Node000003_Node000004"><a xlink:title=" ">
<path fill="none" stroke="#63b8ff" d="M287.47,-10.38C298.27,-10.38 309.02,-10.38 318.87,-10.38"/>
<polygon fill="#63b8ff" stroke="#63b8ff" points="287.74,-6.88 277.74,-10.38 287.74,-13.88 287.74,-6.88"/>
</a>
</g>
</g>
<!-- Node5 -->
<g id="Node000005" class="node">
<title>Node5</title>
<g id="a_Node000005"><a xlink:href="classpycanha_1_1TSCNRL.html" target="_top" xlink:title=" ">
<polygon fill="white" stroke="#666666" points="546.25,-20.75 444.75,-20.75 444.75,0 546.25,0 546.25,-20.75"/>
<text xml:space="preserve" text-anchor="middle" x="495.5" y="-7.25" font-family="Helvetica,sans-Serif" font-size="10.00">pycanha::TSCNRL</text>
</a>
</g>
</g>
<!-- Node4&#45;&gt;Node5 -->
<g id="edge12_Node000004_Node000005" class="edge">
<title>Node4&#45;&gt;Node5</title>
<g id="a_edge12_Node000004_Node000005"><a xlink:title=" ">
<path fill="none" stroke="#63b8ff" d="M420.56,-10.38C428.43,-10.38 436.49,-10.38 444.26,-10.38"/>
<polygon fill="#63b8ff" stroke="#63b8ff" points="420.72,-6.88 410.72,-10.38 420.72,-13.88 420.72,-6.88"/>
</a>
</g>
</g>
<!-- Node6 -->
<g id="Node000006" class="node">
<title>Node6</title>
<g id="a_Node000006"><a xlink:href="classpycanha_1_1TSCNRLDS.html" target="_top" xlink:title=" ">
<polygon fill="white" stroke="#666666" points="697.25,-20.75 582.25,-20.75 582.25,0 697.25,0 697.25,-20.75"/>
<text xml:space="preserve" text-anchor="middle" x="639.75" y="-7.25" font-family="Helvetica,sans-Serif" font-size="10.00">pycanha::TSCNRLDS</text>
</a>
</g>
</g>
<!-- Node5&#45;&gt;Node6 -->
<g id="edge13_Node000005_Node000006" class="edge">
<title>Node5&#45;&gt;Node6</title>
<g id="a_edge13_Node000005_Node000006"><a xlink:title=" ">
<path fill="none" stroke="#63b8ff" d="M558.04,-10.38C565.92,-10.38 573.96,-10.38 581.77,-10.38"/>
<polygon fill="#63b8ff" stroke="#63b8ff" points="558.17,-6.88 548.17,-10.38 558.17,-13.88 558.17,-6.88"/>
</a>
</g>
</g>
<!-- Node7 -->
<g id="Node000007" class="node">
<title>Node7</title>
<g id="a_Node000007"><a xlink:href="classpycanha_1_1TSCNRLDS__JACOBIAN.html" target="_top" xlink:title=" ">
<polygon fill="white" stroke="#666666" points="901.5,-20.75 733.25,-20.75 733.25,0 901.5,0 901.5,-20.75"/>
<text xml:space="preserve" text-anchor="middle" x="817.38" y="-7.25" font-family="Helvetica,sans-Serif" font-size="10.00">pycanha::TSCNRLDS_JACOBIAN</text>
</a>
</g>
</g>
<!-- Node6&#45;&gt;Node7 -->
<g id="edge14_Node000006_Node000007" class="edge">
<title>Node6&#45;&gt;Node7</title>
<g id="a_edge14_Node000006_Node000007"><a xlink:title=" ">
<path fill="none" stroke="#63b8ff" d="M708.67,-10.38C716.57,-10.38 724.69,-10.38 732.77,-10.38"/>
<polygon fill="#63b8ff" stroke="#63b8ff" points="708.8,-6.88 698.8,-10.38 708.8,-13.88 708.8,-6.88"/>
</a>
</g>
</g>
</g>
</svg>
