<?xml version="1.0" encoding="UTF-8" standalone="no"?>
<!DOCTYPE svg PUBLIC "-//W3C//DTD SVG 1.1//EN"
 "http://www.w3.org/Graphics/SVG/1.1/DTD/svg11.dtd">
<!-- Generated by graphviz version 14.1.2 (0)
 -->
<!-- Title: Graphical Class Hierarchy Pages: 1 -->
<svg width="934pt" height="107pt"
 viewBox="0.00 0.00 934.00 107.00" xmlns="http://www.w3.org/2000/svg" xmlns:xlink="http://www.w3.org/1999/xlink">
<g id="graph0" class="graph" transform="scale(1 1) rotate(0) translate(4 102.75)">
<title>Graphical Class Hierarchy</title>
<!-- Node0 -->
<g id="Node000000" class="node">
<title>Node0</title>
<g id="a_Node000000"><a xlink:href="classpycanha_1_1Solver.html" target="_top" xlink:title=" ">
<polygon fill="white" stroke="#666666" points="94,-39.75 0,-39.75 0,-19 94,-19 94,-39.75"/>
<text xml:space="preserve" text-anchor="middle" x="47" y="-26.25" font-family="Helvetica,sans-Serif" font-size="10.00">pycanha::Solver</text>
</a>
</g>
</g>
<!-- Node1 -->
<g id="Node000001" class="node">
<title>Node1</title>
<g id="a_Node000001"><a xlink:href="classpycanha_1_1SteadyStateSolver.html" target="_top" xlink:title="Base of the steady&#45;state solvers.">
<polygon fill="white" stroke="#666666" points="283.25,-59.75 130,-59.75 130,-39 283.25,-39 283.25,-59.75"/>
<text xml:space="preserve" text-anchor="middle" x="206.62" y="-46.25" font-family="Helvetica,sans-Serif" font-size="10.00">pycanha::SteadyStateSolver</text>
</a>
</g>
</g>
<!-- Node0&#45;&gt;Node1 -->
<g id="edge8_Node000000_Node000001" class="edge">
<title>Node0&#45;&gt;Node1</title>
<g id="a_edge8_Node000000_Node000001"><a xlink:title=" ">
<path fill="none" stroke="#63b8ff" d="M105.64,-36.69C113.46,-37.68 121.58,-38.71 129.65,-39.74"/>
<polygon fill="#63b8ff" stroke="#63b8ff" points="106.3,-33.24 95.94,-35.46 105.42,-40.19 106.3,-33.24"/>
</a>
</g>
</g>
<!-- Node4 -->
<g id="Node000004" class="node">
<title>Node4</title>
<g id="a_Node000004"><a xlink:href="classpycanha_1_1TransientSolver.html" target="_top" xlink:title=" ">
<polygon fill="white" stroke="#666666" points="275.75,-20.75 137.5,-20.75 137.5,0 275.75,0 275.75,-20.75"/>
<text xml:space="preserve" text-anchor="middle" x="206.62" y="-7.25" font-family="Helvetica,sans-Serif" font-size="10.00">pycanha::TransientSolver</text>
</a>
</g>
</g>
<!-- Node0&#45;&gt;Node4 -->
<g id="edge11_Node000000_Node000004" class="edge">
<title>Node0&#45;&gt;Node4</title>
<g id="a_edge11_Node000000_Node000004"><a xlink:title=" ">
<path fill="none" stroke="#63b8ff" d="M105.69,-22.42C115.88,-21.19 126.57,-19.9 137.03,-18.64"/>
<polygon fill="#63b8ff" stroke="#63b8ff" points="105.45,-18.92 95.94,-23.6 106.29,-25.87 105.45,-18.92"/>
</a>
</g>
</g>
<!-- Node2 -->
<g id="Node000002" class="node">
<title>Node2</title>
<g id="a_Node000002"><a xlink:href="classpycanha_1_1SSLU.html" target="_top" xlink:title="Steady&#45;state solver with a direct factorisation at every Newton pass.">
<polygon fill="white" stroke="#666666" points="420,-98.75 332,-98.75 332,-78 420,-78 420,-98.75"/>
<text xml:space="preserve" text-anchor="middle" x="376" y="-85.25" font-family="Helvetica,sans-Serif" font-size="10.00">pycanha::SSLU</text>
</a>
</g>
</g>
<!-- Node1&#45;&gt;Node2 -->
<g id="edge9_Node000001_Node000002" class="edge">
<title>Node1&#45;&gt;Node2</title>
<g id="a_edge9_Node000001_Node000002"><a xlink:title=" ">
<path fill="none" stroke="#63b8ff" d="M265.37,-62.83C287.16,-67.91 311.55,-73.59 331.78,-78.3"/>
<polygon fill="#63b8ff" stroke="#63b8ff" points="266.26,-59.44 255.72,-60.58 264.67,-66.26 266.26,-59.44"/>
</a>
</g>
</g>
<!-- Node3 -->
<g id="Node000003" class="node">
<title>Node3</title>
<g id="a_Node000003"><a xlink:href="classpycanha_1_1SSLU__CGS.html" target="_top" xlink:title=" ">
<polygon fill="white" stroke="#666666" points="432.75,-59.75 319.25,-59.75 319.25,-39 432.75,-39 432.75,-59.75"/>
<text xml:space="preserve" text-anchor="middle" x="376" y="-46.25" font-family="Helvetica,sans-Serif" font-size="10.00">pycanha::SSLU_CGS</text>
</a>
</g>
</g>
<!-- Node1&#45;&gt;Node3 -->
<g id="edge10_Node000001_Node000003" class="edge">
<title>Node1&#45;&gt;Node3</title>
<g id="a_edge10_Node000001_Node000003"><a xlink:title=" ">
<path fill="none" stroke="#63b8ff" d="M294.98,-49.38C303.12,-49.38 311.21,-49.38 318.95,-49.38"/>
<polygon fill="#63b8ff" stroke="#63b8ff" points="294.99,-45.88 284.99,-49.38 294.99,-52.88 294.99,-45.88"/>
</a>
</g>
</g>
<!-- Node5 -->
<g id="Node000005" class="node">
<title>Node5</title>
<g id="a_Node000005"><a xlink:href="classpycanha_1_1TSCN.html" target="_top" xlink:title=" ">
<polygon fill="white" stroke="#666666" points="420.75,-20.75 331.25,-20.75 331.25,0 420.75,0 420.75,-20.75"/>
<text xml:space="preserve" text-anchor="middle" x="376" y="-7.25" font-family="Helvetica,sans-Serif" font-size="10.00">pycanha::TSCN</text>
</a>
</g>
</g>
<!-- Node4&#45;&gt;Node5 -->
<g id="edge12_Node000004_Node000005" class="edge">
<title>Node4&#45;&gt;Node5</title>
<g id="a_edge12_Node000004_Node000005"><a xlink:title=" ">
<path fill="none" stroke="#63b8ff" d="M287.61,-10.38C302.64,-10.38 317.83,-10.38 331.23,-10.38"/>
<polygon fill="#63b8ff" stroke="#63b8ff" points="287.7,-6.88 277.7,-10.38 287.7,-13.88 287.7,-6.88"/>
</a>
</g>
</g>
<!-- Node6 -->
<g id="Node000006" class="node">
<title>Node6</title>
<g id="a_Node000006"><a xlink:href="classpycanha_1_1TSCNRL.html" target="_top" xlink:title=" ">
<polygon fill="white" stroke="#666666" points="570.25,-20.75 468.75,-20.75 468.75,0 570.25,0 570.25,-20.75"/>
<text xml:space="preserve" text-anchor="middle" x="519.5" y="-7.25" font-family="Helvetica,sans-Serif" font-size="10.00">pycanha::TSCNRL</text>
</a>
</g>
</g>
<!-- Node5&#45;&gt;Node6 -->
<g id="edge13_Node000005_Node000006" class="edge">
<title>Node5&#45;&gt;Node6</title>
<g id="a_edge13_Node000005_Node000006"><a xlink:title=" ">
<path fill="none" stroke="#63b8ff" d="M432.18,-10.38C444.1,-10.38 456.64,-10.38 468.35,-10.38"/>
<polygon fill="#63b8ff" stroke="#63b8ff" points="432.51,-6.88 422.51,-10.38 432.51,-13.88 432.51,-6.88"/>
</a>
</g>
</g>
<!-- Node7 -->
<g id="Node000007" class="node">
<title>Node7</title>
<g id="a_Node000007"><a xlink:href="classpycanha_1_1TSCNRLDS.html" target="_top" xlink:title=" ">
<polygon fill="white" stroke="#666666" points="721.25,-20.75 606.25,-20.75 606.25,0 721.25,0 721.25,-20.75"/>
<text xml:space="preserve" text-anchor="middle" x="663.75" y="-7.25" font-family="Helvetica,sans-Serif" font-size="10.00">pycanha::TSCNRLDS</text>
</a>
</g>
</g>
<!-- Node6&#45;&gt;Node7 -->
<g id="edge14_Node000006_Node000007" class="edge">
<title>Node6&#45;&gt;Node7</title>
<g id="a_edge14_Node000006_Node000007"><a xlink:title=" ">
<path fill="none" stroke="#63b8ff" d="M582.04,-10.38C589.92,-10.38 597.96,-10.38 605.77,-10.38"/>
<polygon fill="#63b8ff" stroke="#63b8ff" points="582.17,-6.88 572.17,-10.38 582.17,-13.88 582.17,-6.88"/>
</a>
</g>
</g>
<!-- Node8 -->
<g id="Node000008" class="node">
<title>Node8</title>
<g id="a_Node000008"><a xlink:href="classpycanha_1_1TSCNRLDS__JACOBIAN.html" target="_top" xlink:title=" ">
<polygon fill="white" stroke="#666666" points="925.5,-20.75 757.25,-20.75 757.25,0 925.5,0 925.5,-20.75"/>
<text xml:space="preserve" text-anchor="middle" x="841.38" y="-7.25" font-family="Helvetica,sans-Serif" font-size="10.00">pycanha::TSCNRLDS_JACOBIAN</text>
</a>
</g>
</g>
<!-- Node7&#45;&gt;Node8 -->
<g id="edge15_Node000007_Node000008" class="edge">
<title>Node7&#45;&gt;Node8</title>
<g id="a_edge15_Node000007_Node000008"><a xlink:title=" ">
<path fill="none" stroke="#63b8ff" d="M732.67,-10.38C740.57,-10.38 748.69,-10.38 756.77,-10.38"/>
<polygon fill="#63b8ff" stroke="#63b8ff" points="732.8,-6.88 722.8,-10.38 732.8,-13.88 732.8,-6.88"/>
</a>
</g>
</g>
</g>
</svg>
