<?xml version="1.0" encoding="UTF-8" standalone="no"?>
<!DOCTYPE svg PUBLIC "-//W3C//DTD SVG 1.1//EN"
 "http://www.w3.org/Graphics/SVG/1.1/DTD/svg11.dtd">
<!-- Generated by graphviz version 2.43.0 (0)
 -->
<!-- Title: Graphical Class Hierarchy Pages: 1 -->
<svg width="509pt" height="94pt"
 viewBox="0.00 0.00 509.00 93.50" xmlns="http://www.w3.org/2000/svg" xmlns:xlink="http://www.w3.org/1999/xlink">
<g id="graph0" class="graph" transform="scale(1 1) rotate(0) translate(4 89.5)">
<title>Graphical Class Hierarchy</title>
<!-- Node0 -->
<g id="Node000000" class="node">
<title>Node0</title>
<g id="a_Node000000"><a xlink:href="classpycanha_1_1ThermalEntity.html" target="_top" xlink:title=" ">
<polygon fill="white" stroke="#666666" points="133,-66.5 0,-66.5 0,-47.5 133,-47.5 133,-66.5"/>
<text text-anchor="middle" x="66.5" y="-54.5" font-family="Helvetica,sans-Serif" font-size="10.00">pycanha::ThermalEntity</text>
</a>
</g>
</g>
<!-- Node1 -->
<g id="Node000001" class="node">
<title>Node1</title>
<g id="a_Node000001"><a xlink:href="classpycanha_1_1AttributeEntity.html" target="_top" xlink:title=" ">
<polygon fill="white" stroke="#666666" points="304,-85.5 169,-85.5 169,-66.5 304,-66.5 304,-85.5"/>
<text text-anchor="middle" x="236.5" y="-73.5" font-family="Helvetica,sans-Serif" font-size="10.00">pycanha::AttributeEntity</text>
</a>
</g>
</g>
<!-- Node0&#45;&gt;Node1 -->
<g id="edge9_Node000000_Node000001" class="edge">
<title>Node0&#45;&gt;Node1</title>
<g id="a_edge9_Node000000_Node000001"><a xlink:title=" ">
<path fill="none" stroke="#63b8ff" d="M143.36,-65.58C151.9,-66.54 160.54,-67.52 168.95,-68.47"/>
<polygon fill="#63b8ff" stroke="#63b8ff" points="143.75,-62.1 133.42,-64.45 142.96,-69.06 143.75,-62.1"/>
</a>
</g>
</g>
<!-- Node2 -->
<g id="Node000002" class="node">
<title>Node2</title>
<g id="a_Node000002"><a xlink:href="classpycanha_1_1CouplingEntity.html" target="_top" xlink:title=" ">
<polygon fill="white" stroke="#666666" points="304,-48.5 169,-48.5 169,-29.5 304,-29.5 304,-48.5"/>
<text text-anchor="middle" x="236.5" y="-36.5" font-family="Helvetica,sans-Serif" font-size="10.00">pycanha::CouplingEntity</text>
</a>
</g>
</g>
<!-- Node0&#45;&gt;Node2 -->
<g id="edge10_Node000000_Node000002" class="edge">
<title>Node0&#45;&gt;Node2</title>
<g id="a_edge10_Node000000_Node000002"><a xlink:title=" ">
<path fill="none" stroke="#63b8ff" d="M143.36,-48.87C151.9,-47.96 160.54,-47.03 168.95,-46.13"/>
<polygon fill="#63b8ff" stroke="#63b8ff" points="142.99,-45.39 133.42,-49.94 143.73,-52.35 142.99,-45.39"/>
</a>
</g>
</g>
<!-- Node3 -->
<g id="Node000003" class="node">
<title>Node3</title>
<g id="a_Node000003"><a xlink:href="classpycanha_1_1ConductiveCouplingEntity.html" target="_top" xlink:title=" ">
<polygon fill="white" stroke="#666666" points="501,-78 340,-78 340,-48 501,-48 501,-78"/>
<text text-anchor="start" x="348" y="-66" font-family="Helvetica,sans-Serif" font-size="10.00">pycanha::ConductiveCoupling</text>
<text text-anchor="middle" x="420.5" y="-55" font-family="Helvetica,sans-Serif" font-size="10.00">Entity</text>
</a>
</g>
</g>
<!-- Node2&#45;&gt;Node3 -->
<g id="edge11_Node000002_Node000003" class="edge">
<title>Node2&#45;&gt;Node3</title>
<g id="a_edge11_Node000002_Node000003"><a xlink:title=" ">
<path fill="none" stroke="#63b8ff" d="M314.39,-49.14C322.79,-50.25 331.36,-51.38 339.8,-52.49"/>
<polygon fill="#63b8ff" stroke="#63b8ff" points="314.61,-45.64 304.24,-47.8 313.69,-52.58 314.61,-45.64"/>
</a>
</g>
</g>
<!-- Node4 -->
<g id="Node000004" class="node">
<title>Node4</title>
<g id="a_Node000004"><a xlink:href="classpycanha_1_1RadiativeCouplingEntity.html" target="_top" xlink:title=" ">
<polygon fill="white" stroke="#666666" points="497,-30 344,-30 344,0 497,0 497,-30"/>
<text text-anchor="start" x="352" y="-18" font-family="Helvetica,sans-Serif" font-size="10.00">pycanha::RadiativeCoupling</text>
<text text-anchor="middle" x="420.5" y="-7" font-family="Helvetica,sans-Serif" font-size="10.00">Entity</text>
</a>
</g>
</g>
<!-- Node2&#45;&gt;Node4 -->
<g id="edge12_Node000002_Node000004" class="edge">
<title>Node2&#45;&gt;Node4</title>
<g id="a_edge12_Node000002_Node000004"><a xlink:title=" ">
<path fill="none" stroke="#63b8ff" d="M314.32,-28.87C324.1,-27.58 334.09,-26.26 343.85,-24.98"/>
<polygon fill="#63b8ff" stroke="#63b8ff" points="313.69,-25.42 304.24,-30.2 314.61,-32.36 313.69,-25.42"/>
</a>
</g>
</g>
</g>
</svg>
