<?xml version="1.0" encoding="UTF-8" standalone="no"?>
<!DOCTYPE svg PUBLIC "-//W3C//DTD SVG 1.1//EN"
 "http://www.w3.org/Graphics/SVG/1.1/DTD/svg11.dtd">
<!-- Generated by graphviz version 2.43.0 (0)
 -->
<!-- Title: pycanha::set_python_logger_level Pages: 1 -->
<svg width="433pt" height="38pt"
 viewBox="0.00 0.00 433.00 38.00" xmlns="http://www.w3.org/2000/svg" xmlns:xlink="http://www.w3.org/1999/xlink">
<g id="graph0" class="graph" transform="scale(1 1) rotate(0) translate(4 34)">
<title>pycanha::set_python_logger_level</title>
<!-- Node1 -->
<g id="Node000001" class="node">
<title>Node1</title>
<g id="a_Node000001"><a xlink:title=" ">
<polygon fill="#999999" stroke="#666666" points="118,-30 0,-30 0,0 118,0 118,-30"/>
<text text-anchor="start" x="8" y="-18" font-family="Helvetica,sans-Serif" font-size="10.00">pycanha::set_python</text>
<text text-anchor="middle" x="59" y="-7" font-family="Helvetica,sans-Serif" font-size="10.00">_logger_level</text>
</a>
</g>
</g>
<!-- Node2 -->
<g id="Node000002" class="node">
<title>Node2</title>
<g id="a_Node000002"><a xlink:href="namespacepycanha.html#a986a70b1a008f250032d3580e2696ec9" target="_top" xlink:title=" ">
<polygon fill="white" stroke="#666666" points="273,-30 154,-30 154,0 273,0 273,-30"/>
<text text-anchor="start" x="162" y="-18" font-family="Helvetica,sans-Serif" font-size="10.00">pycanha::get_python</text>
<text text-anchor="middle" x="213.5" y="-7" font-family="Helvetica,sans-Serif" font-size="10.00">_logger</text>
</a>
</g>
</g>
<!-- Node1&#45;&gt;Node2 -->
<g id="edge1_Node000001_Node000002" class="edge">
<title>Node1&#45;&gt;Node2</title>
<g id="a_edge1_Node000001_Node000002"><a xlink:title=" ">
<path fill="none" stroke="#63b8ff" d="M118.09,-15C126.5,-15 135.22,-15 143.81,-15"/>
<polygon fill="#63b8ff" stroke="#63b8ff" points="143.81,-18.5 153.81,-15 143.81,-11.5 143.81,-18.5"/>
</a>
</g>
</g>
<!-- Node3 -->
<g id="Node000003" class="node">
<title>Node3</title>
<g id="a_Node000003"><a xlink:href="namespacepycanha.html#af116674b7649af0e33b3d7e78ecb1b1b" target="_top" xlink:title=" ">
<polygon fill="white" stroke="#666666" points="425,-24.5 309,-24.5 309,-5.5 425,-5.5 425,-24.5"/>
<text text-anchor="middle" x="367" y="-12.5" font-family="Helvetica,sans-Serif" font-size="10.00">pycanha::get_logger</text>
</a>
</g>
</g>
<!-- Node2&#45;&gt;Node3 -->
<g id="edge2_Node000002_Node000003" class="edge">
<title>Node2&#45;&gt;Node3</title>
<g id="a_edge2_Node000002_Node000003"><a xlink:title=" ">
<path fill="none" stroke="#63b8ff" d="M273.07,-15C281.36,-15 289.94,-15 298.38,-15"/>
<polygon fill="#63b8ff" stroke="#63b8ff" points="298.58,-18.5 308.58,-15 298.58,-11.5 298.58,-18.5"/>
</a>
</g>
</g>
</g>
</svg>
