<?xml version="1.0" encoding="UTF-8" standalone="no"?>
<!DOCTYPE svg PUBLIC "-//W3C//DTD SVG 1.1//EN"
 "http://www.w3.org/Graphics/SVG/1.1/DTD/svg11.dtd">
<!-- Generated by graphviz version 2.43.0 (0)
 -->
<!-- Title: pycanha::ExpressionFormula::SymbolBinding Pages: 1 -->
<svg width="283pt" height="269pt"
 viewBox="0.00 0.00 283.00 269.00" xmlns="http://www.w3.org/2000/svg" xmlns:xlink="http://www.w3.org/1999/xlink">
<g id="graph0" class="graph" transform="scale(1 1) rotate(0) translate(4 265)">
<title>pycanha::ExpressionFormula::SymbolBinding</title>
<!-- Node1 -->
<g id="Node000001" class="node">
<title>Node1</title>
<g id="a_Node000001"><a xlink:title=" ">
<polygon fill="#999999" stroke="#666666" points="157,-30 0,-30 0,0 157,0 157,-30"/>
<text text-anchor="start" x="8" y="-18" font-family="Helvetica,sans-Serif" font-size="10.00">pycanha::ExpressionFormula</text>
<text text-anchor="middle" x="78.5" y="-7" font-family="Helvetica,sans-Serif" font-size="10.00">::SymbolBinding</text>
</a>
</g>
</g>
<!-- Node2 -->
<g id="Node000002" class="node">
<title>Node2</title>
<g id="a_Node000002"><a xlink:href="classpycanha_1_1Entity.html" target="_top" xlink:title=" ">
<polygon fill="white" stroke="#bfbfbf" points="124.5,-96 32.5,-96 32.5,-77 124.5,-77 124.5,-96"/>
<text text-anchor="middle" x="78.5" y="-84" font-family="Helvetica,sans-Serif" font-size="10.00">pycanha::Entity</text>
</a>
</g>
</g>
<!-- Node2&#45;&gt;Node1 -->
<g id="edge1_Node000001_Node000002" class="edge">
<title>Node2&#45;&gt;Node1</title>
<g id="a_edge1_Node000001_Node000002"><a xlink:title=" ">
<path fill="none" stroke="#9a32cd" stroke-dasharray="5,2" d="M78.5,-66.71C78.5,-55.19 78.5,-40.68 78.5,-30.14"/>
<polygon fill="#9a32cd" stroke="#9a32cd" points="75,-66.98 78.5,-76.98 82,-66.98 75,-66.98"/>
</a>
</g>
<text text-anchor="middle" x="94.5" y="-51" font-family="Helvetica,sans-Serif" font-size="10.00" fill="grey"> entity</text>
</g>
<!-- Node3 -->
<g id="Node000003" class="node">
<title>Node3</title>
<g id="a_Node000003"><a xlink:href="classpycanha_1_1ThermalNetwork.html" target="_top" xlink:title=" ">
<polygon fill="white" stroke="#bfbfbf" points="151.5,-261 5.5,-261 5.5,-242 151.5,-242 151.5,-261"/>
<text text-anchor="middle" x="78.5" y="-249" font-family="Helvetica,sans-Serif" font-size="10.00">pycanha::ThermalNetwork</text>
</a>
</g>
</g>
<!-- Node3&#45;&gt;Node2 -->
<g id="edge2_Node000002_Node000003" class="edge">
<title>Node3&#45;&gt;Node2</title>
<g id="a_edge2_Node000002_Node000003"><a xlink:title=" ">
<path fill="none" stroke="#9a32cd" stroke-dasharray="5,2" d="M76.22,-231.85C73.88,-210.42 70.82,-174.17 72.5,-143 73.4,-126.35 75.8,-107.02 77.28,-96.13"/>
<polygon fill="#9a32cd" stroke="#9a32cd" points="72.75,-232.33 77.38,-241.86 79.7,-231.53 72.75,-232.33"/>
</a>
</g>
<text text-anchor="middle" x="97" y="-150" font-family="Helvetica,sans-Serif" font-size="10.00" fill="grey"> _network</text>
</g>
<!-- Node4 -->
<g id="Node000004" class="node">
<title>Node4</title>
<g id="a_Node000004"><a xlink:href="structpycanha_1_1detail_1_1EntityOps.html" target="_top" xlink:title=" ">
<polygon fill="white" stroke="#bfbfbf" points="275,-162 130,-162 130,-143 275,-143 275,-162"/>
<text text-anchor="middle" x="202.5" y="-150" font-family="Helvetica,sans-Serif" font-size="10.00">pycanha::detail::EntityOps</text>
</a>
</g>
</g>
<!-- Node3&#45;&gt;Node4 -->
<g id="edge4_Node000004_Node000003" class="edge">
<title>Node3&#45;&gt;Node4</title>
<g id="a_edge4_Node000004_Node000003"><a xlink:title=" ">
<path fill="none" stroke="#9a32cd" stroke-dasharray="5,2" d="M97.56,-235.59C123.78,-215.08 170.13,-178.82 191.34,-162.23"/>
<polygon fill="#9a32cd" stroke="#9a32cd" points="95.22,-232.97 89.5,-241.89 99.54,-238.49 95.22,-232.97"/>
</a>
</g>
<text text-anchor="middle" x="199" y="-216" font-family="Helvetica,sans-Serif" font-size="10.00" fill="grey"> exists</text>
<text text-anchor="middle" x="199" y="-205" font-family="Helvetica,sans-Serif" font-size="10.00" fill="grey">get_value</text>
<text text-anchor="middle" x="199" y="-194" font-family="Helvetica,sans-Serif" font-size="10.00" fill="grey">get_value_ref</text>
<text text-anchor="middle" x="199" y="-183" font-family="Helvetica,sans-Serif" font-size="10.00" fill="grey">set_value</text>
</g>
<!-- Node4&#45;&gt;Node2 -->
<g id="edge3_Node000002_Node000004" class="edge">
<title>Node4&#45;&gt;Node2</title>
<g id="a_edge3_Node000002_Node000004"><a xlink:title=" ">
<path fill="none" stroke="#9a32cd" stroke-dasharray="5,2" d="M176.72,-138.19C152.29,-125.59 116.31,-107.01 95.35,-96.2"/>
<polygon fill="#9a32cd" stroke="#9a32cd" points="175.29,-141.39 185.78,-142.87 178.5,-135.17 175.29,-141.39"/>
</a>
</g>
<text text-anchor="middle" x="160.5" y="-117" font-family="Helvetica,sans-Serif" font-size="10.00" fill="grey"> _ops</text>
</g>
</g>
</svg>
